G04 #@! TF.GenerationSoftware,KiCad,Pcbnew,8.0.9*
G04 #@! TF.CreationDate,2025-05-10T12:34:34+01:00*
G04 #@! TF.ProjectId,megaflash,6d656761-666c-4617-9368-2e6b69636164,rev?*
G04 #@! TF.SameCoordinates,Original*
G04 #@! TF.FileFunction,Paste,Top*
G04 #@! TF.FilePolarity,Positive*
%FSLAX46Y46*%
G04 Gerber Fmt 4.6, Leading zero omitted, Abs format (unit mm)*
G04 Created by KiCad (PCBNEW 8.0.9) date 2025-05-10 12:34:34*
%MOMM*%
%LPD*%
G01*
G04 APERTURE LIST*
G04 Aperture macros list*
%AMRoundRect*
0 Rectangle with rounded corners*
0 $1 Rounding radius*
0 $2 $3 $4 $5 $6 $7 $8 $9 X,Y pos of 4 corners*
0 Add a 4 corners polygon primitive as box body*
4,1,4,$2,$3,$4,$5,$6,$7,$8,$9,$2,$3,0*
0 Add four circle primitives for the rounded corners*
1,1,$1+$1,$2,$3*
1,1,$1+$1,$4,$5*
1,1,$1+$1,$6,$7*
1,1,$1+$1,$8,$9*
0 Add four rect primitives between the rounded corners*
20,1,$1+$1,$2,$3,$4,$5,0*
20,1,$1+$1,$4,$5,$6,$7,0*
20,1,$1+$1,$6,$7,$8,$9,0*
20,1,$1+$1,$8,$9,$2,$3,0*%
G04 Aperture macros list end*
%ADD10R,3.500000X1.700000*%
%ADD11R,1.200000X0.400000*%
%ADD12RoundRect,0.250000X0.337500X0.475000X-0.337500X0.475000X-0.337500X-0.475000X0.337500X-0.475000X0*%
%ADD13RoundRect,0.250000X0.615000X-0.435000X0.615000X0.435000X-0.615000X0.435000X-0.615000X-0.435000X0*%
%ADD14RoundRect,0.125000X0.125000X-0.200000X0.125000X0.200000X-0.125000X0.200000X-0.125000X-0.200000X0*%
%ADD15RoundRect,0.250000X0.925000X-0.412500X0.925000X0.412500X-0.925000X0.412500X-0.925000X-0.412500X0*%
%ADD16RoundRect,0.375000X0.375000X-0.625000X0.375000X0.625000X-0.375000X0.625000X-0.375000X-0.625000X0*%
%ADD17RoundRect,0.500000X1.400000X-0.500000X1.400000X0.500000X-1.400000X0.500000X-1.400000X-0.500000X0*%
%ADD18R,0.700000X1.925000*%
%ADD19R,1.925000X0.700000*%
%ADD20RoundRect,0.250000X-0.337500X-0.475000X0.337500X-0.475000X0.337500X0.475000X-0.337500X0.475000X0*%
%ADD21RoundRect,0.250000X-0.475000X0.337500X-0.475000X-0.337500X0.475000X-0.337500X0.475000X0.337500X0*%
%ADD22RoundRect,0.250000X-0.650000X1.000000X-0.650000X-1.000000X0.650000X-1.000000X0.650000X1.000000X0*%
%ADD23R,0.800000X0.500000*%
%ADD24R,0.800000X0.400000*%
G04 APERTURE END LIST*
D10*
X130790000Y-112130000D03*
X130790000Y-109590000D03*
X130790000Y-107050000D03*
X130790000Y-104510000D03*
X130790000Y-101970000D03*
X130790000Y-99430000D03*
X130790000Y-96890000D03*
X130790000Y-94350000D03*
X130790000Y-91810000D03*
X130790000Y-89270000D03*
X130790000Y-86730000D03*
X130790000Y-84190000D03*
X130790000Y-81650000D03*
X130790000Y-79110000D03*
X130790000Y-76570000D03*
X130790000Y-74030000D03*
X130790000Y-71490000D03*
X130790000Y-68950000D03*
X130790000Y-66410000D03*
X130790000Y-63870000D03*
X111210000Y-63870000D03*
X111210000Y-66410000D03*
X111210000Y-68950000D03*
X111210000Y-71490000D03*
X111210000Y-74030000D03*
X111210000Y-76570000D03*
X111210000Y-79110000D03*
X111210000Y-81650000D03*
X111210000Y-84190000D03*
X111210000Y-86730000D03*
X111210000Y-89270000D03*
X111210000Y-91810000D03*
X111210000Y-94350000D03*
X111210000Y-96890000D03*
X111210000Y-99430000D03*
X111210000Y-101970000D03*
X111210000Y-104510000D03*
X111210000Y-107050000D03*
X111210000Y-109590000D03*
X111210000Y-112130000D03*
D11*
X96500000Y-98302500D03*
X96500000Y-97667500D03*
X96500000Y-97032500D03*
X96500000Y-96397500D03*
X96500000Y-95762500D03*
X96500000Y-95127500D03*
X96500000Y-94492500D03*
X96500000Y-93857500D03*
X96500000Y-93222500D03*
X96500000Y-92587500D03*
X96500000Y-91952500D03*
X96500000Y-91317500D03*
X96500000Y-90682500D03*
X96500000Y-90047500D03*
X96500000Y-89412500D03*
X96500000Y-88777500D03*
X96500000Y-88142500D03*
X96500000Y-87507500D03*
X96500000Y-86872500D03*
X96500000Y-86237500D03*
X96500000Y-85602500D03*
X96500000Y-84967500D03*
X96500000Y-84332500D03*
X96500000Y-83697500D03*
X87100000Y-83697500D03*
X87100000Y-84332500D03*
X87100000Y-84967500D03*
X87100000Y-85602500D03*
X87100000Y-86237500D03*
X87100000Y-86872500D03*
X87100000Y-87507500D03*
X87100000Y-88142500D03*
X87100000Y-88777500D03*
X87100000Y-89412500D03*
X87100000Y-90047500D03*
X87100000Y-90682500D03*
X87100000Y-91317500D03*
X87100000Y-91952500D03*
X87100000Y-92587500D03*
X87100000Y-93222500D03*
X87100000Y-93857500D03*
X87100000Y-94492500D03*
X87100000Y-95127500D03*
X87100000Y-95762500D03*
X87100000Y-96397500D03*
X87100000Y-97032500D03*
X87100000Y-97667500D03*
X87100000Y-98302500D03*
D12*
X96137500Y-101500000D03*
X94062500Y-101500000D03*
D13*
X97725000Y-108900000D03*
X99875000Y-108900000D03*
X97725000Y-107200000D03*
X99875000Y-107200000D03*
D14*
X96895000Y-111800000D03*
X98165000Y-111800000D03*
X99435000Y-111800000D03*
X100705000Y-111800000D03*
X100705000Y-104300000D03*
X99435000Y-104300000D03*
X98165000Y-104300000D03*
X96895000Y-104300000D03*
D15*
X73000000Y-101337500D03*
X73000000Y-98262500D03*
D12*
X101775000Y-101500000D03*
X99700000Y-101500000D03*
D16*
X72700000Y-111150000D03*
X75000000Y-111150000D03*
D17*
X75000000Y-104850000D03*
D16*
X77300000Y-111150000D03*
D12*
X84737500Y-101500000D03*
X82662500Y-101500000D03*
D18*
X93750000Y-65447500D03*
X92480000Y-65447500D03*
X91210000Y-65447500D03*
D19*
X89697500Y-66960000D03*
X89697500Y-68230000D03*
X89697500Y-69500000D03*
X89697500Y-70770000D03*
X89697500Y-72040000D03*
D18*
X91210000Y-73552500D03*
X92480000Y-73552500D03*
X93750000Y-73552500D03*
X95020000Y-73552500D03*
X96290000Y-73552500D03*
D19*
X97802500Y-72040000D03*
X97802500Y-70770000D03*
X97802500Y-69500000D03*
X97802500Y-68230000D03*
X97802500Y-66960000D03*
D18*
X96290000Y-65447500D03*
X95020000Y-65447500D03*
D20*
X94462500Y-81000000D03*
X96537500Y-81000000D03*
D21*
X84000000Y-96062500D03*
X84000000Y-98137500D03*
D22*
X78700000Y-55300000D03*
X78700000Y-59300000D03*
D21*
X104500000Y-62325000D03*
X104500000Y-64400000D03*
D15*
X78000000Y-101337500D03*
X78000000Y-98262500D03*
D23*
X102600000Y-95200000D03*
D24*
X102600000Y-96000000D03*
X102600000Y-96800000D03*
D23*
X102600000Y-97600000D03*
X104400000Y-97600000D03*
D24*
X104400000Y-96800000D03*
X104400000Y-96000000D03*
D23*
X104400000Y-95200000D03*
D13*
X86125000Y-108900000D03*
X88275000Y-108900000D03*
X86125000Y-107200000D03*
X88275000Y-107200000D03*
D14*
X85295000Y-111800000D03*
X86565000Y-111800000D03*
X87835000Y-111800000D03*
X89105000Y-111800000D03*
X89105000Y-104300000D03*
X87835000Y-104300000D03*
X86565000Y-104300000D03*
X85295000Y-104300000D03*
D20*
X87362500Y-81000000D03*
X89437500Y-81000000D03*
D22*
X83400000Y-55300000D03*
X83400000Y-59300000D03*
M02*
