G04 #@! TF.GenerationSoftware,KiCad,Pcbnew,9.0.4*
G04 #@! TF.CreationDate,2025-09-09T10:11:16+01:00*
G04 #@! TF.ProjectId,megaflash,6d656761-666c-4617-9368-2e6b69636164,rev?*
G04 #@! TF.SameCoordinates,Original*
G04 #@! TF.FileFunction,Soldermask,Bot*
G04 #@! TF.FilePolarity,Negative*
%FSLAX46Y46*%
G04 Gerber Fmt 4.6, Leading zero omitted, Abs format (unit mm)*
G04 Created by KiCad (PCBNEW 9.0.4) date 2025-09-09 10:11:16*
%MOMM*%
%LPD*%
G01*
G04 APERTURE LIST*
G04 Aperture macros list*
%AMRoundRect*
0 Rectangle with rounded corners*
0 $1 Rounding radius*
0 $2 $3 $4 $5 $6 $7 $8 $9 X,Y pos of 4 corners*
0 Add a 4 corners polygon primitive as box body*
4,1,4,$2,$3,$4,$5,$6,$7,$8,$9,$2,$3,0*
0 Add four circle primitives for the rounded corners*
1,1,$1+$1,$2,$3*
1,1,$1+$1,$4,$5*
1,1,$1+$1,$6,$7*
1,1,$1+$1,$8,$9*
0 Add four rect primitives between the rounded corners*
20,1,$1+$1,$2,$3,$4,$5,0*
20,1,$1+$1,$4,$5,$6,$7,0*
20,1,$1+$1,$6,$7,$8,$9,0*
20,1,$1+$1,$8,$9,$2,$3,0*%
G04 Aperture macros list end*
%ADD10C,1.600000*%
%ADD11O,1.800000X1.800000*%
%ADD12O,1.500000X1.500000*%
%ADD13R,1.700000X1.700000*%
%ADD14O,1.700000X1.700000*%
%ADD15RoundRect,0.249999X0.850001X0.850001X-0.850001X0.850001X-0.850001X-0.850001X0.850001X-0.850001X0*%
%ADD16C,2.200000*%
%ADD17C,2.700000*%
G04 APERTURE END LIST*
D10*
X98760000Y-72390000D03*
X103760000Y-72390000D03*
D11*
X135425000Y-94000000D03*
D12*
X135125000Y-90970000D03*
X130275000Y-90970000D03*
D11*
X129975000Y-94000000D03*
D10*
X90170000Y-66040000D03*
X85170000Y-66040000D03*
X90170000Y-82200000D03*
X85170000Y-82200000D03*
D13*
X71600000Y-93660000D03*
D14*
X74140000Y-93660000D03*
X71600000Y-91120000D03*
X74140000Y-91120000D03*
X71600000Y-88580000D03*
X74140000Y-88580000D03*
X71600000Y-86040000D03*
X74140000Y-86040000D03*
X71600000Y-83500000D03*
X74140000Y-83500000D03*
X71600000Y-80960000D03*
X74140000Y-80960000D03*
X71600000Y-78420000D03*
X74140000Y-78420000D03*
X71600000Y-75880000D03*
X74140000Y-75880000D03*
X71600000Y-73340000D03*
X74140000Y-73340000D03*
X71600000Y-70800000D03*
X74140000Y-70800000D03*
X71600000Y-68260000D03*
X74140000Y-68260000D03*
X71600000Y-65720000D03*
X74140000Y-65720000D03*
X71600000Y-63180000D03*
X74140000Y-63180000D03*
X71600000Y-60640000D03*
X74140000Y-60640000D03*
X71600000Y-58100000D03*
X74140000Y-58100000D03*
X71600000Y-55560000D03*
X74140000Y-55560000D03*
X71600000Y-53020000D03*
X74140000Y-53020000D03*
D10*
X152425000Y-71630000D03*
X157425000Y-71630000D03*
X160274000Y-64770000D03*
X150114000Y-64770000D03*
X152425000Y-46595000D03*
X157425000Y-46595000D03*
D15*
X81788000Y-46990000D03*
D16*
X71628000Y-46990000D03*
D10*
X111975000Y-72390000D03*
X106975000Y-72390000D03*
X112650000Y-46990000D03*
X107650000Y-46990000D03*
D17*
X116600000Y-82232500D03*
D10*
X160274000Y-91202000D03*
X150114000Y-91202000D03*
X98720000Y-46990000D03*
X103720000Y-46990000D03*
X90170000Y-50800000D03*
X85170000Y-50800000D03*
M02*
