G04 #@! TF.GenerationSoftware,KiCad,Pcbnew,9.0.4*
G04 #@! TF.CreationDate,2025-09-09T10:11:16+01:00*
G04 #@! TF.ProjectId,megaflash,6d656761-666c-4617-9368-2e6b69636164,rev?*
G04 #@! TF.SameCoordinates,Original*
G04 #@! TF.FileFunction,Paste,Top*
G04 #@! TF.FilePolarity,Positive*
%FSLAX46Y46*%
G04 Gerber Fmt 4.6, Leading zero omitted, Abs format (unit mm)*
G04 Created by KiCad (PCBNEW 9.0.4) date 2025-09-09 10:11:16*
%MOMM*%
%LPD*%
G01*
G04 APERTURE LIST*
G04 Aperture macros list*
%AMRoundRect*
0 Rectangle with rounded corners*
0 $1 Rounding radius*
0 $2 $3 $4 $5 $6 $7 $8 $9 X,Y pos of 4 corners*
0 Add a 4 corners polygon primitive as box body*
4,1,4,$2,$3,$4,$5,$6,$7,$8,$9,$2,$3,0*
0 Add four circle primitives for the rounded corners*
1,1,$1+$1,$2,$3*
1,1,$1+$1,$4,$5*
1,1,$1+$1,$6,$7*
1,1,$1+$1,$8,$9*
0 Add four rect primitives between the rounded corners*
20,1,$1+$1,$2,$3,$4,$5,0*
20,1,$1+$1,$4,$5,$6,$7,0*
20,1,$1+$1,$6,$7,$8,$9,0*
20,1,$1+$1,$8,$9,$2,$3,0*%
G04 Aperture macros list end*
%ADD10R,3.500000X1.700000*%
%ADD11RoundRect,0.150000X0.875000X0.150000X-0.875000X0.150000X-0.875000X-0.150000X0.875000X-0.150000X0*%
%ADD12RoundRect,0.150000X-0.825000X-0.150000X0.825000X-0.150000X0.825000X0.150000X-0.825000X0.150000X0*%
%ADD13RoundRect,0.150000X-0.875000X-0.150000X0.875000X-0.150000X0.875000X0.150000X-0.875000X0.150000X0*%
G04 APERTURE END LIST*
D10*
X142490000Y-94130000D03*
X142490000Y-91590000D03*
X142490000Y-89050000D03*
X142490000Y-86510000D03*
X142490000Y-83970000D03*
X142490000Y-81430000D03*
X142490000Y-78890000D03*
X142490000Y-76350000D03*
X142490000Y-73810000D03*
X142490000Y-71270000D03*
X142490000Y-68730000D03*
X142490000Y-66190000D03*
X142490000Y-63650000D03*
X142490000Y-61110000D03*
X142490000Y-58570000D03*
X142490000Y-56030000D03*
X142490000Y-53490000D03*
X142490000Y-50950000D03*
X142490000Y-48410000D03*
X142490000Y-45870000D03*
X122910000Y-45870000D03*
X122910000Y-48410000D03*
X122910000Y-50950000D03*
X122910000Y-53490000D03*
X122910000Y-56030000D03*
X122910000Y-58570000D03*
X122910000Y-61110000D03*
X122910000Y-63650000D03*
X122910000Y-66190000D03*
X122910000Y-68730000D03*
X122910000Y-71270000D03*
X122910000Y-73810000D03*
X122910000Y-76350000D03*
X122910000Y-78890000D03*
X122910000Y-81430000D03*
X122910000Y-83970000D03*
X122910000Y-86510000D03*
X122910000Y-89050000D03*
X122910000Y-91590000D03*
X122910000Y-94130000D03*
D11*
X109680000Y-66390000D03*
X109680000Y-65120000D03*
X109680000Y-63850000D03*
X109680000Y-62580000D03*
X109680000Y-61310000D03*
X109680000Y-60040000D03*
X109680000Y-58770000D03*
X109680000Y-57500000D03*
X109680000Y-56230000D03*
X109680000Y-54960000D03*
X109680000Y-53690000D03*
X109680000Y-52420000D03*
X100380000Y-52420000D03*
X100380000Y-53690000D03*
X100380000Y-54960000D03*
X100380000Y-56230000D03*
X100380000Y-57500000D03*
X100380000Y-58770000D03*
X100380000Y-60040000D03*
X100380000Y-61310000D03*
X100380000Y-62580000D03*
X100380000Y-63850000D03*
X100380000Y-65120000D03*
X100380000Y-66390000D03*
D12*
X85155000Y-69215000D03*
X85155000Y-70485000D03*
X85155000Y-71755000D03*
X85155000Y-73025000D03*
X85155000Y-74295000D03*
X85155000Y-75565000D03*
X85155000Y-76835000D03*
X85155000Y-78105000D03*
X90105000Y-78105000D03*
X90105000Y-76835000D03*
X90105000Y-75565000D03*
X90105000Y-74295000D03*
X90105000Y-73025000D03*
X90105000Y-71755000D03*
X90105000Y-70485000D03*
X90105000Y-69215000D03*
D13*
X150000000Y-76090000D03*
X150000000Y-77360000D03*
X150000000Y-78630000D03*
X150000000Y-79900000D03*
X150000000Y-81170000D03*
X150000000Y-82440000D03*
X150000000Y-83710000D03*
X150000000Y-84980000D03*
X159300000Y-84980000D03*
X159300000Y-83710000D03*
X159300000Y-82440000D03*
X159300000Y-81170000D03*
X159300000Y-79900000D03*
X159300000Y-78630000D03*
X159300000Y-77360000D03*
X159300000Y-76090000D03*
D11*
X109680000Y-91790000D03*
X109680000Y-90520000D03*
X109680000Y-89250000D03*
X109680000Y-87980000D03*
X109680000Y-86710000D03*
X109680000Y-85440000D03*
X109680000Y-84170000D03*
X109680000Y-82900000D03*
X109680000Y-81630000D03*
X109680000Y-80360000D03*
X109680000Y-79090000D03*
X109680000Y-77820000D03*
X100380000Y-77820000D03*
X100380000Y-79090000D03*
X100380000Y-80360000D03*
X100380000Y-81630000D03*
X100380000Y-82900000D03*
X100380000Y-84170000D03*
X100380000Y-85440000D03*
X100380000Y-86710000D03*
X100380000Y-87980000D03*
X100380000Y-89250000D03*
X100380000Y-90520000D03*
X100380000Y-91790000D03*
D13*
X150000000Y-51150000D03*
X150000000Y-52420000D03*
X150000000Y-53690000D03*
X150000000Y-54960000D03*
X150000000Y-56230000D03*
X150000000Y-57500000D03*
X150000000Y-58770000D03*
X150000000Y-60040000D03*
X159300000Y-60040000D03*
X159300000Y-58770000D03*
X159300000Y-57500000D03*
X159300000Y-56230000D03*
X159300000Y-54960000D03*
X159300000Y-53690000D03*
X159300000Y-52420000D03*
X159300000Y-51150000D03*
D12*
X85090000Y-53975000D03*
X85090000Y-55245000D03*
X85090000Y-56515000D03*
X85090000Y-57785000D03*
X85090000Y-59055000D03*
X85090000Y-60325000D03*
X85090000Y-61595000D03*
X85090000Y-62865000D03*
X90040000Y-62865000D03*
X90040000Y-61595000D03*
X90040000Y-60325000D03*
X90040000Y-59055000D03*
X90040000Y-57785000D03*
X90040000Y-56515000D03*
X90040000Y-55245000D03*
X90040000Y-53975000D03*
X85155000Y-85090000D03*
X85155000Y-86360000D03*
X85155000Y-87630000D03*
X85155000Y-88900000D03*
X85155000Y-90170000D03*
X85155000Y-91440000D03*
X85155000Y-92710000D03*
X85155000Y-93980000D03*
X90105000Y-93980000D03*
X90105000Y-92710000D03*
X90105000Y-91440000D03*
X90105000Y-90170000D03*
X90105000Y-88900000D03*
X90105000Y-87630000D03*
X90105000Y-86360000D03*
X90105000Y-85090000D03*
M02*
