M48
; DRILL file {KiCad 9.0.4} date 2025-09-09T10:11:18+0100
; FORMAT={-:-/ absolute / metric / decimal}
; #@! TF.CreationDate,2025-09-09T10:11:18+01:00
; #@! TF.GenerationSoftware,Kicad,Pcbnew,9.0.4
; #@! TF.FileFunction,Plated,1,2,PTH
FMAT,2
METRIC
; #@! TA.AperFunction,Plated,PTH,ViaDrill
T1C0.300
; #@! TA.AperFunction,Plated,PTH,ViaDrill
T2C0.400
; #@! TA.AperFunction,Plated,PTH,ComponentDrill
T3C0.800
; #@! TA.AperFunction,Plated,PTH,ComponentDrill
T4C1.000
; #@! TA.AperFunction,Plated,PTH,ComponentDrill
T5C1.100
%
G90
G05
T1
X76.454Y-59.69
X76.454Y-71.882
X77.724Y-71.628
X77.978Y-60.706
X78.772Y-56.642
X78.994Y-54.102
X78.994Y-71.882
X80.264Y-54.864
X81.153Y-59.055
X81.407Y-60.325
X82.804Y-52.578
X83.312Y-55.859
X83.312Y-87.884
X84.328Y-52.324
X87.884Y-56.388
X87.884Y-85.09
X88.138Y-87.63
X88.392Y-86.36
X88.646Y-71.755
X92.02Y-85.416
X92.456Y-79.248
X93.472Y-80.264
X94.421Y-81.37
X94.996Y-83.566
X96.012Y-84.328
X97.028Y-85.598
X97.282Y-86.868
X98.044Y-88.138
X101.854Y-89.154
X102.362Y-62.738
X105.664Y-54.356
X105.664Y-80.264
X107.95Y-59.944
X108.046Y-90.52
X113.284Y-76.962
X114.046Y-74.676
X114.808Y-56.642
X114.84Y-69.85
X115.316Y-55.118
X115.57Y-72.39
X116.586Y-63.754
X116.84Y-45.974
X116.84Y-48.514
X118.11Y-58.674
X136.652Y-59.944
X136.652Y-82.804
X137.668Y-85.09
X137.668Y-87.661
X137.922Y-56.642
X138.684Y-58.674
X139.954Y-77.47
X145.034Y-48.26
X145.034Y-75.08
X145.796Y-46.228
X146.812Y-80.264
X147.574Y-64.77
X147.828Y-60.198
X148.336Y-85.344
X148.515Y-81.553
X151.892Y-83.649
X157.48Y-52.578
X157.734Y-77.47
T2
X86.868Y-50.8
X86.868Y-77.978
X86.868Y-87.75
X88.392Y-54.102
X98.202Y-82.2
X101.854Y-93.218
X106.975Y-63.754
X111.975Y-87.08
X112.014Y-91.694
X115.062Y-91.44
X126.746Y-89.154
X126.85Y-63.65
X126.85Y-76.2
X145.796Y-89.408
X152.425Y-64.9
X156.464Y-84.582
X157.425Y-58.928
T3
X85.17Y-50.8
X85.17Y-66.04
X85.17Y-82.2
X90.17Y-50.8
X90.17Y-66.04
X90.17Y-82.2
X98.72Y-46.99
X98.76Y-72.39
X103.72Y-46.99
X103.76Y-72.39
X106.975Y-72.39
X107.65Y-46.99
X111.975Y-72.39
X112.65Y-46.99
X150.114Y-64.77
X150.114Y-91.202
X152.425Y-46.595
X152.425Y-71.63
X157.425Y-46.595
X157.425Y-71.63
X160.274Y-64.77
X160.274Y-91.202
T4
X71.6Y-53.02
X71.6Y-55.56
X71.6Y-58.1
X71.6Y-60.64
X71.6Y-63.18
X71.6Y-65.72
X71.6Y-68.26
X71.6Y-70.8
X71.6Y-73.34
X71.6Y-75.88
X71.6Y-78.42
X71.6Y-80.96
X71.6Y-83.5
X71.6Y-86.04
X71.6Y-88.58
X71.6Y-91.12
X71.6Y-93.66
X74.14Y-53.02
X74.14Y-55.56
X74.14Y-58.1
X74.14Y-60.64
X74.14Y-63.18
X74.14Y-65.72
X74.14Y-68.26
X74.14Y-70.8
X74.14Y-73.34
X74.14Y-75.88
X74.14Y-78.42
X74.14Y-80.96
X74.14Y-83.5
X74.14Y-86.04
X74.14Y-88.58
X74.14Y-91.12
X74.14Y-93.66
T5
X71.628Y-46.99
X81.788Y-46.99
M30
