G04 #@! TF.GenerationSoftware,KiCad,Pcbnew,9.0.4*
G04 #@! TF.CreationDate,2025-09-09T10:11:16+01:00*
G04 #@! TF.ProjectId,megaflash,6d656761-666c-4617-9368-2e6b69636164,rev?*
G04 #@! TF.SameCoordinates,Original*
G04 #@! TF.FileFunction,Legend,Top*
G04 #@! TF.FilePolarity,Positive*
%FSLAX46Y46*%
G04 Gerber Fmt 4.6, Leading zero omitted, Abs format (unit mm)*
G04 Created by KiCad (PCBNEW 9.0.4) date 2025-09-09 10:11:16*
%MOMM*%
%LPD*%
G01*
G04 APERTURE LIST*
G04 Aperture macros list*
%AMRoundRect*
0 Rectangle with rounded corners*
0 $1 Rounding radius*
0 $2 $3 $4 $5 $6 $7 $8 $9 X,Y pos of 4 corners*
0 Add a 4 corners polygon primitive as box body*
4,1,4,$2,$3,$4,$5,$6,$7,$8,$9,$2,$3,0*
0 Add four circle primitives for the rounded corners*
1,1,$1+$1,$2,$3*
1,1,$1+$1,$4,$5*
1,1,$1+$1,$6,$7*
1,1,$1+$1,$8,$9*
0 Add four rect primitives between the rounded corners*
20,1,$1+$1,$2,$3,$4,$5,0*
20,1,$1+$1,$4,$5,$6,$7,0*
20,1,$1+$1,$6,$7,$8,$9,0*
20,1,$1+$1,$8,$9,$2,$3,0*%
G04 Aperture macros list end*
%ADD10C,0.150000*%
%ADD11C,0.162500*%
%ADD12C,0.120000*%
%ADD13C,1.600000*%
%ADD14O,1.800000X1.800000*%
%ADD15O,1.500000X1.500000*%
%ADD16R,3.500000X1.700000*%
%ADD17RoundRect,0.150000X0.875000X0.150000X-0.875000X0.150000X-0.875000X-0.150000X0.875000X-0.150000X0*%
%ADD18RoundRect,0.150000X-0.825000X-0.150000X0.825000X-0.150000X0.825000X0.150000X-0.825000X0.150000X0*%
%ADD19R,1.700000X1.700000*%
%ADD20O,1.700000X1.700000*%
%ADD21RoundRect,0.150000X-0.875000X-0.150000X0.875000X-0.150000X0.875000X0.150000X-0.875000X0.150000X0*%
%ADD22RoundRect,0.249999X0.850001X0.850001X-0.850001X0.850001X-0.850001X-0.850001X0.850001X-0.850001X0*%
%ADD23C,2.200000*%
%ADD24C,2.700000*%
G04 APERTURE END LIST*
D10*
X69487107Y-93345000D02*
G75*
G02*
X68072893Y-93345000I-707107J0D01*
G01*
X68072893Y-93345000D02*
G75*
G02*
X69487107Y-93345000I707107J0D01*
G01*
X147746009Y-83275887D02*
X147746009Y-83609220D01*
X148269819Y-83609220D02*
X147269819Y-83609220D01*
X147269819Y-83609220D02*
X147269819Y-83133030D01*
X148269819Y-82609220D02*
X148222200Y-82704458D01*
X148222200Y-82704458D02*
X148126961Y-82752077D01*
X148126961Y-82752077D02*
X147269819Y-82752077D01*
X148269819Y-81799696D02*
X147746009Y-81799696D01*
X147746009Y-81799696D02*
X147650771Y-81847315D01*
X147650771Y-81847315D02*
X147603152Y-81942553D01*
X147603152Y-81942553D02*
X147603152Y-82133029D01*
X147603152Y-82133029D02*
X147650771Y-82228267D01*
X148222200Y-81799696D02*
X148269819Y-81894934D01*
X148269819Y-81894934D02*
X148269819Y-82133029D01*
X148269819Y-82133029D02*
X148222200Y-82228267D01*
X148222200Y-82228267D02*
X148126961Y-82275886D01*
X148126961Y-82275886D02*
X148031723Y-82275886D01*
X148031723Y-82275886D02*
X147936485Y-82228267D01*
X147936485Y-82228267D02*
X147888866Y-82133029D01*
X147888866Y-82133029D02*
X147888866Y-81894934D01*
X147888866Y-81894934D02*
X147841247Y-81799696D01*
X148222200Y-81371124D02*
X148269819Y-81275886D01*
X148269819Y-81275886D02*
X148269819Y-81085410D01*
X148269819Y-81085410D02*
X148222200Y-80990172D01*
X148222200Y-80990172D02*
X148126961Y-80942553D01*
X148126961Y-80942553D02*
X148079342Y-80942553D01*
X148079342Y-80942553D02*
X147984104Y-80990172D01*
X147984104Y-80990172D02*
X147936485Y-81085410D01*
X147936485Y-81085410D02*
X147936485Y-81228267D01*
X147936485Y-81228267D02*
X147888866Y-81323505D01*
X147888866Y-81323505D02*
X147793628Y-81371124D01*
X147793628Y-81371124D02*
X147746009Y-81371124D01*
X147746009Y-81371124D02*
X147650771Y-81323505D01*
X147650771Y-81323505D02*
X147603152Y-81228267D01*
X147603152Y-81228267D02*
X147603152Y-81085410D01*
X147603152Y-81085410D02*
X147650771Y-80990172D01*
X148269819Y-80513981D02*
X147269819Y-80513981D01*
X148269819Y-80085410D02*
X147746009Y-80085410D01*
X147746009Y-80085410D02*
X147650771Y-80133029D01*
X147650771Y-80133029D02*
X147603152Y-80228267D01*
X147603152Y-80228267D02*
X147603152Y-80371124D01*
X147603152Y-80371124D02*
X147650771Y-80466362D01*
X147650771Y-80466362D02*
X147698390Y-80513981D01*
X148269819Y-78323505D02*
X148269819Y-78894933D01*
X148269819Y-78609219D02*
X147269819Y-78609219D01*
X147269819Y-78609219D02*
X147412676Y-78704457D01*
X147412676Y-78704457D02*
X147507914Y-78799695D01*
X147507914Y-78799695D02*
X147555533Y-78894933D01*
X147746009Y-58099887D02*
X147746009Y-58433220D01*
X148269819Y-58433220D02*
X147269819Y-58433220D01*
X147269819Y-58433220D02*
X147269819Y-57957030D01*
X148269819Y-57433220D02*
X148222200Y-57528458D01*
X148222200Y-57528458D02*
X148126961Y-57576077D01*
X148126961Y-57576077D02*
X147269819Y-57576077D01*
X148269819Y-56623696D02*
X147746009Y-56623696D01*
X147746009Y-56623696D02*
X147650771Y-56671315D01*
X147650771Y-56671315D02*
X147603152Y-56766553D01*
X147603152Y-56766553D02*
X147603152Y-56957029D01*
X147603152Y-56957029D02*
X147650771Y-57052267D01*
X148222200Y-56623696D02*
X148269819Y-56718934D01*
X148269819Y-56718934D02*
X148269819Y-56957029D01*
X148269819Y-56957029D02*
X148222200Y-57052267D01*
X148222200Y-57052267D02*
X148126961Y-57099886D01*
X148126961Y-57099886D02*
X148031723Y-57099886D01*
X148031723Y-57099886D02*
X147936485Y-57052267D01*
X147936485Y-57052267D02*
X147888866Y-56957029D01*
X147888866Y-56957029D02*
X147888866Y-56718934D01*
X147888866Y-56718934D02*
X147841247Y-56623696D01*
X148222200Y-56195124D02*
X148269819Y-56099886D01*
X148269819Y-56099886D02*
X148269819Y-55909410D01*
X148269819Y-55909410D02*
X148222200Y-55814172D01*
X148222200Y-55814172D02*
X148126961Y-55766553D01*
X148126961Y-55766553D02*
X148079342Y-55766553D01*
X148079342Y-55766553D02*
X147984104Y-55814172D01*
X147984104Y-55814172D02*
X147936485Y-55909410D01*
X147936485Y-55909410D02*
X147936485Y-56052267D01*
X147936485Y-56052267D02*
X147888866Y-56147505D01*
X147888866Y-56147505D02*
X147793628Y-56195124D01*
X147793628Y-56195124D02*
X147746009Y-56195124D01*
X147746009Y-56195124D02*
X147650771Y-56147505D01*
X147650771Y-56147505D02*
X147603152Y-56052267D01*
X147603152Y-56052267D02*
X147603152Y-55909410D01*
X147603152Y-55909410D02*
X147650771Y-55814172D01*
X148269819Y-55337981D02*
X147269819Y-55337981D01*
X148269819Y-54909410D02*
X147746009Y-54909410D01*
X147746009Y-54909410D02*
X147650771Y-54957029D01*
X147650771Y-54957029D02*
X147603152Y-55052267D01*
X147603152Y-55052267D02*
X147603152Y-55195124D01*
X147603152Y-55195124D02*
X147650771Y-55290362D01*
X147650771Y-55290362D02*
X147698390Y-55337981D01*
X147365057Y-53718933D02*
X147317438Y-53671314D01*
X147317438Y-53671314D02*
X147269819Y-53576076D01*
X147269819Y-53576076D02*
X147269819Y-53337981D01*
X147269819Y-53337981D02*
X147317438Y-53242743D01*
X147317438Y-53242743D02*
X147365057Y-53195124D01*
X147365057Y-53195124D02*
X147460295Y-53147505D01*
X147460295Y-53147505D02*
X147555533Y-53147505D01*
X147555533Y-53147505D02*
X147698390Y-53195124D01*
X147698390Y-53195124D02*
X148269819Y-53766552D01*
X148269819Y-53766552D02*
X148269819Y-53147505D01*
X131284398Y-88145342D02*
X131284398Y-89116771D01*
X131284398Y-89116771D02*
X131341541Y-89231057D01*
X131341541Y-89231057D02*
X131398684Y-89288200D01*
X131398684Y-89288200D02*
X131512969Y-89345342D01*
X131512969Y-89345342D02*
X131741541Y-89345342D01*
X131741541Y-89345342D02*
X131855826Y-89288200D01*
X131855826Y-89288200D02*
X131912969Y-89231057D01*
X131912969Y-89231057D02*
X131970112Y-89116771D01*
X131970112Y-89116771D02*
X131970112Y-88145342D01*
X132484398Y-89288200D02*
X132655827Y-89345342D01*
X132655827Y-89345342D02*
X132941541Y-89345342D01*
X132941541Y-89345342D02*
X133055827Y-89288200D01*
X133055827Y-89288200D02*
X133112969Y-89231057D01*
X133112969Y-89231057D02*
X133170112Y-89116771D01*
X133170112Y-89116771D02*
X133170112Y-89002485D01*
X133170112Y-89002485D02*
X133112969Y-88888200D01*
X133112969Y-88888200D02*
X133055827Y-88831057D01*
X133055827Y-88831057D02*
X132941541Y-88773914D01*
X132941541Y-88773914D02*
X132712969Y-88716771D01*
X132712969Y-88716771D02*
X132598684Y-88659628D01*
X132598684Y-88659628D02*
X132541541Y-88602485D01*
X132541541Y-88602485D02*
X132484398Y-88488200D01*
X132484398Y-88488200D02*
X132484398Y-88373914D01*
X132484398Y-88373914D02*
X132541541Y-88259628D01*
X132541541Y-88259628D02*
X132598684Y-88202485D01*
X132598684Y-88202485D02*
X132712969Y-88145342D01*
X132712969Y-88145342D02*
X132998684Y-88145342D01*
X132998684Y-88145342D02*
X133170112Y-88202485D01*
X134084398Y-88716771D02*
X134255826Y-88773914D01*
X134255826Y-88773914D02*
X134312969Y-88831057D01*
X134312969Y-88831057D02*
X134370112Y-88945342D01*
X134370112Y-88945342D02*
X134370112Y-89116771D01*
X134370112Y-89116771D02*
X134312969Y-89231057D01*
X134312969Y-89231057D02*
X134255826Y-89288200D01*
X134255826Y-89288200D02*
X134141541Y-89345342D01*
X134141541Y-89345342D02*
X133684398Y-89345342D01*
X133684398Y-89345342D02*
X133684398Y-88145342D01*
X133684398Y-88145342D02*
X134084398Y-88145342D01*
X134084398Y-88145342D02*
X134198684Y-88202485D01*
X134198684Y-88202485D02*
X134255826Y-88259628D01*
X134255826Y-88259628D02*
X134312969Y-88373914D01*
X134312969Y-88373914D02*
X134312969Y-88488200D01*
X134312969Y-88488200D02*
X134255826Y-88602485D01*
X134255826Y-88602485D02*
X134198684Y-88659628D01*
X134198684Y-88659628D02*
X134084398Y-88716771D01*
X134084398Y-88716771D02*
X133684398Y-88716771D01*
X125899342Y-72424744D02*
X126756485Y-72424744D01*
X126756485Y-72424744D02*
X126927914Y-72481887D01*
X126927914Y-72481887D02*
X127042200Y-72596173D01*
X127042200Y-72596173D02*
X127099342Y-72767601D01*
X127099342Y-72767601D02*
X127099342Y-72881887D01*
X127099342Y-71281887D02*
X127099342Y-71853315D01*
X127099342Y-71853315D02*
X125899342Y-71853315D01*
X126985057Y-70196172D02*
X127042200Y-70253315D01*
X127042200Y-70253315D02*
X127099342Y-70424743D01*
X127099342Y-70424743D02*
X127099342Y-70539029D01*
X127099342Y-70539029D02*
X127042200Y-70710458D01*
X127042200Y-70710458D02*
X126927914Y-70824743D01*
X126927914Y-70824743D02*
X126813628Y-70881886D01*
X126813628Y-70881886D02*
X126585057Y-70939029D01*
X126585057Y-70939029D02*
X126413628Y-70939029D01*
X126413628Y-70939029D02*
X126185057Y-70881886D01*
X126185057Y-70881886D02*
X126070771Y-70824743D01*
X126070771Y-70824743D02*
X125956485Y-70710458D01*
X125956485Y-70710458D02*
X125899342Y-70539029D01*
X125899342Y-70539029D02*
X125899342Y-70424743D01*
X125899342Y-70424743D02*
X125956485Y-70253315D01*
X125956485Y-70253315D02*
X126013628Y-70196172D01*
X125899342Y-69339029D02*
X126756485Y-69339029D01*
X126756485Y-69339029D02*
X126927914Y-69396172D01*
X126927914Y-69396172D02*
X127042200Y-69510458D01*
X127042200Y-69510458D02*
X127099342Y-69681886D01*
X127099342Y-69681886D02*
X127099342Y-69796172D01*
X127099342Y-68196172D02*
X127099342Y-68767600D01*
X127099342Y-68767600D02*
X125899342Y-68767600D01*
X126985057Y-67110457D02*
X127042200Y-67167600D01*
X127042200Y-67167600D02*
X127099342Y-67339028D01*
X127099342Y-67339028D02*
X127099342Y-67453314D01*
X127099342Y-67453314D02*
X127042200Y-67624743D01*
X127042200Y-67624743D02*
X126927914Y-67739028D01*
X126927914Y-67739028D02*
X126813628Y-67796171D01*
X126813628Y-67796171D02*
X126585057Y-67853314D01*
X126585057Y-67853314D02*
X126413628Y-67853314D01*
X126413628Y-67853314D02*
X126185057Y-67796171D01*
X126185057Y-67796171D02*
X126070771Y-67739028D01*
X126070771Y-67739028D02*
X125956485Y-67624743D01*
X125956485Y-67624743D02*
X125899342Y-67453314D01*
X125899342Y-67453314D02*
X125899342Y-67339028D01*
X125899342Y-67339028D02*
X125956485Y-67167600D01*
X125956485Y-67167600D02*
X126013628Y-67110457D01*
X125899342Y-66253314D02*
X126756485Y-66253314D01*
X126756485Y-66253314D02*
X126927914Y-66310457D01*
X126927914Y-66310457D02*
X127042200Y-66424743D01*
X127042200Y-66424743D02*
X127099342Y-66596171D01*
X127099342Y-66596171D02*
X127099342Y-66710457D01*
X127099342Y-65110457D02*
X127099342Y-65681885D01*
X127099342Y-65681885D02*
X125899342Y-65681885D01*
X126985057Y-64024742D02*
X127042200Y-64081885D01*
X127042200Y-64081885D02*
X127099342Y-64253313D01*
X127099342Y-64253313D02*
X127099342Y-64367599D01*
X127099342Y-64367599D02*
X127042200Y-64539028D01*
X127042200Y-64539028D02*
X126927914Y-64653313D01*
X126927914Y-64653313D02*
X126813628Y-64710456D01*
X126813628Y-64710456D02*
X126585057Y-64767599D01*
X126585057Y-64767599D02*
X126413628Y-64767599D01*
X126413628Y-64767599D02*
X126185057Y-64710456D01*
X126185057Y-64710456D02*
X126070771Y-64653313D01*
X126070771Y-64653313D02*
X125956485Y-64539028D01*
X125956485Y-64539028D02*
X125899342Y-64367599D01*
X125899342Y-64367599D02*
X125899342Y-64253313D01*
X125899342Y-64253313D02*
X125956485Y-64081885D01*
X125956485Y-64081885D02*
X126013628Y-64024742D01*
X125899342Y-63167599D02*
X126756485Y-63167599D01*
X126756485Y-63167599D02*
X126927914Y-63224742D01*
X126927914Y-63224742D02*
X127042200Y-63339028D01*
X127042200Y-63339028D02*
X127099342Y-63510456D01*
X127099342Y-63510456D02*
X127099342Y-63624742D01*
X127099342Y-62024742D02*
X127099342Y-62596170D01*
X127099342Y-62596170D02*
X125899342Y-62596170D01*
X126985057Y-60939027D02*
X127042200Y-60996170D01*
X127042200Y-60996170D02*
X127099342Y-61167598D01*
X127099342Y-61167598D02*
X127099342Y-61281884D01*
X127099342Y-61281884D02*
X127042200Y-61453313D01*
X127042200Y-61453313D02*
X126927914Y-61567598D01*
X126927914Y-61567598D02*
X126813628Y-61624741D01*
X126813628Y-61624741D02*
X126585057Y-61681884D01*
X126585057Y-61681884D02*
X126413628Y-61681884D01*
X126413628Y-61681884D02*
X126185057Y-61624741D01*
X126185057Y-61624741D02*
X126070771Y-61567598D01*
X126070771Y-61567598D02*
X125956485Y-61453313D01*
X125956485Y-61453313D02*
X125899342Y-61281884D01*
X125899342Y-61281884D02*
X125899342Y-61167598D01*
X125899342Y-61167598D02*
X125956485Y-60996170D01*
X125956485Y-60996170D02*
X126013628Y-60939027D01*
X129984398Y-80845342D02*
X129984398Y-79645342D01*
X129984398Y-79645342D02*
X130441541Y-79645342D01*
X130441541Y-79645342D02*
X130555826Y-79702485D01*
X130555826Y-79702485D02*
X130612969Y-79759628D01*
X130612969Y-79759628D02*
X130670112Y-79873914D01*
X130670112Y-79873914D02*
X130670112Y-80045342D01*
X130670112Y-80045342D02*
X130612969Y-80159628D01*
X130612969Y-80159628D02*
X130555826Y-80216771D01*
X130555826Y-80216771D02*
X130441541Y-80273914D01*
X130441541Y-80273914D02*
X129984398Y-80273914D01*
X131184398Y-80845342D02*
X131184398Y-80045342D01*
X131184398Y-79645342D02*
X131127255Y-79702485D01*
X131127255Y-79702485D02*
X131184398Y-79759628D01*
X131184398Y-79759628D02*
X131241541Y-79702485D01*
X131241541Y-79702485D02*
X131184398Y-79645342D01*
X131184398Y-79645342D02*
X131184398Y-79759628D01*
X132670113Y-80845342D02*
X132670113Y-79645342D01*
X132670113Y-79645342D02*
X133127256Y-79645342D01*
X133127256Y-79645342D02*
X133241541Y-79702485D01*
X133241541Y-79702485D02*
X133298684Y-79759628D01*
X133298684Y-79759628D02*
X133355827Y-79873914D01*
X133355827Y-79873914D02*
X133355827Y-80045342D01*
X133355827Y-80045342D02*
X133298684Y-80159628D01*
X133298684Y-80159628D02*
X133241541Y-80216771D01*
X133241541Y-80216771D02*
X133127256Y-80273914D01*
X133127256Y-80273914D02*
X132670113Y-80273914D01*
X133870113Y-80845342D02*
X133870113Y-80045342D01*
X133870113Y-79645342D02*
X133812970Y-79702485D01*
X133812970Y-79702485D02*
X133870113Y-79759628D01*
X133870113Y-79759628D02*
X133927256Y-79702485D01*
X133927256Y-79702485D02*
X133870113Y-79645342D01*
X133870113Y-79645342D02*
X133870113Y-79759628D01*
X134955828Y-80788200D02*
X134841542Y-80845342D01*
X134841542Y-80845342D02*
X134612970Y-80845342D01*
X134612970Y-80845342D02*
X134498685Y-80788200D01*
X134498685Y-80788200D02*
X134441542Y-80731057D01*
X134441542Y-80731057D02*
X134384399Y-80616771D01*
X134384399Y-80616771D02*
X134384399Y-80273914D01*
X134384399Y-80273914D02*
X134441542Y-80159628D01*
X134441542Y-80159628D02*
X134498685Y-80102485D01*
X134498685Y-80102485D02*
X134612970Y-80045342D01*
X134612970Y-80045342D02*
X134841542Y-80045342D01*
X134841542Y-80045342D02*
X134955828Y-80102485D01*
X135641541Y-80845342D02*
X135527256Y-80788200D01*
X135527256Y-80788200D02*
X135470113Y-80731057D01*
X135470113Y-80731057D02*
X135412970Y-80616771D01*
X135412970Y-80616771D02*
X135412970Y-80273914D01*
X135412970Y-80273914D02*
X135470113Y-80159628D01*
X135470113Y-80159628D02*
X135527256Y-80102485D01*
X135527256Y-80102485D02*
X135641541Y-80045342D01*
X135641541Y-80045342D02*
X135812970Y-80045342D01*
X135812970Y-80045342D02*
X135927256Y-80102485D01*
X135927256Y-80102485D02*
X135984399Y-80159628D01*
X135984399Y-80159628D02*
X136041541Y-80273914D01*
X136041541Y-80273914D02*
X136041541Y-80616771D01*
X136041541Y-80616771D02*
X135984399Y-80731057D01*
X135984399Y-80731057D02*
X135927256Y-80788200D01*
X135927256Y-80788200D02*
X135812970Y-80845342D01*
X135812970Y-80845342D02*
X135641541Y-80845342D01*
D11*
X114692621Y-79346692D02*
X114692621Y-78146692D01*
X114692621Y-78146692D02*
X115092621Y-79003835D01*
X115092621Y-79003835D02*
X115492621Y-78146692D01*
X115492621Y-78146692D02*
X115492621Y-79346692D01*
X116006907Y-78260978D02*
X116064050Y-78203835D01*
X116064050Y-78203835D02*
X116178336Y-78146692D01*
X116178336Y-78146692D02*
X116464050Y-78146692D01*
X116464050Y-78146692D02*
X116578336Y-78203835D01*
X116578336Y-78203835D02*
X116635478Y-78260978D01*
X116635478Y-78260978D02*
X116692621Y-78375264D01*
X116692621Y-78375264D02*
X116692621Y-78489550D01*
X116692621Y-78489550D02*
X116635478Y-78660978D01*
X116635478Y-78660978D02*
X115949764Y-79346692D01*
X115949764Y-79346692D02*
X116692621Y-79346692D01*
X117206907Y-79232407D02*
X117264050Y-79289550D01*
X117264050Y-79289550D02*
X117206907Y-79346692D01*
X117206907Y-79346692D02*
X117149764Y-79289550D01*
X117149764Y-79289550D02*
X117206907Y-79232407D01*
X117206907Y-79232407D02*
X117206907Y-79346692D01*
X118349764Y-78146692D02*
X117778336Y-78146692D01*
X117778336Y-78146692D02*
X117721193Y-78718121D01*
X117721193Y-78718121D02*
X117778336Y-78660978D01*
X117778336Y-78660978D02*
X117892622Y-78603835D01*
X117892622Y-78603835D02*
X118178336Y-78603835D01*
X118178336Y-78603835D02*
X118292622Y-78660978D01*
X118292622Y-78660978D02*
X118349764Y-78718121D01*
X118349764Y-78718121D02*
X118406907Y-78832407D01*
X118406907Y-78832407D02*
X118406907Y-79118121D01*
X118406907Y-79118121D02*
X118349764Y-79232407D01*
X118349764Y-79232407D02*
X118292622Y-79289550D01*
X118292622Y-79289550D02*
X118178336Y-79346692D01*
X118178336Y-79346692D02*
X117892622Y-79346692D01*
X117892622Y-79346692D02*
X117778336Y-79289550D01*
X117778336Y-79289550D02*
X117721193Y-79232407D01*
D10*
X96013333Y-72749580D02*
X95965714Y-72797200D01*
X95965714Y-72797200D02*
X95822857Y-72844819D01*
X95822857Y-72844819D02*
X95727619Y-72844819D01*
X95727619Y-72844819D02*
X95584762Y-72797200D01*
X95584762Y-72797200D02*
X95489524Y-72701961D01*
X95489524Y-72701961D02*
X95441905Y-72606723D01*
X95441905Y-72606723D02*
X95394286Y-72416247D01*
X95394286Y-72416247D02*
X95394286Y-72273390D01*
X95394286Y-72273390D02*
X95441905Y-72082914D01*
X95441905Y-72082914D02*
X95489524Y-71987676D01*
X95489524Y-71987676D02*
X95584762Y-71892438D01*
X95584762Y-71892438D02*
X95727619Y-71844819D01*
X95727619Y-71844819D02*
X95822857Y-71844819D01*
X95822857Y-71844819D02*
X95965714Y-71892438D01*
X95965714Y-71892438D02*
X96013333Y-71940057D01*
X96918095Y-71844819D02*
X96441905Y-71844819D01*
X96441905Y-71844819D02*
X96394286Y-72321009D01*
X96394286Y-72321009D02*
X96441905Y-72273390D01*
X96441905Y-72273390D02*
X96537143Y-72225771D01*
X96537143Y-72225771D02*
X96775238Y-72225771D01*
X96775238Y-72225771D02*
X96870476Y-72273390D01*
X96870476Y-72273390D02*
X96918095Y-72321009D01*
X96918095Y-72321009D02*
X96965714Y-72416247D01*
X96965714Y-72416247D02*
X96965714Y-72654342D01*
X96965714Y-72654342D02*
X96918095Y-72749580D01*
X96918095Y-72749580D02*
X96870476Y-72797200D01*
X96870476Y-72797200D02*
X96775238Y-72844819D01*
X96775238Y-72844819D02*
X96537143Y-72844819D01*
X96537143Y-72844819D02*
X96441905Y-72797200D01*
X96441905Y-72797200D02*
X96394286Y-72749580D01*
X131938095Y-77686819D02*
X131938095Y-78496342D01*
X131938095Y-78496342D02*
X131985714Y-78591580D01*
X131985714Y-78591580D02*
X132033333Y-78639200D01*
X132033333Y-78639200D02*
X132128571Y-78686819D01*
X132128571Y-78686819D02*
X132319047Y-78686819D01*
X132319047Y-78686819D02*
X132414285Y-78639200D01*
X132414285Y-78639200D02*
X132461904Y-78591580D01*
X132461904Y-78591580D02*
X132509523Y-78496342D01*
X132509523Y-78496342D02*
X132509523Y-77686819D01*
X133414285Y-77686819D02*
X133223809Y-77686819D01*
X133223809Y-77686819D02*
X133128571Y-77734438D01*
X133128571Y-77734438D02*
X133080952Y-77782057D01*
X133080952Y-77782057D02*
X132985714Y-77924914D01*
X132985714Y-77924914D02*
X132938095Y-78115390D01*
X132938095Y-78115390D02*
X132938095Y-78496342D01*
X132938095Y-78496342D02*
X132985714Y-78591580D01*
X132985714Y-78591580D02*
X133033333Y-78639200D01*
X133033333Y-78639200D02*
X133128571Y-78686819D01*
X133128571Y-78686819D02*
X133319047Y-78686819D01*
X133319047Y-78686819D02*
X133414285Y-78639200D01*
X133414285Y-78639200D02*
X133461904Y-78591580D01*
X133461904Y-78591580D02*
X133509523Y-78496342D01*
X133509523Y-78496342D02*
X133509523Y-78258247D01*
X133509523Y-78258247D02*
X133461904Y-78163009D01*
X133461904Y-78163009D02*
X133414285Y-78115390D01*
X133414285Y-78115390D02*
X133319047Y-78067771D01*
X133319047Y-78067771D02*
X133128571Y-78067771D01*
X133128571Y-78067771D02*
X133033333Y-78115390D01*
X133033333Y-78115390D02*
X132985714Y-78163009D01*
X132985714Y-78163009D02*
X132938095Y-78258247D01*
X92543333Y-66399580D02*
X92495714Y-66447200D01*
X92495714Y-66447200D02*
X92352857Y-66494819D01*
X92352857Y-66494819D02*
X92257619Y-66494819D01*
X92257619Y-66494819D02*
X92114762Y-66447200D01*
X92114762Y-66447200D02*
X92019524Y-66351961D01*
X92019524Y-66351961D02*
X91971905Y-66256723D01*
X91971905Y-66256723D02*
X91924286Y-66066247D01*
X91924286Y-66066247D02*
X91924286Y-65923390D01*
X91924286Y-65923390D02*
X91971905Y-65732914D01*
X91971905Y-65732914D02*
X92019524Y-65637676D01*
X92019524Y-65637676D02*
X92114762Y-65542438D01*
X92114762Y-65542438D02*
X92257619Y-65494819D01*
X92257619Y-65494819D02*
X92352857Y-65494819D01*
X92352857Y-65494819D02*
X92495714Y-65542438D01*
X92495714Y-65542438D02*
X92543333Y-65590057D01*
X92924286Y-65590057D02*
X92971905Y-65542438D01*
X92971905Y-65542438D02*
X93067143Y-65494819D01*
X93067143Y-65494819D02*
X93305238Y-65494819D01*
X93305238Y-65494819D02*
X93400476Y-65542438D01*
X93400476Y-65542438D02*
X93448095Y-65590057D01*
X93448095Y-65590057D02*
X93495714Y-65685295D01*
X93495714Y-65685295D02*
X93495714Y-65780533D01*
X93495714Y-65780533D02*
X93448095Y-65923390D01*
X93448095Y-65923390D02*
X92876667Y-66494819D01*
X92876667Y-66494819D02*
X93495714Y-66494819D01*
X92543333Y-82559580D02*
X92495714Y-82607200D01*
X92495714Y-82607200D02*
X92352857Y-82654819D01*
X92352857Y-82654819D02*
X92257619Y-82654819D01*
X92257619Y-82654819D02*
X92114762Y-82607200D01*
X92114762Y-82607200D02*
X92019524Y-82511961D01*
X92019524Y-82511961D02*
X91971905Y-82416723D01*
X91971905Y-82416723D02*
X91924286Y-82226247D01*
X91924286Y-82226247D02*
X91924286Y-82083390D01*
X91924286Y-82083390D02*
X91971905Y-81892914D01*
X91971905Y-81892914D02*
X92019524Y-81797676D01*
X92019524Y-81797676D02*
X92114762Y-81702438D01*
X92114762Y-81702438D02*
X92257619Y-81654819D01*
X92257619Y-81654819D02*
X92352857Y-81654819D01*
X92352857Y-81654819D02*
X92495714Y-81702438D01*
X92495714Y-81702438D02*
X92543333Y-81750057D01*
X92876667Y-81654819D02*
X93495714Y-81654819D01*
X93495714Y-81654819D02*
X93162381Y-82035771D01*
X93162381Y-82035771D02*
X93305238Y-82035771D01*
X93305238Y-82035771D02*
X93400476Y-82083390D01*
X93400476Y-82083390D02*
X93448095Y-82131009D01*
X93448095Y-82131009D02*
X93495714Y-82226247D01*
X93495714Y-82226247D02*
X93495714Y-82464342D01*
X93495714Y-82464342D02*
X93448095Y-82559580D01*
X93448095Y-82559580D02*
X93400476Y-82607200D01*
X93400476Y-82607200D02*
X93305238Y-82654819D01*
X93305238Y-82654819D02*
X93019524Y-82654819D01*
X93019524Y-82654819D02*
X92924286Y-82607200D01*
X92924286Y-82607200D02*
X92876667Y-82559580D01*
X104268095Y-67509819D02*
X104268095Y-68319342D01*
X104268095Y-68319342D02*
X104315714Y-68414580D01*
X104315714Y-68414580D02*
X104363333Y-68462200D01*
X104363333Y-68462200D02*
X104458571Y-68509819D01*
X104458571Y-68509819D02*
X104649047Y-68509819D01*
X104649047Y-68509819D02*
X104744285Y-68462200D01*
X104744285Y-68462200D02*
X104791904Y-68414580D01*
X104791904Y-68414580D02*
X104839523Y-68319342D01*
X104839523Y-68319342D02*
X104839523Y-67509819D01*
X105839523Y-68509819D02*
X105268095Y-68509819D01*
X105553809Y-68509819D02*
X105553809Y-67509819D01*
X105553809Y-67509819D02*
X105458571Y-67652676D01*
X105458571Y-67652676D02*
X105363333Y-67747914D01*
X105363333Y-67747914D02*
X105268095Y-67795533D01*
X81853095Y-69304819D02*
X81853095Y-70114342D01*
X81853095Y-70114342D02*
X81900714Y-70209580D01*
X81900714Y-70209580D02*
X81948333Y-70257200D01*
X81948333Y-70257200D02*
X82043571Y-70304819D01*
X82043571Y-70304819D02*
X82234047Y-70304819D01*
X82234047Y-70304819D02*
X82329285Y-70257200D01*
X82329285Y-70257200D02*
X82376904Y-70209580D01*
X82376904Y-70209580D02*
X82424523Y-70114342D01*
X82424523Y-70114342D02*
X82424523Y-69304819D01*
X83329285Y-69638152D02*
X83329285Y-70304819D01*
X83091190Y-69257200D02*
X82853095Y-69971485D01*
X82853095Y-69971485D02*
X83472142Y-69971485D01*
X77136666Y-92799819D02*
X77136666Y-93514104D01*
X77136666Y-93514104D02*
X77089047Y-93656961D01*
X77089047Y-93656961D02*
X76993809Y-93752200D01*
X76993809Y-93752200D02*
X76850952Y-93799819D01*
X76850952Y-93799819D02*
X76755714Y-93799819D01*
X78136666Y-93799819D02*
X77565238Y-93799819D01*
X77850952Y-93799819D02*
X77850952Y-92799819D01*
X77850952Y-92799819D02*
X77755714Y-92942676D01*
X77755714Y-92942676D02*
X77660476Y-93037914D01*
X77660476Y-93037914D02*
X77565238Y-93085533D01*
X149805333Y-71989580D02*
X149757714Y-72037200D01*
X149757714Y-72037200D02*
X149614857Y-72084819D01*
X149614857Y-72084819D02*
X149519619Y-72084819D01*
X149519619Y-72084819D02*
X149376762Y-72037200D01*
X149376762Y-72037200D02*
X149281524Y-71941961D01*
X149281524Y-71941961D02*
X149233905Y-71846723D01*
X149233905Y-71846723D02*
X149186286Y-71656247D01*
X149186286Y-71656247D02*
X149186286Y-71513390D01*
X149186286Y-71513390D02*
X149233905Y-71322914D01*
X149233905Y-71322914D02*
X149281524Y-71227676D01*
X149281524Y-71227676D02*
X149376762Y-71132438D01*
X149376762Y-71132438D02*
X149519619Y-71084819D01*
X149519619Y-71084819D02*
X149614857Y-71084819D01*
X149614857Y-71084819D02*
X149757714Y-71132438D01*
X149757714Y-71132438D02*
X149805333Y-71180057D01*
X150376762Y-71513390D02*
X150281524Y-71465771D01*
X150281524Y-71465771D02*
X150233905Y-71418152D01*
X150233905Y-71418152D02*
X150186286Y-71322914D01*
X150186286Y-71322914D02*
X150186286Y-71275295D01*
X150186286Y-71275295D02*
X150233905Y-71180057D01*
X150233905Y-71180057D02*
X150281524Y-71132438D01*
X150281524Y-71132438D02*
X150376762Y-71084819D01*
X150376762Y-71084819D02*
X150567238Y-71084819D01*
X150567238Y-71084819D02*
X150662476Y-71132438D01*
X150662476Y-71132438D02*
X150710095Y-71180057D01*
X150710095Y-71180057D02*
X150757714Y-71275295D01*
X150757714Y-71275295D02*
X150757714Y-71322914D01*
X150757714Y-71322914D02*
X150710095Y-71418152D01*
X150710095Y-71418152D02*
X150662476Y-71465771D01*
X150662476Y-71465771D02*
X150567238Y-71513390D01*
X150567238Y-71513390D02*
X150376762Y-71513390D01*
X150376762Y-71513390D02*
X150281524Y-71561009D01*
X150281524Y-71561009D02*
X150233905Y-71608628D01*
X150233905Y-71608628D02*
X150186286Y-71703866D01*
X150186286Y-71703866D02*
X150186286Y-71894342D01*
X150186286Y-71894342D02*
X150233905Y-71989580D01*
X150233905Y-71989580D02*
X150281524Y-72037200D01*
X150281524Y-72037200D02*
X150376762Y-72084819D01*
X150376762Y-72084819D02*
X150567238Y-72084819D01*
X150567238Y-72084819D02*
X150662476Y-72037200D01*
X150662476Y-72037200D02*
X150710095Y-71989580D01*
X150710095Y-71989580D02*
X150757714Y-71894342D01*
X150757714Y-71894342D02*
X150757714Y-71703866D01*
X150757714Y-71703866D02*
X150710095Y-71608628D01*
X150710095Y-71608628D02*
X150662476Y-71561009D01*
X150662476Y-71561009D02*
X150567238Y-71513390D01*
X147968095Y-73639819D02*
X147968095Y-74449342D01*
X147968095Y-74449342D02*
X148015714Y-74544580D01*
X148015714Y-74544580D02*
X148063333Y-74592200D01*
X148063333Y-74592200D02*
X148158571Y-74639819D01*
X148158571Y-74639819D02*
X148349047Y-74639819D01*
X148349047Y-74639819D02*
X148444285Y-74592200D01*
X148444285Y-74592200D02*
X148491904Y-74544580D01*
X148491904Y-74544580D02*
X148539523Y-74449342D01*
X148539523Y-74449342D02*
X148539523Y-73639819D01*
X148920476Y-73639819D02*
X149587142Y-73639819D01*
X149587142Y-73639819D02*
X149158571Y-74639819D01*
X104268095Y-92909819D02*
X104268095Y-93719342D01*
X104268095Y-93719342D02*
X104315714Y-93814580D01*
X104315714Y-93814580D02*
X104363333Y-93862200D01*
X104363333Y-93862200D02*
X104458571Y-93909819D01*
X104458571Y-93909819D02*
X104649047Y-93909819D01*
X104649047Y-93909819D02*
X104744285Y-93862200D01*
X104744285Y-93862200D02*
X104791904Y-93814580D01*
X104791904Y-93814580D02*
X104839523Y-93719342D01*
X104839523Y-93719342D02*
X104839523Y-92909819D01*
X105268095Y-93005057D02*
X105315714Y-92957438D01*
X105315714Y-92957438D02*
X105410952Y-92909819D01*
X105410952Y-92909819D02*
X105649047Y-92909819D01*
X105649047Y-92909819D02*
X105744285Y-92957438D01*
X105744285Y-92957438D02*
X105791904Y-93005057D01*
X105791904Y-93005057D02*
X105839523Y-93100295D01*
X105839523Y-93100295D02*
X105839523Y-93195533D01*
X105839523Y-93195533D02*
X105791904Y-93338390D01*
X105791904Y-93338390D02*
X105220476Y-93909819D01*
X105220476Y-93909819D02*
X105839523Y-93909819D01*
X147534333Y-64208819D02*
X147201000Y-63732628D01*
X146962905Y-64208819D02*
X146962905Y-63208819D01*
X146962905Y-63208819D02*
X147343857Y-63208819D01*
X147343857Y-63208819D02*
X147439095Y-63256438D01*
X147439095Y-63256438D02*
X147486714Y-63304057D01*
X147486714Y-63304057D02*
X147534333Y-63399295D01*
X147534333Y-63399295D02*
X147534333Y-63542152D01*
X147534333Y-63542152D02*
X147486714Y-63637390D01*
X147486714Y-63637390D02*
X147439095Y-63685009D01*
X147439095Y-63685009D02*
X147343857Y-63732628D01*
X147343857Y-63732628D02*
X146962905Y-63732628D01*
X147915286Y-63304057D02*
X147962905Y-63256438D01*
X147962905Y-63256438D02*
X148058143Y-63208819D01*
X148058143Y-63208819D02*
X148296238Y-63208819D01*
X148296238Y-63208819D02*
X148391476Y-63256438D01*
X148391476Y-63256438D02*
X148439095Y-63304057D01*
X148439095Y-63304057D02*
X148486714Y-63399295D01*
X148486714Y-63399295D02*
X148486714Y-63494533D01*
X148486714Y-63494533D02*
X148439095Y-63637390D01*
X148439095Y-63637390D02*
X147867667Y-64208819D01*
X147867667Y-64208819D02*
X148486714Y-64208819D01*
X148888095Y-48949819D02*
X148888095Y-49759342D01*
X148888095Y-49759342D02*
X148935714Y-49854580D01*
X148935714Y-49854580D02*
X148983333Y-49902200D01*
X148983333Y-49902200D02*
X149078571Y-49949819D01*
X149078571Y-49949819D02*
X149269047Y-49949819D01*
X149269047Y-49949819D02*
X149364285Y-49902200D01*
X149364285Y-49902200D02*
X149411904Y-49854580D01*
X149411904Y-49854580D02*
X149459523Y-49759342D01*
X149459523Y-49759342D02*
X149459523Y-48949819D01*
X150078571Y-49378390D02*
X149983333Y-49330771D01*
X149983333Y-49330771D02*
X149935714Y-49283152D01*
X149935714Y-49283152D02*
X149888095Y-49187914D01*
X149888095Y-49187914D02*
X149888095Y-49140295D01*
X149888095Y-49140295D02*
X149935714Y-49045057D01*
X149935714Y-49045057D02*
X149983333Y-48997438D01*
X149983333Y-48997438D02*
X150078571Y-48949819D01*
X150078571Y-48949819D02*
X150269047Y-48949819D01*
X150269047Y-48949819D02*
X150364285Y-48997438D01*
X150364285Y-48997438D02*
X150411904Y-49045057D01*
X150411904Y-49045057D02*
X150459523Y-49140295D01*
X150459523Y-49140295D02*
X150459523Y-49187914D01*
X150459523Y-49187914D02*
X150411904Y-49283152D01*
X150411904Y-49283152D02*
X150364285Y-49330771D01*
X150364285Y-49330771D02*
X150269047Y-49378390D01*
X150269047Y-49378390D02*
X150078571Y-49378390D01*
X150078571Y-49378390D02*
X149983333Y-49426009D01*
X149983333Y-49426009D02*
X149935714Y-49473628D01*
X149935714Y-49473628D02*
X149888095Y-49568866D01*
X149888095Y-49568866D02*
X149888095Y-49759342D01*
X149888095Y-49759342D02*
X149935714Y-49854580D01*
X149935714Y-49854580D02*
X149983333Y-49902200D01*
X149983333Y-49902200D02*
X150078571Y-49949819D01*
X150078571Y-49949819D02*
X150269047Y-49949819D01*
X150269047Y-49949819D02*
X150364285Y-49902200D01*
X150364285Y-49902200D02*
X150411904Y-49854580D01*
X150411904Y-49854580D02*
X150459523Y-49759342D01*
X150459523Y-49759342D02*
X150459523Y-49568866D01*
X150459523Y-49568866D02*
X150411904Y-49473628D01*
X150411904Y-49473628D02*
X150364285Y-49426009D01*
X150364285Y-49426009D02*
X150269047Y-49378390D01*
X149678333Y-46954580D02*
X149630714Y-47002200D01*
X149630714Y-47002200D02*
X149487857Y-47049819D01*
X149487857Y-47049819D02*
X149392619Y-47049819D01*
X149392619Y-47049819D02*
X149249762Y-47002200D01*
X149249762Y-47002200D02*
X149154524Y-46906961D01*
X149154524Y-46906961D02*
X149106905Y-46811723D01*
X149106905Y-46811723D02*
X149059286Y-46621247D01*
X149059286Y-46621247D02*
X149059286Y-46478390D01*
X149059286Y-46478390D02*
X149106905Y-46287914D01*
X149106905Y-46287914D02*
X149154524Y-46192676D01*
X149154524Y-46192676D02*
X149249762Y-46097438D01*
X149249762Y-46097438D02*
X149392619Y-46049819D01*
X149392619Y-46049819D02*
X149487857Y-46049819D01*
X149487857Y-46049819D02*
X149630714Y-46097438D01*
X149630714Y-46097438D02*
X149678333Y-46145057D01*
X150154524Y-47049819D02*
X150345000Y-47049819D01*
X150345000Y-47049819D02*
X150440238Y-47002200D01*
X150440238Y-47002200D02*
X150487857Y-46954580D01*
X150487857Y-46954580D02*
X150583095Y-46811723D01*
X150583095Y-46811723D02*
X150630714Y-46621247D01*
X150630714Y-46621247D02*
X150630714Y-46240295D01*
X150630714Y-46240295D02*
X150583095Y-46145057D01*
X150583095Y-46145057D02*
X150535476Y-46097438D01*
X150535476Y-46097438D02*
X150440238Y-46049819D01*
X150440238Y-46049819D02*
X150249762Y-46049819D01*
X150249762Y-46049819D02*
X150154524Y-46097438D01*
X150154524Y-46097438D02*
X150106905Y-46145057D01*
X150106905Y-46145057D02*
X150059286Y-46240295D01*
X150059286Y-46240295D02*
X150059286Y-46478390D01*
X150059286Y-46478390D02*
X150106905Y-46573628D01*
X150106905Y-46573628D02*
X150154524Y-46621247D01*
X150154524Y-46621247D02*
X150249762Y-46668866D01*
X150249762Y-46668866D02*
X150440238Y-46668866D01*
X150440238Y-46668866D02*
X150535476Y-46621247D01*
X150535476Y-46621247D02*
X150583095Y-46573628D01*
X150583095Y-46573628D02*
X150630714Y-46478390D01*
X75715905Y-49730819D02*
X75715905Y-48730819D01*
X75715905Y-48730819D02*
X75954000Y-48730819D01*
X75954000Y-48730819D02*
X76096857Y-48778438D01*
X76096857Y-48778438D02*
X76192095Y-48873676D01*
X76192095Y-48873676D02*
X76239714Y-48968914D01*
X76239714Y-48968914D02*
X76287333Y-49159390D01*
X76287333Y-49159390D02*
X76287333Y-49302247D01*
X76287333Y-49302247D02*
X76239714Y-49492723D01*
X76239714Y-49492723D02*
X76192095Y-49587961D01*
X76192095Y-49587961D02*
X76096857Y-49683200D01*
X76096857Y-49683200D02*
X75954000Y-49730819D01*
X75954000Y-49730819D02*
X75715905Y-49730819D01*
X77239714Y-49730819D02*
X76668286Y-49730819D01*
X76954000Y-49730819D02*
X76954000Y-48730819D01*
X76954000Y-48730819D02*
X76858762Y-48873676D01*
X76858762Y-48873676D02*
X76763524Y-48968914D01*
X76763524Y-48968914D02*
X76668286Y-49016533D01*
X81526095Y-49544818D02*
X81526095Y-48544818D01*
X82097523Y-49544818D02*
X81668952Y-48973389D01*
X82097523Y-48544818D02*
X81526095Y-49116246D01*
X114133333Y-72749580D02*
X114085714Y-72797200D01*
X114085714Y-72797200D02*
X113942857Y-72844819D01*
X113942857Y-72844819D02*
X113847619Y-72844819D01*
X113847619Y-72844819D02*
X113704762Y-72797200D01*
X113704762Y-72797200D02*
X113609524Y-72701961D01*
X113609524Y-72701961D02*
X113561905Y-72606723D01*
X113561905Y-72606723D02*
X113514286Y-72416247D01*
X113514286Y-72416247D02*
X113514286Y-72273390D01*
X113514286Y-72273390D02*
X113561905Y-72082914D01*
X113561905Y-72082914D02*
X113609524Y-71987676D01*
X113609524Y-71987676D02*
X113704762Y-71892438D01*
X113704762Y-71892438D02*
X113847619Y-71844819D01*
X113847619Y-71844819D02*
X113942857Y-71844819D01*
X113942857Y-71844819D02*
X114085714Y-71892438D01*
X114085714Y-71892438D02*
X114133333Y-71940057D01*
X114466667Y-71844819D02*
X115133333Y-71844819D01*
X115133333Y-71844819D02*
X114704762Y-72844819D01*
X115023333Y-47349580D02*
X114975714Y-47397200D01*
X114975714Y-47397200D02*
X114832857Y-47444819D01*
X114832857Y-47444819D02*
X114737619Y-47444819D01*
X114737619Y-47444819D02*
X114594762Y-47397200D01*
X114594762Y-47397200D02*
X114499524Y-47301961D01*
X114499524Y-47301961D02*
X114451905Y-47206723D01*
X114451905Y-47206723D02*
X114404286Y-47016247D01*
X114404286Y-47016247D02*
X114404286Y-46873390D01*
X114404286Y-46873390D02*
X114451905Y-46682914D01*
X114451905Y-46682914D02*
X114499524Y-46587676D01*
X114499524Y-46587676D02*
X114594762Y-46492438D01*
X114594762Y-46492438D02*
X114737619Y-46444819D01*
X114737619Y-46444819D02*
X114832857Y-46444819D01*
X114832857Y-46444819D02*
X114975714Y-46492438D01*
X114975714Y-46492438D02*
X115023333Y-46540057D01*
X115880476Y-46444819D02*
X115690000Y-46444819D01*
X115690000Y-46444819D02*
X115594762Y-46492438D01*
X115594762Y-46492438D02*
X115547143Y-46540057D01*
X115547143Y-46540057D02*
X115451905Y-46682914D01*
X115451905Y-46682914D02*
X115404286Y-46873390D01*
X115404286Y-46873390D02*
X115404286Y-47254342D01*
X115404286Y-47254342D02*
X115451905Y-47349580D01*
X115451905Y-47349580D02*
X115499524Y-47397200D01*
X115499524Y-47397200D02*
X115594762Y-47444819D01*
X115594762Y-47444819D02*
X115785238Y-47444819D01*
X115785238Y-47444819D02*
X115880476Y-47397200D01*
X115880476Y-47397200D02*
X115928095Y-47349580D01*
X115928095Y-47349580D02*
X115975714Y-47254342D01*
X115975714Y-47254342D02*
X115975714Y-47016247D01*
X115975714Y-47016247D02*
X115928095Y-46921009D01*
X115928095Y-46921009D02*
X115880476Y-46873390D01*
X115880476Y-46873390D02*
X115785238Y-46825771D01*
X115785238Y-46825771D02*
X115594762Y-46825771D01*
X115594762Y-46825771D02*
X115499524Y-46873390D01*
X115499524Y-46873390D02*
X115451905Y-46921009D01*
X115451905Y-46921009D02*
X115404286Y-47016247D01*
X147534333Y-90259819D02*
X147201000Y-89783628D01*
X146962905Y-90259819D02*
X146962905Y-89259819D01*
X146962905Y-89259819D02*
X147343857Y-89259819D01*
X147343857Y-89259819D02*
X147439095Y-89307438D01*
X147439095Y-89307438D02*
X147486714Y-89355057D01*
X147486714Y-89355057D02*
X147534333Y-89450295D01*
X147534333Y-89450295D02*
X147534333Y-89593152D01*
X147534333Y-89593152D02*
X147486714Y-89688390D01*
X147486714Y-89688390D02*
X147439095Y-89736009D01*
X147439095Y-89736009D02*
X147343857Y-89783628D01*
X147343857Y-89783628D02*
X146962905Y-89783628D01*
X148486714Y-90259819D02*
X147915286Y-90259819D01*
X148201000Y-90259819D02*
X148201000Y-89259819D01*
X148201000Y-89259819D02*
X148105762Y-89402676D01*
X148105762Y-89402676D02*
X148010524Y-89497914D01*
X148010524Y-89497914D02*
X147915286Y-89545533D01*
X95973333Y-47349580D02*
X95925714Y-47397200D01*
X95925714Y-47397200D02*
X95782857Y-47444819D01*
X95782857Y-47444819D02*
X95687619Y-47444819D01*
X95687619Y-47444819D02*
X95544762Y-47397200D01*
X95544762Y-47397200D02*
X95449524Y-47301961D01*
X95449524Y-47301961D02*
X95401905Y-47206723D01*
X95401905Y-47206723D02*
X95354286Y-47016247D01*
X95354286Y-47016247D02*
X95354286Y-46873390D01*
X95354286Y-46873390D02*
X95401905Y-46682914D01*
X95401905Y-46682914D02*
X95449524Y-46587676D01*
X95449524Y-46587676D02*
X95544762Y-46492438D01*
X95544762Y-46492438D02*
X95687619Y-46444819D01*
X95687619Y-46444819D02*
X95782857Y-46444819D01*
X95782857Y-46444819D02*
X95925714Y-46492438D01*
X95925714Y-46492438D02*
X95973333Y-46540057D01*
X96830476Y-46778152D02*
X96830476Y-47444819D01*
X96592381Y-46397200D02*
X96354286Y-47111485D01*
X96354286Y-47111485D02*
X96973333Y-47111485D01*
X81788095Y-53429819D02*
X81788095Y-54239342D01*
X81788095Y-54239342D02*
X81835714Y-54334580D01*
X81835714Y-54334580D02*
X81883333Y-54382200D01*
X81883333Y-54382200D02*
X81978571Y-54429819D01*
X81978571Y-54429819D02*
X82169047Y-54429819D01*
X82169047Y-54429819D02*
X82264285Y-54382200D01*
X82264285Y-54382200D02*
X82311904Y-54334580D01*
X82311904Y-54334580D02*
X82359523Y-54239342D01*
X82359523Y-54239342D02*
X82359523Y-53429819D01*
X82740476Y-53429819D02*
X83359523Y-53429819D01*
X83359523Y-53429819D02*
X83026190Y-53810771D01*
X83026190Y-53810771D02*
X83169047Y-53810771D01*
X83169047Y-53810771D02*
X83264285Y-53858390D01*
X83264285Y-53858390D02*
X83311904Y-53906009D01*
X83311904Y-53906009D02*
X83359523Y-54001247D01*
X83359523Y-54001247D02*
X83359523Y-54239342D01*
X83359523Y-54239342D02*
X83311904Y-54334580D01*
X83311904Y-54334580D02*
X83264285Y-54382200D01*
X83264285Y-54382200D02*
X83169047Y-54429819D01*
X83169047Y-54429819D02*
X82883333Y-54429819D01*
X82883333Y-54429819D02*
X82788095Y-54382200D01*
X82788095Y-54382200D02*
X82740476Y-54334580D01*
X92543333Y-51159580D02*
X92495714Y-51207200D01*
X92495714Y-51207200D02*
X92352857Y-51254819D01*
X92352857Y-51254819D02*
X92257619Y-51254819D01*
X92257619Y-51254819D02*
X92114762Y-51207200D01*
X92114762Y-51207200D02*
X92019524Y-51111961D01*
X92019524Y-51111961D02*
X91971905Y-51016723D01*
X91971905Y-51016723D02*
X91924286Y-50826247D01*
X91924286Y-50826247D02*
X91924286Y-50683390D01*
X91924286Y-50683390D02*
X91971905Y-50492914D01*
X91971905Y-50492914D02*
X92019524Y-50397676D01*
X92019524Y-50397676D02*
X92114762Y-50302438D01*
X92114762Y-50302438D02*
X92257619Y-50254819D01*
X92257619Y-50254819D02*
X92352857Y-50254819D01*
X92352857Y-50254819D02*
X92495714Y-50302438D01*
X92495714Y-50302438D02*
X92543333Y-50350057D01*
X93495714Y-51254819D02*
X92924286Y-51254819D01*
X93210000Y-51254819D02*
X93210000Y-50254819D01*
X93210000Y-50254819D02*
X93114762Y-50397676D01*
X93114762Y-50397676D02*
X93019524Y-50492914D01*
X93019524Y-50492914D02*
X92924286Y-50540533D01*
X81788095Y-84544819D02*
X81788095Y-85354342D01*
X81788095Y-85354342D02*
X81835714Y-85449580D01*
X81835714Y-85449580D02*
X81883333Y-85497200D01*
X81883333Y-85497200D02*
X81978571Y-85544819D01*
X81978571Y-85544819D02*
X82169047Y-85544819D01*
X82169047Y-85544819D02*
X82264285Y-85497200D01*
X82264285Y-85497200D02*
X82311904Y-85449580D01*
X82311904Y-85449580D02*
X82359523Y-85354342D01*
X82359523Y-85354342D02*
X82359523Y-84544819D01*
X83311904Y-84544819D02*
X82835714Y-84544819D01*
X82835714Y-84544819D02*
X82788095Y-85021009D01*
X82788095Y-85021009D02*
X82835714Y-84973390D01*
X82835714Y-84973390D02*
X82930952Y-84925771D01*
X82930952Y-84925771D02*
X83169047Y-84925771D01*
X83169047Y-84925771D02*
X83264285Y-84973390D01*
X83264285Y-84973390D02*
X83311904Y-85021009D01*
X83311904Y-85021009D02*
X83359523Y-85116247D01*
X83359523Y-85116247D02*
X83359523Y-85354342D01*
X83359523Y-85354342D02*
X83311904Y-85449580D01*
X83311904Y-85449580D02*
X83264285Y-85497200D01*
X83264285Y-85497200D02*
X83169047Y-85544819D01*
X83169047Y-85544819D02*
X82930952Y-85544819D01*
X82930952Y-85544819D02*
X82835714Y-85497200D01*
X82835714Y-85497200D02*
X82788095Y-85449580D01*
D12*
X98590000Y-70670000D02*
X103930000Y-70670000D01*
X98590000Y-71364000D02*
X98590000Y-70670000D01*
X98590000Y-74110000D02*
X98590000Y-73416000D01*
X103930000Y-70670000D02*
X103930000Y-71364000D01*
X103930000Y-73416000D02*
X103930000Y-74110000D01*
X103930000Y-74110000D02*
X98590000Y-74110000D01*
X122200000Y-44500000D02*
X129000000Y-44500000D01*
X136400000Y-44500000D02*
X143200000Y-44500000D01*
X140193000Y-92833000D02*
X140193000Y-95500000D01*
X143200000Y-92833000D02*
X140193000Y-92833000D01*
X143200000Y-95500000D02*
X122200000Y-95500000D01*
X85000000Y-64320000D02*
X90340000Y-64320000D01*
X85000000Y-65014000D02*
X85000000Y-64320000D01*
X85000000Y-67760000D02*
X85000000Y-67066000D01*
X90340000Y-64320000D02*
X90340000Y-65014000D01*
X90340000Y-67066000D02*
X90340000Y-67760000D01*
X90340000Y-67760000D02*
X85000000Y-67760000D01*
X85000000Y-80480000D02*
X90340000Y-80480000D01*
X85000000Y-81174000D02*
X85000000Y-80480000D01*
X85000000Y-83920000D02*
X85000000Y-83226000D01*
X90340000Y-80480000D02*
X90340000Y-81174000D01*
X90340000Y-83226000D02*
X90340000Y-83920000D01*
X90340000Y-83920000D02*
X85000000Y-83920000D01*
X101170000Y-51595000D02*
X101170000Y-51860000D01*
X101170000Y-67215000D02*
X101170000Y-66950000D01*
X105030000Y-51595000D02*
X101170000Y-51595000D01*
X105030000Y-51595000D02*
X108890000Y-51595000D01*
X105030000Y-67215000D02*
X101170000Y-67215000D01*
X105030000Y-67215000D02*
X108890000Y-67215000D01*
X108890000Y-51595000D02*
X108890000Y-51860000D01*
X108890000Y-67215000D02*
X108890000Y-66950000D01*
X110082500Y-67420000D02*
X109402500Y-67420000D01*
X109742500Y-66950000D01*
X110082500Y-67420000D01*
G36*
X110082500Y-67420000D02*
G01*
X109402500Y-67420000D01*
X109742500Y-66950000D01*
X110082500Y-67420000D01*
G37*
X87630000Y-68600000D02*
X85680000Y-68600000D01*
X87630000Y-68600000D02*
X89580000Y-68600000D01*
X87630000Y-78720000D02*
X85680000Y-78720000D01*
X87630000Y-78720000D02*
X89580000Y-78720000D01*
X84930000Y-68655000D02*
X84690000Y-68325000D01*
X85170000Y-68325000D01*
X84930000Y-68655000D01*
G36*
X84930000Y-68655000D02*
G01*
X84690000Y-68325000D01*
X85170000Y-68325000D01*
X84930000Y-68655000D01*
G37*
X70270000Y-92390000D02*
X70270000Y-51690000D01*
X70270000Y-94990000D02*
X70270000Y-93660000D01*
X71600000Y-94990000D02*
X70270000Y-94990000D01*
X72870000Y-92390000D02*
X70270000Y-92390000D01*
X72870000Y-94990000D02*
X72870000Y-92390000D01*
X75470000Y-51690000D02*
X70270000Y-51690000D01*
X75470000Y-94990000D02*
X72870000Y-94990000D01*
X75470000Y-94990000D02*
X75470000Y-51690000D01*
X152255000Y-69910000D02*
X157595000Y-69910000D01*
X152255000Y-70604000D02*
X152255000Y-69910000D01*
X152255000Y-73350000D02*
X152255000Y-72656000D01*
X157595000Y-69910000D02*
X157595000Y-70604000D01*
X157595000Y-72656000D02*
X157595000Y-73350000D01*
X157595000Y-73350000D02*
X152255000Y-73350000D01*
X150790000Y-75275000D02*
X150790000Y-75530000D01*
X150790000Y-85795000D02*
X150790000Y-85540000D01*
X154650000Y-75275000D02*
X150790000Y-75275000D01*
X154650000Y-75275000D02*
X158510000Y-75275000D01*
X154650000Y-85795000D02*
X150790000Y-85795000D01*
X154650000Y-85795000D02*
X158510000Y-85795000D01*
X158510000Y-75275000D02*
X158510000Y-75530000D01*
X158510000Y-85795000D02*
X158510000Y-85540000D01*
X149937500Y-75530000D02*
X149597500Y-75060000D01*
X150277500Y-75060000D01*
X149937500Y-75530000D01*
G36*
X149937500Y-75530000D02*
G01*
X149597500Y-75060000D01*
X150277500Y-75060000D01*
X149937500Y-75530000D01*
G37*
X101170000Y-76995000D02*
X101170000Y-77260000D01*
X101170000Y-92615000D02*
X101170000Y-92350000D01*
X105030000Y-76995000D02*
X101170000Y-76995000D01*
X105030000Y-76995000D02*
X108890000Y-76995000D01*
X105030000Y-92615000D02*
X101170000Y-92615000D01*
X105030000Y-92615000D02*
X108890000Y-92615000D01*
X108890000Y-76995000D02*
X108890000Y-77260000D01*
X108890000Y-92615000D02*
X108890000Y-92350000D01*
X110082500Y-92820000D02*
X109402500Y-92820000D01*
X109742500Y-92350000D01*
X110082500Y-92820000D01*
G36*
X110082500Y-92820000D02*
G01*
X109402500Y-92820000D01*
X109742500Y-92350000D01*
X110082500Y-92820000D01*
G37*
X151154000Y-64770000D02*
X151924000Y-64770000D01*
X159234000Y-64770000D02*
X158464000Y-64770000D01*
X158464000Y-66140000D02*
X151924000Y-66140000D01*
X151924000Y-63400000D01*
X158464000Y-63400000D01*
X158464000Y-66140000D01*
X150790000Y-50335000D02*
X150790000Y-50590000D01*
X150790000Y-60855000D02*
X150790000Y-60600000D01*
X154650000Y-50335000D02*
X150790000Y-50335000D01*
X154650000Y-50335000D02*
X158510000Y-50335000D01*
X154650000Y-60855000D02*
X150790000Y-60855000D01*
X154650000Y-60855000D02*
X158510000Y-60855000D01*
X158510000Y-50335000D02*
X158510000Y-50590000D01*
X158510000Y-60855000D02*
X158510000Y-60600000D01*
X149937500Y-50590000D02*
X149597500Y-50120000D01*
X150277500Y-50120000D01*
X149937500Y-50590000D01*
G36*
X149937500Y-50590000D02*
G01*
X149597500Y-50120000D01*
X150277500Y-50120000D01*
X149937500Y-50590000D01*
G37*
X152255000Y-44875000D02*
X157595000Y-44875000D01*
X152255000Y-45569000D02*
X152255000Y-44875000D01*
X152255000Y-48315000D02*
X152255000Y-47621000D01*
X157595000Y-44875000D02*
X157595000Y-45569000D01*
X157595000Y-47621000D02*
X157595000Y-48315000D01*
X157595000Y-48315000D02*
X152255000Y-48315000D01*
X72968000Y-46990000D02*
X73988000Y-46990000D01*
X78408000Y-48460000D02*
X78408000Y-45520000D01*
X78528000Y-48460000D02*
X78528000Y-45520000D01*
X78648000Y-48460000D02*
X78648000Y-45520000D01*
X80448000Y-46990000D02*
X79428000Y-46990000D01*
X79428000Y-48460000D02*
X73988000Y-48460000D01*
X73988000Y-45520000D01*
X79428000Y-45520000D01*
X79428000Y-48460000D01*
X106805000Y-70670000D02*
X112145000Y-70670000D01*
X106805000Y-71364000D02*
X106805000Y-70670000D01*
X106805000Y-74110000D02*
X106805000Y-73416000D01*
X112145000Y-70670000D02*
X112145000Y-71364000D01*
X112145000Y-73416000D02*
X112145000Y-74110000D01*
X112145000Y-74110000D02*
X106805000Y-74110000D01*
X107480000Y-45270000D02*
X112820000Y-45270000D01*
X107480000Y-45964000D02*
X107480000Y-45270000D01*
X107480000Y-48710000D02*
X107480000Y-48016000D01*
X112820000Y-45270000D02*
X112820000Y-45964000D01*
X112820000Y-48016000D02*
X112820000Y-48710000D01*
X112820000Y-48710000D02*
X107480000Y-48710000D01*
X151154000Y-91202000D02*
X151924000Y-91202000D01*
X159234000Y-91202000D02*
X158464000Y-91202000D01*
X158464000Y-92572000D02*
X151924000Y-92572000D01*
X151924000Y-89832000D01*
X158464000Y-89832000D01*
X158464000Y-92572000D01*
X98550000Y-45270000D02*
X103890000Y-45270000D01*
X98550000Y-45964000D02*
X98550000Y-45270000D01*
X98550000Y-48710000D02*
X98550000Y-48016000D01*
X103890000Y-45270000D02*
X103890000Y-45964000D01*
X103890000Y-48016000D02*
X103890000Y-48710000D01*
X103890000Y-48710000D02*
X98550000Y-48710000D01*
X87565000Y-53360000D02*
X85615000Y-53360000D01*
X87565000Y-53360000D02*
X89515000Y-53360000D01*
X87565000Y-63480000D02*
X85615000Y-63480000D01*
X87565000Y-63480000D02*
X89515000Y-63480000D01*
X84865000Y-53415000D02*
X84625000Y-53085000D01*
X85105000Y-53085000D01*
X84865000Y-53415000D01*
G36*
X84865000Y-53415000D02*
G01*
X84625000Y-53085000D01*
X85105000Y-53085000D01*
X84865000Y-53415000D01*
G37*
X85000000Y-49080000D02*
X90340000Y-49080000D01*
X85000000Y-49774000D02*
X85000000Y-49080000D01*
X85000000Y-52520000D02*
X85000000Y-51826000D01*
X90340000Y-49080000D02*
X90340000Y-49774000D01*
X90340000Y-51826000D02*
X90340000Y-52520000D01*
X90340000Y-52520000D02*
X85000000Y-52520000D01*
X87630000Y-84475000D02*
X85680000Y-84475000D01*
X87630000Y-84475000D02*
X89580000Y-84475000D01*
X87630000Y-94595000D02*
X85680000Y-94595000D01*
X87630000Y-94595000D02*
X89580000Y-94595000D01*
X84930000Y-84530000D02*
X84690000Y-84200000D01*
X85170000Y-84200000D01*
X84930000Y-84530000D01*
G36*
X84930000Y-84530000D02*
G01*
X84690000Y-84200000D01*
X85170000Y-84200000D01*
X84930000Y-84530000D01*
G37*
%LPC*%
D13*
X98760000Y-72390000D03*
X103760000Y-72390000D03*
D14*
X135425000Y-94000000D03*
D15*
X135125000Y-90970000D03*
X130275000Y-90970000D03*
D14*
X129975000Y-94000000D03*
D16*
X142490000Y-94130000D03*
X142490000Y-91590000D03*
X142490000Y-89050000D03*
X142490000Y-86510000D03*
X142490000Y-83970000D03*
X142490000Y-81430000D03*
X142490000Y-78890000D03*
X142490000Y-76350000D03*
X142490000Y-73810000D03*
X142490000Y-71270000D03*
X142490000Y-68730000D03*
X142490000Y-66190000D03*
X142490000Y-63650000D03*
X142490000Y-61110000D03*
X142490000Y-58570000D03*
X142490000Y-56030000D03*
X142490000Y-53490000D03*
X142490000Y-50950000D03*
X142490000Y-48410000D03*
X142490000Y-45870000D03*
X122910000Y-45870000D03*
X122910000Y-48410000D03*
X122910000Y-50950000D03*
X122910000Y-53490000D03*
X122910000Y-56030000D03*
X122910000Y-58570000D03*
X122910000Y-61110000D03*
X122910000Y-63650000D03*
X122910000Y-66190000D03*
X122910000Y-68730000D03*
X122910000Y-71270000D03*
X122910000Y-73810000D03*
X122910000Y-76350000D03*
X122910000Y-78890000D03*
X122910000Y-81430000D03*
X122910000Y-83970000D03*
X122910000Y-86510000D03*
X122910000Y-89050000D03*
X122910000Y-91590000D03*
X122910000Y-94130000D03*
D13*
X90170000Y-66040000D03*
X85170000Y-66040000D03*
X90170000Y-82200000D03*
X85170000Y-82200000D03*
D17*
X109680000Y-66390000D03*
X109680000Y-65120000D03*
X109680000Y-63850000D03*
X109680000Y-62580000D03*
X109680000Y-61310000D03*
X109680000Y-60040000D03*
X109680000Y-58770000D03*
X109680000Y-57500000D03*
X109680000Y-56230000D03*
X109680000Y-54960000D03*
X109680000Y-53690000D03*
X109680000Y-52420000D03*
X100380000Y-52420000D03*
X100380000Y-53690000D03*
X100380000Y-54960000D03*
X100380000Y-56230000D03*
X100380000Y-57500000D03*
X100380000Y-58770000D03*
X100380000Y-60040000D03*
X100380000Y-61310000D03*
X100380000Y-62580000D03*
X100380000Y-63850000D03*
X100380000Y-65120000D03*
X100380000Y-66390000D03*
D18*
X85155000Y-69215000D03*
X85155000Y-70485000D03*
X85155000Y-71755000D03*
X85155000Y-73025000D03*
X85155000Y-74295000D03*
X85155000Y-75565000D03*
X85155000Y-76835000D03*
X85155000Y-78105000D03*
X90105000Y-78105000D03*
X90105000Y-76835000D03*
X90105000Y-75565000D03*
X90105000Y-74295000D03*
X90105000Y-73025000D03*
X90105000Y-71755000D03*
X90105000Y-70485000D03*
X90105000Y-69215000D03*
D19*
X71600000Y-93660000D03*
D20*
X74140000Y-93660000D03*
X71600000Y-91120000D03*
X74140000Y-91120000D03*
X71600000Y-88580000D03*
X74140000Y-88580000D03*
X71600000Y-86040000D03*
X74140000Y-86040000D03*
X71600000Y-83500000D03*
X74140000Y-83500000D03*
X71600000Y-80960000D03*
X74140000Y-80960000D03*
X71600000Y-78420000D03*
X74140000Y-78420000D03*
X71600000Y-75880000D03*
X74140000Y-75880000D03*
X71600000Y-73340000D03*
X74140000Y-73340000D03*
X71600000Y-70800000D03*
X74140000Y-70800000D03*
X71600000Y-68260000D03*
X74140000Y-68260000D03*
X71600000Y-65720000D03*
X74140000Y-65720000D03*
X71600000Y-63180000D03*
X74140000Y-63180000D03*
X71600000Y-60640000D03*
X74140000Y-60640000D03*
X71600000Y-58100000D03*
X74140000Y-58100000D03*
X71600000Y-55560000D03*
X74140000Y-55560000D03*
X71600000Y-53020000D03*
X74140000Y-53020000D03*
D13*
X152425000Y-71630000D03*
X157425000Y-71630000D03*
D21*
X150000000Y-76090000D03*
X150000000Y-77360000D03*
X150000000Y-78630000D03*
X150000000Y-79900000D03*
X150000000Y-81170000D03*
X150000000Y-82440000D03*
X150000000Y-83710000D03*
X150000000Y-84980000D03*
X159300000Y-84980000D03*
X159300000Y-83710000D03*
X159300000Y-82440000D03*
X159300000Y-81170000D03*
X159300000Y-79900000D03*
X159300000Y-78630000D03*
X159300000Y-77360000D03*
X159300000Y-76090000D03*
D17*
X109680000Y-91790000D03*
X109680000Y-90520000D03*
X109680000Y-89250000D03*
X109680000Y-87980000D03*
X109680000Y-86710000D03*
X109680000Y-85440000D03*
X109680000Y-84170000D03*
X109680000Y-82900000D03*
X109680000Y-81630000D03*
X109680000Y-80360000D03*
X109680000Y-79090000D03*
X109680000Y-77820000D03*
X100380000Y-77820000D03*
X100380000Y-79090000D03*
X100380000Y-80360000D03*
X100380000Y-81630000D03*
X100380000Y-82900000D03*
X100380000Y-84170000D03*
X100380000Y-85440000D03*
X100380000Y-86710000D03*
X100380000Y-87980000D03*
X100380000Y-89250000D03*
X100380000Y-90520000D03*
X100380000Y-91790000D03*
D13*
X160274000Y-64770000D03*
X150114000Y-64770000D03*
D21*
X150000000Y-51150000D03*
X150000000Y-52420000D03*
X150000000Y-53690000D03*
X150000000Y-54960000D03*
X150000000Y-56230000D03*
X150000000Y-57500000D03*
X150000000Y-58770000D03*
X150000000Y-60040000D03*
X159300000Y-60040000D03*
X159300000Y-58770000D03*
X159300000Y-57500000D03*
X159300000Y-56230000D03*
X159300000Y-54960000D03*
X159300000Y-53690000D03*
X159300000Y-52420000D03*
X159300000Y-51150000D03*
D13*
X152425000Y-46595000D03*
X157425000Y-46595000D03*
D22*
X81788000Y-46990000D03*
D23*
X71628000Y-46990000D03*
D13*
X111975000Y-72390000D03*
X106975000Y-72390000D03*
X112650000Y-46990000D03*
X107650000Y-46990000D03*
D24*
X116600000Y-82232500D03*
D13*
X160274000Y-91202000D03*
X150114000Y-91202000D03*
X98720000Y-46990000D03*
X103720000Y-46990000D03*
D18*
X85090000Y-53975000D03*
X85090000Y-55245000D03*
X85090000Y-56515000D03*
X85090000Y-57785000D03*
X85090000Y-59055000D03*
X85090000Y-60325000D03*
X85090000Y-61595000D03*
X85090000Y-62865000D03*
X90040000Y-62865000D03*
X90040000Y-61595000D03*
X90040000Y-60325000D03*
X90040000Y-59055000D03*
X90040000Y-57785000D03*
X90040000Y-56515000D03*
X90040000Y-55245000D03*
X90040000Y-53975000D03*
D13*
X90170000Y-50800000D03*
X85170000Y-50800000D03*
D18*
X85155000Y-85090000D03*
X85155000Y-86360000D03*
X85155000Y-87630000D03*
X85155000Y-88900000D03*
X85155000Y-90170000D03*
X85155000Y-91440000D03*
X85155000Y-92710000D03*
X85155000Y-93980000D03*
X90105000Y-93980000D03*
X90105000Y-92710000D03*
X90105000Y-91440000D03*
X90105000Y-90170000D03*
X90105000Y-88900000D03*
X90105000Y-87630000D03*
X90105000Y-86360000D03*
X90105000Y-85090000D03*
%LPD*%
M02*
