G04 #@! TF.GenerationSoftware,KiCad,Pcbnew,9.0.3*
G04 #@! TF.CreationDate,2025-07-22T08:58:47+01:00*
G04 #@! TF.ProjectId,megaflash,6d656761-666c-4617-9368-2e6b69636164,rev?*
G04 #@! TF.SameCoordinates,Original*
G04 #@! TF.FileFunction,Legend,Top*
G04 #@! TF.FilePolarity,Positive*
%FSLAX46Y46*%
G04 Gerber Fmt 4.6, Leading zero omitted, Abs format (unit mm)*
G04 Created by KiCad (PCBNEW 9.0.3) date 2025-07-22 08:58:47*
%MOMM*%
%LPD*%
G01*
G04 APERTURE LIST*
G04 Aperture macros list*
%AMRoundRect*
0 Rectangle with rounded corners*
0 $1 Rounding radius*
0 $2 $3 $4 $5 $6 $7 $8 $9 X,Y pos of 4 corners*
0 Add a 4 corners polygon primitive as box body*
4,1,4,$2,$3,$4,$5,$6,$7,$8,$9,$2,$3,0*
0 Add four circle primitives for the rounded corners*
1,1,$1+$1,$2,$3*
1,1,$1+$1,$4,$5*
1,1,$1+$1,$6,$7*
1,1,$1+$1,$8,$9*
0 Add four rect primitives between the rounded corners*
20,1,$1+$1,$2,$3,$4,$5,0*
20,1,$1+$1,$4,$5,$6,$7,0*
20,1,$1+$1,$6,$7,$8,$9,0*
20,1,$1+$1,$8,$9,$2,$3,0*%
G04 Aperture macros list end*
%ADD10C,0.150000*%
%ADD11C,0.300000*%
%ADD12C,0.162500*%
%ADD13C,0.120000*%
%ADD14RoundRect,0.250000X0.550000X0.550000X-0.550000X0.550000X-0.550000X-0.550000X0.550000X-0.550000X0*%
%ADD15C,1.600000*%
%ADD16RoundRect,0.249999X1.143249X0.371464X-0.371464X1.143249X-1.143249X-0.371464X0.371464X-1.143249X0*%
%ADD17C,2.200000*%
%ADD18RoundRect,0.250000X0.550000X-0.950000X0.550000X0.950000X-0.550000X0.950000X-0.550000X-0.950000X0*%
%ADD19O,1.600000X2.400000*%
%ADD20RoundRect,0.150000X-0.875000X-0.150000X0.875000X-0.150000X0.875000X0.150000X-0.875000X0.150000X0*%
%ADD21R,1.600000X1.600000*%
%ADD22O,1.800000X1.800000*%
%ADD23O,1.500000X1.500000*%
%ADD24R,3.500000X1.700000*%
%ADD25R,1.700000X1.700000*%
%ADD26O,1.700000X1.700000*%
%ADD27RoundRect,0.250000X-0.650000X1.000000X-0.650000X-1.000000X0.650000X-1.000000X0.650000X1.000000X0*%
%ADD28C,2.700000*%
G04 APERTURE END LIST*
D10*
X70707107Y-96250000D02*
G75*
G02*
X69292893Y-96250000I-707107J0D01*
G01*
X69292893Y-96250000D02*
G75*
G02*
X70707107Y-96250000I707107J0D01*
G01*
X160290112Y-107986009D02*
X159956779Y-107986009D01*
X159956779Y-108509819D02*
X159956779Y-107509819D01*
X159956779Y-107509819D02*
X160432969Y-107509819D01*
X160956779Y-108509819D02*
X160861541Y-108462200D01*
X160861541Y-108462200D02*
X160813922Y-108366961D01*
X160813922Y-108366961D02*
X160813922Y-107509819D01*
X161766303Y-108509819D02*
X161766303Y-107986009D01*
X161766303Y-107986009D02*
X161718684Y-107890771D01*
X161718684Y-107890771D02*
X161623446Y-107843152D01*
X161623446Y-107843152D02*
X161432970Y-107843152D01*
X161432970Y-107843152D02*
X161337732Y-107890771D01*
X161766303Y-108462200D02*
X161671065Y-108509819D01*
X161671065Y-108509819D02*
X161432970Y-108509819D01*
X161432970Y-108509819D02*
X161337732Y-108462200D01*
X161337732Y-108462200D02*
X161290113Y-108366961D01*
X161290113Y-108366961D02*
X161290113Y-108271723D01*
X161290113Y-108271723D02*
X161337732Y-108176485D01*
X161337732Y-108176485D02*
X161432970Y-108128866D01*
X161432970Y-108128866D02*
X161671065Y-108128866D01*
X161671065Y-108128866D02*
X161766303Y-108081247D01*
X162194875Y-108462200D02*
X162290113Y-108509819D01*
X162290113Y-108509819D02*
X162480589Y-108509819D01*
X162480589Y-108509819D02*
X162575827Y-108462200D01*
X162575827Y-108462200D02*
X162623446Y-108366961D01*
X162623446Y-108366961D02*
X162623446Y-108319342D01*
X162623446Y-108319342D02*
X162575827Y-108224104D01*
X162575827Y-108224104D02*
X162480589Y-108176485D01*
X162480589Y-108176485D02*
X162337732Y-108176485D01*
X162337732Y-108176485D02*
X162242494Y-108128866D01*
X162242494Y-108128866D02*
X162194875Y-108033628D01*
X162194875Y-108033628D02*
X162194875Y-107986009D01*
X162194875Y-107986009D02*
X162242494Y-107890771D01*
X162242494Y-107890771D02*
X162337732Y-107843152D01*
X162337732Y-107843152D02*
X162480589Y-107843152D01*
X162480589Y-107843152D02*
X162575827Y-107890771D01*
X163052018Y-108509819D02*
X163052018Y-107509819D01*
X163480589Y-108509819D02*
X163480589Y-107986009D01*
X163480589Y-107986009D02*
X163432970Y-107890771D01*
X163432970Y-107890771D02*
X163337732Y-107843152D01*
X163337732Y-107843152D02*
X163194875Y-107843152D01*
X163194875Y-107843152D02*
X163099637Y-107890771D01*
X163099637Y-107890771D02*
X163052018Y-107938390D01*
X165242494Y-108509819D02*
X164671066Y-108509819D01*
X164956780Y-108509819D02*
X164956780Y-107509819D01*
X164956780Y-107509819D02*
X164861542Y-107652676D01*
X164861542Y-107652676D02*
X164766304Y-107747914D01*
X164766304Y-107747914D02*
X164671066Y-107795533D01*
X160290112Y-76381009D02*
X159956779Y-76381009D01*
X159956779Y-76904819D02*
X159956779Y-75904819D01*
X159956779Y-75904819D02*
X160432969Y-75904819D01*
X160956779Y-76904819D02*
X160861541Y-76857200D01*
X160861541Y-76857200D02*
X160813922Y-76761961D01*
X160813922Y-76761961D02*
X160813922Y-75904819D01*
X161766303Y-76904819D02*
X161766303Y-76381009D01*
X161766303Y-76381009D02*
X161718684Y-76285771D01*
X161718684Y-76285771D02*
X161623446Y-76238152D01*
X161623446Y-76238152D02*
X161432970Y-76238152D01*
X161432970Y-76238152D02*
X161337732Y-76285771D01*
X161766303Y-76857200D02*
X161671065Y-76904819D01*
X161671065Y-76904819D02*
X161432970Y-76904819D01*
X161432970Y-76904819D02*
X161337732Y-76857200D01*
X161337732Y-76857200D02*
X161290113Y-76761961D01*
X161290113Y-76761961D02*
X161290113Y-76666723D01*
X161290113Y-76666723D02*
X161337732Y-76571485D01*
X161337732Y-76571485D02*
X161432970Y-76523866D01*
X161432970Y-76523866D02*
X161671065Y-76523866D01*
X161671065Y-76523866D02*
X161766303Y-76476247D01*
X162194875Y-76857200D02*
X162290113Y-76904819D01*
X162290113Y-76904819D02*
X162480589Y-76904819D01*
X162480589Y-76904819D02*
X162575827Y-76857200D01*
X162575827Y-76857200D02*
X162623446Y-76761961D01*
X162623446Y-76761961D02*
X162623446Y-76714342D01*
X162623446Y-76714342D02*
X162575827Y-76619104D01*
X162575827Y-76619104D02*
X162480589Y-76571485D01*
X162480589Y-76571485D02*
X162337732Y-76571485D01*
X162337732Y-76571485D02*
X162242494Y-76523866D01*
X162242494Y-76523866D02*
X162194875Y-76428628D01*
X162194875Y-76428628D02*
X162194875Y-76381009D01*
X162194875Y-76381009D02*
X162242494Y-76285771D01*
X162242494Y-76285771D02*
X162337732Y-76238152D01*
X162337732Y-76238152D02*
X162480589Y-76238152D01*
X162480589Y-76238152D02*
X162575827Y-76285771D01*
X163052018Y-76904819D02*
X163052018Y-75904819D01*
X163480589Y-76904819D02*
X163480589Y-76381009D01*
X163480589Y-76381009D02*
X163432970Y-76285771D01*
X163432970Y-76285771D02*
X163337732Y-76238152D01*
X163337732Y-76238152D02*
X163194875Y-76238152D01*
X163194875Y-76238152D02*
X163099637Y-76285771D01*
X163099637Y-76285771D02*
X163052018Y-76333390D01*
X164671066Y-76000057D02*
X164718685Y-75952438D01*
X164718685Y-75952438D02*
X164813923Y-75904819D01*
X164813923Y-75904819D02*
X165052018Y-75904819D01*
X165052018Y-75904819D02*
X165147256Y-75952438D01*
X165147256Y-75952438D02*
X165194875Y-76000057D01*
X165194875Y-76000057D02*
X165242494Y-76095295D01*
X165242494Y-76095295D02*
X165242494Y-76190533D01*
X165242494Y-76190533D02*
X165194875Y-76333390D01*
X165194875Y-76333390D02*
X164623447Y-76904819D01*
X164623447Y-76904819D02*
X165242494Y-76904819D01*
X139284398Y-106145342D02*
X139284398Y-107116771D01*
X139284398Y-107116771D02*
X139341541Y-107231057D01*
X139341541Y-107231057D02*
X139398684Y-107288200D01*
X139398684Y-107288200D02*
X139512969Y-107345342D01*
X139512969Y-107345342D02*
X139741541Y-107345342D01*
X139741541Y-107345342D02*
X139855826Y-107288200D01*
X139855826Y-107288200D02*
X139912969Y-107231057D01*
X139912969Y-107231057D02*
X139970112Y-107116771D01*
X139970112Y-107116771D02*
X139970112Y-106145342D01*
X140484398Y-107288200D02*
X140655827Y-107345342D01*
X140655827Y-107345342D02*
X140941541Y-107345342D01*
X140941541Y-107345342D02*
X141055827Y-107288200D01*
X141055827Y-107288200D02*
X141112969Y-107231057D01*
X141112969Y-107231057D02*
X141170112Y-107116771D01*
X141170112Y-107116771D02*
X141170112Y-107002485D01*
X141170112Y-107002485D02*
X141112969Y-106888200D01*
X141112969Y-106888200D02*
X141055827Y-106831057D01*
X141055827Y-106831057D02*
X140941541Y-106773914D01*
X140941541Y-106773914D02*
X140712969Y-106716771D01*
X140712969Y-106716771D02*
X140598684Y-106659628D01*
X140598684Y-106659628D02*
X140541541Y-106602485D01*
X140541541Y-106602485D02*
X140484398Y-106488200D01*
X140484398Y-106488200D02*
X140484398Y-106373914D01*
X140484398Y-106373914D02*
X140541541Y-106259628D01*
X140541541Y-106259628D02*
X140598684Y-106202485D01*
X140598684Y-106202485D02*
X140712969Y-106145342D01*
X140712969Y-106145342D02*
X140998684Y-106145342D01*
X140998684Y-106145342D02*
X141170112Y-106202485D01*
X142084398Y-106716771D02*
X142255826Y-106773914D01*
X142255826Y-106773914D02*
X142312969Y-106831057D01*
X142312969Y-106831057D02*
X142370112Y-106945342D01*
X142370112Y-106945342D02*
X142370112Y-107116771D01*
X142370112Y-107116771D02*
X142312969Y-107231057D01*
X142312969Y-107231057D02*
X142255826Y-107288200D01*
X142255826Y-107288200D02*
X142141541Y-107345342D01*
X142141541Y-107345342D02*
X141684398Y-107345342D01*
X141684398Y-107345342D02*
X141684398Y-106145342D01*
X141684398Y-106145342D02*
X142084398Y-106145342D01*
X142084398Y-106145342D02*
X142198684Y-106202485D01*
X142198684Y-106202485D02*
X142255826Y-106259628D01*
X142255826Y-106259628D02*
X142312969Y-106373914D01*
X142312969Y-106373914D02*
X142312969Y-106488200D01*
X142312969Y-106488200D02*
X142255826Y-106602485D01*
X142255826Y-106602485D02*
X142198684Y-106659628D01*
X142198684Y-106659628D02*
X142084398Y-106716771D01*
X142084398Y-106716771D02*
X141684398Y-106716771D01*
D11*
X134337542Y-81574060D02*
X135194685Y-81574060D01*
X135194685Y-81574060D02*
X135366114Y-81631203D01*
X135366114Y-81631203D02*
X135480400Y-81745489D01*
X135480400Y-81745489D02*
X135537542Y-81916917D01*
X135537542Y-81916917D02*
X135537542Y-82031203D01*
X135537542Y-80431203D02*
X135537542Y-81002631D01*
X135537542Y-81002631D02*
X134337542Y-81002631D01*
X135423257Y-79345488D02*
X135480400Y-79402631D01*
X135480400Y-79402631D02*
X135537542Y-79574059D01*
X135537542Y-79574059D02*
X135537542Y-79688345D01*
X135537542Y-79688345D02*
X135480400Y-79859774D01*
X135480400Y-79859774D02*
X135366114Y-79974059D01*
X135366114Y-79974059D02*
X135251828Y-80031202D01*
X135251828Y-80031202D02*
X135023257Y-80088345D01*
X135023257Y-80088345D02*
X134851828Y-80088345D01*
X134851828Y-80088345D02*
X134623257Y-80031202D01*
X134623257Y-80031202D02*
X134508971Y-79974059D01*
X134508971Y-79974059D02*
X134394685Y-79859774D01*
X134394685Y-79859774D02*
X134337542Y-79688345D01*
X134337542Y-79688345D02*
X134337542Y-79574059D01*
X134337542Y-79574059D02*
X134394685Y-79402631D01*
X134394685Y-79402631D02*
X134451828Y-79345488D01*
X134337542Y-78488345D02*
X135194685Y-78488345D01*
X135194685Y-78488345D02*
X135366114Y-78545488D01*
X135366114Y-78545488D02*
X135480400Y-78659774D01*
X135480400Y-78659774D02*
X135537542Y-78831202D01*
X135537542Y-78831202D02*
X135537542Y-78945488D01*
X135537542Y-77345488D02*
X135537542Y-77916916D01*
X135537542Y-77916916D02*
X134337542Y-77916916D01*
X135423257Y-76259773D02*
X135480400Y-76316916D01*
X135480400Y-76316916D02*
X135537542Y-76488344D01*
X135537542Y-76488344D02*
X135537542Y-76602630D01*
X135537542Y-76602630D02*
X135480400Y-76774059D01*
X135480400Y-76774059D02*
X135366114Y-76888344D01*
X135366114Y-76888344D02*
X135251828Y-76945487D01*
X135251828Y-76945487D02*
X135023257Y-77002630D01*
X135023257Y-77002630D02*
X134851828Y-77002630D01*
X134851828Y-77002630D02*
X134623257Y-76945487D01*
X134623257Y-76945487D02*
X134508971Y-76888344D01*
X134508971Y-76888344D02*
X134394685Y-76774059D01*
X134394685Y-76774059D02*
X134337542Y-76602630D01*
X134337542Y-76602630D02*
X134337542Y-76488344D01*
X134337542Y-76488344D02*
X134394685Y-76316916D01*
X134394685Y-76316916D02*
X134451828Y-76259773D01*
X134337542Y-75402630D02*
X135194685Y-75402630D01*
X135194685Y-75402630D02*
X135366114Y-75459773D01*
X135366114Y-75459773D02*
X135480400Y-75574059D01*
X135480400Y-75574059D02*
X135537542Y-75745487D01*
X135537542Y-75745487D02*
X135537542Y-75859773D01*
X135537542Y-74259773D02*
X135537542Y-74831201D01*
X135537542Y-74831201D02*
X134337542Y-74831201D01*
X135423257Y-73174058D02*
X135480400Y-73231201D01*
X135480400Y-73231201D02*
X135537542Y-73402629D01*
X135537542Y-73402629D02*
X135537542Y-73516915D01*
X135537542Y-73516915D02*
X135480400Y-73688344D01*
X135480400Y-73688344D02*
X135366114Y-73802629D01*
X135366114Y-73802629D02*
X135251828Y-73859772D01*
X135251828Y-73859772D02*
X135023257Y-73916915D01*
X135023257Y-73916915D02*
X134851828Y-73916915D01*
X134851828Y-73916915D02*
X134623257Y-73859772D01*
X134623257Y-73859772D02*
X134508971Y-73802629D01*
X134508971Y-73802629D02*
X134394685Y-73688344D01*
X134394685Y-73688344D02*
X134337542Y-73516915D01*
X134337542Y-73516915D02*
X134337542Y-73402629D01*
X134337542Y-73402629D02*
X134394685Y-73231201D01*
X134394685Y-73231201D02*
X134451828Y-73174058D01*
X134337542Y-72316915D02*
X135194685Y-72316915D01*
X135194685Y-72316915D02*
X135366114Y-72374058D01*
X135366114Y-72374058D02*
X135480400Y-72488344D01*
X135480400Y-72488344D02*
X135537542Y-72659772D01*
X135537542Y-72659772D02*
X135537542Y-72774058D01*
X135537542Y-71174058D02*
X135537542Y-71745486D01*
X135537542Y-71745486D02*
X134337542Y-71745486D01*
X135423257Y-70088343D02*
X135480400Y-70145486D01*
X135480400Y-70145486D02*
X135537542Y-70316914D01*
X135537542Y-70316914D02*
X135537542Y-70431200D01*
X135537542Y-70431200D02*
X135480400Y-70602629D01*
X135480400Y-70602629D02*
X135366114Y-70716914D01*
X135366114Y-70716914D02*
X135251828Y-70774057D01*
X135251828Y-70774057D02*
X135023257Y-70831200D01*
X135023257Y-70831200D02*
X134851828Y-70831200D01*
X134851828Y-70831200D02*
X134623257Y-70774057D01*
X134623257Y-70774057D02*
X134508971Y-70716914D01*
X134508971Y-70716914D02*
X134394685Y-70602629D01*
X134394685Y-70602629D02*
X134337542Y-70431200D01*
X134337542Y-70431200D02*
X134337542Y-70316914D01*
X134337542Y-70316914D02*
X134394685Y-70145486D01*
X134394685Y-70145486D02*
X134451828Y-70088343D01*
D10*
X137984398Y-89845342D02*
X137984398Y-88645342D01*
X137984398Y-88645342D02*
X138441541Y-88645342D01*
X138441541Y-88645342D02*
X138555826Y-88702485D01*
X138555826Y-88702485D02*
X138612969Y-88759628D01*
X138612969Y-88759628D02*
X138670112Y-88873914D01*
X138670112Y-88873914D02*
X138670112Y-89045342D01*
X138670112Y-89045342D02*
X138612969Y-89159628D01*
X138612969Y-89159628D02*
X138555826Y-89216771D01*
X138555826Y-89216771D02*
X138441541Y-89273914D01*
X138441541Y-89273914D02*
X137984398Y-89273914D01*
X139184398Y-89845342D02*
X139184398Y-89045342D01*
X139184398Y-88645342D02*
X139127255Y-88702485D01*
X139127255Y-88702485D02*
X139184398Y-88759628D01*
X139184398Y-88759628D02*
X139241541Y-88702485D01*
X139241541Y-88702485D02*
X139184398Y-88645342D01*
X139184398Y-88645342D02*
X139184398Y-88759628D01*
X140670113Y-89845342D02*
X140670113Y-88645342D01*
X140670113Y-88645342D02*
X141127256Y-88645342D01*
X141127256Y-88645342D02*
X141241541Y-88702485D01*
X141241541Y-88702485D02*
X141298684Y-88759628D01*
X141298684Y-88759628D02*
X141355827Y-88873914D01*
X141355827Y-88873914D02*
X141355827Y-89045342D01*
X141355827Y-89045342D02*
X141298684Y-89159628D01*
X141298684Y-89159628D02*
X141241541Y-89216771D01*
X141241541Y-89216771D02*
X141127256Y-89273914D01*
X141127256Y-89273914D02*
X140670113Y-89273914D01*
X141870113Y-89845342D02*
X141870113Y-89045342D01*
X141870113Y-88645342D02*
X141812970Y-88702485D01*
X141812970Y-88702485D02*
X141870113Y-88759628D01*
X141870113Y-88759628D02*
X141927256Y-88702485D01*
X141927256Y-88702485D02*
X141870113Y-88645342D01*
X141870113Y-88645342D02*
X141870113Y-88759628D01*
X142955828Y-89788200D02*
X142841542Y-89845342D01*
X142841542Y-89845342D02*
X142612970Y-89845342D01*
X142612970Y-89845342D02*
X142498685Y-89788200D01*
X142498685Y-89788200D02*
X142441542Y-89731057D01*
X142441542Y-89731057D02*
X142384399Y-89616771D01*
X142384399Y-89616771D02*
X142384399Y-89273914D01*
X142384399Y-89273914D02*
X142441542Y-89159628D01*
X142441542Y-89159628D02*
X142498685Y-89102485D01*
X142498685Y-89102485D02*
X142612970Y-89045342D01*
X142612970Y-89045342D02*
X142841542Y-89045342D01*
X142841542Y-89045342D02*
X142955828Y-89102485D01*
X143641541Y-89845342D02*
X143527256Y-89788200D01*
X143527256Y-89788200D02*
X143470113Y-89731057D01*
X143470113Y-89731057D02*
X143412970Y-89616771D01*
X143412970Y-89616771D02*
X143412970Y-89273914D01*
X143412970Y-89273914D02*
X143470113Y-89159628D01*
X143470113Y-89159628D02*
X143527256Y-89102485D01*
X143527256Y-89102485D02*
X143641541Y-89045342D01*
X143641541Y-89045342D02*
X143812970Y-89045342D01*
X143812970Y-89045342D02*
X143927256Y-89102485D01*
X143927256Y-89102485D02*
X143984399Y-89159628D01*
X143984399Y-89159628D02*
X144041541Y-89273914D01*
X144041541Y-89273914D02*
X144041541Y-89616771D01*
X144041541Y-89616771D02*
X143984399Y-89731057D01*
X143984399Y-89731057D02*
X143927256Y-89788200D01*
X143927256Y-89788200D02*
X143812970Y-89845342D01*
X143812970Y-89845342D02*
X143641541Y-89845342D01*
D12*
X155632621Y-83029692D02*
X155632621Y-81829692D01*
X155632621Y-81829692D02*
X156032621Y-82686835D01*
X156032621Y-82686835D02*
X156432621Y-81829692D01*
X156432621Y-81829692D02*
X156432621Y-83029692D01*
X156946907Y-81943978D02*
X157004050Y-81886835D01*
X157004050Y-81886835D02*
X157118336Y-81829692D01*
X157118336Y-81829692D02*
X157404050Y-81829692D01*
X157404050Y-81829692D02*
X157518336Y-81886835D01*
X157518336Y-81886835D02*
X157575478Y-81943978D01*
X157575478Y-81943978D02*
X157632621Y-82058264D01*
X157632621Y-82058264D02*
X157632621Y-82172550D01*
X157632621Y-82172550D02*
X157575478Y-82343978D01*
X157575478Y-82343978D02*
X156889764Y-83029692D01*
X156889764Y-83029692D02*
X157632621Y-83029692D01*
X158146907Y-82915407D02*
X158204050Y-82972550D01*
X158204050Y-82972550D02*
X158146907Y-83029692D01*
X158146907Y-83029692D02*
X158089764Y-82972550D01*
X158089764Y-82972550D02*
X158146907Y-82915407D01*
X158146907Y-82915407D02*
X158146907Y-83029692D01*
X159289764Y-81829692D02*
X158718336Y-81829692D01*
X158718336Y-81829692D02*
X158661193Y-82401121D01*
X158661193Y-82401121D02*
X158718336Y-82343978D01*
X158718336Y-82343978D02*
X158832622Y-82286835D01*
X158832622Y-82286835D02*
X159118336Y-82286835D01*
X159118336Y-82286835D02*
X159232622Y-82343978D01*
X159232622Y-82343978D02*
X159289764Y-82401121D01*
X159289764Y-82401121D02*
X159346907Y-82515407D01*
X159346907Y-82515407D02*
X159346907Y-82801121D01*
X159346907Y-82801121D02*
X159289764Y-82915407D01*
X159289764Y-82915407D02*
X159232622Y-82972550D01*
X159232622Y-82972550D02*
X159118336Y-83029692D01*
X159118336Y-83029692D02*
X158832622Y-83029692D01*
X158832622Y-83029692D02*
X158718336Y-82972550D01*
X158718336Y-82972550D02*
X158661193Y-82915407D01*
D10*
X69683333Y-105769580D02*
X69635714Y-105817200D01*
X69635714Y-105817200D02*
X69492857Y-105864819D01*
X69492857Y-105864819D02*
X69397619Y-105864819D01*
X69397619Y-105864819D02*
X69254762Y-105817200D01*
X69254762Y-105817200D02*
X69159524Y-105721961D01*
X69159524Y-105721961D02*
X69111905Y-105626723D01*
X69111905Y-105626723D02*
X69064286Y-105436247D01*
X69064286Y-105436247D02*
X69064286Y-105293390D01*
X69064286Y-105293390D02*
X69111905Y-105102914D01*
X69111905Y-105102914D02*
X69159524Y-105007676D01*
X69159524Y-105007676D02*
X69254762Y-104912438D01*
X69254762Y-104912438D02*
X69397619Y-104864819D01*
X69397619Y-104864819D02*
X69492857Y-104864819D01*
X69492857Y-104864819D02*
X69635714Y-104912438D01*
X69635714Y-104912438D02*
X69683333Y-104960057D01*
X70540476Y-105198152D02*
X70540476Y-105864819D01*
X70302381Y-104817200D02*
X70064286Y-105531485D01*
X70064286Y-105531485D02*
X70683333Y-105531485D01*
X155408333Y-87244819D02*
X155075000Y-86768628D01*
X154836905Y-87244819D02*
X154836905Y-86244819D01*
X154836905Y-86244819D02*
X155217857Y-86244819D01*
X155217857Y-86244819D02*
X155313095Y-86292438D01*
X155313095Y-86292438D02*
X155360714Y-86340057D01*
X155360714Y-86340057D02*
X155408333Y-86435295D01*
X155408333Y-86435295D02*
X155408333Y-86578152D01*
X155408333Y-86578152D02*
X155360714Y-86673390D01*
X155360714Y-86673390D02*
X155313095Y-86721009D01*
X155313095Y-86721009D02*
X155217857Y-86768628D01*
X155217857Y-86768628D02*
X154836905Y-86768628D01*
X155789286Y-86340057D02*
X155836905Y-86292438D01*
X155836905Y-86292438D02*
X155932143Y-86244819D01*
X155932143Y-86244819D02*
X156170238Y-86244819D01*
X156170238Y-86244819D02*
X156265476Y-86292438D01*
X156265476Y-86292438D02*
X156313095Y-86340057D01*
X156313095Y-86340057D02*
X156360714Y-86435295D01*
X156360714Y-86435295D02*
X156360714Y-86530533D01*
X156360714Y-86530533D02*
X156313095Y-86673390D01*
X156313095Y-86673390D02*
X155741667Y-87244819D01*
X155741667Y-87244819D02*
X156360714Y-87244819D01*
X155643333Y-109329819D02*
X155310000Y-108853628D01*
X155071905Y-109329819D02*
X155071905Y-108329819D01*
X155071905Y-108329819D02*
X155452857Y-108329819D01*
X155452857Y-108329819D02*
X155548095Y-108377438D01*
X155548095Y-108377438D02*
X155595714Y-108425057D01*
X155595714Y-108425057D02*
X155643333Y-108520295D01*
X155643333Y-108520295D02*
X155643333Y-108663152D01*
X155643333Y-108663152D02*
X155595714Y-108758390D01*
X155595714Y-108758390D02*
X155548095Y-108806009D01*
X155548095Y-108806009D02*
X155452857Y-108853628D01*
X155452857Y-108853628D02*
X155071905Y-108853628D01*
X156595714Y-109329819D02*
X156024286Y-109329819D01*
X156310000Y-109329819D02*
X156310000Y-108329819D01*
X156310000Y-108329819D02*
X156214762Y-108472676D01*
X156214762Y-108472676D02*
X156119524Y-108567914D01*
X156119524Y-108567914D02*
X156024286Y-108615533D01*
X81753199Y-58384673D02*
X82207189Y-57493667D01*
X82207189Y-57493667D02*
X82419334Y-57601760D01*
X82419334Y-57601760D02*
X82525002Y-57709044D01*
X82525002Y-57709044D02*
X82566622Y-57837139D01*
X82566622Y-57837139D02*
X82565814Y-57943616D01*
X82565814Y-57943616D02*
X82521768Y-58134950D01*
X82521768Y-58134950D02*
X82456913Y-58262236D01*
X82456913Y-58262236D02*
X82328009Y-58410333D01*
X82328009Y-58410333D02*
X82242343Y-58473573D01*
X82242343Y-58473573D02*
X82114248Y-58515193D01*
X82114248Y-58515193D02*
X81965343Y-58492766D01*
X81965343Y-58492766D02*
X81753199Y-58384673D01*
X83110923Y-59076468D02*
X82601776Y-58817045D01*
X82856350Y-58946757D02*
X83310340Y-58055750D01*
X83310340Y-58055750D02*
X83160627Y-58139800D01*
X83160627Y-58139800D02*
X83032532Y-58181420D01*
X83032532Y-58181420D02*
X82926055Y-58180612D01*
X86871777Y-60577457D02*
X87325768Y-59686450D01*
X87380924Y-60836880D02*
X87258487Y-60133166D01*
X87834914Y-59945874D02*
X87066344Y-60195597D01*
X94279819Y-68071904D02*
X95089342Y-68071904D01*
X95089342Y-68071904D02*
X95184580Y-68024285D01*
X95184580Y-68024285D02*
X95232200Y-67976666D01*
X95232200Y-67976666D02*
X95279819Y-67881428D01*
X95279819Y-67881428D02*
X95279819Y-67690952D01*
X95279819Y-67690952D02*
X95232200Y-67595714D01*
X95232200Y-67595714D02*
X95184580Y-67548095D01*
X95184580Y-67548095D02*
X95089342Y-67500476D01*
X95089342Y-67500476D02*
X94279819Y-67500476D01*
X94279819Y-67119523D02*
X94279819Y-66500476D01*
X94279819Y-66500476D02*
X94660771Y-66833809D01*
X94660771Y-66833809D02*
X94660771Y-66690952D01*
X94660771Y-66690952D02*
X94708390Y-66595714D01*
X94708390Y-66595714D02*
X94756009Y-66548095D01*
X94756009Y-66548095D02*
X94851247Y-66500476D01*
X94851247Y-66500476D02*
X95089342Y-66500476D01*
X95089342Y-66500476D02*
X95184580Y-66548095D01*
X95184580Y-66548095D02*
X95232200Y-66595714D01*
X95232200Y-66595714D02*
X95279819Y-66690952D01*
X95279819Y-66690952D02*
X95279819Y-66976666D01*
X95279819Y-66976666D02*
X95232200Y-67071904D01*
X95232200Y-67071904D02*
X95184580Y-67119523D01*
X161398095Y-94909819D02*
X161398095Y-95719342D01*
X161398095Y-95719342D02*
X161445714Y-95814580D01*
X161445714Y-95814580D02*
X161493333Y-95862200D01*
X161493333Y-95862200D02*
X161588571Y-95909819D01*
X161588571Y-95909819D02*
X161779047Y-95909819D01*
X161779047Y-95909819D02*
X161874285Y-95862200D01*
X161874285Y-95862200D02*
X161921904Y-95814580D01*
X161921904Y-95814580D02*
X161969523Y-95719342D01*
X161969523Y-95719342D02*
X161969523Y-94909819D01*
X162921904Y-94909819D02*
X162445714Y-94909819D01*
X162445714Y-94909819D02*
X162398095Y-95386009D01*
X162398095Y-95386009D02*
X162445714Y-95338390D01*
X162445714Y-95338390D02*
X162540952Y-95290771D01*
X162540952Y-95290771D02*
X162779047Y-95290771D01*
X162779047Y-95290771D02*
X162874285Y-95338390D01*
X162874285Y-95338390D02*
X162921904Y-95386009D01*
X162921904Y-95386009D02*
X162969523Y-95481247D01*
X162969523Y-95481247D02*
X162969523Y-95719342D01*
X162969523Y-95719342D02*
X162921904Y-95814580D01*
X162921904Y-95814580D02*
X162874285Y-95862200D01*
X162874285Y-95862200D02*
X162779047Y-95909819D01*
X162779047Y-95909819D02*
X162540952Y-95909819D01*
X162540952Y-95909819D02*
X162445714Y-95862200D01*
X162445714Y-95862200D02*
X162398095Y-95814580D01*
X161398095Y-63544819D02*
X161398095Y-64354342D01*
X161398095Y-64354342D02*
X161445714Y-64449580D01*
X161445714Y-64449580D02*
X161493333Y-64497200D01*
X161493333Y-64497200D02*
X161588571Y-64544819D01*
X161588571Y-64544819D02*
X161779047Y-64544819D01*
X161779047Y-64544819D02*
X161874285Y-64497200D01*
X161874285Y-64497200D02*
X161921904Y-64449580D01*
X161921904Y-64449580D02*
X161969523Y-64354342D01*
X161969523Y-64354342D02*
X161969523Y-63544819D01*
X162874285Y-63544819D02*
X162683809Y-63544819D01*
X162683809Y-63544819D02*
X162588571Y-63592438D01*
X162588571Y-63592438D02*
X162540952Y-63640057D01*
X162540952Y-63640057D02*
X162445714Y-63782914D01*
X162445714Y-63782914D02*
X162398095Y-63973390D01*
X162398095Y-63973390D02*
X162398095Y-64354342D01*
X162398095Y-64354342D02*
X162445714Y-64449580D01*
X162445714Y-64449580D02*
X162493333Y-64497200D01*
X162493333Y-64497200D02*
X162588571Y-64544819D01*
X162588571Y-64544819D02*
X162779047Y-64544819D01*
X162779047Y-64544819D02*
X162874285Y-64497200D01*
X162874285Y-64497200D02*
X162921904Y-64449580D01*
X162921904Y-64449580D02*
X162969523Y-64354342D01*
X162969523Y-64354342D02*
X162969523Y-64116247D01*
X162969523Y-64116247D02*
X162921904Y-64021009D01*
X162921904Y-64021009D02*
X162874285Y-63973390D01*
X162874285Y-63973390D02*
X162779047Y-63925771D01*
X162779047Y-63925771D02*
X162588571Y-63925771D01*
X162588571Y-63925771D02*
X162493333Y-63973390D01*
X162493333Y-63973390D02*
X162445714Y-64021009D01*
X162445714Y-64021009D02*
X162398095Y-64116247D01*
X100998095Y-73989819D02*
X100998095Y-74799342D01*
X100998095Y-74799342D02*
X101045714Y-74894580D01*
X101045714Y-74894580D02*
X101093333Y-74942200D01*
X101093333Y-74942200D02*
X101188571Y-74989819D01*
X101188571Y-74989819D02*
X101379047Y-74989819D01*
X101379047Y-74989819D02*
X101474285Y-74942200D01*
X101474285Y-74942200D02*
X101521904Y-74894580D01*
X101521904Y-74894580D02*
X101569523Y-74799342D01*
X101569523Y-74799342D02*
X101569523Y-73989819D01*
X102569523Y-74989819D02*
X101998095Y-74989819D01*
X102283809Y-74989819D02*
X102283809Y-73989819D01*
X102283809Y-73989819D02*
X102188571Y-74132676D01*
X102188571Y-74132676D02*
X102093333Y-74227914D01*
X102093333Y-74227914D02*
X101998095Y-74275533D01*
X100998095Y-93039819D02*
X100998095Y-93849342D01*
X100998095Y-93849342D02*
X101045714Y-93944580D01*
X101045714Y-93944580D02*
X101093333Y-93992200D01*
X101093333Y-93992200D02*
X101188571Y-94039819D01*
X101188571Y-94039819D02*
X101379047Y-94039819D01*
X101379047Y-94039819D02*
X101474285Y-93992200D01*
X101474285Y-93992200D02*
X101521904Y-93944580D01*
X101521904Y-93944580D02*
X101569523Y-93849342D01*
X101569523Y-93849342D02*
X101569523Y-93039819D01*
X101998095Y-93135057D02*
X102045714Y-93087438D01*
X102045714Y-93087438D02*
X102140952Y-93039819D01*
X102140952Y-93039819D02*
X102379047Y-93039819D01*
X102379047Y-93039819D02*
X102474285Y-93087438D01*
X102474285Y-93087438D02*
X102521904Y-93135057D01*
X102521904Y-93135057D02*
X102569523Y-93230295D01*
X102569523Y-93230295D02*
X102569523Y-93325533D01*
X102569523Y-93325533D02*
X102521904Y-93468390D01*
X102521904Y-93468390D02*
X101950476Y-94039819D01*
X101950476Y-94039819D02*
X102569523Y-94039819D01*
X93069580Y-85891666D02*
X93117200Y-85939285D01*
X93117200Y-85939285D02*
X93164819Y-86082142D01*
X93164819Y-86082142D02*
X93164819Y-86177380D01*
X93164819Y-86177380D02*
X93117200Y-86320237D01*
X93117200Y-86320237D02*
X93021961Y-86415475D01*
X93021961Y-86415475D02*
X92926723Y-86463094D01*
X92926723Y-86463094D02*
X92736247Y-86510713D01*
X92736247Y-86510713D02*
X92593390Y-86510713D01*
X92593390Y-86510713D02*
X92402914Y-86463094D01*
X92402914Y-86463094D02*
X92307676Y-86415475D01*
X92307676Y-86415475D02*
X92212438Y-86320237D01*
X92212438Y-86320237D02*
X92164819Y-86177380D01*
X92164819Y-86177380D02*
X92164819Y-86082142D01*
X92164819Y-86082142D02*
X92212438Y-85939285D01*
X92212438Y-85939285D02*
X92260057Y-85891666D01*
X92260057Y-85510713D02*
X92212438Y-85463094D01*
X92212438Y-85463094D02*
X92164819Y-85367856D01*
X92164819Y-85367856D02*
X92164819Y-85129761D01*
X92164819Y-85129761D02*
X92212438Y-85034523D01*
X92212438Y-85034523D02*
X92260057Y-84986904D01*
X92260057Y-84986904D02*
X92355295Y-84939285D01*
X92355295Y-84939285D02*
X92450533Y-84939285D01*
X92450533Y-84939285D02*
X92593390Y-84986904D01*
X92593390Y-84986904D02*
X93164819Y-85558332D01*
X93164819Y-85558332D02*
X93164819Y-84939285D01*
X93379580Y-105536666D02*
X93427200Y-105584285D01*
X93427200Y-105584285D02*
X93474819Y-105727142D01*
X93474819Y-105727142D02*
X93474819Y-105822380D01*
X93474819Y-105822380D02*
X93427200Y-105965237D01*
X93427200Y-105965237D02*
X93331961Y-106060475D01*
X93331961Y-106060475D02*
X93236723Y-106108094D01*
X93236723Y-106108094D02*
X93046247Y-106155713D01*
X93046247Y-106155713D02*
X92903390Y-106155713D01*
X92903390Y-106155713D02*
X92712914Y-106108094D01*
X92712914Y-106108094D02*
X92617676Y-106060475D01*
X92617676Y-106060475D02*
X92522438Y-105965237D01*
X92522438Y-105965237D02*
X92474819Y-105822380D01*
X92474819Y-105822380D02*
X92474819Y-105727142D01*
X92474819Y-105727142D02*
X92522438Y-105584285D01*
X92522438Y-105584285D02*
X92570057Y-105536666D01*
X92474819Y-105203332D02*
X92474819Y-104584285D01*
X92474819Y-104584285D02*
X92855771Y-104917618D01*
X92855771Y-104917618D02*
X92855771Y-104774761D01*
X92855771Y-104774761D02*
X92903390Y-104679523D01*
X92903390Y-104679523D02*
X92951009Y-104631904D01*
X92951009Y-104631904D02*
X93046247Y-104584285D01*
X93046247Y-104584285D02*
X93284342Y-104584285D01*
X93284342Y-104584285D02*
X93379580Y-104631904D01*
X93379580Y-104631904D02*
X93427200Y-104679523D01*
X93427200Y-104679523D02*
X93474819Y-104774761D01*
X93474819Y-104774761D02*
X93474819Y-105060475D01*
X93474819Y-105060475D02*
X93427200Y-105155713D01*
X93427200Y-105155713D02*
X93379580Y-105203332D01*
X166793333Y-93324580D02*
X166745714Y-93372200D01*
X166745714Y-93372200D02*
X166602857Y-93419819D01*
X166602857Y-93419819D02*
X166507619Y-93419819D01*
X166507619Y-93419819D02*
X166364762Y-93372200D01*
X166364762Y-93372200D02*
X166269524Y-93276961D01*
X166269524Y-93276961D02*
X166221905Y-93181723D01*
X166221905Y-93181723D02*
X166174286Y-92991247D01*
X166174286Y-92991247D02*
X166174286Y-92848390D01*
X166174286Y-92848390D02*
X166221905Y-92657914D01*
X166221905Y-92657914D02*
X166269524Y-92562676D01*
X166269524Y-92562676D02*
X166364762Y-92467438D01*
X166364762Y-92467438D02*
X166507619Y-92419819D01*
X166507619Y-92419819D02*
X166602857Y-92419819D01*
X166602857Y-92419819D02*
X166745714Y-92467438D01*
X166745714Y-92467438D02*
X166793333Y-92515057D01*
X167126667Y-92419819D02*
X167793333Y-92419819D01*
X167793333Y-92419819D02*
X167364762Y-93419819D01*
X156678333Y-61954580D02*
X156630714Y-62002200D01*
X156630714Y-62002200D02*
X156487857Y-62049819D01*
X156487857Y-62049819D02*
X156392619Y-62049819D01*
X156392619Y-62049819D02*
X156249762Y-62002200D01*
X156249762Y-62002200D02*
X156154524Y-61906961D01*
X156154524Y-61906961D02*
X156106905Y-61811723D01*
X156106905Y-61811723D02*
X156059286Y-61621247D01*
X156059286Y-61621247D02*
X156059286Y-61478390D01*
X156059286Y-61478390D02*
X156106905Y-61287914D01*
X156106905Y-61287914D02*
X156154524Y-61192676D01*
X156154524Y-61192676D02*
X156249762Y-61097438D01*
X156249762Y-61097438D02*
X156392619Y-61049819D01*
X156392619Y-61049819D02*
X156487857Y-61049819D01*
X156487857Y-61049819D02*
X156630714Y-61097438D01*
X156630714Y-61097438D02*
X156678333Y-61145057D01*
X157249762Y-61478390D02*
X157154524Y-61430771D01*
X157154524Y-61430771D02*
X157106905Y-61383152D01*
X157106905Y-61383152D02*
X157059286Y-61287914D01*
X157059286Y-61287914D02*
X157059286Y-61240295D01*
X157059286Y-61240295D02*
X157106905Y-61145057D01*
X157106905Y-61145057D02*
X157154524Y-61097438D01*
X157154524Y-61097438D02*
X157249762Y-61049819D01*
X157249762Y-61049819D02*
X157440238Y-61049819D01*
X157440238Y-61049819D02*
X157535476Y-61097438D01*
X157535476Y-61097438D02*
X157583095Y-61145057D01*
X157583095Y-61145057D02*
X157630714Y-61240295D01*
X157630714Y-61240295D02*
X157630714Y-61287914D01*
X157630714Y-61287914D02*
X157583095Y-61383152D01*
X157583095Y-61383152D02*
X157535476Y-61430771D01*
X157535476Y-61430771D02*
X157440238Y-61478390D01*
X157440238Y-61478390D02*
X157249762Y-61478390D01*
X157249762Y-61478390D02*
X157154524Y-61526009D01*
X157154524Y-61526009D02*
X157106905Y-61573628D01*
X157106905Y-61573628D02*
X157059286Y-61668866D01*
X157059286Y-61668866D02*
X157059286Y-61859342D01*
X157059286Y-61859342D02*
X157106905Y-61954580D01*
X157106905Y-61954580D02*
X157154524Y-62002200D01*
X157154524Y-62002200D02*
X157249762Y-62049819D01*
X157249762Y-62049819D02*
X157440238Y-62049819D01*
X157440238Y-62049819D02*
X157535476Y-62002200D01*
X157535476Y-62002200D02*
X157583095Y-61954580D01*
X157583095Y-61954580D02*
X157630714Y-61859342D01*
X157630714Y-61859342D02*
X157630714Y-61668866D01*
X157630714Y-61668866D02*
X157583095Y-61573628D01*
X157583095Y-61573628D02*
X157535476Y-61526009D01*
X157535476Y-61526009D02*
X157440238Y-61478390D01*
X115239580Y-98591666D02*
X115287200Y-98639285D01*
X115287200Y-98639285D02*
X115334819Y-98782142D01*
X115334819Y-98782142D02*
X115334819Y-98877380D01*
X115334819Y-98877380D02*
X115287200Y-99020237D01*
X115287200Y-99020237D02*
X115191961Y-99115475D01*
X115191961Y-99115475D02*
X115096723Y-99163094D01*
X115096723Y-99163094D02*
X114906247Y-99210713D01*
X114906247Y-99210713D02*
X114763390Y-99210713D01*
X114763390Y-99210713D02*
X114572914Y-99163094D01*
X114572914Y-99163094D02*
X114477676Y-99115475D01*
X114477676Y-99115475D02*
X114382438Y-99020237D01*
X114382438Y-99020237D02*
X114334819Y-98877380D01*
X114334819Y-98877380D02*
X114334819Y-98782142D01*
X114334819Y-98782142D02*
X114382438Y-98639285D01*
X114382438Y-98639285D02*
X114430057Y-98591666D01*
X114334819Y-97734523D02*
X114334819Y-97924999D01*
X114334819Y-97924999D02*
X114382438Y-98020237D01*
X114382438Y-98020237D02*
X114430057Y-98067856D01*
X114430057Y-98067856D02*
X114572914Y-98163094D01*
X114572914Y-98163094D02*
X114763390Y-98210713D01*
X114763390Y-98210713D02*
X115144342Y-98210713D01*
X115144342Y-98210713D02*
X115239580Y-98163094D01*
X115239580Y-98163094D02*
X115287200Y-98115475D01*
X115287200Y-98115475D02*
X115334819Y-98020237D01*
X115334819Y-98020237D02*
X115334819Y-97829761D01*
X115334819Y-97829761D02*
X115287200Y-97734523D01*
X115287200Y-97734523D02*
X115239580Y-97686904D01*
X115239580Y-97686904D02*
X115144342Y-97639285D01*
X115144342Y-97639285D02*
X114906247Y-97639285D01*
X114906247Y-97639285D02*
X114811009Y-97686904D01*
X114811009Y-97686904D02*
X114763390Y-97734523D01*
X114763390Y-97734523D02*
X114715771Y-97829761D01*
X114715771Y-97829761D02*
X114715771Y-98020237D01*
X114715771Y-98020237D02*
X114763390Y-98115475D01*
X114763390Y-98115475D02*
X114811009Y-98163094D01*
X114811009Y-98163094D02*
X114906247Y-98210713D01*
X115239580Y-82081666D02*
X115287200Y-82129285D01*
X115287200Y-82129285D02*
X115334819Y-82272142D01*
X115334819Y-82272142D02*
X115334819Y-82367380D01*
X115334819Y-82367380D02*
X115287200Y-82510237D01*
X115287200Y-82510237D02*
X115191961Y-82605475D01*
X115191961Y-82605475D02*
X115096723Y-82653094D01*
X115096723Y-82653094D02*
X114906247Y-82700713D01*
X114906247Y-82700713D02*
X114763390Y-82700713D01*
X114763390Y-82700713D02*
X114572914Y-82653094D01*
X114572914Y-82653094D02*
X114477676Y-82605475D01*
X114477676Y-82605475D02*
X114382438Y-82510237D01*
X114382438Y-82510237D02*
X114334819Y-82367380D01*
X114334819Y-82367380D02*
X114334819Y-82272142D01*
X114334819Y-82272142D02*
X114382438Y-82129285D01*
X114382438Y-82129285D02*
X114430057Y-82081666D01*
X114334819Y-81176904D02*
X114334819Y-81653094D01*
X114334819Y-81653094D02*
X114811009Y-81700713D01*
X114811009Y-81700713D02*
X114763390Y-81653094D01*
X114763390Y-81653094D02*
X114715771Y-81557856D01*
X114715771Y-81557856D02*
X114715771Y-81319761D01*
X114715771Y-81319761D02*
X114763390Y-81224523D01*
X114763390Y-81224523D02*
X114811009Y-81176904D01*
X114811009Y-81176904D02*
X114906247Y-81129285D01*
X114906247Y-81129285D02*
X115144342Y-81129285D01*
X115144342Y-81129285D02*
X115239580Y-81176904D01*
X115239580Y-81176904D02*
X115287200Y-81224523D01*
X115287200Y-81224523D02*
X115334819Y-81319761D01*
X115334819Y-81319761D02*
X115334819Y-81557856D01*
X115334819Y-81557856D02*
X115287200Y-81653094D01*
X115287200Y-81653094D02*
X115239580Y-81700713D01*
X86719580Y-67436666D02*
X86767200Y-67484285D01*
X86767200Y-67484285D02*
X86814819Y-67627142D01*
X86814819Y-67627142D02*
X86814819Y-67722380D01*
X86814819Y-67722380D02*
X86767200Y-67865237D01*
X86767200Y-67865237D02*
X86671961Y-67960475D01*
X86671961Y-67960475D02*
X86576723Y-68008094D01*
X86576723Y-68008094D02*
X86386247Y-68055713D01*
X86386247Y-68055713D02*
X86243390Y-68055713D01*
X86243390Y-68055713D02*
X86052914Y-68008094D01*
X86052914Y-68008094D02*
X85957676Y-67960475D01*
X85957676Y-67960475D02*
X85862438Y-67865237D01*
X85862438Y-67865237D02*
X85814819Y-67722380D01*
X85814819Y-67722380D02*
X85814819Y-67627142D01*
X85814819Y-67627142D02*
X85862438Y-67484285D01*
X85862438Y-67484285D02*
X85910057Y-67436666D01*
X86814819Y-66484285D02*
X86814819Y-67055713D01*
X86814819Y-66769999D02*
X85814819Y-66769999D01*
X85814819Y-66769999D02*
X85957676Y-66865237D01*
X85957676Y-66865237D02*
X86052914Y-66960475D01*
X86052914Y-66960475D02*
X86100533Y-67055713D01*
X124044819Y-101020476D02*
X123568628Y-101353809D01*
X124044819Y-101591904D02*
X123044819Y-101591904D01*
X123044819Y-101591904D02*
X123044819Y-101210952D01*
X123044819Y-101210952D02*
X123092438Y-101115714D01*
X123092438Y-101115714D02*
X123140057Y-101068095D01*
X123140057Y-101068095D02*
X123235295Y-101020476D01*
X123235295Y-101020476D02*
X123378152Y-101020476D01*
X123378152Y-101020476D02*
X123473390Y-101068095D01*
X123473390Y-101068095D02*
X123521009Y-101115714D01*
X123521009Y-101115714D02*
X123568628Y-101210952D01*
X123568628Y-101210952D02*
X123568628Y-101591904D01*
X124044819Y-100591904D02*
X123044819Y-100591904D01*
X123044819Y-100591904D02*
X124044819Y-100020476D01*
X124044819Y-100020476D02*
X123044819Y-100020476D01*
X123044819Y-99639523D02*
X123044819Y-99020476D01*
X123044819Y-99020476D02*
X123425771Y-99353809D01*
X123425771Y-99353809D02*
X123425771Y-99210952D01*
X123425771Y-99210952D02*
X123473390Y-99115714D01*
X123473390Y-99115714D02*
X123521009Y-99068095D01*
X123521009Y-99068095D02*
X123616247Y-99020476D01*
X123616247Y-99020476D02*
X123854342Y-99020476D01*
X123854342Y-99020476D02*
X123949580Y-99068095D01*
X123949580Y-99068095D02*
X123997200Y-99115714D01*
X123997200Y-99115714D02*
X124044819Y-99210952D01*
X124044819Y-99210952D02*
X124044819Y-99496666D01*
X124044819Y-99496666D02*
X123997200Y-99591904D01*
X123997200Y-99591904D02*
X123949580Y-99639523D01*
X85544819Y-79430476D02*
X85068628Y-79763809D01*
X85544819Y-80001904D02*
X84544819Y-80001904D01*
X84544819Y-80001904D02*
X84544819Y-79620952D01*
X84544819Y-79620952D02*
X84592438Y-79525714D01*
X84592438Y-79525714D02*
X84640057Y-79478095D01*
X84640057Y-79478095D02*
X84735295Y-79430476D01*
X84735295Y-79430476D02*
X84878152Y-79430476D01*
X84878152Y-79430476D02*
X84973390Y-79478095D01*
X84973390Y-79478095D02*
X85021009Y-79525714D01*
X85021009Y-79525714D02*
X85068628Y-79620952D01*
X85068628Y-79620952D02*
X85068628Y-80001904D01*
X85544819Y-79001904D02*
X84544819Y-79001904D01*
X84544819Y-79001904D02*
X85544819Y-78430476D01*
X85544819Y-78430476D02*
X84544819Y-78430476D01*
X85544819Y-77430476D02*
X85544819Y-78001904D01*
X85544819Y-77716190D02*
X84544819Y-77716190D01*
X84544819Y-77716190D02*
X84687676Y-77811428D01*
X84687676Y-77811428D02*
X84782914Y-77906666D01*
X84782914Y-77906666D02*
X84830533Y-78001904D01*
X84134819Y-102290476D02*
X83658628Y-102623809D01*
X84134819Y-102861904D02*
X83134819Y-102861904D01*
X83134819Y-102861904D02*
X83134819Y-102480952D01*
X83134819Y-102480952D02*
X83182438Y-102385714D01*
X83182438Y-102385714D02*
X83230057Y-102338095D01*
X83230057Y-102338095D02*
X83325295Y-102290476D01*
X83325295Y-102290476D02*
X83468152Y-102290476D01*
X83468152Y-102290476D02*
X83563390Y-102338095D01*
X83563390Y-102338095D02*
X83611009Y-102385714D01*
X83611009Y-102385714D02*
X83658628Y-102480952D01*
X83658628Y-102480952D02*
X83658628Y-102861904D01*
X84134819Y-101861904D02*
X83134819Y-101861904D01*
X83134819Y-101861904D02*
X84134819Y-101290476D01*
X84134819Y-101290476D02*
X83134819Y-101290476D01*
X83230057Y-100861904D02*
X83182438Y-100814285D01*
X83182438Y-100814285D02*
X83134819Y-100719047D01*
X83134819Y-100719047D02*
X83134819Y-100480952D01*
X83134819Y-100480952D02*
X83182438Y-100385714D01*
X83182438Y-100385714D02*
X83230057Y-100338095D01*
X83230057Y-100338095D02*
X83325295Y-100290476D01*
X83325295Y-100290476D02*
X83420533Y-100290476D01*
X83420533Y-100290476D02*
X83563390Y-100338095D01*
X83563390Y-100338095D02*
X84134819Y-100909523D01*
X84134819Y-100909523D02*
X84134819Y-100290476D01*
X139938095Y-90454819D02*
X139938095Y-91264342D01*
X139938095Y-91264342D02*
X139985714Y-91359580D01*
X139985714Y-91359580D02*
X140033333Y-91407200D01*
X140033333Y-91407200D02*
X140128571Y-91454819D01*
X140128571Y-91454819D02*
X140319047Y-91454819D01*
X140319047Y-91454819D02*
X140414285Y-91407200D01*
X140414285Y-91407200D02*
X140461904Y-91359580D01*
X140461904Y-91359580D02*
X140509523Y-91264342D01*
X140509523Y-91264342D02*
X140509523Y-90454819D01*
X141414285Y-90788152D02*
X141414285Y-91454819D01*
X141176190Y-90407200D02*
X140938095Y-91121485D01*
X140938095Y-91121485D02*
X141557142Y-91121485D01*
X76806666Y-94094819D02*
X76806666Y-94809104D01*
X76806666Y-94809104D02*
X76759047Y-94951961D01*
X76759047Y-94951961D02*
X76663809Y-95047200D01*
X76663809Y-95047200D02*
X76520952Y-95094819D01*
X76520952Y-95094819D02*
X76425714Y-95094819D01*
X77806666Y-95094819D02*
X77235238Y-95094819D01*
X77520952Y-95094819D02*
X77520952Y-94094819D01*
X77520952Y-94094819D02*
X77425714Y-94237676D01*
X77425714Y-94237676D02*
X77330476Y-94332914D01*
X77330476Y-94332914D02*
X77235238Y-94380533D01*
X78759819Y-64873094D02*
X77759819Y-64873094D01*
X77759819Y-64873094D02*
X77759819Y-64634999D01*
X77759819Y-64634999D02*
X77807438Y-64492142D01*
X77807438Y-64492142D02*
X77902676Y-64396904D01*
X77902676Y-64396904D02*
X77997914Y-64349285D01*
X77997914Y-64349285D02*
X78188390Y-64301666D01*
X78188390Y-64301666D02*
X78331247Y-64301666D01*
X78331247Y-64301666D02*
X78521723Y-64349285D01*
X78521723Y-64349285D02*
X78616961Y-64396904D01*
X78616961Y-64396904D02*
X78712200Y-64492142D01*
X78712200Y-64492142D02*
X78759819Y-64634999D01*
X78759819Y-64634999D02*
X78759819Y-64873094D01*
X77855057Y-63920713D02*
X77807438Y-63873094D01*
X77807438Y-63873094D02*
X77759819Y-63777856D01*
X77759819Y-63777856D02*
X77759819Y-63539761D01*
X77759819Y-63539761D02*
X77807438Y-63444523D01*
X77807438Y-63444523D02*
X77855057Y-63396904D01*
X77855057Y-63396904D02*
X77950295Y-63349285D01*
X77950295Y-63349285D02*
X78045533Y-63349285D01*
X78045533Y-63349285D02*
X78188390Y-63396904D01*
X78188390Y-63396904D02*
X78759819Y-63968332D01*
X78759819Y-63968332D02*
X78759819Y-63349285D01*
D13*
X75559775Y-103075000D02*
X75059775Y-103075000D01*
X75309775Y-103325000D02*
X75309775Y-102825000D01*
X72755000Y-104180000D02*
X72755000Y-102640000D01*
X72755000Y-100560000D02*
X72755000Y-99020000D01*
X72715000Y-104180000D02*
X72715000Y-102640000D01*
X72715000Y-100560000D02*
X72715000Y-99020000D01*
X72675000Y-104179000D02*
X72675000Y-102640000D01*
X72675000Y-100560000D02*
X72675000Y-99021000D01*
X72635000Y-104177000D02*
X72635000Y-102640000D01*
X72635000Y-100560000D02*
X72635000Y-99023000D01*
X72595000Y-104175000D02*
X72595000Y-102640000D01*
X72595000Y-100560000D02*
X72595000Y-99025000D01*
X72555000Y-104172000D02*
X72555000Y-102640000D01*
X72555000Y-100560000D02*
X72555000Y-99028000D01*
X72515000Y-104169000D02*
X72515000Y-102640000D01*
X72515000Y-100560000D02*
X72515000Y-99031000D01*
X72475000Y-104165000D02*
X72475000Y-102640000D01*
X72475000Y-100560000D02*
X72475000Y-99035000D01*
X72435000Y-104160000D02*
X72435000Y-102640000D01*
X72435000Y-100560000D02*
X72435000Y-99040000D01*
X72395000Y-104155000D02*
X72395000Y-102640000D01*
X72395000Y-100560000D02*
X72395000Y-99045000D01*
X72355000Y-104149000D02*
X72355000Y-102640000D01*
X72355000Y-100560000D02*
X72355000Y-99051000D01*
X72315000Y-104143000D02*
X72315000Y-102640000D01*
X72315000Y-100560000D02*
X72315000Y-99057000D01*
X72275000Y-104136000D02*
X72275000Y-102640000D01*
X72275000Y-100560000D02*
X72275000Y-99064000D01*
X72235000Y-104128000D02*
X72235000Y-102640000D01*
X72235000Y-100560000D02*
X72235000Y-99072000D01*
X72195000Y-104119000D02*
X72195000Y-102640000D01*
X72195000Y-100560000D02*
X72195000Y-99081000D01*
X72155000Y-104110000D02*
X72155000Y-102640000D01*
X72155000Y-100560000D02*
X72155000Y-99090000D01*
X72115000Y-104101000D02*
X72115000Y-102640000D01*
X72115000Y-100560000D02*
X72115000Y-99099000D01*
X72075000Y-104090000D02*
X72075000Y-102640000D01*
X72075000Y-100560000D02*
X72075000Y-99110000D01*
X72035000Y-104079000D02*
X72035000Y-102640000D01*
X72035000Y-100560000D02*
X72035000Y-99121000D01*
X71995000Y-104067000D02*
X71995000Y-102640000D01*
X71995000Y-100560000D02*
X71995000Y-99133000D01*
X71955000Y-104055000D02*
X71955000Y-102640000D01*
X71955000Y-100560000D02*
X71955000Y-99145000D01*
X71915000Y-104042000D02*
X71915000Y-102640000D01*
X71915000Y-100560000D02*
X71915000Y-99158000D01*
X71875000Y-104028000D02*
X71875000Y-102640000D01*
X71875000Y-100560000D02*
X71875000Y-99172000D01*
X71835000Y-104013000D02*
X71835000Y-102640000D01*
X71835000Y-100560000D02*
X71835000Y-99187000D01*
X71795000Y-103998000D02*
X71795000Y-102640000D01*
X71795000Y-100560000D02*
X71795000Y-99202000D01*
X71755000Y-103982000D02*
X71755000Y-102640000D01*
X71755000Y-100560000D02*
X71755000Y-99218000D01*
X71715000Y-103965000D02*
X71715000Y-102640000D01*
X71715000Y-100560000D02*
X71715000Y-99235000D01*
X71675000Y-103947000D02*
X71675000Y-102640000D01*
X71675000Y-100560000D02*
X71675000Y-99253000D01*
X71635000Y-103929000D02*
X71635000Y-102640000D01*
X71635000Y-100560000D02*
X71635000Y-99271000D01*
X71595000Y-103909000D02*
X71595000Y-102640000D01*
X71595000Y-100560000D02*
X71595000Y-99291000D01*
X71555000Y-103889000D02*
X71555000Y-102640000D01*
X71555000Y-100560000D02*
X71555000Y-99311000D01*
X71515000Y-103868000D02*
X71515000Y-102640000D01*
X71515000Y-100560000D02*
X71515000Y-99332000D01*
X71475000Y-103846000D02*
X71475000Y-102640000D01*
X71475000Y-100560000D02*
X71475000Y-99354000D01*
X71435000Y-103823000D02*
X71435000Y-102640000D01*
X71435000Y-100560000D02*
X71435000Y-99377000D01*
X71395000Y-103799000D02*
X71395000Y-102640000D01*
X71395000Y-100560000D02*
X71395000Y-99401000D01*
X71355000Y-103775000D02*
X71355000Y-102640000D01*
X71355000Y-100560000D02*
X71355000Y-99425000D01*
X71315000Y-103749000D02*
X71315000Y-102640000D01*
X71315000Y-100560000D02*
X71315000Y-99451000D01*
X71275000Y-103722000D02*
X71275000Y-102640000D01*
X71275000Y-100560000D02*
X71275000Y-99478000D01*
X71235000Y-103694000D02*
X71235000Y-102640000D01*
X71235000Y-100560000D02*
X71235000Y-99506000D01*
X71195000Y-103665000D02*
X71195000Y-102640000D01*
X71195000Y-100560000D02*
X71195000Y-99535000D01*
X71155000Y-103635000D02*
X71155000Y-102640000D01*
X71155000Y-100560000D02*
X71155000Y-99565000D01*
X71115000Y-103603000D02*
X71115000Y-102640000D01*
X71115000Y-100560000D02*
X71115000Y-99597000D01*
X71075000Y-103570000D02*
X71075000Y-102640000D01*
X71075000Y-100560000D02*
X71075000Y-99630000D01*
X71035000Y-103536000D02*
X71035000Y-102640000D01*
X71035000Y-100560000D02*
X71035000Y-99664000D01*
X70995000Y-103501000D02*
X70995000Y-102640000D01*
X70995000Y-100560000D02*
X70995000Y-99699000D01*
X70955000Y-103464000D02*
X70955000Y-102640000D01*
X70955000Y-100560000D02*
X70955000Y-99736000D01*
X70915000Y-103425000D02*
X70915000Y-102640000D01*
X70915000Y-100560000D02*
X70915000Y-99775000D01*
X70875000Y-103385000D02*
X70875000Y-102640000D01*
X70875000Y-100560000D02*
X70875000Y-99815000D01*
X70835000Y-103343000D02*
X70835000Y-102640000D01*
X70835000Y-100560000D02*
X70835000Y-99857000D01*
X70795000Y-103299000D02*
X70795000Y-102640000D01*
X70795000Y-100560000D02*
X70795000Y-99901000D01*
X70755000Y-103252000D02*
X70755000Y-102640000D01*
X70755000Y-100560000D02*
X70755000Y-99948000D01*
X70715000Y-103204000D02*
X70715000Y-99996000D01*
X70675000Y-103153000D02*
X70675000Y-100047000D01*
X70635000Y-103099000D02*
X70635000Y-100101000D01*
X70595000Y-103043000D02*
X70595000Y-100157000D01*
X70555000Y-102983000D02*
X70555000Y-100217000D01*
X70515000Y-102919000D02*
X70515000Y-100281000D01*
X70475000Y-102851000D02*
X70475000Y-100349000D01*
X70435000Y-102777000D02*
X70435000Y-100423000D01*
X70395000Y-102698000D02*
X70395000Y-100502000D01*
X70355000Y-102611000D02*
X70355000Y-100589000D01*
X70315000Y-102514000D02*
X70315000Y-100686000D01*
X70275000Y-102405000D02*
X70275000Y-100795000D01*
X70235000Y-102277000D02*
X70235000Y-100923000D01*
X70195000Y-102117000D02*
X70195000Y-101083000D01*
X70155000Y-101883000D02*
X70155000Y-101317000D01*
X75375000Y-101600000D02*
G75*
G02*
X70135000Y-101600000I-2620000J0D01*
G01*
X70135000Y-101600000D02*
G75*
G02*
X75375000Y-101600000I2620000J0D01*
G01*
X164930000Y-89120000D02*
X164160000Y-89120000D01*
X156850000Y-89120000D02*
X157620000Y-89120000D01*
X164160000Y-90490000D02*
X157620000Y-90490000D01*
X157620000Y-87750000D01*
X164160000Y-87750000D01*
X164160000Y-90490000D01*
X164930000Y-111415000D02*
X164160000Y-111415000D01*
X156850000Y-111415000D02*
X157620000Y-111415000D01*
X164160000Y-112785000D02*
X157620000Y-112785000D01*
X157620000Y-110045000D01*
X164160000Y-110045000D01*
X164160000Y-112785000D01*
X87071051Y-57811653D02*
X86162225Y-57348582D01*
X84799873Y-58304249D02*
X86134606Y-55684690D01*
X84692953Y-58249771D02*
X86027685Y-55630211D01*
X84586032Y-58195292D02*
X85920764Y-55575733D01*
X80406322Y-54415804D02*
X81315149Y-54878874D01*
X86829591Y-56038803D02*
X85494859Y-58658362D01*
X80647783Y-56188654D01*
X81982515Y-53569095D01*
X86829591Y-56038803D01*
X95825000Y-69560000D02*
X121345000Y-69560000D01*
X121345000Y-69560000D02*
X121345000Y-65060000D01*
X95825000Y-68310000D02*
X95825000Y-69560000D01*
X95825000Y-65060000D02*
X95825000Y-66310000D01*
X121345000Y-65060000D02*
X95825000Y-65060000D01*
X95825000Y-66310000D02*
G75*
G02*
X95825000Y-68310000I0J-1000000D01*
G01*
X158300000Y-96295000D02*
X158300000Y-96550000D01*
X158300000Y-106815000D02*
X158300000Y-106560000D01*
X162160000Y-96295000D02*
X158300000Y-96295000D01*
X162160000Y-96295000D02*
X166020000Y-96295000D01*
X162160000Y-106815000D02*
X158300000Y-106815000D01*
X162160000Y-106815000D02*
X166020000Y-106815000D01*
X166020000Y-96295000D02*
X166020000Y-96550000D01*
X166020000Y-106815000D02*
X166020000Y-106560000D01*
X157447500Y-96550000D02*
X157107500Y-96080000D01*
X157787500Y-96080000D01*
X157447500Y-96550000D01*
G36*
X157447500Y-96550000D02*
G01*
X157107500Y-96080000D01*
X157787500Y-96080000D01*
X157447500Y-96550000D01*
G37*
X158300000Y-64930000D02*
X158300000Y-65185000D01*
X158300000Y-75450000D02*
X158300000Y-75195000D01*
X162160000Y-64930000D02*
X158300000Y-64930000D01*
X162160000Y-64930000D02*
X166020000Y-64930000D01*
X162160000Y-75450000D02*
X158300000Y-75450000D01*
X162160000Y-75450000D02*
X166020000Y-75450000D01*
X166020000Y-64930000D02*
X166020000Y-65185000D01*
X166020000Y-75450000D02*
X166020000Y-75195000D01*
X157447500Y-65185000D02*
X157107500Y-64715000D01*
X157787500Y-64715000D01*
X157447500Y-65185000D01*
G36*
X157447500Y-65185000D02*
G01*
X157107500Y-64715000D01*
X157787500Y-64715000D01*
X157447500Y-65185000D01*
G37*
X97900000Y-75375000D02*
X97900000Y-75640000D01*
X97900000Y-90995000D02*
X97900000Y-90730000D01*
X101760000Y-75375000D02*
X97900000Y-75375000D01*
X101760000Y-75375000D02*
X105620000Y-75375000D01*
X101760000Y-90995000D02*
X97900000Y-90995000D01*
X101760000Y-90995000D02*
X105620000Y-90995000D01*
X105620000Y-75375000D02*
X105620000Y-75640000D01*
X105620000Y-90995000D02*
X105620000Y-90730000D01*
X97047500Y-75640000D02*
X96707500Y-75170000D01*
X97387500Y-75170000D01*
X97047500Y-75640000D01*
G36*
X97047500Y-75640000D02*
G01*
X96707500Y-75170000D01*
X97387500Y-75170000D01*
X97047500Y-75640000D01*
G37*
X97900000Y-94425000D02*
X97900000Y-94690000D01*
X97900000Y-110045000D02*
X97900000Y-109780000D01*
X101760000Y-94425000D02*
X97900000Y-94425000D01*
X101760000Y-94425000D02*
X105620000Y-94425000D01*
X101760000Y-110045000D02*
X97900000Y-110045000D01*
X101760000Y-110045000D02*
X105620000Y-110045000D01*
X105620000Y-94425000D02*
X105620000Y-94690000D01*
X105620000Y-110045000D02*
X105620000Y-109780000D01*
X97047500Y-94690000D02*
X96707500Y-94220000D01*
X97387500Y-94220000D01*
X97047500Y-94690000D01*
G36*
X97047500Y-94690000D02*
G01*
X96707500Y-94220000D01*
X97387500Y-94220000D01*
X97047500Y-94690000D01*
G37*
X94430000Y-88095000D02*
X94430000Y-93435000D01*
X93736000Y-88095000D02*
X94430000Y-88095000D01*
X90990000Y-88095000D02*
X91684000Y-88095000D01*
X94430000Y-93435000D02*
X93736000Y-93435000D01*
X91684000Y-93435000D02*
X90990000Y-93435000D01*
X90990000Y-93435000D02*
X90990000Y-88095000D01*
X91890000Y-102700000D02*
X91890000Y-108040000D01*
X91196000Y-102700000D02*
X91890000Y-102700000D01*
X88450000Y-102700000D02*
X89144000Y-102700000D01*
X91890000Y-108040000D02*
X91196000Y-108040000D01*
X89144000Y-108040000D02*
X88450000Y-108040000D01*
X88450000Y-108040000D02*
X88450000Y-102700000D01*
X159255000Y-91245000D02*
X164595000Y-91245000D01*
X159255000Y-91939000D02*
X159255000Y-91245000D01*
X159255000Y-94685000D02*
X159255000Y-93991000D01*
X164595000Y-91245000D02*
X164595000Y-91939000D01*
X164595000Y-93991000D02*
X164595000Y-94685000D01*
X164595000Y-94685000D02*
X159255000Y-94685000D01*
X159255000Y-59875000D02*
X164595000Y-59875000D01*
X159255000Y-60569000D02*
X159255000Y-59875000D01*
X159255000Y-63315000D02*
X159255000Y-62621000D01*
X164595000Y-59875000D02*
X164595000Y-60569000D01*
X164595000Y-62621000D02*
X164595000Y-63315000D01*
X164595000Y-63315000D02*
X159255000Y-63315000D01*
X113750000Y-95755000D02*
X113750000Y-101095000D01*
X113056000Y-95755000D02*
X113750000Y-95755000D01*
X110310000Y-95755000D02*
X111004000Y-95755000D01*
X113750000Y-101095000D02*
X113056000Y-101095000D01*
X111004000Y-101095000D02*
X110310000Y-101095000D01*
X110310000Y-101095000D02*
X110310000Y-95755000D01*
X113750000Y-79245000D02*
X113750000Y-84585000D01*
X113056000Y-79245000D02*
X113750000Y-79245000D01*
X110310000Y-79245000D02*
X111004000Y-79245000D01*
X113750000Y-84585000D02*
X113056000Y-84585000D01*
X111004000Y-84585000D02*
X110310000Y-84585000D01*
X110310000Y-84585000D02*
X110310000Y-79245000D01*
X91255000Y-64600000D02*
X91255000Y-69940000D01*
X90561000Y-64600000D02*
X91255000Y-64600000D01*
X87815000Y-64600000D02*
X88509000Y-64600000D01*
X91255000Y-69940000D02*
X90561000Y-69940000D01*
X88509000Y-69940000D02*
X87815000Y-69940000D01*
X87815000Y-69940000D02*
X87815000Y-64600000D01*
X122500000Y-87550000D02*
X119880000Y-87550000D01*
X119880000Y-87550000D02*
X119880000Y-110570000D01*
X122500000Y-90170000D02*
X119880000Y-90170000D01*
X122500000Y-110570000D02*
X122500000Y-87550000D01*
X119880000Y-110570000D02*
X122500000Y-110570000D01*
X88940000Y-74850000D02*
X86320000Y-74850000D01*
X86320000Y-74850000D02*
X86320000Y-97870000D01*
X88940000Y-77470000D02*
X86320000Y-77470000D01*
X88940000Y-97870000D02*
X88940000Y-74850000D01*
X86320000Y-97870000D02*
X88940000Y-97870000D01*
X82590000Y-88820000D02*
X79970000Y-88820000D01*
X79970000Y-88820000D02*
X79970000Y-111840000D01*
X82590000Y-91440000D02*
X79970000Y-91440000D01*
X82590000Y-111840000D02*
X82590000Y-88820000D01*
X79970000Y-111840000D02*
X82590000Y-111840000D01*
X130200000Y-62500000D02*
X137000000Y-62500000D01*
X144400000Y-62500000D02*
X151200000Y-62500000D01*
X148193000Y-110833000D02*
X148193000Y-113500000D01*
X151200000Y-110833000D02*
X148193000Y-110833000D01*
X151200000Y-113500000D02*
X130200000Y-113500000D01*
X70270000Y-92390000D02*
X70270000Y-51690000D01*
X70270000Y-94990000D02*
X70270000Y-93660000D01*
X71600000Y-94990000D02*
X70270000Y-94990000D01*
X72870000Y-92390000D02*
X70270000Y-92390000D01*
X72870000Y-94990000D02*
X72870000Y-92390000D01*
X75470000Y-51690000D02*
X70270000Y-51690000D01*
X75470000Y-94990000D02*
X72870000Y-94990000D01*
X75470000Y-94990000D02*
X75470000Y-51690000D01*
X76655000Y-56175000D02*
X76655000Y-61685000D01*
X79955000Y-56175000D02*
X76655000Y-56175000D01*
X79955000Y-56175000D02*
X79955000Y-61685000D01*
%LPC*%
D14*
X73755000Y-101600000D03*
D15*
X71755000Y-101600000D03*
X165970000Y-89120000D03*
X155810000Y-89120000D03*
X165970000Y-111415000D03*
X155810000Y-111415000D03*
D16*
X88265000Y-58420000D03*
D17*
X79212374Y-53807457D03*
D18*
X97155000Y-71120000D03*
D19*
X99695000Y-71120000D03*
X102235000Y-71120000D03*
X104775000Y-71120000D03*
X107315000Y-71120000D03*
X109855000Y-71120000D03*
X112395000Y-71120000D03*
X114935000Y-71120000D03*
X117475000Y-71120000D03*
X120015000Y-71120000D03*
X120015000Y-63500000D03*
X117475000Y-63500000D03*
X114935000Y-63500000D03*
X112395000Y-63500000D03*
X109855000Y-63500000D03*
X107315000Y-63500000D03*
X104775000Y-63500000D03*
X102235000Y-63500000D03*
X99695000Y-63500000D03*
X97155000Y-63500000D03*
D20*
X157510000Y-97110000D03*
X157510000Y-98380000D03*
X157510000Y-99650000D03*
X157510000Y-100920000D03*
X157510000Y-102190000D03*
X157510000Y-103460000D03*
X157510000Y-104730000D03*
X157510000Y-106000000D03*
X166810000Y-106000000D03*
X166810000Y-104730000D03*
X166810000Y-103460000D03*
X166810000Y-102190000D03*
X166810000Y-100920000D03*
X166810000Y-99650000D03*
X166810000Y-98380000D03*
X166810000Y-97110000D03*
X157510000Y-65745000D03*
X157510000Y-67015000D03*
X157510000Y-68285000D03*
X157510000Y-69555000D03*
X157510000Y-70825000D03*
X157510000Y-72095000D03*
X157510000Y-73365000D03*
X157510000Y-74635000D03*
X166810000Y-74635000D03*
X166810000Y-73365000D03*
X166810000Y-72095000D03*
X166810000Y-70825000D03*
X166810000Y-69555000D03*
X166810000Y-68285000D03*
X166810000Y-67015000D03*
X166810000Y-65745000D03*
X97110000Y-76200000D03*
X97110000Y-77470000D03*
X97110000Y-78740000D03*
X97110000Y-80010000D03*
X97110000Y-81280000D03*
X97110000Y-82550000D03*
X97110000Y-83820000D03*
X97110000Y-85090000D03*
X97110000Y-86360000D03*
X97110000Y-87630000D03*
X97110000Y-88900000D03*
X97110000Y-90170000D03*
X106410000Y-90170000D03*
X106410000Y-88900000D03*
X106410000Y-87630000D03*
X106410000Y-86360000D03*
X106410000Y-85090000D03*
X106410000Y-83820000D03*
X106410000Y-82550000D03*
X106410000Y-81280000D03*
X106410000Y-80010000D03*
X106410000Y-78740000D03*
X106410000Y-77470000D03*
X106410000Y-76200000D03*
X97110000Y-95250000D03*
X97110000Y-96520000D03*
X97110000Y-97790000D03*
X97110000Y-99060000D03*
X97110000Y-100330000D03*
X97110000Y-101600000D03*
X97110000Y-102870000D03*
X97110000Y-104140000D03*
X97110000Y-105410000D03*
X97110000Y-106680000D03*
X97110000Y-107950000D03*
X97110000Y-109220000D03*
X106410000Y-109220000D03*
X106410000Y-107950000D03*
X106410000Y-106680000D03*
X106410000Y-105410000D03*
X106410000Y-104140000D03*
X106410000Y-102870000D03*
X106410000Y-101600000D03*
X106410000Y-100330000D03*
X106410000Y-99060000D03*
X106410000Y-97790000D03*
X106410000Y-96520000D03*
X106410000Y-95250000D03*
D15*
X92710000Y-88265000D03*
X92710000Y-93265000D03*
X90170000Y-102870000D03*
X90170000Y-107870000D03*
X159425000Y-92965000D03*
X164425000Y-92965000D03*
X159425000Y-61595000D03*
X164425000Y-61595000D03*
X112030000Y-95925000D03*
X112030000Y-100925000D03*
X112030000Y-79415000D03*
X112030000Y-84415000D03*
X89535000Y-64770000D03*
X89535000Y-69770000D03*
D21*
X121190000Y-88900000D03*
D15*
X121190000Y-91440000D03*
X121190000Y-93980000D03*
X121190000Y-96520000D03*
X121190000Y-99060000D03*
X121190000Y-101600000D03*
X121190000Y-104140000D03*
X121190000Y-106680000D03*
X121190000Y-109220000D03*
D21*
X87630000Y-76200000D03*
D15*
X87630000Y-78740000D03*
X87630000Y-81280000D03*
X87630000Y-83820000D03*
X87630000Y-86360000D03*
X87630000Y-88900000D03*
X87630000Y-91440000D03*
X87630000Y-93980000D03*
X87630000Y-96520000D03*
D21*
X81280000Y-90170000D03*
D15*
X81280000Y-92710000D03*
X81280000Y-95250000D03*
X81280000Y-97790000D03*
X81280000Y-100330000D03*
X81280000Y-102870000D03*
X81280000Y-105410000D03*
X81280000Y-107950000D03*
X81280000Y-110490000D03*
D22*
X143425000Y-112000000D03*
D23*
X143125000Y-108970000D03*
X138275000Y-108970000D03*
D22*
X137975000Y-112000000D03*
D24*
X150490000Y-112130000D03*
X150490000Y-109590000D03*
X150490000Y-107050000D03*
X150490000Y-104510000D03*
X150490000Y-101970000D03*
X150490000Y-99430000D03*
X150490000Y-96890000D03*
X150490000Y-94350000D03*
X150490000Y-91810000D03*
X150490000Y-89270000D03*
X150490000Y-86730000D03*
X150490000Y-84190000D03*
X150490000Y-81650000D03*
X150490000Y-79110000D03*
X150490000Y-76570000D03*
X150490000Y-74030000D03*
X150490000Y-71490000D03*
X150490000Y-68950000D03*
X150490000Y-66410000D03*
X150490000Y-63870000D03*
X130910000Y-63870000D03*
X130910000Y-66410000D03*
X130910000Y-68950000D03*
X130910000Y-71490000D03*
X130910000Y-74030000D03*
X130910000Y-76570000D03*
X130910000Y-79110000D03*
X130910000Y-81650000D03*
X130910000Y-84190000D03*
X130910000Y-86730000D03*
X130910000Y-89270000D03*
X130910000Y-91810000D03*
X130910000Y-94350000D03*
X130910000Y-96890000D03*
X130910000Y-99430000D03*
X130910000Y-101970000D03*
X130910000Y-104510000D03*
X130910000Y-107050000D03*
X130910000Y-109590000D03*
X130910000Y-112130000D03*
D25*
X71600000Y-93660000D03*
D26*
X74140000Y-93660000D03*
X71600000Y-91120000D03*
X74140000Y-91120000D03*
X71600000Y-88580000D03*
X74140000Y-88580000D03*
X71600000Y-86040000D03*
X74140000Y-86040000D03*
X71600000Y-83500000D03*
X74140000Y-83500000D03*
X71600000Y-80960000D03*
X74140000Y-80960000D03*
X71600000Y-78420000D03*
X74140000Y-78420000D03*
X71600000Y-75880000D03*
X74140000Y-75880000D03*
X71600000Y-73340000D03*
X74140000Y-73340000D03*
X71600000Y-70800000D03*
X74140000Y-70800000D03*
X71600000Y-68260000D03*
X74140000Y-68260000D03*
X71600000Y-65720000D03*
X74140000Y-65720000D03*
X71600000Y-63180000D03*
X74140000Y-63180000D03*
X71600000Y-60640000D03*
X74140000Y-60640000D03*
X71600000Y-58100000D03*
X74140000Y-58100000D03*
X71600000Y-55560000D03*
X74140000Y-55560000D03*
X71600000Y-53020000D03*
X74140000Y-53020000D03*
D27*
X78305000Y-57685000D03*
X78305000Y-61685000D03*
D28*
X162400000Y-82232500D03*
%LPD*%
M02*
