%TF.GenerationSoftware,KiCad,Pcbnew,9.0.3*%
%TF.CreationDate,2025-07-22T08:59:43+01:00*%
%TF.ProjectId,megaflash,6d656761-666c-4617-9368-2e6b69636164,rev?*%
%TF.SameCoordinates,Original*%
%TF.FileFunction,Drillmap*%
%TF.FilePolarity,Positive*%
%FSLAX45Y45*%
G04 Gerber Fmt 4.5, Leading zero omitted, Abs format (unit mm)*
G04 Created by KiCad (PCBNEW 9.0.3) date 2025-07-22 08:59:43*
%MOMM*%
%LPD*%
G01*
G04 APERTURE LIST*
%ADD10C,0.100000*%
%ADD11C,0.200000*%
%ADD12C,0.110000*%
G04 APERTURE END LIST*
D10*
X6750000Y-11400000D02*
X16950000Y-11400000D01*
X9700000Y-5900000D02*
X7900000Y-5000000D01*
X6750000Y-5000000D02*
X7900000Y-5000000D01*
X16950000Y-5900000D02*
X9700000Y-5900000D01*
X6750000Y-5000000D02*
X6750000Y-11400000D01*
X16950000Y-11400000D02*
X16950000Y-5900000D01*
D11*
D10*
X7795500Y-7287500D02*
X7825500Y-7317500D01*
X7825500Y-7287500D02*
X7795500Y-7317500D01*
X7922500Y-7033500D02*
X7952500Y-7063500D01*
X7952500Y-7033500D02*
X7922500Y-7063500D01*
X7922500Y-7224000D02*
X7952500Y-7254000D01*
X7952500Y-7224000D02*
X7922500Y-7254000D01*
X8049500Y-7097000D02*
X8079500Y-7127000D01*
X8079500Y-7097000D02*
X8049500Y-7127000D01*
X8176500Y-7160500D02*
X8206500Y-7190500D01*
X8206500Y-7160500D02*
X8176500Y-7190500D01*
X8176500Y-7478000D02*
X8206500Y-7508000D01*
X8206500Y-7478000D02*
X8176500Y-7508000D01*
X8347500Y-6164000D02*
X8377500Y-6194000D01*
X8377500Y-6164000D02*
X8347500Y-6194000D01*
X8367000Y-6462000D02*
X8397000Y-6492000D01*
X8397000Y-6462000D02*
X8367000Y-6492000D01*
X8367000Y-9383000D02*
X8397000Y-9413000D01*
X8397000Y-9383000D02*
X8367000Y-9413000D01*
X8430500Y-6716000D02*
X8460500Y-6746000D01*
X8460500Y-6716000D02*
X8430500Y-6746000D01*
X8430500Y-9256000D02*
X8460500Y-9286000D01*
X8460500Y-9256000D02*
X8430500Y-9286000D01*
X8494000Y-9764000D02*
X8524000Y-9794000D01*
X8524000Y-9764000D02*
X8494000Y-9794000D01*
X9065500Y-9700500D02*
X9095500Y-9730500D01*
X9095500Y-9700500D02*
X9065500Y-9730500D01*
X9129000Y-8113000D02*
X9159000Y-8143000D01*
X9159000Y-8113000D02*
X9129000Y-8143000D01*
X9192500Y-6208000D02*
X9222500Y-6238000D01*
X9222500Y-6208000D02*
X9192500Y-6238000D01*
X9256000Y-7605000D02*
X9286000Y-7635000D01*
X9286000Y-7605000D02*
X9256000Y-7635000D01*
X9279000Y-6452500D02*
X9309000Y-6482500D01*
X9309000Y-6452500D02*
X9279000Y-6482500D01*
X9383000Y-8240000D02*
X9413000Y-8270000D01*
X9413000Y-8240000D02*
X9383000Y-8270000D01*
X9446500Y-9637000D02*
X9476500Y-9667000D01*
X9476500Y-9637000D02*
X9446500Y-9667000D01*
X9954500Y-8748000D02*
X9984500Y-8778000D01*
X9984500Y-8748000D02*
X9954500Y-8778000D01*
X10081500Y-9002000D02*
X10111500Y-9032000D01*
X10111500Y-9002000D02*
X10081500Y-9032000D01*
X10335500Y-8367000D02*
X10365500Y-8397000D01*
X10365500Y-8367000D02*
X10335500Y-8397000D01*
X10399000Y-6017500D02*
X10429000Y-6047500D01*
X10429000Y-6017500D02*
X10399000Y-6047500D01*
X10399000Y-8494000D02*
X10429000Y-8524000D01*
X10429000Y-8494000D02*
X10399000Y-8524000D01*
X10970500Y-7605000D02*
X11000500Y-7635000D01*
X11000500Y-7605000D02*
X10970500Y-7635000D01*
X10970500Y-8875000D02*
X11000500Y-8905000D01*
X11000500Y-8875000D02*
X10970500Y-8905000D01*
X11510250Y-9605250D02*
X11540250Y-9635250D01*
X11540250Y-9605250D02*
X11510250Y-9635250D01*
X11605500Y-9891000D02*
X11635500Y-9921000D01*
X11635500Y-9891000D02*
X11605500Y-9921000D01*
X11668999Y-10018001D02*
X11698999Y-10048001D01*
X11698999Y-10018001D02*
X11668999Y-10048001D01*
X11669000Y-9129000D02*
X11699000Y-9159000D01*
X11699000Y-9129000D02*
X11669000Y-9159000D01*
X11732500Y-9383000D02*
X11762500Y-9413000D01*
X11762500Y-9383000D02*
X11732500Y-9413000D01*
X11732500Y-10145000D02*
X11762500Y-10175000D01*
X11762500Y-10145000D02*
X11732500Y-10175000D01*
X11796000Y-7859000D02*
X11826000Y-7889000D01*
X11826000Y-7859000D02*
X11796000Y-7889000D01*
X11796000Y-8748000D02*
X11826000Y-8778000D01*
X11826000Y-8748000D02*
X11796000Y-8778000D01*
X11796000Y-9637000D02*
X11826000Y-9667000D01*
X11826000Y-9637000D02*
X11796000Y-9667000D01*
X11859500Y-6081000D02*
X11889500Y-6111000D01*
X11889500Y-6081000D02*
X11859500Y-6111000D01*
X12177000Y-6144500D02*
X12207000Y-6174500D01*
X12207000Y-6144500D02*
X12177000Y-6174500D01*
X12177000Y-8430500D02*
X12207000Y-8460500D01*
X12207000Y-8430500D02*
X12177000Y-8460500D01*
X12431000Y-6398500D02*
X12461000Y-6428500D01*
X12461000Y-6398500D02*
X12431000Y-6428500D01*
X12558000Y-6652500D02*
X12588000Y-6682500D01*
X12588000Y-6652500D02*
X12558000Y-6682500D01*
X12558000Y-9383000D02*
X12588000Y-9413000D01*
X12588000Y-9383000D02*
X12558000Y-9413000D01*
X12685000Y-7224000D02*
X12715000Y-7254000D01*
X12715000Y-7224000D02*
X12685000Y-7254000D01*
X12685000Y-9129000D02*
X12715000Y-9159000D01*
X12715000Y-9129000D02*
X12685000Y-9159000D01*
X12812000Y-7414500D02*
X12842000Y-7444500D01*
X12842000Y-7414500D02*
X12812000Y-7444500D01*
X12812000Y-8557500D02*
X12842000Y-8587500D01*
X12842000Y-8557500D02*
X12812000Y-8587500D01*
X13320000Y-7478000D02*
X13350000Y-7508000D01*
X13350000Y-7478000D02*
X13320000Y-7508000D01*
X13637500Y-8176500D02*
X13667500Y-8206500D01*
X13667500Y-8176500D02*
X13637500Y-8206500D01*
X13637500Y-9446500D02*
X13667500Y-9476500D01*
X13667500Y-9446500D02*
X13637500Y-9476500D01*
X13637500Y-10690000D02*
X13667500Y-10720000D01*
X13667500Y-10690000D02*
X13637500Y-10720000D01*
X13701000Y-7757000D02*
X13731000Y-7787000D01*
X13731000Y-7757000D02*
X13701000Y-7787000D01*
X13764500Y-7922500D02*
X13794500Y-7952500D01*
X13794500Y-7922500D02*
X13764500Y-7952500D01*
X13764500Y-8773000D02*
X13794500Y-8803000D01*
X13794500Y-8773000D02*
X13764500Y-8803000D01*
X13955000Y-8289000D02*
X13985000Y-8319000D01*
X13985000Y-8289000D02*
X13955000Y-8319000D01*
X13955000Y-8938500D02*
X13985000Y-8968500D01*
X13985000Y-8938500D02*
X13955000Y-8968500D01*
X14209000Y-8035000D02*
X14239000Y-8065000D01*
X14239000Y-8035000D02*
X14209000Y-8065000D01*
X14209000Y-9192500D02*
X14239000Y-9222500D01*
X14239000Y-9192500D02*
X14209000Y-9222500D01*
X14463000Y-7668500D02*
X14493000Y-7698500D01*
X14493000Y-7668500D02*
X14463000Y-7698500D01*
X14526500Y-10575000D02*
X14556500Y-10605000D01*
X14556500Y-10575000D02*
X14526500Y-10605000D01*
X14590000Y-10321000D02*
X14620000Y-10351000D01*
X14620000Y-10321000D02*
X14590000Y-10351000D01*
X14717000Y-7414500D02*
X14747000Y-7444500D01*
X14747000Y-7414500D02*
X14717000Y-7444500D01*
X14717000Y-10067000D02*
X14747000Y-10097000D01*
X14747000Y-10067000D02*
X14717000Y-10097000D01*
X14780500Y-7527000D02*
X14810500Y-7557000D01*
X14810500Y-7527000D02*
X14780500Y-7557000D01*
X15272560Y-6610060D02*
X15302560Y-6640060D01*
X15302560Y-6610060D02*
X15272560Y-6640060D01*
X15288500Y-10436000D02*
X15318500Y-10466000D01*
X15318500Y-10436000D02*
X15288500Y-10466000D01*
X15352000Y-6398500D02*
X15382000Y-6428500D01*
X15382000Y-6398500D02*
X15352000Y-6428500D01*
X15352000Y-8029059D02*
X15382000Y-8059059D01*
X15382000Y-8029059D02*
X15352000Y-8059059D01*
X15352000Y-9928000D02*
X15382000Y-9958000D01*
X15382000Y-9928000D02*
X15352000Y-9958000D01*
X15352000Y-10182000D02*
X15382000Y-10212000D01*
X15382000Y-10182000D02*
X15352000Y-10212000D01*
X15453000Y-6880500D02*
X15483000Y-6910500D01*
X15483000Y-6880500D02*
X15453000Y-6910500D01*
X15475499Y-7001860D02*
X15505499Y-7031860D01*
X15505499Y-7001860D02*
X15475499Y-7031860D01*
X15523100Y-9614874D02*
X15553100Y-9644874D01*
X15553100Y-9614874D02*
X15523100Y-9644874D01*
X15542500Y-10458000D02*
X15572500Y-10488000D01*
X15572500Y-10458000D02*
X15542500Y-10488000D01*
X15552000Y-7402619D02*
X15582000Y-7432619D01*
X15582000Y-7402619D02*
X15552000Y-7432619D01*
X15600250Y-9420000D02*
X15630250Y-9450000D01*
X15630250Y-9420000D02*
X15600250Y-9450000D01*
X15931000Y-9954500D02*
X15961000Y-9984500D01*
X15961000Y-9954500D02*
X15931000Y-9984500D01*
X15951000Y-10598000D02*
X15981000Y-10628000D01*
X15981000Y-10598000D02*
X15951000Y-10628000D01*
X16177500Y-9891000D02*
X16207500Y-9921000D01*
X16207500Y-9891000D02*
X16177500Y-9921000D01*
X16304500Y-9823000D02*
X16334500Y-9853000D01*
X16334500Y-9823000D02*
X16304500Y-9853000D01*
X16336250Y-7319250D02*
X16366250Y-7349250D01*
X16366250Y-7319250D02*
X16336250Y-7349250D01*
X8167500Y-7620000D02*
G75*
G02*
X8127500Y-7620000I-20000J0D01*
G01*
X8127500Y-7620000D02*
G75*
G02*
X8167500Y-7620000I20000J0D01*
G01*
X8529000Y-10287000D02*
G75*
G02*
X8489000Y-10287000I-20000J0D01*
G01*
X8489000Y-10287000D02*
G75*
G02*
X8529000Y-10287000I20000J0D01*
G01*
X8656000Y-7029000D02*
G75*
G02*
X8616000Y-7029000I-20000J0D01*
G01*
X8616000Y-7029000D02*
G75*
G02*
X8656000Y-7029000I20000J0D01*
G01*
X9354500Y-10922000D02*
G75*
G02*
X9314500Y-10922000I-20000J0D01*
G01*
X9314500Y-10922000D02*
G75*
G02*
X9354500Y-10922000I20000J0D01*
G01*
X9608500Y-9271000D02*
G75*
G02*
X9568500Y-9271000I-20000J0D01*
G01*
X9568500Y-9271000D02*
G75*
G02*
X9608500Y-9271000I20000J0D01*
G01*
X10116500Y-7874000D02*
G75*
G02*
X10076500Y-7874000I-20000J0D01*
G01*
X10076500Y-7874000D02*
G75*
G02*
X10116500Y-7874000I20000J0D01*
G01*
X10116500Y-8128000D02*
G75*
G02*
X10076500Y-8128000I-20000J0D01*
G01*
X10076500Y-8128000D02*
G75*
G02*
X10116500Y-8128000I20000J0D01*
G01*
X11132500Y-11112500D02*
G75*
G02*
X11092500Y-11112500I-20000J0D01*
G01*
X11092500Y-11112500D02*
G75*
G02*
X11132500Y-11112500I20000J0D01*
G01*
X11196000Y-9017000D02*
G75*
G02*
X11156000Y-9017000I-20000J0D01*
G01*
X11156000Y-9017000D02*
G75*
G02*
X11196000Y-9017000I20000J0D01*
G01*
X11430500Y-8890000D02*
G75*
G02*
X11390500Y-8890000I-20000J0D01*
G01*
X11390500Y-8890000D02*
G75*
G02*
X11430500Y-8890000I20000J0D01*
G01*
X12021500Y-8445500D02*
G75*
G02*
X11981500Y-8445500I-20000J0D01*
G01*
X11981500Y-8445500D02*
G75*
G02*
X12021500Y-8445500I20000J0D01*
G01*
X12656500Y-10033000D02*
G75*
G02*
X12616500Y-10033000I-20000J0D01*
G01*
X12616500Y-10033000D02*
G75*
G02*
X12656500Y-10033000I20000J0D01*
G01*
X14738902Y-10191534D02*
G75*
G02*
X14698902Y-10191534I-20000J0D01*
G01*
X14698902Y-10191534D02*
G75*
G02*
X14738902Y-10191534I20000J0D01*
G01*
X16022000Y-7175500D02*
G75*
G02*
X15982000Y-7175500I-20000J0D01*
G01*
X15982000Y-7175500D02*
G75*
G02*
X16022000Y-7175500I20000J0D01*
G01*
X16466500Y-10483000D02*
G75*
G02*
X16426500Y-10483000I-20000J0D01*
G01*
X16426500Y-10483000D02*
G75*
G02*
X16466500Y-10483000I20000J0D01*
G01*
X16466500Y-10922000D02*
G75*
G02*
X16426500Y-10922000I-20000J0D01*
G01*
X16426500Y-10922000D02*
G75*
G02*
X16466500Y-10922000I20000J0D01*
G01*
X7175500Y-10120000D02*
X7175500Y-10200000D01*
X7135500Y-10160000D02*
X7215500Y-10160000D01*
X7375500Y-10120000D02*
X7375500Y-10200000D01*
X7335500Y-10160000D02*
X7415500Y-10160000D01*
X8128000Y-8977000D02*
X8128000Y-9057000D01*
X8088000Y-9017000D02*
X8168000Y-9017000D01*
X8128000Y-9231000D02*
X8128000Y-9311000D01*
X8088000Y-9271000D02*
X8168000Y-9271000D01*
X8128000Y-9485000D02*
X8128000Y-9565000D01*
X8088000Y-9525000D02*
X8168000Y-9525000D01*
X8128000Y-9739000D02*
X8128000Y-9819000D01*
X8088000Y-9779000D02*
X8168000Y-9779000D01*
X8128000Y-9993000D02*
X8128000Y-10073000D01*
X8088000Y-10033000D02*
X8168000Y-10033000D01*
X8128000Y-10247000D02*
X8128000Y-10327000D01*
X8088000Y-10287000D02*
X8168000Y-10287000D01*
X8128000Y-10501000D02*
X8128000Y-10581000D01*
X8088000Y-10541000D02*
X8168000Y-10541000D01*
X8128000Y-10755000D02*
X8128000Y-10835000D01*
X8088000Y-10795000D02*
X8168000Y-10795000D01*
X8128000Y-11009000D02*
X8128000Y-11089000D01*
X8088000Y-11049000D02*
X8168000Y-11049000D01*
X8763000Y-7580000D02*
X8763000Y-7660000D01*
X8723000Y-7620000D02*
X8803000Y-7620000D01*
X8763000Y-7834000D02*
X8763000Y-7914000D01*
X8723000Y-7874000D02*
X8803000Y-7874000D01*
X8763000Y-8088000D02*
X8763000Y-8168000D01*
X8723000Y-8128000D02*
X8803000Y-8128000D01*
X8763000Y-8342000D02*
X8763000Y-8422000D01*
X8723000Y-8382000D02*
X8803000Y-8382000D01*
X8763000Y-8596000D02*
X8763000Y-8676000D01*
X8723000Y-8636000D02*
X8803000Y-8636000D01*
X8763000Y-8850000D02*
X8763000Y-8930000D01*
X8723000Y-8890000D02*
X8803000Y-8890000D01*
X8763000Y-9104000D02*
X8763000Y-9184000D01*
X8723000Y-9144000D02*
X8803000Y-9144000D01*
X8763000Y-9358000D02*
X8763000Y-9438000D01*
X8723000Y-9398000D02*
X8803000Y-9398000D01*
X8763000Y-9612000D02*
X8763000Y-9692000D01*
X8723000Y-9652000D02*
X8803000Y-9652000D01*
X8953500Y-6437000D02*
X8953500Y-6517000D01*
X8913500Y-6477000D02*
X8993500Y-6477000D01*
X8953500Y-6937000D02*
X8953500Y-7017000D01*
X8913500Y-6977000D02*
X8993500Y-6977000D01*
X9017000Y-10247000D02*
X9017000Y-10327000D01*
X8977000Y-10287000D02*
X9057000Y-10287000D01*
X9017000Y-10747000D02*
X9017000Y-10827000D01*
X8977000Y-10787000D02*
X9057000Y-10787000D01*
X9271000Y-8786500D02*
X9271000Y-8866500D01*
X9231000Y-8826500D02*
X9311000Y-8826500D01*
X9271000Y-9286500D02*
X9271000Y-9366500D01*
X9231000Y-9326500D02*
X9311000Y-9326500D01*
X9715500Y-6310000D02*
X9715500Y-6390000D01*
X9675500Y-6350000D02*
X9755500Y-6350000D01*
X9715500Y-7072000D02*
X9715500Y-7152000D01*
X9675500Y-7112000D02*
X9755500Y-7112000D01*
X9969500Y-6310000D02*
X9969500Y-6390000D01*
X9929500Y-6350000D02*
X10009500Y-6350000D01*
X9969500Y-7072000D02*
X9969500Y-7152000D01*
X9929500Y-7112000D02*
X10009500Y-7112000D01*
X10223500Y-6310000D02*
X10223500Y-6390000D01*
X10183500Y-6350000D02*
X10263500Y-6350000D01*
X10223500Y-7072000D02*
X10223500Y-7152000D01*
X10183500Y-7112000D02*
X10263500Y-7112000D01*
X10477500Y-6310000D02*
X10477500Y-6390000D01*
X10437500Y-6350000D02*
X10517500Y-6350000D01*
X10477500Y-7072000D02*
X10477500Y-7152000D01*
X10437500Y-7112000D02*
X10517500Y-7112000D01*
X10731500Y-6310000D02*
X10731500Y-6390000D01*
X10691500Y-6350000D02*
X10771500Y-6350000D01*
X10731500Y-7072000D02*
X10731500Y-7152000D01*
X10691500Y-7112000D02*
X10771500Y-7112000D01*
X10985500Y-6310000D02*
X10985500Y-6390000D01*
X10945500Y-6350000D02*
X11025500Y-6350000D01*
X10985500Y-7072000D02*
X10985500Y-7152000D01*
X10945500Y-7112000D02*
X11025500Y-7112000D01*
X11203000Y-7901500D02*
X11203000Y-7981500D01*
X11163000Y-7941500D02*
X11243000Y-7941500D01*
X11203000Y-8401500D02*
X11203000Y-8481500D01*
X11163000Y-8441500D02*
X11243000Y-8441500D01*
X11203000Y-9552500D02*
X11203000Y-9632500D01*
X11163000Y-9592500D02*
X11243000Y-9592500D01*
X11203000Y-10052500D02*
X11203000Y-10132500D01*
X11163000Y-10092500D02*
X11243000Y-10092500D01*
X11239500Y-6310000D02*
X11239500Y-6390000D01*
X11199500Y-6350000D02*
X11279500Y-6350000D01*
X11239500Y-7072000D02*
X11239500Y-7152000D01*
X11199500Y-7112000D02*
X11279500Y-7112000D01*
X11493500Y-6310000D02*
X11493500Y-6390000D01*
X11453500Y-6350000D02*
X11533500Y-6350000D01*
X11493500Y-7072000D02*
X11493500Y-7152000D01*
X11453500Y-7112000D02*
X11533500Y-7112000D01*
X11747500Y-6310000D02*
X11747500Y-6390000D01*
X11707500Y-6350000D02*
X11787500Y-6350000D01*
X11747500Y-7072000D02*
X11747500Y-7152000D01*
X11707500Y-7112000D02*
X11787500Y-7112000D01*
X12001500Y-6310000D02*
X12001500Y-6390000D01*
X11961500Y-6350000D02*
X12041500Y-6350000D01*
X12001500Y-7072000D02*
X12001500Y-7152000D01*
X11961500Y-7112000D02*
X12041500Y-7112000D01*
X12119000Y-8850000D02*
X12119000Y-8930000D01*
X12079000Y-8890000D02*
X12159000Y-8890000D01*
X12119000Y-9104000D02*
X12119000Y-9184000D01*
X12079000Y-9144000D02*
X12159000Y-9144000D01*
X12119000Y-9358000D02*
X12119000Y-9438000D01*
X12079000Y-9398000D02*
X12159000Y-9398000D01*
X12119000Y-9612000D02*
X12119000Y-9692000D01*
X12079000Y-9652000D02*
X12159000Y-9652000D01*
X12119000Y-9866000D02*
X12119000Y-9946000D01*
X12079000Y-9906000D02*
X12159000Y-9906000D01*
X12119000Y-10120000D02*
X12119000Y-10200000D01*
X12079000Y-10160000D02*
X12159000Y-10160000D01*
X12119000Y-10374000D02*
X12119000Y-10454000D01*
X12079000Y-10414000D02*
X12159000Y-10414000D01*
X12119000Y-10628000D02*
X12119000Y-10708000D01*
X12079000Y-10668000D02*
X12159000Y-10668000D01*
X12119000Y-10882000D02*
X12119000Y-10962000D01*
X12079000Y-10922000D02*
X12159000Y-10922000D01*
X15581000Y-8872000D02*
X15581000Y-8952000D01*
X15541000Y-8912000D02*
X15621000Y-8912000D01*
X15581000Y-11101500D02*
X15581000Y-11181500D01*
X15541000Y-11141500D02*
X15621000Y-11141500D01*
X15942500Y-6119500D02*
X15942500Y-6199500D01*
X15902500Y-6159500D02*
X15982500Y-6159500D01*
X15942500Y-9256500D02*
X15942500Y-9336500D01*
X15902500Y-9296500D02*
X15982500Y-9296500D01*
X16442500Y-6119500D02*
X16442500Y-6199500D01*
X16402500Y-6159500D02*
X16482500Y-6159500D01*
X16442500Y-9256500D02*
X16442500Y-9336500D01*
X16402500Y-9296500D02*
X16482500Y-9296500D01*
X16597000Y-8872000D02*
X16597000Y-8952000D01*
X16557000Y-8912000D02*
X16637000Y-8912000D01*
X16597000Y-11101500D02*
X16597000Y-11181500D01*
X16557000Y-11141500D02*
X16637000Y-11141500D01*
X7195356Y-5337356D02*
X7195356Y-5266644D01*
X7124644Y-5266644D01*
X7124644Y-5337356D01*
X7195356Y-5337356D01*
X7195356Y-5591356D02*
X7195356Y-5520644D01*
X7124644Y-5520644D01*
X7124644Y-5591356D01*
X7195356Y-5591356D01*
X7195356Y-5845356D02*
X7195356Y-5774644D01*
X7124644Y-5774644D01*
X7124644Y-5845356D01*
X7195356Y-5845356D01*
X7195356Y-6099356D02*
X7195356Y-6028644D01*
X7124644Y-6028644D01*
X7124644Y-6099356D01*
X7195356Y-6099356D01*
X7195356Y-6353356D02*
X7195356Y-6282644D01*
X7124644Y-6282644D01*
X7124644Y-6353356D01*
X7195356Y-6353356D01*
X7195356Y-6607356D02*
X7195356Y-6536644D01*
X7124644Y-6536644D01*
X7124644Y-6607356D01*
X7195356Y-6607356D01*
X7195356Y-6861356D02*
X7195356Y-6790644D01*
X7124644Y-6790644D01*
X7124644Y-6861356D01*
X7195356Y-6861356D01*
X7195356Y-7115356D02*
X7195356Y-7044644D01*
X7124644Y-7044644D01*
X7124644Y-7115356D01*
X7195356Y-7115356D01*
X7195356Y-7369356D02*
X7195356Y-7298644D01*
X7124644Y-7298644D01*
X7124644Y-7369356D01*
X7195356Y-7369356D01*
X7195356Y-7623356D02*
X7195356Y-7552644D01*
X7124644Y-7552644D01*
X7124644Y-7623356D01*
X7195356Y-7623356D01*
X7195356Y-7877356D02*
X7195356Y-7806644D01*
X7124644Y-7806644D01*
X7124644Y-7877356D01*
X7195356Y-7877356D01*
X7195356Y-8131356D02*
X7195356Y-8060644D01*
X7124644Y-8060644D01*
X7124644Y-8131356D01*
X7195356Y-8131356D01*
X7195356Y-8385356D02*
X7195356Y-8314644D01*
X7124644Y-8314644D01*
X7124644Y-8385356D01*
X7195356Y-8385356D01*
X7195356Y-8639356D02*
X7195356Y-8568644D01*
X7124644Y-8568644D01*
X7124644Y-8639356D01*
X7195356Y-8639356D01*
X7195356Y-8893356D02*
X7195356Y-8822644D01*
X7124644Y-8822644D01*
X7124644Y-8893356D01*
X7195356Y-8893356D01*
X7195356Y-9147356D02*
X7195356Y-9076644D01*
X7124644Y-9076644D01*
X7124644Y-9147356D01*
X7195356Y-9147356D01*
X7195356Y-9401356D02*
X7195356Y-9330644D01*
X7124644Y-9330644D01*
X7124644Y-9401356D01*
X7195356Y-9401356D01*
X7449356Y-5337356D02*
X7449356Y-5266644D01*
X7378644Y-5266644D01*
X7378644Y-5337356D01*
X7449356Y-5337356D01*
X7449356Y-5591356D02*
X7449356Y-5520644D01*
X7378644Y-5520644D01*
X7378644Y-5591356D01*
X7449356Y-5591356D01*
X7449356Y-5845356D02*
X7449356Y-5774644D01*
X7378644Y-5774644D01*
X7378644Y-5845356D01*
X7449356Y-5845356D01*
X7449356Y-6099356D02*
X7449356Y-6028644D01*
X7378644Y-6028644D01*
X7378644Y-6099356D01*
X7449356Y-6099356D01*
X7449356Y-6353356D02*
X7449356Y-6282644D01*
X7378644Y-6282644D01*
X7378644Y-6353356D01*
X7449356Y-6353356D01*
X7449356Y-6607356D02*
X7449356Y-6536644D01*
X7378644Y-6536644D01*
X7378644Y-6607356D01*
X7449356Y-6607356D01*
X7449356Y-6861356D02*
X7449356Y-6790644D01*
X7378644Y-6790644D01*
X7378644Y-6861356D01*
X7449356Y-6861356D01*
X7449356Y-7115356D02*
X7449356Y-7044644D01*
X7378644Y-7044644D01*
X7378644Y-7115356D01*
X7449356Y-7115356D01*
X7449356Y-7369356D02*
X7449356Y-7298644D01*
X7378644Y-7298644D01*
X7378644Y-7369356D01*
X7449356Y-7369356D01*
X7449356Y-7623356D02*
X7449356Y-7552644D01*
X7378644Y-7552644D01*
X7378644Y-7623356D01*
X7449356Y-7623356D01*
X7449356Y-7877356D02*
X7449356Y-7806644D01*
X7378644Y-7806644D01*
X7378644Y-7877356D01*
X7449356Y-7877356D01*
X7449356Y-8131356D02*
X7449356Y-8060644D01*
X7378644Y-8060644D01*
X7378644Y-8131356D01*
X7449356Y-8131356D01*
X7449356Y-8385356D02*
X7449356Y-8314644D01*
X7378644Y-8314644D01*
X7378644Y-8385356D01*
X7449356Y-8385356D01*
X7449356Y-8639356D02*
X7449356Y-8568644D01*
X7378644Y-8568644D01*
X7378644Y-8639356D01*
X7449356Y-8639356D01*
X7449356Y-8893356D02*
X7449356Y-8822644D01*
X7378644Y-8822644D01*
X7378644Y-8893356D01*
X7449356Y-8893356D01*
X7449356Y-9147356D02*
X7449356Y-9076644D01*
X7378644Y-9076644D01*
X7378644Y-9147356D01*
X7449356Y-9147356D01*
X7449356Y-9401356D02*
X7449356Y-9330644D01*
X7378644Y-9330644D01*
X7378644Y-9401356D01*
X7449356Y-9401356D01*
D12*
X7921237Y-5435746D02*
X7976237Y-5380746D01*
X7921237Y-5325746D01*
X7866237Y-5380746D01*
X7921237Y-5435746D01*
X8826500Y-5897000D02*
X8881500Y-5842000D01*
X8826500Y-5787000D01*
X8771500Y-5842000D01*
X8826500Y-5897000D01*
D11*
X7005777Y-11716484D02*
X7005777Y-11516484D01*
X7005777Y-11516484D02*
X7053396Y-11516484D01*
X7053396Y-11516484D02*
X7081967Y-11526008D01*
X7081967Y-11526008D02*
X7101015Y-11545055D01*
X7101015Y-11545055D02*
X7110539Y-11564103D01*
X7110539Y-11564103D02*
X7120062Y-11602198D01*
X7120062Y-11602198D02*
X7120062Y-11630769D01*
X7120062Y-11630769D02*
X7110539Y-11668865D01*
X7110539Y-11668865D02*
X7101015Y-11687912D01*
X7101015Y-11687912D02*
X7081967Y-11706960D01*
X7081967Y-11706960D02*
X7053396Y-11716484D01*
X7053396Y-11716484D02*
X7005777Y-11716484D01*
X7205777Y-11716484D02*
X7205777Y-11583150D01*
X7205777Y-11621246D02*
X7215301Y-11602198D01*
X7215301Y-11602198D02*
X7224824Y-11592674D01*
X7224824Y-11592674D02*
X7243872Y-11583150D01*
X7243872Y-11583150D02*
X7262920Y-11583150D01*
X7329586Y-11716484D02*
X7329586Y-11583150D01*
X7329586Y-11516484D02*
X7320062Y-11526008D01*
X7320062Y-11526008D02*
X7329586Y-11535531D01*
X7329586Y-11535531D02*
X7339110Y-11526008D01*
X7339110Y-11526008D02*
X7329586Y-11516484D01*
X7329586Y-11516484D02*
X7329586Y-11535531D01*
X7453396Y-11716484D02*
X7434348Y-11706960D01*
X7434348Y-11706960D02*
X7424824Y-11687912D01*
X7424824Y-11687912D02*
X7424824Y-11516484D01*
X7558158Y-11716484D02*
X7539110Y-11706960D01*
X7539110Y-11706960D02*
X7529586Y-11687912D01*
X7529586Y-11687912D02*
X7529586Y-11516484D01*
X7786729Y-11716484D02*
X7786729Y-11516484D01*
X7786729Y-11516484D02*
X7853396Y-11659341D01*
X7853396Y-11659341D02*
X7920062Y-11516484D01*
X7920062Y-11516484D02*
X7920062Y-11716484D01*
X8101015Y-11716484D02*
X8101015Y-11611722D01*
X8101015Y-11611722D02*
X8091491Y-11592674D01*
X8091491Y-11592674D02*
X8072443Y-11583150D01*
X8072443Y-11583150D02*
X8034348Y-11583150D01*
X8034348Y-11583150D02*
X8015301Y-11592674D01*
X8101015Y-11706960D02*
X8081967Y-11716484D01*
X8081967Y-11716484D02*
X8034348Y-11716484D01*
X8034348Y-11716484D02*
X8015301Y-11706960D01*
X8015301Y-11706960D02*
X8005777Y-11687912D01*
X8005777Y-11687912D02*
X8005777Y-11668865D01*
X8005777Y-11668865D02*
X8015301Y-11649817D01*
X8015301Y-11649817D02*
X8034348Y-11640293D01*
X8034348Y-11640293D02*
X8081967Y-11640293D01*
X8081967Y-11640293D02*
X8101015Y-11630769D01*
X8196253Y-11583150D02*
X8196253Y-11783150D01*
X8196253Y-11592674D02*
X8215301Y-11583150D01*
X8215301Y-11583150D02*
X8253396Y-11583150D01*
X8253396Y-11583150D02*
X8272443Y-11592674D01*
X8272443Y-11592674D02*
X8281967Y-11602198D01*
X8281967Y-11602198D02*
X8291491Y-11621246D01*
X8291491Y-11621246D02*
X8291491Y-11678388D01*
X8291491Y-11678388D02*
X8281967Y-11697436D01*
X8281967Y-11697436D02*
X8272443Y-11706960D01*
X8272443Y-11706960D02*
X8253396Y-11716484D01*
X8253396Y-11716484D02*
X8215301Y-11716484D01*
X8215301Y-11716484D02*
X8196253Y-11706960D01*
X8377205Y-11697436D02*
X8386729Y-11706960D01*
X8386729Y-11706960D02*
X8377205Y-11716484D01*
X8377205Y-11716484D02*
X8367682Y-11706960D01*
X8367682Y-11706960D02*
X8377205Y-11697436D01*
X8377205Y-11697436D02*
X8377205Y-11716484D01*
X8377205Y-11592674D02*
X8386729Y-11602198D01*
X8386729Y-11602198D02*
X8377205Y-11611722D01*
X8377205Y-11611722D02*
X8367682Y-11602198D01*
X8367682Y-11602198D02*
X8377205Y-11592674D01*
X8377205Y-11592674D02*
X8377205Y-11611722D01*
D10*
X6715000Y-12030000D02*
X6745000Y-12060000D01*
X6745000Y-12030000D02*
X6715000Y-12060000D01*
D11*
X7043872Y-11936484D02*
X7062920Y-11936484D01*
X7062920Y-11936484D02*
X7081967Y-11946008D01*
X7081967Y-11946008D02*
X7091491Y-11955531D01*
X7091491Y-11955531D02*
X7101015Y-11974579D01*
X7101015Y-11974579D02*
X7110539Y-12012674D01*
X7110539Y-12012674D02*
X7110539Y-12060293D01*
X7110539Y-12060293D02*
X7101015Y-12098388D01*
X7101015Y-12098388D02*
X7091491Y-12117436D01*
X7091491Y-12117436D02*
X7081967Y-12126960D01*
X7081967Y-12126960D02*
X7062920Y-12136484D01*
X7062920Y-12136484D02*
X7043872Y-12136484D01*
X7043872Y-12136484D02*
X7024824Y-12126960D01*
X7024824Y-12126960D02*
X7015301Y-12117436D01*
X7015301Y-12117436D02*
X7005777Y-12098388D01*
X7005777Y-12098388D02*
X6996253Y-12060293D01*
X6996253Y-12060293D02*
X6996253Y-12012674D01*
X6996253Y-12012674D02*
X7005777Y-11974579D01*
X7005777Y-11974579D02*
X7015301Y-11955531D01*
X7015301Y-11955531D02*
X7024824Y-11946008D01*
X7024824Y-11946008D02*
X7043872Y-11936484D01*
X7196253Y-12117436D02*
X7205777Y-12126960D01*
X7205777Y-12126960D02*
X7196253Y-12136484D01*
X7196253Y-12136484D02*
X7186729Y-12126960D01*
X7186729Y-12126960D02*
X7196253Y-12117436D01*
X7196253Y-12117436D02*
X7196253Y-12136484D01*
X7272443Y-11936484D02*
X7396253Y-11936484D01*
X7396253Y-11936484D02*
X7329586Y-12012674D01*
X7329586Y-12012674D02*
X7358158Y-12012674D01*
X7358158Y-12012674D02*
X7377205Y-12022198D01*
X7377205Y-12022198D02*
X7386729Y-12031722D01*
X7386729Y-12031722D02*
X7396253Y-12050769D01*
X7396253Y-12050769D02*
X7396253Y-12098388D01*
X7396253Y-12098388D02*
X7386729Y-12117436D01*
X7386729Y-12117436D02*
X7377205Y-12126960D01*
X7377205Y-12126960D02*
X7358158Y-12136484D01*
X7358158Y-12136484D02*
X7301015Y-12136484D01*
X7301015Y-12136484D02*
X7281967Y-12126960D01*
X7281967Y-12126960D02*
X7272443Y-12117436D01*
X7520062Y-11936484D02*
X7539110Y-11936484D01*
X7539110Y-11936484D02*
X7558158Y-11946008D01*
X7558158Y-11946008D02*
X7567682Y-11955531D01*
X7567682Y-11955531D02*
X7577205Y-11974579D01*
X7577205Y-11974579D02*
X7586729Y-12012674D01*
X7586729Y-12012674D02*
X7586729Y-12060293D01*
X7586729Y-12060293D02*
X7577205Y-12098388D01*
X7577205Y-12098388D02*
X7567682Y-12117436D01*
X7567682Y-12117436D02*
X7558158Y-12126960D01*
X7558158Y-12126960D02*
X7539110Y-12136484D01*
X7539110Y-12136484D02*
X7520062Y-12136484D01*
X7520062Y-12136484D02*
X7501015Y-12126960D01*
X7501015Y-12126960D02*
X7491491Y-12117436D01*
X7491491Y-12117436D02*
X7481967Y-12098388D01*
X7481967Y-12098388D02*
X7472443Y-12060293D01*
X7472443Y-12060293D02*
X7472443Y-12012674D01*
X7472443Y-12012674D02*
X7481967Y-11974579D01*
X7481967Y-11974579D02*
X7491491Y-11955531D01*
X7491491Y-11955531D02*
X7501015Y-11946008D01*
X7501015Y-11946008D02*
X7520062Y-11936484D01*
X7710539Y-11936484D02*
X7729586Y-11936484D01*
X7729586Y-11936484D02*
X7748634Y-11946008D01*
X7748634Y-11946008D02*
X7758158Y-11955531D01*
X7758158Y-11955531D02*
X7767682Y-11974579D01*
X7767682Y-11974579D02*
X7777205Y-12012674D01*
X7777205Y-12012674D02*
X7777205Y-12060293D01*
X7777205Y-12060293D02*
X7767682Y-12098388D01*
X7767682Y-12098388D02*
X7758158Y-12117436D01*
X7758158Y-12117436D02*
X7748634Y-12126960D01*
X7748634Y-12126960D02*
X7729586Y-12136484D01*
X7729586Y-12136484D02*
X7710539Y-12136484D01*
X7710539Y-12136484D02*
X7691491Y-12126960D01*
X7691491Y-12126960D02*
X7681967Y-12117436D01*
X7681967Y-12117436D02*
X7672443Y-12098388D01*
X7672443Y-12098388D02*
X7662920Y-12060293D01*
X7662920Y-12060293D02*
X7662920Y-12012674D01*
X7662920Y-12012674D02*
X7672443Y-11974579D01*
X7672443Y-11974579D02*
X7681967Y-11955531D01*
X7681967Y-11955531D02*
X7691491Y-11946008D01*
X7691491Y-11946008D02*
X7710539Y-11936484D01*
X7862920Y-12136484D02*
X7862920Y-12003150D01*
X7862920Y-12022198D02*
X7872443Y-12012674D01*
X7872443Y-12012674D02*
X7891491Y-12003150D01*
X7891491Y-12003150D02*
X7920063Y-12003150D01*
X7920063Y-12003150D02*
X7939110Y-12012674D01*
X7939110Y-12012674D02*
X7948634Y-12031722D01*
X7948634Y-12031722D02*
X7948634Y-12136484D01*
X7948634Y-12031722D02*
X7958158Y-12012674D01*
X7958158Y-12012674D02*
X7977205Y-12003150D01*
X7977205Y-12003150D02*
X8005777Y-12003150D01*
X8005777Y-12003150D02*
X8024824Y-12012674D01*
X8024824Y-12012674D02*
X8034348Y-12031722D01*
X8034348Y-12031722D02*
X8034348Y-12136484D01*
X8129586Y-12136484D02*
X8129586Y-12003150D01*
X8129586Y-12022198D02*
X8139110Y-12012674D01*
X8139110Y-12012674D02*
X8158158Y-12003150D01*
X8158158Y-12003150D02*
X8186729Y-12003150D01*
X8186729Y-12003150D02*
X8205777Y-12012674D01*
X8205777Y-12012674D02*
X8215301Y-12031722D01*
X8215301Y-12031722D02*
X8215301Y-12136484D01*
X8215301Y-12031722D02*
X8224824Y-12012674D01*
X8224824Y-12012674D02*
X8243872Y-12003150D01*
X8243872Y-12003150D02*
X8272443Y-12003150D01*
X8272443Y-12003150D02*
X8291491Y-12012674D01*
X8291491Y-12012674D02*
X8301015Y-12031722D01*
X8301015Y-12031722D02*
X8301015Y-12136484D01*
X8691491Y-11926960D02*
X8520063Y-12184103D01*
X8948634Y-11936484D02*
X8967682Y-11936484D01*
X8967682Y-11936484D02*
X8986729Y-11946008D01*
X8986729Y-11946008D02*
X8996253Y-11955531D01*
X8996253Y-11955531D02*
X9005777Y-11974579D01*
X9005777Y-11974579D02*
X9015301Y-12012674D01*
X9015301Y-12012674D02*
X9015301Y-12060293D01*
X9015301Y-12060293D02*
X9005777Y-12098388D01*
X9005777Y-12098388D02*
X8996253Y-12117436D01*
X8996253Y-12117436D02*
X8986729Y-12126960D01*
X8986729Y-12126960D02*
X8967682Y-12136484D01*
X8967682Y-12136484D02*
X8948634Y-12136484D01*
X8948634Y-12136484D02*
X8929587Y-12126960D01*
X8929587Y-12126960D02*
X8920063Y-12117436D01*
X8920063Y-12117436D02*
X8910539Y-12098388D01*
X8910539Y-12098388D02*
X8901015Y-12060293D01*
X8901015Y-12060293D02*
X8901015Y-12012674D01*
X8901015Y-12012674D02*
X8910539Y-11974579D01*
X8910539Y-11974579D02*
X8920063Y-11955531D01*
X8920063Y-11955531D02*
X8929587Y-11946008D01*
X8929587Y-11946008D02*
X8948634Y-11936484D01*
X9101015Y-12117436D02*
X9110539Y-12126960D01*
X9110539Y-12126960D02*
X9101015Y-12136484D01*
X9101015Y-12136484D02*
X9091491Y-12126960D01*
X9091491Y-12126960D02*
X9101015Y-12117436D01*
X9101015Y-12117436D02*
X9101015Y-12136484D01*
X9234348Y-11936484D02*
X9253396Y-11936484D01*
X9253396Y-11936484D02*
X9272444Y-11946008D01*
X9272444Y-11946008D02*
X9281968Y-11955531D01*
X9281968Y-11955531D02*
X9291491Y-11974579D01*
X9291491Y-11974579D02*
X9301015Y-12012674D01*
X9301015Y-12012674D02*
X9301015Y-12060293D01*
X9301015Y-12060293D02*
X9291491Y-12098388D01*
X9291491Y-12098388D02*
X9281968Y-12117436D01*
X9281968Y-12117436D02*
X9272444Y-12126960D01*
X9272444Y-12126960D02*
X9253396Y-12136484D01*
X9253396Y-12136484D02*
X9234348Y-12136484D01*
X9234348Y-12136484D02*
X9215301Y-12126960D01*
X9215301Y-12126960D02*
X9205777Y-12117436D01*
X9205777Y-12117436D02*
X9196253Y-12098388D01*
X9196253Y-12098388D02*
X9186729Y-12060293D01*
X9186729Y-12060293D02*
X9186729Y-12012674D01*
X9186729Y-12012674D02*
X9196253Y-11974579D01*
X9196253Y-11974579D02*
X9205777Y-11955531D01*
X9205777Y-11955531D02*
X9215301Y-11946008D01*
X9215301Y-11946008D02*
X9234348Y-11936484D01*
X9491491Y-12136484D02*
X9377206Y-12136484D01*
X9434348Y-12136484D02*
X9434348Y-11936484D01*
X9434348Y-11936484D02*
X9415301Y-11965055D01*
X9415301Y-11965055D02*
X9396253Y-11984103D01*
X9396253Y-11984103D02*
X9377206Y-11993627D01*
X9681968Y-12136484D02*
X9567682Y-12136484D01*
X9624825Y-12136484D02*
X9624825Y-11936484D01*
X9624825Y-11936484D02*
X9605777Y-11965055D01*
X9605777Y-11965055D02*
X9586729Y-11984103D01*
X9586729Y-11984103D02*
X9567682Y-11993627D01*
X9796253Y-12022198D02*
X9777206Y-12012674D01*
X9777206Y-12012674D02*
X9767682Y-12003150D01*
X9767682Y-12003150D02*
X9758158Y-11984103D01*
X9758158Y-11984103D02*
X9758158Y-11974579D01*
X9758158Y-11974579D02*
X9767682Y-11955531D01*
X9767682Y-11955531D02*
X9777206Y-11946008D01*
X9777206Y-11946008D02*
X9796253Y-11936484D01*
X9796253Y-11936484D02*
X9834349Y-11936484D01*
X9834349Y-11936484D02*
X9853396Y-11946008D01*
X9853396Y-11946008D02*
X9862920Y-11955531D01*
X9862920Y-11955531D02*
X9872444Y-11974579D01*
X9872444Y-11974579D02*
X9872444Y-11984103D01*
X9872444Y-11984103D02*
X9862920Y-12003150D01*
X9862920Y-12003150D02*
X9853396Y-12012674D01*
X9853396Y-12012674D02*
X9834349Y-12022198D01*
X9834349Y-12022198D02*
X9796253Y-12022198D01*
X9796253Y-12022198D02*
X9777206Y-12031722D01*
X9777206Y-12031722D02*
X9767682Y-12041246D01*
X9767682Y-12041246D02*
X9758158Y-12060293D01*
X9758158Y-12060293D02*
X9758158Y-12098388D01*
X9758158Y-12098388D02*
X9767682Y-12117436D01*
X9767682Y-12117436D02*
X9777206Y-12126960D01*
X9777206Y-12126960D02*
X9796253Y-12136484D01*
X9796253Y-12136484D02*
X9834349Y-12136484D01*
X9834349Y-12136484D02*
X9853396Y-12126960D01*
X9853396Y-12126960D02*
X9862920Y-12117436D01*
X9862920Y-12117436D02*
X9872444Y-12098388D01*
X9872444Y-12098388D02*
X9872444Y-12060293D01*
X9872444Y-12060293D02*
X9862920Y-12041246D01*
X9862920Y-12041246D02*
X9853396Y-12031722D01*
X9853396Y-12031722D02*
X9834349Y-12022198D01*
X9948634Y-11936484D02*
X9948634Y-11974579D01*
X10024825Y-11936484D02*
X10024825Y-11974579D01*
X10320063Y-12212674D02*
X10310539Y-12203150D01*
X10310539Y-12203150D02*
X10291491Y-12174579D01*
X10291491Y-12174579D02*
X10281968Y-12155531D01*
X10281968Y-12155531D02*
X10272444Y-12126960D01*
X10272444Y-12126960D02*
X10262920Y-12079341D01*
X10262920Y-12079341D02*
X10262920Y-12041246D01*
X10262920Y-12041246D02*
X10272444Y-11993627D01*
X10272444Y-11993627D02*
X10281968Y-11965055D01*
X10281968Y-11965055D02*
X10291491Y-11946008D01*
X10291491Y-11946008D02*
X10310539Y-11917436D01*
X10310539Y-11917436D02*
X10320063Y-11907912D01*
X10377206Y-11936484D02*
X10510539Y-11936484D01*
X10510539Y-11936484D02*
X10424825Y-12136484D01*
X10596253Y-12136484D02*
X10634349Y-12136484D01*
X10634349Y-12136484D02*
X10653396Y-12126960D01*
X10653396Y-12126960D02*
X10662920Y-12117436D01*
X10662920Y-12117436D02*
X10681968Y-12088865D01*
X10681968Y-12088865D02*
X10691491Y-12050769D01*
X10691491Y-12050769D02*
X10691491Y-11974579D01*
X10691491Y-11974579D02*
X10681968Y-11955531D01*
X10681968Y-11955531D02*
X10672444Y-11946008D01*
X10672444Y-11946008D02*
X10653396Y-11936484D01*
X10653396Y-11936484D02*
X10615301Y-11936484D01*
X10615301Y-11936484D02*
X10596253Y-11946008D01*
X10596253Y-11946008D02*
X10586730Y-11955531D01*
X10586730Y-11955531D02*
X10577206Y-11974579D01*
X10577206Y-11974579D02*
X10577206Y-12022198D01*
X10577206Y-12022198D02*
X10586730Y-12041246D01*
X10586730Y-12041246D02*
X10596253Y-12050769D01*
X10596253Y-12050769D02*
X10615301Y-12060293D01*
X10615301Y-12060293D02*
X10653396Y-12060293D01*
X10653396Y-12060293D02*
X10672444Y-12050769D01*
X10672444Y-12050769D02*
X10681968Y-12041246D01*
X10681968Y-12041246D02*
X10691491Y-12022198D01*
X10929587Y-12136484D02*
X10929587Y-11936484D01*
X11015301Y-12136484D02*
X11015301Y-12031722D01*
X11015301Y-12031722D02*
X11005777Y-12012674D01*
X11005777Y-12012674D02*
X10986730Y-12003150D01*
X10986730Y-12003150D02*
X10958158Y-12003150D01*
X10958158Y-12003150D02*
X10939111Y-12012674D01*
X10939111Y-12012674D02*
X10929587Y-12022198D01*
X11139111Y-12136484D02*
X11120063Y-12126960D01*
X11120063Y-12126960D02*
X11110539Y-12117436D01*
X11110539Y-12117436D02*
X11101015Y-12098388D01*
X11101015Y-12098388D02*
X11101015Y-12041246D01*
X11101015Y-12041246D02*
X11110539Y-12022198D01*
X11110539Y-12022198D02*
X11120063Y-12012674D01*
X11120063Y-12012674D02*
X11139111Y-12003150D01*
X11139111Y-12003150D02*
X11167682Y-12003150D01*
X11167682Y-12003150D02*
X11186730Y-12012674D01*
X11186730Y-12012674D02*
X11196253Y-12022198D01*
X11196253Y-12022198D02*
X11205777Y-12041246D01*
X11205777Y-12041246D02*
X11205777Y-12098388D01*
X11205777Y-12098388D02*
X11196253Y-12117436D01*
X11196253Y-12117436D02*
X11186730Y-12126960D01*
X11186730Y-12126960D02*
X11167682Y-12136484D01*
X11167682Y-12136484D02*
X11139111Y-12136484D01*
X11320063Y-12136484D02*
X11301015Y-12126960D01*
X11301015Y-12126960D02*
X11291491Y-12107912D01*
X11291491Y-12107912D02*
X11291491Y-11936484D01*
X11472444Y-12126960D02*
X11453396Y-12136484D01*
X11453396Y-12136484D02*
X11415301Y-12136484D01*
X11415301Y-12136484D02*
X11396253Y-12126960D01*
X11396253Y-12126960D02*
X11386730Y-12107912D01*
X11386730Y-12107912D02*
X11386730Y-12031722D01*
X11386730Y-12031722D02*
X11396253Y-12012674D01*
X11396253Y-12012674D02*
X11415301Y-12003150D01*
X11415301Y-12003150D02*
X11453396Y-12003150D01*
X11453396Y-12003150D02*
X11472444Y-12012674D01*
X11472444Y-12012674D02*
X11481968Y-12031722D01*
X11481968Y-12031722D02*
X11481968Y-12050769D01*
X11481968Y-12050769D02*
X11386730Y-12069817D01*
X11558158Y-12126960D02*
X11577206Y-12136484D01*
X11577206Y-12136484D02*
X11615301Y-12136484D01*
X11615301Y-12136484D02*
X11634349Y-12126960D01*
X11634349Y-12126960D02*
X11643872Y-12107912D01*
X11643872Y-12107912D02*
X11643872Y-12098388D01*
X11643872Y-12098388D02*
X11634349Y-12079341D01*
X11634349Y-12079341D02*
X11615301Y-12069817D01*
X11615301Y-12069817D02*
X11586730Y-12069817D01*
X11586730Y-12069817D02*
X11567682Y-12060293D01*
X11567682Y-12060293D02*
X11558158Y-12041246D01*
X11558158Y-12041246D02*
X11558158Y-12031722D01*
X11558158Y-12031722D02*
X11567682Y-12012674D01*
X11567682Y-12012674D02*
X11586730Y-12003150D01*
X11586730Y-12003150D02*
X11615301Y-12003150D01*
X11615301Y-12003150D02*
X11634349Y-12012674D01*
X11710539Y-12212674D02*
X11720063Y-12203150D01*
X11720063Y-12203150D02*
X11739111Y-12174579D01*
X11739111Y-12174579D02*
X11748634Y-12155531D01*
X11748634Y-12155531D02*
X11758158Y-12126960D01*
X11758158Y-12126960D02*
X11767682Y-12079341D01*
X11767682Y-12079341D02*
X11767682Y-12041246D01*
X11767682Y-12041246D02*
X11758158Y-11993627D01*
X11758158Y-11993627D02*
X11748634Y-11965055D01*
X11748634Y-11965055D02*
X11739111Y-11946008D01*
X11739111Y-11946008D02*
X11720063Y-11917436D01*
X11720063Y-11917436D02*
X11710539Y-11907912D01*
D10*
X6745000Y-12309000D02*
G75*
G02*
X6705000Y-12309000I-20000J0D01*
G01*
X6705000Y-12309000D02*
G75*
G02*
X6745000Y-12309000I20000J0D01*
G01*
D11*
X7043872Y-12200484D02*
X7062920Y-12200484D01*
X7062920Y-12200484D02*
X7081967Y-12210008D01*
X7081967Y-12210008D02*
X7091491Y-12219531D01*
X7091491Y-12219531D02*
X7101015Y-12238579D01*
X7101015Y-12238579D02*
X7110539Y-12276674D01*
X7110539Y-12276674D02*
X7110539Y-12324293D01*
X7110539Y-12324293D02*
X7101015Y-12362388D01*
X7101015Y-12362388D02*
X7091491Y-12381436D01*
X7091491Y-12381436D02*
X7081967Y-12390960D01*
X7081967Y-12390960D02*
X7062920Y-12400484D01*
X7062920Y-12400484D02*
X7043872Y-12400484D01*
X7043872Y-12400484D02*
X7024824Y-12390960D01*
X7024824Y-12390960D02*
X7015301Y-12381436D01*
X7015301Y-12381436D02*
X7005777Y-12362388D01*
X7005777Y-12362388D02*
X6996253Y-12324293D01*
X6996253Y-12324293D02*
X6996253Y-12276674D01*
X6996253Y-12276674D02*
X7005777Y-12238579D01*
X7005777Y-12238579D02*
X7015301Y-12219531D01*
X7015301Y-12219531D02*
X7024824Y-12210008D01*
X7024824Y-12210008D02*
X7043872Y-12200484D01*
X7196253Y-12381436D02*
X7205777Y-12390960D01*
X7205777Y-12390960D02*
X7196253Y-12400484D01*
X7196253Y-12400484D02*
X7186729Y-12390960D01*
X7186729Y-12390960D02*
X7196253Y-12381436D01*
X7196253Y-12381436D02*
X7196253Y-12400484D01*
X7377205Y-12267150D02*
X7377205Y-12400484D01*
X7329586Y-12190960D02*
X7281967Y-12333817D01*
X7281967Y-12333817D02*
X7405777Y-12333817D01*
X7520062Y-12200484D02*
X7539110Y-12200484D01*
X7539110Y-12200484D02*
X7558158Y-12210008D01*
X7558158Y-12210008D02*
X7567682Y-12219531D01*
X7567682Y-12219531D02*
X7577205Y-12238579D01*
X7577205Y-12238579D02*
X7586729Y-12276674D01*
X7586729Y-12276674D02*
X7586729Y-12324293D01*
X7586729Y-12324293D02*
X7577205Y-12362388D01*
X7577205Y-12362388D02*
X7567682Y-12381436D01*
X7567682Y-12381436D02*
X7558158Y-12390960D01*
X7558158Y-12390960D02*
X7539110Y-12400484D01*
X7539110Y-12400484D02*
X7520062Y-12400484D01*
X7520062Y-12400484D02*
X7501015Y-12390960D01*
X7501015Y-12390960D02*
X7491491Y-12381436D01*
X7491491Y-12381436D02*
X7481967Y-12362388D01*
X7481967Y-12362388D02*
X7472443Y-12324293D01*
X7472443Y-12324293D02*
X7472443Y-12276674D01*
X7472443Y-12276674D02*
X7481967Y-12238579D01*
X7481967Y-12238579D02*
X7491491Y-12219531D01*
X7491491Y-12219531D02*
X7501015Y-12210008D01*
X7501015Y-12210008D02*
X7520062Y-12200484D01*
X7710539Y-12200484D02*
X7729586Y-12200484D01*
X7729586Y-12200484D02*
X7748634Y-12210008D01*
X7748634Y-12210008D02*
X7758158Y-12219531D01*
X7758158Y-12219531D02*
X7767682Y-12238579D01*
X7767682Y-12238579D02*
X7777205Y-12276674D01*
X7777205Y-12276674D02*
X7777205Y-12324293D01*
X7777205Y-12324293D02*
X7767682Y-12362388D01*
X7767682Y-12362388D02*
X7758158Y-12381436D01*
X7758158Y-12381436D02*
X7748634Y-12390960D01*
X7748634Y-12390960D02*
X7729586Y-12400484D01*
X7729586Y-12400484D02*
X7710539Y-12400484D01*
X7710539Y-12400484D02*
X7691491Y-12390960D01*
X7691491Y-12390960D02*
X7681967Y-12381436D01*
X7681967Y-12381436D02*
X7672443Y-12362388D01*
X7672443Y-12362388D02*
X7662920Y-12324293D01*
X7662920Y-12324293D02*
X7662920Y-12276674D01*
X7662920Y-12276674D02*
X7672443Y-12238579D01*
X7672443Y-12238579D02*
X7681967Y-12219531D01*
X7681967Y-12219531D02*
X7691491Y-12210008D01*
X7691491Y-12210008D02*
X7710539Y-12200484D01*
X7862920Y-12400484D02*
X7862920Y-12267150D01*
X7862920Y-12286198D02*
X7872443Y-12276674D01*
X7872443Y-12276674D02*
X7891491Y-12267150D01*
X7891491Y-12267150D02*
X7920063Y-12267150D01*
X7920063Y-12267150D02*
X7939110Y-12276674D01*
X7939110Y-12276674D02*
X7948634Y-12295722D01*
X7948634Y-12295722D02*
X7948634Y-12400484D01*
X7948634Y-12295722D02*
X7958158Y-12276674D01*
X7958158Y-12276674D02*
X7977205Y-12267150D01*
X7977205Y-12267150D02*
X8005777Y-12267150D01*
X8005777Y-12267150D02*
X8024824Y-12276674D01*
X8024824Y-12276674D02*
X8034348Y-12295722D01*
X8034348Y-12295722D02*
X8034348Y-12400484D01*
X8129586Y-12400484D02*
X8129586Y-12267150D01*
X8129586Y-12286198D02*
X8139110Y-12276674D01*
X8139110Y-12276674D02*
X8158158Y-12267150D01*
X8158158Y-12267150D02*
X8186729Y-12267150D01*
X8186729Y-12267150D02*
X8205777Y-12276674D01*
X8205777Y-12276674D02*
X8215301Y-12295722D01*
X8215301Y-12295722D02*
X8215301Y-12400484D01*
X8215301Y-12295722D02*
X8224824Y-12276674D01*
X8224824Y-12276674D02*
X8243872Y-12267150D01*
X8243872Y-12267150D02*
X8272443Y-12267150D01*
X8272443Y-12267150D02*
X8291491Y-12276674D01*
X8291491Y-12276674D02*
X8301015Y-12295722D01*
X8301015Y-12295722D02*
X8301015Y-12400484D01*
X8691491Y-12190960D02*
X8520063Y-12448103D01*
X8948634Y-12200484D02*
X8967682Y-12200484D01*
X8967682Y-12200484D02*
X8986729Y-12210008D01*
X8986729Y-12210008D02*
X8996253Y-12219531D01*
X8996253Y-12219531D02*
X9005777Y-12238579D01*
X9005777Y-12238579D02*
X9015301Y-12276674D01*
X9015301Y-12276674D02*
X9015301Y-12324293D01*
X9015301Y-12324293D02*
X9005777Y-12362388D01*
X9005777Y-12362388D02*
X8996253Y-12381436D01*
X8996253Y-12381436D02*
X8986729Y-12390960D01*
X8986729Y-12390960D02*
X8967682Y-12400484D01*
X8967682Y-12400484D02*
X8948634Y-12400484D01*
X8948634Y-12400484D02*
X8929587Y-12390960D01*
X8929587Y-12390960D02*
X8920063Y-12381436D01*
X8920063Y-12381436D02*
X8910539Y-12362388D01*
X8910539Y-12362388D02*
X8901015Y-12324293D01*
X8901015Y-12324293D02*
X8901015Y-12276674D01*
X8901015Y-12276674D02*
X8910539Y-12238579D01*
X8910539Y-12238579D02*
X8920063Y-12219531D01*
X8920063Y-12219531D02*
X8929587Y-12210008D01*
X8929587Y-12210008D02*
X8948634Y-12200484D01*
X9101015Y-12381436D02*
X9110539Y-12390960D01*
X9110539Y-12390960D02*
X9101015Y-12400484D01*
X9101015Y-12400484D02*
X9091491Y-12390960D01*
X9091491Y-12390960D02*
X9101015Y-12381436D01*
X9101015Y-12381436D02*
X9101015Y-12400484D01*
X9234348Y-12200484D02*
X9253396Y-12200484D01*
X9253396Y-12200484D02*
X9272444Y-12210008D01*
X9272444Y-12210008D02*
X9281968Y-12219531D01*
X9281968Y-12219531D02*
X9291491Y-12238579D01*
X9291491Y-12238579D02*
X9301015Y-12276674D01*
X9301015Y-12276674D02*
X9301015Y-12324293D01*
X9301015Y-12324293D02*
X9291491Y-12362388D01*
X9291491Y-12362388D02*
X9281968Y-12381436D01*
X9281968Y-12381436D02*
X9272444Y-12390960D01*
X9272444Y-12390960D02*
X9253396Y-12400484D01*
X9253396Y-12400484D02*
X9234348Y-12400484D01*
X9234348Y-12400484D02*
X9215301Y-12390960D01*
X9215301Y-12390960D02*
X9205777Y-12381436D01*
X9205777Y-12381436D02*
X9196253Y-12362388D01*
X9196253Y-12362388D02*
X9186729Y-12324293D01*
X9186729Y-12324293D02*
X9186729Y-12276674D01*
X9186729Y-12276674D02*
X9196253Y-12238579D01*
X9196253Y-12238579D02*
X9205777Y-12219531D01*
X9205777Y-12219531D02*
X9215301Y-12210008D01*
X9215301Y-12210008D02*
X9234348Y-12200484D01*
X9491491Y-12400484D02*
X9377206Y-12400484D01*
X9434348Y-12400484D02*
X9434348Y-12200484D01*
X9434348Y-12200484D02*
X9415301Y-12229055D01*
X9415301Y-12229055D02*
X9396253Y-12248103D01*
X9396253Y-12248103D02*
X9377206Y-12257627D01*
X9672444Y-12200484D02*
X9577206Y-12200484D01*
X9577206Y-12200484D02*
X9567682Y-12295722D01*
X9567682Y-12295722D02*
X9577206Y-12286198D01*
X9577206Y-12286198D02*
X9596253Y-12276674D01*
X9596253Y-12276674D02*
X9643872Y-12276674D01*
X9643872Y-12276674D02*
X9662920Y-12286198D01*
X9662920Y-12286198D02*
X9672444Y-12295722D01*
X9672444Y-12295722D02*
X9681968Y-12314769D01*
X9681968Y-12314769D02*
X9681968Y-12362388D01*
X9681968Y-12362388D02*
X9672444Y-12381436D01*
X9672444Y-12381436D02*
X9662920Y-12390960D01*
X9662920Y-12390960D02*
X9643872Y-12400484D01*
X9643872Y-12400484D02*
X9596253Y-12400484D01*
X9596253Y-12400484D02*
X9577206Y-12390960D01*
X9577206Y-12390960D02*
X9567682Y-12381436D01*
X9748634Y-12200484D02*
X9881968Y-12200484D01*
X9881968Y-12200484D02*
X9796253Y-12400484D01*
X9948634Y-12200484D02*
X9948634Y-12238579D01*
X10024825Y-12200484D02*
X10024825Y-12238579D01*
X10320063Y-12476674D02*
X10310539Y-12467150D01*
X10310539Y-12467150D02*
X10291491Y-12438579D01*
X10291491Y-12438579D02*
X10281968Y-12419531D01*
X10281968Y-12419531D02*
X10272444Y-12390960D01*
X10272444Y-12390960D02*
X10262920Y-12343341D01*
X10262920Y-12343341D02*
X10262920Y-12305246D01*
X10262920Y-12305246D02*
X10272444Y-12257627D01*
X10272444Y-12257627D02*
X10281968Y-12229055D01*
X10281968Y-12229055D02*
X10291491Y-12210008D01*
X10291491Y-12210008D02*
X10310539Y-12181436D01*
X10310539Y-12181436D02*
X10320063Y-12171912D01*
X10501015Y-12400484D02*
X10386730Y-12400484D01*
X10443872Y-12400484D02*
X10443872Y-12200484D01*
X10443872Y-12200484D02*
X10424825Y-12229055D01*
X10424825Y-12229055D02*
X10405777Y-12248103D01*
X10405777Y-12248103D02*
X10386730Y-12257627D01*
X10672444Y-12200484D02*
X10634349Y-12200484D01*
X10634349Y-12200484D02*
X10615301Y-12210008D01*
X10615301Y-12210008D02*
X10605777Y-12219531D01*
X10605777Y-12219531D02*
X10586730Y-12248103D01*
X10586730Y-12248103D02*
X10577206Y-12286198D01*
X10577206Y-12286198D02*
X10577206Y-12362388D01*
X10577206Y-12362388D02*
X10586730Y-12381436D01*
X10586730Y-12381436D02*
X10596253Y-12390960D01*
X10596253Y-12390960D02*
X10615301Y-12400484D01*
X10615301Y-12400484D02*
X10653396Y-12400484D01*
X10653396Y-12400484D02*
X10672444Y-12390960D01*
X10672444Y-12390960D02*
X10681968Y-12381436D01*
X10681968Y-12381436D02*
X10691491Y-12362388D01*
X10691491Y-12362388D02*
X10691491Y-12314769D01*
X10691491Y-12314769D02*
X10681968Y-12295722D01*
X10681968Y-12295722D02*
X10672444Y-12286198D01*
X10672444Y-12286198D02*
X10653396Y-12276674D01*
X10653396Y-12276674D02*
X10615301Y-12276674D01*
X10615301Y-12276674D02*
X10596253Y-12286198D01*
X10596253Y-12286198D02*
X10586730Y-12295722D01*
X10586730Y-12295722D02*
X10577206Y-12314769D01*
X10929587Y-12400484D02*
X10929587Y-12200484D01*
X11015301Y-12400484D02*
X11015301Y-12295722D01*
X11015301Y-12295722D02*
X11005777Y-12276674D01*
X11005777Y-12276674D02*
X10986730Y-12267150D01*
X10986730Y-12267150D02*
X10958158Y-12267150D01*
X10958158Y-12267150D02*
X10939111Y-12276674D01*
X10939111Y-12276674D02*
X10929587Y-12286198D01*
X11139111Y-12400484D02*
X11120063Y-12390960D01*
X11120063Y-12390960D02*
X11110539Y-12381436D01*
X11110539Y-12381436D02*
X11101015Y-12362388D01*
X11101015Y-12362388D02*
X11101015Y-12305246D01*
X11101015Y-12305246D02*
X11110539Y-12286198D01*
X11110539Y-12286198D02*
X11120063Y-12276674D01*
X11120063Y-12276674D02*
X11139111Y-12267150D01*
X11139111Y-12267150D02*
X11167682Y-12267150D01*
X11167682Y-12267150D02*
X11186730Y-12276674D01*
X11186730Y-12276674D02*
X11196253Y-12286198D01*
X11196253Y-12286198D02*
X11205777Y-12305246D01*
X11205777Y-12305246D02*
X11205777Y-12362388D01*
X11205777Y-12362388D02*
X11196253Y-12381436D01*
X11196253Y-12381436D02*
X11186730Y-12390960D01*
X11186730Y-12390960D02*
X11167682Y-12400484D01*
X11167682Y-12400484D02*
X11139111Y-12400484D01*
X11320063Y-12400484D02*
X11301015Y-12390960D01*
X11301015Y-12390960D02*
X11291491Y-12371912D01*
X11291491Y-12371912D02*
X11291491Y-12200484D01*
X11472444Y-12390960D02*
X11453396Y-12400484D01*
X11453396Y-12400484D02*
X11415301Y-12400484D01*
X11415301Y-12400484D02*
X11396253Y-12390960D01*
X11396253Y-12390960D02*
X11386730Y-12371912D01*
X11386730Y-12371912D02*
X11386730Y-12295722D01*
X11386730Y-12295722D02*
X11396253Y-12276674D01*
X11396253Y-12276674D02*
X11415301Y-12267150D01*
X11415301Y-12267150D02*
X11453396Y-12267150D01*
X11453396Y-12267150D02*
X11472444Y-12276674D01*
X11472444Y-12276674D02*
X11481968Y-12295722D01*
X11481968Y-12295722D02*
X11481968Y-12314769D01*
X11481968Y-12314769D02*
X11386730Y-12333817D01*
X11558158Y-12390960D02*
X11577206Y-12400484D01*
X11577206Y-12400484D02*
X11615301Y-12400484D01*
X11615301Y-12400484D02*
X11634349Y-12390960D01*
X11634349Y-12390960D02*
X11643872Y-12371912D01*
X11643872Y-12371912D02*
X11643872Y-12362388D01*
X11643872Y-12362388D02*
X11634349Y-12343341D01*
X11634349Y-12343341D02*
X11615301Y-12333817D01*
X11615301Y-12333817D02*
X11586730Y-12333817D01*
X11586730Y-12333817D02*
X11567682Y-12324293D01*
X11567682Y-12324293D02*
X11558158Y-12305246D01*
X11558158Y-12305246D02*
X11558158Y-12295722D01*
X11558158Y-12295722D02*
X11567682Y-12276674D01*
X11567682Y-12276674D02*
X11586730Y-12267150D01*
X11586730Y-12267150D02*
X11615301Y-12267150D01*
X11615301Y-12267150D02*
X11634349Y-12276674D01*
X11710539Y-12476674D02*
X11720063Y-12467150D01*
X11720063Y-12467150D02*
X11739111Y-12438579D01*
X11739111Y-12438579D02*
X11748634Y-12419531D01*
X11748634Y-12419531D02*
X11758158Y-12390960D01*
X11758158Y-12390960D02*
X11767682Y-12343341D01*
X11767682Y-12343341D02*
X11767682Y-12305246D01*
X11767682Y-12305246D02*
X11758158Y-12257627D01*
X11758158Y-12257627D02*
X11748634Y-12229055D01*
X11748634Y-12229055D02*
X11739111Y-12210008D01*
X11739111Y-12210008D02*
X11720063Y-12181436D01*
X11720063Y-12181436D02*
X11710539Y-12171912D01*
D10*
X6705000Y-12533000D02*
X6705000Y-12613000D01*
X6665000Y-12573000D02*
X6745000Y-12573000D01*
D11*
X7043872Y-12464484D02*
X7062920Y-12464484D01*
X7062920Y-12464484D02*
X7081967Y-12474008D01*
X7081967Y-12474008D02*
X7091491Y-12483531D01*
X7091491Y-12483531D02*
X7101015Y-12502579D01*
X7101015Y-12502579D02*
X7110539Y-12540674D01*
X7110539Y-12540674D02*
X7110539Y-12588293D01*
X7110539Y-12588293D02*
X7101015Y-12626388D01*
X7101015Y-12626388D02*
X7091491Y-12645436D01*
X7091491Y-12645436D02*
X7081967Y-12654960D01*
X7081967Y-12654960D02*
X7062920Y-12664484D01*
X7062920Y-12664484D02*
X7043872Y-12664484D01*
X7043872Y-12664484D02*
X7024824Y-12654960D01*
X7024824Y-12654960D02*
X7015301Y-12645436D01*
X7015301Y-12645436D02*
X7005777Y-12626388D01*
X7005777Y-12626388D02*
X6996253Y-12588293D01*
X6996253Y-12588293D02*
X6996253Y-12540674D01*
X6996253Y-12540674D02*
X7005777Y-12502579D01*
X7005777Y-12502579D02*
X7015301Y-12483531D01*
X7015301Y-12483531D02*
X7024824Y-12474008D01*
X7024824Y-12474008D02*
X7043872Y-12464484D01*
X7196253Y-12645436D02*
X7205777Y-12654960D01*
X7205777Y-12654960D02*
X7196253Y-12664484D01*
X7196253Y-12664484D02*
X7186729Y-12654960D01*
X7186729Y-12654960D02*
X7196253Y-12645436D01*
X7196253Y-12645436D02*
X7196253Y-12664484D01*
X7320062Y-12550198D02*
X7301015Y-12540674D01*
X7301015Y-12540674D02*
X7291491Y-12531150D01*
X7291491Y-12531150D02*
X7281967Y-12512103D01*
X7281967Y-12512103D02*
X7281967Y-12502579D01*
X7281967Y-12502579D02*
X7291491Y-12483531D01*
X7291491Y-12483531D02*
X7301015Y-12474008D01*
X7301015Y-12474008D02*
X7320062Y-12464484D01*
X7320062Y-12464484D02*
X7358158Y-12464484D01*
X7358158Y-12464484D02*
X7377205Y-12474008D01*
X7377205Y-12474008D02*
X7386729Y-12483531D01*
X7386729Y-12483531D02*
X7396253Y-12502579D01*
X7396253Y-12502579D02*
X7396253Y-12512103D01*
X7396253Y-12512103D02*
X7386729Y-12531150D01*
X7386729Y-12531150D02*
X7377205Y-12540674D01*
X7377205Y-12540674D02*
X7358158Y-12550198D01*
X7358158Y-12550198D02*
X7320062Y-12550198D01*
X7320062Y-12550198D02*
X7301015Y-12559722D01*
X7301015Y-12559722D02*
X7291491Y-12569246D01*
X7291491Y-12569246D02*
X7281967Y-12588293D01*
X7281967Y-12588293D02*
X7281967Y-12626388D01*
X7281967Y-12626388D02*
X7291491Y-12645436D01*
X7291491Y-12645436D02*
X7301015Y-12654960D01*
X7301015Y-12654960D02*
X7320062Y-12664484D01*
X7320062Y-12664484D02*
X7358158Y-12664484D01*
X7358158Y-12664484D02*
X7377205Y-12654960D01*
X7377205Y-12654960D02*
X7386729Y-12645436D01*
X7386729Y-12645436D02*
X7396253Y-12626388D01*
X7396253Y-12626388D02*
X7396253Y-12588293D01*
X7396253Y-12588293D02*
X7386729Y-12569246D01*
X7386729Y-12569246D02*
X7377205Y-12559722D01*
X7377205Y-12559722D02*
X7358158Y-12550198D01*
X7520062Y-12464484D02*
X7539110Y-12464484D01*
X7539110Y-12464484D02*
X7558158Y-12474008D01*
X7558158Y-12474008D02*
X7567682Y-12483531D01*
X7567682Y-12483531D02*
X7577205Y-12502579D01*
X7577205Y-12502579D02*
X7586729Y-12540674D01*
X7586729Y-12540674D02*
X7586729Y-12588293D01*
X7586729Y-12588293D02*
X7577205Y-12626388D01*
X7577205Y-12626388D02*
X7567682Y-12645436D01*
X7567682Y-12645436D02*
X7558158Y-12654960D01*
X7558158Y-12654960D02*
X7539110Y-12664484D01*
X7539110Y-12664484D02*
X7520062Y-12664484D01*
X7520062Y-12664484D02*
X7501015Y-12654960D01*
X7501015Y-12654960D02*
X7491491Y-12645436D01*
X7491491Y-12645436D02*
X7481967Y-12626388D01*
X7481967Y-12626388D02*
X7472443Y-12588293D01*
X7472443Y-12588293D02*
X7472443Y-12540674D01*
X7472443Y-12540674D02*
X7481967Y-12502579D01*
X7481967Y-12502579D02*
X7491491Y-12483531D01*
X7491491Y-12483531D02*
X7501015Y-12474008D01*
X7501015Y-12474008D02*
X7520062Y-12464484D01*
X7710539Y-12464484D02*
X7729586Y-12464484D01*
X7729586Y-12464484D02*
X7748634Y-12474008D01*
X7748634Y-12474008D02*
X7758158Y-12483531D01*
X7758158Y-12483531D02*
X7767682Y-12502579D01*
X7767682Y-12502579D02*
X7777205Y-12540674D01*
X7777205Y-12540674D02*
X7777205Y-12588293D01*
X7777205Y-12588293D02*
X7767682Y-12626388D01*
X7767682Y-12626388D02*
X7758158Y-12645436D01*
X7758158Y-12645436D02*
X7748634Y-12654960D01*
X7748634Y-12654960D02*
X7729586Y-12664484D01*
X7729586Y-12664484D02*
X7710539Y-12664484D01*
X7710539Y-12664484D02*
X7691491Y-12654960D01*
X7691491Y-12654960D02*
X7681967Y-12645436D01*
X7681967Y-12645436D02*
X7672443Y-12626388D01*
X7672443Y-12626388D02*
X7662920Y-12588293D01*
X7662920Y-12588293D02*
X7662920Y-12540674D01*
X7662920Y-12540674D02*
X7672443Y-12502579D01*
X7672443Y-12502579D02*
X7681967Y-12483531D01*
X7681967Y-12483531D02*
X7691491Y-12474008D01*
X7691491Y-12474008D02*
X7710539Y-12464484D01*
X7862920Y-12664484D02*
X7862920Y-12531150D01*
X7862920Y-12550198D02*
X7872443Y-12540674D01*
X7872443Y-12540674D02*
X7891491Y-12531150D01*
X7891491Y-12531150D02*
X7920063Y-12531150D01*
X7920063Y-12531150D02*
X7939110Y-12540674D01*
X7939110Y-12540674D02*
X7948634Y-12559722D01*
X7948634Y-12559722D02*
X7948634Y-12664484D01*
X7948634Y-12559722D02*
X7958158Y-12540674D01*
X7958158Y-12540674D02*
X7977205Y-12531150D01*
X7977205Y-12531150D02*
X8005777Y-12531150D01*
X8005777Y-12531150D02*
X8024824Y-12540674D01*
X8024824Y-12540674D02*
X8034348Y-12559722D01*
X8034348Y-12559722D02*
X8034348Y-12664484D01*
X8129586Y-12664484D02*
X8129586Y-12531150D01*
X8129586Y-12550198D02*
X8139110Y-12540674D01*
X8139110Y-12540674D02*
X8158158Y-12531150D01*
X8158158Y-12531150D02*
X8186729Y-12531150D01*
X8186729Y-12531150D02*
X8205777Y-12540674D01*
X8205777Y-12540674D02*
X8215301Y-12559722D01*
X8215301Y-12559722D02*
X8215301Y-12664484D01*
X8215301Y-12559722D02*
X8224824Y-12540674D01*
X8224824Y-12540674D02*
X8243872Y-12531150D01*
X8243872Y-12531150D02*
X8272443Y-12531150D01*
X8272443Y-12531150D02*
X8291491Y-12540674D01*
X8291491Y-12540674D02*
X8301015Y-12559722D01*
X8301015Y-12559722D02*
X8301015Y-12664484D01*
X8691491Y-12454960D02*
X8520063Y-12712103D01*
X8948634Y-12464484D02*
X8967682Y-12464484D01*
X8967682Y-12464484D02*
X8986729Y-12474008D01*
X8986729Y-12474008D02*
X8996253Y-12483531D01*
X8996253Y-12483531D02*
X9005777Y-12502579D01*
X9005777Y-12502579D02*
X9015301Y-12540674D01*
X9015301Y-12540674D02*
X9015301Y-12588293D01*
X9015301Y-12588293D02*
X9005777Y-12626388D01*
X9005777Y-12626388D02*
X8996253Y-12645436D01*
X8996253Y-12645436D02*
X8986729Y-12654960D01*
X8986729Y-12654960D02*
X8967682Y-12664484D01*
X8967682Y-12664484D02*
X8948634Y-12664484D01*
X8948634Y-12664484D02*
X8929587Y-12654960D01*
X8929587Y-12654960D02*
X8920063Y-12645436D01*
X8920063Y-12645436D02*
X8910539Y-12626388D01*
X8910539Y-12626388D02*
X8901015Y-12588293D01*
X8901015Y-12588293D02*
X8901015Y-12540674D01*
X8901015Y-12540674D02*
X8910539Y-12502579D01*
X8910539Y-12502579D02*
X8920063Y-12483531D01*
X8920063Y-12483531D02*
X8929587Y-12474008D01*
X8929587Y-12474008D02*
X8948634Y-12464484D01*
X9101015Y-12645436D02*
X9110539Y-12654960D01*
X9110539Y-12654960D02*
X9101015Y-12664484D01*
X9101015Y-12664484D02*
X9091491Y-12654960D01*
X9091491Y-12654960D02*
X9101015Y-12645436D01*
X9101015Y-12645436D02*
X9101015Y-12664484D01*
X9234348Y-12464484D02*
X9253396Y-12464484D01*
X9253396Y-12464484D02*
X9272444Y-12474008D01*
X9272444Y-12474008D02*
X9281968Y-12483531D01*
X9281968Y-12483531D02*
X9291491Y-12502579D01*
X9291491Y-12502579D02*
X9301015Y-12540674D01*
X9301015Y-12540674D02*
X9301015Y-12588293D01*
X9301015Y-12588293D02*
X9291491Y-12626388D01*
X9291491Y-12626388D02*
X9281968Y-12645436D01*
X9281968Y-12645436D02*
X9272444Y-12654960D01*
X9272444Y-12654960D02*
X9253396Y-12664484D01*
X9253396Y-12664484D02*
X9234348Y-12664484D01*
X9234348Y-12664484D02*
X9215301Y-12654960D01*
X9215301Y-12654960D02*
X9205777Y-12645436D01*
X9205777Y-12645436D02*
X9196253Y-12626388D01*
X9196253Y-12626388D02*
X9186729Y-12588293D01*
X9186729Y-12588293D02*
X9186729Y-12540674D01*
X9186729Y-12540674D02*
X9196253Y-12502579D01*
X9196253Y-12502579D02*
X9205777Y-12483531D01*
X9205777Y-12483531D02*
X9215301Y-12474008D01*
X9215301Y-12474008D02*
X9234348Y-12464484D01*
X9367682Y-12464484D02*
X9491491Y-12464484D01*
X9491491Y-12464484D02*
X9424825Y-12540674D01*
X9424825Y-12540674D02*
X9453396Y-12540674D01*
X9453396Y-12540674D02*
X9472444Y-12550198D01*
X9472444Y-12550198D02*
X9481968Y-12559722D01*
X9481968Y-12559722D02*
X9491491Y-12578769D01*
X9491491Y-12578769D02*
X9491491Y-12626388D01*
X9491491Y-12626388D02*
X9481968Y-12645436D01*
X9481968Y-12645436D02*
X9472444Y-12654960D01*
X9472444Y-12654960D02*
X9453396Y-12664484D01*
X9453396Y-12664484D02*
X9396253Y-12664484D01*
X9396253Y-12664484D02*
X9377206Y-12654960D01*
X9377206Y-12654960D02*
X9367682Y-12645436D01*
X9681968Y-12664484D02*
X9567682Y-12664484D01*
X9624825Y-12664484D02*
X9624825Y-12464484D01*
X9624825Y-12464484D02*
X9605777Y-12493055D01*
X9605777Y-12493055D02*
X9586729Y-12512103D01*
X9586729Y-12512103D02*
X9567682Y-12521627D01*
X9862920Y-12464484D02*
X9767682Y-12464484D01*
X9767682Y-12464484D02*
X9758158Y-12559722D01*
X9758158Y-12559722D02*
X9767682Y-12550198D01*
X9767682Y-12550198D02*
X9786729Y-12540674D01*
X9786729Y-12540674D02*
X9834349Y-12540674D01*
X9834349Y-12540674D02*
X9853396Y-12550198D01*
X9853396Y-12550198D02*
X9862920Y-12559722D01*
X9862920Y-12559722D02*
X9872444Y-12578769D01*
X9872444Y-12578769D02*
X9872444Y-12626388D01*
X9872444Y-12626388D02*
X9862920Y-12645436D01*
X9862920Y-12645436D02*
X9853396Y-12654960D01*
X9853396Y-12654960D02*
X9834349Y-12664484D01*
X9834349Y-12664484D02*
X9786729Y-12664484D01*
X9786729Y-12664484D02*
X9767682Y-12654960D01*
X9767682Y-12654960D02*
X9758158Y-12645436D01*
X9948634Y-12464484D02*
X9948634Y-12502579D01*
X10024825Y-12464484D02*
X10024825Y-12502579D01*
X10320063Y-12740674D02*
X10310539Y-12731150D01*
X10310539Y-12731150D02*
X10291491Y-12702579D01*
X10291491Y-12702579D02*
X10281968Y-12683531D01*
X10281968Y-12683531D02*
X10272444Y-12654960D01*
X10272444Y-12654960D02*
X10262920Y-12607341D01*
X10262920Y-12607341D02*
X10262920Y-12569246D01*
X10262920Y-12569246D02*
X10272444Y-12521627D01*
X10272444Y-12521627D02*
X10281968Y-12493055D01*
X10281968Y-12493055D02*
X10291491Y-12474008D01*
X10291491Y-12474008D02*
X10310539Y-12445436D01*
X10310539Y-12445436D02*
X10320063Y-12435912D01*
X10481968Y-12464484D02*
X10443872Y-12464484D01*
X10443872Y-12464484D02*
X10424825Y-12474008D01*
X10424825Y-12474008D02*
X10415301Y-12483531D01*
X10415301Y-12483531D02*
X10396253Y-12512103D01*
X10396253Y-12512103D02*
X10386730Y-12550198D01*
X10386730Y-12550198D02*
X10386730Y-12626388D01*
X10386730Y-12626388D02*
X10396253Y-12645436D01*
X10396253Y-12645436D02*
X10405777Y-12654960D01*
X10405777Y-12654960D02*
X10424825Y-12664484D01*
X10424825Y-12664484D02*
X10462920Y-12664484D01*
X10462920Y-12664484D02*
X10481968Y-12654960D01*
X10481968Y-12654960D02*
X10491491Y-12645436D01*
X10491491Y-12645436D02*
X10501015Y-12626388D01*
X10501015Y-12626388D02*
X10501015Y-12578769D01*
X10501015Y-12578769D02*
X10491491Y-12559722D01*
X10491491Y-12559722D02*
X10481968Y-12550198D01*
X10481968Y-12550198D02*
X10462920Y-12540674D01*
X10462920Y-12540674D02*
X10424825Y-12540674D01*
X10424825Y-12540674D02*
X10405777Y-12550198D01*
X10405777Y-12550198D02*
X10396253Y-12559722D01*
X10396253Y-12559722D02*
X10386730Y-12578769D01*
X10567682Y-12464484D02*
X10701015Y-12464484D01*
X10701015Y-12464484D02*
X10615301Y-12664484D01*
X10929587Y-12664484D02*
X10929587Y-12464484D01*
X11015301Y-12664484D02*
X11015301Y-12559722D01*
X11015301Y-12559722D02*
X11005777Y-12540674D01*
X11005777Y-12540674D02*
X10986730Y-12531150D01*
X10986730Y-12531150D02*
X10958158Y-12531150D01*
X10958158Y-12531150D02*
X10939111Y-12540674D01*
X10939111Y-12540674D02*
X10929587Y-12550198D01*
X11139111Y-12664484D02*
X11120063Y-12654960D01*
X11120063Y-12654960D02*
X11110539Y-12645436D01*
X11110539Y-12645436D02*
X11101015Y-12626388D01*
X11101015Y-12626388D02*
X11101015Y-12569246D01*
X11101015Y-12569246D02*
X11110539Y-12550198D01*
X11110539Y-12550198D02*
X11120063Y-12540674D01*
X11120063Y-12540674D02*
X11139111Y-12531150D01*
X11139111Y-12531150D02*
X11167682Y-12531150D01*
X11167682Y-12531150D02*
X11186730Y-12540674D01*
X11186730Y-12540674D02*
X11196253Y-12550198D01*
X11196253Y-12550198D02*
X11205777Y-12569246D01*
X11205777Y-12569246D02*
X11205777Y-12626388D01*
X11205777Y-12626388D02*
X11196253Y-12645436D01*
X11196253Y-12645436D02*
X11186730Y-12654960D01*
X11186730Y-12654960D02*
X11167682Y-12664484D01*
X11167682Y-12664484D02*
X11139111Y-12664484D01*
X11320063Y-12664484D02*
X11301015Y-12654960D01*
X11301015Y-12654960D02*
X11291491Y-12635912D01*
X11291491Y-12635912D02*
X11291491Y-12464484D01*
X11472444Y-12654960D02*
X11453396Y-12664484D01*
X11453396Y-12664484D02*
X11415301Y-12664484D01*
X11415301Y-12664484D02*
X11396253Y-12654960D01*
X11396253Y-12654960D02*
X11386730Y-12635912D01*
X11386730Y-12635912D02*
X11386730Y-12559722D01*
X11386730Y-12559722D02*
X11396253Y-12540674D01*
X11396253Y-12540674D02*
X11415301Y-12531150D01*
X11415301Y-12531150D02*
X11453396Y-12531150D01*
X11453396Y-12531150D02*
X11472444Y-12540674D01*
X11472444Y-12540674D02*
X11481968Y-12559722D01*
X11481968Y-12559722D02*
X11481968Y-12578769D01*
X11481968Y-12578769D02*
X11386730Y-12597817D01*
X11558158Y-12654960D02*
X11577206Y-12664484D01*
X11577206Y-12664484D02*
X11615301Y-12664484D01*
X11615301Y-12664484D02*
X11634349Y-12654960D01*
X11634349Y-12654960D02*
X11643872Y-12635912D01*
X11643872Y-12635912D02*
X11643872Y-12626388D01*
X11643872Y-12626388D02*
X11634349Y-12607341D01*
X11634349Y-12607341D02*
X11615301Y-12597817D01*
X11615301Y-12597817D02*
X11586730Y-12597817D01*
X11586730Y-12597817D02*
X11567682Y-12588293D01*
X11567682Y-12588293D02*
X11558158Y-12569246D01*
X11558158Y-12569246D02*
X11558158Y-12559722D01*
X11558158Y-12559722D02*
X11567682Y-12540674D01*
X11567682Y-12540674D02*
X11586730Y-12531150D01*
X11586730Y-12531150D02*
X11615301Y-12531150D01*
X11615301Y-12531150D02*
X11634349Y-12540674D01*
X11710539Y-12740674D02*
X11720063Y-12731150D01*
X11720063Y-12731150D02*
X11739111Y-12702579D01*
X11739111Y-12702579D02*
X11748634Y-12683531D01*
X11748634Y-12683531D02*
X11758158Y-12654960D01*
X11758158Y-12654960D02*
X11767682Y-12607341D01*
X11767682Y-12607341D02*
X11767682Y-12569246D01*
X11767682Y-12569246D02*
X11758158Y-12521627D01*
X11758158Y-12521627D02*
X11748634Y-12493055D01*
X11748634Y-12493055D02*
X11739111Y-12474008D01*
X11739111Y-12474008D02*
X11720063Y-12445436D01*
X11720063Y-12445436D02*
X11710539Y-12435912D01*
D10*
X6730356Y-12872356D02*
X6730356Y-12801644D01*
X6659644Y-12801644D01*
X6659644Y-12872356D01*
X6730356Y-12872356D01*
D11*
X7110539Y-12928484D02*
X6996253Y-12928484D01*
X7053396Y-12928484D02*
X7053396Y-12728484D01*
X7053396Y-12728484D02*
X7034348Y-12757055D01*
X7034348Y-12757055D02*
X7015301Y-12776103D01*
X7015301Y-12776103D02*
X6996253Y-12785627D01*
X7196253Y-12909436D02*
X7205777Y-12918960D01*
X7205777Y-12918960D02*
X7196253Y-12928484D01*
X7196253Y-12928484D02*
X7186729Y-12918960D01*
X7186729Y-12918960D02*
X7196253Y-12909436D01*
X7196253Y-12909436D02*
X7196253Y-12928484D01*
X7329586Y-12728484D02*
X7348634Y-12728484D01*
X7348634Y-12728484D02*
X7367682Y-12738008D01*
X7367682Y-12738008D02*
X7377205Y-12747531D01*
X7377205Y-12747531D02*
X7386729Y-12766579D01*
X7386729Y-12766579D02*
X7396253Y-12804674D01*
X7396253Y-12804674D02*
X7396253Y-12852293D01*
X7396253Y-12852293D02*
X7386729Y-12890388D01*
X7386729Y-12890388D02*
X7377205Y-12909436D01*
X7377205Y-12909436D02*
X7367682Y-12918960D01*
X7367682Y-12918960D02*
X7348634Y-12928484D01*
X7348634Y-12928484D02*
X7329586Y-12928484D01*
X7329586Y-12928484D02*
X7310539Y-12918960D01*
X7310539Y-12918960D02*
X7301015Y-12909436D01*
X7301015Y-12909436D02*
X7291491Y-12890388D01*
X7291491Y-12890388D02*
X7281967Y-12852293D01*
X7281967Y-12852293D02*
X7281967Y-12804674D01*
X7281967Y-12804674D02*
X7291491Y-12766579D01*
X7291491Y-12766579D02*
X7301015Y-12747531D01*
X7301015Y-12747531D02*
X7310539Y-12738008D01*
X7310539Y-12738008D02*
X7329586Y-12728484D01*
X7520062Y-12728484D02*
X7539110Y-12728484D01*
X7539110Y-12728484D02*
X7558158Y-12738008D01*
X7558158Y-12738008D02*
X7567682Y-12747531D01*
X7567682Y-12747531D02*
X7577205Y-12766579D01*
X7577205Y-12766579D02*
X7586729Y-12804674D01*
X7586729Y-12804674D02*
X7586729Y-12852293D01*
X7586729Y-12852293D02*
X7577205Y-12890388D01*
X7577205Y-12890388D02*
X7567682Y-12909436D01*
X7567682Y-12909436D02*
X7558158Y-12918960D01*
X7558158Y-12918960D02*
X7539110Y-12928484D01*
X7539110Y-12928484D02*
X7520062Y-12928484D01*
X7520062Y-12928484D02*
X7501015Y-12918960D01*
X7501015Y-12918960D02*
X7491491Y-12909436D01*
X7491491Y-12909436D02*
X7481967Y-12890388D01*
X7481967Y-12890388D02*
X7472443Y-12852293D01*
X7472443Y-12852293D02*
X7472443Y-12804674D01*
X7472443Y-12804674D02*
X7481967Y-12766579D01*
X7481967Y-12766579D02*
X7491491Y-12747531D01*
X7491491Y-12747531D02*
X7501015Y-12738008D01*
X7501015Y-12738008D02*
X7520062Y-12728484D01*
X7710539Y-12728484D02*
X7729586Y-12728484D01*
X7729586Y-12728484D02*
X7748634Y-12738008D01*
X7748634Y-12738008D02*
X7758158Y-12747531D01*
X7758158Y-12747531D02*
X7767682Y-12766579D01*
X7767682Y-12766579D02*
X7777205Y-12804674D01*
X7777205Y-12804674D02*
X7777205Y-12852293D01*
X7777205Y-12852293D02*
X7767682Y-12890388D01*
X7767682Y-12890388D02*
X7758158Y-12909436D01*
X7758158Y-12909436D02*
X7748634Y-12918960D01*
X7748634Y-12918960D02*
X7729586Y-12928484D01*
X7729586Y-12928484D02*
X7710539Y-12928484D01*
X7710539Y-12928484D02*
X7691491Y-12918960D01*
X7691491Y-12918960D02*
X7681967Y-12909436D01*
X7681967Y-12909436D02*
X7672443Y-12890388D01*
X7672443Y-12890388D02*
X7662920Y-12852293D01*
X7662920Y-12852293D02*
X7662920Y-12804674D01*
X7662920Y-12804674D02*
X7672443Y-12766579D01*
X7672443Y-12766579D02*
X7681967Y-12747531D01*
X7681967Y-12747531D02*
X7691491Y-12738008D01*
X7691491Y-12738008D02*
X7710539Y-12728484D01*
X7862920Y-12928484D02*
X7862920Y-12795150D01*
X7862920Y-12814198D02*
X7872443Y-12804674D01*
X7872443Y-12804674D02*
X7891491Y-12795150D01*
X7891491Y-12795150D02*
X7920063Y-12795150D01*
X7920063Y-12795150D02*
X7939110Y-12804674D01*
X7939110Y-12804674D02*
X7948634Y-12823722D01*
X7948634Y-12823722D02*
X7948634Y-12928484D01*
X7948634Y-12823722D02*
X7958158Y-12804674D01*
X7958158Y-12804674D02*
X7977205Y-12795150D01*
X7977205Y-12795150D02*
X8005777Y-12795150D01*
X8005777Y-12795150D02*
X8024824Y-12804674D01*
X8024824Y-12804674D02*
X8034348Y-12823722D01*
X8034348Y-12823722D02*
X8034348Y-12928484D01*
X8129586Y-12928484D02*
X8129586Y-12795150D01*
X8129586Y-12814198D02*
X8139110Y-12804674D01*
X8139110Y-12804674D02*
X8158158Y-12795150D01*
X8158158Y-12795150D02*
X8186729Y-12795150D01*
X8186729Y-12795150D02*
X8205777Y-12804674D01*
X8205777Y-12804674D02*
X8215301Y-12823722D01*
X8215301Y-12823722D02*
X8215301Y-12928484D01*
X8215301Y-12823722D02*
X8224824Y-12804674D01*
X8224824Y-12804674D02*
X8243872Y-12795150D01*
X8243872Y-12795150D02*
X8272443Y-12795150D01*
X8272443Y-12795150D02*
X8291491Y-12804674D01*
X8291491Y-12804674D02*
X8301015Y-12823722D01*
X8301015Y-12823722D02*
X8301015Y-12928484D01*
X8691491Y-12718960D02*
X8520063Y-12976103D01*
X8948634Y-12728484D02*
X8967682Y-12728484D01*
X8967682Y-12728484D02*
X8986729Y-12738008D01*
X8986729Y-12738008D02*
X8996253Y-12747531D01*
X8996253Y-12747531D02*
X9005777Y-12766579D01*
X9005777Y-12766579D02*
X9015301Y-12804674D01*
X9015301Y-12804674D02*
X9015301Y-12852293D01*
X9015301Y-12852293D02*
X9005777Y-12890388D01*
X9005777Y-12890388D02*
X8996253Y-12909436D01*
X8996253Y-12909436D02*
X8986729Y-12918960D01*
X8986729Y-12918960D02*
X8967682Y-12928484D01*
X8967682Y-12928484D02*
X8948634Y-12928484D01*
X8948634Y-12928484D02*
X8929587Y-12918960D01*
X8929587Y-12918960D02*
X8920063Y-12909436D01*
X8920063Y-12909436D02*
X8910539Y-12890388D01*
X8910539Y-12890388D02*
X8901015Y-12852293D01*
X8901015Y-12852293D02*
X8901015Y-12804674D01*
X8901015Y-12804674D02*
X8910539Y-12766579D01*
X8910539Y-12766579D02*
X8920063Y-12747531D01*
X8920063Y-12747531D02*
X8929587Y-12738008D01*
X8929587Y-12738008D02*
X8948634Y-12728484D01*
X9101015Y-12909436D02*
X9110539Y-12918960D01*
X9110539Y-12918960D02*
X9101015Y-12928484D01*
X9101015Y-12928484D02*
X9091491Y-12918960D01*
X9091491Y-12918960D02*
X9101015Y-12909436D01*
X9101015Y-12909436D02*
X9101015Y-12928484D01*
X9234348Y-12728484D02*
X9253396Y-12728484D01*
X9253396Y-12728484D02*
X9272444Y-12738008D01*
X9272444Y-12738008D02*
X9281968Y-12747531D01*
X9281968Y-12747531D02*
X9291491Y-12766579D01*
X9291491Y-12766579D02*
X9301015Y-12804674D01*
X9301015Y-12804674D02*
X9301015Y-12852293D01*
X9301015Y-12852293D02*
X9291491Y-12890388D01*
X9291491Y-12890388D02*
X9281968Y-12909436D01*
X9281968Y-12909436D02*
X9272444Y-12918960D01*
X9272444Y-12918960D02*
X9253396Y-12928484D01*
X9253396Y-12928484D02*
X9234348Y-12928484D01*
X9234348Y-12928484D02*
X9215301Y-12918960D01*
X9215301Y-12918960D02*
X9205777Y-12909436D01*
X9205777Y-12909436D02*
X9196253Y-12890388D01*
X9196253Y-12890388D02*
X9186729Y-12852293D01*
X9186729Y-12852293D02*
X9186729Y-12804674D01*
X9186729Y-12804674D02*
X9196253Y-12766579D01*
X9196253Y-12766579D02*
X9205777Y-12747531D01*
X9205777Y-12747531D02*
X9215301Y-12738008D01*
X9215301Y-12738008D02*
X9234348Y-12728484D01*
X9367682Y-12728484D02*
X9491491Y-12728484D01*
X9491491Y-12728484D02*
X9424825Y-12804674D01*
X9424825Y-12804674D02*
X9453396Y-12804674D01*
X9453396Y-12804674D02*
X9472444Y-12814198D01*
X9472444Y-12814198D02*
X9481968Y-12823722D01*
X9481968Y-12823722D02*
X9491491Y-12842769D01*
X9491491Y-12842769D02*
X9491491Y-12890388D01*
X9491491Y-12890388D02*
X9481968Y-12909436D01*
X9481968Y-12909436D02*
X9472444Y-12918960D01*
X9472444Y-12918960D02*
X9453396Y-12928484D01*
X9453396Y-12928484D02*
X9396253Y-12928484D01*
X9396253Y-12928484D02*
X9377206Y-12918960D01*
X9377206Y-12918960D02*
X9367682Y-12909436D01*
X9586729Y-12928484D02*
X9624825Y-12928484D01*
X9624825Y-12928484D02*
X9643872Y-12918960D01*
X9643872Y-12918960D02*
X9653396Y-12909436D01*
X9653396Y-12909436D02*
X9672444Y-12880865D01*
X9672444Y-12880865D02*
X9681968Y-12842769D01*
X9681968Y-12842769D02*
X9681968Y-12766579D01*
X9681968Y-12766579D02*
X9672444Y-12747531D01*
X9672444Y-12747531D02*
X9662920Y-12738008D01*
X9662920Y-12738008D02*
X9643872Y-12728484D01*
X9643872Y-12728484D02*
X9605777Y-12728484D01*
X9605777Y-12728484D02*
X9586729Y-12738008D01*
X9586729Y-12738008D02*
X9577206Y-12747531D01*
X9577206Y-12747531D02*
X9567682Y-12766579D01*
X9567682Y-12766579D02*
X9567682Y-12814198D01*
X9567682Y-12814198D02*
X9577206Y-12833246D01*
X9577206Y-12833246D02*
X9586729Y-12842769D01*
X9586729Y-12842769D02*
X9605777Y-12852293D01*
X9605777Y-12852293D02*
X9643872Y-12852293D01*
X9643872Y-12852293D02*
X9662920Y-12842769D01*
X9662920Y-12842769D02*
X9672444Y-12833246D01*
X9672444Y-12833246D02*
X9681968Y-12814198D01*
X9853396Y-12795150D02*
X9853396Y-12928484D01*
X9805777Y-12718960D02*
X9758158Y-12861817D01*
X9758158Y-12861817D02*
X9881968Y-12861817D01*
X9948634Y-12728484D02*
X9948634Y-12766579D01*
X10024825Y-12728484D02*
X10024825Y-12766579D01*
X10320063Y-13004674D02*
X10310539Y-12995150D01*
X10310539Y-12995150D02*
X10291491Y-12966579D01*
X10291491Y-12966579D02*
X10281968Y-12947531D01*
X10281968Y-12947531D02*
X10272444Y-12918960D01*
X10272444Y-12918960D02*
X10262920Y-12871341D01*
X10262920Y-12871341D02*
X10262920Y-12833246D01*
X10262920Y-12833246D02*
X10272444Y-12785627D01*
X10272444Y-12785627D02*
X10281968Y-12757055D01*
X10281968Y-12757055D02*
X10291491Y-12738008D01*
X10291491Y-12738008D02*
X10310539Y-12709436D01*
X10310539Y-12709436D02*
X10320063Y-12699912D01*
X10377206Y-12728484D02*
X10501015Y-12728484D01*
X10501015Y-12728484D02*
X10434349Y-12804674D01*
X10434349Y-12804674D02*
X10462920Y-12804674D01*
X10462920Y-12804674D02*
X10481968Y-12814198D01*
X10481968Y-12814198D02*
X10491491Y-12823722D01*
X10491491Y-12823722D02*
X10501015Y-12842769D01*
X10501015Y-12842769D02*
X10501015Y-12890388D01*
X10501015Y-12890388D02*
X10491491Y-12909436D01*
X10491491Y-12909436D02*
X10481968Y-12918960D01*
X10481968Y-12918960D02*
X10462920Y-12928484D01*
X10462920Y-12928484D02*
X10405777Y-12928484D01*
X10405777Y-12928484D02*
X10386730Y-12918960D01*
X10386730Y-12918960D02*
X10377206Y-12909436D01*
X10672444Y-12795150D02*
X10672444Y-12928484D01*
X10624825Y-12718960D02*
X10577206Y-12861817D01*
X10577206Y-12861817D02*
X10701015Y-12861817D01*
X10929587Y-12928484D02*
X10929587Y-12728484D01*
X11015301Y-12928484D02*
X11015301Y-12823722D01*
X11015301Y-12823722D02*
X11005777Y-12804674D01*
X11005777Y-12804674D02*
X10986730Y-12795150D01*
X10986730Y-12795150D02*
X10958158Y-12795150D01*
X10958158Y-12795150D02*
X10939111Y-12804674D01*
X10939111Y-12804674D02*
X10929587Y-12814198D01*
X11139111Y-12928484D02*
X11120063Y-12918960D01*
X11120063Y-12918960D02*
X11110539Y-12909436D01*
X11110539Y-12909436D02*
X11101015Y-12890388D01*
X11101015Y-12890388D02*
X11101015Y-12833246D01*
X11101015Y-12833246D02*
X11110539Y-12814198D01*
X11110539Y-12814198D02*
X11120063Y-12804674D01*
X11120063Y-12804674D02*
X11139111Y-12795150D01*
X11139111Y-12795150D02*
X11167682Y-12795150D01*
X11167682Y-12795150D02*
X11186730Y-12804674D01*
X11186730Y-12804674D02*
X11196253Y-12814198D01*
X11196253Y-12814198D02*
X11205777Y-12833246D01*
X11205777Y-12833246D02*
X11205777Y-12890388D01*
X11205777Y-12890388D02*
X11196253Y-12909436D01*
X11196253Y-12909436D02*
X11186730Y-12918960D01*
X11186730Y-12918960D02*
X11167682Y-12928484D01*
X11167682Y-12928484D02*
X11139111Y-12928484D01*
X11320063Y-12928484D02*
X11301015Y-12918960D01*
X11301015Y-12918960D02*
X11291491Y-12899912D01*
X11291491Y-12899912D02*
X11291491Y-12728484D01*
X11472444Y-12918960D02*
X11453396Y-12928484D01*
X11453396Y-12928484D02*
X11415301Y-12928484D01*
X11415301Y-12928484D02*
X11396253Y-12918960D01*
X11396253Y-12918960D02*
X11386730Y-12899912D01*
X11386730Y-12899912D02*
X11386730Y-12823722D01*
X11386730Y-12823722D02*
X11396253Y-12804674D01*
X11396253Y-12804674D02*
X11415301Y-12795150D01*
X11415301Y-12795150D02*
X11453396Y-12795150D01*
X11453396Y-12795150D02*
X11472444Y-12804674D01*
X11472444Y-12804674D02*
X11481968Y-12823722D01*
X11481968Y-12823722D02*
X11481968Y-12842769D01*
X11481968Y-12842769D02*
X11386730Y-12861817D01*
X11558158Y-12918960D02*
X11577206Y-12928484D01*
X11577206Y-12928484D02*
X11615301Y-12928484D01*
X11615301Y-12928484D02*
X11634349Y-12918960D01*
X11634349Y-12918960D02*
X11643872Y-12899912D01*
X11643872Y-12899912D02*
X11643872Y-12890388D01*
X11643872Y-12890388D02*
X11634349Y-12871341D01*
X11634349Y-12871341D02*
X11615301Y-12861817D01*
X11615301Y-12861817D02*
X11586730Y-12861817D01*
X11586730Y-12861817D02*
X11567682Y-12852293D01*
X11567682Y-12852293D02*
X11558158Y-12833246D01*
X11558158Y-12833246D02*
X11558158Y-12823722D01*
X11558158Y-12823722D02*
X11567682Y-12804674D01*
X11567682Y-12804674D02*
X11586730Y-12795150D01*
X11586730Y-12795150D02*
X11615301Y-12795150D01*
X11615301Y-12795150D02*
X11634349Y-12804674D01*
X11710539Y-13004674D02*
X11720063Y-12995150D01*
X11720063Y-12995150D02*
X11739111Y-12966579D01*
X11739111Y-12966579D02*
X11748634Y-12947531D01*
X11748634Y-12947531D02*
X11758158Y-12918960D01*
X11758158Y-12918960D02*
X11767682Y-12871341D01*
X11767682Y-12871341D02*
X11767682Y-12833246D01*
X11767682Y-12833246D02*
X11758158Y-12785627D01*
X11758158Y-12785627D02*
X11748634Y-12757055D01*
X11748634Y-12757055D02*
X11739111Y-12738008D01*
X11739111Y-12738008D02*
X11720063Y-12709436D01*
X11720063Y-12709436D02*
X11710539Y-12699912D01*
D12*
X6690000Y-13156000D02*
X6745000Y-13101000D01*
X6690000Y-13046000D01*
X6635000Y-13101000D01*
X6690000Y-13156000D01*
D11*
X7110539Y-13192484D02*
X6996253Y-13192484D01*
X7053396Y-13192484D02*
X7053396Y-12992484D01*
X7053396Y-12992484D02*
X7034348Y-13021055D01*
X7034348Y-13021055D02*
X7015301Y-13040103D01*
X7015301Y-13040103D02*
X6996253Y-13049627D01*
X7196253Y-13173436D02*
X7205777Y-13182960D01*
X7205777Y-13182960D02*
X7196253Y-13192484D01*
X7196253Y-13192484D02*
X7186729Y-13182960D01*
X7186729Y-13182960D02*
X7196253Y-13173436D01*
X7196253Y-13173436D02*
X7196253Y-13192484D01*
X7396253Y-13192484D02*
X7281967Y-13192484D01*
X7339110Y-13192484D02*
X7339110Y-12992484D01*
X7339110Y-12992484D02*
X7320062Y-13021055D01*
X7320062Y-13021055D02*
X7301015Y-13040103D01*
X7301015Y-13040103D02*
X7281967Y-13049627D01*
X7520062Y-12992484D02*
X7539110Y-12992484D01*
X7539110Y-12992484D02*
X7558158Y-13002008D01*
X7558158Y-13002008D02*
X7567682Y-13011531D01*
X7567682Y-13011531D02*
X7577205Y-13030579D01*
X7577205Y-13030579D02*
X7586729Y-13068674D01*
X7586729Y-13068674D02*
X7586729Y-13116293D01*
X7586729Y-13116293D02*
X7577205Y-13154388D01*
X7577205Y-13154388D02*
X7567682Y-13173436D01*
X7567682Y-13173436D02*
X7558158Y-13182960D01*
X7558158Y-13182960D02*
X7539110Y-13192484D01*
X7539110Y-13192484D02*
X7520062Y-13192484D01*
X7520062Y-13192484D02*
X7501015Y-13182960D01*
X7501015Y-13182960D02*
X7491491Y-13173436D01*
X7491491Y-13173436D02*
X7481967Y-13154388D01*
X7481967Y-13154388D02*
X7472443Y-13116293D01*
X7472443Y-13116293D02*
X7472443Y-13068674D01*
X7472443Y-13068674D02*
X7481967Y-13030579D01*
X7481967Y-13030579D02*
X7491491Y-13011531D01*
X7491491Y-13011531D02*
X7501015Y-13002008D01*
X7501015Y-13002008D02*
X7520062Y-12992484D01*
X7710539Y-12992484D02*
X7729586Y-12992484D01*
X7729586Y-12992484D02*
X7748634Y-13002008D01*
X7748634Y-13002008D02*
X7758158Y-13011531D01*
X7758158Y-13011531D02*
X7767682Y-13030579D01*
X7767682Y-13030579D02*
X7777205Y-13068674D01*
X7777205Y-13068674D02*
X7777205Y-13116293D01*
X7777205Y-13116293D02*
X7767682Y-13154388D01*
X7767682Y-13154388D02*
X7758158Y-13173436D01*
X7758158Y-13173436D02*
X7748634Y-13182960D01*
X7748634Y-13182960D02*
X7729586Y-13192484D01*
X7729586Y-13192484D02*
X7710539Y-13192484D01*
X7710539Y-13192484D02*
X7691491Y-13182960D01*
X7691491Y-13182960D02*
X7681967Y-13173436D01*
X7681967Y-13173436D02*
X7672443Y-13154388D01*
X7672443Y-13154388D02*
X7662920Y-13116293D01*
X7662920Y-13116293D02*
X7662920Y-13068674D01*
X7662920Y-13068674D02*
X7672443Y-13030579D01*
X7672443Y-13030579D02*
X7681967Y-13011531D01*
X7681967Y-13011531D02*
X7691491Y-13002008D01*
X7691491Y-13002008D02*
X7710539Y-12992484D01*
X7862920Y-13192484D02*
X7862920Y-13059150D01*
X7862920Y-13078198D02*
X7872443Y-13068674D01*
X7872443Y-13068674D02*
X7891491Y-13059150D01*
X7891491Y-13059150D02*
X7920063Y-13059150D01*
X7920063Y-13059150D02*
X7939110Y-13068674D01*
X7939110Y-13068674D02*
X7948634Y-13087722D01*
X7948634Y-13087722D02*
X7948634Y-13192484D01*
X7948634Y-13087722D02*
X7958158Y-13068674D01*
X7958158Y-13068674D02*
X7977205Y-13059150D01*
X7977205Y-13059150D02*
X8005777Y-13059150D01*
X8005777Y-13059150D02*
X8024824Y-13068674D01*
X8024824Y-13068674D02*
X8034348Y-13087722D01*
X8034348Y-13087722D02*
X8034348Y-13192484D01*
X8129586Y-13192484D02*
X8129586Y-13059150D01*
X8129586Y-13078198D02*
X8139110Y-13068674D01*
X8139110Y-13068674D02*
X8158158Y-13059150D01*
X8158158Y-13059150D02*
X8186729Y-13059150D01*
X8186729Y-13059150D02*
X8205777Y-13068674D01*
X8205777Y-13068674D02*
X8215301Y-13087722D01*
X8215301Y-13087722D02*
X8215301Y-13192484D01*
X8215301Y-13087722D02*
X8224824Y-13068674D01*
X8224824Y-13068674D02*
X8243872Y-13059150D01*
X8243872Y-13059150D02*
X8272443Y-13059150D01*
X8272443Y-13059150D02*
X8291491Y-13068674D01*
X8291491Y-13068674D02*
X8301015Y-13087722D01*
X8301015Y-13087722D02*
X8301015Y-13192484D01*
X8691491Y-12982960D02*
X8520063Y-13240103D01*
X8948634Y-12992484D02*
X8967682Y-12992484D01*
X8967682Y-12992484D02*
X8986729Y-13002008D01*
X8986729Y-13002008D02*
X8996253Y-13011531D01*
X8996253Y-13011531D02*
X9005777Y-13030579D01*
X9005777Y-13030579D02*
X9015301Y-13068674D01*
X9015301Y-13068674D02*
X9015301Y-13116293D01*
X9015301Y-13116293D02*
X9005777Y-13154388D01*
X9005777Y-13154388D02*
X8996253Y-13173436D01*
X8996253Y-13173436D02*
X8986729Y-13182960D01*
X8986729Y-13182960D02*
X8967682Y-13192484D01*
X8967682Y-13192484D02*
X8948634Y-13192484D01*
X8948634Y-13192484D02*
X8929587Y-13182960D01*
X8929587Y-13182960D02*
X8920063Y-13173436D01*
X8920063Y-13173436D02*
X8910539Y-13154388D01*
X8910539Y-13154388D02*
X8901015Y-13116293D01*
X8901015Y-13116293D02*
X8901015Y-13068674D01*
X8901015Y-13068674D02*
X8910539Y-13030579D01*
X8910539Y-13030579D02*
X8920063Y-13011531D01*
X8920063Y-13011531D02*
X8929587Y-13002008D01*
X8929587Y-13002008D02*
X8948634Y-12992484D01*
X9101015Y-13173436D02*
X9110539Y-13182960D01*
X9110539Y-13182960D02*
X9101015Y-13192484D01*
X9101015Y-13192484D02*
X9091491Y-13182960D01*
X9091491Y-13182960D02*
X9101015Y-13173436D01*
X9101015Y-13173436D02*
X9101015Y-13192484D01*
X9234348Y-12992484D02*
X9253396Y-12992484D01*
X9253396Y-12992484D02*
X9272444Y-13002008D01*
X9272444Y-13002008D02*
X9281968Y-13011531D01*
X9281968Y-13011531D02*
X9291491Y-13030579D01*
X9291491Y-13030579D02*
X9301015Y-13068674D01*
X9301015Y-13068674D02*
X9301015Y-13116293D01*
X9301015Y-13116293D02*
X9291491Y-13154388D01*
X9291491Y-13154388D02*
X9281968Y-13173436D01*
X9281968Y-13173436D02*
X9272444Y-13182960D01*
X9272444Y-13182960D02*
X9253396Y-13192484D01*
X9253396Y-13192484D02*
X9234348Y-13192484D01*
X9234348Y-13192484D02*
X9215301Y-13182960D01*
X9215301Y-13182960D02*
X9205777Y-13173436D01*
X9205777Y-13173436D02*
X9196253Y-13154388D01*
X9196253Y-13154388D02*
X9186729Y-13116293D01*
X9186729Y-13116293D02*
X9186729Y-13068674D01*
X9186729Y-13068674D02*
X9196253Y-13030579D01*
X9196253Y-13030579D02*
X9205777Y-13011531D01*
X9205777Y-13011531D02*
X9215301Y-13002008D01*
X9215301Y-13002008D02*
X9234348Y-12992484D01*
X9472444Y-13059150D02*
X9472444Y-13192484D01*
X9424825Y-12982960D02*
X9377206Y-13125817D01*
X9377206Y-13125817D02*
X9501015Y-13125817D01*
X9558158Y-12992484D02*
X9681968Y-12992484D01*
X9681968Y-12992484D02*
X9615301Y-13068674D01*
X9615301Y-13068674D02*
X9643872Y-13068674D01*
X9643872Y-13068674D02*
X9662920Y-13078198D01*
X9662920Y-13078198D02*
X9672444Y-13087722D01*
X9672444Y-13087722D02*
X9681968Y-13106769D01*
X9681968Y-13106769D02*
X9681968Y-13154388D01*
X9681968Y-13154388D02*
X9672444Y-13173436D01*
X9672444Y-13173436D02*
X9662920Y-13182960D01*
X9662920Y-13182960D02*
X9643872Y-13192484D01*
X9643872Y-13192484D02*
X9586729Y-13192484D01*
X9586729Y-13192484D02*
X9567682Y-13182960D01*
X9567682Y-13182960D02*
X9558158Y-13173436D01*
X9748634Y-12992484D02*
X9872444Y-12992484D01*
X9872444Y-12992484D02*
X9805777Y-13068674D01*
X9805777Y-13068674D02*
X9834349Y-13068674D01*
X9834349Y-13068674D02*
X9853396Y-13078198D01*
X9853396Y-13078198D02*
X9862920Y-13087722D01*
X9862920Y-13087722D02*
X9872444Y-13106769D01*
X9872444Y-13106769D02*
X9872444Y-13154388D01*
X9872444Y-13154388D02*
X9862920Y-13173436D01*
X9862920Y-13173436D02*
X9853396Y-13182960D01*
X9853396Y-13182960D02*
X9834349Y-13192484D01*
X9834349Y-13192484D02*
X9777206Y-13192484D01*
X9777206Y-13192484D02*
X9758158Y-13182960D01*
X9758158Y-13182960D02*
X9748634Y-13173436D01*
X9948634Y-12992484D02*
X9948634Y-13030579D01*
X10024825Y-12992484D02*
X10024825Y-13030579D01*
X10320063Y-13268674D02*
X10310539Y-13259150D01*
X10310539Y-13259150D02*
X10291491Y-13230579D01*
X10291491Y-13230579D02*
X10281968Y-13211531D01*
X10281968Y-13211531D02*
X10272444Y-13182960D01*
X10272444Y-13182960D02*
X10262920Y-13135341D01*
X10262920Y-13135341D02*
X10262920Y-13097246D01*
X10262920Y-13097246D02*
X10272444Y-13049627D01*
X10272444Y-13049627D02*
X10281968Y-13021055D01*
X10281968Y-13021055D02*
X10291491Y-13002008D01*
X10291491Y-13002008D02*
X10310539Y-12973436D01*
X10310539Y-12973436D02*
X10320063Y-12963912D01*
X10386730Y-13011531D02*
X10396253Y-13002008D01*
X10396253Y-13002008D02*
X10415301Y-12992484D01*
X10415301Y-12992484D02*
X10462920Y-12992484D01*
X10462920Y-12992484D02*
X10481968Y-13002008D01*
X10481968Y-13002008D02*
X10491491Y-13011531D01*
X10491491Y-13011531D02*
X10501015Y-13030579D01*
X10501015Y-13030579D02*
X10501015Y-13049627D01*
X10501015Y-13049627D02*
X10491491Y-13078198D01*
X10491491Y-13078198D02*
X10377206Y-13192484D01*
X10377206Y-13192484D02*
X10501015Y-13192484D01*
X10739111Y-13192484D02*
X10739111Y-12992484D01*
X10824825Y-13192484D02*
X10824825Y-13087722D01*
X10824825Y-13087722D02*
X10815301Y-13068674D01*
X10815301Y-13068674D02*
X10796253Y-13059150D01*
X10796253Y-13059150D02*
X10767682Y-13059150D01*
X10767682Y-13059150D02*
X10748634Y-13068674D01*
X10748634Y-13068674D02*
X10739111Y-13078198D01*
X10948634Y-13192484D02*
X10929587Y-13182960D01*
X10929587Y-13182960D02*
X10920063Y-13173436D01*
X10920063Y-13173436D02*
X10910539Y-13154388D01*
X10910539Y-13154388D02*
X10910539Y-13097246D01*
X10910539Y-13097246D02*
X10920063Y-13078198D01*
X10920063Y-13078198D02*
X10929587Y-13068674D01*
X10929587Y-13068674D02*
X10948634Y-13059150D01*
X10948634Y-13059150D02*
X10977206Y-13059150D01*
X10977206Y-13059150D02*
X10996253Y-13068674D01*
X10996253Y-13068674D02*
X11005777Y-13078198D01*
X11005777Y-13078198D02*
X11015301Y-13097246D01*
X11015301Y-13097246D02*
X11015301Y-13154388D01*
X11015301Y-13154388D02*
X11005777Y-13173436D01*
X11005777Y-13173436D02*
X10996253Y-13182960D01*
X10996253Y-13182960D02*
X10977206Y-13192484D01*
X10977206Y-13192484D02*
X10948634Y-13192484D01*
X11129587Y-13192484D02*
X11110539Y-13182960D01*
X11110539Y-13182960D02*
X11101015Y-13163912D01*
X11101015Y-13163912D02*
X11101015Y-12992484D01*
X11281968Y-13182960D02*
X11262920Y-13192484D01*
X11262920Y-13192484D02*
X11224825Y-13192484D01*
X11224825Y-13192484D02*
X11205777Y-13182960D01*
X11205777Y-13182960D02*
X11196253Y-13163912D01*
X11196253Y-13163912D02*
X11196253Y-13087722D01*
X11196253Y-13087722D02*
X11205777Y-13068674D01*
X11205777Y-13068674D02*
X11224825Y-13059150D01*
X11224825Y-13059150D02*
X11262920Y-13059150D01*
X11262920Y-13059150D02*
X11281968Y-13068674D01*
X11281968Y-13068674D02*
X11291491Y-13087722D01*
X11291491Y-13087722D02*
X11291491Y-13106769D01*
X11291491Y-13106769D02*
X11196253Y-13125817D01*
X11367682Y-13182960D02*
X11386730Y-13192484D01*
X11386730Y-13192484D02*
X11424825Y-13192484D01*
X11424825Y-13192484D02*
X11443872Y-13182960D01*
X11443872Y-13182960D02*
X11453396Y-13163912D01*
X11453396Y-13163912D02*
X11453396Y-13154388D01*
X11453396Y-13154388D02*
X11443872Y-13135341D01*
X11443872Y-13135341D02*
X11424825Y-13125817D01*
X11424825Y-13125817D02*
X11396253Y-13125817D01*
X11396253Y-13125817D02*
X11377206Y-13116293D01*
X11377206Y-13116293D02*
X11367682Y-13097246D01*
X11367682Y-13097246D02*
X11367682Y-13087722D01*
X11367682Y-13087722D02*
X11377206Y-13068674D01*
X11377206Y-13068674D02*
X11396253Y-13059150D01*
X11396253Y-13059150D02*
X11424825Y-13059150D01*
X11424825Y-13059150D02*
X11443872Y-13068674D01*
X11520063Y-13268674D02*
X11529587Y-13259150D01*
X11529587Y-13259150D02*
X11548634Y-13230579D01*
X11548634Y-13230579D02*
X11558158Y-13211531D01*
X11558158Y-13211531D02*
X11567682Y-13182960D01*
X11567682Y-13182960D02*
X11577206Y-13135341D01*
X11577206Y-13135341D02*
X11577206Y-13097246D01*
X11577206Y-13097246D02*
X11567682Y-13049627D01*
X11567682Y-13049627D02*
X11558158Y-13021055D01*
X11558158Y-13021055D02*
X11548634Y-13002008D01*
X11548634Y-13002008D02*
X11529587Y-12973436D01*
X11529587Y-12973436D02*
X11520063Y-12963912D01*
M02*
