G04 #@! TF.GenerationSoftware,KiCad,Pcbnew,9.0.3*
G04 #@! TF.CreationDate,2025-07-22T08:58:47+01:00*
G04 #@! TF.ProjectId,megaflash,6d656761-666c-4617-9368-2e6b69636164,rev?*
G04 #@! TF.SameCoordinates,Original*
G04 #@! TF.FileFunction,Legend,Bot*
G04 #@! TF.FilePolarity,Positive*
%FSLAX46Y46*%
G04 Gerber Fmt 4.6, Leading zero omitted, Abs format (unit mm)*
G04 Created by KiCad (PCBNEW 9.0.3) date 2025-07-22 08:58:47*
%MOMM*%
%LPD*%
G01*
G04 APERTURE LIST*
G04 Aperture macros list*
%AMRoundRect*
0 Rectangle with rounded corners*
0 $1 Rounding radius*
0 $2 $3 $4 $5 $6 $7 $8 $9 X,Y pos of 4 corners*
0 Add a 4 corners polygon primitive as box body*
4,1,4,$2,$3,$4,$5,$6,$7,$8,$9,$2,$3,0*
0 Add four circle primitives for the rounded corners*
1,1,$1+$1,$2,$3*
1,1,$1+$1,$4,$5*
1,1,$1+$1,$6,$7*
1,1,$1+$1,$8,$9*
0 Add four rect primitives between the rounded corners*
20,1,$1+$1,$2,$3,$4,$5,0*
20,1,$1+$1,$4,$5,$6,$7,0*
20,1,$1+$1,$6,$7,$8,$9,0*
20,1,$1+$1,$8,$9,$2,$3,0*%
G04 Aperture macros list end*
%ADD10C,0.150000*%
%ADD11C,0.300000*%
%ADD12RoundRect,0.250000X0.550000X0.550000X-0.550000X0.550000X-0.550000X-0.550000X0.550000X-0.550000X0*%
%ADD13C,1.600000*%
%ADD14RoundRect,0.249999X1.143249X0.371464X-0.371464X1.143249X-1.143249X-0.371464X0.371464X-1.143249X0*%
%ADD15C,2.200000*%
%ADD16RoundRect,0.250000X0.550000X-0.950000X0.550000X0.950000X-0.550000X0.950000X-0.550000X-0.950000X0*%
%ADD17O,1.600000X2.400000*%
%ADD18R,1.600000X1.600000*%
%ADD19O,1.800000X1.800000*%
%ADD20O,1.500000X1.500000*%
%ADD21R,1.700000X1.700000*%
%ADD22O,1.700000X1.700000*%
%ADD23C,2.700000*%
G04 APERTURE END LIST*
D10*
X70707107Y-96250000D02*
G75*
G02*
X69292893Y-96250000I-707107J0D01*
G01*
X69292893Y-96250000D02*
G75*
G02*
X70707107Y-96250000I707107J0D01*
G01*
D11*
X119547870Y-106294448D02*
X119547870Y-104594448D01*
X119547870Y-104594448D02*
X118981203Y-105808734D01*
X118981203Y-105808734D02*
X118414536Y-104594448D01*
X118414536Y-104594448D02*
X118414536Y-106294448D01*
X116957394Y-106213496D02*
X117119298Y-106294448D01*
X117119298Y-106294448D02*
X117443108Y-106294448D01*
X117443108Y-106294448D02*
X117605013Y-106213496D01*
X117605013Y-106213496D02*
X117685965Y-106051591D01*
X117685965Y-106051591D02*
X117685965Y-105403972D01*
X117685965Y-105403972D02*
X117605013Y-105242067D01*
X117605013Y-105242067D02*
X117443108Y-105161115D01*
X117443108Y-105161115D02*
X117119298Y-105161115D01*
X117119298Y-105161115D02*
X116957394Y-105242067D01*
X116957394Y-105242067D02*
X116876441Y-105403972D01*
X116876441Y-105403972D02*
X116876441Y-105565876D01*
X116876441Y-105565876D02*
X117685965Y-105727781D01*
X115419298Y-105161115D02*
X115419298Y-106537305D01*
X115419298Y-106537305D02*
X115500251Y-106699210D01*
X115500251Y-106699210D02*
X115581203Y-106780162D01*
X115581203Y-106780162D02*
X115743108Y-106861115D01*
X115743108Y-106861115D02*
X115985965Y-106861115D01*
X115985965Y-106861115D02*
X116147870Y-106780162D01*
X115419298Y-106213496D02*
X115581203Y-106294448D01*
X115581203Y-106294448D02*
X115905012Y-106294448D01*
X115905012Y-106294448D02*
X116066917Y-106213496D01*
X116066917Y-106213496D02*
X116147870Y-106132543D01*
X116147870Y-106132543D02*
X116228822Y-105970638D01*
X116228822Y-105970638D02*
X116228822Y-105484924D01*
X116228822Y-105484924D02*
X116147870Y-105323019D01*
X116147870Y-105323019D02*
X116066917Y-105242067D01*
X116066917Y-105242067D02*
X115905012Y-105161115D01*
X115905012Y-105161115D02*
X115581203Y-105161115D01*
X115581203Y-105161115D02*
X115419298Y-105242067D01*
X113881203Y-106294448D02*
X113881203Y-105403972D01*
X113881203Y-105403972D02*
X113962156Y-105242067D01*
X113962156Y-105242067D02*
X114124060Y-105161115D01*
X114124060Y-105161115D02*
X114447870Y-105161115D01*
X114447870Y-105161115D02*
X114609775Y-105242067D01*
X113881203Y-106213496D02*
X114043108Y-106294448D01*
X114043108Y-106294448D02*
X114447870Y-106294448D01*
X114447870Y-106294448D02*
X114609775Y-106213496D01*
X114609775Y-106213496D02*
X114690727Y-106051591D01*
X114690727Y-106051591D02*
X114690727Y-105889686D01*
X114690727Y-105889686D02*
X114609775Y-105727781D01*
X114609775Y-105727781D02*
X114447870Y-105646829D01*
X114447870Y-105646829D02*
X114043108Y-105646829D01*
X114043108Y-105646829D02*
X113881203Y-105565876D01*
X112505013Y-105403972D02*
X113071680Y-105403972D01*
X113071680Y-106294448D02*
X113071680Y-104594448D01*
X113071680Y-104594448D02*
X112262156Y-104594448D01*
X111371679Y-106294448D02*
X111533584Y-106213496D01*
X111533584Y-106213496D02*
X111614537Y-106051591D01*
X111614537Y-106051591D02*
X111614537Y-104594448D01*
X109995489Y-106294448D02*
X109995489Y-105403972D01*
X109995489Y-105403972D02*
X110076442Y-105242067D01*
X110076442Y-105242067D02*
X110238346Y-105161115D01*
X110238346Y-105161115D02*
X110562156Y-105161115D01*
X110562156Y-105161115D02*
X110724061Y-105242067D01*
X109995489Y-106213496D02*
X110157394Y-106294448D01*
X110157394Y-106294448D02*
X110562156Y-106294448D01*
X110562156Y-106294448D02*
X110724061Y-106213496D01*
X110724061Y-106213496D02*
X110805013Y-106051591D01*
X110805013Y-106051591D02*
X110805013Y-105889686D01*
X110805013Y-105889686D02*
X110724061Y-105727781D01*
X110724061Y-105727781D02*
X110562156Y-105646829D01*
X110562156Y-105646829D02*
X110157394Y-105646829D01*
X110157394Y-105646829D02*
X109995489Y-105565876D01*
X109266918Y-106213496D02*
X109105013Y-106294448D01*
X109105013Y-106294448D02*
X108781204Y-106294448D01*
X108781204Y-106294448D02*
X108619299Y-106213496D01*
X108619299Y-106213496D02*
X108538347Y-106051591D01*
X108538347Y-106051591D02*
X108538347Y-105970638D01*
X108538347Y-105970638D02*
X108619299Y-105808734D01*
X108619299Y-105808734D02*
X108781204Y-105727781D01*
X108781204Y-105727781D02*
X109024061Y-105727781D01*
X109024061Y-105727781D02*
X109185966Y-105646829D01*
X109185966Y-105646829D02*
X109266918Y-105484924D01*
X109266918Y-105484924D02*
X109266918Y-105403972D01*
X109266918Y-105403972D02*
X109185966Y-105242067D01*
X109185966Y-105242067D02*
X109024061Y-105161115D01*
X109024061Y-105161115D02*
X108781204Y-105161115D01*
X108781204Y-105161115D02*
X108619299Y-105242067D01*
X107809776Y-106294448D02*
X107809776Y-104594448D01*
X107081204Y-106294448D02*
X107081204Y-105403972D01*
X107081204Y-105403972D02*
X107162157Y-105242067D01*
X107162157Y-105242067D02*
X107324061Y-105161115D01*
X107324061Y-105161115D02*
X107566918Y-105161115D01*
X107566918Y-105161115D02*
X107728823Y-105242067D01*
X107728823Y-105242067D02*
X107809776Y-105323019D01*
X105219300Y-105161115D02*
X104571681Y-105161115D01*
X104976443Y-106294448D02*
X104976443Y-104837305D01*
X104976443Y-104837305D02*
X104895490Y-104675400D01*
X104895490Y-104675400D02*
X104733585Y-104594448D01*
X104733585Y-104594448D02*
X104571681Y-104594448D01*
X103762156Y-106294448D02*
X103924061Y-106213496D01*
X103924061Y-106213496D02*
X104005014Y-106132543D01*
X104005014Y-106132543D02*
X104085966Y-105970638D01*
X104085966Y-105970638D02*
X104085966Y-105484924D01*
X104085966Y-105484924D02*
X104005014Y-105323019D01*
X104005014Y-105323019D02*
X103924061Y-105242067D01*
X103924061Y-105242067D02*
X103762156Y-105161115D01*
X103762156Y-105161115D02*
X103519299Y-105161115D01*
X103519299Y-105161115D02*
X103357395Y-105242067D01*
X103357395Y-105242067D02*
X103276442Y-105323019D01*
X103276442Y-105323019D02*
X103195490Y-105484924D01*
X103195490Y-105484924D02*
X103195490Y-105970638D01*
X103195490Y-105970638D02*
X103276442Y-106132543D01*
X103276442Y-106132543D02*
X103357395Y-106213496D01*
X103357395Y-106213496D02*
X103519299Y-106294448D01*
X103519299Y-106294448D02*
X103762156Y-106294448D01*
X102466919Y-106294448D02*
X102466919Y-105161115D01*
X102466919Y-105484924D02*
X102385966Y-105323019D01*
X102385966Y-105323019D02*
X102305014Y-105242067D01*
X102305014Y-105242067D02*
X102143109Y-105161115D01*
X102143109Y-105161115D02*
X101981204Y-105161115D01*
X100200252Y-105808734D02*
X99390728Y-105808734D01*
X100362157Y-106294448D02*
X99795490Y-104594448D01*
X99795490Y-104594448D02*
X99228823Y-106294448D01*
X98662157Y-105161115D02*
X98662157Y-106861115D01*
X98662157Y-105242067D02*
X98500252Y-105161115D01*
X98500252Y-105161115D02*
X98176442Y-105161115D01*
X98176442Y-105161115D02*
X98014538Y-105242067D01*
X98014538Y-105242067D02*
X97933585Y-105323019D01*
X97933585Y-105323019D02*
X97852633Y-105484924D01*
X97852633Y-105484924D02*
X97852633Y-105970638D01*
X97852633Y-105970638D02*
X97933585Y-106132543D01*
X97933585Y-106132543D02*
X98014538Y-106213496D01*
X98014538Y-106213496D02*
X98176442Y-106294448D01*
X98176442Y-106294448D02*
X98500252Y-106294448D01*
X98500252Y-106294448D02*
X98662157Y-106213496D01*
X97124062Y-105161115D02*
X97124062Y-106861115D01*
X97124062Y-105242067D02*
X96962157Y-105161115D01*
X96962157Y-105161115D02*
X96638347Y-105161115D01*
X96638347Y-105161115D02*
X96476443Y-105242067D01*
X96476443Y-105242067D02*
X96395490Y-105323019D01*
X96395490Y-105323019D02*
X96314538Y-105484924D01*
X96314538Y-105484924D02*
X96314538Y-105970638D01*
X96314538Y-105970638D02*
X96395490Y-106132543D01*
X96395490Y-106132543D02*
X96476443Y-106213496D01*
X96476443Y-106213496D02*
X96638347Y-106294448D01*
X96638347Y-106294448D02*
X96962157Y-106294448D01*
X96962157Y-106294448D02*
X97124062Y-106213496D01*
X95343109Y-106294448D02*
X95505014Y-106213496D01*
X95505014Y-106213496D02*
X95585967Y-106051591D01*
X95585967Y-106051591D02*
X95585967Y-104594448D01*
X94047872Y-106213496D02*
X94209776Y-106294448D01*
X94209776Y-106294448D02*
X94533586Y-106294448D01*
X94533586Y-106294448D02*
X94695491Y-106213496D01*
X94695491Y-106213496D02*
X94776443Y-106051591D01*
X94776443Y-106051591D02*
X94776443Y-105403972D01*
X94776443Y-105403972D02*
X94695491Y-105242067D01*
X94695491Y-105242067D02*
X94533586Y-105161115D01*
X94533586Y-105161115D02*
X94209776Y-105161115D01*
X94209776Y-105161115D02*
X94047872Y-105242067D01*
X94047872Y-105242067D02*
X93966919Y-105403972D01*
X93966919Y-105403972D02*
X93966919Y-105565876D01*
X93966919Y-105565876D02*
X94776443Y-105727781D01*
X91943110Y-106294448D02*
X91943110Y-104594448D01*
X91133586Y-106294448D02*
X91133586Y-104594448D01*
X89595490Y-106213496D02*
X89757395Y-106294448D01*
X89757395Y-106294448D02*
X90081204Y-106294448D01*
X90081204Y-106294448D02*
X90243109Y-106213496D01*
X90243109Y-106213496D02*
X90324062Y-106132543D01*
X90324062Y-106132543D02*
X90405014Y-105970638D01*
X90405014Y-105970638D02*
X90405014Y-105484924D01*
X90405014Y-105484924D02*
X90324062Y-105323019D01*
X90324062Y-105323019D02*
X90243109Y-105242067D01*
X90243109Y-105242067D02*
X90081204Y-105161115D01*
X90081204Y-105161115D02*
X89757395Y-105161115D01*
X89757395Y-105161115D02*
X89595490Y-105242067D01*
X87652633Y-104513496D02*
X89109776Y-106699210D01*
X87085967Y-106294448D02*
X87085967Y-104594448D01*
X86276443Y-106294448D02*
X86276443Y-104594448D01*
X84738347Y-106213496D02*
X84900252Y-106294448D01*
X84900252Y-106294448D02*
X85224061Y-106294448D01*
X85224061Y-106294448D02*
X85385966Y-106213496D01*
X85385966Y-106213496D02*
X85466919Y-106132543D01*
X85466919Y-106132543D02*
X85547871Y-105970638D01*
X85547871Y-105970638D02*
X85547871Y-105484924D01*
X85547871Y-105484924D02*
X85466919Y-105323019D01*
X85466919Y-105323019D02*
X85385966Y-105242067D01*
X85385966Y-105242067D02*
X85224061Y-105161115D01*
X85224061Y-105161115D02*
X84900252Y-105161115D01*
X84900252Y-105161115D02*
X84738347Y-105242067D01*
X84009776Y-105646829D02*
X82714538Y-105646829D01*
X83362157Y-106294448D02*
X83362157Y-104999210D01*
X118576441Y-109031353D02*
X119143108Y-108221829D01*
X119547870Y-109031353D02*
X119547870Y-107331353D01*
X119547870Y-107331353D02*
X118900251Y-107331353D01*
X118900251Y-107331353D02*
X118738346Y-107412305D01*
X118738346Y-107412305D02*
X118657393Y-107493258D01*
X118657393Y-107493258D02*
X118576441Y-107655162D01*
X118576441Y-107655162D02*
X118576441Y-107898020D01*
X118576441Y-107898020D02*
X118657393Y-108059924D01*
X118657393Y-108059924D02*
X118738346Y-108140877D01*
X118738346Y-108140877D02*
X118900251Y-108221829D01*
X118900251Y-108221829D02*
X119547870Y-108221829D01*
X117200251Y-108950401D02*
X117362155Y-109031353D01*
X117362155Y-109031353D02*
X117685965Y-109031353D01*
X117685965Y-109031353D02*
X117847870Y-108950401D01*
X117847870Y-108950401D02*
X117928822Y-108788496D01*
X117928822Y-108788496D02*
X117928822Y-108140877D01*
X117928822Y-108140877D02*
X117847870Y-107978972D01*
X117847870Y-107978972D02*
X117685965Y-107898020D01*
X117685965Y-107898020D02*
X117362155Y-107898020D01*
X117362155Y-107898020D02*
X117200251Y-107978972D01*
X117200251Y-107978972D02*
X117119298Y-108140877D01*
X117119298Y-108140877D02*
X117119298Y-108302781D01*
X117119298Y-108302781D02*
X117928822Y-108464686D01*
X116552631Y-107898020D02*
X116147869Y-109031353D01*
X116147869Y-109031353D02*
X115743108Y-107898020D01*
X112909774Y-109031353D02*
X113881203Y-109031353D01*
X113395489Y-109031353D02*
X113395489Y-107331353D01*
X113395489Y-107331353D02*
X113557393Y-107574210D01*
X113557393Y-107574210D02*
X113719298Y-107736115D01*
X113719298Y-107736115D02*
X113881203Y-107817067D01*
X112181203Y-108869448D02*
X112100250Y-108950401D01*
X112100250Y-108950401D02*
X112181203Y-109031353D01*
X112181203Y-109031353D02*
X112262155Y-108950401D01*
X112262155Y-108950401D02*
X112181203Y-108869448D01*
X112181203Y-108869448D02*
X112181203Y-109031353D01*
X110481202Y-109031353D02*
X111452631Y-109031353D01*
X110966917Y-109031353D02*
X110966917Y-107331353D01*
X110966917Y-107331353D02*
X111128821Y-107574210D01*
X111128821Y-107574210D02*
X111290726Y-107736115D01*
X111290726Y-107736115D02*
X111452631Y-107817067D01*
%LPC*%
D12*
X73755000Y-101600000D03*
D13*
X71755000Y-101600000D03*
X165970000Y-89120000D03*
X155810000Y-89120000D03*
X165970000Y-111415000D03*
X155810000Y-111415000D03*
D14*
X88265000Y-58420000D03*
D15*
X79212374Y-53807457D03*
D16*
X97155000Y-71120000D03*
D17*
X99695000Y-71120000D03*
X102235000Y-71120000D03*
X104775000Y-71120000D03*
X107315000Y-71120000D03*
X109855000Y-71120000D03*
X112395000Y-71120000D03*
X114935000Y-71120000D03*
X117475000Y-71120000D03*
X120015000Y-71120000D03*
X120015000Y-63500000D03*
X117475000Y-63500000D03*
X114935000Y-63500000D03*
X112395000Y-63500000D03*
X109855000Y-63500000D03*
X107315000Y-63500000D03*
X104775000Y-63500000D03*
X102235000Y-63500000D03*
X99695000Y-63500000D03*
X97155000Y-63500000D03*
D13*
X92710000Y-88265000D03*
X92710000Y-93265000D03*
X90170000Y-102870000D03*
X90170000Y-107870000D03*
X159425000Y-92965000D03*
X164425000Y-92965000D03*
X159425000Y-61595000D03*
X164425000Y-61595000D03*
X112030000Y-95925000D03*
X112030000Y-100925000D03*
X112030000Y-79415000D03*
X112030000Y-84415000D03*
X89535000Y-64770000D03*
X89535000Y-69770000D03*
D18*
X121190000Y-88900000D03*
D13*
X121190000Y-91440000D03*
X121190000Y-93980000D03*
X121190000Y-96520000D03*
X121190000Y-99060000D03*
X121190000Y-101600000D03*
X121190000Y-104140000D03*
X121190000Y-106680000D03*
X121190000Y-109220000D03*
D18*
X87630000Y-76200000D03*
D13*
X87630000Y-78740000D03*
X87630000Y-81280000D03*
X87630000Y-83820000D03*
X87630000Y-86360000D03*
X87630000Y-88900000D03*
X87630000Y-91440000D03*
X87630000Y-93980000D03*
X87630000Y-96520000D03*
D18*
X81280000Y-90170000D03*
D13*
X81280000Y-92710000D03*
X81280000Y-95250000D03*
X81280000Y-97790000D03*
X81280000Y-100330000D03*
X81280000Y-102870000D03*
X81280000Y-105410000D03*
X81280000Y-107950000D03*
X81280000Y-110490000D03*
D19*
X143425000Y-112000000D03*
D20*
X143125000Y-108970000D03*
X138275000Y-108970000D03*
D19*
X137975000Y-112000000D03*
D21*
X71600000Y-93660000D03*
D22*
X74140000Y-93660000D03*
X71600000Y-91120000D03*
X74140000Y-91120000D03*
X71600000Y-88580000D03*
X74140000Y-88580000D03*
X71600000Y-86040000D03*
X74140000Y-86040000D03*
X71600000Y-83500000D03*
X74140000Y-83500000D03*
X71600000Y-80960000D03*
X74140000Y-80960000D03*
X71600000Y-78420000D03*
X74140000Y-78420000D03*
X71600000Y-75880000D03*
X74140000Y-75880000D03*
X71600000Y-73340000D03*
X74140000Y-73340000D03*
X71600000Y-70800000D03*
X74140000Y-70800000D03*
X71600000Y-68260000D03*
X74140000Y-68260000D03*
X71600000Y-65720000D03*
X74140000Y-65720000D03*
X71600000Y-63180000D03*
X74140000Y-63180000D03*
X71600000Y-60640000D03*
X74140000Y-60640000D03*
X71600000Y-58100000D03*
X74140000Y-58100000D03*
X71600000Y-55560000D03*
X74140000Y-55560000D03*
X71600000Y-53020000D03*
X74140000Y-53020000D03*
D23*
X162400000Y-82232500D03*
%LPD*%
M02*
