G04 #@! TF.GenerationSoftware,KiCad,Pcbnew,9.0.3*
G04 #@! TF.CreationDate,2025-07-22T08:58:47+01:00*
G04 #@! TF.ProjectId,megaflash,6d656761-666c-4617-9368-2e6b69636164,rev?*
G04 #@! TF.SameCoordinates,Original*
G04 #@! TF.FileFunction,Soldermask,Top*
G04 #@! TF.FilePolarity,Negative*
%FSLAX46Y46*%
G04 Gerber Fmt 4.6, Leading zero omitted, Abs format (unit mm)*
G04 Created by KiCad (PCBNEW 9.0.3) date 2025-07-22 08:58:47*
%MOMM*%
%LPD*%
G01*
G04 APERTURE LIST*
G04 Aperture macros list*
%AMRoundRect*
0 Rectangle with rounded corners*
0 $1 Rounding radius*
0 $2 $3 $4 $5 $6 $7 $8 $9 X,Y pos of 4 corners*
0 Add a 4 corners polygon primitive as box body*
4,1,4,$2,$3,$4,$5,$6,$7,$8,$9,$2,$3,0*
0 Add four circle primitives for the rounded corners*
1,1,$1+$1,$2,$3*
1,1,$1+$1,$4,$5*
1,1,$1+$1,$6,$7*
1,1,$1+$1,$8,$9*
0 Add four rect primitives between the rounded corners*
20,1,$1+$1,$2,$3,$4,$5,0*
20,1,$1+$1,$4,$5,$6,$7,0*
20,1,$1+$1,$6,$7,$8,$9,0*
20,1,$1+$1,$8,$9,$2,$3,0*%
G04 Aperture macros list end*
%ADD10RoundRect,0.250000X0.550000X0.550000X-0.550000X0.550000X-0.550000X-0.550000X0.550000X-0.550000X0*%
%ADD11C,1.600000*%
%ADD12RoundRect,0.249999X1.143249X0.371464X-0.371464X1.143249X-1.143249X-0.371464X0.371464X-1.143249X0*%
%ADD13C,2.200000*%
%ADD14RoundRect,0.250000X0.550000X-0.950000X0.550000X0.950000X-0.550000X0.950000X-0.550000X-0.950000X0*%
%ADD15O,1.600000X2.400000*%
%ADD16RoundRect,0.150000X-0.875000X-0.150000X0.875000X-0.150000X0.875000X0.150000X-0.875000X0.150000X0*%
%ADD17R,1.600000X1.600000*%
%ADD18O,1.800000X1.800000*%
%ADD19O,1.500000X1.500000*%
%ADD20R,3.500000X1.700000*%
%ADD21R,1.700000X1.700000*%
%ADD22O,1.700000X1.700000*%
%ADD23RoundRect,0.250000X-0.650000X1.000000X-0.650000X-1.000000X0.650000X-1.000000X0.650000X1.000000X0*%
%ADD24C,2.700000*%
G04 APERTURE END LIST*
D10*
X73755000Y-101600000D03*
D11*
X71755000Y-101600000D03*
X165970000Y-89120000D03*
X155810000Y-89120000D03*
X165970000Y-111415000D03*
X155810000Y-111415000D03*
D12*
X88265000Y-58420000D03*
D13*
X79212374Y-53807457D03*
D14*
X97155000Y-71120000D03*
D15*
X99695000Y-71120000D03*
X102235000Y-71120000D03*
X104775000Y-71120000D03*
X107315000Y-71120000D03*
X109855000Y-71120000D03*
X112395000Y-71120000D03*
X114935000Y-71120000D03*
X117475000Y-71120000D03*
X120015000Y-71120000D03*
X120015000Y-63500000D03*
X117475000Y-63500000D03*
X114935000Y-63500000D03*
X112395000Y-63500000D03*
X109855000Y-63500000D03*
X107315000Y-63500000D03*
X104775000Y-63500000D03*
X102235000Y-63500000D03*
X99695000Y-63500000D03*
X97155000Y-63500000D03*
D16*
X157510000Y-97110000D03*
X157510000Y-98380000D03*
X157510000Y-99650000D03*
X157510000Y-100920000D03*
X157510000Y-102190000D03*
X157510000Y-103460000D03*
X157510000Y-104730000D03*
X157510000Y-106000000D03*
X166810000Y-106000000D03*
X166810000Y-104730000D03*
X166810000Y-103460000D03*
X166810000Y-102190000D03*
X166810000Y-100920000D03*
X166810000Y-99650000D03*
X166810000Y-98380000D03*
X166810000Y-97110000D03*
X157510000Y-65745000D03*
X157510000Y-67015000D03*
X157510000Y-68285000D03*
X157510000Y-69555000D03*
X157510000Y-70825000D03*
X157510000Y-72095000D03*
X157510000Y-73365000D03*
X157510000Y-74635000D03*
X166810000Y-74635000D03*
X166810000Y-73365000D03*
X166810000Y-72095000D03*
X166810000Y-70825000D03*
X166810000Y-69555000D03*
X166810000Y-68285000D03*
X166810000Y-67015000D03*
X166810000Y-65745000D03*
X97110000Y-76200000D03*
X97110000Y-77470000D03*
X97110000Y-78740000D03*
X97110000Y-80010000D03*
X97110000Y-81280000D03*
X97110000Y-82550000D03*
X97110000Y-83820000D03*
X97110000Y-85090000D03*
X97110000Y-86360000D03*
X97110000Y-87630000D03*
X97110000Y-88900000D03*
X97110000Y-90170000D03*
X106410000Y-90170000D03*
X106410000Y-88900000D03*
X106410000Y-87630000D03*
X106410000Y-86360000D03*
X106410000Y-85090000D03*
X106410000Y-83820000D03*
X106410000Y-82550000D03*
X106410000Y-81280000D03*
X106410000Y-80010000D03*
X106410000Y-78740000D03*
X106410000Y-77470000D03*
X106410000Y-76200000D03*
X97110000Y-95250000D03*
X97110000Y-96520000D03*
X97110000Y-97790000D03*
X97110000Y-99060000D03*
X97110000Y-100330000D03*
X97110000Y-101600000D03*
X97110000Y-102870000D03*
X97110000Y-104140000D03*
X97110000Y-105410000D03*
X97110000Y-106680000D03*
X97110000Y-107950000D03*
X97110000Y-109220000D03*
X106410000Y-109220000D03*
X106410000Y-107950000D03*
X106410000Y-106680000D03*
X106410000Y-105410000D03*
X106410000Y-104140000D03*
X106410000Y-102870000D03*
X106410000Y-101600000D03*
X106410000Y-100330000D03*
X106410000Y-99060000D03*
X106410000Y-97790000D03*
X106410000Y-96520000D03*
X106410000Y-95250000D03*
D11*
X92710000Y-88265000D03*
X92710000Y-93265000D03*
X90170000Y-102870000D03*
X90170000Y-107870000D03*
X159425000Y-92965000D03*
X164425000Y-92965000D03*
X159425000Y-61595000D03*
X164425000Y-61595000D03*
X112030000Y-95925000D03*
X112030000Y-100925000D03*
X112030000Y-79415000D03*
X112030000Y-84415000D03*
X89535000Y-64770000D03*
X89535000Y-69770000D03*
D17*
X121190000Y-88900000D03*
D11*
X121190000Y-91440000D03*
X121190000Y-93980000D03*
X121190000Y-96520000D03*
X121190000Y-99060000D03*
X121190000Y-101600000D03*
X121190000Y-104140000D03*
X121190000Y-106680000D03*
X121190000Y-109220000D03*
D17*
X87630000Y-76200000D03*
D11*
X87630000Y-78740000D03*
X87630000Y-81280000D03*
X87630000Y-83820000D03*
X87630000Y-86360000D03*
X87630000Y-88900000D03*
X87630000Y-91440000D03*
X87630000Y-93980000D03*
X87630000Y-96520000D03*
D17*
X81280000Y-90170000D03*
D11*
X81280000Y-92710000D03*
X81280000Y-95250000D03*
X81280000Y-97790000D03*
X81280000Y-100330000D03*
X81280000Y-102870000D03*
X81280000Y-105410000D03*
X81280000Y-107950000D03*
X81280000Y-110490000D03*
D18*
X143425000Y-112000000D03*
D19*
X143125000Y-108970000D03*
X138275000Y-108970000D03*
D18*
X137975000Y-112000000D03*
D20*
X150490000Y-112130000D03*
X150490000Y-109590000D03*
X150490000Y-107050000D03*
X150490000Y-104510000D03*
X150490000Y-101970000D03*
X150490000Y-99430000D03*
X150490000Y-96890000D03*
X150490000Y-94350000D03*
X150490000Y-91810000D03*
X150490000Y-89270000D03*
X150490000Y-86730000D03*
X150490000Y-84190000D03*
X150490000Y-81650000D03*
X150490000Y-79110000D03*
X150490000Y-76570000D03*
X150490000Y-74030000D03*
X150490000Y-71490000D03*
X150490000Y-68950000D03*
X150490000Y-66410000D03*
X150490000Y-63870000D03*
X130910000Y-63870000D03*
X130910000Y-66410000D03*
X130910000Y-68950000D03*
X130910000Y-71490000D03*
X130910000Y-74030000D03*
X130910000Y-76570000D03*
X130910000Y-79110000D03*
X130910000Y-81650000D03*
X130910000Y-84190000D03*
X130910000Y-86730000D03*
X130910000Y-89270000D03*
X130910000Y-91810000D03*
X130910000Y-94350000D03*
X130910000Y-96890000D03*
X130910000Y-99430000D03*
X130910000Y-101970000D03*
X130910000Y-104510000D03*
X130910000Y-107050000D03*
X130910000Y-109590000D03*
X130910000Y-112130000D03*
D21*
X71600000Y-93660000D03*
D22*
X74140000Y-93660000D03*
X71600000Y-91120000D03*
X74140000Y-91120000D03*
X71600000Y-88580000D03*
X74140000Y-88580000D03*
X71600000Y-86040000D03*
X74140000Y-86040000D03*
X71600000Y-83500000D03*
X74140000Y-83500000D03*
X71600000Y-80960000D03*
X74140000Y-80960000D03*
X71600000Y-78420000D03*
X74140000Y-78420000D03*
X71600000Y-75880000D03*
X74140000Y-75880000D03*
X71600000Y-73340000D03*
X74140000Y-73340000D03*
X71600000Y-70800000D03*
X74140000Y-70800000D03*
X71600000Y-68260000D03*
X74140000Y-68260000D03*
X71600000Y-65720000D03*
X74140000Y-65720000D03*
X71600000Y-63180000D03*
X74140000Y-63180000D03*
X71600000Y-60640000D03*
X74140000Y-60640000D03*
X71600000Y-58100000D03*
X74140000Y-58100000D03*
X71600000Y-55560000D03*
X74140000Y-55560000D03*
X71600000Y-53020000D03*
X74140000Y-53020000D03*
D23*
X78305000Y-57685000D03*
X78305000Y-61685000D03*
D24*
X162400000Y-82232500D03*
M02*
