M48
; DRILL file {KiCad 9.0.3} date 2025-07-22T08:59:43+0100
; FORMAT={-:-/ absolute / metric / decimal}
; #@! TF.CreationDate,2025-07-22T08:59:43+01:00
; #@! TF.GenerationSoftware,Kicad,Pcbnew,9.0.3
; #@! TF.FileFunction,Plated,1,2,PTH
FMAT,2
METRIC
; #@! TA.AperFunction,Plated,PTH,ViaDrill
T1C0.300
; #@! TA.AperFunction,Plated,PTH,ViaDrill
T2C0.400
; #@! TA.AperFunction,Plated,PTH,ComponentDrill
T3C0.800
; #@! TA.AperFunction,Plated,PTH,ComponentDrill
T4C1.000
; #@! TA.AperFunction,Plated,PTH,ComponentDrill
T5C1.100
%
G90
G05
T1
X78.105Y-73.025
X79.375Y-70.485
X79.375Y-72.39
X80.645Y-71.12
X81.915Y-71.755
X81.915Y-74.93
X83.625Y-61.79
X83.82Y-64.77
X83.82Y-93.98
X84.455Y-67.31
X84.455Y-92.71
X85.09Y-97.79
X90.805Y-97.155
X91.44Y-81.28
X92.075Y-62.23
X92.71Y-76.2
X92.94Y-64.675
X93.98Y-82.55
X94.615Y-96.52
X99.695Y-87.63
X100.965Y-90.17
X103.505Y-83.82
X104.14Y-60.325
X104.14Y-85.09
X109.855Y-76.2
X109.855Y-88.9
X115.252Y-96.203
X116.205Y-99.06
X116.84Y-100.33
X116.84Y-91.44
X117.475Y-93.98
X117.475Y-101.6
X118.11Y-78.74
X118.11Y-87.63
X118.11Y-96.52
X118.745Y-60.96
X121.92Y-61.595
X121.92Y-84.455
X124.46Y-64.135
X125.73Y-66.675
X125.73Y-93.98
X127.0Y-72.39
X127.0Y-91.44
X128.27Y-74.295
X128.27Y-85.725
X133.35Y-74.93
X136.525Y-81.915
X136.525Y-94.615
X136.525Y-107.05
X137.16Y-77.72
X137.795Y-79.375
X137.795Y-87.88
X139.7Y-83.04
X139.7Y-89.535
X142.24Y-80.5
X142.24Y-92.075
X144.78Y-76.835
X145.415Y-105.9
X146.05Y-103.36
X147.32Y-74.295
X147.32Y-100.82
X147.955Y-75.42
X152.876Y-66.251
X153.035Y-104.51
X153.67Y-64.135
X153.67Y-80.441
X153.67Y-99.43
X153.67Y-101.97
X154.68Y-68.955
X154.905Y-70.169
X155.381Y-96.299
X155.575Y-104.73
X155.67Y-74.176
X156.153Y-94.35
X159.46Y-99.695
X159.66Y-106.13
X161.925Y-99.06
X163.195Y-98.38
X163.512Y-73.343
T2
X81.475Y-76.2
X85.09Y-102.87
X86.36Y-70.29
X93.345Y-109.22
X95.885Y-92.71
X100.965Y-78.74
X100.965Y-81.28
X111.125Y-111.125
X111.76Y-90.17
X114.105Y-88.9
X120.015Y-84.455
X126.365Y-100.33
X147.189Y-101.915
X160.02Y-71.755
X164.465Y-104.83
X164.465Y-109.22
T3
X71.755Y-101.6
X73.755Y-101.6
X81.28Y-90.17
X81.28Y-92.71
X81.28Y-95.25
X81.28Y-97.79
X81.28Y-100.33
X81.28Y-102.87
X81.28Y-105.41
X81.28Y-107.95
X81.28Y-110.49
X87.63Y-76.2
X87.63Y-78.74
X87.63Y-81.28
X87.63Y-83.82
X87.63Y-86.36
X87.63Y-88.9
X87.63Y-91.44
X87.63Y-93.98
X87.63Y-96.52
X89.535Y-64.77
X89.535Y-69.77
X90.17Y-102.87
X90.17Y-107.87
X92.71Y-88.265
X92.71Y-93.265
X97.155Y-63.5
X97.155Y-71.12
X99.695Y-63.5
X99.695Y-71.12
X102.235Y-63.5
X102.235Y-71.12
X104.775Y-63.5
X104.775Y-71.12
X107.315Y-63.5
X107.315Y-71.12
X109.855Y-63.5
X109.855Y-71.12
X112.03Y-79.415
X112.03Y-84.415
X112.03Y-95.925
X112.03Y-100.925
X112.395Y-63.5
X112.395Y-71.12
X114.935Y-63.5
X114.935Y-71.12
X117.475Y-63.5
X117.475Y-71.12
X120.015Y-63.5
X120.015Y-71.12
X121.19Y-88.9
X121.19Y-91.44
X121.19Y-93.98
X121.19Y-96.52
X121.19Y-99.06
X121.19Y-101.6
X121.19Y-104.14
X121.19Y-106.68
X121.19Y-109.22
X155.81Y-89.12
X155.81Y-111.415
X159.425Y-61.595
X159.425Y-92.965
X164.425Y-61.595
X164.425Y-92.965
X165.97Y-89.12
X165.97Y-111.415
T4
X71.6Y-53.02
X71.6Y-55.56
X71.6Y-58.1
X71.6Y-60.64
X71.6Y-63.18
X71.6Y-65.72
X71.6Y-68.26
X71.6Y-70.8
X71.6Y-73.34
X71.6Y-75.88
X71.6Y-78.42
X71.6Y-80.96
X71.6Y-83.5
X71.6Y-86.04
X71.6Y-88.58
X71.6Y-91.12
X71.6Y-93.66
X74.14Y-53.02
X74.14Y-55.56
X74.14Y-58.1
X74.14Y-60.64
X74.14Y-63.18
X74.14Y-65.72
X74.14Y-68.26
X74.14Y-70.8
X74.14Y-73.34
X74.14Y-75.88
X74.14Y-78.42
X74.14Y-80.96
X74.14Y-83.5
X74.14Y-86.04
X74.14Y-88.58
X74.14Y-91.12
X74.14Y-93.66
T5
X79.212Y-53.807
X88.265Y-58.42
M30
