M48
; DRILL file {KiCad 9.0.4} date 2025-08-19T20:08:21+0100
; FORMAT={-:-/ absolute / metric / decimal}
; #@! TF.CreationDate,2025-08-19T20:08:21+01:00
; #@! TF.GenerationSoftware,Kicad,Pcbnew,9.0.4
; #@! TF.FileFunction,Plated,1,2,PTH
FMAT,2
METRIC
; #@! TA.AperFunction,Plated,PTH,ViaDrill
T1C0.300
; #@! TA.AperFunction,Plated,PTH,ViaDrill
T2C0.400
; #@! TA.AperFunction,Plated,PTH,ComponentDrill
T3C0.800
; #@! TA.AperFunction,Plated,PTH,ComponentDrill
T4C1.000
; #@! TA.AperFunction,Plated,PTH,ComponentDrill
T5C1.100
%
G90
G05
T1
X75.978Y-63.5
X76.708Y-60.96
X77.909Y-77.031
X78.74Y-75.692
X78.925Y-59.69
X78.925Y-64.331
X79.248Y-71.12
X79.502Y-74.422
X79.756Y-70.358
X80.01Y-72.39
X80.01Y-76.2
X80.55Y-78.74
X81.38Y-69.764
X85.598Y-58.96
X85.598Y-68.834
X85.598Y-69.85
X86.36Y-55.626
X86.36Y-79.756
X87.122Y-82.042
X87.376Y-54.61
X87.799Y-62.061
X87.852Y-66.746
X87.884Y-64.77
X92.964Y-59.69
X93.25Y-64.77
X93.98Y-81.164
X96.883Y-68.856
X101.738Y-73.544
X112.268Y-66.39
X121.412Y-56.388
X121.412Y-70.104
X123.444Y-57.658
X123.444Y-67.564
X124.206Y-59.69
X124.206Y-65.024
X125.222Y-61.214
X125.222Y-63.754
X127.254Y-53.594
X127.762Y-48.514
X128.27Y-45.974
X133.604Y-58.674
X133.604Y-87.63
X134.366Y-56.896
X134.366Y-85.344
X135.128Y-57.912
X135.128Y-82.55
X136.144Y-59.944
X136.144Y-80.01
X136.906Y-62.484
X136.906Y-77.47
X138.176Y-84.328
X146.304Y-89.05
X146.367Y-76.35
X153.058Y-81.43
X153.416Y-93.726
X154.686Y-79.248
X154.94Y-92.71
X156.21Y-61.468
X159.425Y-85.09
T2
X95.758Y-60.96
X112.268Y-72.74
X127.508Y-93.472
X138.176Y-72.644
X152.908Y-51.562
X152.908Y-63.754
X159.512Y-53.848
X159.512Y-93.726
X164.592Y-92.71
X165.1Y-58.42
T3
X83.185Y-60.96
X83.185Y-63.5
X83.185Y-66.04
X83.185Y-68.58
X83.185Y-71.12
X83.185Y-73.66
X83.185Y-76.2
X83.185Y-78.74
X83.185Y-81.28
X83.185Y-83.82
X84.495Y-53.34
X89.495Y-53.34
X90.805Y-60.96
X90.805Y-63.5
X90.805Y-66.04
X90.805Y-68.58
X90.805Y-71.12
X90.805Y-73.66
X90.805Y-76.2
X90.805Y-78.74
X90.805Y-81.28
X90.805Y-83.82
X99.695Y-46.705
X99.695Y-49.245
X99.695Y-51.785
X99.695Y-54.325
X99.695Y-56.865
X99.695Y-59.405
X99.695Y-61.945
X99.695Y-64.485
X99.695Y-67.025
X99.695Y-72.105
X99.695Y-74.645
X99.695Y-77.185
X99.695Y-79.725
X99.695Y-82.265
X99.695Y-84.805
X99.695Y-87.345
X99.695Y-89.885
X99.695Y-92.425
X105.45Y-72.74
X106.085Y-47.625
X110.45Y-72.74
X111.085Y-47.625
X114.975Y-47.625
X114.975Y-72.74
X119.975Y-47.625
X119.975Y-72.74
X124.46Y-72.105
X124.46Y-74.645
X124.46Y-77.185
X124.46Y-79.725
X124.46Y-82.265
X124.46Y-84.805
X124.46Y-87.345
X124.46Y-89.885
X124.46Y-92.425
X156.845Y-65.786
X156.845Y-69.215
X159.425Y-46.595
X159.425Y-81.63
X164.425Y-46.595
X164.425Y-81.63
X167.005Y-65.786
X167.005Y-69.215
T4
X71.6Y-53.02
X71.6Y-55.56
X71.6Y-58.1
X71.6Y-60.64
X71.6Y-63.18
X71.6Y-65.72
X71.6Y-68.26
X71.6Y-70.8
X71.6Y-73.34
X71.6Y-75.88
X71.6Y-78.42
X71.6Y-80.96
X71.6Y-83.5
X71.6Y-86.04
X71.6Y-88.58
X71.6Y-91.12
X71.6Y-93.66
X74.14Y-53.02
X74.14Y-55.56
X74.14Y-58.1
X74.14Y-60.64
X74.14Y-63.18
X74.14Y-65.72
X74.14Y-68.26
X74.14Y-70.8
X74.14Y-73.34
X74.14Y-75.88
X74.14Y-78.42
X74.14Y-80.96
X74.14Y-83.5
X74.14Y-86.04
X74.14Y-88.58
X74.14Y-91.12
X74.14Y-93.66
T5
X78.74Y-47.34
X88.9Y-47.34
M30
