G04 #@! TF.GenerationSoftware,KiCad,Pcbnew,9.0.4*
G04 #@! TF.CreationDate,2025-09-07T09:46:17+01:00*
G04 #@! TF.ProjectId,megaflash,6d656761-666c-4617-9368-2e6b69636164,rev?*
G04 #@! TF.SameCoordinates,Original*
G04 #@! TF.FileFunction,Copper,L2,Bot*
G04 #@! TF.FilePolarity,Positive*
%FSLAX46Y46*%
G04 Gerber Fmt 4.6, Leading zero omitted, Abs format (unit mm)*
G04 Created by KiCad (PCBNEW 9.0.4) date 2025-09-07 09:46:17*
%MOMM*%
%LPD*%
G01*
G04 APERTURE LIST*
G04 #@! TA.AperFunction,ComponentPad*
%ADD10R,1.700000X1.700000*%
G04 #@! TD*
G04 #@! TA.AperFunction,ComponentPad*
%ADD11O,1.700000X1.700000*%
G04 #@! TD*
G04 #@! TA.AperFunction,ViaPad*
%ADD12C,0.800000*%
G04 #@! TD*
G04 #@! TA.AperFunction,ViaPad*
%ADD13C,0.600000*%
G04 #@! TD*
G04 #@! TA.AperFunction,Conductor*
%ADD14C,0.400000*%
G04 #@! TD*
G04 #@! TA.AperFunction,Conductor*
%ADD15C,0.200000*%
G04 #@! TD*
G04 APERTURE END LIST*
D10*
X71600000Y-93660000D03*
D11*
X74140000Y-93660000D03*
X71600000Y-91120000D03*
X74140000Y-91120000D03*
X71600000Y-88580000D03*
X74140000Y-88580000D03*
X71600000Y-86040000D03*
X74140000Y-86040000D03*
X71600000Y-83500000D03*
X74140000Y-83500000D03*
X71600000Y-80960000D03*
X74140000Y-80960000D03*
X71600000Y-78420000D03*
X74140000Y-78420000D03*
X71600000Y-75880000D03*
X74140000Y-75880000D03*
X71600000Y-73340000D03*
X74140000Y-73340000D03*
X71600000Y-70800000D03*
X74140000Y-70800000D03*
X71600000Y-68260000D03*
X74140000Y-68260000D03*
X71600000Y-65720000D03*
X74140000Y-65720000D03*
X71600000Y-63180000D03*
X74140000Y-63180000D03*
X71600000Y-60640000D03*
X74140000Y-60640000D03*
X71600000Y-58100000D03*
X74140000Y-58100000D03*
X71600000Y-55560000D03*
X74140000Y-55560000D03*
X71600000Y-53020000D03*
X74140000Y-53020000D03*
D12*
X92963998Y-53594000D03*
X116840000Y-90170000D03*
X90424000Y-84500000D03*
X90424000Y-58100000D03*
X90424000Y-79397500D03*
X116840000Y-64650000D03*
X90424000Y-68602500D03*
X102616000Y-48260000D03*
X133350000Y-64516000D03*
X108712000Y-64516000D03*
D13*
X116840000Y-77400000D03*
D12*
X90932000Y-94910000D03*
X108712000Y-51772626D03*
X90424000Y-75587500D03*
X90764000Y-64262000D03*
X76708000Y-81280000D03*
X90424000Y-72412500D03*
X107188000Y-89916000D03*
X133604000Y-52402899D03*
X107188000Y-95504000D03*
X106172000Y-93472000D03*
X91694000Y-81026000D03*
X91694000Y-77492500D03*
X92202000Y-51054000D03*
X91694000Y-70507500D03*
X91694000Y-62992000D03*
X107696000Y-45974000D03*
X106172000Y-81280000D03*
X92964000Y-77470000D03*
X92964000Y-70450000D03*
X92964000Y-62738000D03*
X92456000Y-94080002D03*
X92964000Y-83058000D03*
X105156000Y-84500000D03*
X92456000Y-88900000D03*
X105328000Y-80372500D03*
D13*
X82804000Y-67332500D03*
X78740000Y-75438000D03*
X84836000Y-56642000D03*
X82042000Y-68834000D03*
X78994000Y-49784000D03*
X77724000Y-75880000D03*
X79756000Y-70800000D03*
X82296000Y-55118000D03*
X84836000Y-70104000D03*
X84713219Y-88915167D03*
X80518000Y-52578000D03*
X78740000Y-73340000D03*
X77470000Y-48006000D03*
X76708000Y-78486000D03*
X77470000Y-76962000D03*
X78232000Y-48768000D03*
X96774000Y-61976000D03*
X81788000Y-75946000D03*
X96266000Y-52832000D03*
X81026000Y-63180000D03*
X81280000Y-53848000D03*
X79248000Y-71951000D03*
X80518000Y-71374000D03*
X85598000Y-61214000D03*
X85598000Y-74930000D03*
X80518000Y-58928000D03*
X80518000Y-68260000D03*
X79502000Y-51308000D03*
X78232000Y-74491000D03*
X99568000Y-65532000D03*
X99568000Y-55118000D03*
X84328000Y-92202000D03*
X84582000Y-69237500D03*
X75946000Y-48514000D03*
X83566000Y-93218000D03*
X83566000Y-68072000D03*
X88900000Y-59690000D03*
X89154000Y-76708000D03*
X95536000Y-59436000D03*
X95536000Y-52070000D03*
X77978000Y-77724000D03*
X79756000Y-73152000D03*
X100330000Y-66040000D03*
X100330000Y-54102000D03*
X106934000Y-57032813D03*
X106934000Y-76857500D03*
X100076000Y-77978000D03*
X94810000Y-66802000D03*
X94488000Y-58420000D03*
X100838000Y-78740000D03*
X93726000Y-54610000D03*
X93726000Y-74422000D03*
X106426000Y-46990000D03*
X102108000Y-71882000D03*
X105410000Y-74422000D03*
X105410000Y-62230000D03*
X97536000Y-56896000D03*
X98044000Y-66926500D03*
X105156000Y-54610000D03*
X103918000Y-72644000D03*
X126238000Y-62992000D03*
X124968000Y-75438000D03*
X132962000Y-49410000D03*
X128524000Y-71120000D03*
X98044000Y-82550000D03*
X98298000Y-80518000D03*
X101600000Y-67818000D03*
X101886000Y-57855962D03*
X133096000Y-46990000D03*
X127254000Y-73152000D03*
X101092000Y-60960000D03*
X100815500Y-67332500D03*
X105156000Y-59690000D03*
X104648000Y-73660000D03*
X127762000Y-62100000D03*
X127762000Y-68580000D03*
X103124000Y-72136000D03*
X106680000Y-49276000D03*
X106172000Y-67056000D03*
X105156000Y-52324000D03*
X99104000Y-79800000D03*
X99314000Y-93250002D03*
X101346000Y-80518000D03*
X108204000Y-93980000D03*
X101092000Y-93726000D03*
X96266000Y-94742000D03*
X108204000Y-83312000D03*
X104902000Y-86360000D03*
X98552000Y-95504000D03*
X86614000Y-95758000D03*
X91968025Y-85917123D03*
X91948000Y-87630000D03*
D14*
X90424000Y-68602500D02*
X90424000Y-72412500D01*
X90424000Y-94402000D02*
X90424000Y-84500000D01*
X90424000Y-63922000D02*
X90424000Y-58100000D01*
X108712000Y-51772626D02*
X108712000Y-64516000D01*
X90764000Y-64262000D02*
X90424000Y-63922000D01*
X116840000Y-77216000D02*
X116840000Y-77470000D01*
X107188000Y-89916000D02*
X107188000Y-95504000D01*
X133350000Y-64516000D02*
X133350000Y-52656899D01*
X74140000Y-55560000D02*
X74140000Y-58100000D01*
X76360000Y-81280000D02*
X74140000Y-83500000D01*
X116840000Y-64650000D02*
X116840000Y-77216000D01*
X90424000Y-68602500D02*
X90424000Y-64602000D01*
X90424000Y-72412500D02*
X90424000Y-84500000D01*
X90932000Y-94910000D02*
X90424000Y-94402000D01*
X76708000Y-81280000D02*
X76360000Y-81280000D01*
X102616000Y-48260000D02*
X98298000Y-48260000D01*
X90424000Y-64602000D02*
X90764000Y-64262000D01*
X133350000Y-52656899D02*
X133604000Y-52402899D01*
X116840000Y-77470000D02*
X116840000Y-90170000D01*
X98298000Y-48260000D02*
X92963998Y-53594000D01*
X106172000Y-81280000D02*
X107696000Y-79756000D01*
X107696000Y-79756000D02*
X107696000Y-45974000D01*
X92202000Y-51054000D02*
X91694000Y-51562000D01*
X106172000Y-81280000D02*
X106172000Y-93472000D01*
X91694000Y-77492500D02*
X91694000Y-62992000D01*
X91694000Y-77492500D02*
X91694000Y-81026000D01*
X91694000Y-51562000D02*
X91694000Y-62992000D01*
X92456000Y-94080002D02*
X92456000Y-88900000D01*
X92964000Y-77470000D02*
X92964000Y-70612000D01*
X92964000Y-70612000D02*
X92964000Y-62738000D01*
X105156000Y-84582000D02*
X105328000Y-84410000D01*
X92456000Y-88900000D02*
X92964000Y-88392000D01*
X105328000Y-84410000D02*
X105328000Y-80372500D01*
X105156000Y-84500000D02*
X105156000Y-84582000D01*
X92964000Y-83058000D02*
X92964000Y-77470000D01*
X92964000Y-88392000D02*
X92964000Y-83058000D01*
D15*
X82804000Y-67332500D02*
X82804000Y-94234000D01*
X82804000Y-94234000D02*
X82227000Y-94811000D01*
X72751000Y-94811000D02*
X71600000Y-93660000D01*
X82227000Y-94811000D02*
X72751000Y-94811000D01*
X78740000Y-83067760D02*
X74616760Y-87191000D01*
X78740000Y-75438000D02*
X78740000Y-83067760D01*
X74616760Y-87191000D02*
X72751000Y-87191000D01*
X72751000Y-87191000D02*
X71600000Y-86040000D01*
X84836000Y-56642000D02*
X82042000Y-59436000D01*
X82042000Y-59436000D02*
X82042000Y-68834000D01*
X78994000Y-49784000D02*
X77470000Y-51308000D01*
X77470000Y-75626000D02*
X77724000Y-75880000D01*
X77470000Y-51308000D02*
X77470000Y-75626000D01*
X79756000Y-57658000D02*
X79756000Y-70800000D01*
X82296000Y-55118000D02*
X79756000Y-57658000D01*
X84582000Y-88783948D02*
X84713219Y-88915167D01*
X84836000Y-70104000D02*
X84582000Y-70358000D01*
X84582000Y-70358000D02*
X84582000Y-88783948D01*
X80518000Y-52578000D02*
X78486000Y-54610000D01*
X78486000Y-54610000D02*
X78486000Y-73086000D01*
X78486000Y-73086000D02*
X78740000Y-73340000D01*
X76454000Y-49022000D02*
X77470000Y-48006000D01*
X76454000Y-78232000D02*
X76454000Y-49022000D01*
X76708000Y-78486000D02*
X76454000Y-78232000D01*
X76962000Y-76454000D02*
X76962000Y-50038000D01*
X77470000Y-76962000D02*
X76962000Y-76454000D01*
X76962000Y-50038000D02*
X78232000Y-48768000D01*
X96266000Y-61468000D02*
X96266000Y-52832000D01*
X81280000Y-75438000D02*
X81280000Y-63434000D01*
X96774000Y-61976000D02*
X96266000Y-61468000D01*
X81788000Y-75946000D02*
X81280000Y-75438000D01*
X81280000Y-63434000D02*
X81026000Y-63180000D01*
X81280000Y-53848000D02*
X78994000Y-56134000D01*
X78994000Y-71697000D02*
X79248000Y-71951000D01*
X78994000Y-56134000D02*
X78994000Y-71697000D01*
X80518000Y-76708000D02*
X80518000Y-87630000D01*
X71600000Y-88580000D02*
X72751000Y-89731000D01*
X80518000Y-71374000D02*
X80518000Y-76708000D01*
X72751000Y-89731000D02*
X78417000Y-89731000D01*
X78417000Y-89731000D02*
X80518000Y-87630000D01*
X85598000Y-61214000D02*
X85598000Y-74930000D01*
X80264000Y-59182000D02*
X80518000Y-58928000D01*
X80264000Y-68006000D02*
X80264000Y-59182000D01*
X80518000Y-68260000D02*
X80264000Y-68006000D01*
X79248000Y-51562000D02*
X77978000Y-52832000D01*
X79502000Y-51308000D02*
X79248000Y-51562000D01*
X77978000Y-74237000D02*
X78232000Y-74491000D01*
X77978000Y-52832000D02*
X77978000Y-74237000D01*
X99568000Y-65532000D02*
X99568000Y-55118000D01*
X84074000Y-91948000D02*
X84328000Y-92202000D01*
X84074000Y-69850000D02*
X84074000Y-91948000D01*
X84582000Y-69342000D02*
X84074000Y-69850000D01*
X84582000Y-69237500D02*
X84582000Y-69342000D01*
X75623000Y-79571000D02*
X72751000Y-79571000D01*
X75946000Y-79248000D02*
X75623000Y-79571000D01*
X72751000Y-79571000D02*
X71600000Y-78420000D01*
X75946000Y-48514000D02*
X75946000Y-79248000D01*
X83566000Y-68072000D02*
X83566000Y-93218000D01*
X95536000Y-59436000D02*
X95536000Y-52070000D01*
X88900000Y-59690000D02*
X89154000Y-59944000D01*
X89154000Y-59944000D02*
X89154000Y-76708000D01*
X77978000Y-82202000D02*
X74140000Y-86040000D01*
X77978000Y-77724000D02*
X77978000Y-82202000D01*
X76520000Y-88580000D02*
X74140000Y-88580000D01*
X79756000Y-85344000D02*
X76520000Y-88580000D01*
X79756000Y-73152000D02*
X79756000Y-85344000D01*
X100330000Y-53848000D02*
X100330000Y-54102000D01*
X100330000Y-66040000D02*
X100330000Y-54102000D01*
X106934000Y-57032813D02*
X106934000Y-76857500D01*
X94810000Y-66802000D02*
X94810000Y-75760000D01*
X94488000Y-66480000D02*
X94810000Y-66802000D01*
X94488000Y-58420000D02*
X94488000Y-66480000D01*
X97028000Y-77978000D02*
X100076000Y-77978000D01*
X94810000Y-75760000D02*
X97028000Y-77978000D01*
X96266000Y-78740000D02*
X100838000Y-78740000D01*
X93726000Y-74422000D02*
X93726000Y-76200000D01*
X93726000Y-74422000D02*
X93726000Y-54610000D01*
X93726000Y-76200000D02*
X96266000Y-78740000D01*
X102108000Y-71882000D02*
X102616000Y-71374000D01*
X102616000Y-50800000D02*
X106426000Y-46990000D01*
X102616000Y-71374000D02*
X102616000Y-50800000D01*
X105410000Y-74422000D02*
X105410000Y-62230000D01*
X97536000Y-66418500D02*
X98044000Y-66926500D01*
X97536000Y-56896000D02*
X97536000Y-66418500D01*
X104140000Y-55626000D02*
X104140000Y-72422000D01*
X105156000Y-54610000D02*
X104140000Y-55626000D01*
X104140000Y-72422000D02*
X103918000Y-72644000D01*
X126238000Y-62992000D02*
X126238000Y-74422000D01*
X126238000Y-74422000D02*
X125222000Y-75438000D01*
X125222000Y-75438000D02*
X124968000Y-75438000D01*
X131318000Y-51054000D02*
X131318000Y-68326000D01*
X131318000Y-68326000D02*
X128524000Y-71120000D01*
X132962000Y-49410000D02*
X131318000Y-51054000D01*
X98044000Y-80772000D02*
X98298000Y-80518000D01*
X98044000Y-82550000D02*
X98044000Y-80772000D01*
X101600000Y-67818000D02*
X102108000Y-67310000D01*
X102108000Y-58077962D02*
X101886000Y-57855962D01*
X102108000Y-67310000D02*
X102108000Y-58077962D01*
X133604000Y-50800000D02*
X132080000Y-52324000D01*
X132080000Y-69596000D02*
X128524000Y-73152000D01*
X128524000Y-73152000D02*
X127254000Y-73152000D01*
X133604000Y-47498000D02*
X133604000Y-50800000D01*
X132080000Y-52324000D02*
X132080000Y-69596000D01*
X133096000Y-46990000D02*
X133604000Y-47498000D01*
X101092000Y-67056000D02*
X101092000Y-60960000D01*
X100815500Y-67332500D02*
X101092000Y-67056000D01*
X104648000Y-60198000D02*
X105156000Y-59690000D01*
X104648000Y-73660000D02*
X104648000Y-60198000D01*
X127762000Y-68580000D02*
X127762000Y-62100000D01*
X103124000Y-72136000D02*
X103124000Y-52832000D01*
X103124000Y-52832000D02*
X106680000Y-49276000D01*
X106172000Y-53340000D02*
X106172000Y-67056000D01*
X105156000Y-52324000D02*
X106172000Y-53340000D01*
X99104000Y-93008000D02*
X99314000Y-93218000D01*
X99104000Y-79800000D02*
X99104000Y-93008000D01*
X99314000Y-93218000D02*
X99314000Y-93250002D01*
X101346000Y-93472000D02*
X101092000Y-93726000D01*
X101346000Y-92456000D02*
X101346000Y-93472000D01*
X108204000Y-83312000D02*
X108204000Y-93980000D01*
X101346000Y-93472000D02*
X100076000Y-94742000D01*
X100076000Y-94742000D02*
X96266000Y-94742000D01*
X101346000Y-80518000D02*
X101346000Y-92456000D01*
X101600000Y-95504000D02*
X98552000Y-95504000D01*
X104902000Y-86360000D02*
X104902000Y-92202000D01*
X104902000Y-92202000D02*
X101600000Y-95504000D01*
X98552000Y-95504000D02*
X98298000Y-95758000D01*
X98298000Y-95758000D02*
X86614000Y-95758000D01*
X91948000Y-87630000D02*
X91948000Y-85937148D01*
X91948000Y-85937148D02*
X91968025Y-85917123D01*
G04 #@! TA.AperFunction,Conductor*
G36*
X73674075Y-83307007D02*
G01*
X73640000Y-83434174D01*
X73640000Y-83565826D01*
X73674075Y-83692993D01*
X73706988Y-83750000D01*
X72033012Y-83750000D01*
X72065925Y-83692993D01*
X72100000Y-83565826D01*
X72100000Y-83434174D01*
X72065925Y-83307007D01*
X72033012Y-83250000D01*
X73706988Y-83250000D01*
X73674075Y-83307007D01*
G37*
G04 #@! TD.AperFunction*
G04 #@! TA.AperFunction,Conductor*
G36*
X77318666Y-79127899D02*
G01*
X77365357Y-79179878D01*
X77377500Y-79233395D01*
X77377500Y-81901901D01*
X77357815Y-81968940D01*
X77341181Y-81989582D01*
X75614382Y-83716380D01*
X75553059Y-83749865D01*
X75524396Y-83747815D01*
X75524396Y-83750000D01*
X74573012Y-83750000D01*
X74605925Y-83692993D01*
X74640000Y-83565826D01*
X74640000Y-83434174D01*
X74605925Y-83307007D01*
X74573012Y-83250000D01*
X75467231Y-83250000D01*
X75456757Y-83183873D01*
X75456757Y-83183870D01*
X75391095Y-82981782D01*
X75294620Y-82792442D01*
X75169727Y-82620540D01*
X75169723Y-82620535D01*
X75019464Y-82470276D01*
X75019459Y-82470272D01*
X74847555Y-82345377D01*
X74838500Y-82340763D01*
X74787706Y-82292788D01*
X74770912Y-82224966D01*
X74793451Y-82158832D01*
X74838508Y-82119793D01*
X74847816Y-82115051D01*
X74927007Y-82057515D01*
X75019786Y-81990109D01*
X75019788Y-81990106D01*
X75019792Y-81990104D01*
X75170104Y-81839792D01*
X75170106Y-81839788D01*
X75170109Y-81839786D01*
X75295048Y-81667820D01*
X75295047Y-81667820D01*
X75295051Y-81667816D01*
X75391557Y-81478412D01*
X75457246Y-81276243D01*
X75490500Y-81066287D01*
X75490500Y-80853713D01*
X75457246Y-80643757D01*
X75391557Y-80441588D01*
X75345804Y-80351794D01*
X75345296Y-80349089D01*
X75343496Y-80347011D01*
X75338887Y-80314961D01*
X75332909Y-80283126D01*
X75333943Y-80280576D01*
X75333552Y-80277853D01*
X75347005Y-80248394D01*
X75359185Y-80218385D01*
X75361434Y-80216799D01*
X75362577Y-80214297D01*
X75389814Y-80196792D01*
X75416291Y-80178128D01*
X75419749Y-80177554D01*
X75421355Y-80176523D01*
X75456290Y-80171500D01*
X75536331Y-80171500D01*
X75536347Y-80171501D01*
X75543943Y-80171501D01*
X75702054Y-80171501D01*
X75702057Y-80171501D01*
X75854785Y-80130577D01*
X75904904Y-80101639D01*
X75991716Y-80051520D01*
X76103520Y-79939716D01*
X76103520Y-79939714D01*
X76113728Y-79929507D01*
X76113730Y-79929504D01*
X76304506Y-79738728D01*
X76304511Y-79738724D01*
X76314714Y-79728520D01*
X76314716Y-79728520D01*
X76426520Y-79616716D01*
X76488284Y-79509737D01*
X76505577Y-79479785D01*
X76533982Y-79373774D01*
X76535571Y-79369270D01*
X76553312Y-79344656D01*
X76569106Y-79318746D01*
X76573543Y-79316590D01*
X76576427Y-79312590D01*
X76604656Y-79301476D01*
X76631953Y-79288217D01*
X76640057Y-79287540D01*
X76641440Y-79286996D01*
X76642959Y-79287297D01*
X76652516Y-79286500D01*
X76786844Y-79286500D01*
X76786845Y-79286499D01*
X76941497Y-79255737D01*
X77087179Y-79195394D01*
X77184609Y-79130292D01*
X77251286Y-79109415D01*
X77318666Y-79127899D01*
G37*
G04 #@! TD.AperFunction*
G04 #@! TA.AperFunction,Conductor*
G36*
X74390000Y-57666988D02*
G01*
X74332993Y-57634075D01*
X74205826Y-57600000D01*
X74074174Y-57600000D01*
X73947007Y-57634075D01*
X73890000Y-57666988D01*
X73890000Y-55993012D01*
X73947007Y-56025925D01*
X74074174Y-56060000D01*
X74205826Y-56060000D01*
X74332993Y-56025925D01*
X74390000Y-55993012D01*
X74390000Y-57666988D01*
G37*
G04 #@! TD.AperFunction*
G04 #@! TA.AperFunction,Conductor*
G36*
X111343039Y-42820185D02*
G01*
X111388794Y-42872989D01*
X111400000Y-42924500D01*
X111400000Y-56800000D01*
X130593500Y-56800000D01*
X130660539Y-56819685D01*
X130706294Y-56872489D01*
X130717500Y-56924000D01*
X130717500Y-68025902D01*
X130697815Y-68092941D01*
X130681181Y-68113583D01*
X128509339Y-70285425D01*
X128448016Y-70318910D01*
X128445850Y-70319361D01*
X128290508Y-70350261D01*
X128290498Y-70350264D01*
X128144827Y-70410602D01*
X128144814Y-70410609D01*
X128013711Y-70498210D01*
X128013707Y-70498213D01*
X127902213Y-70609707D01*
X127902210Y-70609711D01*
X127814609Y-70740814D01*
X127814602Y-70740827D01*
X127754264Y-70886498D01*
X127754261Y-70886510D01*
X127723500Y-71041153D01*
X127723500Y-71198846D01*
X127754261Y-71353489D01*
X127754264Y-71353501D01*
X127814602Y-71499172D01*
X127814609Y-71499185D01*
X127902210Y-71630288D01*
X127902213Y-71630292D01*
X128013707Y-71741786D01*
X128013711Y-71741789D01*
X128144814Y-71829390D01*
X128144827Y-71829397D01*
X128290498Y-71889735D01*
X128290503Y-71889737D01*
X128445153Y-71920499D01*
X128445156Y-71920500D01*
X128606903Y-71920500D01*
X128673942Y-71940185D01*
X128719697Y-71992989D01*
X128729641Y-72062147D01*
X128700616Y-72125703D01*
X128694584Y-72132181D01*
X128311584Y-72515181D01*
X128250261Y-72548666D01*
X128223903Y-72551500D01*
X127833766Y-72551500D01*
X127766727Y-72531815D01*
X127764875Y-72530602D01*
X127633185Y-72442609D01*
X127633172Y-72442602D01*
X127487501Y-72382264D01*
X127487489Y-72382261D01*
X127332845Y-72351500D01*
X127332842Y-72351500D01*
X127175158Y-72351500D01*
X127175155Y-72351500D01*
X127020510Y-72382261D01*
X127020498Y-72382264D01*
X127009952Y-72386633D01*
X126940482Y-72394102D01*
X126878003Y-72362826D01*
X126842352Y-72302737D01*
X126838500Y-72272072D01*
X126838500Y-69047520D01*
X126858185Y-68980481D01*
X126910989Y-68934726D01*
X126980147Y-68924782D01*
X127043703Y-68953807D01*
X127065602Y-68978629D01*
X127140210Y-69090289D01*
X127251707Y-69201786D01*
X127251711Y-69201789D01*
X127382814Y-69289390D01*
X127382827Y-69289397D01*
X127522535Y-69347265D01*
X127528503Y-69349737D01*
X127683153Y-69380499D01*
X127683156Y-69380500D01*
X127683158Y-69380500D01*
X127840844Y-69380500D01*
X127840845Y-69380499D01*
X127995497Y-69349737D01*
X128139453Y-69290109D01*
X128141172Y-69289397D01*
X128141172Y-69289396D01*
X128141179Y-69289394D01*
X128272289Y-69201789D01*
X128383789Y-69090289D01*
X128471394Y-68959179D01*
X128531737Y-68813497D01*
X128562500Y-68658842D01*
X128562500Y-68501158D01*
X128562500Y-68501155D01*
X128562499Y-68501153D01*
X128558353Y-68480310D01*
X128531737Y-68346503D01*
X128510436Y-68295077D01*
X128471397Y-68200827D01*
X128471390Y-68200814D01*
X128383398Y-68069125D01*
X128362520Y-68002447D01*
X128362500Y-68000234D01*
X128362500Y-62679765D01*
X128382185Y-62612726D01*
X128383398Y-62610874D01*
X128440111Y-62525998D01*
X128471394Y-62479179D01*
X128474294Y-62472179D01*
X128496107Y-62419515D01*
X128531737Y-62333497D01*
X128562500Y-62178842D01*
X128562500Y-62021158D01*
X128562500Y-62021155D01*
X128562499Y-62021153D01*
X128562366Y-62020484D01*
X128531737Y-61866503D01*
X128523862Y-61847491D01*
X128471397Y-61720827D01*
X128471390Y-61720814D01*
X128383789Y-61589711D01*
X128383786Y-61589707D01*
X128272292Y-61478213D01*
X128272288Y-61478210D01*
X128141185Y-61390609D01*
X128141172Y-61390602D01*
X127995501Y-61330264D01*
X127995489Y-61330261D01*
X127840845Y-61299500D01*
X127840842Y-61299500D01*
X127683158Y-61299500D01*
X127683155Y-61299500D01*
X127528510Y-61330261D01*
X127528498Y-61330264D01*
X127382827Y-61390602D01*
X127382814Y-61390609D01*
X127251711Y-61478210D01*
X127251707Y-61478213D01*
X127140213Y-61589707D01*
X127140210Y-61589711D01*
X127052609Y-61720814D01*
X127052602Y-61720827D01*
X126992264Y-61866498D01*
X126992261Y-61866510D01*
X126961500Y-62021153D01*
X126961500Y-62178846D01*
X126982210Y-62282961D01*
X126975983Y-62352552D01*
X126933120Y-62407730D01*
X126867230Y-62430974D01*
X126799233Y-62414906D01*
X126772912Y-62394833D01*
X126748292Y-62370213D01*
X126748288Y-62370210D01*
X126617185Y-62282609D01*
X126617172Y-62282602D01*
X126471501Y-62222264D01*
X126471489Y-62222261D01*
X126316845Y-62191500D01*
X126316842Y-62191500D01*
X126159158Y-62191500D01*
X126159155Y-62191500D01*
X126004510Y-62222261D01*
X126004498Y-62222264D01*
X125858827Y-62282602D01*
X125858814Y-62282609D01*
X125727711Y-62370210D01*
X125727707Y-62370213D01*
X125616213Y-62481707D01*
X125616210Y-62481711D01*
X125528609Y-62612814D01*
X125528602Y-62612827D01*
X125468264Y-62758498D01*
X125468261Y-62758510D01*
X125437500Y-62913153D01*
X125437500Y-63070846D01*
X125468261Y-63225489D01*
X125468264Y-63225501D01*
X125528602Y-63371172D01*
X125528609Y-63371185D01*
X125616602Y-63502874D01*
X125637480Y-63569551D01*
X125637500Y-63571765D01*
X125637500Y-74121902D01*
X125617815Y-74188941D01*
X125601181Y-74209583D01*
X125199156Y-74611608D01*
X125137833Y-74645093D01*
X125087283Y-74645544D01*
X125046844Y-74637500D01*
X125046842Y-74637500D01*
X124889158Y-74637500D01*
X124889155Y-74637500D01*
X124734510Y-74668261D01*
X124734498Y-74668264D01*
X124588827Y-74728602D01*
X124588814Y-74728609D01*
X124457711Y-74816210D01*
X124457707Y-74816213D01*
X124346213Y-74927707D01*
X124346210Y-74927711D01*
X124258609Y-75058814D01*
X124258602Y-75058827D01*
X124198264Y-75204498D01*
X124198261Y-75204510D01*
X124167500Y-75359153D01*
X124167500Y-75516846D01*
X124198261Y-75671489D01*
X124198264Y-75671501D01*
X124258602Y-75817172D01*
X124258609Y-75817185D01*
X124346210Y-75948288D01*
X124346213Y-75948292D01*
X124457707Y-76059786D01*
X124457711Y-76059789D01*
X124588814Y-76147390D01*
X124588827Y-76147397D01*
X124708883Y-76197125D01*
X124734503Y-76207737D01*
X124889153Y-76238499D01*
X124889156Y-76238500D01*
X124889158Y-76238500D01*
X125046844Y-76238500D01*
X125046845Y-76238499D01*
X125201497Y-76207737D01*
X125347179Y-76147394D01*
X125478289Y-76059789D01*
X125589789Y-75948289D01*
X125641087Y-75871513D01*
X125656497Y-75852737D01*
X125702520Y-75806716D01*
X125702521Y-75806713D01*
X126596506Y-74912728D01*
X126596511Y-74912724D01*
X126606714Y-74902520D01*
X126606716Y-74902520D01*
X126718520Y-74790716D01*
X126789218Y-74668263D01*
X126797577Y-74653785D01*
X126838501Y-74501057D01*
X126838501Y-74342943D01*
X126838501Y-74335348D01*
X126838500Y-74335330D01*
X126838500Y-74031927D01*
X126858185Y-73964888D01*
X126910989Y-73919133D01*
X126980147Y-73909189D01*
X127009949Y-73917365D01*
X127020503Y-73921737D01*
X127156577Y-73948804D01*
X127175153Y-73952499D01*
X127175156Y-73952500D01*
X127175158Y-73952500D01*
X127332844Y-73952500D01*
X127332845Y-73952499D01*
X127487497Y-73921737D01*
X127633179Y-73861394D01*
X127669500Y-73837125D01*
X127764875Y-73773398D01*
X127831553Y-73752520D01*
X127833766Y-73752500D01*
X128437331Y-73752500D01*
X128437347Y-73752501D01*
X128444943Y-73752501D01*
X128603054Y-73752501D01*
X128603057Y-73752501D01*
X128755785Y-73711577D01*
X128814941Y-73677423D01*
X128892716Y-73632520D01*
X129004520Y-73520716D01*
X129004520Y-73520714D01*
X129014724Y-73510511D01*
X129014728Y-73510506D01*
X132438506Y-70086728D01*
X132438511Y-70086724D01*
X132448714Y-70076520D01*
X132448716Y-70076520D01*
X132560520Y-69964716D01*
X132639577Y-69827784D01*
X132680500Y-69675057D01*
X132680500Y-52624096D01*
X132700185Y-52557057D01*
X132716814Y-52536420D01*
X133962506Y-51290727D01*
X133962511Y-51290724D01*
X133972714Y-51280520D01*
X133972716Y-51280520D01*
X134084520Y-51168716D01*
X134132504Y-51085605D01*
X134167641Y-51024746D01*
X134170442Y-51026363D01*
X134204764Y-50983760D01*
X134271055Y-50961685D01*
X134338757Y-50978954D01*
X134386375Y-51030084D01*
X134399500Y-51085605D01*
X134399500Y-96875500D01*
X134379815Y-96942539D01*
X134327011Y-96988294D01*
X134275500Y-96999500D01*
X67624500Y-96999500D01*
X67557461Y-96979815D01*
X67511706Y-96927011D01*
X67500500Y-96875500D01*
X67500500Y-95679153D01*
X85813500Y-95679153D01*
X85813500Y-95836846D01*
X85844261Y-95991489D01*
X85844264Y-95991501D01*
X85904602Y-96137172D01*
X85904609Y-96137185D01*
X85992210Y-96268288D01*
X85992213Y-96268292D01*
X86103707Y-96379786D01*
X86103711Y-96379789D01*
X86234814Y-96467390D01*
X86234827Y-96467397D01*
X86380498Y-96527735D01*
X86380503Y-96527737D01*
X86535153Y-96558499D01*
X86535156Y-96558500D01*
X86535158Y-96558500D01*
X86692844Y-96558500D01*
X86692845Y-96558499D01*
X86847497Y-96527737D01*
X86993179Y-96467394D01*
X87093293Y-96400500D01*
X87124875Y-96379398D01*
X87191553Y-96358520D01*
X87193766Y-96358500D01*
X98211331Y-96358500D01*
X98211347Y-96358501D01*
X98218943Y-96358501D01*
X98377054Y-96358501D01*
X98377057Y-96358501D01*
X98529785Y-96317577D01*
X98529787Y-96317575D01*
X98529789Y-96317575D01*
X98537299Y-96314465D01*
X98538417Y-96317164D01*
X98585661Y-96304500D01*
X98630844Y-96304500D01*
X98630845Y-96304499D01*
X98785497Y-96273737D01*
X98931179Y-96213394D01*
X99045243Y-96137179D01*
X99062875Y-96125398D01*
X99129553Y-96104520D01*
X99131766Y-96104500D01*
X101513331Y-96104500D01*
X101513347Y-96104501D01*
X101520943Y-96104501D01*
X101679054Y-96104501D01*
X101679057Y-96104501D01*
X101831785Y-96063577D01*
X101881904Y-96034639D01*
X101968716Y-95984520D01*
X102080520Y-95872716D01*
X102080520Y-95872714D01*
X102090728Y-95862507D01*
X102090730Y-95862504D01*
X103063456Y-94889778D01*
X116874500Y-94889778D01*
X116874500Y-95110222D01*
X116884819Y-95175374D01*
X116908985Y-95327952D01*
X116977103Y-95537603D01*
X116977104Y-95537606D01*
X117077187Y-95734025D01*
X117206752Y-95912358D01*
X117206756Y-95912363D01*
X117362636Y-96068243D01*
X117362641Y-96068247D01*
X117457519Y-96137179D01*
X117540978Y-96197815D01*
X117669375Y-96263237D01*
X117737393Y-96297895D01*
X117737396Y-96297896D01*
X117842221Y-96331955D01*
X117947049Y-96366015D01*
X118164778Y-96400500D01*
X118164779Y-96400500D01*
X118385221Y-96400500D01*
X118385222Y-96400500D01*
X118602951Y-96366015D01*
X118812606Y-96297895D01*
X119009022Y-96197815D01*
X119187365Y-96068242D01*
X119343242Y-95912365D01*
X119472815Y-95734022D01*
X119572895Y-95537606D01*
X119641015Y-95327951D01*
X119675500Y-95110222D01*
X119675500Y-94889778D01*
X122324500Y-94889778D01*
X122324500Y-95110222D01*
X122334819Y-95175374D01*
X122358985Y-95327952D01*
X122427103Y-95537603D01*
X122427104Y-95537606D01*
X122527187Y-95734025D01*
X122656752Y-95912358D01*
X122656756Y-95912363D01*
X122812636Y-96068243D01*
X122812641Y-96068247D01*
X122907519Y-96137179D01*
X122990978Y-96197815D01*
X123119375Y-96263237D01*
X123187393Y-96297895D01*
X123187396Y-96297896D01*
X123292221Y-96331955D01*
X123397049Y-96366015D01*
X123614778Y-96400500D01*
X123614779Y-96400500D01*
X123835221Y-96400500D01*
X123835222Y-96400500D01*
X124052951Y-96366015D01*
X124262606Y-96297895D01*
X124459022Y-96197815D01*
X124637365Y-96068242D01*
X124793242Y-95912365D01*
X124922815Y-95734022D01*
X125022895Y-95537606D01*
X125091015Y-95327951D01*
X125125500Y-95110222D01*
X125125500Y-94889778D01*
X125091015Y-94672049D01*
X125053917Y-94557870D01*
X125022896Y-94462396D01*
X125022895Y-94462393D01*
X124977091Y-94372499D01*
X124922815Y-94265978D01*
X124897916Y-94231707D01*
X124793247Y-94087641D01*
X124793243Y-94087636D01*
X124637363Y-93931756D01*
X124637358Y-93931752D01*
X124459025Y-93802187D01*
X124459024Y-93802186D01*
X124459022Y-93802185D01*
X124376807Y-93760294D01*
X124262606Y-93702104D01*
X124262603Y-93702103D01*
X124052952Y-93633985D01*
X123944086Y-93616742D01*
X123835222Y-93599500D01*
X123614778Y-93599500D01*
X123542201Y-93610995D01*
X123397047Y-93633985D01*
X123187396Y-93702103D01*
X123187393Y-93702104D01*
X122990974Y-93802187D01*
X122812641Y-93931752D01*
X122812636Y-93931756D01*
X122656756Y-94087636D01*
X122656752Y-94087641D01*
X122527187Y-94265974D01*
X122427104Y-94462393D01*
X122427103Y-94462396D01*
X122358985Y-94672047D01*
X122328021Y-94867546D01*
X122324500Y-94889778D01*
X119675500Y-94889778D01*
X119641015Y-94672049D01*
X119603917Y-94557870D01*
X119572896Y-94462396D01*
X119572895Y-94462393D01*
X119527091Y-94372499D01*
X119472815Y-94265978D01*
X119447916Y-94231707D01*
X119343247Y-94087641D01*
X119343243Y-94087636D01*
X119187363Y-93931756D01*
X119187358Y-93931752D01*
X119009025Y-93802187D01*
X119009024Y-93802186D01*
X119009022Y-93802185D01*
X118926807Y-93760294D01*
X118812606Y-93702104D01*
X118812603Y-93702103D01*
X118602952Y-93633985D01*
X118494086Y-93616742D01*
X118385222Y-93599500D01*
X118164778Y-93599500D01*
X118092201Y-93610995D01*
X117947047Y-93633985D01*
X117737396Y-93702103D01*
X117737393Y-93702104D01*
X117540974Y-93802187D01*
X117362641Y-93931752D01*
X117362636Y-93931756D01*
X117206756Y-94087636D01*
X117206752Y-94087641D01*
X117077187Y-94265974D01*
X116977104Y-94462393D01*
X116977103Y-94462396D01*
X116908985Y-94672047D01*
X116878021Y-94867546D01*
X116874500Y-94889778D01*
X103063456Y-94889778D01*
X105259819Y-92693415D01*
X105279255Y-92682802D01*
X105295989Y-92668302D01*
X105309320Y-92666385D01*
X105321142Y-92659930D01*
X105343228Y-92661509D01*
X105365147Y-92658358D01*
X105377398Y-92663953D01*
X105390834Y-92664914D01*
X105408560Y-92678184D01*
X105428703Y-92687383D01*
X105435985Y-92698714D01*
X105446767Y-92706786D01*
X105454504Y-92727531D01*
X105466477Y-92746161D01*
X105469628Y-92768079D01*
X105471184Y-92772250D01*
X105471500Y-92781096D01*
X105471500Y-92861899D01*
X105451815Y-92928938D01*
X105450602Y-92930790D01*
X105373988Y-93045449D01*
X105373987Y-93045452D01*
X105306106Y-93209332D01*
X105306103Y-93209341D01*
X105271500Y-93383304D01*
X105271500Y-93560695D01*
X105306103Y-93734658D01*
X105306106Y-93734667D01*
X105373983Y-93898540D01*
X105373990Y-93898553D01*
X105472535Y-94046034D01*
X105472538Y-94046038D01*
X105597961Y-94171461D01*
X105597965Y-94171464D01*
X105745446Y-94270009D01*
X105745459Y-94270016D01*
X105849374Y-94313058D01*
X105909334Y-94337894D01*
X105909336Y-94337894D01*
X105909341Y-94337896D01*
X106083304Y-94372499D01*
X106083307Y-94372500D01*
X106083309Y-94372500D01*
X106260693Y-94372500D01*
X106260694Y-94372499D01*
X106327695Y-94359172D01*
X106434658Y-94337896D01*
X106434661Y-94337894D01*
X106434666Y-94337894D01*
X106598547Y-94270013D01*
X106746035Y-94171464D01*
X106871464Y-94046035D01*
X106970013Y-93898547D01*
X107037894Y-93734666D01*
X107039163Y-93728289D01*
X107072499Y-93560695D01*
X107072500Y-93560693D01*
X107072500Y-93383306D01*
X107072499Y-93383304D01*
X107037896Y-93209341D01*
X107037893Y-93209332D01*
X107022082Y-93171160D01*
X106970013Y-93045453D01*
X106970011Y-93045451D01*
X106970011Y-93045449D01*
X106893398Y-92930790D01*
X106872520Y-92864112D01*
X106872500Y-92861899D01*
X106872500Y-83233153D01*
X107403500Y-83233153D01*
X107403500Y-83390846D01*
X107434261Y-83545489D01*
X107434264Y-83545501D01*
X107494602Y-83691172D01*
X107494609Y-83691185D01*
X107582602Y-83822874D01*
X107603480Y-83889551D01*
X107603500Y-83891765D01*
X107603500Y-93400234D01*
X107583815Y-93467273D01*
X107582602Y-93469125D01*
X107494609Y-93600814D01*
X107494602Y-93600827D01*
X107434264Y-93746498D01*
X107434261Y-93746510D01*
X107403500Y-93901153D01*
X107403500Y-94058846D01*
X107434261Y-94213489D01*
X107434264Y-94213501D01*
X107494602Y-94359172D01*
X107494609Y-94359185D01*
X107582210Y-94490288D01*
X107582213Y-94490292D01*
X107693707Y-94601786D01*
X107693711Y-94601789D01*
X107824814Y-94689390D01*
X107824827Y-94689397D01*
X107910135Y-94724732D01*
X107970503Y-94749737D01*
X108098438Y-94775185D01*
X108125153Y-94780499D01*
X108125156Y-94780500D01*
X108125158Y-94780500D01*
X108282844Y-94780500D01*
X108282845Y-94780499D01*
X108311525Y-94774794D01*
X108369364Y-94763290D01*
X108369369Y-94763289D01*
X108424471Y-94752328D01*
X108437497Y-94749737D01*
X108561685Y-94698297D01*
X108583172Y-94689397D01*
X108583172Y-94689396D01*
X108583179Y-94689394D01*
X108714289Y-94601789D01*
X108825789Y-94490289D01*
X108913394Y-94359179D01*
X108922211Y-94337894D01*
X108964296Y-94236289D01*
X108973737Y-94213497D01*
X109004500Y-94058842D01*
X109004500Y-93901158D01*
X109004500Y-93901155D01*
X109004499Y-93901153D01*
X109003979Y-93898540D01*
X108973737Y-93746503D01*
X108973735Y-93746498D01*
X108913397Y-93600827D01*
X108913390Y-93600814D01*
X108825398Y-93469125D01*
X108804520Y-93402447D01*
X108804500Y-93400234D01*
X108804500Y-91871577D01*
X117324500Y-91871577D01*
X117324500Y-92068422D01*
X117355290Y-92262826D01*
X117416117Y-92450029D01*
X117505476Y-92625405D01*
X117621172Y-92784646D01*
X117760354Y-92923828D01*
X117919595Y-93039524D01*
X117974417Y-93067457D01*
X118094970Y-93128882D01*
X118094972Y-93128882D01*
X118094975Y-93128884D01*
X118171692Y-93153811D01*
X118282173Y-93189709D01*
X118476578Y-93220500D01*
X118476583Y-93220500D01*
X118673422Y-93220500D01*
X118867826Y-93189709D01*
X119055025Y-93128884D01*
X119230405Y-93039524D01*
X119389646Y-92923828D01*
X119528828Y-92784646D01*
X119644524Y-92625405D01*
X119733884Y-92450025D01*
X119794709Y-92262826D01*
X119808675Y-92174649D01*
X119825500Y-92068422D01*
X119825500Y-91871577D01*
X122174500Y-91871577D01*
X122174500Y-92068422D01*
X122205290Y-92262826D01*
X122266117Y-92450029D01*
X122355476Y-92625405D01*
X122471172Y-92784646D01*
X122610354Y-92923828D01*
X122769595Y-93039524D01*
X122824417Y-93067457D01*
X122944970Y-93128882D01*
X122944972Y-93128882D01*
X122944975Y-93128884D01*
X123021692Y-93153811D01*
X123132173Y-93189709D01*
X123326578Y-93220500D01*
X123326583Y-93220500D01*
X123523422Y-93220500D01*
X123717826Y-93189709D01*
X123905025Y-93128884D01*
X124080405Y-93039524D01*
X124239646Y-92923828D01*
X124378828Y-92784646D01*
X124494524Y-92625405D01*
X124583884Y-92450025D01*
X124644709Y-92262826D01*
X124658675Y-92174649D01*
X124675500Y-92068422D01*
X124675500Y-91871577D01*
X124644709Y-91677173D01*
X124583882Y-91489970D01*
X124494523Y-91314594D01*
X124378828Y-91155354D01*
X124239646Y-91016172D01*
X124080405Y-90900476D01*
X123905029Y-90811117D01*
X123717826Y-90750290D01*
X123523422Y-90719500D01*
X123523417Y-90719500D01*
X123326583Y-90719500D01*
X123326578Y-90719500D01*
X123132173Y-90750290D01*
X122944970Y-90811117D01*
X122769594Y-90900476D01*
X122678741Y-90966485D01*
X122610354Y-91016172D01*
X122610352Y-91016174D01*
X122610351Y-91016174D01*
X122471174Y-91155351D01*
X122471174Y-91155352D01*
X122471172Y-91155354D01*
X122421485Y-91223741D01*
X122355476Y-91314594D01*
X122266117Y-91489970D01*
X122205290Y-91677173D01*
X122174500Y-91871577D01*
X119825500Y-91871577D01*
X119794709Y-91677173D01*
X119733882Y-91489970D01*
X119644523Y-91314594D01*
X119528828Y-91155354D01*
X119389646Y-91016172D01*
X119230405Y-90900476D01*
X119055029Y-90811117D01*
X118867826Y-90750290D01*
X118673422Y-90719500D01*
X118673417Y-90719500D01*
X118476583Y-90719500D01*
X118476578Y-90719500D01*
X118282173Y-90750290D01*
X118094970Y-90811117D01*
X117919594Y-90900476D01*
X117828741Y-90966485D01*
X117760354Y-91016172D01*
X117760352Y-91016174D01*
X117760351Y-91016174D01*
X117621174Y-91155351D01*
X117621174Y-91155352D01*
X117621172Y-91155354D01*
X117571485Y-91223741D01*
X117505476Y-91314594D01*
X117416117Y-91489970D01*
X117355290Y-91677173D01*
X117324500Y-91871577D01*
X108804500Y-91871577D01*
X108804500Y-83891765D01*
X108824185Y-83824726D01*
X108825398Y-83822874D01*
X108840323Y-83800538D01*
X108913394Y-83691179D01*
X108916089Y-83684674D01*
X108927067Y-83658166D01*
X108973737Y-83545497D01*
X109004500Y-83390842D01*
X109004500Y-83233158D01*
X109004500Y-83233155D01*
X109004499Y-83233153D01*
X108996511Y-83192993D01*
X108973737Y-83078503D01*
X108966192Y-83060288D01*
X108913397Y-82932827D01*
X108913390Y-82932814D01*
X108825789Y-82801711D01*
X108825786Y-82801707D01*
X108714292Y-82690213D01*
X108714288Y-82690210D01*
X108583185Y-82602609D01*
X108583172Y-82602602D01*
X108437501Y-82542264D01*
X108437489Y-82542261D01*
X108282845Y-82511500D01*
X108282842Y-82511500D01*
X108125158Y-82511500D01*
X108125155Y-82511500D01*
X107970510Y-82542261D01*
X107970498Y-82542264D01*
X107824827Y-82602602D01*
X107824814Y-82602609D01*
X107693711Y-82690210D01*
X107693707Y-82690213D01*
X107582213Y-82801707D01*
X107582210Y-82801711D01*
X107494609Y-82932814D01*
X107494602Y-82932827D01*
X107434264Y-83078498D01*
X107434261Y-83078510D01*
X107403500Y-83233153D01*
X106872500Y-83233153D01*
X106872500Y-81890099D01*
X106892185Y-81823060D01*
X106893398Y-81821208D01*
X106970013Y-81706547D01*
X107037894Y-81542666D01*
X107064798Y-81407408D01*
X107097181Y-81345501D01*
X107098675Y-81343980D01*
X108240113Y-80202543D01*
X108255724Y-80179181D01*
X108255727Y-80179177D01*
X108282696Y-80138814D01*
X108316775Y-80087811D01*
X108369580Y-79960328D01*
X108396500Y-79824993D01*
X108396500Y-46584099D01*
X108416185Y-46517060D01*
X108417398Y-46515208D01*
X108494013Y-46400547D01*
X108561894Y-46236666D01*
X108565158Y-46220261D01*
X108596499Y-46062695D01*
X108596500Y-46062693D01*
X108596500Y-45885306D01*
X108596499Y-45885304D01*
X108561896Y-45711341D01*
X108561893Y-45711332D01*
X108494016Y-45547459D01*
X108494009Y-45547446D01*
X108395464Y-45399965D01*
X108395461Y-45399961D01*
X108270038Y-45274538D01*
X108270034Y-45274535D01*
X108122553Y-45175990D01*
X108122540Y-45175983D01*
X107958667Y-45108106D01*
X107958658Y-45108103D01*
X107784694Y-45073500D01*
X107784691Y-45073500D01*
X107607309Y-45073500D01*
X107607306Y-45073500D01*
X107433341Y-45108103D01*
X107433332Y-45108106D01*
X107269459Y-45175983D01*
X107269446Y-45175990D01*
X107121965Y-45274535D01*
X107121961Y-45274538D01*
X106996538Y-45399961D01*
X106996535Y-45399965D01*
X106897990Y-45547446D01*
X106897983Y-45547459D01*
X106830106Y-45711332D01*
X106830103Y-45711341D01*
X106795500Y-45885304D01*
X106795500Y-46062695D01*
X106797532Y-46072912D01*
X106791302Y-46142503D01*
X106748437Y-46197679D01*
X106682547Y-46220921D01*
X106651723Y-46218716D01*
X106504845Y-46189500D01*
X106504842Y-46189500D01*
X106347158Y-46189500D01*
X106347155Y-46189500D01*
X106192510Y-46220261D01*
X106192498Y-46220264D01*
X106046827Y-46280602D01*
X106046814Y-46280609D01*
X105915711Y-46368210D01*
X105915707Y-46368213D01*
X105804213Y-46479707D01*
X105804210Y-46479711D01*
X105716609Y-46610814D01*
X105716602Y-46610827D01*
X105656264Y-46756498D01*
X105656261Y-46756508D01*
X105625362Y-46911848D01*
X105592977Y-46973759D01*
X105591426Y-46975337D01*
X102247286Y-50319478D01*
X102135481Y-50431282D01*
X102135480Y-50431284D01*
X102099621Y-50493394D01*
X102056423Y-50568215D01*
X102015499Y-50720943D01*
X102015499Y-50720945D01*
X102015499Y-50889046D01*
X102015500Y-50889059D01*
X102015500Y-56931462D01*
X101995815Y-56998501D01*
X101943011Y-57044256D01*
X101891500Y-57055462D01*
X101807155Y-57055462D01*
X101652510Y-57086223D01*
X101652498Y-57086226D01*
X101506827Y-57146564D01*
X101506814Y-57146571D01*
X101375711Y-57234172D01*
X101375707Y-57234175D01*
X101264213Y-57345669D01*
X101264210Y-57345673D01*
X101176609Y-57476776D01*
X101176602Y-57476789D01*
X101169061Y-57494997D01*
X101125220Y-57549401D01*
X101058926Y-57571466D01*
X100991227Y-57554187D01*
X100943616Y-57503050D01*
X100930500Y-57447545D01*
X100930500Y-54681765D01*
X100950185Y-54614726D01*
X100951398Y-54612874D01*
X100954851Y-54607707D01*
X101039394Y-54481179D01*
X101099737Y-54335497D01*
X101130500Y-54180842D01*
X101130500Y-54023158D01*
X101130500Y-54023155D01*
X101130499Y-54023153D01*
X101123549Y-53988213D01*
X101099737Y-53868503D01*
X101088039Y-53840261D01*
X101039397Y-53722827D01*
X101039390Y-53722814D01*
X100951789Y-53591711D01*
X100951786Y-53591707D01*
X100840292Y-53480213D01*
X100840288Y-53480210D01*
X100763521Y-53428916D01*
X100744731Y-53413495D01*
X100698717Y-53367481D01*
X100698709Y-53367475D01*
X100561790Y-53288426D01*
X100561786Y-53288424D01*
X100561784Y-53288423D01*
X100409057Y-53247500D01*
X100250943Y-53247500D01*
X100098216Y-53288423D01*
X100098209Y-53288426D01*
X99961283Y-53367479D01*
X99915266Y-53413496D01*
X99896479Y-53428915D01*
X99819706Y-53480214D01*
X99819704Y-53480217D01*
X99708213Y-53591707D01*
X99708210Y-53591711D01*
X99620609Y-53722814D01*
X99620602Y-53722827D01*
X99560264Y-53868498D01*
X99560261Y-53868510D01*
X99529500Y-54023153D01*
X99529500Y-54180846D01*
X99529921Y-54182962D01*
X99529819Y-54184092D01*
X99530097Y-54186907D01*
X99529563Y-54186959D01*
X99523694Y-54252553D01*
X99480831Y-54307731D01*
X99432496Y-54328770D01*
X99334508Y-54348261D01*
X99334498Y-54348264D01*
X99188827Y-54408602D01*
X99188814Y-54408609D01*
X99057711Y-54496210D01*
X99057707Y-54496213D01*
X98946213Y-54607707D01*
X98946210Y-54607711D01*
X98858609Y-54738814D01*
X98858602Y-54738827D01*
X98798264Y-54884498D01*
X98798261Y-54884510D01*
X98767500Y-55039153D01*
X98767500Y-55196846D01*
X98798261Y-55351489D01*
X98798264Y-55351501D01*
X98858602Y-55497172D01*
X98858609Y-55497185D01*
X98946602Y-55628874D01*
X98967480Y-55695551D01*
X98967500Y-55697765D01*
X98967500Y-64952234D01*
X98947815Y-65019273D01*
X98946602Y-65021125D01*
X98858609Y-65152814D01*
X98858602Y-65152827D01*
X98798264Y-65298498D01*
X98798261Y-65298510D01*
X98767500Y-65453153D01*
X98767500Y-65610846D01*
X98798261Y-65765489D01*
X98798264Y-65765501D01*
X98858602Y-65911172D01*
X98858609Y-65911185D01*
X98946210Y-66042288D01*
X98946213Y-66042292D01*
X99057707Y-66153786D01*
X99057711Y-66153789D01*
X99188814Y-66241390D01*
X99188827Y-66241397D01*
X99310288Y-66291707D01*
X99334503Y-66301737D01*
X99470577Y-66328804D01*
X99489153Y-66332499D01*
X99489156Y-66332500D01*
X99489158Y-66332500D01*
X99501849Y-66332500D01*
X99568888Y-66352185D01*
X99614643Y-66404989D01*
X99616389Y-66409000D01*
X99620606Y-66419179D01*
X99620608Y-66419182D01*
X99620609Y-66419184D01*
X99708210Y-66550288D01*
X99708213Y-66550292D01*
X99819707Y-66661786D01*
X99819711Y-66661789D01*
X99950814Y-66749390D01*
X99950821Y-66749394D01*
X100040903Y-66786707D01*
X100095305Y-66830546D01*
X100117371Y-66896840D01*
X100108011Y-66948719D01*
X100045764Y-67098998D01*
X100045761Y-67099010D01*
X100015000Y-67253653D01*
X100015000Y-67411346D01*
X100045761Y-67565989D01*
X100045764Y-67566001D01*
X100106102Y-67711672D01*
X100106109Y-67711685D01*
X100193710Y-67842788D01*
X100193713Y-67842792D01*
X100305207Y-67954286D01*
X100305211Y-67954289D01*
X100436314Y-68041890D01*
X100436327Y-68041897D01*
X100521712Y-68077264D01*
X100582003Y-68102237D01*
X100736653Y-68132999D01*
X100736656Y-68133000D01*
X100736658Y-68133000D01*
X100781978Y-68133000D01*
X100849017Y-68152685D01*
X100886095Y-68192865D01*
X100887221Y-68192114D01*
X100978210Y-68328288D01*
X100978213Y-68328292D01*
X101089707Y-68439786D01*
X101089711Y-68439789D01*
X101220814Y-68527390D01*
X101220827Y-68527397D01*
X101355955Y-68583368D01*
X101366503Y-68587737D01*
X101464189Y-68607168D01*
X101521153Y-68618499D01*
X101521156Y-68618500D01*
X101521158Y-68618500D01*
X101678844Y-68618500D01*
X101678845Y-68618499D01*
X101833497Y-68587737D01*
X101844045Y-68583367D01*
X101913511Y-68575896D01*
X101975992Y-68607168D01*
X102011647Y-68667256D01*
X102015500Y-68697927D01*
X102015500Y-70982452D01*
X101995815Y-71049491D01*
X101943011Y-71095246D01*
X101915693Y-71104069D01*
X101874507Y-71112261D01*
X101874498Y-71112264D01*
X101728827Y-71172602D01*
X101728814Y-71172609D01*
X101597711Y-71260210D01*
X101597707Y-71260213D01*
X101486213Y-71371707D01*
X101486210Y-71371711D01*
X101398609Y-71502814D01*
X101398602Y-71502827D01*
X101338264Y-71648498D01*
X101338261Y-71648510D01*
X101307500Y-71803153D01*
X101307500Y-71960846D01*
X101338261Y-72115489D01*
X101338264Y-72115501D01*
X101398602Y-72261172D01*
X101398609Y-72261185D01*
X101486210Y-72392288D01*
X101486213Y-72392292D01*
X101597707Y-72503786D01*
X101597711Y-72503789D01*
X101728814Y-72591390D01*
X101728827Y-72591397D01*
X101833555Y-72634776D01*
X101874503Y-72651737D01*
X102029153Y-72682499D01*
X102029156Y-72682500D01*
X102029158Y-72682500D01*
X102186844Y-72682500D01*
X102186845Y-72682499D01*
X102341497Y-72651737D01*
X102382444Y-72634775D01*
X102451912Y-72627307D01*
X102514391Y-72658581D01*
X102517577Y-72661656D01*
X102613707Y-72757786D01*
X102613711Y-72757789D01*
X102744814Y-72845390D01*
X102744827Y-72845397D01*
X102890498Y-72905735D01*
X102890503Y-72905737D01*
X103045153Y-72936499D01*
X103045156Y-72936500D01*
X103045158Y-72936500D01*
X103089849Y-72936500D01*
X103156888Y-72956185D01*
X103202643Y-73008989D01*
X103204389Y-73013000D01*
X103208606Y-73023179D01*
X103208608Y-73023182D01*
X103208609Y-73023184D01*
X103296210Y-73154288D01*
X103296213Y-73154292D01*
X103407707Y-73265786D01*
X103407711Y-73265789D01*
X103538814Y-73353390D01*
X103538827Y-73353397D01*
X103626230Y-73389599D01*
X103684503Y-73413737D01*
X103751716Y-73427106D01*
X103813624Y-73459490D01*
X103848198Y-73520206D01*
X103849140Y-73572913D01*
X103847500Y-73581158D01*
X103847500Y-73738846D01*
X103878261Y-73893489D01*
X103878264Y-73893501D01*
X103938602Y-74039172D01*
X103938609Y-74039185D01*
X104026210Y-74170288D01*
X104026213Y-74170292D01*
X104137707Y-74281786D01*
X104137711Y-74281789D01*
X104268814Y-74369390D01*
X104268827Y-74369397D01*
X104338901Y-74398422D01*
X104414503Y-74429737D01*
X104503901Y-74447519D01*
X104521544Y-74451029D01*
X104583455Y-74483413D01*
X104618029Y-74544129D01*
X104618970Y-74548454D01*
X104640261Y-74655491D01*
X104640264Y-74655501D01*
X104700602Y-74801172D01*
X104700609Y-74801185D01*
X104788210Y-74932288D01*
X104788213Y-74932292D01*
X104899707Y-75043786D01*
X104899711Y-75043789D01*
X105030814Y-75131390D01*
X105030827Y-75131397D01*
X105176498Y-75191735D01*
X105176503Y-75191737D01*
X105331153Y-75222499D01*
X105331156Y-75222500D01*
X105331158Y-75222500D01*
X105488844Y-75222500D01*
X105488845Y-75222499D01*
X105643497Y-75191737D01*
X105756166Y-75145067D01*
X105789172Y-75131397D01*
X105789172Y-75131396D01*
X105789179Y-75131394D01*
X105920289Y-75043789D01*
X106031789Y-74932289D01*
X106106398Y-74820629D01*
X106160010Y-74775824D01*
X106229335Y-74767117D01*
X106292362Y-74797271D01*
X106329082Y-74856714D01*
X106333500Y-74889520D01*
X106333500Y-76277734D01*
X106313815Y-76344773D01*
X106312602Y-76346625D01*
X106224609Y-76478314D01*
X106224602Y-76478327D01*
X106164264Y-76623998D01*
X106164261Y-76624010D01*
X106133500Y-76778653D01*
X106133500Y-76936346D01*
X106164261Y-77090989D01*
X106164264Y-77091001D01*
X106224602Y-77236672D01*
X106224609Y-77236685D01*
X106312210Y-77367788D01*
X106312213Y-77367792D01*
X106423707Y-77479286D01*
X106423711Y-77479289D01*
X106554814Y-77566890D01*
X106554827Y-77566897D01*
X106700498Y-77627235D01*
X106700503Y-77627237D01*
X106855153Y-77657999D01*
X106855156Y-77658000D01*
X106855158Y-77658000D01*
X106871500Y-77658000D01*
X106938539Y-77677685D01*
X106984294Y-77730489D01*
X106995500Y-77782000D01*
X106995500Y-79414481D01*
X106975815Y-79481520D01*
X106959181Y-79502162D01*
X106371282Y-80090060D01*
X106309959Y-80123545D01*
X106240267Y-80118561D01*
X106184334Y-80076689D01*
X106169043Y-80049838D01*
X106126013Y-79945953D01*
X106126011Y-79945950D01*
X106126009Y-79945946D01*
X106027464Y-79798465D01*
X106027461Y-79798461D01*
X105902038Y-79673038D01*
X105902034Y-79673035D01*
X105754553Y-79574490D01*
X105754540Y-79574483D01*
X105590667Y-79506606D01*
X105590658Y-79506603D01*
X105416694Y-79472000D01*
X105416691Y-79472000D01*
X105239309Y-79472000D01*
X105239306Y-79472000D01*
X105065341Y-79506603D01*
X105065332Y-79506606D01*
X104901459Y-79574483D01*
X104901446Y-79574490D01*
X104753965Y-79673035D01*
X104753961Y-79673038D01*
X104628538Y-79798461D01*
X104628535Y-79798465D01*
X104529990Y-79945946D01*
X104529983Y-79945959D01*
X104462106Y-80109832D01*
X104462103Y-80109841D01*
X104427500Y-80283804D01*
X104427500Y-80461195D01*
X104462103Y-80635158D01*
X104462106Y-80635167D01*
X104529984Y-80799042D01*
X104529985Y-80799043D01*
X104529987Y-80799047D01*
X104606602Y-80913708D01*
X104627480Y-80980385D01*
X104627500Y-80982599D01*
X104627500Y-83704518D01*
X104607815Y-83771557D01*
X104586050Y-83796006D01*
X104586272Y-83796228D01*
X104582467Y-83800032D01*
X104582168Y-83800369D01*
X104581961Y-83800538D01*
X104456538Y-83925961D01*
X104456535Y-83925965D01*
X104357990Y-84073446D01*
X104357983Y-84073459D01*
X104290106Y-84237332D01*
X104290103Y-84237341D01*
X104255500Y-84411304D01*
X104255500Y-84588695D01*
X104290103Y-84762658D01*
X104290106Y-84762667D01*
X104357983Y-84926540D01*
X104357990Y-84926553D01*
X104456535Y-85074034D01*
X104456538Y-85074038D01*
X104581961Y-85199461D01*
X104581965Y-85199464D01*
X104729446Y-85298009D01*
X104729453Y-85298013D01*
X104808678Y-85330828D01*
X104863080Y-85374668D01*
X104885146Y-85440962D01*
X104867868Y-85508661D01*
X104816731Y-85556272D01*
X104785417Y-85567006D01*
X104668508Y-85590261D01*
X104668498Y-85590264D01*
X104522827Y-85650602D01*
X104522814Y-85650609D01*
X104391711Y-85738210D01*
X104391707Y-85738213D01*
X104280213Y-85849707D01*
X104280210Y-85849711D01*
X104192609Y-85980814D01*
X104192602Y-85980827D01*
X104132264Y-86126498D01*
X104132261Y-86126510D01*
X104101500Y-86281153D01*
X104101500Y-86438846D01*
X104132261Y-86593489D01*
X104132264Y-86593501D01*
X104192602Y-86739172D01*
X104192609Y-86739185D01*
X104280602Y-86870874D01*
X104301480Y-86937551D01*
X104301500Y-86939765D01*
X104301500Y-91901903D01*
X104281815Y-91968942D01*
X104265181Y-91989584D01*
X101990493Y-94264271D01*
X101929170Y-94297756D01*
X101859478Y-94292772D01*
X101803545Y-94250900D01*
X101779128Y-94185436D01*
X101793980Y-94117163D01*
X101799709Y-94107699D01*
X101801394Y-94105179D01*
X101808661Y-94087636D01*
X101848559Y-93991311D01*
X101861737Y-93959497D01*
X101892500Y-93804842D01*
X101892500Y-93759660D01*
X101905169Y-93712412D01*
X101902467Y-93711293D01*
X101905576Y-93703786D01*
X101905577Y-93703785D01*
X101946500Y-93551058D01*
X101946500Y-93392943D01*
X101946500Y-92376943D01*
X101946500Y-81097765D01*
X101966185Y-81030726D01*
X101967398Y-81028874D01*
X102055390Y-80897185D01*
X102055390Y-80897184D01*
X102055394Y-80897179D01*
X102115737Y-80751497D01*
X102146500Y-80596842D01*
X102146500Y-80439158D01*
X102146500Y-80439155D01*
X102146499Y-80439153D01*
X102128584Y-80349089D01*
X102115737Y-80284503D01*
X102115450Y-80283809D01*
X102055397Y-80138827D01*
X102055390Y-80138814D01*
X101967789Y-80007711D01*
X101967786Y-80007707D01*
X101856292Y-79896213D01*
X101856288Y-79896210D01*
X101725185Y-79808609D01*
X101725172Y-79808602D01*
X101579501Y-79748264D01*
X101579489Y-79748261D01*
X101424845Y-79717500D01*
X101424842Y-79717500D01*
X101267158Y-79717500D01*
X101267153Y-79717500D01*
X101164564Y-79737906D01*
X101164544Y-79737911D01*
X101112503Y-79748263D01*
X101087628Y-79758566D01*
X101087622Y-79758568D01*
X100966823Y-79808604D01*
X100966814Y-79808609D01*
X100835711Y-79896210D01*
X100835707Y-79896213D01*
X100724213Y-80007707D01*
X100724210Y-80007711D01*
X100636609Y-80138814D01*
X100636602Y-80138827D01*
X100576264Y-80284498D01*
X100576261Y-80284510D01*
X100545500Y-80439153D01*
X100545500Y-80596846D01*
X100576261Y-80751489D01*
X100576264Y-80751501D01*
X100636602Y-80897172D01*
X100636609Y-80897185D01*
X100724602Y-81028874D01*
X100745480Y-81095551D01*
X100745500Y-81097765D01*
X100745500Y-92928490D01*
X100725815Y-92995529D01*
X100690391Y-93031592D01*
X100581711Y-93104210D01*
X100581707Y-93104213D01*
X100470213Y-93215707D01*
X100470210Y-93215711D01*
X100382609Y-93346814D01*
X100382604Y-93346824D01*
X100341718Y-93445532D01*
X100297877Y-93499935D01*
X100231582Y-93522000D01*
X100163883Y-93504721D01*
X100116273Y-93453583D01*
X100103868Y-93384824D01*
X100105538Y-93373897D01*
X100114500Y-93328844D01*
X100114500Y-93171160D01*
X100114500Y-93171157D01*
X100114499Y-93171155D01*
X100108617Y-93141585D01*
X100083737Y-93016505D01*
X100075049Y-92995529D01*
X100023397Y-92870829D01*
X100023390Y-92870816D01*
X99935789Y-92739713D01*
X99935786Y-92739709D01*
X99824292Y-92628215D01*
X99759608Y-92584994D01*
X99714804Y-92531381D01*
X99704500Y-92481892D01*
X99704500Y-80379765D01*
X99724185Y-80312726D01*
X99725398Y-80310874D01*
X99813393Y-80179181D01*
X99813397Y-80179172D01*
X99838503Y-80118561D01*
X99873737Y-80033497D01*
X99904500Y-79878842D01*
X99904500Y-79721158D01*
X99904500Y-79721155D01*
X99904499Y-79721153D01*
X99901971Y-79708443D01*
X99873737Y-79566503D01*
X99873735Y-79566498D01*
X99851142Y-79511952D01*
X99843673Y-79442482D01*
X99874949Y-79380003D01*
X99935038Y-79344352D01*
X99965703Y-79340500D01*
X100258234Y-79340500D01*
X100325273Y-79360185D01*
X100327125Y-79361398D01*
X100458814Y-79449390D01*
X100458827Y-79449397D01*
X100537894Y-79482147D01*
X100604503Y-79509737D01*
X100759153Y-79540499D01*
X100759156Y-79540500D01*
X100759158Y-79540500D01*
X100916844Y-79540500D01*
X100955917Y-79532727D01*
X101071497Y-79509737D01*
X101217179Y-79449394D01*
X101348289Y-79361789D01*
X101459789Y-79250289D01*
X101547394Y-79119179D01*
X101607737Y-78973497D01*
X101638500Y-78818842D01*
X101638500Y-78661158D01*
X101638500Y-78661155D01*
X101638499Y-78661153D01*
X101607738Y-78506510D01*
X101607737Y-78506503D01*
X101607735Y-78506498D01*
X101547397Y-78360827D01*
X101547390Y-78360814D01*
X101459789Y-78229711D01*
X101459786Y-78229707D01*
X101348292Y-78118213D01*
X101348288Y-78118210D01*
X101217185Y-78030609D01*
X101217172Y-78030602D01*
X101071501Y-77970264D01*
X101071491Y-77970261D01*
X100964454Y-77948970D01*
X100902543Y-77916585D01*
X100867969Y-77855869D01*
X100867029Y-77851544D01*
X100854496Y-77788536D01*
X100845737Y-77744503D01*
X100845735Y-77744498D01*
X100785397Y-77598827D01*
X100785390Y-77598814D01*
X100697789Y-77467711D01*
X100697786Y-77467707D01*
X100586292Y-77356213D01*
X100586288Y-77356210D01*
X100455185Y-77268609D01*
X100455172Y-77268602D01*
X100309501Y-77208264D01*
X100309489Y-77208261D01*
X100154845Y-77177500D01*
X100154842Y-77177500D01*
X99997158Y-77177500D01*
X99997155Y-77177500D01*
X99842510Y-77208261D01*
X99842498Y-77208264D01*
X99696827Y-77268602D01*
X99696814Y-77268609D01*
X99565125Y-77356602D01*
X99498447Y-77377480D01*
X99496234Y-77377500D01*
X97328098Y-77377500D01*
X97261059Y-77357815D01*
X97240417Y-77341181D01*
X95446819Y-75547583D01*
X95413334Y-75486260D01*
X95410500Y-75459902D01*
X95410500Y-67381765D01*
X95430185Y-67314726D01*
X95431398Y-67312874D01*
X95438490Y-67302261D01*
X95519394Y-67181179D01*
X95579737Y-67035497D01*
X95610500Y-66880842D01*
X95610500Y-66723158D01*
X95610500Y-66723155D01*
X95610499Y-66723153D01*
X95608860Y-66714912D01*
X95579737Y-66568503D01*
X95577360Y-66562764D01*
X95519397Y-66422827D01*
X95519390Y-66422814D01*
X95431789Y-66291711D01*
X95431786Y-66291707D01*
X95320292Y-66180213D01*
X95320288Y-66180210D01*
X95189185Y-66092609D01*
X95189176Y-66092604D01*
X95165044Y-66082608D01*
X95110642Y-66038765D01*
X95088579Y-65972470D01*
X95088500Y-65968048D01*
X95088500Y-60302673D01*
X95108185Y-60235634D01*
X95160989Y-60189879D01*
X95230147Y-60179935D01*
X95259950Y-60188111D01*
X95302503Y-60205737D01*
X95452804Y-60235634D01*
X95457153Y-60236499D01*
X95457156Y-60236500D01*
X95541500Y-60236500D01*
X95608539Y-60256185D01*
X95654294Y-60308989D01*
X95665500Y-60360500D01*
X95665500Y-61381330D01*
X95665499Y-61381348D01*
X95665499Y-61547054D01*
X95665498Y-61547054D01*
X95677859Y-61593185D01*
X95706423Y-61699785D01*
X95720571Y-61724289D01*
X95753047Y-61780539D01*
X95785479Y-61836715D01*
X95904349Y-61955585D01*
X95904355Y-61955590D01*
X95939425Y-61990660D01*
X95972910Y-62051983D01*
X95973361Y-62054149D01*
X96004261Y-62209491D01*
X96004264Y-62209501D01*
X96064602Y-62355172D01*
X96064609Y-62355185D01*
X96152210Y-62486288D01*
X96152213Y-62486292D01*
X96263707Y-62597786D01*
X96263711Y-62597789D01*
X96394814Y-62685390D01*
X96394827Y-62685397D01*
X96500902Y-62729334D01*
X96540503Y-62745737D01*
X96695153Y-62776499D01*
X96695156Y-62776500D01*
X96811500Y-62776500D01*
X96878539Y-62796185D01*
X96924294Y-62848989D01*
X96935500Y-62900500D01*
X96935500Y-66331830D01*
X96935499Y-66331848D01*
X96935499Y-66497554D01*
X96935498Y-66497554D01*
X96976423Y-66650285D01*
X97001085Y-66692999D01*
X97001086Y-66693003D01*
X97001087Y-66693003D01*
X97055479Y-66787214D01*
X97055481Y-66787217D01*
X97174349Y-66906085D01*
X97174355Y-66906090D01*
X97209425Y-66941160D01*
X97242910Y-67002483D01*
X97243361Y-67004649D01*
X97274261Y-67159991D01*
X97274264Y-67160001D01*
X97334602Y-67305672D01*
X97334609Y-67305685D01*
X97422210Y-67436788D01*
X97422213Y-67436792D01*
X97533707Y-67548286D01*
X97533711Y-67548289D01*
X97664814Y-67635890D01*
X97664827Y-67635897D01*
X97802239Y-67692814D01*
X97810503Y-67696237D01*
X97965153Y-67726999D01*
X97965156Y-67727000D01*
X97965158Y-67727000D01*
X98122844Y-67727000D01*
X98122845Y-67726999D01*
X98277497Y-67696237D01*
X98423179Y-67635894D01*
X98554289Y-67548289D01*
X98665789Y-67436789D01*
X98753394Y-67305679D01*
X98813737Y-67159997D01*
X98844500Y-67005342D01*
X98844500Y-66847658D01*
X98844500Y-66847655D01*
X98844499Y-66847653D01*
X98832477Y-66787214D01*
X98813737Y-66693003D01*
X98784785Y-66623106D01*
X98753397Y-66547327D01*
X98753390Y-66547314D01*
X98665789Y-66416211D01*
X98665786Y-66416207D01*
X98554292Y-66304713D01*
X98554288Y-66304710D01*
X98423185Y-66217109D01*
X98423172Y-66217102D01*
X98277501Y-66156764D01*
X98277492Y-66156761D01*
X98236307Y-66148569D01*
X98174396Y-66116183D01*
X98139823Y-66055467D01*
X98136500Y-66026952D01*
X98136500Y-57475765D01*
X98156185Y-57408726D01*
X98157398Y-57406874D01*
X98160988Y-57401502D01*
X98245394Y-57275179D01*
X98305737Y-57129497D01*
X98336500Y-56974842D01*
X98336500Y-56817158D01*
X98336500Y-56817155D01*
X98336499Y-56817153D01*
X98330518Y-56787085D01*
X98305737Y-56662503D01*
X98290517Y-56625759D01*
X98245397Y-56516827D01*
X98245390Y-56516814D01*
X98157789Y-56385711D01*
X98157786Y-56385707D01*
X98046292Y-56274213D01*
X98046288Y-56274210D01*
X97915185Y-56186609D01*
X97915172Y-56186602D01*
X97769501Y-56126264D01*
X97769489Y-56126261D01*
X97614845Y-56095500D01*
X97614842Y-56095500D01*
X97457158Y-56095500D01*
X97457155Y-56095500D01*
X97302510Y-56126261D01*
X97302498Y-56126264D01*
X97156827Y-56186602D01*
X97156814Y-56186609D01*
X97059391Y-56251706D01*
X96992713Y-56272584D01*
X96925333Y-56254099D01*
X96878643Y-56202121D01*
X96866500Y-56148604D01*
X96866500Y-53411765D01*
X96886185Y-53344726D01*
X96887398Y-53342874D01*
X96890851Y-53337707D01*
X96975394Y-53211179D01*
X97035737Y-53065497D01*
X97066500Y-52910842D01*
X97066500Y-52753158D01*
X97066500Y-52753155D01*
X97066499Y-52753153D01*
X97047341Y-52656842D01*
X97035737Y-52598503D01*
X96994874Y-52499850D01*
X96975397Y-52452827D01*
X96975390Y-52452814D01*
X96887789Y-52321711D01*
X96887786Y-52321707D01*
X96776292Y-52210213D01*
X96776288Y-52210210D01*
X96645185Y-52122609D01*
X96645172Y-52122602D01*
X96499501Y-52062264D01*
X96499490Y-52062261D01*
X96425772Y-52047597D01*
X96363861Y-52015211D01*
X96329287Y-51954495D01*
X96328347Y-51950171D01*
X96327283Y-51944821D01*
X96305737Y-51836503D01*
X96283781Y-51783495D01*
X96245397Y-51690827D01*
X96245390Y-51690814D01*
X96157789Y-51559711D01*
X96157786Y-51559707D01*
X96046291Y-51448212D01*
X96046287Y-51448209D01*
X95915185Y-51360609D01*
X95915172Y-51360602D01*
X95769501Y-51300264D01*
X95769489Y-51300261D01*
X95614845Y-51269500D01*
X95614842Y-51269500D01*
X95457158Y-51269500D01*
X95457155Y-51269500D01*
X95302510Y-51300261D01*
X95302498Y-51300264D01*
X95156827Y-51360602D01*
X95156814Y-51360609D01*
X95025713Y-51448209D01*
X95025709Y-51448212D01*
X94914213Y-51559707D01*
X94914210Y-51559711D01*
X94826609Y-51690814D01*
X94826602Y-51690827D01*
X94766264Y-51836498D01*
X94766261Y-51836510D01*
X94735500Y-51991153D01*
X94735500Y-52148846D01*
X94766261Y-52303489D01*
X94766264Y-52303501D01*
X94826602Y-52449172D01*
X94826609Y-52449185D01*
X94914602Y-52580874D01*
X94935480Y-52647551D01*
X94935500Y-52649765D01*
X94935500Y-57553326D01*
X94915815Y-57620365D01*
X94863011Y-57666120D01*
X94793853Y-57676064D01*
X94764049Y-57667888D01*
X94721497Y-57650263D01*
X94721489Y-57650261D01*
X94566845Y-57619500D01*
X94566842Y-57619500D01*
X94450500Y-57619500D01*
X94383461Y-57599815D01*
X94337706Y-57547011D01*
X94326500Y-57495500D01*
X94326500Y-55189765D01*
X94346185Y-55122726D01*
X94347398Y-55120874D01*
X94435390Y-54989185D01*
X94435390Y-54989184D01*
X94435394Y-54989179D01*
X94495737Y-54843497D01*
X94526500Y-54688842D01*
X94526500Y-54531158D01*
X94526500Y-54531155D01*
X94526499Y-54531153D01*
X94519549Y-54496213D01*
X94495737Y-54376503D01*
X94495735Y-54376498D01*
X94435397Y-54230827D01*
X94435390Y-54230814D01*
X94347789Y-54099711D01*
X94347786Y-54099707D01*
X94236292Y-53988213D01*
X94236288Y-53988210D01*
X94105185Y-53900609D01*
X94105172Y-53900602D01*
X93959501Y-53840264D01*
X93959489Y-53840261D01*
X93804845Y-53809500D01*
X93804842Y-53809500D01*
X93647158Y-53809500D01*
X93647155Y-53809500D01*
X93492510Y-53840261D01*
X93492498Y-53840264D01*
X93346827Y-53900602D01*
X93346814Y-53900609D01*
X93215711Y-53988210D01*
X93215707Y-53988213D01*
X93104213Y-54099707D01*
X93104210Y-54099711D01*
X93016609Y-54230814D01*
X93016602Y-54230827D01*
X92956264Y-54376498D01*
X92956261Y-54376510D01*
X92925500Y-54531153D01*
X92925500Y-54688846D01*
X92956261Y-54843489D01*
X92956264Y-54843501D01*
X93016602Y-54989172D01*
X93016609Y-54989185D01*
X93104602Y-55120874D01*
X93125480Y-55187551D01*
X93125500Y-55189765D01*
X93125500Y-61713500D01*
X93105815Y-61780539D01*
X93053011Y-61826294D01*
X93001500Y-61837500D01*
X92875306Y-61837500D01*
X92701341Y-61872103D01*
X92701332Y-61872106D01*
X92565952Y-61928182D01*
X92496482Y-61935651D01*
X92434003Y-61904375D01*
X92398352Y-61844286D01*
X92394500Y-61813621D01*
X92394500Y-52031812D01*
X92414185Y-51964773D01*
X92466989Y-51919018D01*
X92471048Y-51917251D01*
X92628540Y-51852016D01*
X92628540Y-51852015D01*
X92628547Y-51852013D01*
X92776035Y-51753464D01*
X92901464Y-51628035D01*
X93000013Y-51480547D01*
X93067894Y-51316666D01*
X93071158Y-51300261D01*
X93102499Y-51142695D01*
X93102500Y-51142693D01*
X93102500Y-50965306D01*
X93102499Y-50965304D01*
X93067896Y-50791341D01*
X93067893Y-50791332D01*
X93000016Y-50627459D01*
X93000009Y-50627446D01*
X92901464Y-50479965D01*
X92901461Y-50479961D01*
X92776038Y-50354538D01*
X92776034Y-50354535D01*
X92628553Y-50255990D01*
X92628540Y-50255983D01*
X92464667Y-50188106D01*
X92464658Y-50188103D01*
X92290694Y-50153500D01*
X92290691Y-50153500D01*
X92113309Y-50153500D01*
X92113306Y-50153500D01*
X91939341Y-50188103D01*
X91939332Y-50188106D01*
X91775459Y-50255983D01*
X91775446Y-50255990D01*
X91627965Y-50354535D01*
X91627961Y-50354538D01*
X91502538Y-50479961D01*
X91502535Y-50479965D01*
X91403990Y-50627446D01*
X91403983Y-50627459D01*
X91336107Y-50791329D01*
X91336104Y-50791339D01*
X91309201Y-50926586D01*
X91276815Y-50988497D01*
X91275266Y-50990074D01*
X91149887Y-51115455D01*
X91149885Y-51115458D01*
X91073222Y-51230192D01*
X91020421Y-51357667D01*
X91020418Y-51357679D01*
X91002411Y-51448209D01*
X91002411Y-51448212D01*
X90993500Y-51493006D01*
X90993500Y-62381899D01*
X90973815Y-62448938D01*
X90972602Y-62450790D01*
X90895988Y-62565449D01*
X90895987Y-62565452D01*
X90828106Y-62729332D01*
X90828103Y-62729341D01*
X90793500Y-62903304D01*
X90793500Y-63080695D01*
X90828103Y-63254658D01*
X90828106Y-63254667D01*
X90895984Y-63418542D01*
X90895985Y-63418543D01*
X90895987Y-63418547D01*
X90952333Y-63502874D01*
X90972602Y-63533208D01*
X90993480Y-63599885D01*
X90993500Y-63602099D01*
X90993500Y-69897399D01*
X90973815Y-69964438D01*
X90972602Y-69966290D01*
X90895988Y-70080949D01*
X90895987Y-70080952D01*
X90828106Y-70244832D01*
X90828103Y-70244841D01*
X90793500Y-70418804D01*
X90793500Y-70596195D01*
X90828103Y-70770158D01*
X90828106Y-70770167D01*
X90895984Y-70934042D01*
X90895985Y-70934043D01*
X90895987Y-70934047D01*
X90928331Y-70982452D01*
X90972602Y-71048708D01*
X90993480Y-71115385D01*
X90993500Y-71117599D01*
X90993500Y-76882399D01*
X90973815Y-76949438D01*
X90972602Y-76951290D01*
X90895988Y-77065949D01*
X90895987Y-77065952D01*
X90828106Y-77229832D01*
X90828103Y-77229841D01*
X90793500Y-77403804D01*
X90793500Y-77581195D01*
X90828103Y-77755158D01*
X90828106Y-77755167D01*
X90895984Y-77919042D01*
X90895985Y-77919043D01*
X90895987Y-77919047D01*
X90970529Y-78030606D01*
X90972602Y-78033708D01*
X90993480Y-78100385D01*
X90993500Y-78102599D01*
X90993500Y-80415899D01*
X90973815Y-80482938D01*
X90972602Y-80484790D01*
X90895988Y-80599449D01*
X90895987Y-80599452D01*
X90828106Y-80763332D01*
X90828103Y-80763341D01*
X90793500Y-80937304D01*
X90793500Y-81114695D01*
X90828103Y-81288658D01*
X90828106Y-81288667D01*
X90895983Y-81452540D01*
X90895990Y-81452553D01*
X90994535Y-81600034D01*
X90994538Y-81600038D01*
X91119961Y-81725461D01*
X91119965Y-81725464D01*
X91267446Y-81824009D01*
X91267459Y-81824016D01*
X91353424Y-81859623D01*
X91431334Y-81891894D01*
X91431336Y-81891894D01*
X91431341Y-81891896D01*
X91605304Y-81926499D01*
X91605307Y-81926500D01*
X91605309Y-81926500D01*
X91782693Y-81926500D01*
X91782694Y-81926499D01*
X91840682Y-81914964D01*
X91956658Y-81891896D01*
X91956660Y-81891895D01*
X91956666Y-81891894D01*
X92092050Y-81835816D01*
X92161517Y-81828348D01*
X92223996Y-81859623D01*
X92259648Y-81919712D01*
X92263500Y-81950378D01*
X92263500Y-82447899D01*
X92243815Y-82514938D01*
X92242602Y-82516790D01*
X92165988Y-82631449D01*
X92165987Y-82631452D01*
X92098106Y-82795332D01*
X92098103Y-82795341D01*
X92063500Y-82969304D01*
X92063500Y-83146695D01*
X92098103Y-83320658D01*
X92098106Y-83320667D01*
X92165984Y-83484542D01*
X92165985Y-83484543D01*
X92165987Y-83484547D01*
X92242602Y-83599208D01*
X92263480Y-83665885D01*
X92263500Y-83668099D01*
X92263500Y-85008619D01*
X92243815Y-85075658D01*
X92191011Y-85121413D01*
X92121853Y-85131357D01*
X92115309Y-85130236D01*
X92046871Y-85116623D01*
X92046867Y-85116623D01*
X91889183Y-85116623D01*
X91889180Y-85116623D01*
X91734535Y-85147384D01*
X91734523Y-85147387D01*
X91588852Y-85207725D01*
X91588839Y-85207732D01*
X91457736Y-85295333D01*
X91457732Y-85295336D01*
X91346238Y-85406830D01*
X91346235Y-85406834D01*
X91258634Y-85537937D01*
X91258627Y-85537950D01*
X91198289Y-85683621D01*
X91198286Y-85683633D01*
X91167525Y-85838276D01*
X91167525Y-85995969D01*
X91198286Y-86150612D01*
X91198289Y-86150624D01*
X91258627Y-86296295D01*
X91258634Y-86296308D01*
X91326602Y-86398028D01*
X91347480Y-86464705D01*
X91347500Y-86466919D01*
X91347500Y-87050234D01*
X91327815Y-87117273D01*
X91326602Y-87119125D01*
X91238609Y-87250814D01*
X91238602Y-87250827D01*
X91178264Y-87396498D01*
X91178261Y-87396510D01*
X91147500Y-87551153D01*
X91147500Y-87708846D01*
X91178261Y-87863489D01*
X91178264Y-87863501D01*
X91238602Y-88009172D01*
X91238609Y-88009185D01*
X91326210Y-88140288D01*
X91326213Y-88140292D01*
X91437707Y-88251786D01*
X91437711Y-88251789D01*
X91568817Y-88339392D01*
X91568821Y-88339394D01*
X91577761Y-88343097D01*
X91632166Y-88386936D01*
X91654233Y-88453229D01*
X91644874Y-88505110D01*
X91590106Y-88637334D01*
X91590105Y-88637338D01*
X91590104Y-88637341D01*
X91590103Y-88637341D01*
X91555500Y-88811304D01*
X91555500Y-88988695D01*
X91590103Y-89162658D01*
X91590106Y-89162667D01*
X91657984Y-89326542D01*
X91657985Y-89326543D01*
X91657987Y-89326547D01*
X91724076Y-89425455D01*
X91734602Y-89441208D01*
X91755480Y-89507885D01*
X91755500Y-89510099D01*
X91755500Y-93469901D01*
X91735815Y-93536940D01*
X91734602Y-93538792D01*
X91657988Y-93653451D01*
X91657987Y-93653454D01*
X91590106Y-93817334D01*
X91590103Y-93817343D01*
X91555500Y-93991306D01*
X91555500Y-94168697D01*
X91590103Y-94342660D01*
X91590106Y-94342669D01*
X91657983Y-94506542D01*
X91657990Y-94506555D01*
X91756535Y-94654036D01*
X91756538Y-94654040D01*
X91881961Y-94779463D01*
X91881965Y-94779466D01*
X92029446Y-94878011D01*
X92029459Y-94878018D01*
X92128253Y-94918939D01*
X92182657Y-94962779D01*
X92204722Y-95029073D01*
X92187443Y-95096773D01*
X92136306Y-95144384D01*
X92080801Y-95157500D01*
X87193766Y-95157500D01*
X87126727Y-95137815D01*
X87124875Y-95136602D01*
X86993185Y-95048609D01*
X86993172Y-95048602D01*
X86847501Y-94988264D01*
X86847489Y-94988261D01*
X86692845Y-94957500D01*
X86692842Y-94957500D01*
X86535158Y-94957500D01*
X86535155Y-94957500D01*
X86380510Y-94988261D01*
X86380498Y-94988264D01*
X86234827Y-95048602D01*
X86234814Y-95048609D01*
X86103711Y-95136210D01*
X86103707Y-95136213D01*
X85992213Y-95247707D01*
X85992210Y-95247711D01*
X85904609Y-95378814D01*
X85904602Y-95378827D01*
X85844264Y-95524498D01*
X85844261Y-95524510D01*
X85813500Y-95679153D01*
X67500500Y-95679153D01*
X67500500Y-52913713D01*
X70249500Y-52913713D01*
X70249500Y-53126286D01*
X70272348Y-53270547D01*
X70282754Y-53336243D01*
X70332735Y-53490069D01*
X70348444Y-53538414D01*
X70444951Y-53727820D01*
X70569890Y-53899786D01*
X70720213Y-54050109D01*
X70892182Y-54175050D01*
X70900946Y-54179516D01*
X70951742Y-54227491D01*
X70968536Y-54295312D01*
X70945998Y-54361447D01*
X70900946Y-54400484D01*
X70892182Y-54404949D01*
X70720213Y-54529890D01*
X70569890Y-54680213D01*
X70444951Y-54852179D01*
X70348444Y-55041585D01*
X70282753Y-55243760D01*
X70265689Y-55351501D01*
X70249500Y-55453713D01*
X70249500Y-55666287D01*
X70254135Y-55695551D01*
X70282123Y-55872264D01*
X70282754Y-55876243D01*
X70329532Y-56020211D01*
X70348444Y-56078414D01*
X70444951Y-56267820D01*
X70569890Y-56439786D01*
X70720213Y-56590109D01*
X70892182Y-56715050D01*
X70900946Y-56719516D01*
X70951742Y-56767491D01*
X70968536Y-56835312D01*
X70945998Y-56901447D01*
X70900946Y-56940484D01*
X70892182Y-56944949D01*
X70720213Y-57069890D01*
X70569890Y-57220213D01*
X70444951Y-57392179D01*
X70348444Y-57581585D01*
X70282753Y-57783760D01*
X70249500Y-57993713D01*
X70249500Y-58206286D01*
X70265326Y-58306211D01*
X70282754Y-58416243D01*
X70331295Y-58565637D01*
X70348444Y-58618414D01*
X70444951Y-58807820D01*
X70569890Y-58979786D01*
X70720213Y-59130109D01*
X70892182Y-59255050D01*
X70900946Y-59259516D01*
X70951742Y-59307491D01*
X70968536Y-59375312D01*
X70945998Y-59441447D01*
X70900946Y-59480484D01*
X70892182Y-59484949D01*
X70720213Y-59609890D01*
X70569890Y-59760213D01*
X70444951Y-59932179D01*
X70348444Y-60121585D01*
X70282753Y-60323760D01*
X70249500Y-60533713D01*
X70249500Y-60746286D01*
X70263522Y-60834821D01*
X70282754Y-60956243D01*
X70340887Y-61135158D01*
X70348444Y-61158414D01*
X70444951Y-61347820D01*
X70569890Y-61519786D01*
X70720213Y-61670109D01*
X70892182Y-61795050D01*
X70900946Y-61799516D01*
X70951742Y-61847491D01*
X70968536Y-61915312D01*
X70945998Y-61981447D01*
X70900946Y-62020484D01*
X70892182Y-62024949D01*
X70720213Y-62149890D01*
X70569890Y-62300213D01*
X70444951Y-62472179D01*
X70348444Y-62661585D01*
X70282753Y-62863760D01*
X70249500Y-63073713D01*
X70249500Y-63286286D01*
X70276937Y-63459520D01*
X70282754Y-63496243D01*
X70316429Y-63599885D01*
X70348444Y-63698414D01*
X70444951Y-63887820D01*
X70569890Y-64059786D01*
X70720213Y-64210109D01*
X70892182Y-64335050D01*
X70900946Y-64339516D01*
X70951742Y-64387491D01*
X70968536Y-64455312D01*
X70945998Y-64521447D01*
X70900946Y-64560484D01*
X70892182Y-64564949D01*
X70720213Y-64689890D01*
X70569890Y-64840213D01*
X70444951Y-65012179D01*
X70348444Y-65201585D01*
X70282753Y-65403760D01*
X70249955Y-65610842D01*
X70249500Y-65613713D01*
X70249500Y-65826287D01*
X70282754Y-66036243D01*
X70341521Y-66217109D01*
X70348444Y-66238414D01*
X70444951Y-66427820D01*
X70569890Y-66599786D01*
X70720213Y-66750109D01*
X70892182Y-66875050D01*
X70900946Y-66879516D01*
X70951742Y-66927491D01*
X70968536Y-66995312D01*
X70945998Y-67061447D01*
X70900946Y-67100484D01*
X70892182Y-67104949D01*
X70720213Y-67229890D01*
X70569890Y-67380213D01*
X70444951Y-67552179D01*
X70348444Y-67741585D01*
X70282753Y-67943760D01*
X70249500Y-68153713D01*
X70249500Y-68366286D01*
X70270861Y-68501158D01*
X70282754Y-68576243D01*
X70309593Y-68658846D01*
X70348444Y-68778414D01*
X70444951Y-68967820D01*
X70569890Y-69139786D01*
X70720213Y-69290109D01*
X70892182Y-69415050D01*
X70900946Y-69419516D01*
X70951742Y-69467491D01*
X70968536Y-69535312D01*
X70945998Y-69601447D01*
X70900946Y-69640484D01*
X70892182Y-69644949D01*
X70720213Y-69769890D01*
X70569890Y-69920213D01*
X70444951Y-70092179D01*
X70348444Y-70281585D01*
X70282753Y-70483760D01*
X70249500Y-70693713D01*
X70249500Y-70906286D01*
X70282123Y-71112264D01*
X70282754Y-71116243D01*
X70329532Y-71260211D01*
X70348444Y-71318414D01*
X70444951Y-71507820D01*
X70569890Y-71679786D01*
X70720213Y-71830109D01*
X70892182Y-71955050D01*
X70900946Y-71959516D01*
X70951742Y-72007491D01*
X70968536Y-72075312D01*
X70945998Y-72141447D01*
X70900946Y-72180484D01*
X70892182Y-72184949D01*
X70720213Y-72309890D01*
X70569890Y-72460213D01*
X70444951Y-72632179D01*
X70348444Y-72821585D01*
X70282753Y-73023760D01*
X70249500Y-73233713D01*
X70249500Y-73446286D01*
X70278996Y-73632520D01*
X70282754Y-73656243D01*
X70343905Y-73844447D01*
X70348444Y-73858414D01*
X70444951Y-74047820D01*
X70569890Y-74219786D01*
X70720213Y-74370109D01*
X70892182Y-74495050D01*
X70900946Y-74499516D01*
X70951742Y-74547491D01*
X70968536Y-74615312D01*
X70945998Y-74681447D01*
X70900946Y-74720484D01*
X70892182Y-74724949D01*
X70720213Y-74849890D01*
X70569890Y-75000213D01*
X70444951Y-75172179D01*
X70348444Y-75361585D01*
X70282753Y-75563760D01*
X70249500Y-75773713D01*
X70249500Y-75986286D01*
X70279614Y-76176422D01*
X70282754Y-76196243D01*
X70344047Y-76384884D01*
X70348444Y-76398414D01*
X70444951Y-76587820D01*
X70569890Y-76759786D01*
X70720213Y-76910109D01*
X70892182Y-77035050D01*
X70900946Y-77039516D01*
X70951742Y-77087491D01*
X70968536Y-77155312D01*
X70945998Y-77221447D01*
X70900946Y-77260484D01*
X70892182Y-77264949D01*
X70720213Y-77389890D01*
X70569890Y-77540213D01*
X70444951Y-77712179D01*
X70348444Y-77901585D01*
X70348443Y-77901587D01*
X70348443Y-77901588D01*
X70342770Y-77919047D01*
X70282753Y-78103760D01*
X70249500Y-78313713D01*
X70249500Y-78526286D01*
X70270861Y-78661158D01*
X70282754Y-78736243D01*
X70344047Y-78924884D01*
X70348444Y-78938414D01*
X70444951Y-79127820D01*
X70569890Y-79299786D01*
X70720213Y-79450109D01*
X70892182Y-79575050D01*
X70900946Y-79579516D01*
X70951742Y-79627491D01*
X70968536Y-79695312D01*
X70945998Y-79761447D01*
X70900946Y-79800484D01*
X70892182Y-79804949D01*
X70720213Y-79929890D01*
X70569890Y-80080213D01*
X70444951Y-80252179D01*
X70348444Y-80441585D01*
X70282753Y-80643760D01*
X70258159Y-80799042D01*
X70249500Y-80853713D01*
X70249500Y-81066287D01*
X70282754Y-81276243D01*
X70305257Y-81345501D01*
X70348444Y-81478414D01*
X70444951Y-81667820D01*
X70569890Y-81839786D01*
X70720213Y-81990109D01*
X70892179Y-82115048D01*
X70892181Y-82115049D01*
X70892184Y-82115051D01*
X70901493Y-82119794D01*
X70952290Y-82167766D01*
X70969087Y-82235587D01*
X70946552Y-82301722D01*
X70901502Y-82340762D01*
X70892443Y-82345378D01*
X70720540Y-82470272D01*
X70720535Y-82470276D01*
X70570276Y-82620535D01*
X70570272Y-82620540D01*
X70445379Y-82792442D01*
X70348904Y-82981782D01*
X70283242Y-83183870D01*
X70283242Y-83183873D01*
X70272769Y-83250000D01*
X71166988Y-83250000D01*
X71134075Y-83307007D01*
X71100000Y-83434174D01*
X71100000Y-83565826D01*
X71134075Y-83692993D01*
X71166988Y-83750000D01*
X70272769Y-83750000D01*
X70283242Y-83816126D01*
X70283242Y-83816129D01*
X70348904Y-84018217D01*
X70445379Y-84207557D01*
X70570272Y-84379459D01*
X70570276Y-84379464D01*
X70720535Y-84529723D01*
X70720540Y-84529727D01*
X70892444Y-84654622D01*
X70901495Y-84659234D01*
X70952292Y-84707208D01*
X70969087Y-84775029D01*
X70946550Y-84841164D01*
X70901499Y-84880202D01*
X70892182Y-84884949D01*
X70720213Y-85009890D01*
X70569890Y-85160213D01*
X70444951Y-85332179D01*
X70348444Y-85521585D01*
X70282753Y-85723760D01*
X70249500Y-85933713D01*
X70249500Y-86146286D01*
X70270861Y-86281158D01*
X70282754Y-86356243D01*
X70309593Y-86438846D01*
X70348444Y-86558414D01*
X70444951Y-86747820D01*
X70569890Y-86919786D01*
X70720213Y-87070109D01*
X70892182Y-87195050D01*
X70900946Y-87199516D01*
X70951742Y-87247491D01*
X70968536Y-87315312D01*
X70945998Y-87381447D01*
X70900946Y-87420484D01*
X70892182Y-87424949D01*
X70720213Y-87549890D01*
X70569890Y-87700213D01*
X70444951Y-87872179D01*
X70348444Y-88061585D01*
X70282753Y-88263760D01*
X70249500Y-88473713D01*
X70249500Y-88686286D01*
X70273614Y-88838540D01*
X70282754Y-88896243D01*
X70347068Y-89094181D01*
X70348444Y-89098414D01*
X70444951Y-89287820D01*
X70569890Y-89459786D01*
X70720213Y-89610109D01*
X70892182Y-89735050D01*
X70900946Y-89739516D01*
X70951742Y-89787491D01*
X70968536Y-89855312D01*
X70945998Y-89921447D01*
X70900946Y-89960484D01*
X70892182Y-89964949D01*
X70720213Y-90089890D01*
X70720209Y-90089894D01*
X70569896Y-90240208D01*
X70569890Y-90240213D01*
X70444951Y-90412179D01*
X70348444Y-90601585D01*
X70282753Y-90803760D01*
X70249500Y-91013713D01*
X70249500Y-91226286D01*
X70277724Y-91404490D01*
X70282754Y-91436243D01*
X70329532Y-91580211D01*
X70348444Y-91638414D01*
X70444951Y-91827820D01*
X70569890Y-91999786D01*
X70683430Y-92113326D01*
X70716915Y-92174649D01*
X70711931Y-92244341D01*
X70670059Y-92300274D01*
X70639083Y-92317189D01*
X70507669Y-92366203D01*
X70507664Y-92366206D01*
X70392455Y-92452452D01*
X70392452Y-92452455D01*
X70306206Y-92567664D01*
X70306202Y-92567671D01*
X70255908Y-92702517D01*
X70249501Y-92762116D01*
X70249500Y-92762135D01*
X70249500Y-94557870D01*
X70249501Y-94557876D01*
X70255908Y-94617483D01*
X70306202Y-94752328D01*
X70306206Y-94752335D01*
X70392452Y-94867544D01*
X70392455Y-94867547D01*
X70507664Y-94953793D01*
X70507671Y-94953797D01*
X70642517Y-95004091D01*
X70642516Y-95004091D01*
X70649444Y-95004835D01*
X70702127Y-95010500D01*
X72049902Y-95010499D01*
X72079342Y-95019143D01*
X72109329Y-95025667D01*
X72114344Y-95029421D01*
X72116941Y-95030184D01*
X72137583Y-95046818D01*
X72266139Y-95175374D01*
X72266149Y-95175385D01*
X72270479Y-95179715D01*
X72270480Y-95179716D01*
X72382284Y-95291520D01*
X72382286Y-95291521D01*
X72428955Y-95318465D01*
X72428954Y-95318465D01*
X72428957Y-95318466D01*
X72519209Y-95370574D01*
X72519210Y-95370575D01*
X72519212Y-95370575D01*
X72519215Y-95370577D01*
X72671943Y-95411501D01*
X72671946Y-95411501D01*
X72837654Y-95411501D01*
X72837670Y-95411500D01*
X82140331Y-95411500D01*
X82140347Y-95411501D01*
X82147943Y-95411501D01*
X82306054Y-95411501D01*
X82306057Y-95411501D01*
X82458785Y-95370577D01*
X82549045Y-95318465D01*
X82595716Y-95291520D01*
X82707520Y-95179716D01*
X82707520Y-95179714D01*
X82717724Y-95169511D01*
X82717728Y-95169506D01*
X83162506Y-94724728D01*
X83162511Y-94724724D01*
X83172714Y-94714520D01*
X83172716Y-94714520D01*
X83284520Y-94602716D01*
X83349429Y-94490289D01*
X83363577Y-94465785D01*
X83404500Y-94313058D01*
X83404500Y-94154943D01*
X83404500Y-94142500D01*
X83424185Y-94075461D01*
X83476989Y-94029706D01*
X83528500Y-94018500D01*
X83644844Y-94018500D01*
X83644845Y-94018499D01*
X83799497Y-93987737D01*
X83945179Y-93927394D01*
X84076289Y-93839789D01*
X84187789Y-93728289D01*
X84275394Y-93597179D01*
X84335737Y-93451497D01*
X84366500Y-93296842D01*
X84366500Y-93139158D01*
X84366080Y-93137047D01*
X84366181Y-93135917D01*
X84365903Y-93133093D01*
X84366438Y-93133040D01*
X84372301Y-93067457D01*
X84415159Y-93012275D01*
X84463503Y-92991229D01*
X84561497Y-92971737D01*
X84677168Y-92923825D01*
X84707172Y-92911397D01*
X84707172Y-92911396D01*
X84707179Y-92911394D01*
X84838289Y-92823789D01*
X84949789Y-92712289D01*
X85037394Y-92581179D01*
X85097737Y-92435497D01*
X85128500Y-92280842D01*
X85128500Y-92123158D01*
X85128500Y-92123155D01*
X85128499Y-92123153D01*
X85117611Y-92068417D01*
X85097737Y-91968503D01*
X85057592Y-91871583D01*
X85037397Y-91822827D01*
X85037390Y-91822814D01*
X84949789Y-91691711D01*
X84949786Y-91691707D01*
X84838292Y-91580213D01*
X84838288Y-91580210D01*
X84729609Y-91507592D01*
X84684804Y-91453979D01*
X84674500Y-91404490D01*
X84674500Y-89839632D01*
X84694185Y-89772593D01*
X84746989Y-89726838D01*
X84786357Y-89716228D01*
X84792050Y-89715667D01*
X84792061Y-89715667D01*
X84946716Y-89684904D01*
X85092398Y-89624561D01*
X85223508Y-89536956D01*
X85335008Y-89425456D01*
X85422613Y-89294346D01*
X85482956Y-89148664D01*
X85513719Y-88994009D01*
X85513719Y-88836325D01*
X85513719Y-88836322D01*
X85513718Y-88836320D01*
X85508742Y-88811304D01*
X85482956Y-88681670D01*
X85482954Y-88681665D01*
X85422616Y-88535994D01*
X85422609Y-88535981D01*
X85335008Y-88404878D01*
X85335005Y-88404874D01*
X85219201Y-88289070D01*
X85221139Y-88287131D01*
X85188471Y-88239090D01*
X85182500Y-88201075D01*
X85182500Y-75809927D01*
X85202185Y-75742888D01*
X85254989Y-75697133D01*
X85324147Y-75687189D01*
X85353949Y-75695365D01*
X85364503Y-75699737D01*
X85519153Y-75730499D01*
X85519156Y-75730500D01*
X85519158Y-75730500D01*
X85676844Y-75730500D01*
X85676845Y-75730499D01*
X85831497Y-75699737D01*
X85977179Y-75639394D01*
X86108289Y-75551789D01*
X86219789Y-75440289D01*
X86307394Y-75309179D01*
X86367737Y-75163497D01*
X86398500Y-75008842D01*
X86398500Y-74851158D01*
X86398500Y-74851155D01*
X86398499Y-74851153D01*
X86391549Y-74816213D01*
X86367737Y-74696503D01*
X86356039Y-74668261D01*
X86307397Y-74550827D01*
X86307390Y-74550814D01*
X86219398Y-74419125D01*
X86198520Y-74352447D01*
X86198500Y-74350234D01*
X86198500Y-61793765D01*
X86218185Y-61726726D01*
X86219398Y-61724874D01*
X86307390Y-61593185D01*
X86307390Y-61593184D01*
X86307394Y-61593179D01*
X86308831Y-61589711D01*
X86367735Y-61447501D01*
X86367737Y-61447497D01*
X86398500Y-61292842D01*
X86398500Y-61135158D01*
X86398500Y-61135155D01*
X86398499Y-61135153D01*
X86367738Y-60980510D01*
X86367737Y-60980503D01*
X86357687Y-60956239D01*
X86307397Y-60834827D01*
X86307390Y-60834814D01*
X86219789Y-60703711D01*
X86219786Y-60703707D01*
X86108292Y-60592213D01*
X86108288Y-60592210D01*
X85977185Y-60504609D01*
X85977172Y-60504602D01*
X85831501Y-60444264D01*
X85831489Y-60444261D01*
X85676845Y-60413500D01*
X85676842Y-60413500D01*
X85519158Y-60413500D01*
X85519155Y-60413500D01*
X85364510Y-60444261D01*
X85364498Y-60444264D01*
X85218827Y-60504602D01*
X85218814Y-60504609D01*
X85087711Y-60592210D01*
X85087707Y-60592213D01*
X84976213Y-60703707D01*
X84976210Y-60703711D01*
X84888609Y-60834814D01*
X84888602Y-60834827D01*
X84828264Y-60980498D01*
X84828261Y-60980510D01*
X84797500Y-61135153D01*
X84797500Y-61292846D01*
X84828261Y-61447489D01*
X84828264Y-61447501D01*
X84888602Y-61593172D01*
X84888609Y-61593185D01*
X84976602Y-61724874D01*
X84997480Y-61791551D01*
X84997500Y-61793765D01*
X84997500Y-68357572D01*
X84977815Y-68424611D01*
X84925011Y-68470366D01*
X84855853Y-68480310D01*
X84826048Y-68472133D01*
X84815501Y-68467764D01*
X84815489Y-68467761D01*
X84660845Y-68437000D01*
X84660842Y-68437000D01*
X84503158Y-68437000D01*
X84483616Y-68440887D01*
X84414025Y-68434658D01*
X84358848Y-68391795D01*
X84335604Y-68325905D01*
X84337808Y-68295082D01*
X84356557Y-68200827D01*
X84366500Y-68150844D01*
X84366500Y-67993155D01*
X84366499Y-67993153D01*
X84336590Y-67842792D01*
X84335737Y-67838503D01*
X84295593Y-67741585D01*
X84275397Y-67692827D01*
X84275390Y-67692814D01*
X84187789Y-67561711D01*
X84187786Y-67561707D01*
X84076292Y-67450213D01*
X84076288Y-67450210D01*
X83945185Y-67362609D01*
X83945172Y-67362602D01*
X83799501Y-67302264D01*
X83799491Y-67302261D01*
X83687794Y-67280043D01*
X83625883Y-67247658D01*
X83591309Y-67186942D01*
X83590369Y-67182617D01*
X83585870Y-67160001D01*
X83573737Y-67099003D01*
X83536226Y-67008443D01*
X83513397Y-66953327D01*
X83513390Y-66953314D01*
X83425789Y-66822211D01*
X83425786Y-66822207D01*
X83314292Y-66710713D01*
X83314288Y-66710710D01*
X83183185Y-66623109D01*
X83183172Y-66623102D01*
X83037501Y-66562764D01*
X83037489Y-66562761D01*
X82882845Y-66532000D01*
X82882842Y-66532000D01*
X82766500Y-66532000D01*
X82699461Y-66512315D01*
X82653706Y-66459511D01*
X82642500Y-66408000D01*
X82642500Y-59736097D01*
X82651144Y-59706656D01*
X82657668Y-59676670D01*
X82661422Y-59671654D01*
X82662185Y-59669058D01*
X82678819Y-59648416D01*
X82716082Y-59611153D01*
X88099500Y-59611153D01*
X88099500Y-59768846D01*
X88130261Y-59923489D01*
X88130264Y-59923501D01*
X88190602Y-60069172D01*
X88190609Y-60069185D01*
X88278210Y-60200288D01*
X88278213Y-60200292D01*
X88389708Y-60311787D01*
X88389711Y-60311789D01*
X88498392Y-60384407D01*
X88543196Y-60438017D01*
X88553500Y-60487508D01*
X88553500Y-76128234D01*
X88533815Y-76195273D01*
X88532602Y-76197125D01*
X88444609Y-76328814D01*
X88444602Y-76328827D01*
X88384264Y-76474498D01*
X88384261Y-76474510D01*
X88353500Y-76629153D01*
X88353500Y-76786846D01*
X88384261Y-76941489D01*
X88384264Y-76941501D01*
X88444602Y-77087172D01*
X88444609Y-77087185D01*
X88532210Y-77218288D01*
X88532213Y-77218292D01*
X88643707Y-77329786D01*
X88643711Y-77329789D01*
X88774814Y-77417390D01*
X88774827Y-77417397D01*
X88896288Y-77467707D01*
X88920503Y-77477737D01*
X89052148Y-77503923D01*
X89075153Y-77508499D01*
X89075156Y-77508500D01*
X89075158Y-77508500D01*
X89232844Y-77508500D01*
X89232845Y-77508499D01*
X89387497Y-77477737D01*
X89500166Y-77431067D01*
X89533172Y-77417397D01*
X89533172Y-77417396D01*
X89533179Y-77417394D01*
X89664289Y-77329789D01*
X89775789Y-77218289D01*
X89863394Y-77087179D01*
X89923737Y-76941497D01*
X89954500Y-76786842D01*
X89954500Y-76629158D01*
X89954500Y-76629155D01*
X89954499Y-76629153D01*
X89946277Y-76587820D01*
X89923737Y-76474503D01*
X89892220Y-76398414D01*
X89863397Y-76328827D01*
X89863390Y-76328814D01*
X89775398Y-76197125D01*
X89754520Y-76130447D01*
X89754500Y-76128234D01*
X89754500Y-59864942D01*
X89750677Y-59850672D01*
X89726438Y-59760213D01*
X89713577Y-59712215D01*
X89713575Y-59712212D01*
X89713575Y-59712210D01*
X89710465Y-59704701D01*
X89713154Y-59703587D01*
X89700500Y-59656338D01*
X89700500Y-59611155D01*
X89700499Y-59611153D01*
X89681384Y-59515057D01*
X89669737Y-59456503D01*
X89663501Y-59441447D01*
X89609397Y-59310827D01*
X89609390Y-59310814D01*
X89521789Y-59179711D01*
X89521786Y-59179707D01*
X89410292Y-59068213D01*
X89410288Y-59068210D01*
X89279185Y-58980609D01*
X89279172Y-58980602D01*
X89133501Y-58920264D01*
X89133489Y-58920261D01*
X88978845Y-58889500D01*
X88978842Y-58889500D01*
X88821158Y-58889500D01*
X88821155Y-58889500D01*
X88666510Y-58920261D01*
X88666498Y-58920264D01*
X88520827Y-58980602D01*
X88520814Y-58980609D01*
X88389711Y-59068210D01*
X88389707Y-59068213D01*
X88278213Y-59179707D01*
X88278210Y-59179711D01*
X88190609Y-59310814D01*
X88190602Y-59310827D01*
X88130264Y-59456498D01*
X88130261Y-59456510D01*
X88099500Y-59611153D01*
X82716082Y-59611153D01*
X83761879Y-58565356D01*
X84850664Y-57476571D01*
X84911985Y-57443088D01*
X84914152Y-57442637D01*
X84914841Y-57442500D01*
X84914842Y-57442500D01*
X85069497Y-57411737D01*
X85215179Y-57351394D01*
X85346289Y-57263789D01*
X85457789Y-57152289D01*
X85545394Y-57021179D01*
X85605737Y-56875497D01*
X85636500Y-56720842D01*
X85636500Y-56563158D01*
X85636500Y-56563155D01*
X85636499Y-56563153D01*
X85627283Y-56516821D01*
X85605737Y-56408503D01*
X85550112Y-56274211D01*
X85545397Y-56262827D01*
X85545390Y-56262814D01*
X85457789Y-56131711D01*
X85457786Y-56131707D01*
X85346292Y-56020213D01*
X85346288Y-56020210D01*
X85215185Y-55932609D01*
X85215172Y-55932602D01*
X85069501Y-55872264D01*
X85069489Y-55872261D01*
X84914845Y-55841500D01*
X84914842Y-55841500D01*
X84757158Y-55841500D01*
X84757155Y-55841500D01*
X84602510Y-55872261D01*
X84602498Y-55872264D01*
X84456827Y-55932602D01*
X84456814Y-55932609D01*
X84325711Y-56020210D01*
X84325707Y-56020213D01*
X84214213Y-56131707D01*
X84214210Y-56131711D01*
X84126609Y-56262814D01*
X84126602Y-56262827D01*
X84066264Y-56408498D01*
X84066261Y-56408508D01*
X84035362Y-56563848D01*
X84002977Y-56625759D01*
X84001426Y-56627337D01*
X81675560Y-58953203D01*
X81675550Y-58953213D01*
X81673286Y-58955478D01*
X81673284Y-58955480D01*
X81561480Y-59067284D01*
X81541441Y-59101992D01*
X81532690Y-59111701D01*
X81513615Y-59123437D01*
X81497406Y-59138894D01*
X81484434Y-59141393D01*
X81473183Y-59148317D01*
X81450788Y-59147878D01*
X81428799Y-59152116D01*
X81416536Y-59147206D01*
X81403327Y-59146948D01*
X81384724Y-59134471D01*
X81363934Y-59126148D01*
X81356271Y-59115387D01*
X81345300Y-59108029D01*
X81336396Y-59087476D01*
X81323406Y-59069234D01*
X81322450Y-59055284D01*
X81317526Y-59043917D01*
X81320449Y-59026073D01*
X81319558Y-59013070D01*
X81317903Y-59012907D01*
X81318500Y-59006844D01*
X81318500Y-58849155D01*
X81318499Y-58849153D01*
X81310277Y-58807818D01*
X81287737Y-58694503D01*
X81287735Y-58694498D01*
X81227397Y-58548827D01*
X81227390Y-58548814D01*
X81139789Y-58417711D01*
X81139786Y-58417707D01*
X81028292Y-58306213D01*
X81028288Y-58306210D01*
X80897185Y-58218609D01*
X80897172Y-58218602D01*
X80751501Y-58158264D01*
X80751489Y-58158261D01*
X80596845Y-58127500D01*
X80596842Y-58127500D01*
X80480500Y-58127500D01*
X80471814Y-58124949D01*
X80462853Y-58126238D01*
X80438812Y-58115259D01*
X80413461Y-58107815D01*
X80407533Y-58100974D01*
X80399297Y-58097213D01*
X80385007Y-58074978D01*
X80367706Y-58055011D01*
X80365418Y-58044496D01*
X80361523Y-58038435D01*
X80356500Y-58003500D01*
X80356500Y-57958097D01*
X80376185Y-57891058D01*
X80392819Y-57870416D01*
X81339235Y-56924000D01*
X82310662Y-55952572D01*
X82371983Y-55919089D01*
X82374150Y-55918638D01*
X82432085Y-55907113D01*
X82529497Y-55887737D01*
X82675179Y-55827394D01*
X82806289Y-55739789D01*
X82917789Y-55628289D01*
X83005394Y-55497179D01*
X83065737Y-55351497D01*
X83096500Y-55196842D01*
X83096500Y-55039158D01*
X83096500Y-55039155D01*
X83096499Y-55039153D01*
X83086557Y-54989172D01*
X83065737Y-54884503D01*
X83055064Y-54858735D01*
X83005397Y-54738827D01*
X83005390Y-54738814D01*
X82917789Y-54607711D01*
X82917786Y-54607707D01*
X82806292Y-54496213D01*
X82806288Y-54496210D01*
X82675185Y-54408609D01*
X82675172Y-54408602D01*
X82529501Y-54348264D01*
X82529489Y-54348261D01*
X82374845Y-54317500D01*
X82374842Y-54317500D01*
X82217158Y-54317500D01*
X82155700Y-54329724D01*
X82086108Y-54323495D01*
X82030931Y-54280632D01*
X82007688Y-54214741D01*
X82016948Y-54160656D01*
X82049737Y-54081497D01*
X82080500Y-53926842D01*
X82080500Y-53769158D01*
X82080500Y-53769155D01*
X82080499Y-53769153D01*
X82072277Y-53727820D01*
X82049737Y-53614503D01*
X82039064Y-53588735D01*
X81989397Y-53468827D01*
X81989390Y-53468814D01*
X81901789Y-53337711D01*
X81901786Y-53337707D01*
X81790292Y-53226213D01*
X81790288Y-53226210D01*
X81659185Y-53138609D01*
X81659172Y-53138602D01*
X81513501Y-53078264D01*
X81513489Y-53078261D01*
X81352868Y-53046311D01*
X81353325Y-53044010D01*
X81298183Y-53021732D01*
X81257836Y-52964689D01*
X81254733Y-52894888D01*
X81260583Y-52877052D01*
X81287737Y-52811497D01*
X81318500Y-52656842D01*
X81318500Y-52499158D01*
X81318500Y-52499155D01*
X81318499Y-52499153D01*
X81309283Y-52452821D01*
X81287737Y-52344503D01*
X81278295Y-52321707D01*
X81227397Y-52198827D01*
X81227390Y-52198814D01*
X81139789Y-52067711D01*
X81139786Y-52067707D01*
X81028292Y-51956213D01*
X81028288Y-51956210D01*
X80897185Y-51868609D01*
X80897172Y-51868602D01*
X80751501Y-51808264D01*
X80751489Y-51808261D01*
X80596845Y-51777500D01*
X80596842Y-51777500D01*
X80439158Y-51777500D01*
X80377700Y-51789724D01*
X80308108Y-51783495D01*
X80252931Y-51740632D01*
X80229688Y-51674741D01*
X80238948Y-51620656D01*
X80271737Y-51541497D01*
X80302500Y-51386842D01*
X80302500Y-51229158D01*
X80302500Y-51229155D01*
X80302499Y-51229153D01*
X80285301Y-51142693D01*
X80271737Y-51074503D01*
X80254570Y-51033058D01*
X80211397Y-50928827D01*
X80211390Y-50928814D01*
X80123789Y-50797711D01*
X80123786Y-50797707D01*
X80012292Y-50686213D01*
X80012288Y-50686210D01*
X79881185Y-50598609D01*
X79881172Y-50598602D01*
X79735501Y-50538264D01*
X79735491Y-50538261D01*
X79659683Y-50523182D01*
X79597772Y-50490797D01*
X79563198Y-50430081D01*
X79566938Y-50360312D01*
X79596196Y-50313882D01*
X79615787Y-50294291D01*
X79615789Y-50294289D01*
X79703394Y-50163179D01*
X79763737Y-50017497D01*
X79794500Y-49862842D01*
X79794500Y-49705158D01*
X79794500Y-49705155D01*
X79794499Y-49705153D01*
X79763738Y-49550510D01*
X79763737Y-49550503D01*
X79763735Y-49550498D01*
X79703397Y-49404827D01*
X79703390Y-49404814D01*
X79615789Y-49273711D01*
X79615786Y-49273707D01*
X79504292Y-49162213D01*
X79504288Y-49162210D01*
X79373185Y-49074609D01*
X79373172Y-49074602D01*
X79227501Y-49014264D01*
X79227491Y-49014261D01*
X79129503Y-48994770D01*
X79067592Y-48962385D01*
X79033018Y-48901669D01*
X79032151Y-48852931D01*
X79031903Y-48852907D01*
X79032113Y-48850770D01*
X79032081Y-48848947D01*
X79032500Y-48846841D01*
X79032500Y-48689155D01*
X79032499Y-48689153D01*
X79025549Y-48654213D01*
X79001737Y-48534503D01*
X78984586Y-48493096D01*
X78941397Y-48388827D01*
X78941390Y-48388814D01*
X78853789Y-48257711D01*
X78853786Y-48257707D01*
X78742292Y-48146213D01*
X78742288Y-48146210D01*
X78611185Y-48058609D01*
X78611172Y-48058602D01*
X78465501Y-47998264D01*
X78465491Y-47998261D01*
X78358454Y-47976970D01*
X78296543Y-47944585D01*
X78261969Y-47883869D01*
X78261029Y-47879544D01*
X78246123Y-47804609D01*
X78239737Y-47772503D01*
X78228039Y-47744261D01*
X78179397Y-47626827D01*
X78179390Y-47626814D01*
X78091789Y-47495711D01*
X78091786Y-47495707D01*
X77980292Y-47384213D01*
X77980288Y-47384210D01*
X77849185Y-47296609D01*
X77849172Y-47296602D01*
X77703501Y-47236264D01*
X77703489Y-47236261D01*
X77548845Y-47205500D01*
X77548842Y-47205500D01*
X77391158Y-47205500D01*
X77391155Y-47205500D01*
X77236510Y-47236261D01*
X77236498Y-47236264D01*
X77090827Y-47296602D01*
X77090814Y-47296609D01*
X76959711Y-47384210D01*
X76959707Y-47384213D01*
X76848213Y-47495707D01*
X76848210Y-47495711D01*
X76760609Y-47626814D01*
X76760602Y-47626827D01*
X76700264Y-47772498D01*
X76700261Y-47772508D01*
X76685182Y-47848316D01*
X76652797Y-47910227D01*
X76592081Y-47944801D01*
X76522311Y-47941060D01*
X76475884Y-47911805D01*
X76456292Y-47892213D01*
X76456288Y-47892210D01*
X76325185Y-47804609D01*
X76325172Y-47804602D01*
X76179501Y-47744264D01*
X76179489Y-47744261D01*
X76024845Y-47713500D01*
X76024842Y-47713500D01*
X75867158Y-47713500D01*
X75867155Y-47713500D01*
X75712510Y-47744261D01*
X75712498Y-47744264D01*
X75566827Y-47804602D01*
X75566814Y-47804609D01*
X75435711Y-47892210D01*
X75435707Y-47892213D01*
X75324213Y-48003707D01*
X75324210Y-48003711D01*
X75236609Y-48134814D01*
X75236602Y-48134827D01*
X75176264Y-48280498D01*
X75176261Y-48280510D01*
X75145500Y-48435153D01*
X75145500Y-48592846D01*
X75176261Y-48747489D01*
X75176264Y-48747501D01*
X75236602Y-48893172D01*
X75236609Y-48893185D01*
X75304487Y-48994770D01*
X75317510Y-49014261D01*
X75324602Y-49024874D01*
X75345480Y-49091551D01*
X75345500Y-49093765D01*
X75345500Y-52016242D01*
X75325815Y-52083281D01*
X75273011Y-52129036D01*
X75203853Y-52138980D01*
X75140297Y-52109955D01*
X75133819Y-52103923D01*
X75019786Y-51989890D01*
X74847820Y-51864951D01*
X74658414Y-51768444D01*
X74658413Y-51768443D01*
X74658412Y-51768443D01*
X74456243Y-51702754D01*
X74456241Y-51702753D01*
X74456240Y-51702753D01*
X74279377Y-51674741D01*
X74246287Y-51669500D01*
X74033713Y-51669500D01*
X74000623Y-51674741D01*
X73823760Y-51702753D01*
X73621585Y-51768444D01*
X73432179Y-51864951D01*
X73260213Y-51989890D01*
X73109890Y-52140213D01*
X72984949Y-52312182D01*
X72980484Y-52320946D01*
X72932509Y-52371742D01*
X72864688Y-52388536D01*
X72798553Y-52365998D01*
X72759516Y-52320946D01*
X72755050Y-52312182D01*
X72630109Y-52140213D01*
X72479786Y-51989890D01*
X72307820Y-51864951D01*
X72118414Y-51768444D01*
X72118413Y-51768443D01*
X72118412Y-51768443D01*
X71916243Y-51702754D01*
X71916241Y-51702753D01*
X71916240Y-51702753D01*
X71739377Y-51674741D01*
X71706287Y-51669500D01*
X71493713Y-51669500D01*
X71460623Y-51674741D01*
X71283760Y-51702753D01*
X71081585Y-51768444D01*
X70892179Y-51864951D01*
X70720213Y-51989890D01*
X70569890Y-52140213D01*
X70444951Y-52312179D01*
X70348444Y-52501585D01*
X70282753Y-52703760D01*
X70249500Y-52913713D01*
X67500500Y-52913713D01*
X67500500Y-42924500D01*
X67520185Y-42857461D01*
X67572989Y-42811706D01*
X67624500Y-42800500D01*
X111276000Y-42800500D01*
X111343039Y-42820185D01*
G37*
G04 #@! TD.AperFunction*
M02*
