%TF.GenerationSoftware,KiCad,Pcbnew,9.0.4*%
%TF.CreationDate,2025-09-07T09:46:20+01:00*%
%TF.ProjectId,megaflash,6d656761-666c-4617-9368-2e6b69636164,rev?*%
%TF.SameCoordinates,Original*%
%TF.FileFunction,Drillmap*%
%TF.FilePolarity,Positive*%
%FSLAX45Y45*%
G04 Gerber Fmt 4.5, Leading zero omitted, Abs format (unit mm)*
G04 Created by KiCad (PCBNEW 9.0.4) date 2025-09-07 09:46:20*
%MOMM*%
%LPD*%
G01*
G04 APERTURE LIST*
%ADD10C,0.100000*%
%ADD11C,0.200000*%
G04 APERTURE END LIST*
D10*
X6750000Y-9700000D02*
X13440000Y-9700000D01*
X13440000Y-4280000D02*
X6750000Y-4280000D01*
X6750000Y-4280000D02*
X6750000Y-9700000D01*
X13440000Y-9700000D02*
X13440000Y-4280000D01*
D11*
D10*
X7579600Y-4836400D02*
X7609600Y-4866400D01*
X7609600Y-4836400D02*
X7579600Y-4866400D01*
X7655800Y-7833600D02*
X7685800Y-7863600D01*
X7685800Y-7833600D02*
X7655800Y-7863600D01*
X7732000Y-4785600D02*
X7762000Y-4815600D01*
X7762000Y-4785600D02*
X7732000Y-4815600D01*
X7732000Y-7681200D02*
X7762000Y-7711200D01*
X7762000Y-7681200D02*
X7732000Y-7711200D01*
X7757400Y-7573000D02*
X7787400Y-7603000D01*
X7787400Y-7573000D02*
X7757400Y-7603000D01*
X7782800Y-7757400D02*
X7812800Y-7787400D01*
X7812800Y-7757400D02*
X7782800Y-7787400D01*
X7808200Y-4861800D02*
X7838200Y-4891800D01*
X7838200Y-4861800D02*
X7808200Y-4891800D01*
X7808200Y-7434100D02*
X7838200Y-7464100D01*
X7838200Y-7434100D02*
X7808200Y-7464100D01*
X7859000Y-7319000D02*
X7889000Y-7349000D01*
X7889000Y-7319000D02*
X7859000Y-7349000D01*
X7859000Y-7528800D02*
X7889000Y-7558800D01*
X7889000Y-7528800D02*
X7859000Y-7558800D01*
X7884400Y-4963400D02*
X7914400Y-4993400D01*
X7914400Y-4963400D02*
X7884400Y-4993400D01*
X7909800Y-7180100D02*
X7939800Y-7210100D01*
X7939800Y-7180100D02*
X7909800Y-7210100D01*
X7935200Y-5115800D02*
X7965200Y-5145800D01*
X7965200Y-5115800D02*
X7935200Y-5145800D01*
X7960600Y-7065000D02*
X7990600Y-7095000D01*
X7990600Y-7065000D02*
X7960600Y-7095000D01*
X7960600Y-7300200D02*
X7990600Y-7330200D01*
X7990600Y-7300200D02*
X7960600Y-7330200D01*
X8036800Y-5242800D02*
X8066800Y-5272800D01*
X8066800Y-5242800D02*
X8036800Y-5272800D01*
X8036800Y-5877800D02*
X8066800Y-5907800D01*
X8066800Y-5877800D02*
X8036800Y-5907800D01*
X8036800Y-6811000D02*
X8066800Y-6841000D01*
X8066800Y-6811000D02*
X8036800Y-6841000D01*
X8036800Y-7122400D02*
X8066800Y-7152400D01*
X8066800Y-7122400D02*
X8036800Y-7152400D01*
X8087600Y-6303000D02*
X8117600Y-6333000D01*
X8117600Y-6303000D02*
X8087600Y-6333000D01*
X8113000Y-5369800D02*
X8143000Y-5399800D01*
X8143000Y-5369800D02*
X8113000Y-5399800D01*
X8163800Y-7579600D02*
X8193800Y-7609600D01*
X8193800Y-7579600D02*
X8163800Y-7609600D01*
X8189200Y-6868400D02*
X8219200Y-6898400D01*
X8219200Y-6868400D02*
X8189200Y-6898400D01*
X8214600Y-5496800D02*
X8244600Y-5526800D01*
X8244600Y-5496800D02*
X8214600Y-5526800D01*
X8265400Y-6718250D02*
X8295400Y-6748250D01*
X8295400Y-6718250D02*
X8265400Y-6748250D01*
X8341600Y-6792200D02*
X8371600Y-6822200D01*
X8371600Y-6792200D02*
X8341600Y-6822200D01*
X8341600Y-9306800D02*
X8371600Y-9336800D01*
X8371600Y-9306800D02*
X8341600Y-9336800D01*
X8417800Y-9205200D02*
X8447800Y-9235200D01*
X8447800Y-9205200D02*
X8417800Y-9235200D01*
X8443200Y-6908750D02*
X8473200Y-6938750D01*
X8473200Y-6908750D02*
X8443200Y-6938750D01*
X8456322Y-8876517D02*
X8486322Y-8906517D01*
X8486322Y-8876517D02*
X8456322Y-8906517D01*
X8468600Y-5649200D02*
X8498600Y-5679200D01*
X8498600Y-5649200D02*
X8468600Y-5679200D01*
X8468600Y-6995400D02*
X8498600Y-7025400D01*
X8498600Y-6995400D02*
X8468600Y-7025400D01*
X8544800Y-6106400D02*
X8574800Y-6136400D01*
X8574800Y-6106400D02*
X8544800Y-6136400D01*
X8544800Y-7478000D02*
X8574800Y-7508000D01*
X8574800Y-7478000D02*
X8544800Y-7508000D01*
X8646400Y-9560800D02*
X8676400Y-9590800D01*
X8676400Y-9560800D02*
X8646400Y-9590800D01*
X8875000Y-5954000D02*
X8905000Y-5984000D01*
X8905000Y-5954000D02*
X8875000Y-5984000D01*
X8900400Y-7655800D02*
X8930400Y-7685800D01*
X8930400Y-7655800D02*
X8900400Y-7685800D01*
X9179800Y-8748000D02*
X9209800Y-8778000D01*
X9209800Y-8748000D02*
X9179800Y-8778000D01*
X9181803Y-8576712D02*
X9211803Y-8606712D01*
X9211803Y-8576712D02*
X9181803Y-8606712D01*
X9357600Y-5446000D02*
X9387600Y-5476000D01*
X9387600Y-5446000D02*
X9357600Y-5476000D01*
X9357600Y-7427200D02*
X9387600Y-7457200D01*
X9387600Y-7427200D02*
X9357600Y-7457200D01*
X9433800Y-5827000D02*
X9463800Y-5857000D01*
X9463800Y-5827000D02*
X9433800Y-5857000D01*
X9466000Y-6665200D02*
X9496000Y-6695200D01*
X9496000Y-6665200D02*
X9466000Y-6695200D01*
X9538600Y-5192000D02*
X9568600Y-5222000D01*
X9568600Y-5192000D02*
X9538600Y-5222000D01*
X9538600Y-5928600D02*
X9568600Y-5958600D01*
X9568600Y-5928600D02*
X9538600Y-5958600D01*
X9611600Y-5268200D02*
X9641600Y-5298200D01*
X9641600Y-5268200D02*
X9611600Y-5298200D01*
X9611600Y-9459200D02*
X9641600Y-9489200D01*
X9641600Y-9459200D02*
X9611600Y-9489200D01*
X9662400Y-6182600D02*
X9692400Y-6212600D01*
X9692400Y-6182600D02*
X9662400Y-6212600D01*
X9738600Y-5674600D02*
X9768600Y-5704600D01*
X9768600Y-5674600D02*
X9738600Y-5704600D01*
X9789400Y-6677650D02*
X9819400Y-6707650D01*
X9819400Y-6677650D02*
X9789400Y-6707650D01*
X9789400Y-8240000D02*
X9819400Y-8270000D01*
X9819400Y-8240000D02*
X9789400Y-8270000D01*
X9814800Y-8036800D02*
X9844800Y-8066800D01*
X9844800Y-8036800D02*
X9814800Y-8066800D01*
X9840200Y-9535400D02*
X9870200Y-9565400D01*
X9870200Y-9535400D02*
X9840200Y-9565400D01*
X9895400Y-7965000D02*
X9925400Y-7995000D01*
X9925400Y-7965000D02*
X9895400Y-7995000D01*
X9916400Y-9310000D02*
X9946400Y-9340000D01*
X9946400Y-9310000D02*
X9916400Y-9340000D01*
X9941800Y-5496800D02*
X9971800Y-5526800D01*
X9971800Y-5496800D02*
X9941800Y-5526800D01*
X9941800Y-6538200D02*
X9971800Y-6568200D01*
X9971800Y-6538200D02*
X9941800Y-6568200D01*
X9992600Y-7782800D02*
X10022600Y-7812800D01*
X10022600Y-7782800D02*
X9992600Y-7812800D01*
X10018000Y-5395200D02*
X10048000Y-5425200D01*
X10048000Y-5395200D02*
X10018000Y-5425200D01*
X10018000Y-6589000D02*
X10048000Y-6619000D01*
X10048000Y-6589000D02*
X10018000Y-6619000D01*
X10066550Y-6718250D02*
X10096550Y-6748250D01*
X10096550Y-6718250D02*
X10066550Y-6748250D01*
X10068800Y-7859000D02*
X10098800Y-7889000D01*
X10098800Y-7859000D02*
X10068800Y-7889000D01*
X10094200Y-6081000D02*
X10124200Y-6111000D01*
X10124200Y-6081000D02*
X10094200Y-6111000D01*
X10094200Y-9357600D02*
X10124200Y-9387600D01*
X10124200Y-9357600D02*
X10094200Y-9387600D01*
X10119600Y-8036800D02*
X10149600Y-8066800D01*
X10149600Y-8036800D02*
X10119600Y-8066800D01*
X10145000Y-6766800D02*
X10175000Y-6796800D01*
X10175000Y-6766800D02*
X10145000Y-6796800D01*
X10173600Y-5770596D02*
X10203600Y-5800596D01*
X10203600Y-5770596D02*
X10173600Y-5800596D01*
X10195800Y-7173200D02*
X10225800Y-7203200D01*
X10225800Y-7173200D02*
X10195800Y-7203200D01*
X10297400Y-7198600D02*
X10327400Y-7228600D01*
X10327400Y-7198600D02*
X10297400Y-7228600D01*
X10376800Y-7249400D02*
X10406800Y-7279400D01*
X10406800Y-7249400D02*
X10376800Y-7279400D01*
X10449800Y-7351000D02*
X10479800Y-7381000D01*
X10479800Y-7351000D02*
X10449800Y-7381000D01*
X10475200Y-8621000D02*
X10505200Y-8651000D01*
X10505200Y-8621000D02*
X10475200Y-8651000D01*
X10500600Y-5217400D02*
X10530600Y-5247400D01*
X10530600Y-5217400D02*
X10500600Y-5247400D01*
X10500600Y-5446000D02*
X10530600Y-5476000D01*
X10530600Y-5446000D02*
X10500600Y-5476000D01*
X10500600Y-5954000D02*
X10530600Y-5984000D01*
X10530600Y-5954000D02*
X10500600Y-5984000D01*
X10526000Y-6208000D02*
X10556000Y-6238000D01*
X10556000Y-6208000D02*
X10526000Y-6238000D01*
X10526000Y-7427200D02*
X10556000Y-7457200D01*
X10556000Y-7427200D02*
X10526000Y-7457200D01*
X10602200Y-6690600D02*
X10632200Y-6720600D01*
X10632200Y-6690600D02*
X10602200Y-6720600D01*
X10627600Y-4684000D02*
X10657600Y-4714000D01*
X10657600Y-4684000D02*
X10627600Y-4714000D01*
X10653000Y-4912600D02*
X10683000Y-4942600D01*
X10683000Y-4912600D02*
X10653000Y-4942600D01*
X10678400Y-5688281D02*
X10708400Y-5718281D01*
X10708400Y-5688281D02*
X10678400Y-5718281D01*
X10678400Y-7670750D02*
X10708400Y-7700750D01*
X10708400Y-7670750D02*
X10678400Y-7700750D01*
X10805400Y-8316200D02*
X10835400Y-8346200D01*
X10835400Y-8316200D02*
X10805400Y-8346200D01*
X10805400Y-9383000D02*
X10835400Y-9413000D01*
X10835400Y-9383000D02*
X10805400Y-9413000D01*
X11669000Y-7725000D02*
X11699000Y-7755000D01*
X11699000Y-7725000D02*
X11669000Y-7755000D01*
X12481800Y-7528800D02*
X12511800Y-7558800D01*
X12511800Y-7528800D02*
X12481800Y-7558800D01*
X12608800Y-6284200D02*
X12638800Y-6314200D01*
X12638800Y-6284200D02*
X12608800Y-6314200D01*
X12710400Y-7300200D02*
X12740400Y-7330200D01*
X12740400Y-7300200D02*
X12710400Y-7330200D01*
X12761200Y-6195000D02*
X12791200Y-6225000D01*
X12791200Y-6195000D02*
X12761200Y-6225000D01*
X12761200Y-6843000D02*
X12791200Y-6873000D01*
X12791200Y-6843000D02*
X12761200Y-6873000D01*
X12837400Y-7097000D02*
X12867400Y-7127000D01*
X12867400Y-7097000D02*
X12837400Y-7127000D01*
X13281200Y-4926000D02*
X13311200Y-4956000D01*
X13311200Y-4926000D02*
X13281200Y-4956000D01*
X13294600Y-4684000D02*
X13324600Y-4714000D01*
X13324600Y-4684000D02*
X13294600Y-4714000D01*
X7690800Y-8128000D02*
G75*
G02*
X7650800Y-8128000I-20000J0D01*
G01*
X7650800Y-8128000D02*
G75*
G02*
X7690800Y-8128000I20000J0D01*
G01*
X9062400Y-5810000D02*
G75*
G02*
X9022400Y-5810000I-20000J0D01*
G01*
X9022400Y-5810000D02*
G75*
G02*
X9062400Y-5810000I20000J0D01*
G01*
X9062400Y-6860250D02*
G75*
G02*
X9022400Y-6860250I-20000J0D01*
G01*
X9022400Y-6860250D02*
G75*
G02*
X9062400Y-6860250I20000J0D01*
G01*
X9062400Y-7241250D02*
G75*
G02*
X9022400Y-7241250I-20000J0D01*
G01*
X9022400Y-7241250D02*
G75*
G02*
X9062400Y-7241250I20000J0D01*
G01*
X9062400Y-7558750D02*
G75*
G02*
X9022400Y-7558750I-20000J0D01*
G01*
X9022400Y-7558750D02*
G75*
G02*
X9062400Y-7558750I20000J0D01*
G01*
X9062400Y-7939750D02*
G75*
G02*
X9022400Y-7939750I-20000J0D01*
G01*
X9022400Y-7939750D02*
G75*
G02*
X9062400Y-7939750I20000J0D01*
G01*
X9062400Y-8450000D02*
G75*
G02*
X9022400Y-8450000I-20000J0D01*
G01*
X9022400Y-8450000D02*
G75*
G02*
X9062400Y-8450000I20000J0D01*
G01*
X9096400Y-6426200D02*
G75*
G02*
X9056400Y-6426200I-20000J0D01*
G01*
X9056400Y-6426200D02*
G75*
G02*
X9096400Y-6426200I20000J0D01*
G01*
X9113200Y-9491000D02*
G75*
G02*
X9073200Y-9491000I-20000J0D01*
G01*
X9073200Y-9491000D02*
G75*
G02*
X9113200Y-9491000I20000J0D01*
G01*
X9189400Y-6299200D02*
G75*
G02*
X9149400Y-6299200I-20000J0D01*
G01*
X9149400Y-6299200D02*
G75*
G02*
X9189400Y-6299200I20000J0D01*
G01*
X9189400Y-7050750D02*
G75*
G02*
X9149400Y-7050750I-20000J0D01*
G01*
X9149400Y-7050750D02*
G75*
G02*
X9189400Y-7050750I20000J0D01*
G01*
X9189400Y-7749250D02*
G75*
G02*
X9149400Y-7749250I-20000J0D01*
G01*
X9149400Y-7749250D02*
G75*
G02*
X9189400Y-7749250I20000J0D01*
G01*
X9189400Y-8102600D02*
G75*
G02*
X9149400Y-8102600I-20000J0D01*
G01*
X9149400Y-8102600D02*
G75*
G02*
X9189400Y-8102600I20000J0D01*
G01*
X9240200Y-5105400D02*
G75*
G02*
X9200200Y-5105400I-20000J0D01*
G01*
X9200200Y-5105400D02*
G75*
G02*
X9240200Y-5105400I20000J0D01*
G01*
X9265600Y-8890000D02*
G75*
G02*
X9225600Y-8890000I-20000J0D01*
G01*
X9225600Y-8890000D02*
G75*
G02*
X9265600Y-8890000I20000J0D01*
G01*
X9265600Y-9408000D02*
G75*
G02*
X9225600Y-9408000I-20000J0D01*
G01*
X9225600Y-9408000D02*
G75*
G02*
X9265600Y-9408000I20000J0D01*
G01*
X9316400Y-5359400D02*
G75*
G02*
X9276400Y-5359400I-20000J0D01*
G01*
X9276400Y-5359400D02*
G75*
G02*
X9316400Y-5359400I20000J0D01*
G01*
X9316400Y-6273800D02*
G75*
G02*
X9276400Y-6273800I-20000J0D01*
G01*
X9276400Y-6273800D02*
G75*
G02*
X9316400Y-6273800I20000J0D01*
G01*
X9316400Y-7045000D02*
G75*
G02*
X9276400Y-7045000I-20000J0D01*
G01*
X9276400Y-7045000D02*
G75*
G02*
X9316400Y-7045000I20000J0D01*
G01*
X9316400Y-7747000D02*
G75*
G02*
X9276400Y-7747000I-20000J0D01*
G01*
X9276400Y-7747000D02*
G75*
G02*
X9316400Y-7747000I20000J0D01*
G01*
X9316400Y-8305800D02*
G75*
G02*
X9276400Y-8305800I-20000J0D01*
G01*
X9276400Y-8305800D02*
G75*
G02*
X9316400Y-8305800I20000J0D01*
G01*
X10281600Y-4826000D02*
G75*
G02*
X10241600Y-4826000I-20000J0D01*
G01*
X10241600Y-4826000D02*
G75*
G02*
X10281600Y-4826000I20000J0D01*
G01*
X10535600Y-8450000D02*
G75*
G02*
X10495600Y-8450000I-20000J0D01*
G01*
X10495600Y-8450000D02*
G75*
G02*
X10535600Y-8450000I20000J0D01*
G01*
X10552800Y-8037250D02*
G75*
G02*
X10512800Y-8037250I-20000J0D01*
G01*
X10512800Y-8037250D02*
G75*
G02*
X10552800Y-8037250I20000J0D01*
G01*
X10637200Y-8128000D02*
G75*
G02*
X10597200Y-8128000I-20000J0D01*
G01*
X10597200Y-8128000D02*
G75*
G02*
X10637200Y-8128000I20000J0D01*
G01*
X10637200Y-9347200D02*
G75*
G02*
X10597200Y-9347200I-20000J0D01*
G01*
X10597200Y-9347200D02*
G75*
G02*
X10637200Y-9347200I20000J0D01*
G01*
X10738800Y-8991600D02*
G75*
G02*
X10698800Y-8991600I-20000J0D01*
G01*
X10698800Y-8991600D02*
G75*
G02*
X10738800Y-8991600I20000J0D01*
G01*
X10738800Y-9550400D02*
G75*
G02*
X10698800Y-9550400I-20000J0D01*
G01*
X10698800Y-9550400D02*
G75*
G02*
X10738800Y-9550400I20000J0D01*
G01*
X10789600Y-4597400D02*
G75*
G02*
X10749600Y-4597400I-20000J0D01*
G01*
X10749600Y-4597400D02*
G75*
G02*
X10789600Y-4597400I20000J0D01*
G01*
X10891200Y-5177263D02*
G75*
G02*
X10851200Y-5177263I-20000J0D01*
G01*
X10851200Y-5177263D02*
G75*
G02*
X10891200Y-5177263I20000J0D01*
G01*
X10891200Y-6451600D02*
G75*
G02*
X10851200Y-6451600I-20000J0D01*
G01*
X10851200Y-6451600D02*
G75*
G02*
X10891200Y-6451600I20000J0D01*
G01*
X11704000Y-6465000D02*
G75*
G02*
X11664000Y-6465000I-20000J0D01*
G01*
X11664000Y-6465000D02*
G75*
G02*
X11704000Y-6465000I20000J0D01*
G01*
X11704000Y-9017000D02*
G75*
G02*
X11664000Y-9017000I-20000J0D01*
G01*
X11664000Y-9017000D02*
G75*
G02*
X11704000Y-9017000I20000J0D01*
G01*
X13355000Y-6451600D02*
G75*
G02*
X13315000Y-6451600I-20000J0D01*
G01*
X13315000Y-6451600D02*
G75*
G02*
X13355000Y-6451600I20000J0D01*
G01*
X13380400Y-5240290D02*
G75*
G02*
X13340400Y-5240290I-20000J0D01*
G01*
X13340400Y-5240290D02*
G75*
G02*
X13380400Y-5240290I20000J0D01*
G01*
X7160000Y-5252000D02*
X7160000Y-5352000D01*
X7110000Y-5302000D02*
X7210000Y-5302000D01*
X7160000Y-5506000D02*
X7160000Y-5606000D01*
X7110000Y-5556000D02*
X7210000Y-5556000D01*
X7160000Y-5760000D02*
X7160000Y-5860000D01*
X7110000Y-5810000D02*
X7210000Y-5810000D01*
X7160000Y-6014000D02*
X7160000Y-6114000D01*
X7110000Y-6064000D02*
X7210000Y-6064000D01*
X7160000Y-6268000D02*
X7160000Y-6368000D01*
X7110000Y-6318000D02*
X7210000Y-6318000D01*
X7160000Y-6522000D02*
X7160000Y-6622000D01*
X7110000Y-6572000D02*
X7210000Y-6572000D01*
X7160000Y-6776000D02*
X7160000Y-6876000D01*
X7110000Y-6826000D02*
X7210000Y-6826000D01*
X7160000Y-7030000D02*
X7160000Y-7130000D01*
X7110000Y-7080000D02*
X7210000Y-7080000D01*
X7160000Y-7284000D02*
X7160000Y-7384000D01*
X7110000Y-7334000D02*
X7210000Y-7334000D01*
X7160000Y-7538000D02*
X7160000Y-7638000D01*
X7110000Y-7588000D02*
X7210000Y-7588000D01*
X7160000Y-7792000D02*
X7160000Y-7892000D01*
X7110000Y-7842000D02*
X7210000Y-7842000D01*
X7160000Y-8046000D02*
X7160000Y-8146000D01*
X7110000Y-8096000D02*
X7210000Y-8096000D01*
X7160000Y-8300000D02*
X7160000Y-8400000D01*
X7110000Y-8350000D02*
X7210000Y-8350000D01*
X7160000Y-8554000D02*
X7160000Y-8654000D01*
X7110000Y-8604000D02*
X7210000Y-8604000D01*
X7160000Y-8808000D02*
X7160000Y-8908000D01*
X7110000Y-8858000D02*
X7210000Y-8858000D01*
X7160000Y-9062000D02*
X7160000Y-9162000D01*
X7110000Y-9112000D02*
X7210000Y-9112000D01*
X7160000Y-9316000D02*
X7160000Y-9416000D01*
X7110000Y-9366000D02*
X7210000Y-9366000D01*
X7414000Y-5252000D02*
X7414000Y-5352000D01*
X7364000Y-5302000D02*
X7464000Y-5302000D01*
X7414000Y-5506000D02*
X7414000Y-5606000D01*
X7364000Y-5556000D02*
X7464000Y-5556000D01*
X7414000Y-5760000D02*
X7414000Y-5860000D01*
X7364000Y-5810000D02*
X7464000Y-5810000D01*
X7414000Y-6014000D02*
X7414000Y-6114000D01*
X7364000Y-6064000D02*
X7464000Y-6064000D01*
X7414000Y-6268000D02*
X7414000Y-6368000D01*
X7364000Y-6318000D02*
X7464000Y-6318000D01*
X7414000Y-6522000D02*
X7414000Y-6622000D01*
X7364000Y-6572000D02*
X7464000Y-6572000D01*
X7414000Y-6776000D02*
X7414000Y-6876000D01*
X7364000Y-6826000D02*
X7464000Y-6826000D01*
X7414000Y-7030000D02*
X7414000Y-7130000D01*
X7364000Y-7080000D02*
X7464000Y-7080000D01*
X7414000Y-7284000D02*
X7414000Y-7384000D01*
X7364000Y-7334000D02*
X7464000Y-7334000D01*
X7414000Y-7538000D02*
X7414000Y-7638000D01*
X7364000Y-7588000D02*
X7464000Y-7588000D01*
X7414000Y-7792000D02*
X7414000Y-7892000D01*
X7364000Y-7842000D02*
X7464000Y-7842000D01*
X7414000Y-8046000D02*
X7414000Y-8146000D01*
X7364000Y-8096000D02*
X7464000Y-8096000D01*
X7414000Y-8300000D02*
X7414000Y-8400000D01*
X7364000Y-8350000D02*
X7464000Y-8350000D01*
X7414000Y-8554000D02*
X7414000Y-8654000D01*
X7364000Y-8604000D02*
X7464000Y-8604000D01*
X7414000Y-8808000D02*
X7414000Y-8908000D01*
X7364000Y-8858000D02*
X7464000Y-8858000D01*
X7414000Y-9062000D02*
X7414000Y-9162000D01*
X7364000Y-9112000D02*
X7464000Y-9112000D01*
X7414000Y-9316000D02*
X7414000Y-9416000D01*
X7364000Y-9366000D02*
X7464000Y-9366000D01*
D11*
X7005777Y-10016484D02*
X7005777Y-9816484D01*
X7005777Y-9816484D02*
X7053396Y-9816484D01*
X7053396Y-9816484D02*
X7081967Y-9826008D01*
X7081967Y-9826008D02*
X7101015Y-9845055D01*
X7101015Y-9845055D02*
X7110539Y-9864103D01*
X7110539Y-9864103D02*
X7120062Y-9902198D01*
X7120062Y-9902198D02*
X7120062Y-9930770D01*
X7120062Y-9930770D02*
X7110539Y-9968865D01*
X7110539Y-9968865D02*
X7101015Y-9987912D01*
X7101015Y-9987912D02*
X7081967Y-10006960D01*
X7081967Y-10006960D02*
X7053396Y-10016484D01*
X7053396Y-10016484D02*
X7005777Y-10016484D01*
X7205777Y-10016484D02*
X7205777Y-9883150D01*
X7205777Y-9921246D02*
X7215301Y-9902198D01*
X7215301Y-9902198D02*
X7224824Y-9892674D01*
X7224824Y-9892674D02*
X7243872Y-9883150D01*
X7243872Y-9883150D02*
X7262920Y-9883150D01*
X7329586Y-10016484D02*
X7329586Y-9883150D01*
X7329586Y-9816484D02*
X7320062Y-9826008D01*
X7320062Y-9826008D02*
X7329586Y-9835531D01*
X7329586Y-9835531D02*
X7339110Y-9826008D01*
X7339110Y-9826008D02*
X7329586Y-9816484D01*
X7329586Y-9816484D02*
X7329586Y-9835531D01*
X7453396Y-10016484D02*
X7434348Y-10006960D01*
X7434348Y-10006960D02*
X7424824Y-9987912D01*
X7424824Y-9987912D02*
X7424824Y-9816484D01*
X7558158Y-10016484D02*
X7539110Y-10006960D01*
X7539110Y-10006960D02*
X7529586Y-9987912D01*
X7529586Y-9987912D02*
X7529586Y-9816484D01*
X7786729Y-10016484D02*
X7786729Y-9816484D01*
X7786729Y-9816484D02*
X7853396Y-9959341D01*
X7853396Y-9959341D02*
X7920062Y-9816484D01*
X7920062Y-9816484D02*
X7920062Y-10016484D01*
X8101015Y-10016484D02*
X8101015Y-9911722D01*
X8101015Y-9911722D02*
X8091491Y-9892674D01*
X8091491Y-9892674D02*
X8072443Y-9883150D01*
X8072443Y-9883150D02*
X8034348Y-9883150D01*
X8034348Y-9883150D02*
X8015301Y-9892674D01*
X8101015Y-10006960D02*
X8081967Y-10016484D01*
X8081967Y-10016484D02*
X8034348Y-10016484D01*
X8034348Y-10016484D02*
X8015301Y-10006960D01*
X8015301Y-10006960D02*
X8005777Y-9987912D01*
X8005777Y-9987912D02*
X8005777Y-9968865D01*
X8005777Y-9968865D02*
X8015301Y-9949817D01*
X8015301Y-9949817D02*
X8034348Y-9940293D01*
X8034348Y-9940293D02*
X8081967Y-9940293D01*
X8081967Y-9940293D02*
X8101015Y-9930770D01*
X8196253Y-9883150D02*
X8196253Y-10083150D01*
X8196253Y-9892674D02*
X8215301Y-9883150D01*
X8215301Y-9883150D02*
X8253396Y-9883150D01*
X8253396Y-9883150D02*
X8272443Y-9892674D01*
X8272443Y-9892674D02*
X8281967Y-9902198D01*
X8281967Y-9902198D02*
X8291491Y-9921246D01*
X8291491Y-9921246D02*
X8291491Y-9978389D01*
X8291491Y-9978389D02*
X8281967Y-9997436D01*
X8281967Y-9997436D02*
X8272443Y-10006960D01*
X8272443Y-10006960D02*
X8253396Y-10016484D01*
X8253396Y-10016484D02*
X8215301Y-10016484D01*
X8215301Y-10016484D02*
X8196253Y-10006960D01*
X8377205Y-9997436D02*
X8386729Y-10006960D01*
X8386729Y-10006960D02*
X8377205Y-10016484D01*
X8377205Y-10016484D02*
X8367682Y-10006960D01*
X8367682Y-10006960D02*
X8377205Y-9997436D01*
X8377205Y-9997436D02*
X8377205Y-10016484D01*
X8377205Y-9892674D02*
X8386729Y-9902198D01*
X8386729Y-9902198D02*
X8377205Y-9911722D01*
X8377205Y-9911722D02*
X8367682Y-9902198D01*
X8367682Y-9902198D02*
X8377205Y-9892674D01*
X8377205Y-9892674D02*
X8377205Y-9911722D01*
D10*
X6715000Y-10330000D02*
X6745000Y-10360000D01*
X6745000Y-10330000D02*
X6715000Y-10360000D01*
D11*
X7043872Y-10236484D02*
X7062920Y-10236484D01*
X7062920Y-10236484D02*
X7081967Y-10246008D01*
X7081967Y-10246008D02*
X7091491Y-10255531D01*
X7091491Y-10255531D02*
X7101015Y-10274579D01*
X7101015Y-10274579D02*
X7110539Y-10312674D01*
X7110539Y-10312674D02*
X7110539Y-10360293D01*
X7110539Y-10360293D02*
X7101015Y-10398389D01*
X7101015Y-10398389D02*
X7091491Y-10417436D01*
X7091491Y-10417436D02*
X7081967Y-10426960D01*
X7081967Y-10426960D02*
X7062920Y-10436484D01*
X7062920Y-10436484D02*
X7043872Y-10436484D01*
X7043872Y-10436484D02*
X7024824Y-10426960D01*
X7024824Y-10426960D02*
X7015301Y-10417436D01*
X7015301Y-10417436D02*
X7005777Y-10398389D01*
X7005777Y-10398389D02*
X6996253Y-10360293D01*
X6996253Y-10360293D02*
X6996253Y-10312674D01*
X6996253Y-10312674D02*
X7005777Y-10274579D01*
X7005777Y-10274579D02*
X7015301Y-10255531D01*
X7015301Y-10255531D02*
X7024824Y-10246008D01*
X7024824Y-10246008D02*
X7043872Y-10236484D01*
X7196253Y-10417436D02*
X7205777Y-10426960D01*
X7205777Y-10426960D02*
X7196253Y-10436484D01*
X7196253Y-10436484D02*
X7186729Y-10426960D01*
X7186729Y-10426960D02*
X7196253Y-10417436D01*
X7196253Y-10417436D02*
X7196253Y-10436484D01*
X7272443Y-10236484D02*
X7396253Y-10236484D01*
X7396253Y-10236484D02*
X7329586Y-10312674D01*
X7329586Y-10312674D02*
X7358158Y-10312674D01*
X7358158Y-10312674D02*
X7377205Y-10322198D01*
X7377205Y-10322198D02*
X7386729Y-10331722D01*
X7386729Y-10331722D02*
X7396253Y-10350770D01*
X7396253Y-10350770D02*
X7396253Y-10398389D01*
X7396253Y-10398389D02*
X7386729Y-10417436D01*
X7386729Y-10417436D02*
X7377205Y-10426960D01*
X7377205Y-10426960D02*
X7358158Y-10436484D01*
X7358158Y-10436484D02*
X7301015Y-10436484D01*
X7301015Y-10436484D02*
X7281967Y-10426960D01*
X7281967Y-10426960D02*
X7272443Y-10417436D01*
X7520062Y-10236484D02*
X7539110Y-10236484D01*
X7539110Y-10236484D02*
X7558158Y-10246008D01*
X7558158Y-10246008D02*
X7567682Y-10255531D01*
X7567682Y-10255531D02*
X7577205Y-10274579D01*
X7577205Y-10274579D02*
X7586729Y-10312674D01*
X7586729Y-10312674D02*
X7586729Y-10360293D01*
X7586729Y-10360293D02*
X7577205Y-10398389D01*
X7577205Y-10398389D02*
X7567682Y-10417436D01*
X7567682Y-10417436D02*
X7558158Y-10426960D01*
X7558158Y-10426960D02*
X7539110Y-10436484D01*
X7539110Y-10436484D02*
X7520062Y-10436484D01*
X7520062Y-10436484D02*
X7501015Y-10426960D01*
X7501015Y-10426960D02*
X7491491Y-10417436D01*
X7491491Y-10417436D02*
X7481967Y-10398389D01*
X7481967Y-10398389D02*
X7472443Y-10360293D01*
X7472443Y-10360293D02*
X7472443Y-10312674D01*
X7472443Y-10312674D02*
X7481967Y-10274579D01*
X7481967Y-10274579D02*
X7491491Y-10255531D01*
X7491491Y-10255531D02*
X7501015Y-10246008D01*
X7501015Y-10246008D02*
X7520062Y-10236484D01*
X7710539Y-10236484D02*
X7729586Y-10236484D01*
X7729586Y-10236484D02*
X7748634Y-10246008D01*
X7748634Y-10246008D02*
X7758158Y-10255531D01*
X7758158Y-10255531D02*
X7767682Y-10274579D01*
X7767682Y-10274579D02*
X7777205Y-10312674D01*
X7777205Y-10312674D02*
X7777205Y-10360293D01*
X7777205Y-10360293D02*
X7767682Y-10398389D01*
X7767682Y-10398389D02*
X7758158Y-10417436D01*
X7758158Y-10417436D02*
X7748634Y-10426960D01*
X7748634Y-10426960D02*
X7729586Y-10436484D01*
X7729586Y-10436484D02*
X7710539Y-10436484D01*
X7710539Y-10436484D02*
X7691491Y-10426960D01*
X7691491Y-10426960D02*
X7681967Y-10417436D01*
X7681967Y-10417436D02*
X7672443Y-10398389D01*
X7672443Y-10398389D02*
X7662920Y-10360293D01*
X7662920Y-10360293D02*
X7662920Y-10312674D01*
X7662920Y-10312674D02*
X7672443Y-10274579D01*
X7672443Y-10274579D02*
X7681967Y-10255531D01*
X7681967Y-10255531D02*
X7691491Y-10246008D01*
X7691491Y-10246008D02*
X7710539Y-10236484D01*
X7862920Y-10436484D02*
X7862920Y-10303150D01*
X7862920Y-10322198D02*
X7872443Y-10312674D01*
X7872443Y-10312674D02*
X7891491Y-10303150D01*
X7891491Y-10303150D02*
X7920063Y-10303150D01*
X7920063Y-10303150D02*
X7939110Y-10312674D01*
X7939110Y-10312674D02*
X7948634Y-10331722D01*
X7948634Y-10331722D02*
X7948634Y-10436484D01*
X7948634Y-10331722D02*
X7958158Y-10312674D01*
X7958158Y-10312674D02*
X7977205Y-10303150D01*
X7977205Y-10303150D02*
X8005777Y-10303150D01*
X8005777Y-10303150D02*
X8024824Y-10312674D01*
X8024824Y-10312674D02*
X8034348Y-10331722D01*
X8034348Y-10331722D02*
X8034348Y-10436484D01*
X8129586Y-10436484D02*
X8129586Y-10303150D01*
X8129586Y-10322198D02*
X8139110Y-10312674D01*
X8139110Y-10312674D02*
X8158158Y-10303150D01*
X8158158Y-10303150D02*
X8186729Y-10303150D01*
X8186729Y-10303150D02*
X8205777Y-10312674D01*
X8205777Y-10312674D02*
X8215301Y-10331722D01*
X8215301Y-10331722D02*
X8215301Y-10436484D01*
X8215301Y-10331722D02*
X8224824Y-10312674D01*
X8224824Y-10312674D02*
X8243872Y-10303150D01*
X8243872Y-10303150D02*
X8272443Y-10303150D01*
X8272443Y-10303150D02*
X8291491Y-10312674D01*
X8291491Y-10312674D02*
X8301015Y-10331722D01*
X8301015Y-10331722D02*
X8301015Y-10436484D01*
X8691491Y-10226960D02*
X8520063Y-10484103D01*
X8948634Y-10236484D02*
X8967682Y-10236484D01*
X8967682Y-10236484D02*
X8986729Y-10246008D01*
X8986729Y-10246008D02*
X8996253Y-10255531D01*
X8996253Y-10255531D02*
X9005777Y-10274579D01*
X9005777Y-10274579D02*
X9015301Y-10312674D01*
X9015301Y-10312674D02*
X9015301Y-10360293D01*
X9015301Y-10360293D02*
X9005777Y-10398389D01*
X9005777Y-10398389D02*
X8996253Y-10417436D01*
X8996253Y-10417436D02*
X8986729Y-10426960D01*
X8986729Y-10426960D02*
X8967682Y-10436484D01*
X8967682Y-10436484D02*
X8948634Y-10436484D01*
X8948634Y-10436484D02*
X8929587Y-10426960D01*
X8929587Y-10426960D02*
X8920063Y-10417436D01*
X8920063Y-10417436D02*
X8910539Y-10398389D01*
X8910539Y-10398389D02*
X8901015Y-10360293D01*
X8901015Y-10360293D02*
X8901015Y-10312674D01*
X8901015Y-10312674D02*
X8910539Y-10274579D01*
X8910539Y-10274579D02*
X8920063Y-10255531D01*
X8920063Y-10255531D02*
X8929587Y-10246008D01*
X8929587Y-10246008D02*
X8948634Y-10236484D01*
X9101015Y-10417436D02*
X9110539Y-10426960D01*
X9110539Y-10426960D02*
X9101015Y-10436484D01*
X9101015Y-10436484D02*
X9091491Y-10426960D01*
X9091491Y-10426960D02*
X9101015Y-10417436D01*
X9101015Y-10417436D02*
X9101015Y-10436484D01*
X9234348Y-10236484D02*
X9253396Y-10236484D01*
X9253396Y-10236484D02*
X9272444Y-10246008D01*
X9272444Y-10246008D02*
X9281968Y-10255531D01*
X9281968Y-10255531D02*
X9291491Y-10274579D01*
X9291491Y-10274579D02*
X9301015Y-10312674D01*
X9301015Y-10312674D02*
X9301015Y-10360293D01*
X9301015Y-10360293D02*
X9291491Y-10398389D01*
X9291491Y-10398389D02*
X9281968Y-10417436D01*
X9281968Y-10417436D02*
X9272444Y-10426960D01*
X9272444Y-10426960D02*
X9253396Y-10436484D01*
X9253396Y-10436484D02*
X9234348Y-10436484D01*
X9234348Y-10436484D02*
X9215301Y-10426960D01*
X9215301Y-10426960D02*
X9205777Y-10417436D01*
X9205777Y-10417436D02*
X9196253Y-10398389D01*
X9196253Y-10398389D02*
X9186729Y-10360293D01*
X9186729Y-10360293D02*
X9186729Y-10312674D01*
X9186729Y-10312674D02*
X9196253Y-10274579D01*
X9196253Y-10274579D02*
X9205777Y-10255531D01*
X9205777Y-10255531D02*
X9215301Y-10246008D01*
X9215301Y-10246008D02*
X9234348Y-10236484D01*
X9491491Y-10436484D02*
X9377206Y-10436484D01*
X9434348Y-10436484D02*
X9434348Y-10236484D01*
X9434348Y-10236484D02*
X9415301Y-10265055D01*
X9415301Y-10265055D02*
X9396253Y-10284103D01*
X9396253Y-10284103D02*
X9377206Y-10293627D01*
X9681968Y-10436484D02*
X9567682Y-10436484D01*
X9624825Y-10436484D02*
X9624825Y-10236484D01*
X9624825Y-10236484D02*
X9605777Y-10265055D01*
X9605777Y-10265055D02*
X9586729Y-10284103D01*
X9586729Y-10284103D02*
X9567682Y-10293627D01*
X9796253Y-10322198D02*
X9777206Y-10312674D01*
X9777206Y-10312674D02*
X9767682Y-10303150D01*
X9767682Y-10303150D02*
X9758158Y-10284103D01*
X9758158Y-10284103D02*
X9758158Y-10274579D01*
X9758158Y-10274579D02*
X9767682Y-10255531D01*
X9767682Y-10255531D02*
X9777206Y-10246008D01*
X9777206Y-10246008D02*
X9796253Y-10236484D01*
X9796253Y-10236484D02*
X9834349Y-10236484D01*
X9834349Y-10236484D02*
X9853396Y-10246008D01*
X9853396Y-10246008D02*
X9862920Y-10255531D01*
X9862920Y-10255531D02*
X9872444Y-10274579D01*
X9872444Y-10274579D02*
X9872444Y-10284103D01*
X9872444Y-10284103D02*
X9862920Y-10303150D01*
X9862920Y-10303150D02*
X9853396Y-10312674D01*
X9853396Y-10312674D02*
X9834349Y-10322198D01*
X9834349Y-10322198D02*
X9796253Y-10322198D01*
X9796253Y-10322198D02*
X9777206Y-10331722D01*
X9777206Y-10331722D02*
X9767682Y-10341246D01*
X9767682Y-10341246D02*
X9758158Y-10360293D01*
X9758158Y-10360293D02*
X9758158Y-10398389D01*
X9758158Y-10398389D02*
X9767682Y-10417436D01*
X9767682Y-10417436D02*
X9777206Y-10426960D01*
X9777206Y-10426960D02*
X9796253Y-10436484D01*
X9796253Y-10436484D02*
X9834349Y-10436484D01*
X9834349Y-10436484D02*
X9853396Y-10426960D01*
X9853396Y-10426960D02*
X9862920Y-10417436D01*
X9862920Y-10417436D02*
X9872444Y-10398389D01*
X9872444Y-10398389D02*
X9872444Y-10360293D01*
X9872444Y-10360293D02*
X9862920Y-10341246D01*
X9862920Y-10341246D02*
X9853396Y-10331722D01*
X9853396Y-10331722D02*
X9834349Y-10322198D01*
X9948634Y-10236484D02*
X9948634Y-10274579D01*
X10024825Y-10236484D02*
X10024825Y-10274579D01*
X10320063Y-10512674D02*
X10310539Y-10503150D01*
X10310539Y-10503150D02*
X10291491Y-10474579D01*
X10291491Y-10474579D02*
X10281968Y-10455531D01*
X10281968Y-10455531D02*
X10272444Y-10426960D01*
X10272444Y-10426960D02*
X10262920Y-10379341D01*
X10262920Y-10379341D02*
X10262920Y-10341246D01*
X10262920Y-10341246D02*
X10272444Y-10293627D01*
X10272444Y-10293627D02*
X10281968Y-10265055D01*
X10281968Y-10265055D02*
X10291491Y-10246008D01*
X10291491Y-10246008D02*
X10310539Y-10217436D01*
X10310539Y-10217436D02*
X10320063Y-10207912D01*
X10405777Y-10436484D02*
X10443872Y-10436484D01*
X10443872Y-10436484D02*
X10462920Y-10426960D01*
X10462920Y-10426960D02*
X10472444Y-10417436D01*
X10472444Y-10417436D02*
X10491491Y-10388865D01*
X10491491Y-10388865D02*
X10501015Y-10350770D01*
X10501015Y-10350770D02*
X10501015Y-10274579D01*
X10501015Y-10274579D02*
X10491491Y-10255531D01*
X10491491Y-10255531D02*
X10481968Y-10246008D01*
X10481968Y-10246008D02*
X10462920Y-10236484D01*
X10462920Y-10236484D02*
X10424825Y-10236484D01*
X10424825Y-10236484D02*
X10405777Y-10246008D01*
X10405777Y-10246008D02*
X10396253Y-10255531D01*
X10396253Y-10255531D02*
X10386730Y-10274579D01*
X10386730Y-10274579D02*
X10386730Y-10322198D01*
X10386730Y-10322198D02*
X10396253Y-10341246D01*
X10396253Y-10341246D02*
X10405777Y-10350770D01*
X10405777Y-10350770D02*
X10424825Y-10360293D01*
X10424825Y-10360293D02*
X10462920Y-10360293D01*
X10462920Y-10360293D02*
X10481968Y-10350770D01*
X10481968Y-10350770D02*
X10491491Y-10341246D01*
X10491491Y-10341246D02*
X10501015Y-10322198D01*
X10567682Y-10236484D02*
X10691491Y-10236484D01*
X10691491Y-10236484D02*
X10624825Y-10312674D01*
X10624825Y-10312674D02*
X10653396Y-10312674D01*
X10653396Y-10312674D02*
X10672444Y-10322198D01*
X10672444Y-10322198D02*
X10681968Y-10331722D01*
X10681968Y-10331722D02*
X10691491Y-10350770D01*
X10691491Y-10350770D02*
X10691491Y-10398389D01*
X10691491Y-10398389D02*
X10681968Y-10417436D01*
X10681968Y-10417436D02*
X10672444Y-10426960D01*
X10672444Y-10426960D02*
X10653396Y-10436484D01*
X10653396Y-10436484D02*
X10596253Y-10436484D01*
X10596253Y-10436484D02*
X10577206Y-10426960D01*
X10577206Y-10426960D02*
X10567682Y-10417436D01*
X10929587Y-10436484D02*
X10929587Y-10236484D01*
X11015301Y-10436484D02*
X11015301Y-10331722D01*
X11015301Y-10331722D02*
X11005777Y-10312674D01*
X11005777Y-10312674D02*
X10986730Y-10303150D01*
X10986730Y-10303150D02*
X10958158Y-10303150D01*
X10958158Y-10303150D02*
X10939111Y-10312674D01*
X10939111Y-10312674D02*
X10929587Y-10322198D01*
X11139111Y-10436484D02*
X11120063Y-10426960D01*
X11120063Y-10426960D02*
X11110539Y-10417436D01*
X11110539Y-10417436D02*
X11101015Y-10398389D01*
X11101015Y-10398389D02*
X11101015Y-10341246D01*
X11101015Y-10341246D02*
X11110539Y-10322198D01*
X11110539Y-10322198D02*
X11120063Y-10312674D01*
X11120063Y-10312674D02*
X11139111Y-10303150D01*
X11139111Y-10303150D02*
X11167682Y-10303150D01*
X11167682Y-10303150D02*
X11186730Y-10312674D01*
X11186730Y-10312674D02*
X11196253Y-10322198D01*
X11196253Y-10322198D02*
X11205777Y-10341246D01*
X11205777Y-10341246D02*
X11205777Y-10398389D01*
X11205777Y-10398389D02*
X11196253Y-10417436D01*
X11196253Y-10417436D02*
X11186730Y-10426960D01*
X11186730Y-10426960D02*
X11167682Y-10436484D01*
X11167682Y-10436484D02*
X11139111Y-10436484D01*
X11320063Y-10436484D02*
X11301015Y-10426960D01*
X11301015Y-10426960D02*
X11291491Y-10407912D01*
X11291491Y-10407912D02*
X11291491Y-10236484D01*
X11472444Y-10426960D02*
X11453396Y-10436484D01*
X11453396Y-10436484D02*
X11415301Y-10436484D01*
X11415301Y-10436484D02*
X11396253Y-10426960D01*
X11396253Y-10426960D02*
X11386730Y-10407912D01*
X11386730Y-10407912D02*
X11386730Y-10331722D01*
X11386730Y-10331722D02*
X11396253Y-10312674D01*
X11396253Y-10312674D02*
X11415301Y-10303150D01*
X11415301Y-10303150D02*
X11453396Y-10303150D01*
X11453396Y-10303150D02*
X11472444Y-10312674D01*
X11472444Y-10312674D02*
X11481968Y-10331722D01*
X11481968Y-10331722D02*
X11481968Y-10350770D01*
X11481968Y-10350770D02*
X11386730Y-10369817D01*
X11558158Y-10426960D02*
X11577206Y-10436484D01*
X11577206Y-10436484D02*
X11615301Y-10436484D01*
X11615301Y-10436484D02*
X11634349Y-10426960D01*
X11634349Y-10426960D02*
X11643872Y-10407912D01*
X11643872Y-10407912D02*
X11643872Y-10398389D01*
X11643872Y-10398389D02*
X11634349Y-10379341D01*
X11634349Y-10379341D02*
X11615301Y-10369817D01*
X11615301Y-10369817D02*
X11586730Y-10369817D01*
X11586730Y-10369817D02*
X11567682Y-10360293D01*
X11567682Y-10360293D02*
X11558158Y-10341246D01*
X11558158Y-10341246D02*
X11558158Y-10331722D01*
X11558158Y-10331722D02*
X11567682Y-10312674D01*
X11567682Y-10312674D02*
X11586730Y-10303150D01*
X11586730Y-10303150D02*
X11615301Y-10303150D01*
X11615301Y-10303150D02*
X11634349Y-10312674D01*
X11710539Y-10512674D02*
X11720063Y-10503150D01*
X11720063Y-10503150D02*
X11739111Y-10474579D01*
X11739111Y-10474579D02*
X11748634Y-10455531D01*
X11748634Y-10455531D02*
X11758158Y-10426960D01*
X11758158Y-10426960D02*
X11767682Y-10379341D01*
X11767682Y-10379341D02*
X11767682Y-10341246D01*
X11767682Y-10341246D02*
X11758158Y-10293627D01*
X11758158Y-10293627D02*
X11748634Y-10265055D01*
X11748634Y-10265055D02*
X11739111Y-10246008D01*
X11739111Y-10246008D02*
X11720063Y-10217436D01*
X11720063Y-10217436D02*
X11710539Y-10207912D01*
D10*
X6745000Y-10609000D02*
G75*
G02*
X6705000Y-10609000I-20000J0D01*
G01*
X6705000Y-10609000D02*
G75*
G02*
X6745000Y-10609000I20000J0D01*
G01*
D11*
X7043872Y-10500484D02*
X7062920Y-10500484D01*
X7062920Y-10500484D02*
X7081967Y-10510008D01*
X7081967Y-10510008D02*
X7091491Y-10519531D01*
X7091491Y-10519531D02*
X7101015Y-10538579D01*
X7101015Y-10538579D02*
X7110539Y-10576674D01*
X7110539Y-10576674D02*
X7110539Y-10624293D01*
X7110539Y-10624293D02*
X7101015Y-10662389D01*
X7101015Y-10662389D02*
X7091491Y-10681436D01*
X7091491Y-10681436D02*
X7081967Y-10690960D01*
X7081967Y-10690960D02*
X7062920Y-10700484D01*
X7062920Y-10700484D02*
X7043872Y-10700484D01*
X7043872Y-10700484D02*
X7024824Y-10690960D01*
X7024824Y-10690960D02*
X7015301Y-10681436D01*
X7015301Y-10681436D02*
X7005777Y-10662389D01*
X7005777Y-10662389D02*
X6996253Y-10624293D01*
X6996253Y-10624293D02*
X6996253Y-10576674D01*
X6996253Y-10576674D02*
X7005777Y-10538579D01*
X7005777Y-10538579D02*
X7015301Y-10519531D01*
X7015301Y-10519531D02*
X7024824Y-10510008D01*
X7024824Y-10510008D02*
X7043872Y-10500484D01*
X7196253Y-10681436D02*
X7205777Y-10690960D01*
X7205777Y-10690960D02*
X7196253Y-10700484D01*
X7196253Y-10700484D02*
X7186729Y-10690960D01*
X7186729Y-10690960D02*
X7196253Y-10681436D01*
X7196253Y-10681436D02*
X7196253Y-10700484D01*
X7377205Y-10567150D02*
X7377205Y-10700484D01*
X7329586Y-10490960D02*
X7281967Y-10633817D01*
X7281967Y-10633817D02*
X7405777Y-10633817D01*
X7520062Y-10500484D02*
X7539110Y-10500484D01*
X7539110Y-10500484D02*
X7558158Y-10510008D01*
X7558158Y-10510008D02*
X7567682Y-10519531D01*
X7567682Y-10519531D02*
X7577205Y-10538579D01*
X7577205Y-10538579D02*
X7586729Y-10576674D01*
X7586729Y-10576674D02*
X7586729Y-10624293D01*
X7586729Y-10624293D02*
X7577205Y-10662389D01*
X7577205Y-10662389D02*
X7567682Y-10681436D01*
X7567682Y-10681436D02*
X7558158Y-10690960D01*
X7558158Y-10690960D02*
X7539110Y-10700484D01*
X7539110Y-10700484D02*
X7520062Y-10700484D01*
X7520062Y-10700484D02*
X7501015Y-10690960D01*
X7501015Y-10690960D02*
X7491491Y-10681436D01*
X7491491Y-10681436D02*
X7481967Y-10662389D01*
X7481967Y-10662389D02*
X7472443Y-10624293D01*
X7472443Y-10624293D02*
X7472443Y-10576674D01*
X7472443Y-10576674D02*
X7481967Y-10538579D01*
X7481967Y-10538579D02*
X7491491Y-10519531D01*
X7491491Y-10519531D02*
X7501015Y-10510008D01*
X7501015Y-10510008D02*
X7520062Y-10500484D01*
X7710539Y-10500484D02*
X7729586Y-10500484D01*
X7729586Y-10500484D02*
X7748634Y-10510008D01*
X7748634Y-10510008D02*
X7758158Y-10519531D01*
X7758158Y-10519531D02*
X7767682Y-10538579D01*
X7767682Y-10538579D02*
X7777205Y-10576674D01*
X7777205Y-10576674D02*
X7777205Y-10624293D01*
X7777205Y-10624293D02*
X7767682Y-10662389D01*
X7767682Y-10662389D02*
X7758158Y-10681436D01*
X7758158Y-10681436D02*
X7748634Y-10690960D01*
X7748634Y-10690960D02*
X7729586Y-10700484D01*
X7729586Y-10700484D02*
X7710539Y-10700484D01*
X7710539Y-10700484D02*
X7691491Y-10690960D01*
X7691491Y-10690960D02*
X7681967Y-10681436D01*
X7681967Y-10681436D02*
X7672443Y-10662389D01*
X7672443Y-10662389D02*
X7662920Y-10624293D01*
X7662920Y-10624293D02*
X7662920Y-10576674D01*
X7662920Y-10576674D02*
X7672443Y-10538579D01*
X7672443Y-10538579D02*
X7681967Y-10519531D01*
X7681967Y-10519531D02*
X7691491Y-10510008D01*
X7691491Y-10510008D02*
X7710539Y-10500484D01*
X7862920Y-10700484D02*
X7862920Y-10567150D01*
X7862920Y-10586198D02*
X7872443Y-10576674D01*
X7872443Y-10576674D02*
X7891491Y-10567150D01*
X7891491Y-10567150D02*
X7920063Y-10567150D01*
X7920063Y-10567150D02*
X7939110Y-10576674D01*
X7939110Y-10576674D02*
X7948634Y-10595722D01*
X7948634Y-10595722D02*
X7948634Y-10700484D01*
X7948634Y-10595722D02*
X7958158Y-10576674D01*
X7958158Y-10576674D02*
X7977205Y-10567150D01*
X7977205Y-10567150D02*
X8005777Y-10567150D01*
X8005777Y-10567150D02*
X8024824Y-10576674D01*
X8024824Y-10576674D02*
X8034348Y-10595722D01*
X8034348Y-10595722D02*
X8034348Y-10700484D01*
X8129586Y-10700484D02*
X8129586Y-10567150D01*
X8129586Y-10586198D02*
X8139110Y-10576674D01*
X8139110Y-10576674D02*
X8158158Y-10567150D01*
X8158158Y-10567150D02*
X8186729Y-10567150D01*
X8186729Y-10567150D02*
X8205777Y-10576674D01*
X8205777Y-10576674D02*
X8215301Y-10595722D01*
X8215301Y-10595722D02*
X8215301Y-10700484D01*
X8215301Y-10595722D02*
X8224824Y-10576674D01*
X8224824Y-10576674D02*
X8243872Y-10567150D01*
X8243872Y-10567150D02*
X8272443Y-10567150D01*
X8272443Y-10567150D02*
X8291491Y-10576674D01*
X8291491Y-10576674D02*
X8301015Y-10595722D01*
X8301015Y-10595722D02*
X8301015Y-10700484D01*
X8691491Y-10490960D02*
X8520063Y-10748103D01*
X8948634Y-10500484D02*
X8967682Y-10500484D01*
X8967682Y-10500484D02*
X8986729Y-10510008D01*
X8986729Y-10510008D02*
X8996253Y-10519531D01*
X8996253Y-10519531D02*
X9005777Y-10538579D01*
X9005777Y-10538579D02*
X9015301Y-10576674D01*
X9015301Y-10576674D02*
X9015301Y-10624293D01*
X9015301Y-10624293D02*
X9005777Y-10662389D01*
X9005777Y-10662389D02*
X8996253Y-10681436D01*
X8996253Y-10681436D02*
X8986729Y-10690960D01*
X8986729Y-10690960D02*
X8967682Y-10700484D01*
X8967682Y-10700484D02*
X8948634Y-10700484D01*
X8948634Y-10700484D02*
X8929587Y-10690960D01*
X8929587Y-10690960D02*
X8920063Y-10681436D01*
X8920063Y-10681436D02*
X8910539Y-10662389D01*
X8910539Y-10662389D02*
X8901015Y-10624293D01*
X8901015Y-10624293D02*
X8901015Y-10576674D01*
X8901015Y-10576674D02*
X8910539Y-10538579D01*
X8910539Y-10538579D02*
X8920063Y-10519531D01*
X8920063Y-10519531D02*
X8929587Y-10510008D01*
X8929587Y-10510008D02*
X8948634Y-10500484D01*
X9101015Y-10681436D02*
X9110539Y-10690960D01*
X9110539Y-10690960D02*
X9101015Y-10700484D01*
X9101015Y-10700484D02*
X9091491Y-10690960D01*
X9091491Y-10690960D02*
X9101015Y-10681436D01*
X9101015Y-10681436D02*
X9101015Y-10700484D01*
X9234348Y-10500484D02*
X9253396Y-10500484D01*
X9253396Y-10500484D02*
X9272444Y-10510008D01*
X9272444Y-10510008D02*
X9281968Y-10519531D01*
X9281968Y-10519531D02*
X9291491Y-10538579D01*
X9291491Y-10538579D02*
X9301015Y-10576674D01*
X9301015Y-10576674D02*
X9301015Y-10624293D01*
X9301015Y-10624293D02*
X9291491Y-10662389D01*
X9291491Y-10662389D02*
X9281968Y-10681436D01*
X9281968Y-10681436D02*
X9272444Y-10690960D01*
X9272444Y-10690960D02*
X9253396Y-10700484D01*
X9253396Y-10700484D02*
X9234348Y-10700484D01*
X9234348Y-10700484D02*
X9215301Y-10690960D01*
X9215301Y-10690960D02*
X9205777Y-10681436D01*
X9205777Y-10681436D02*
X9196253Y-10662389D01*
X9196253Y-10662389D02*
X9186729Y-10624293D01*
X9186729Y-10624293D02*
X9186729Y-10576674D01*
X9186729Y-10576674D02*
X9196253Y-10538579D01*
X9196253Y-10538579D02*
X9205777Y-10519531D01*
X9205777Y-10519531D02*
X9215301Y-10510008D01*
X9215301Y-10510008D02*
X9234348Y-10500484D01*
X9491491Y-10700484D02*
X9377206Y-10700484D01*
X9434348Y-10700484D02*
X9434348Y-10500484D01*
X9434348Y-10500484D02*
X9415301Y-10529055D01*
X9415301Y-10529055D02*
X9396253Y-10548103D01*
X9396253Y-10548103D02*
X9377206Y-10557627D01*
X9672444Y-10500484D02*
X9577206Y-10500484D01*
X9577206Y-10500484D02*
X9567682Y-10595722D01*
X9567682Y-10595722D02*
X9577206Y-10586198D01*
X9577206Y-10586198D02*
X9596253Y-10576674D01*
X9596253Y-10576674D02*
X9643872Y-10576674D01*
X9643872Y-10576674D02*
X9662920Y-10586198D01*
X9662920Y-10586198D02*
X9672444Y-10595722D01*
X9672444Y-10595722D02*
X9681968Y-10614770D01*
X9681968Y-10614770D02*
X9681968Y-10662389D01*
X9681968Y-10662389D02*
X9672444Y-10681436D01*
X9672444Y-10681436D02*
X9662920Y-10690960D01*
X9662920Y-10690960D02*
X9643872Y-10700484D01*
X9643872Y-10700484D02*
X9596253Y-10700484D01*
X9596253Y-10700484D02*
X9577206Y-10690960D01*
X9577206Y-10690960D02*
X9567682Y-10681436D01*
X9748634Y-10500484D02*
X9881968Y-10500484D01*
X9881968Y-10500484D02*
X9796253Y-10700484D01*
X9948634Y-10500484D02*
X9948634Y-10538579D01*
X10024825Y-10500484D02*
X10024825Y-10538579D01*
X10320063Y-10776674D02*
X10310539Y-10767150D01*
X10310539Y-10767150D02*
X10291491Y-10738579D01*
X10291491Y-10738579D02*
X10281968Y-10719531D01*
X10281968Y-10719531D02*
X10272444Y-10690960D01*
X10272444Y-10690960D02*
X10262920Y-10643341D01*
X10262920Y-10643341D02*
X10262920Y-10605246D01*
X10262920Y-10605246D02*
X10272444Y-10557627D01*
X10272444Y-10557627D02*
X10281968Y-10529055D01*
X10281968Y-10529055D02*
X10291491Y-10510008D01*
X10291491Y-10510008D02*
X10310539Y-10481436D01*
X10310539Y-10481436D02*
X10320063Y-10471912D01*
X10377206Y-10500484D02*
X10501015Y-10500484D01*
X10501015Y-10500484D02*
X10434349Y-10576674D01*
X10434349Y-10576674D02*
X10462920Y-10576674D01*
X10462920Y-10576674D02*
X10481968Y-10586198D01*
X10481968Y-10586198D02*
X10491491Y-10595722D01*
X10491491Y-10595722D02*
X10501015Y-10614770D01*
X10501015Y-10614770D02*
X10501015Y-10662389D01*
X10501015Y-10662389D02*
X10491491Y-10681436D01*
X10491491Y-10681436D02*
X10481968Y-10690960D01*
X10481968Y-10690960D02*
X10462920Y-10700484D01*
X10462920Y-10700484D02*
X10405777Y-10700484D01*
X10405777Y-10700484D02*
X10386730Y-10690960D01*
X10386730Y-10690960D02*
X10377206Y-10681436D01*
X10681968Y-10500484D02*
X10586730Y-10500484D01*
X10586730Y-10500484D02*
X10577206Y-10595722D01*
X10577206Y-10595722D02*
X10586730Y-10586198D01*
X10586730Y-10586198D02*
X10605777Y-10576674D01*
X10605777Y-10576674D02*
X10653396Y-10576674D01*
X10653396Y-10576674D02*
X10672444Y-10586198D01*
X10672444Y-10586198D02*
X10681968Y-10595722D01*
X10681968Y-10595722D02*
X10691491Y-10614770D01*
X10691491Y-10614770D02*
X10691491Y-10662389D01*
X10691491Y-10662389D02*
X10681968Y-10681436D01*
X10681968Y-10681436D02*
X10672444Y-10690960D01*
X10672444Y-10690960D02*
X10653396Y-10700484D01*
X10653396Y-10700484D02*
X10605777Y-10700484D01*
X10605777Y-10700484D02*
X10586730Y-10690960D01*
X10586730Y-10690960D02*
X10577206Y-10681436D01*
X10929587Y-10700484D02*
X10929587Y-10500484D01*
X11015301Y-10700484D02*
X11015301Y-10595722D01*
X11015301Y-10595722D02*
X11005777Y-10576674D01*
X11005777Y-10576674D02*
X10986730Y-10567150D01*
X10986730Y-10567150D02*
X10958158Y-10567150D01*
X10958158Y-10567150D02*
X10939111Y-10576674D01*
X10939111Y-10576674D02*
X10929587Y-10586198D01*
X11139111Y-10700484D02*
X11120063Y-10690960D01*
X11120063Y-10690960D02*
X11110539Y-10681436D01*
X11110539Y-10681436D02*
X11101015Y-10662389D01*
X11101015Y-10662389D02*
X11101015Y-10605246D01*
X11101015Y-10605246D02*
X11110539Y-10586198D01*
X11110539Y-10586198D02*
X11120063Y-10576674D01*
X11120063Y-10576674D02*
X11139111Y-10567150D01*
X11139111Y-10567150D02*
X11167682Y-10567150D01*
X11167682Y-10567150D02*
X11186730Y-10576674D01*
X11186730Y-10576674D02*
X11196253Y-10586198D01*
X11196253Y-10586198D02*
X11205777Y-10605246D01*
X11205777Y-10605246D02*
X11205777Y-10662389D01*
X11205777Y-10662389D02*
X11196253Y-10681436D01*
X11196253Y-10681436D02*
X11186730Y-10690960D01*
X11186730Y-10690960D02*
X11167682Y-10700484D01*
X11167682Y-10700484D02*
X11139111Y-10700484D01*
X11320063Y-10700484D02*
X11301015Y-10690960D01*
X11301015Y-10690960D02*
X11291491Y-10671912D01*
X11291491Y-10671912D02*
X11291491Y-10500484D01*
X11472444Y-10690960D02*
X11453396Y-10700484D01*
X11453396Y-10700484D02*
X11415301Y-10700484D01*
X11415301Y-10700484D02*
X11396253Y-10690960D01*
X11396253Y-10690960D02*
X11386730Y-10671912D01*
X11386730Y-10671912D02*
X11386730Y-10595722D01*
X11386730Y-10595722D02*
X11396253Y-10576674D01*
X11396253Y-10576674D02*
X11415301Y-10567150D01*
X11415301Y-10567150D02*
X11453396Y-10567150D01*
X11453396Y-10567150D02*
X11472444Y-10576674D01*
X11472444Y-10576674D02*
X11481968Y-10595722D01*
X11481968Y-10595722D02*
X11481968Y-10614770D01*
X11481968Y-10614770D02*
X11386730Y-10633817D01*
X11558158Y-10690960D02*
X11577206Y-10700484D01*
X11577206Y-10700484D02*
X11615301Y-10700484D01*
X11615301Y-10700484D02*
X11634349Y-10690960D01*
X11634349Y-10690960D02*
X11643872Y-10671912D01*
X11643872Y-10671912D02*
X11643872Y-10662389D01*
X11643872Y-10662389D02*
X11634349Y-10643341D01*
X11634349Y-10643341D02*
X11615301Y-10633817D01*
X11615301Y-10633817D02*
X11586730Y-10633817D01*
X11586730Y-10633817D02*
X11567682Y-10624293D01*
X11567682Y-10624293D02*
X11558158Y-10605246D01*
X11558158Y-10605246D02*
X11558158Y-10595722D01*
X11558158Y-10595722D02*
X11567682Y-10576674D01*
X11567682Y-10576674D02*
X11586730Y-10567150D01*
X11586730Y-10567150D02*
X11615301Y-10567150D01*
X11615301Y-10567150D02*
X11634349Y-10576674D01*
X11710539Y-10776674D02*
X11720063Y-10767150D01*
X11720063Y-10767150D02*
X11739111Y-10738579D01*
X11739111Y-10738579D02*
X11748634Y-10719531D01*
X11748634Y-10719531D02*
X11758158Y-10690960D01*
X11758158Y-10690960D02*
X11767682Y-10643341D01*
X11767682Y-10643341D02*
X11767682Y-10605246D01*
X11767682Y-10605246D02*
X11758158Y-10557627D01*
X11758158Y-10557627D02*
X11748634Y-10529055D01*
X11748634Y-10529055D02*
X11739111Y-10510008D01*
X11739111Y-10510008D02*
X11720063Y-10481436D01*
X11720063Y-10481436D02*
X11710539Y-10471912D01*
D10*
X6695000Y-10823000D02*
X6695000Y-10923000D01*
X6645000Y-10873000D02*
X6745000Y-10873000D01*
D11*
X7110539Y-10964484D02*
X6996253Y-10964484D01*
X7053396Y-10964484D02*
X7053396Y-10764484D01*
X7053396Y-10764484D02*
X7034348Y-10793055D01*
X7034348Y-10793055D02*
X7015301Y-10812103D01*
X7015301Y-10812103D02*
X6996253Y-10821627D01*
X7196253Y-10945436D02*
X7205777Y-10954960D01*
X7205777Y-10954960D02*
X7196253Y-10964484D01*
X7196253Y-10964484D02*
X7186729Y-10954960D01*
X7186729Y-10954960D02*
X7196253Y-10945436D01*
X7196253Y-10945436D02*
X7196253Y-10964484D01*
X7329586Y-10764484D02*
X7348634Y-10764484D01*
X7348634Y-10764484D02*
X7367682Y-10774008D01*
X7367682Y-10774008D02*
X7377205Y-10783531D01*
X7377205Y-10783531D02*
X7386729Y-10802579D01*
X7386729Y-10802579D02*
X7396253Y-10840674D01*
X7396253Y-10840674D02*
X7396253Y-10888293D01*
X7396253Y-10888293D02*
X7386729Y-10926389D01*
X7386729Y-10926389D02*
X7377205Y-10945436D01*
X7377205Y-10945436D02*
X7367682Y-10954960D01*
X7367682Y-10954960D02*
X7348634Y-10964484D01*
X7348634Y-10964484D02*
X7329586Y-10964484D01*
X7329586Y-10964484D02*
X7310539Y-10954960D01*
X7310539Y-10954960D02*
X7301015Y-10945436D01*
X7301015Y-10945436D02*
X7291491Y-10926389D01*
X7291491Y-10926389D02*
X7281967Y-10888293D01*
X7281967Y-10888293D02*
X7281967Y-10840674D01*
X7281967Y-10840674D02*
X7291491Y-10802579D01*
X7291491Y-10802579D02*
X7301015Y-10783531D01*
X7301015Y-10783531D02*
X7310539Y-10774008D01*
X7310539Y-10774008D02*
X7329586Y-10764484D01*
X7520062Y-10764484D02*
X7539110Y-10764484D01*
X7539110Y-10764484D02*
X7558158Y-10774008D01*
X7558158Y-10774008D02*
X7567682Y-10783531D01*
X7567682Y-10783531D02*
X7577205Y-10802579D01*
X7577205Y-10802579D02*
X7586729Y-10840674D01*
X7586729Y-10840674D02*
X7586729Y-10888293D01*
X7586729Y-10888293D02*
X7577205Y-10926389D01*
X7577205Y-10926389D02*
X7567682Y-10945436D01*
X7567682Y-10945436D02*
X7558158Y-10954960D01*
X7558158Y-10954960D02*
X7539110Y-10964484D01*
X7539110Y-10964484D02*
X7520062Y-10964484D01*
X7520062Y-10964484D02*
X7501015Y-10954960D01*
X7501015Y-10954960D02*
X7491491Y-10945436D01*
X7491491Y-10945436D02*
X7481967Y-10926389D01*
X7481967Y-10926389D02*
X7472443Y-10888293D01*
X7472443Y-10888293D02*
X7472443Y-10840674D01*
X7472443Y-10840674D02*
X7481967Y-10802579D01*
X7481967Y-10802579D02*
X7491491Y-10783531D01*
X7491491Y-10783531D02*
X7501015Y-10774008D01*
X7501015Y-10774008D02*
X7520062Y-10764484D01*
X7710539Y-10764484D02*
X7729586Y-10764484D01*
X7729586Y-10764484D02*
X7748634Y-10774008D01*
X7748634Y-10774008D02*
X7758158Y-10783531D01*
X7758158Y-10783531D02*
X7767682Y-10802579D01*
X7767682Y-10802579D02*
X7777205Y-10840674D01*
X7777205Y-10840674D02*
X7777205Y-10888293D01*
X7777205Y-10888293D02*
X7767682Y-10926389D01*
X7767682Y-10926389D02*
X7758158Y-10945436D01*
X7758158Y-10945436D02*
X7748634Y-10954960D01*
X7748634Y-10954960D02*
X7729586Y-10964484D01*
X7729586Y-10964484D02*
X7710539Y-10964484D01*
X7710539Y-10964484D02*
X7691491Y-10954960D01*
X7691491Y-10954960D02*
X7681967Y-10945436D01*
X7681967Y-10945436D02*
X7672443Y-10926389D01*
X7672443Y-10926389D02*
X7662920Y-10888293D01*
X7662920Y-10888293D02*
X7662920Y-10840674D01*
X7662920Y-10840674D02*
X7672443Y-10802579D01*
X7672443Y-10802579D02*
X7681967Y-10783531D01*
X7681967Y-10783531D02*
X7691491Y-10774008D01*
X7691491Y-10774008D02*
X7710539Y-10764484D01*
X7862920Y-10964484D02*
X7862920Y-10831150D01*
X7862920Y-10850198D02*
X7872443Y-10840674D01*
X7872443Y-10840674D02*
X7891491Y-10831150D01*
X7891491Y-10831150D02*
X7920063Y-10831150D01*
X7920063Y-10831150D02*
X7939110Y-10840674D01*
X7939110Y-10840674D02*
X7948634Y-10859722D01*
X7948634Y-10859722D02*
X7948634Y-10964484D01*
X7948634Y-10859722D02*
X7958158Y-10840674D01*
X7958158Y-10840674D02*
X7977205Y-10831150D01*
X7977205Y-10831150D02*
X8005777Y-10831150D01*
X8005777Y-10831150D02*
X8024824Y-10840674D01*
X8024824Y-10840674D02*
X8034348Y-10859722D01*
X8034348Y-10859722D02*
X8034348Y-10964484D01*
X8129586Y-10964484D02*
X8129586Y-10831150D01*
X8129586Y-10850198D02*
X8139110Y-10840674D01*
X8139110Y-10840674D02*
X8158158Y-10831150D01*
X8158158Y-10831150D02*
X8186729Y-10831150D01*
X8186729Y-10831150D02*
X8205777Y-10840674D01*
X8205777Y-10840674D02*
X8215301Y-10859722D01*
X8215301Y-10859722D02*
X8215301Y-10964484D01*
X8215301Y-10859722D02*
X8224824Y-10840674D01*
X8224824Y-10840674D02*
X8243872Y-10831150D01*
X8243872Y-10831150D02*
X8272443Y-10831150D01*
X8272443Y-10831150D02*
X8291491Y-10840674D01*
X8291491Y-10840674D02*
X8301015Y-10859722D01*
X8301015Y-10859722D02*
X8301015Y-10964484D01*
X8691491Y-10754960D02*
X8520063Y-11012103D01*
X8948634Y-10764484D02*
X8967682Y-10764484D01*
X8967682Y-10764484D02*
X8986729Y-10774008D01*
X8986729Y-10774008D02*
X8996253Y-10783531D01*
X8996253Y-10783531D02*
X9005777Y-10802579D01*
X9005777Y-10802579D02*
X9015301Y-10840674D01*
X9015301Y-10840674D02*
X9015301Y-10888293D01*
X9015301Y-10888293D02*
X9005777Y-10926389D01*
X9005777Y-10926389D02*
X8996253Y-10945436D01*
X8996253Y-10945436D02*
X8986729Y-10954960D01*
X8986729Y-10954960D02*
X8967682Y-10964484D01*
X8967682Y-10964484D02*
X8948634Y-10964484D01*
X8948634Y-10964484D02*
X8929587Y-10954960D01*
X8929587Y-10954960D02*
X8920063Y-10945436D01*
X8920063Y-10945436D02*
X8910539Y-10926389D01*
X8910539Y-10926389D02*
X8901015Y-10888293D01*
X8901015Y-10888293D02*
X8901015Y-10840674D01*
X8901015Y-10840674D02*
X8910539Y-10802579D01*
X8910539Y-10802579D02*
X8920063Y-10783531D01*
X8920063Y-10783531D02*
X8929587Y-10774008D01*
X8929587Y-10774008D02*
X8948634Y-10764484D01*
X9101015Y-10945436D02*
X9110539Y-10954960D01*
X9110539Y-10954960D02*
X9101015Y-10964484D01*
X9101015Y-10964484D02*
X9091491Y-10954960D01*
X9091491Y-10954960D02*
X9101015Y-10945436D01*
X9101015Y-10945436D02*
X9101015Y-10964484D01*
X9234348Y-10764484D02*
X9253396Y-10764484D01*
X9253396Y-10764484D02*
X9272444Y-10774008D01*
X9272444Y-10774008D02*
X9281968Y-10783531D01*
X9281968Y-10783531D02*
X9291491Y-10802579D01*
X9291491Y-10802579D02*
X9301015Y-10840674D01*
X9301015Y-10840674D02*
X9301015Y-10888293D01*
X9301015Y-10888293D02*
X9291491Y-10926389D01*
X9291491Y-10926389D02*
X9281968Y-10945436D01*
X9281968Y-10945436D02*
X9272444Y-10954960D01*
X9272444Y-10954960D02*
X9253396Y-10964484D01*
X9253396Y-10964484D02*
X9234348Y-10964484D01*
X9234348Y-10964484D02*
X9215301Y-10954960D01*
X9215301Y-10954960D02*
X9205777Y-10945436D01*
X9205777Y-10945436D02*
X9196253Y-10926389D01*
X9196253Y-10926389D02*
X9186729Y-10888293D01*
X9186729Y-10888293D02*
X9186729Y-10840674D01*
X9186729Y-10840674D02*
X9196253Y-10802579D01*
X9196253Y-10802579D02*
X9205777Y-10783531D01*
X9205777Y-10783531D02*
X9215301Y-10774008D01*
X9215301Y-10774008D02*
X9234348Y-10764484D01*
X9367682Y-10764484D02*
X9491491Y-10764484D01*
X9491491Y-10764484D02*
X9424825Y-10840674D01*
X9424825Y-10840674D02*
X9453396Y-10840674D01*
X9453396Y-10840674D02*
X9472444Y-10850198D01*
X9472444Y-10850198D02*
X9481968Y-10859722D01*
X9481968Y-10859722D02*
X9491491Y-10878770D01*
X9491491Y-10878770D02*
X9491491Y-10926389D01*
X9491491Y-10926389D02*
X9481968Y-10945436D01*
X9481968Y-10945436D02*
X9472444Y-10954960D01*
X9472444Y-10954960D02*
X9453396Y-10964484D01*
X9453396Y-10964484D02*
X9396253Y-10964484D01*
X9396253Y-10964484D02*
X9377206Y-10954960D01*
X9377206Y-10954960D02*
X9367682Y-10945436D01*
X9586729Y-10964484D02*
X9624825Y-10964484D01*
X9624825Y-10964484D02*
X9643872Y-10954960D01*
X9643872Y-10954960D02*
X9653396Y-10945436D01*
X9653396Y-10945436D02*
X9672444Y-10916865D01*
X9672444Y-10916865D02*
X9681968Y-10878770D01*
X9681968Y-10878770D02*
X9681968Y-10802579D01*
X9681968Y-10802579D02*
X9672444Y-10783531D01*
X9672444Y-10783531D02*
X9662920Y-10774008D01*
X9662920Y-10774008D02*
X9643872Y-10764484D01*
X9643872Y-10764484D02*
X9605777Y-10764484D01*
X9605777Y-10764484D02*
X9586729Y-10774008D01*
X9586729Y-10774008D02*
X9577206Y-10783531D01*
X9577206Y-10783531D02*
X9567682Y-10802579D01*
X9567682Y-10802579D02*
X9567682Y-10850198D01*
X9567682Y-10850198D02*
X9577206Y-10869246D01*
X9577206Y-10869246D02*
X9586729Y-10878770D01*
X9586729Y-10878770D02*
X9605777Y-10888293D01*
X9605777Y-10888293D02*
X9643872Y-10888293D01*
X9643872Y-10888293D02*
X9662920Y-10878770D01*
X9662920Y-10878770D02*
X9672444Y-10869246D01*
X9672444Y-10869246D02*
X9681968Y-10850198D01*
X9853396Y-10831150D02*
X9853396Y-10964484D01*
X9805777Y-10754960D02*
X9758158Y-10897817D01*
X9758158Y-10897817D02*
X9881968Y-10897817D01*
X9948634Y-10764484D02*
X9948634Y-10802579D01*
X10024825Y-10764484D02*
X10024825Y-10802579D01*
X10320063Y-11040674D02*
X10310539Y-11031150D01*
X10310539Y-11031150D02*
X10291491Y-11002579D01*
X10291491Y-11002579D02*
X10281968Y-10983531D01*
X10281968Y-10983531D02*
X10272444Y-10954960D01*
X10272444Y-10954960D02*
X10262920Y-10907341D01*
X10262920Y-10907341D02*
X10262920Y-10869246D01*
X10262920Y-10869246D02*
X10272444Y-10821627D01*
X10272444Y-10821627D02*
X10281968Y-10793055D01*
X10281968Y-10793055D02*
X10291491Y-10774008D01*
X10291491Y-10774008D02*
X10310539Y-10745436D01*
X10310539Y-10745436D02*
X10320063Y-10735912D01*
X10377206Y-10764484D02*
X10501015Y-10764484D01*
X10501015Y-10764484D02*
X10434349Y-10840674D01*
X10434349Y-10840674D02*
X10462920Y-10840674D01*
X10462920Y-10840674D02*
X10481968Y-10850198D01*
X10481968Y-10850198D02*
X10491491Y-10859722D01*
X10491491Y-10859722D02*
X10501015Y-10878770D01*
X10501015Y-10878770D02*
X10501015Y-10926389D01*
X10501015Y-10926389D02*
X10491491Y-10945436D01*
X10491491Y-10945436D02*
X10481968Y-10954960D01*
X10481968Y-10954960D02*
X10462920Y-10964484D01*
X10462920Y-10964484D02*
X10405777Y-10964484D01*
X10405777Y-10964484D02*
X10386730Y-10954960D01*
X10386730Y-10954960D02*
X10377206Y-10945436D01*
X10672444Y-10831150D02*
X10672444Y-10964484D01*
X10624825Y-10754960D02*
X10577206Y-10897817D01*
X10577206Y-10897817D02*
X10701015Y-10897817D01*
X10929587Y-10964484D02*
X10929587Y-10764484D01*
X11015301Y-10964484D02*
X11015301Y-10859722D01*
X11015301Y-10859722D02*
X11005777Y-10840674D01*
X11005777Y-10840674D02*
X10986730Y-10831150D01*
X10986730Y-10831150D02*
X10958158Y-10831150D01*
X10958158Y-10831150D02*
X10939111Y-10840674D01*
X10939111Y-10840674D02*
X10929587Y-10850198D01*
X11139111Y-10964484D02*
X11120063Y-10954960D01*
X11120063Y-10954960D02*
X11110539Y-10945436D01*
X11110539Y-10945436D02*
X11101015Y-10926389D01*
X11101015Y-10926389D02*
X11101015Y-10869246D01*
X11101015Y-10869246D02*
X11110539Y-10850198D01*
X11110539Y-10850198D02*
X11120063Y-10840674D01*
X11120063Y-10840674D02*
X11139111Y-10831150D01*
X11139111Y-10831150D02*
X11167682Y-10831150D01*
X11167682Y-10831150D02*
X11186730Y-10840674D01*
X11186730Y-10840674D02*
X11196253Y-10850198D01*
X11196253Y-10850198D02*
X11205777Y-10869246D01*
X11205777Y-10869246D02*
X11205777Y-10926389D01*
X11205777Y-10926389D02*
X11196253Y-10945436D01*
X11196253Y-10945436D02*
X11186730Y-10954960D01*
X11186730Y-10954960D02*
X11167682Y-10964484D01*
X11167682Y-10964484D02*
X11139111Y-10964484D01*
X11320063Y-10964484D02*
X11301015Y-10954960D01*
X11301015Y-10954960D02*
X11291491Y-10935912D01*
X11291491Y-10935912D02*
X11291491Y-10764484D01*
X11472444Y-10954960D02*
X11453396Y-10964484D01*
X11453396Y-10964484D02*
X11415301Y-10964484D01*
X11415301Y-10964484D02*
X11396253Y-10954960D01*
X11396253Y-10954960D02*
X11386730Y-10935912D01*
X11386730Y-10935912D02*
X11386730Y-10859722D01*
X11386730Y-10859722D02*
X11396253Y-10840674D01*
X11396253Y-10840674D02*
X11415301Y-10831150D01*
X11415301Y-10831150D02*
X11453396Y-10831150D01*
X11453396Y-10831150D02*
X11472444Y-10840674D01*
X11472444Y-10840674D02*
X11481968Y-10859722D01*
X11481968Y-10859722D02*
X11481968Y-10878770D01*
X11481968Y-10878770D02*
X11386730Y-10897817D01*
X11558158Y-10954960D02*
X11577206Y-10964484D01*
X11577206Y-10964484D02*
X11615301Y-10964484D01*
X11615301Y-10964484D02*
X11634349Y-10954960D01*
X11634349Y-10954960D02*
X11643872Y-10935912D01*
X11643872Y-10935912D02*
X11643872Y-10926389D01*
X11643872Y-10926389D02*
X11634349Y-10907341D01*
X11634349Y-10907341D02*
X11615301Y-10897817D01*
X11615301Y-10897817D02*
X11586730Y-10897817D01*
X11586730Y-10897817D02*
X11567682Y-10888293D01*
X11567682Y-10888293D02*
X11558158Y-10869246D01*
X11558158Y-10869246D02*
X11558158Y-10859722D01*
X11558158Y-10859722D02*
X11567682Y-10840674D01*
X11567682Y-10840674D02*
X11586730Y-10831150D01*
X11586730Y-10831150D02*
X11615301Y-10831150D01*
X11615301Y-10831150D02*
X11634349Y-10840674D01*
X11710539Y-11040674D02*
X11720063Y-11031150D01*
X11720063Y-11031150D02*
X11739111Y-11002579D01*
X11739111Y-11002579D02*
X11748634Y-10983531D01*
X11748634Y-10983531D02*
X11758158Y-10954960D01*
X11758158Y-10954960D02*
X11767682Y-10907341D01*
X11767682Y-10907341D02*
X11767682Y-10869246D01*
X11767682Y-10869246D02*
X11758158Y-10821627D01*
X11758158Y-10821627D02*
X11748634Y-10793055D01*
X11748634Y-10793055D02*
X11739111Y-10774008D01*
X11739111Y-10774008D02*
X11720063Y-10745436D01*
X11720063Y-10745436D02*
X11710539Y-10735912D01*
M02*
