G04 #@! TF.GenerationSoftware,KiCad,Pcbnew,9.0.4*
G04 #@! TF.CreationDate,2025-09-07T09:46:18+01:00*
G04 #@! TF.ProjectId,megaflash,6d656761-666c-4617-9368-2e6b69636164,rev?*
G04 #@! TF.SameCoordinates,Original*
G04 #@! TF.FileFunction,Legend,Bot*
G04 #@! TF.FilePolarity,Positive*
%FSLAX46Y46*%
G04 Gerber Fmt 4.6, Leading zero omitted, Abs format (unit mm)*
G04 Created by KiCad (PCBNEW 9.0.4) date 2025-09-07 09:46:18*
%MOMM*%
%LPD*%
G01*
G04 APERTURE LIST*
%ADD10C,0.150000*%
%ADD11C,0.300000*%
%ADD12O,1.800000X1.800000*%
%ADD13O,1.500000X1.500000*%
%ADD14R,1.700000X1.700000*%
%ADD15O,1.700000X1.700000*%
G04 APERTURE END LIST*
D10*
X69795107Y-94996000D02*
G75*
G02*
X68380893Y-94996000I-707107J0D01*
G01*
X68380893Y-94996000D02*
G75*
G02*
X69795107Y-94996000I707107J0D01*
G01*
D11*
X131397870Y-85539448D02*
X131397870Y-83839448D01*
X131397870Y-83839448D02*
X130831203Y-85053734D01*
X130831203Y-85053734D02*
X130264536Y-83839448D01*
X130264536Y-83839448D02*
X130264536Y-85539448D01*
X128807394Y-85458496D02*
X128969298Y-85539448D01*
X128969298Y-85539448D02*
X129293108Y-85539448D01*
X129293108Y-85539448D02*
X129455013Y-85458496D01*
X129455013Y-85458496D02*
X129535965Y-85296591D01*
X129535965Y-85296591D02*
X129535965Y-84648972D01*
X129535965Y-84648972D02*
X129455013Y-84487067D01*
X129455013Y-84487067D02*
X129293108Y-84406115D01*
X129293108Y-84406115D02*
X128969298Y-84406115D01*
X128969298Y-84406115D02*
X128807394Y-84487067D01*
X128807394Y-84487067D02*
X128726441Y-84648972D01*
X128726441Y-84648972D02*
X128726441Y-84810876D01*
X128726441Y-84810876D02*
X129535965Y-84972781D01*
X127269298Y-84406115D02*
X127269298Y-85782305D01*
X127269298Y-85782305D02*
X127350251Y-85944210D01*
X127350251Y-85944210D02*
X127431203Y-86025162D01*
X127431203Y-86025162D02*
X127593108Y-86106115D01*
X127593108Y-86106115D02*
X127835965Y-86106115D01*
X127835965Y-86106115D02*
X127997870Y-86025162D01*
X127269298Y-85458496D02*
X127431203Y-85539448D01*
X127431203Y-85539448D02*
X127755012Y-85539448D01*
X127755012Y-85539448D02*
X127916917Y-85458496D01*
X127916917Y-85458496D02*
X127997870Y-85377543D01*
X127997870Y-85377543D02*
X128078822Y-85215638D01*
X128078822Y-85215638D02*
X128078822Y-84729924D01*
X128078822Y-84729924D02*
X127997870Y-84568019D01*
X127997870Y-84568019D02*
X127916917Y-84487067D01*
X127916917Y-84487067D02*
X127755012Y-84406115D01*
X127755012Y-84406115D02*
X127431203Y-84406115D01*
X127431203Y-84406115D02*
X127269298Y-84487067D01*
X125731203Y-85539448D02*
X125731203Y-84648972D01*
X125731203Y-84648972D02*
X125812156Y-84487067D01*
X125812156Y-84487067D02*
X125974060Y-84406115D01*
X125974060Y-84406115D02*
X126297870Y-84406115D01*
X126297870Y-84406115D02*
X126459775Y-84487067D01*
X125731203Y-85458496D02*
X125893108Y-85539448D01*
X125893108Y-85539448D02*
X126297870Y-85539448D01*
X126297870Y-85539448D02*
X126459775Y-85458496D01*
X126459775Y-85458496D02*
X126540727Y-85296591D01*
X126540727Y-85296591D02*
X126540727Y-85134686D01*
X126540727Y-85134686D02*
X126459775Y-84972781D01*
X126459775Y-84972781D02*
X126297870Y-84891829D01*
X126297870Y-84891829D02*
X125893108Y-84891829D01*
X125893108Y-84891829D02*
X125731203Y-84810876D01*
X124355013Y-84648972D02*
X124921680Y-84648972D01*
X124921680Y-85539448D02*
X124921680Y-83839448D01*
X124921680Y-83839448D02*
X124112156Y-83839448D01*
X123221679Y-85539448D02*
X123383584Y-85458496D01*
X123383584Y-85458496D02*
X123464537Y-85296591D01*
X123464537Y-85296591D02*
X123464537Y-83839448D01*
X121845489Y-85539448D02*
X121845489Y-84648972D01*
X121845489Y-84648972D02*
X121926442Y-84487067D01*
X121926442Y-84487067D02*
X122088346Y-84406115D01*
X122088346Y-84406115D02*
X122412156Y-84406115D01*
X122412156Y-84406115D02*
X122574061Y-84487067D01*
X121845489Y-85458496D02*
X122007394Y-85539448D01*
X122007394Y-85539448D02*
X122412156Y-85539448D01*
X122412156Y-85539448D02*
X122574061Y-85458496D01*
X122574061Y-85458496D02*
X122655013Y-85296591D01*
X122655013Y-85296591D02*
X122655013Y-85134686D01*
X122655013Y-85134686D02*
X122574061Y-84972781D01*
X122574061Y-84972781D02*
X122412156Y-84891829D01*
X122412156Y-84891829D02*
X122007394Y-84891829D01*
X122007394Y-84891829D02*
X121845489Y-84810876D01*
X121116918Y-85458496D02*
X120955013Y-85539448D01*
X120955013Y-85539448D02*
X120631204Y-85539448D01*
X120631204Y-85539448D02*
X120469299Y-85458496D01*
X120469299Y-85458496D02*
X120388347Y-85296591D01*
X120388347Y-85296591D02*
X120388347Y-85215638D01*
X120388347Y-85215638D02*
X120469299Y-85053734D01*
X120469299Y-85053734D02*
X120631204Y-84972781D01*
X120631204Y-84972781D02*
X120874061Y-84972781D01*
X120874061Y-84972781D02*
X121035966Y-84891829D01*
X121035966Y-84891829D02*
X121116918Y-84729924D01*
X121116918Y-84729924D02*
X121116918Y-84648972D01*
X121116918Y-84648972D02*
X121035966Y-84487067D01*
X121035966Y-84487067D02*
X120874061Y-84406115D01*
X120874061Y-84406115D02*
X120631204Y-84406115D01*
X120631204Y-84406115D02*
X120469299Y-84487067D01*
X119659776Y-85539448D02*
X119659776Y-83839448D01*
X118931204Y-85539448D02*
X118931204Y-84648972D01*
X118931204Y-84648972D02*
X119012157Y-84487067D01*
X119012157Y-84487067D02*
X119174061Y-84406115D01*
X119174061Y-84406115D02*
X119416918Y-84406115D01*
X119416918Y-84406115D02*
X119578823Y-84487067D01*
X119578823Y-84487067D02*
X119659776Y-84568019D01*
X117069300Y-84406115D02*
X116421681Y-84406115D01*
X116826443Y-85539448D02*
X116826443Y-84082305D01*
X116826443Y-84082305D02*
X116745490Y-83920400D01*
X116745490Y-83920400D02*
X116583585Y-83839448D01*
X116583585Y-83839448D02*
X116421681Y-83839448D01*
X115612156Y-85539448D02*
X115774061Y-85458496D01*
X115774061Y-85458496D02*
X115855014Y-85377543D01*
X115855014Y-85377543D02*
X115935966Y-85215638D01*
X115935966Y-85215638D02*
X115935966Y-84729924D01*
X115935966Y-84729924D02*
X115855014Y-84568019D01*
X115855014Y-84568019D02*
X115774061Y-84487067D01*
X115774061Y-84487067D02*
X115612156Y-84406115D01*
X115612156Y-84406115D02*
X115369299Y-84406115D01*
X115369299Y-84406115D02*
X115207395Y-84487067D01*
X115207395Y-84487067D02*
X115126442Y-84568019D01*
X115126442Y-84568019D02*
X115045490Y-84729924D01*
X115045490Y-84729924D02*
X115045490Y-85215638D01*
X115045490Y-85215638D02*
X115126442Y-85377543D01*
X115126442Y-85377543D02*
X115207395Y-85458496D01*
X115207395Y-85458496D02*
X115369299Y-85539448D01*
X115369299Y-85539448D02*
X115612156Y-85539448D01*
X114316919Y-85539448D02*
X114316919Y-84406115D01*
X114316919Y-84729924D02*
X114235966Y-84568019D01*
X114235966Y-84568019D02*
X114155014Y-84487067D01*
X114155014Y-84487067D02*
X113993109Y-84406115D01*
X113993109Y-84406115D02*
X113831204Y-84406115D01*
X112050252Y-85053734D02*
X111240728Y-85053734D01*
X112212157Y-85539448D02*
X111645490Y-83839448D01*
X111645490Y-83839448D02*
X111078823Y-85539448D01*
X110512157Y-84406115D02*
X110512157Y-86106115D01*
X110512157Y-84487067D02*
X110350252Y-84406115D01*
X110350252Y-84406115D02*
X110026442Y-84406115D01*
X110026442Y-84406115D02*
X109864538Y-84487067D01*
X109864538Y-84487067D02*
X109783585Y-84568019D01*
X109783585Y-84568019D02*
X109702633Y-84729924D01*
X109702633Y-84729924D02*
X109702633Y-85215638D01*
X109702633Y-85215638D02*
X109783585Y-85377543D01*
X109783585Y-85377543D02*
X109864538Y-85458496D01*
X109864538Y-85458496D02*
X110026442Y-85539448D01*
X110026442Y-85539448D02*
X110350252Y-85539448D01*
X110350252Y-85539448D02*
X110512157Y-85458496D01*
X108974062Y-84406115D02*
X108974062Y-86106115D01*
X108974062Y-84487067D02*
X108812157Y-84406115D01*
X108812157Y-84406115D02*
X108488347Y-84406115D01*
X108488347Y-84406115D02*
X108326443Y-84487067D01*
X108326443Y-84487067D02*
X108245490Y-84568019D01*
X108245490Y-84568019D02*
X108164538Y-84729924D01*
X108164538Y-84729924D02*
X108164538Y-85215638D01*
X108164538Y-85215638D02*
X108245490Y-85377543D01*
X108245490Y-85377543D02*
X108326443Y-85458496D01*
X108326443Y-85458496D02*
X108488347Y-85539448D01*
X108488347Y-85539448D02*
X108812157Y-85539448D01*
X108812157Y-85539448D02*
X108974062Y-85458496D01*
X107193109Y-85539448D02*
X107355014Y-85458496D01*
X107355014Y-85458496D02*
X107435967Y-85296591D01*
X107435967Y-85296591D02*
X107435967Y-83839448D01*
X105897872Y-85458496D02*
X106059776Y-85539448D01*
X106059776Y-85539448D02*
X106383586Y-85539448D01*
X106383586Y-85539448D02*
X106545491Y-85458496D01*
X106545491Y-85458496D02*
X106626443Y-85296591D01*
X106626443Y-85296591D02*
X106626443Y-84648972D01*
X106626443Y-84648972D02*
X106545491Y-84487067D01*
X106545491Y-84487067D02*
X106383586Y-84406115D01*
X106383586Y-84406115D02*
X106059776Y-84406115D01*
X106059776Y-84406115D02*
X105897872Y-84487067D01*
X105897872Y-84487067D02*
X105816919Y-84648972D01*
X105816919Y-84648972D02*
X105816919Y-84810876D01*
X105816919Y-84810876D02*
X106626443Y-84972781D01*
X103793110Y-85539448D02*
X103793110Y-83839448D01*
X102983586Y-85539448D02*
X102983586Y-83839448D01*
X101445490Y-85458496D02*
X101607395Y-85539448D01*
X101607395Y-85539448D02*
X101931204Y-85539448D01*
X101931204Y-85539448D02*
X102093109Y-85458496D01*
X102093109Y-85458496D02*
X102174062Y-85377543D01*
X102174062Y-85377543D02*
X102255014Y-85215638D01*
X102255014Y-85215638D02*
X102255014Y-84729924D01*
X102255014Y-84729924D02*
X102174062Y-84568019D01*
X102174062Y-84568019D02*
X102093109Y-84487067D01*
X102093109Y-84487067D02*
X101931204Y-84406115D01*
X101931204Y-84406115D02*
X101607395Y-84406115D01*
X101607395Y-84406115D02*
X101445490Y-84487067D01*
X99502633Y-83758496D02*
X100959776Y-85944210D01*
X98935967Y-85539448D02*
X98935967Y-83839448D01*
X98126443Y-85539448D02*
X98126443Y-83839448D01*
X96588347Y-85458496D02*
X96750252Y-85539448D01*
X96750252Y-85539448D02*
X97074061Y-85539448D01*
X97074061Y-85539448D02*
X97235966Y-85458496D01*
X97235966Y-85458496D02*
X97316919Y-85377543D01*
X97316919Y-85377543D02*
X97397871Y-85215638D01*
X97397871Y-85215638D02*
X97397871Y-84729924D01*
X97397871Y-84729924D02*
X97316919Y-84568019D01*
X97316919Y-84568019D02*
X97235966Y-84487067D01*
X97235966Y-84487067D02*
X97074061Y-84406115D01*
X97074061Y-84406115D02*
X96750252Y-84406115D01*
X96750252Y-84406115D02*
X96588347Y-84487067D01*
X95859776Y-84891829D02*
X94564538Y-84891829D01*
X95212157Y-85539448D02*
X95212157Y-84244210D01*
X130426441Y-88276353D02*
X130993108Y-87466829D01*
X131397870Y-88276353D02*
X131397870Y-86576353D01*
X131397870Y-86576353D02*
X130750251Y-86576353D01*
X130750251Y-86576353D02*
X130588346Y-86657305D01*
X130588346Y-86657305D02*
X130507393Y-86738258D01*
X130507393Y-86738258D02*
X130426441Y-86900162D01*
X130426441Y-86900162D02*
X130426441Y-87143020D01*
X130426441Y-87143020D02*
X130507393Y-87304924D01*
X130507393Y-87304924D02*
X130588346Y-87385877D01*
X130588346Y-87385877D02*
X130750251Y-87466829D01*
X130750251Y-87466829D02*
X131397870Y-87466829D01*
X129050251Y-88195401D02*
X129212155Y-88276353D01*
X129212155Y-88276353D02*
X129535965Y-88276353D01*
X129535965Y-88276353D02*
X129697870Y-88195401D01*
X129697870Y-88195401D02*
X129778822Y-88033496D01*
X129778822Y-88033496D02*
X129778822Y-87385877D01*
X129778822Y-87385877D02*
X129697870Y-87223972D01*
X129697870Y-87223972D02*
X129535965Y-87143020D01*
X129535965Y-87143020D02*
X129212155Y-87143020D01*
X129212155Y-87143020D02*
X129050251Y-87223972D01*
X129050251Y-87223972D02*
X128969298Y-87385877D01*
X128969298Y-87385877D02*
X128969298Y-87547781D01*
X128969298Y-87547781D02*
X129778822Y-87709686D01*
X128402631Y-87143020D02*
X127997869Y-88276353D01*
X127997869Y-88276353D02*
X127593108Y-87143020D01*
X124759774Y-88276353D02*
X125731203Y-88276353D01*
X125245489Y-88276353D02*
X125245489Y-86576353D01*
X125245489Y-86576353D02*
X125407393Y-86819210D01*
X125407393Y-86819210D02*
X125569298Y-86981115D01*
X125569298Y-86981115D02*
X125731203Y-87062067D01*
X124031203Y-88114448D02*
X123950250Y-88195401D01*
X123950250Y-88195401D02*
X124031203Y-88276353D01*
X124031203Y-88276353D02*
X124112155Y-88195401D01*
X124112155Y-88195401D02*
X124031203Y-88114448D01*
X124031203Y-88114448D02*
X124031203Y-88276353D01*
X122897869Y-86576353D02*
X122735964Y-86576353D01*
X122735964Y-86576353D02*
X122574060Y-86657305D01*
X122574060Y-86657305D02*
X122493107Y-86738258D01*
X122493107Y-86738258D02*
X122412155Y-86900162D01*
X122412155Y-86900162D02*
X122331202Y-87223972D01*
X122331202Y-87223972D02*
X122331202Y-87628734D01*
X122331202Y-87628734D02*
X122412155Y-87952543D01*
X122412155Y-87952543D02*
X122493107Y-88114448D01*
X122493107Y-88114448D02*
X122574060Y-88195401D01*
X122574060Y-88195401D02*
X122735964Y-88276353D01*
X122735964Y-88276353D02*
X122897869Y-88276353D01*
X122897869Y-88276353D02*
X123059774Y-88195401D01*
X123059774Y-88195401D02*
X123140726Y-88114448D01*
X123140726Y-88114448D02*
X123221679Y-87952543D01*
X123221679Y-87952543D02*
X123302631Y-87628734D01*
X123302631Y-87628734D02*
X123302631Y-87223972D01*
X123302631Y-87223972D02*
X123221679Y-86900162D01*
X123221679Y-86900162D02*
X123140726Y-86738258D01*
X123140726Y-86738258D02*
X123059774Y-86657305D01*
X123059774Y-86657305D02*
X122897869Y-86576353D01*
X121683583Y-87790639D02*
X120874059Y-87790639D01*
X121845488Y-88276353D02*
X121278821Y-86576353D01*
X121278821Y-86576353D02*
X120712154Y-88276353D01*
%LPC*%
D12*
X123725000Y-95000000D03*
D13*
X123425000Y-91970000D03*
X118575000Y-91970000D03*
D12*
X118275000Y-95000000D03*
D14*
X71600000Y-93660000D03*
D15*
X74140000Y-93660000D03*
X71600000Y-91120000D03*
X74140000Y-91120000D03*
X71600000Y-88580000D03*
X74140000Y-88580000D03*
X71600000Y-86040000D03*
X74140000Y-86040000D03*
X71600000Y-83500000D03*
X74140000Y-83500000D03*
X71600000Y-80960000D03*
X74140000Y-80960000D03*
X71600000Y-78420000D03*
X74140000Y-78420000D03*
X71600000Y-75880000D03*
X74140000Y-75880000D03*
X71600000Y-73340000D03*
X74140000Y-73340000D03*
X71600000Y-70800000D03*
X74140000Y-70800000D03*
X71600000Y-68260000D03*
X74140000Y-68260000D03*
X71600000Y-65720000D03*
X74140000Y-65720000D03*
X71600000Y-63180000D03*
X74140000Y-63180000D03*
X71600000Y-60640000D03*
X74140000Y-60640000D03*
X71600000Y-58100000D03*
X74140000Y-58100000D03*
X71600000Y-55560000D03*
X74140000Y-55560000D03*
X71600000Y-53020000D03*
X74140000Y-53020000D03*
%LPD*%
M02*
