M48
; DRILL file {KiCad 9.0.4} date 2025-09-07T09:46:20+0100
; FORMAT={-:-/ absolute / metric / decimal}
; #@! TF.CreationDate,2025-09-07T09:46:20+01:00
; #@! TF.GenerationSoftware,Kicad,Pcbnew,9.0.4
; #@! TF.FileFunction,Plated,1,2,PTH
FMAT,2
METRIC
; #@! TA.AperFunction,Plated,PTH,ViaDrill
T1C0.300
; #@! TA.AperFunction,Plated,PTH,ViaDrill
T2C0.400
; #@! TA.AperFunction,Plated,PTH,ComponentDrill
T3C1.000
%
G90
G05
T1
X75.946Y-48.514
X76.708Y-78.486
X77.47Y-48.006
X77.47Y-76.962
X77.724Y-75.88
X77.978Y-77.724
X78.232Y-48.768
X78.232Y-74.491
X78.74Y-73.34
X78.74Y-75.438
X78.994Y-49.784
X79.248Y-71.951
X79.502Y-51.308
X79.756Y-70.8
X79.756Y-73.152
X80.518Y-52.578
X80.518Y-58.928
X80.518Y-68.26
X80.518Y-71.374
X81.026Y-63.18
X81.28Y-53.848
X81.788Y-75.946
X82.042Y-68.834
X82.296Y-55.118
X82.804Y-67.332
X83.566Y-68.072
X83.566Y-93.218
X84.328Y-92.202
X84.582Y-69.237
X84.713Y-88.915
X84.836Y-56.642
X84.836Y-70.104
X85.598Y-61.214
X85.598Y-74.93
X86.614Y-95.758
X88.9Y-59.69
X89.154Y-76.708
X91.948Y-87.63
X91.968Y-85.917
X93.726Y-54.61
X93.726Y-74.422
X94.488Y-58.42
X94.81Y-66.802
X95.536Y-52.07
X95.536Y-59.436
X96.266Y-52.832
X96.266Y-94.742
X96.774Y-61.976
X97.536Y-56.896
X98.044Y-66.926
X98.044Y-82.55
X98.298Y-80.518
X98.552Y-95.504
X99.104Y-79.8
X99.314Y-93.25
X99.568Y-55.118
X99.568Y-65.532
X100.076Y-77.978
X100.33Y-54.102
X100.33Y-66.04
X100.816Y-67.332
X100.838Y-78.74
X101.092Y-60.96
X101.092Y-93.726
X101.346Y-80.518
X101.6Y-67.818
X101.886Y-57.856
X102.108Y-71.882
X103.124Y-72.136
X103.918Y-72.644
X104.648Y-73.66
X104.902Y-86.36
X105.156Y-52.324
X105.156Y-54.61
X105.156Y-59.69
X105.41Y-62.23
X105.41Y-74.422
X106.172Y-67.056
X106.426Y-46.99
X106.68Y-49.276
X106.934Y-57.033
X106.934Y-76.858
X108.204Y-83.312
X108.204Y-93.98
X116.84Y-77.4
X124.968Y-75.438
X126.238Y-62.992
X127.254Y-73.152
X127.762Y-62.1
X127.762Y-68.58
X128.524Y-71.12
X132.962Y-49.41
X133.096Y-46.99
T2
X76.708Y-81.28
X90.424Y-58.1
X90.424Y-68.602
X90.424Y-72.412
X90.424Y-75.587
X90.424Y-79.397
X90.424Y-84.5
X90.764Y-64.262
X90.932Y-94.91
X91.694Y-62.992
X91.694Y-70.507
X91.694Y-77.492
X91.694Y-81.026
X92.202Y-51.054
X92.456Y-88.9
X92.456Y-94.08
X92.964Y-53.594
X92.964Y-62.738
X92.964Y-70.45
X92.964Y-77.47
X92.964Y-83.058
X102.616Y-48.26
X105.156Y-84.5
X105.328Y-80.373
X106.172Y-81.28
X106.172Y-93.472
X107.188Y-89.916
X107.188Y-95.504
X107.696Y-45.974
X108.712Y-51.773
X108.712Y-64.516
X116.84Y-64.65
X116.84Y-90.17
X133.35Y-64.516
X133.604Y-52.403
T3
X71.6Y-53.02
X71.6Y-55.56
X71.6Y-58.1
X71.6Y-60.64
X71.6Y-63.18
X71.6Y-65.72
X71.6Y-68.26
X71.6Y-70.8
X71.6Y-73.34
X71.6Y-75.88
X71.6Y-78.42
X71.6Y-80.96
X71.6Y-83.5
X71.6Y-86.04
X71.6Y-88.58
X71.6Y-91.12
X71.6Y-93.66
X74.14Y-53.02
X74.14Y-55.56
X74.14Y-58.1
X74.14Y-60.64
X74.14Y-63.18
X74.14Y-65.72
X74.14Y-68.26
X74.14Y-70.8
X74.14Y-73.34
X74.14Y-75.88
X74.14Y-78.42
X74.14Y-80.96
X74.14Y-83.5
X74.14Y-86.04
X74.14Y-88.58
X74.14Y-91.12
X74.14Y-93.66
M30
