M48
; DRILL file {KiCad 9.0.4} date 2025-09-05T21:22:11+0100
; FORMAT={-:-/ absolute / metric / decimal}
; #@! TF.CreationDate,2025-09-05T21:22:11+01:00
; #@! TF.GenerationSoftware,Kicad,Pcbnew,9.0.4
; #@! TF.FileFunction,Plated,1,2,PTH
FMAT,2
METRIC
; #@! TA.AperFunction,Plated,PTH,ViaDrill
T1C0.300
; #@! TA.AperFunction,Plated,PTH,ViaDrill
T2C0.400
; #@! TA.AperFunction,Plated,PTH,ComponentDrill
T3C0.800
; #@! TA.AperFunction,Plated,PTH,ComponentDrill
T4C1.000
; #@! TA.AperFunction,Plated,PTH,ComponentDrill
T5C1.100
%
G90
G05
T1
X76.2Y-78.486
X76.327Y-76.327
X77.216Y-61.087
X77.216Y-81.28
X77.946Y-63.5
X77.946Y-76.2
X78.581Y-67.31
X78.581Y-74.168
X79.248Y-65.532
X79.248Y-70.231
X80.01Y-66.04
X80.01Y-71.12
X80.772Y-63.5
X80.772Y-72.39
X81.407Y-73.533
X82.296Y-50.8
X84.836Y-55.239
X85.471Y-74.93
X86.201Y-68.58
X86.233Y-54.61
X86.963Y-62.484
X87.63Y-57.277
X87.63Y-71.12
X88.265Y-60.452
X88.265Y-73.66
X89.027Y-59.182
X92.456Y-57.15
X93.091Y-54.229
X93.726Y-78.359
X94.996Y-55.969
X95.631Y-64.485
X95.955Y-62.159
X96.901Y-68.453
X96.942Y-71.275
X97.663Y-63.373
X104.14Y-81.534
X104.648Y-79.598
X105.41Y-76.073
X105.918Y-79.121
X111.085Y-57.531
X111.085Y-66.421
X123.444Y-65.151
X123.571Y-58.674
X124.46Y-55.118
X124.46Y-61.214
X125.603Y-53.975
X126.492Y-48.387
X127.254Y-45.974
X128.143Y-63.754
X128.27Y-61.214
X138.684Y-70.104
X138.684Y-78.74
X142.367Y-65.151
X142.367Y-82.55
X143.256Y-62.924
X143.256Y-85.344
X143.891Y-61.341
X143.891Y-86.868
X144.907Y-56.515
X144.907Y-88.519
X145.542Y-89.281
X145.669Y-58.674
X146.304Y-71.374
X146.431Y-59.817
X147.193Y-57.531
X147.193Y-73.787
X153.543Y-78.994
X153.543Y-92.583
X154.917Y-81.43
X154.917Y-94.084
X157.861Y-61.087
X165.227Y-84.074
X165.354Y-86.36
T2
X88.9Y-57.404
X93.853Y-60.96
X110.45Y-85.217
X127.635Y-91.44
X128.016Y-83.566
X133.985Y-89.027
X134.62Y-63.754
X134.62Y-76.35
X147.828Y-76.35
X153.035Y-51.181
X159.385Y-85.09
X159.512Y-93.98
X164.465Y-92.583
T3
X83.185Y-60.96
X83.185Y-63.5
X83.185Y-66.04
X83.185Y-68.58
X83.185Y-71.12
X83.185Y-73.66
X83.185Y-76.2
X83.185Y-78.74
X83.185Y-81.28
X83.185Y-83.82
X84.495Y-53.34
X89.495Y-53.34
X90.805Y-60.96
X90.805Y-63.5
X90.805Y-66.04
X90.805Y-68.58
X90.805Y-71.12
X90.805Y-73.66
X90.805Y-76.2
X90.805Y-78.74
X90.805Y-81.28
X90.805Y-83.82
X99.695Y-46.705
X99.695Y-49.245
X99.695Y-51.785
X99.695Y-54.325
X99.695Y-56.865
X99.695Y-59.405
X99.695Y-61.945
X99.695Y-64.485
X99.695Y-67.025
X99.695Y-72.105
X99.695Y-74.645
X99.695Y-77.185
X99.695Y-79.725
X99.695Y-82.265
X99.695Y-84.805
X99.695Y-87.345
X99.695Y-89.885
X99.695Y-92.425
X105.45Y-72.74
X106.085Y-47.625
X110.45Y-72.74
X111.085Y-47.625
X114.975Y-47.625
X114.975Y-72.74
X119.975Y-47.625
X119.975Y-72.74
X124.46Y-72.105
X124.46Y-74.645
X124.46Y-77.185
X124.46Y-79.725
X124.46Y-82.265
X124.46Y-84.805
X124.46Y-87.345
X124.46Y-89.885
X124.46Y-92.425
X156.845Y-65.786
X156.845Y-69.215
X159.425Y-46.595
X159.425Y-81.63
X164.425Y-46.595
X164.425Y-81.63
X167.005Y-65.786
X167.005Y-69.215
T4
X71.6Y-46.96
X71.6Y-49.5
X71.6Y-52.04
X71.6Y-54.58
X71.6Y-57.12
X71.6Y-59.66
X71.6Y-62.2
X71.6Y-64.74
X71.6Y-67.28
X71.6Y-69.82
X71.6Y-72.36
X71.6Y-74.9
X71.6Y-77.44
X71.6Y-79.98
X71.6Y-82.52
X71.6Y-85.06
X71.6Y-87.6
X74.14Y-46.96
X74.14Y-49.5
X74.14Y-52.04
X74.14Y-54.58
X74.14Y-57.12
X74.14Y-59.66
X74.14Y-62.2
X74.14Y-64.74
X74.14Y-67.28
X74.14Y-69.82
X74.14Y-72.36
X74.14Y-74.9
X74.14Y-77.44
X74.14Y-79.98
X74.14Y-82.52
X74.14Y-85.06
X74.14Y-87.6
T5
X83.82Y-46.99
X93.98Y-46.99
M30
