G04 #@! TF.GenerationSoftware,KiCad,Pcbnew,9.0.4*
G04 #@! TF.CreationDate,2025-09-05T21:27:27+01:00*
G04 #@! TF.ProjectId,megaflash,6d656761-666c-4617-9368-2e6b69636164,rev?*
G04 #@! TF.SameCoordinates,Original*
G04 #@! TF.FileFunction,Soldermask,Bot*
G04 #@! TF.FilePolarity,Negative*
%FSLAX46Y46*%
G04 Gerber Fmt 4.6, Leading zero omitted, Abs format (unit mm)*
G04 Created by KiCad (PCBNEW 9.0.4) date 2025-09-05 21:27:27*
%MOMM*%
%LPD*%
G01*
G04 APERTURE LIST*
G04 Aperture macros list*
%AMRoundRect*
0 Rectangle with rounded corners*
0 $1 Rounding radius*
0 $2 $3 $4 $5 $6 $7 $8 $9 X,Y pos of 4 corners*
0 Add a 4 corners polygon primitive as box body*
4,1,4,$2,$3,$4,$5,$6,$7,$8,$9,$2,$3,0*
0 Add four circle primitives for the rounded corners*
1,1,$1+$1,$2,$3*
1,1,$1+$1,$4,$5*
1,1,$1+$1,$6,$7*
1,1,$1+$1,$8,$9*
0 Add four rect primitives between the rounded corners*
20,1,$1+$1,$2,$3,$4,$5,0*
20,1,$1+$1,$4,$5,$6,$7,0*
20,1,$1+$1,$6,$7,$8,$9,0*
20,1,$1+$1,$8,$9,$2,$3,0*%
G04 Aperture macros list end*
%ADD10R,1.600000X1.600000*%
%ADD11C,1.600000*%
%ADD12O,1.800000X1.800000*%
%ADD13O,1.500000X1.500000*%
%ADD14R,1.700000X1.700000*%
%ADD15O,1.700000X1.700000*%
%ADD16RoundRect,0.250000X-0.950000X-0.550000X0.950000X-0.550000X0.950000X0.550000X-0.950000X0.550000X0*%
%ADD17O,2.400000X1.600000*%
%ADD18RoundRect,0.249999X-0.850001X-0.850001X0.850001X-0.850001X0.850001X0.850001X-0.850001X0.850001X0*%
%ADD19C,2.200000*%
%ADD20C,2.700000*%
G04 APERTURE END LIST*
D10*
X99695000Y-72105000D03*
D11*
X99695000Y-74645000D03*
X99695000Y-77185000D03*
X99695000Y-79725000D03*
X99695000Y-82265000D03*
X99695000Y-84805000D03*
X99695000Y-87345000D03*
X99695000Y-89885000D03*
X99695000Y-92425000D03*
D10*
X124460000Y-72105000D03*
D11*
X124460000Y-74645000D03*
X124460000Y-77185000D03*
X124460000Y-79725000D03*
X124460000Y-82265000D03*
X124460000Y-84805000D03*
X124460000Y-87345000D03*
X124460000Y-89885000D03*
X124460000Y-92425000D03*
D12*
X143425000Y-94000000D03*
D13*
X143125000Y-90970000D03*
X138275000Y-90970000D03*
D12*
X137975000Y-94000000D03*
D11*
X106085000Y-47625000D03*
X111085000Y-47625000D03*
X105450000Y-72740000D03*
X110450000Y-72740000D03*
D14*
X71600000Y-87600000D03*
D15*
X74140000Y-87600000D03*
X71600000Y-85060000D03*
X74140000Y-85060000D03*
X71600000Y-82520000D03*
X74140000Y-82520000D03*
X71600000Y-79980000D03*
X74140000Y-79980000D03*
X71600000Y-77440000D03*
X74140000Y-77440000D03*
X71600000Y-74900000D03*
X74140000Y-74900000D03*
X71600000Y-72360000D03*
X74140000Y-72360000D03*
X71600000Y-69820000D03*
X74140000Y-69820000D03*
X71600000Y-67280000D03*
X74140000Y-67280000D03*
X71600000Y-64740000D03*
X74140000Y-64740000D03*
X71600000Y-62200000D03*
X74140000Y-62200000D03*
X71600000Y-59660000D03*
X74140000Y-59660000D03*
X71600000Y-57120000D03*
X74140000Y-57120000D03*
X71600000Y-54580000D03*
X74140000Y-54580000D03*
X71600000Y-52040000D03*
X74140000Y-52040000D03*
X71600000Y-49500000D03*
X74140000Y-49500000D03*
X71600000Y-46960000D03*
X74140000Y-46960000D03*
D11*
X159425000Y-81630000D03*
X164425000Y-81630000D03*
X167005000Y-65786000D03*
X156845000Y-65786000D03*
D10*
X99695000Y-46705000D03*
D11*
X99695000Y-49245000D03*
X99695000Y-51785000D03*
X99695000Y-54325000D03*
X99695000Y-56865000D03*
X99695000Y-59405000D03*
X99695000Y-61945000D03*
X99695000Y-64485000D03*
X99695000Y-67025000D03*
D16*
X83185000Y-60960000D03*
D17*
X83185000Y-63500000D03*
X83185000Y-66040000D03*
X83185000Y-68580000D03*
X83185000Y-71120000D03*
X83185000Y-73660000D03*
X83185000Y-76200000D03*
X83185000Y-78740000D03*
X83185000Y-81280000D03*
X83185000Y-83820000D03*
X90805000Y-83820000D03*
X90805000Y-81280000D03*
X90805000Y-78740000D03*
X90805000Y-76200000D03*
X90805000Y-73660000D03*
X90805000Y-71120000D03*
X90805000Y-68580000D03*
X90805000Y-66040000D03*
X90805000Y-63500000D03*
X90805000Y-60960000D03*
D11*
X159425000Y-46595000D03*
X164425000Y-46595000D03*
D18*
X83820000Y-46990000D03*
D19*
X93980000Y-46990000D03*
D11*
X119975000Y-72740000D03*
X114975000Y-72740000D03*
X114975000Y-47625000D03*
X119975000Y-47625000D03*
D20*
X162400000Y-76232500D03*
D11*
X167005000Y-69215000D03*
X156845000Y-69215000D03*
X89495000Y-53340000D03*
X84495000Y-53340000D03*
M02*
