G04 #@! TF.GenerationSoftware,KiCad,Pcbnew,9.0.4*
G04 #@! TF.CreationDate,2025-09-05T21:27:26+01:00*
G04 #@! TF.ProjectId,megaflash,6d656761-666c-4617-9368-2e6b69636164,rev?*
G04 #@! TF.SameCoordinates,Original*
G04 #@! TF.FileFunction,Copper,L2,Bot*
G04 #@! TF.FilePolarity,Positive*
%FSLAX46Y46*%
G04 Gerber Fmt 4.6, Leading zero omitted, Abs format (unit mm)*
G04 Created by KiCad (PCBNEW 9.0.4) date 2025-09-05 21:27:26*
%MOMM*%
%LPD*%
G01*
G04 APERTURE LIST*
G04 Aperture macros list*
%AMRoundRect*
0 Rectangle with rounded corners*
0 $1 Rounding radius*
0 $2 $3 $4 $5 $6 $7 $8 $9 X,Y pos of 4 corners*
0 Add a 4 corners polygon primitive as box body*
4,1,4,$2,$3,$4,$5,$6,$7,$8,$9,$2,$3,0*
0 Add four circle primitives for the rounded corners*
1,1,$1+$1,$2,$3*
1,1,$1+$1,$4,$5*
1,1,$1+$1,$6,$7*
1,1,$1+$1,$8,$9*
0 Add four rect primitives between the rounded corners*
20,1,$1+$1,$2,$3,$4,$5,0*
20,1,$1+$1,$4,$5,$6,$7,0*
20,1,$1+$1,$6,$7,$8,$9,0*
20,1,$1+$1,$8,$9,$2,$3,0*%
G04 Aperture macros list end*
G04 #@! TA.AperFunction,ComponentPad*
%ADD10R,1.600000X1.600000*%
G04 #@! TD*
G04 #@! TA.AperFunction,ComponentPad*
%ADD11C,1.600000*%
G04 #@! TD*
G04 #@! TA.AperFunction,ComponentPad*
%ADD12R,1.700000X1.700000*%
G04 #@! TD*
G04 #@! TA.AperFunction,ComponentPad*
%ADD13O,1.700000X1.700000*%
G04 #@! TD*
G04 #@! TA.AperFunction,ComponentPad*
%ADD14RoundRect,0.250000X-0.950000X-0.550000X0.950000X-0.550000X0.950000X0.550000X-0.950000X0.550000X0*%
G04 #@! TD*
G04 #@! TA.AperFunction,ComponentPad*
%ADD15O,2.400000X1.600000*%
G04 #@! TD*
G04 #@! TA.AperFunction,ComponentPad*
%ADD16RoundRect,0.249999X-0.850001X-0.850001X0.850001X-0.850001X0.850001X0.850001X-0.850001X0.850001X0*%
G04 #@! TD*
G04 #@! TA.AperFunction,ComponentPad*
%ADD17C,2.200000*%
G04 #@! TD*
G04 #@! TA.AperFunction,ViaPad*
%ADD18C,0.800000*%
G04 #@! TD*
G04 #@! TA.AperFunction,ViaPad*
%ADD19C,0.600000*%
G04 #@! TD*
G04 #@! TA.AperFunction,Conductor*
%ADD20C,0.400000*%
G04 #@! TD*
G04 #@! TA.AperFunction,Conductor*
%ADD21C,0.200000*%
G04 #@! TD*
G04 APERTURE END LIST*
D10*
X99695000Y-72105000D03*
D11*
X99695000Y-74645000D03*
X99695000Y-77185000D03*
X99695000Y-79725000D03*
X99695000Y-82265000D03*
X99695000Y-84805000D03*
X99695000Y-87345000D03*
X99695000Y-89885000D03*
X99695000Y-92425000D03*
D10*
X124460000Y-72105000D03*
D11*
X124460000Y-74645000D03*
X124460000Y-77185000D03*
X124460000Y-79725000D03*
X124460000Y-82265000D03*
X124460000Y-84805000D03*
X124460000Y-87345000D03*
X124460000Y-89885000D03*
X124460000Y-92425000D03*
X106085000Y-47625000D03*
X111085000Y-47625000D03*
X105450000Y-72740000D03*
X110450000Y-72740000D03*
D12*
X71600000Y-87600000D03*
D13*
X74140000Y-87600000D03*
X71600000Y-85060000D03*
X74140000Y-85060000D03*
X71600000Y-82520000D03*
X74140000Y-82520000D03*
X71600000Y-79980000D03*
X74140000Y-79980000D03*
X71600000Y-77440000D03*
X74140000Y-77440000D03*
X71600000Y-74900000D03*
X74140000Y-74900000D03*
X71600000Y-72360000D03*
X74140000Y-72360000D03*
X71600000Y-69820000D03*
X74140000Y-69820000D03*
X71600000Y-67280000D03*
X74140000Y-67280000D03*
X71600000Y-64740000D03*
X74140000Y-64740000D03*
X71600000Y-62200000D03*
X74140000Y-62200000D03*
X71600000Y-59660000D03*
X74140000Y-59660000D03*
X71600000Y-57120000D03*
X74140000Y-57120000D03*
X71600000Y-54580000D03*
X74140000Y-54580000D03*
X71600000Y-52040000D03*
X74140000Y-52040000D03*
X71600000Y-49500000D03*
X74140000Y-49500000D03*
X71600000Y-46960000D03*
X74140000Y-46960000D03*
D11*
X159425000Y-81630000D03*
X164425000Y-81630000D03*
X167005000Y-65786000D03*
X156845000Y-65786000D03*
D10*
X99695000Y-46705000D03*
D11*
X99695000Y-49245000D03*
X99695000Y-51785000D03*
X99695000Y-54325000D03*
X99695000Y-56865000D03*
X99695000Y-59405000D03*
X99695000Y-61945000D03*
X99695000Y-64485000D03*
X99695000Y-67025000D03*
D14*
X83185000Y-60960000D03*
D15*
X83185000Y-63500000D03*
X83185000Y-66040000D03*
X83185000Y-68580000D03*
X83185000Y-71120000D03*
X83185000Y-73660000D03*
X83185000Y-76200000D03*
X83185000Y-78740000D03*
X83185000Y-81280000D03*
X83185000Y-83820000D03*
X90805000Y-83820000D03*
X90805000Y-81280000D03*
X90805000Y-78740000D03*
X90805000Y-76200000D03*
X90805000Y-73660000D03*
X90805000Y-71120000D03*
X90805000Y-68580000D03*
X90805000Y-66040000D03*
X90805000Y-63500000D03*
X90805000Y-60960000D03*
D11*
X159425000Y-46595000D03*
X164425000Y-46595000D03*
D16*
X83820000Y-46990000D03*
D17*
X93980000Y-46990000D03*
D11*
X119975000Y-72740000D03*
X114975000Y-72740000D03*
X114975000Y-47625000D03*
X119975000Y-47625000D03*
X167005000Y-69215000D03*
X156845000Y-69215000D03*
X89495000Y-53340000D03*
X84495000Y-53340000D03*
D18*
X147828000Y-76350000D03*
X88900000Y-57404000D03*
X134620000Y-63754000D03*
D19*
X111085000Y-66421000D03*
D18*
X134620000Y-76350000D03*
X153035000Y-51181000D03*
X110450000Y-85217000D03*
X164465000Y-92583000D03*
X133985000Y-89027000D03*
D19*
X111085000Y-57531000D03*
D18*
X93853000Y-60960000D03*
X127635000Y-91440000D03*
X159512000Y-93980000D03*
X128016000Y-83566000D03*
X159385000Y-85090000D03*
D19*
X104140000Y-81534000D03*
X77216000Y-81280000D03*
X77216000Y-61087000D03*
X76200000Y-78486000D03*
X78581000Y-74168000D03*
X78581000Y-67310000D03*
X80772000Y-63500000D03*
X80772000Y-72390000D03*
X80010000Y-71120000D03*
X80010000Y-66040000D03*
X87630000Y-71120000D03*
X96941849Y-71275000D03*
X95954762Y-62159422D03*
X87630000Y-57277000D03*
X77946000Y-76200000D03*
X77946000Y-63500000D03*
X82296000Y-50800000D03*
X76327000Y-76327000D03*
X94996000Y-55969000D03*
X95631000Y-64485000D03*
X86963000Y-62484000D03*
X79248000Y-65532000D03*
X79248000Y-70231000D03*
X89027000Y-59182000D03*
X85471000Y-74930000D03*
X84836000Y-55239000D03*
X81407000Y-73533000D03*
X96901000Y-68453000D03*
X86233000Y-54610000D03*
X86201000Y-68580000D03*
X104648000Y-79598000D03*
X88265000Y-73660000D03*
X88265000Y-60452000D03*
X124460000Y-55118000D03*
X124460000Y-61214000D03*
X92456000Y-57150000D03*
X97663000Y-63373000D03*
X127254000Y-45974000D03*
X128143000Y-63754000D03*
X128270000Y-61214000D03*
X105918000Y-79121000D03*
X93726000Y-78359000D03*
X93091000Y-54229000D03*
X105410000Y-76073000D03*
X125603000Y-53975000D03*
X143256000Y-62924000D03*
X143256000Y-85344000D03*
X147193000Y-73787000D03*
X147193000Y-57531000D03*
X144907000Y-56515000D03*
X144907000Y-88519000D03*
X146304000Y-71374000D03*
X146431000Y-59817000D03*
X142367000Y-65151000D03*
X142367000Y-82550000D03*
X145669000Y-58674000D03*
X145542000Y-89281000D03*
X123571000Y-58674000D03*
X123444000Y-65151000D03*
X143891000Y-61341000D03*
X143891000Y-86868000D03*
X126492000Y-48387000D03*
X138684000Y-70104000D03*
X138684000Y-78740000D03*
X153543000Y-92583000D03*
X153543000Y-78994000D03*
X154917000Y-81430000D03*
X157861000Y-61087000D03*
X154917000Y-94084000D03*
X165227000Y-84074000D03*
X165354000Y-86360000D03*
D20*
X72851000Y-53329000D02*
X71081818Y-53329000D01*
X88900000Y-57404000D02*
X88900000Y-55499000D01*
X111085000Y-66421000D02*
X111085000Y-72105000D01*
X153035000Y-51181000D02*
X153035000Y-71143000D01*
X111085000Y-72105000D02*
X110450000Y-72740000D01*
X86741000Y-53340000D02*
X84495000Y-53340000D01*
X164425000Y-92543000D02*
X164465000Y-92583000D01*
X158822000Y-45394000D02*
X163224000Y-45394000D01*
X164425000Y-81630000D02*
X164425000Y-92543000D01*
X111085000Y-47625000D02*
X111085000Y-57531000D01*
X71081818Y-53329000D02*
X69977000Y-54433818D01*
X153035000Y-71143000D02*
X147828000Y-76350000D01*
X74140000Y-52040000D02*
X72851000Y-53329000D01*
X69977000Y-54433818D02*
X69977000Y-77089000D01*
X110450000Y-72740000D02*
X110450000Y-85217000D01*
X134620000Y-88392000D02*
X133985000Y-89027000D01*
X134620000Y-76350000D02*
X134620000Y-88392000D01*
X70328000Y-77440000D02*
X71600000Y-77440000D01*
X134620000Y-76350000D02*
X134620000Y-63754000D01*
X163224000Y-45394000D02*
X164425000Y-46595000D01*
X69977000Y-77089000D02*
X70328000Y-77440000D01*
X88900000Y-55499000D02*
X86741000Y-53340000D01*
X153035000Y-51181000D02*
X158822000Y-45394000D01*
X111085000Y-57531000D02*
X111085000Y-66421000D01*
X127381000Y-91186000D02*
X113157000Y-91186000D01*
X90424000Y-53340000D02*
X89495000Y-53340000D01*
X105546000Y-72644000D02*
X105450000Y-72740000D01*
X107950000Y-85979000D02*
X107950000Y-72771000D01*
X90805000Y-60960000D02*
X90805000Y-53721000D01*
X107950000Y-49490000D02*
X106085000Y-47625000D01*
X86868000Y-46990000D02*
X89495000Y-49617000D01*
X107950000Y-72771000D02*
X107950000Y-49490000D01*
X89495000Y-49617000D02*
X89495000Y-53340000D01*
X113157000Y-91186000D02*
X107950000Y-85979000D01*
X127635000Y-91440000D02*
X127381000Y-91186000D01*
X95346000Y-72105000D02*
X99695000Y-72105000D01*
X90805000Y-53721000D02*
X90424000Y-53340000D01*
X107919000Y-72740000D02*
X107950000Y-72771000D01*
X93853000Y-70612000D02*
X95346000Y-72105000D01*
X105450000Y-72740000D02*
X107919000Y-72740000D01*
X93853000Y-60960000D02*
X93853000Y-70612000D01*
X83820000Y-46990000D02*
X86868000Y-46990000D01*
X167005000Y-69215000D02*
X167005000Y-79248000D01*
X127978000Y-83604000D02*
X128016000Y-83566000D01*
X159425000Y-81630000D02*
X159425000Y-85050000D01*
X119975000Y-72740000D02*
X119975000Y-80859000D01*
X167005000Y-65786000D02*
X167005000Y-69215000D01*
X122720000Y-83604000D02*
X127978000Y-83604000D01*
X114975000Y-47625000D02*
X114975000Y-67740000D01*
X119975000Y-80859000D02*
X122720000Y-83604000D01*
X159425000Y-85050000D02*
X159385000Y-85090000D01*
X165862000Y-80391000D02*
X160664000Y-80391000D01*
X160664000Y-80391000D02*
X159425000Y-81630000D01*
X167005000Y-79248000D02*
X165862000Y-80391000D01*
X159385000Y-93853000D02*
X159512000Y-93980000D01*
X159385000Y-85090000D02*
X159385000Y-93853000D01*
X114975000Y-67740000D02*
X119975000Y-72740000D01*
D21*
X74170000Y-90170000D02*
X97440000Y-90170000D01*
X97440000Y-90170000D02*
X99695000Y-92425000D01*
X71600000Y-87600000D02*
X74170000Y-90170000D01*
X72751000Y-81131000D02*
X74400000Y-81131000D01*
X92583000Y-86360000D02*
X96393000Y-82550000D01*
X96393000Y-80645000D02*
X99695000Y-77343000D01*
X79629000Y-86360000D02*
X92583000Y-86360000D01*
X99695000Y-77343000D02*
X99695000Y-77185000D01*
X96393000Y-82550000D02*
X96393000Y-80645000D01*
X71600000Y-79980000D02*
X72751000Y-81131000D01*
X104044000Y-81534000D02*
X104140000Y-81534000D01*
X74400000Y-81131000D02*
X79629000Y-86360000D01*
X99695000Y-77185000D02*
X104044000Y-81534000D01*
X77216000Y-81280000D02*
X77216000Y-61087000D01*
X75311000Y-65911000D02*
X75311000Y-77597000D01*
X74140000Y-64740000D02*
X75311000Y-65911000D01*
X75311000Y-77597000D02*
X76200000Y-78486000D01*
X77345000Y-88265000D02*
X74140000Y-85060000D01*
X99695000Y-84805000D02*
X99664000Y-84836000D01*
X98806000Y-84836000D02*
X95377000Y-88265000D01*
X99664000Y-84836000D02*
X98806000Y-84836000D01*
X95377000Y-88265000D02*
X77345000Y-88265000D01*
X78359000Y-67532000D02*
X78581000Y-67310000D01*
X78581000Y-74168000D02*
X78359000Y-73946000D01*
X78359000Y-73946000D02*
X78359000Y-67532000D01*
X80772000Y-63500000D02*
X80772000Y-72390000D01*
X80010000Y-66040000D02*
X80010000Y-71120000D01*
X87630000Y-71120000D02*
X87630000Y-57277000D01*
X96941849Y-71275000D02*
X96266000Y-70599151D01*
X96266000Y-62470660D02*
X95954762Y-62159422D01*
X96266000Y-70599151D02*
X96266000Y-62470660D01*
X77851000Y-63595000D02*
X77946000Y-63500000D01*
X77851000Y-76105000D02*
X77851000Y-63595000D01*
X77946000Y-76200000D02*
X77851000Y-76105000D01*
X99091000Y-82265000D02*
X99695000Y-82265000D01*
X71600000Y-82520000D02*
X72751000Y-83671000D01*
X93726000Y-87630000D02*
X99091000Y-82265000D01*
X78337760Y-87630000D02*
X93726000Y-87630000D01*
X72751000Y-83671000D02*
X74378760Y-83671000D01*
X74378760Y-83671000D02*
X78337760Y-87630000D01*
X82169000Y-50673000D02*
X82296000Y-50800000D01*
X76327000Y-76327000D02*
X76327000Y-52959000D01*
X76327000Y-52959000D02*
X78613000Y-50673000D01*
X78613000Y-50673000D02*
X82169000Y-50673000D01*
X95631000Y-64485000D02*
X94996000Y-63850000D01*
X94996000Y-63850000D02*
X94996000Y-55969000D01*
X86931000Y-62516000D02*
X86963000Y-62484000D01*
X86931000Y-81724000D02*
X86931000Y-62516000D01*
X90805000Y-83820000D02*
X89027000Y-83820000D01*
X89027000Y-83820000D02*
X86931000Y-81724000D01*
X79248000Y-65532000D02*
X79248000Y-70231000D01*
X89027000Y-75692000D02*
X89027000Y-59182000D01*
X89535000Y-76200000D02*
X90805000Y-76200000D01*
X89027000Y-75692000D02*
X89535000Y-76200000D01*
X71600000Y-85060000D02*
X72989000Y-86449000D01*
X98140000Y-88900000D02*
X99695000Y-87345000D01*
X77067760Y-88900000D02*
X98140000Y-88900000D01*
X74616760Y-86449000D02*
X77067760Y-88900000D01*
X72989000Y-86449000D02*
X74616760Y-86449000D01*
X85471000Y-56007000D02*
X84836000Y-55372000D01*
X85471000Y-74930000D02*
X85471000Y-56007000D01*
X84836000Y-55372000D02*
X84836000Y-55239000D01*
X81407000Y-73533000D02*
X81407000Y-61468000D01*
X83185000Y-60960000D02*
X81915000Y-60960000D01*
X81915000Y-60960000D02*
X81407000Y-61468000D01*
X99345000Y-89535000D02*
X99695000Y-89885000D01*
X76075000Y-89535000D02*
X99345000Y-89535000D01*
X74140000Y-87600000D02*
X76075000Y-89535000D01*
X86233000Y-68548000D02*
X86233000Y-54610000D01*
X97282000Y-59405000D02*
X99695000Y-59405000D01*
X96901000Y-59786000D02*
X97282000Y-59405000D01*
X86201000Y-68580000D02*
X86233000Y-68548000D01*
X96901000Y-68453000D02*
X96901000Y-59786000D01*
X99695000Y-74645000D02*
X104648000Y-79598000D01*
X99599000Y-74645000D02*
X99695000Y-74645000D01*
X92075000Y-85725000D02*
X95631000Y-82169000D01*
X95631000Y-82169000D02*
X95631000Y-78613000D01*
X95631000Y-78613000D02*
X99599000Y-74645000D01*
X79885000Y-85725000D02*
X92075000Y-85725000D01*
X74140000Y-79980000D02*
X79885000Y-85725000D01*
X93091000Y-86995000D02*
X99695000Y-80391000D01*
X74140000Y-82520000D02*
X78615000Y-86995000D01*
X78615000Y-86995000D02*
X93091000Y-86995000D01*
X99695000Y-80391000D02*
X99695000Y-79725000D01*
X88265000Y-73660000D02*
X88265000Y-60452000D01*
X124460000Y-55118000D02*
X124460000Y-61214000D01*
X92456000Y-57150000D02*
X92456000Y-79629000D01*
X92456000Y-79629000D02*
X90805000Y-81280000D01*
X98521000Y-67025000D02*
X97663000Y-66167000D01*
X97663000Y-66167000D02*
X97663000Y-63373000D01*
X99695000Y-67025000D02*
X98521000Y-67025000D01*
X127254000Y-76931000D02*
X127254000Y-45974000D01*
X124460000Y-79725000D02*
X127254000Y-76931000D01*
X128270000Y-61214000D02*
X128270000Y-63627000D01*
X128270000Y-63627000D02*
X128143000Y-63754000D01*
X93091000Y-77961624D02*
X93488376Y-78359000D01*
X105410000Y-76073000D02*
X105410000Y-78613000D01*
X93091000Y-54229000D02*
X93091000Y-77961624D01*
X93488376Y-78359000D02*
X93726000Y-78359000D01*
X105410000Y-78613000D02*
X105918000Y-79121000D01*
X124460000Y-74645000D02*
X125603000Y-73502000D01*
X125603000Y-73502000D02*
X125603000Y-53975000D01*
X143256000Y-85344000D02*
X143256000Y-62924000D01*
X147193000Y-57531000D02*
X147193000Y-73787000D01*
X144907000Y-88519000D02*
X144907000Y-56515000D01*
X146304000Y-59944000D02*
X146304000Y-71374000D01*
X142367000Y-65151000D02*
X142367000Y-82550000D01*
X145669000Y-89154000D02*
X145542000Y-89281000D01*
X145669000Y-58674000D02*
X145669000Y-89154000D01*
X123571000Y-65024000D02*
X123444000Y-65151000D01*
X123571000Y-58674000D02*
X123571000Y-65024000D01*
X143891000Y-61341000D02*
X143891000Y-86868000D01*
X126492000Y-75153000D02*
X126492000Y-48387000D01*
X124460000Y-77185000D02*
X126492000Y-75153000D01*
X138684000Y-70104000D02*
X138684000Y-78740000D01*
X153543000Y-78994000D02*
X153543000Y-72517000D01*
X153543000Y-72517000D02*
X156845000Y-69215000D01*
X153543000Y-78994000D02*
X153543000Y-92583000D01*
X157946000Y-70146000D02*
X157946000Y-61172000D01*
X154917000Y-81430000D02*
X154917000Y-94084000D01*
X154917000Y-73175000D02*
X157946000Y-70146000D01*
X154940000Y-94107000D02*
X154917000Y-94084000D01*
X157946000Y-61172000D02*
X157861000Y-61087000D01*
X154917000Y-81430000D02*
X154917000Y-73175000D01*
X165227000Y-86233000D02*
X165354000Y-86360000D01*
X165227000Y-84074000D02*
X165227000Y-86233000D01*
G04 #@! TA.AperFunction,Conductor*
G36*
X79107687Y-71019272D02*
G01*
X79109701Y-71019673D01*
X79171610Y-71052063D01*
X79206179Y-71112782D01*
X79209500Y-71141288D01*
X79209500Y-71198846D01*
X79240261Y-71353489D01*
X79240264Y-71353501D01*
X79300602Y-71499172D01*
X79300609Y-71499185D01*
X79388210Y-71630288D01*
X79388213Y-71630292D01*
X79499707Y-71741786D01*
X79499711Y-71741789D01*
X79630814Y-71829390D01*
X79630827Y-71829397D01*
X79733563Y-71871951D01*
X79776503Y-71889737D01*
X79834767Y-71901326D01*
X79937132Y-71921689D01*
X79936672Y-71924000D01*
X79991771Y-71946231D01*
X80032145Y-72003255D01*
X80035280Y-72073055D01*
X80029417Y-72090945D01*
X80002263Y-72156502D01*
X80002261Y-72156510D01*
X79971500Y-72311153D01*
X79971500Y-72468846D01*
X80002261Y-72623489D01*
X80002264Y-72623501D01*
X80062602Y-72769172D01*
X80062609Y-72769185D01*
X80150210Y-72900288D01*
X80150213Y-72900292D01*
X80261707Y-73011786D01*
X80261711Y-73011789D01*
X80392814Y-73099390D01*
X80392827Y-73099397D01*
X80462901Y-73128422D01*
X80538503Y-73159737D01*
X80538620Y-73159760D01*
X80538675Y-73159788D01*
X80544338Y-73161507D01*
X80544012Y-73162580D01*
X80600532Y-73192139D01*
X80635112Y-73252852D01*
X80636055Y-73305570D01*
X80606500Y-73454153D01*
X80606500Y-73611846D01*
X80637261Y-73766489D01*
X80637264Y-73766501D01*
X80697602Y-73912172D01*
X80697609Y-73912185D01*
X80785210Y-74043288D01*
X80785213Y-74043292D01*
X80896707Y-74154786D01*
X80896711Y-74154789D01*
X81027814Y-74242390D01*
X81027827Y-74242397D01*
X81173498Y-74302735D01*
X81173503Y-74302737D01*
X81328153Y-74333499D01*
X81328156Y-74333500D01*
X81328158Y-74333500D01*
X81485843Y-74333500D01*
X81499188Y-74330845D01*
X81566116Y-74317532D01*
X81635705Y-74323758D01*
X81690624Y-74366264D01*
X81793028Y-74507212D01*
X81793032Y-74507217D01*
X81937786Y-74651971D01*
X82071694Y-74749259D01*
X82103390Y-74772287D01*
X82194840Y-74818883D01*
X82196080Y-74819515D01*
X82246876Y-74867490D01*
X82263671Y-74935311D01*
X82241134Y-75001446D01*
X82196080Y-75040485D01*
X82103386Y-75087715D01*
X81937786Y-75208028D01*
X81793028Y-75352786D01*
X81672715Y-75518386D01*
X81579781Y-75700776D01*
X81516522Y-75895465D01*
X81484500Y-76097648D01*
X81484500Y-76302351D01*
X81516522Y-76504534D01*
X81579781Y-76699223D01*
X81627484Y-76792844D01*
X81672133Y-76880472D01*
X81672715Y-76881613D01*
X81793028Y-77047213D01*
X81937786Y-77191971D01*
X82086078Y-77299709D01*
X82103390Y-77312287D01*
X82174001Y-77348265D01*
X82196080Y-77359515D01*
X82246876Y-77407490D01*
X82263671Y-77475311D01*
X82241134Y-77541446D01*
X82196080Y-77580485D01*
X82103386Y-77627715D01*
X81937786Y-77748028D01*
X81793028Y-77892786D01*
X81672715Y-78058386D01*
X81579781Y-78240776D01*
X81516522Y-78435465D01*
X81484500Y-78637648D01*
X81484500Y-78842352D01*
X81488116Y-78865185D01*
X81516522Y-79044534D01*
X81579781Y-79239223D01*
X81619408Y-79316994D01*
X81672133Y-79420472D01*
X81672715Y-79421613D01*
X81793028Y-79587213D01*
X81937786Y-79731971D01*
X82074775Y-79831497D01*
X82103390Y-79852287D01*
X82194840Y-79898883D01*
X82196080Y-79899515D01*
X82246876Y-79947490D01*
X82263671Y-80015311D01*
X82241134Y-80081446D01*
X82196080Y-80120485D01*
X82103386Y-80167715D01*
X81937786Y-80288028D01*
X81793028Y-80432786D01*
X81672715Y-80598386D01*
X81579781Y-80780776D01*
X81516522Y-80975465D01*
X81486663Y-81163989D01*
X81484500Y-81177648D01*
X81484500Y-81382352D01*
X81487355Y-81400378D01*
X81516522Y-81584534D01*
X81579781Y-81779223D01*
X81642231Y-81901786D01*
X81672130Y-81960466D01*
X81672715Y-81961613D01*
X81793028Y-82127213D01*
X81937786Y-82271971D01*
X82092749Y-82384556D01*
X82103390Y-82392287D01*
X82175424Y-82428990D01*
X82196629Y-82439795D01*
X82247425Y-82487770D01*
X82264220Y-82555591D01*
X82241682Y-82621726D01*
X82196629Y-82660765D01*
X82103650Y-82708140D01*
X81938105Y-82828417D01*
X81938104Y-82828417D01*
X81793417Y-82973104D01*
X81793417Y-82973105D01*
X81673140Y-83138650D01*
X81580244Y-83320970D01*
X81517009Y-83515586D01*
X81508391Y-83570000D01*
X82869314Y-83570000D01*
X82864920Y-83574394D01*
X82812259Y-83665606D01*
X82785000Y-83767339D01*
X82785000Y-83872661D01*
X82812259Y-83974394D01*
X82864920Y-84065606D01*
X82869314Y-84070000D01*
X81508391Y-84070000D01*
X81517009Y-84124413D01*
X81580244Y-84319029D01*
X81673140Y-84501349D01*
X81793417Y-84666894D01*
X81793417Y-84666895D01*
X81938104Y-84811582D01*
X82060050Y-84900182D01*
X82102715Y-84955512D01*
X82108694Y-85025126D01*
X82076088Y-85086921D01*
X82015249Y-85121278D01*
X81987164Y-85124500D01*
X80185097Y-85124500D01*
X80118058Y-85104815D01*
X80097416Y-85088181D01*
X77287804Y-82278569D01*
X77254319Y-82217246D01*
X77259303Y-82147554D01*
X77301175Y-82091621D01*
X77351294Y-82069271D01*
X77372423Y-82065068D01*
X77449497Y-82049737D01*
X77595179Y-81989394D01*
X77726289Y-81901789D01*
X77837789Y-81790289D01*
X77925394Y-81659179D01*
X77931442Y-81644579D01*
X77956313Y-81584534D01*
X77985737Y-81513497D01*
X78016500Y-81358842D01*
X78016500Y-81201158D01*
X78016500Y-81201155D01*
X78016499Y-81201153D01*
X78013082Y-81183977D01*
X77985737Y-81046503D01*
X77963773Y-80993477D01*
X77925397Y-80900827D01*
X77925390Y-80900814D01*
X77837398Y-80769125D01*
X77816520Y-80702447D01*
X77816500Y-80700234D01*
X77816500Y-77124500D01*
X77836185Y-77057461D01*
X77888989Y-77011706D01*
X77940500Y-77000500D01*
X78024844Y-77000500D01*
X78024845Y-77000499D01*
X78179497Y-76969737D01*
X78292166Y-76923067D01*
X78325172Y-76909397D01*
X78325172Y-76909396D01*
X78325179Y-76909394D01*
X78456289Y-76821789D01*
X78567789Y-76710289D01*
X78655394Y-76579179D01*
X78663115Y-76560540D01*
X78669067Y-76546166D01*
X78715737Y-76433497D01*
X78746500Y-76278842D01*
X78746500Y-76121158D01*
X78746500Y-76121155D01*
X78746499Y-76121153D01*
X78742059Y-76098832D01*
X78715737Y-75966503D01*
X78686313Y-75895466D01*
X78655397Y-75820827D01*
X78655390Y-75820814D01*
X78567789Y-75689711D01*
X78567786Y-75689707D01*
X78487819Y-75609740D01*
X78454334Y-75548417D01*
X78451500Y-75522059D01*
X78451500Y-75092500D01*
X78471185Y-75025461D01*
X78523989Y-74979706D01*
X78575500Y-74968500D01*
X78659844Y-74968500D01*
X78659845Y-74968499D01*
X78814497Y-74937737D01*
X78960179Y-74877394D01*
X79091289Y-74789789D01*
X79202789Y-74678289D01*
X79290394Y-74547179D01*
X79350737Y-74401497D01*
X79381500Y-74246842D01*
X79381500Y-74089158D01*
X79381500Y-74089155D01*
X79381499Y-74089153D01*
X79365451Y-74008477D01*
X79350737Y-73934503D01*
X79318533Y-73856755D01*
X79290397Y-73788827D01*
X79290390Y-73788814D01*
X79202789Y-73657711D01*
X79202786Y-73657707D01*
X79091292Y-73546213D01*
X79091284Y-73546207D01*
X79014610Y-73494975D01*
X78969804Y-73441363D01*
X78959500Y-73391873D01*
X78959500Y-71140890D01*
X78979185Y-71073851D01*
X79031989Y-71028096D01*
X79101147Y-71018152D01*
X79107687Y-71019272D01*
G37*
G04 #@! TD.AperFunction*
G04 #@! TA.AperFunction,Conductor*
G36*
X86289362Y-75401054D02*
G01*
X86326082Y-75460497D01*
X86330500Y-75493303D01*
X86330500Y-81637330D01*
X86330499Y-81637348D01*
X86330499Y-81803054D01*
X86330498Y-81803054D01*
X86347794Y-81867602D01*
X86369894Y-81950080D01*
X86371423Y-81955784D01*
X86371424Y-81955788D01*
X86397867Y-82001589D01*
X86397868Y-82001589D01*
X86450477Y-82092712D01*
X86450481Y-82092717D01*
X86569349Y-82211585D01*
X86569354Y-82211589D01*
X88658284Y-84300520D01*
X88658286Y-84300521D01*
X88658290Y-84300524D01*
X88747769Y-84352184D01*
X88795216Y-84379577D01*
X88947943Y-84420501D01*
X88947945Y-84420501D01*
X89113654Y-84420501D01*
X89113670Y-84420500D01*
X89175398Y-84420500D01*
X89242437Y-84440185D01*
X89285882Y-84488204D01*
X89291821Y-84499859D01*
X89292715Y-84501614D01*
X89413028Y-84667213D01*
X89413034Y-84667219D01*
X89557781Y-84811966D01*
X89586904Y-84833125D01*
X89679200Y-84900181D01*
X89721866Y-84955511D01*
X89727845Y-85025125D01*
X89695240Y-85086920D01*
X89634401Y-85121277D01*
X89606315Y-85124500D01*
X84382836Y-85124500D01*
X84315797Y-85104815D01*
X84270042Y-85052011D01*
X84260098Y-84982853D01*
X84289123Y-84919297D01*
X84309950Y-84900182D01*
X84431894Y-84811582D01*
X84431895Y-84811582D01*
X84576582Y-84666895D01*
X84576582Y-84666894D01*
X84696859Y-84501349D01*
X84789755Y-84319029D01*
X84852990Y-84124413D01*
X84861609Y-84070000D01*
X83500686Y-84070000D01*
X83505080Y-84065606D01*
X83557741Y-83974394D01*
X83585000Y-83872661D01*
X83585000Y-83767339D01*
X83557741Y-83665606D01*
X83505080Y-83574394D01*
X83500686Y-83570000D01*
X84861609Y-83570000D01*
X84852990Y-83515586D01*
X84789755Y-83320970D01*
X84696859Y-83138650D01*
X84576582Y-82973105D01*
X84576582Y-82973104D01*
X84431895Y-82828417D01*
X84266349Y-82708140D01*
X84173370Y-82660765D01*
X84122574Y-82612790D01*
X84105779Y-82544969D01*
X84128316Y-82478835D01*
X84173370Y-82439795D01*
X84173920Y-82439515D01*
X84266610Y-82392287D01*
X84370919Y-82316503D01*
X84432213Y-82271971D01*
X84432215Y-82271968D01*
X84432219Y-82271966D01*
X84576966Y-82127219D01*
X84576968Y-82127215D01*
X84576971Y-82127213D01*
X84633259Y-82049738D01*
X84697287Y-81961610D01*
X84790220Y-81779219D01*
X84853477Y-81584534D01*
X84885500Y-81382352D01*
X84885500Y-81177648D01*
X84881885Y-81154827D01*
X84853477Y-80975465D01*
X84808579Y-80837284D01*
X84790220Y-80780781D01*
X84790218Y-80780778D01*
X84790218Y-80780776D01*
X84749179Y-80700234D01*
X84697287Y-80598390D01*
X84678273Y-80572219D01*
X84576971Y-80432786D01*
X84432213Y-80288028D01*
X84266614Y-80167715D01*
X84260006Y-80164348D01*
X84173917Y-80120483D01*
X84123123Y-80072511D01*
X84106328Y-80004690D01*
X84128865Y-79938555D01*
X84173917Y-79899516D01*
X84266610Y-79852287D01*
X84295225Y-79831497D01*
X84432213Y-79731971D01*
X84432215Y-79731968D01*
X84432219Y-79731966D01*
X84576966Y-79587219D01*
X84576968Y-79587215D01*
X84576971Y-79587213D01*
X84633259Y-79509738D01*
X84697287Y-79421610D01*
X84790220Y-79239219D01*
X84853477Y-79044534D01*
X84885500Y-78842352D01*
X84885500Y-78637648D01*
X84881885Y-78614827D01*
X84853477Y-78435465D01*
X84815784Y-78319459D01*
X84790220Y-78240781D01*
X84790218Y-78240778D01*
X84790218Y-78240776D01*
X84737827Y-78137954D01*
X84697287Y-78058390D01*
X84678273Y-78032219D01*
X84576971Y-77892786D01*
X84432213Y-77748028D01*
X84266614Y-77627715D01*
X84257547Y-77623095D01*
X84173917Y-77580483D01*
X84123123Y-77532511D01*
X84106328Y-77464690D01*
X84128865Y-77398555D01*
X84173917Y-77359516D01*
X84266610Y-77312287D01*
X84304516Y-77284747D01*
X84432213Y-77191971D01*
X84432215Y-77191968D01*
X84432219Y-77191966D01*
X84576966Y-77047219D01*
X84576968Y-77047215D01*
X84576971Y-77047213D01*
X84633259Y-76969738D01*
X84697287Y-76881610D01*
X84790220Y-76699219D01*
X84853477Y-76504534D01*
X84885500Y-76302352D01*
X84885500Y-76097648D01*
X84874070Y-76025485D01*
X84853477Y-75895465D01*
X84835296Y-75839510D01*
X84791604Y-75705043D01*
X84789610Y-75635207D01*
X84825690Y-75575374D01*
X84888390Y-75544545D01*
X84957805Y-75552509D01*
X84978427Y-75563627D01*
X85091814Y-75639390D01*
X85091827Y-75639397D01*
X85223220Y-75693821D01*
X85237503Y-75699737D01*
X85392153Y-75730499D01*
X85392156Y-75730500D01*
X85392158Y-75730500D01*
X85549844Y-75730500D01*
X85549845Y-75730499D01*
X85704497Y-75699737D01*
X85850179Y-75639394D01*
X85981289Y-75551789D01*
X86092789Y-75440289D01*
X86103398Y-75424412D01*
X86157010Y-75379607D01*
X86226335Y-75370900D01*
X86289362Y-75401054D01*
G37*
G04 #@! TD.AperFunction*
G04 #@! TA.AperFunction,Conductor*
G36*
X73674075Y-77247007D02*
G01*
X73640000Y-77374174D01*
X73640000Y-77505826D01*
X73674075Y-77632993D01*
X73706988Y-77690000D01*
X72033012Y-77690000D01*
X72065925Y-77632993D01*
X72100000Y-77505826D01*
X72100000Y-77374174D01*
X72065925Y-77247007D01*
X72033012Y-77190000D01*
X73706988Y-77190000D01*
X73674075Y-77247007D01*
G37*
G04 #@! TD.AperFunction*
G04 #@! TA.AperFunction,Conductor*
G36*
X72941719Y-52693445D02*
G01*
X72980763Y-52738500D01*
X72985377Y-52747555D01*
X73110272Y-52919459D01*
X73110276Y-52919464D01*
X73260535Y-53069723D01*
X73260540Y-53069727D01*
X73432444Y-53194622D01*
X73441495Y-53199234D01*
X73492292Y-53247208D01*
X73509087Y-53315029D01*
X73486550Y-53381164D01*
X73441499Y-53420202D01*
X73432182Y-53424949D01*
X73260213Y-53549890D01*
X73109890Y-53700213D01*
X72984949Y-53872182D01*
X72980484Y-53880946D01*
X72932509Y-53931742D01*
X72864688Y-53948536D01*
X72798553Y-53925998D01*
X72759516Y-53880946D01*
X72755050Y-53872182D01*
X72630109Y-53700213D01*
X72479786Y-53549890D01*
X72307820Y-53424951D01*
X72307115Y-53424591D01*
X72299054Y-53420485D01*
X72248259Y-53372512D01*
X72231463Y-53304692D01*
X72253999Y-53238556D01*
X72299054Y-53199515D01*
X72307816Y-53195051D01*
X72340347Y-53171416D01*
X72479786Y-53070109D01*
X72479788Y-53070106D01*
X72479792Y-53070104D01*
X72630104Y-52919792D01*
X72630106Y-52919788D01*
X72630109Y-52919786D01*
X72720125Y-52795888D01*
X72755051Y-52747816D01*
X72759793Y-52738508D01*
X72807763Y-52687711D01*
X72875583Y-52670911D01*
X72941719Y-52693445D01*
G37*
G04 #@! TD.AperFunction*
G04 #@! TA.AperFunction,Conductor*
G36*
X74390000Y-51606988D02*
G01*
X74332993Y-51574075D01*
X74205826Y-51540000D01*
X74074174Y-51540000D01*
X73947007Y-51574075D01*
X73890000Y-51606988D01*
X73890000Y-49933012D01*
X73947007Y-49965925D01*
X74074174Y-50000000D01*
X74205826Y-50000000D01*
X74332993Y-49965925D01*
X74390000Y-49933012D01*
X74390000Y-51606988D01*
G37*
G04 #@! TD.AperFunction*
G04 #@! TA.AperFunction,Conductor*
G36*
X131043039Y-44020185D02*
G01*
X131088794Y-44072989D01*
X131100000Y-44124500D01*
X131100000Y-55800000D01*
X144191037Y-55800000D01*
X144258076Y-55819685D01*
X144303831Y-55872489D01*
X144313775Y-55941647D01*
X144288304Y-55999451D01*
X144288595Y-55999646D01*
X144287491Y-56001297D01*
X144286888Y-56002667D01*
X144285211Y-56004709D01*
X144197609Y-56135814D01*
X144197602Y-56135827D01*
X144137264Y-56281498D01*
X144137261Y-56281510D01*
X144106500Y-56436153D01*
X144106500Y-56593846D01*
X144137261Y-56748489D01*
X144137264Y-56748501D01*
X144197602Y-56894172D01*
X144197609Y-56894185D01*
X144285602Y-57025874D01*
X144306480Y-57092551D01*
X144306500Y-57094765D01*
X144306500Y-60461072D01*
X144286815Y-60528111D01*
X144234011Y-60573866D01*
X144164853Y-60583810D01*
X144135048Y-60575633D01*
X144124501Y-60571264D01*
X144124489Y-60571261D01*
X143969845Y-60540500D01*
X143969842Y-60540500D01*
X143812158Y-60540500D01*
X143812155Y-60540500D01*
X143657510Y-60571261D01*
X143657498Y-60571264D01*
X143511827Y-60631602D01*
X143511814Y-60631609D01*
X143380711Y-60719210D01*
X143380707Y-60719213D01*
X143269213Y-60830707D01*
X143269210Y-60830711D01*
X143181609Y-60961814D01*
X143181602Y-60961827D01*
X143121264Y-61107498D01*
X143121261Y-61107510D01*
X143090500Y-61262153D01*
X143090500Y-61419846D01*
X143121261Y-61574489D01*
X143121264Y-61574501D01*
X143181602Y-61720172D01*
X143181609Y-61720185D01*
X143269602Y-61851874D01*
X143275252Y-61869920D01*
X143285477Y-61885830D01*
X143289928Y-61916789D01*
X143290480Y-61918551D01*
X143290500Y-61920765D01*
X143290500Y-61999949D01*
X143270815Y-62066988D01*
X143218011Y-62112743D01*
X143183100Y-62122154D01*
X143183132Y-62122311D01*
X143180796Y-62122775D01*
X143178662Y-62123351D01*
X143177158Y-62123499D01*
X143022510Y-62154261D01*
X143022498Y-62154264D01*
X142876827Y-62214602D01*
X142876814Y-62214609D01*
X142745711Y-62302210D01*
X142745707Y-62302213D01*
X142634213Y-62413707D01*
X142634210Y-62413711D01*
X142546609Y-62544814D01*
X142546602Y-62544827D01*
X142486264Y-62690498D01*
X142486261Y-62690510D01*
X142455500Y-62845153D01*
X142455500Y-63002846D01*
X142486261Y-63157489D01*
X142486264Y-63157501D01*
X142546602Y-63303172D01*
X142546609Y-63303185D01*
X142634602Y-63434874D01*
X142655480Y-63501551D01*
X142655500Y-63503765D01*
X142655500Y-64241109D01*
X142635815Y-64308148D01*
X142583011Y-64353903D01*
X142513853Y-64363847D01*
X142507309Y-64362726D01*
X142445845Y-64350500D01*
X142445842Y-64350500D01*
X142288158Y-64350500D01*
X142288155Y-64350500D01*
X142133510Y-64381261D01*
X142133498Y-64381264D01*
X141987827Y-64441602D01*
X141987814Y-64441609D01*
X141856711Y-64529210D01*
X141856707Y-64529213D01*
X141745213Y-64640707D01*
X141745210Y-64640711D01*
X141657609Y-64771814D01*
X141657602Y-64771827D01*
X141597264Y-64917498D01*
X141597261Y-64917510D01*
X141566500Y-65072153D01*
X141566500Y-65229846D01*
X141597261Y-65384489D01*
X141597264Y-65384501D01*
X141657602Y-65530172D01*
X141657609Y-65530185D01*
X141745602Y-65661874D01*
X141766480Y-65728551D01*
X141766500Y-65730765D01*
X141766500Y-81970234D01*
X141746815Y-82037273D01*
X141745602Y-82039125D01*
X141657609Y-82170814D01*
X141657602Y-82170827D01*
X141597264Y-82316498D01*
X141597261Y-82316510D01*
X141566500Y-82471153D01*
X141566500Y-82628846D01*
X141597261Y-82783489D01*
X141597264Y-82783501D01*
X141657602Y-82929172D01*
X141657609Y-82929185D01*
X141745210Y-83060288D01*
X141745213Y-83060292D01*
X141856707Y-83171786D01*
X141856711Y-83171789D01*
X141987814Y-83259390D01*
X141987827Y-83259397D01*
X142133498Y-83319735D01*
X142133503Y-83319737D01*
X142287479Y-83350365D01*
X142288153Y-83350499D01*
X142288156Y-83350500D01*
X142288158Y-83350500D01*
X142445843Y-83350500D01*
X142458477Y-83347986D01*
X142507309Y-83338273D01*
X142576898Y-83344499D01*
X142632076Y-83387362D01*
X142655322Y-83453251D01*
X142655500Y-83459890D01*
X142655500Y-84764234D01*
X142635815Y-84831273D01*
X142634602Y-84833125D01*
X142546609Y-84964814D01*
X142546602Y-84964827D01*
X142486264Y-85110498D01*
X142486261Y-85110510D01*
X142455500Y-85265153D01*
X142455500Y-85422846D01*
X142486261Y-85577489D01*
X142486264Y-85577501D01*
X142546602Y-85723172D01*
X142546609Y-85723185D01*
X142634210Y-85854288D01*
X142634213Y-85854292D01*
X142745707Y-85965786D01*
X142745711Y-85965789D01*
X142876814Y-86053390D01*
X142876827Y-86053397D01*
X143022498Y-86113735D01*
X143022503Y-86113737D01*
X143086672Y-86126501D01*
X143177146Y-86144498D01*
X143177149Y-86144498D01*
X143177158Y-86144500D01*
X143177166Y-86144500D01*
X143178646Y-86144646D01*
X143179381Y-86144942D01*
X143182457Y-86145554D01*
X143184147Y-86145312D01*
X143213507Y-86158720D01*
X143243435Y-86170803D01*
X143245092Y-86173144D01*
X143247703Y-86174337D01*
X143265153Y-86201490D01*
X143283798Y-86227835D01*
X143284398Y-86231436D01*
X143285477Y-86233115D01*
X143290500Y-86268050D01*
X143290500Y-86288234D01*
X143270815Y-86355273D01*
X143269602Y-86357125D01*
X143181609Y-86488814D01*
X143181602Y-86488827D01*
X143121264Y-86634498D01*
X143121261Y-86634510D01*
X143090500Y-86789153D01*
X143090500Y-86946846D01*
X143121261Y-87101489D01*
X143121264Y-87101501D01*
X143181602Y-87247172D01*
X143181609Y-87247185D01*
X143269210Y-87378288D01*
X143269213Y-87378292D01*
X143380707Y-87489786D01*
X143380711Y-87489789D01*
X143511814Y-87577390D01*
X143511827Y-87577397D01*
X143638481Y-87629858D01*
X143657503Y-87637737D01*
X143788746Y-87663843D01*
X143812153Y-87668499D01*
X143812156Y-87668500D01*
X143812158Y-87668500D01*
X143969844Y-87668500D01*
X143969845Y-87668499D01*
X144124497Y-87637737D01*
X144135045Y-87633367D01*
X144167675Y-87629858D01*
X144200147Y-87625189D01*
X144202231Y-87626141D01*
X144204511Y-87625896D01*
X144233857Y-87640584D01*
X144263703Y-87654214D01*
X144264942Y-87656141D01*
X144266992Y-87657168D01*
X144283737Y-87685388D01*
X144301477Y-87712992D01*
X144301911Y-87716017D01*
X144302647Y-87717256D01*
X144306500Y-87747927D01*
X144306500Y-87939234D01*
X144286815Y-88006273D01*
X144285602Y-88008125D01*
X144197609Y-88139814D01*
X144197602Y-88139827D01*
X144137264Y-88285498D01*
X144137261Y-88285510D01*
X144106500Y-88440153D01*
X144106500Y-88597846D01*
X144137261Y-88752489D01*
X144137264Y-88752501D01*
X144197602Y-88898172D01*
X144197609Y-88898185D01*
X144285210Y-89029288D01*
X144285213Y-89029292D01*
X144396707Y-89140786D01*
X144396711Y-89140789D01*
X144527814Y-89228390D01*
X144527827Y-89228397D01*
X144670956Y-89287682D01*
X144725360Y-89331522D01*
X144745121Y-89378051D01*
X144772261Y-89514491D01*
X144772264Y-89514501D01*
X144832602Y-89660172D01*
X144832609Y-89660185D01*
X144920210Y-89791288D01*
X144920213Y-89791292D01*
X145031707Y-89902786D01*
X145031711Y-89902789D01*
X145162814Y-89990390D01*
X145162827Y-89990397D01*
X145308498Y-90050735D01*
X145308503Y-90050737D01*
X145463153Y-90081499D01*
X145463156Y-90081500D01*
X145463158Y-90081500D01*
X145620844Y-90081500D01*
X145620845Y-90081499D01*
X145775497Y-90050737D01*
X145921179Y-89990394D01*
X146052289Y-89902789D01*
X146163789Y-89791289D01*
X146251394Y-89660179D01*
X146311737Y-89514497D01*
X146342500Y-89359842D01*
X146342500Y-89202158D01*
X146342500Y-89202155D01*
X146342499Y-89202153D01*
X146311739Y-89047511D01*
X146311736Y-89047501D01*
X146304192Y-89029289D01*
X146278938Y-88968320D01*
X146269500Y-88920869D01*
X146269500Y-78915153D01*
X152742500Y-78915153D01*
X152742500Y-79072846D01*
X152773261Y-79227489D01*
X152773264Y-79227501D01*
X152833602Y-79373172D01*
X152833609Y-79373185D01*
X152921602Y-79504874D01*
X152942480Y-79571551D01*
X152942500Y-79573765D01*
X152942500Y-92003234D01*
X152922815Y-92070273D01*
X152921602Y-92072125D01*
X152833609Y-92203814D01*
X152833602Y-92203827D01*
X152773264Y-92349498D01*
X152773261Y-92349510D01*
X152742500Y-92504153D01*
X152742500Y-92661846D01*
X152773261Y-92816489D01*
X152773264Y-92816501D01*
X152833602Y-92962172D01*
X152833609Y-92962185D01*
X152921210Y-93093288D01*
X152921213Y-93093292D01*
X153032707Y-93204786D01*
X153032711Y-93204789D01*
X153163814Y-93292390D01*
X153163827Y-93292397D01*
X153221581Y-93316319D01*
X153309503Y-93352737D01*
X153464153Y-93383499D01*
X153464156Y-93383500D01*
X153464158Y-93383500D01*
X153621844Y-93383500D01*
X153621845Y-93383499D01*
X153776497Y-93352737D01*
X153922179Y-93292394D01*
X154053289Y-93204789D01*
X154053292Y-93204786D01*
X154104819Y-93153260D01*
X154166142Y-93119775D01*
X154235834Y-93124759D01*
X154291767Y-93166631D01*
X154316184Y-93232095D01*
X154316500Y-93240941D01*
X154316500Y-93504234D01*
X154296815Y-93571273D01*
X154295602Y-93573125D01*
X154207609Y-93704814D01*
X154207602Y-93704827D01*
X154147264Y-93850498D01*
X154147261Y-93850510D01*
X154116500Y-94005153D01*
X154116500Y-94162846D01*
X154147261Y-94317489D01*
X154147264Y-94317501D01*
X154207602Y-94463172D01*
X154207609Y-94463185D01*
X154295210Y-94594288D01*
X154295213Y-94594292D01*
X154406707Y-94705786D01*
X154406711Y-94705789D01*
X154537814Y-94793390D01*
X154537827Y-94793397D01*
X154664568Y-94845894D01*
X154683503Y-94853737D01*
X154818044Y-94880499D01*
X154838153Y-94884499D01*
X154838156Y-94884500D01*
X154838158Y-94884500D01*
X154995844Y-94884500D01*
X154995845Y-94884499D01*
X155150497Y-94853737D01*
X155296179Y-94793394D01*
X155427289Y-94705789D01*
X155538789Y-94594289D01*
X155626394Y-94463179D01*
X155686737Y-94317497D01*
X155717500Y-94162842D01*
X155717500Y-94005158D01*
X155717500Y-94005155D01*
X155717499Y-94005153D01*
X155686738Y-93850510D01*
X155686737Y-93850503D01*
X155686735Y-93850498D01*
X155626397Y-93704827D01*
X155626390Y-93704814D01*
X155538398Y-93573125D01*
X155517520Y-93506447D01*
X155517500Y-93504234D01*
X155517500Y-82009765D01*
X155537185Y-81942726D01*
X155538398Y-81940874D01*
X155541694Y-81935942D01*
X155626394Y-81809179D01*
X155686737Y-81663497D01*
X155703875Y-81577339D01*
X155713760Y-81527648D01*
X158124500Y-81527648D01*
X158124500Y-81732351D01*
X158156522Y-81934534D01*
X158219781Y-82129223D01*
X158261750Y-82211590D01*
X158312585Y-82311359D01*
X158312715Y-82311613D01*
X158433028Y-82477213D01*
X158577784Y-82621969D01*
X158673385Y-82691426D01*
X158716051Y-82746755D01*
X158724500Y-82791744D01*
X158724500Y-84425638D01*
X158704815Y-84492677D01*
X158688181Y-84513319D01*
X158685538Y-84515961D01*
X158685535Y-84515965D01*
X158586990Y-84663446D01*
X158586983Y-84663459D01*
X158519106Y-84827332D01*
X158519103Y-84827341D01*
X158484500Y-85001304D01*
X158484500Y-85178695D01*
X158519103Y-85352658D01*
X158519106Y-85352667D01*
X158586984Y-85516542D01*
X158586985Y-85516543D01*
X158586987Y-85516547D01*
X158628326Y-85578414D01*
X158663602Y-85631208D01*
X158684480Y-85697885D01*
X158684500Y-85700099D01*
X158684500Y-93599977D01*
X158675061Y-93647429D01*
X158646106Y-93717332D01*
X158646103Y-93717341D01*
X158611500Y-93891304D01*
X158611500Y-94068695D01*
X158646103Y-94242658D01*
X158646106Y-94242667D01*
X158713983Y-94406540D01*
X158713990Y-94406553D01*
X158812535Y-94554034D01*
X158812538Y-94554038D01*
X158937961Y-94679461D01*
X158937965Y-94679464D01*
X159085446Y-94778009D01*
X159085459Y-94778016D01*
X159208363Y-94828923D01*
X159249334Y-94845894D01*
X159249336Y-94845894D01*
X159249341Y-94845896D01*
X159423304Y-94880499D01*
X159423307Y-94880500D01*
X159423309Y-94880500D01*
X159600693Y-94880500D01*
X159600694Y-94880499D01*
X159658682Y-94868964D01*
X159774658Y-94845896D01*
X159774661Y-94845894D01*
X159774666Y-94845894D01*
X159938547Y-94778013D01*
X160086035Y-94679464D01*
X160211464Y-94554035D01*
X160310013Y-94406547D01*
X160377894Y-94242666D01*
X160412500Y-94068691D01*
X160412500Y-93891309D01*
X160412500Y-93891306D01*
X160412499Y-93891304D01*
X160377896Y-93717341D01*
X160377893Y-93717332D01*
X160310016Y-93553459D01*
X160310009Y-93553446D01*
X160211464Y-93405965D01*
X160211461Y-93405961D01*
X160121819Y-93316319D01*
X160088334Y-93254996D01*
X160085500Y-93228638D01*
X160085500Y-85700099D01*
X160105185Y-85633060D01*
X160106398Y-85631208D01*
X160183013Y-85516547D01*
X160250894Y-85352666D01*
X160285500Y-85178691D01*
X160285500Y-85001309D01*
X160285500Y-85001306D01*
X160285499Y-85001304D01*
X160250896Y-84827341D01*
X160250893Y-84827332D01*
X160216276Y-84743757D01*
X160183013Y-84663453D01*
X160183012Y-84663451D01*
X160146398Y-84608654D01*
X160125520Y-84541976D01*
X160125500Y-84539763D01*
X160125500Y-83995153D01*
X164426500Y-83995153D01*
X164426500Y-84152846D01*
X164457261Y-84307489D01*
X164457264Y-84307501D01*
X164517602Y-84453172D01*
X164517609Y-84453185D01*
X164605602Y-84584874D01*
X164626480Y-84651551D01*
X164626500Y-84653765D01*
X164626500Y-85999869D01*
X164617061Y-86047321D01*
X164584263Y-86126501D01*
X164584260Y-86126511D01*
X164553500Y-86281153D01*
X164553500Y-86438846D01*
X164584261Y-86593489D01*
X164584264Y-86593501D01*
X164644602Y-86739172D01*
X164644609Y-86739185D01*
X164732210Y-86870288D01*
X164732213Y-86870292D01*
X164843707Y-86981786D01*
X164843711Y-86981789D01*
X164974814Y-87069390D01*
X164974827Y-87069397D01*
X165120498Y-87129735D01*
X165120503Y-87129737D01*
X165275153Y-87160499D01*
X165275156Y-87160500D01*
X165275158Y-87160500D01*
X165432844Y-87160500D01*
X165432845Y-87160499D01*
X165587497Y-87129737D01*
X165733179Y-87069394D01*
X165864289Y-86981789D01*
X165975789Y-86870289D01*
X166063394Y-86739179D01*
X166123737Y-86593497D01*
X166154500Y-86438842D01*
X166154500Y-86281158D01*
X166154500Y-86281155D01*
X166154499Y-86281153D01*
X166146368Y-86240274D01*
X166123737Y-86126503D01*
X166108660Y-86090104D01*
X166063397Y-85980827D01*
X166063390Y-85980814D01*
X165975789Y-85849711D01*
X165975786Y-85849707D01*
X165863819Y-85737740D01*
X165830334Y-85676417D01*
X165827500Y-85650059D01*
X165827500Y-84653765D01*
X165847185Y-84586726D01*
X165848398Y-84584874D01*
X165936390Y-84453185D01*
X165936390Y-84453184D01*
X165936394Y-84453179D01*
X165945211Y-84431894D01*
X165978229Y-84352179D01*
X165996737Y-84307497D01*
X166027500Y-84152842D01*
X166027500Y-83995158D01*
X166027500Y-83995155D01*
X166027499Y-83995153D01*
X166008668Y-83900484D01*
X165996737Y-83840503D01*
X165996735Y-83840498D01*
X165936397Y-83694827D01*
X165936390Y-83694814D01*
X165848789Y-83563711D01*
X165848786Y-83563707D01*
X165737292Y-83452213D01*
X165737288Y-83452210D01*
X165606185Y-83364609D01*
X165606172Y-83364602D01*
X165460501Y-83304264D01*
X165460489Y-83304261D01*
X165305845Y-83273500D01*
X165305842Y-83273500D01*
X165148158Y-83273500D01*
X165148155Y-83273500D01*
X164993510Y-83304261D01*
X164993498Y-83304264D01*
X164847827Y-83364602D01*
X164847814Y-83364609D01*
X164716711Y-83452210D01*
X164716707Y-83452213D01*
X164605213Y-83563707D01*
X164605210Y-83563711D01*
X164517609Y-83694814D01*
X164517602Y-83694827D01*
X164457264Y-83840498D01*
X164457261Y-83840510D01*
X164426500Y-83995153D01*
X160125500Y-83995153D01*
X160125500Y-82791744D01*
X160125985Y-82790091D01*
X160125544Y-82788424D01*
X160135795Y-82756681D01*
X160145185Y-82724705D01*
X160146656Y-82723051D01*
X160147017Y-82721936D01*
X160154700Y-82714015D01*
X160170835Y-82695891D01*
X160173663Y-82693569D01*
X160272219Y-82621966D01*
X160416966Y-82477219D01*
X160416968Y-82477215D01*
X160416971Y-82477213D01*
X160496789Y-82367351D01*
X160537287Y-82311610D01*
X160630220Y-82129219D01*
X160693477Y-81934534D01*
X160725500Y-81732352D01*
X160725500Y-81527648D01*
X160707013Y-81410929D01*
X160707714Y-81405504D01*
X160705802Y-81400378D01*
X160712143Y-81371227D01*
X160715967Y-81341637D01*
X160719799Y-81336031D01*
X160720654Y-81332105D01*
X160741805Y-81303851D01*
X160917838Y-81127819D01*
X160979161Y-81094334D01*
X161005519Y-81091500D01*
X163062396Y-81091500D01*
X163129435Y-81111185D01*
X163175190Y-81163989D01*
X163185134Y-81233147D01*
X163180327Y-81253818D01*
X163157010Y-81325578D01*
X163157010Y-81325581D01*
X163125000Y-81527682D01*
X163125000Y-81732317D01*
X163157009Y-81934417D01*
X163220244Y-82129031D01*
X163313141Y-82311350D01*
X163313147Y-82311359D01*
X163345523Y-82355921D01*
X163345524Y-82355922D01*
X164025000Y-81676446D01*
X164025000Y-81682661D01*
X164052259Y-81784394D01*
X164104920Y-81875606D01*
X164179394Y-81950080D01*
X164270606Y-82002741D01*
X164372339Y-82030000D01*
X164378553Y-82030000D01*
X163699076Y-82709474D01*
X163743650Y-82741859D01*
X163925968Y-82834755D01*
X164120582Y-82897990D01*
X164322683Y-82930000D01*
X164527317Y-82930000D01*
X164729417Y-82897990D01*
X164924031Y-82834755D01*
X165106349Y-82741859D01*
X165150921Y-82709474D01*
X164471447Y-82030000D01*
X164477661Y-82030000D01*
X164579394Y-82002741D01*
X164670606Y-81950080D01*
X164745080Y-81875606D01*
X164797741Y-81784394D01*
X164825000Y-81682661D01*
X164825000Y-81676447D01*
X165504474Y-82355921D01*
X165536859Y-82311349D01*
X165629755Y-82129031D01*
X165692990Y-81934417D01*
X165725000Y-81732317D01*
X165725000Y-81527682D01*
X165692989Y-81325581D01*
X165692989Y-81325578D01*
X165669673Y-81253818D01*
X165667678Y-81183977D01*
X165703759Y-81124144D01*
X165766460Y-81093316D01*
X165787604Y-81091500D01*
X165930996Y-81091500D01*
X166022040Y-81073389D01*
X166066328Y-81064580D01*
X166165005Y-81023707D01*
X166193807Y-81011777D01*
X166193808Y-81011776D01*
X166193811Y-81011775D01*
X166308543Y-80935114D01*
X167549114Y-79694543D01*
X167625775Y-79579811D01*
X167628280Y-79573765D01*
X167658757Y-79500185D01*
X167678580Y-79452328D01*
X167694325Y-79373172D01*
X167705500Y-79316996D01*
X167705500Y-70376744D01*
X167725185Y-70309705D01*
X167756615Y-70276426D01*
X167852215Y-70206969D01*
X167852215Y-70206968D01*
X167852219Y-70206966D01*
X167996966Y-70062219D01*
X167996968Y-70062215D01*
X167996971Y-70062213D01*
X168070879Y-69960485D01*
X168117287Y-69896610D01*
X168210220Y-69714219D01*
X168273477Y-69519534D01*
X168305500Y-69317352D01*
X168305500Y-69112648D01*
X168281844Y-68963292D01*
X168273477Y-68910465D01*
X168210218Y-68715776D01*
X168162154Y-68621447D01*
X168117287Y-68533390D01*
X168077448Y-68478556D01*
X167996971Y-68367786D01*
X167852217Y-68223032D01*
X167852212Y-68223028D01*
X167756615Y-68153573D01*
X167713949Y-68098243D01*
X167705500Y-68053255D01*
X167705500Y-66947744D01*
X167725185Y-66880705D01*
X167756615Y-66847426D01*
X167852215Y-66777969D01*
X167852215Y-66777968D01*
X167852219Y-66777966D01*
X167996966Y-66633219D01*
X167996968Y-66633215D01*
X167996971Y-66633213D01*
X168065260Y-66539219D01*
X168117287Y-66467610D01*
X168210220Y-66285219D01*
X168273477Y-66090534D01*
X168305500Y-65888352D01*
X168305500Y-65683648D01*
X168299302Y-65644515D01*
X168273477Y-65481465D01*
X168226830Y-65337901D01*
X168210220Y-65286781D01*
X168210218Y-65286778D01*
X168210218Y-65286776D01*
X168173729Y-65215163D01*
X168117287Y-65104390D01*
X168082578Y-65056617D01*
X167996971Y-64938786D01*
X167852213Y-64794028D01*
X167686613Y-64673715D01*
X167686612Y-64673714D01*
X167686610Y-64673713D01*
X167629653Y-64644691D01*
X167504223Y-64580781D01*
X167309534Y-64517522D01*
X167129816Y-64489058D01*
X167107352Y-64485500D01*
X166902648Y-64485500D01*
X166880184Y-64489058D01*
X166700465Y-64517522D01*
X166505776Y-64580781D01*
X166323386Y-64673715D01*
X166157786Y-64794028D01*
X166013028Y-64938786D01*
X165892715Y-65104386D01*
X165799781Y-65286776D01*
X165736522Y-65481465D01*
X165708041Y-65661289D01*
X165704500Y-65683648D01*
X165704500Y-65888352D01*
X165708358Y-65912713D01*
X165736522Y-66090534D01*
X165799781Y-66285223D01*
X165892715Y-66467613D01*
X166013028Y-66633213D01*
X166157784Y-66777969D01*
X166253385Y-66847426D01*
X166296051Y-66902755D01*
X166304500Y-66947744D01*
X166304500Y-68053255D01*
X166284815Y-68120294D01*
X166253385Y-68153573D01*
X166157787Y-68223028D01*
X166157782Y-68223032D01*
X166013028Y-68367786D01*
X165892715Y-68533386D01*
X165799781Y-68715776D01*
X165736522Y-68910465D01*
X165710497Y-69074786D01*
X165704500Y-69112648D01*
X165704500Y-69317352D01*
X165707179Y-69334264D01*
X165736522Y-69519534D01*
X165799781Y-69714223D01*
X165863691Y-69839653D01*
X165879414Y-69870510D01*
X165892715Y-69896613D01*
X166013028Y-70062213D01*
X166157784Y-70206969D01*
X166253385Y-70276426D01*
X166296051Y-70331755D01*
X166304500Y-70376744D01*
X166304500Y-78906481D01*
X166284815Y-78973520D01*
X166268181Y-78994162D01*
X165608162Y-79654181D01*
X165546839Y-79687666D01*
X165520481Y-79690500D01*
X160595004Y-79690500D01*
X160459677Y-79717418D01*
X160459667Y-79717421D01*
X160332192Y-79770222D01*
X160217454Y-79846887D01*
X159751147Y-80313194D01*
X159689824Y-80346679D01*
X159644068Y-80347986D01*
X159584308Y-80338521D01*
X159527352Y-80329500D01*
X159322648Y-80329500D01*
X159298329Y-80333351D01*
X159120465Y-80361522D01*
X158925776Y-80424781D01*
X158743386Y-80517715D01*
X158577786Y-80638028D01*
X158433028Y-80782786D01*
X158312715Y-80948386D01*
X158219781Y-81130776D01*
X158156522Y-81325465D01*
X158124500Y-81527648D01*
X155713760Y-81527648D01*
X155717500Y-81508845D01*
X155717500Y-81351155D01*
X155717499Y-81351153D01*
X155712412Y-81325578D01*
X155686737Y-81196503D01*
X155678927Y-81177648D01*
X155626397Y-81050827D01*
X155626390Y-81050814D01*
X155538398Y-80919125D01*
X155517520Y-80852447D01*
X155517500Y-80850234D01*
X155517500Y-76106538D01*
X160799500Y-76106538D01*
X160799500Y-76358462D01*
X160814344Y-76452185D01*
X160838910Y-76607285D01*
X160916760Y-76846883D01*
X160982128Y-76975174D01*
X161018837Y-77047219D01*
X161031132Y-77071348D01*
X161179201Y-77275149D01*
X161179205Y-77275154D01*
X161357345Y-77453294D01*
X161357350Y-77453298D01*
X161478676Y-77541446D01*
X161561155Y-77601370D01*
X161659394Y-77651425D01*
X161785616Y-77715739D01*
X161785618Y-77715739D01*
X161785621Y-77715741D01*
X162025215Y-77793590D01*
X162274038Y-77833000D01*
X162274039Y-77833000D01*
X162525961Y-77833000D01*
X162525962Y-77833000D01*
X162774785Y-77793590D01*
X163014379Y-77715741D01*
X163238845Y-77601370D01*
X163442656Y-77453293D01*
X163620793Y-77275156D01*
X163768870Y-77071345D01*
X163883241Y-76846879D01*
X163961090Y-76607285D01*
X164000500Y-76358462D01*
X164000500Y-76106538D01*
X163961090Y-75857715D01*
X163883241Y-75618121D01*
X163883239Y-75618118D01*
X163883239Y-75618116D01*
X163834295Y-75522059D01*
X163768870Y-75393655D01*
X163703195Y-75303261D01*
X163620798Y-75189850D01*
X163620794Y-75189845D01*
X163442654Y-75011705D01*
X163442649Y-75011701D01*
X163238848Y-74863632D01*
X163238847Y-74863631D01*
X163238845Y-74863630D01*
X163168747Y-74827913D01*
X163014383Y-74749260D01*
X162774785Y-74671410D01*
X162652059Y-74651972D01*
X162525962Y-74632000D01*
X162274038Y-74632000D01*
X162149626Y-74651705D01*
X162025214Y-74671410D01*
X161785616Y-74749260D01*
X161561151Y-74863632D01*
X161357350Y-75011701D01*
X161357345Y-75011705D01*
X161179205Y-75189845D01*
X161179201Y-75189850D01*
X161031132Y-75393651D01*
X160916760Y-75618116D01*
X160838910Y-75857714D01*
X160821678Y-75966510D01*
X160799500Y-76106538D01*
X155517500Y-76106538D01*
X155517500Y-73475096D01*
X155537185Y-73408057D01*
X155553814Y-73387420D01*
X158304506Y-70636727D01*
X158304511Y-70636724D01*
X158314714Y-70626520D01*
X158314716Y-70626520D01*
X158426520Y-70514716D01*
X158444732Y-70483172D01*
X158485740Y-70412144D01*
X158485743Y-70412135D01*
X158485749Y-70412127D01*
X158505577Y-70377785D01*
X158546501Y-70225057D01*
X158546501Y-70066943D01*
X158546501Y-70059348D01*
X158546500Y-70059330D01*
X158546500Y-61539553D01*
X158566185Y-61472514D01*
X158567399Y-61470661D01*
X158570394Y-61466179D01*
X158630737Y-61320497D01*
X158661500Y-61165842D01*
X158661500Y-61008158D01*
X158661500Y-61008155D01*
X158661499Y-61008153D01*
X158652283Y-60961821D01*
X158630737Y-60853503D01*
X158622996Y-60834814D01*
X158570397Y-60707827D01*
X158570390Y-60707814D01*
X158482789Y-60576711D01*
X158482786Y-60576707D01*
X158371292Y-60465213D01*
X158371288Y-60465210D01*
X158240185Y-60377609D01*
X158240172Y-60377602D01*
X158094501Y-60317264D01*
X158094489Y-60317261D01*
X157939845Y-60286500D01*
X157939842Y-60286500D01*
X157782158Y-60286500D01*
X157782155Y-60286500D01*
X157627510Y-60317261D01*
X157627498Y-60317264D01*
X157481827Y-60377602D01*
X157481814Y-60377609D01*
X157350711Y-60465210D01*
X157350707Y-60465213D01*
X157239213Y-60576707D01*
X157239210Y-60576711D01*
X157151609Y-60707814D01*
X157151602Y-60707827D01*
X157091264Y-60853498D01*
X157091261Y-60853510D01*
X157060500Y-61008153D01*
X157060500Y-61165846D01*
X157091261Y-61320489D01*
X157091264Y-61320501D01*
X157151602Y-61466172D01*
X157151609Y-61466185D01*
X157239209Y-61597287D01*
X157239210Y-61597288D01*
X157239211Y-61597289D01*
X157309182Y-61667260D01*
X157342666Y-61728581D01*
X157345500Y-61754940D01*
X157345500Y-64410524D01*
X157325815Y-64477563D01*
X157273011Y-64523318D01*
X157203853Y-64533262D01*
X157183183Y-64528455D01*
X157149542Y-64517524D01*
X157149535Y-64517523D01*
X157036753Y-64499660D01*
X156947352Y-64485500D01*
X156742648Y-64485500D01*
X156720184Y-64489058D01*
X156540465Y-64517522D01*
X156345776Y-64580781D01*
X156163386Y-64673715D01*
X155997786Y-64794028D01*
X155853028Y-64938786D01*
X155732715Y-65104386D01*
X155639781Y-65286776D01*
X155576522Y-65481465D01*
X155548041Y-65661289D01*
X155544500Y-65683648D01*
X155544500Y-65888352D01*
X155548358Y-65912713D01*
X155576522Y-66090534D01*
X155639781Y-66285223D01*
X155732715Y-66467613D01*
X155853028Y-66633213D01*
X155997786Y-66777971D01*
X156093385Y-66847426D01*
X156163390Y-66898287D01*
X156260455Y-66947744D01*
X156345776Y-66991218D01*
X156345778Y-66991218D01*
X156345781Y-66991220D01*
X156450137Y-67025127D01*
X156540465Y-67054477D01*
X156641557Y-67070488D01*
X156742648Y-67086500D01*
X156742649Y-67086500D01*
X156947351Y-67086500D01*
X156947352Y-67086500D01*
X157149534Y-67054477D01*
X157149539Y-67054475D01*
X157149541Y-67054475D01*
X157183180Y-67043545D01*
X157253021Y-67041548D01*
X157312854Y-67077628D01*
X157343684Y-67140328D01*
X157345500Y-67161475D01*
X157345500Y-67839524D01*
X157325815Y-67906563D01*
X157273011Y-67952318D01*
X157203853Y-67962262D01*
X157183183Y-67957455D01*
X157149542Y-67946524D01*
X157149535Y-67946523D01*
X157048443Y-67930511D01*
X156947352Y-67914500D01*
X156742648Y-67914500D01*
X156718329Y-67918351D01*
X156540465Y-67946522D01*
X156345776Y-68009781D01*
X156163386Y-68102715D01*
X155997786Y-68223028D01*
X155853028Y-68367786D01*
X155732715Y-68533386D01*
X155639781Y-68715776D01*
X155576522Y-68910465D01*
X155550497Y-69074786D01*
X155544500Y-69112648D01*
X155544500Y-69317352D01*
X155547179Y-69334264D01*
X155576522Y-69519534D01*
X155581173Y-69533848D01*
X155583165Y-69603690D01*
X155550921Y-69659842D01*
X153174286Y-72036478D01*
X153062481Y-72148282D01*
X153062479Y-72148285D01*
X153017101Y-72226884D01*
X153017100Y-72226885D01*
X153004830Y-72248138D01*
X152983423Y-72285215D01*
X152942499Y-72437943D01*
X152942499Y-72437945D01*
X152942499Y-72606046D01*
X152942500Y-72606059D01*
X152942500Y-78414234D01*
X152922815Y-78481273D01*
X152921602Y-78483125D01*
X152833609Y-78614814D01*
X152833602Y-78614827D01*
X152773264Y-78760498D01*
X152773261Y-78760510D01*
X152742500Y-78915153D01*
X146269500Y-78915153D01*
X146269500Y-74254520D01*
X146289185Y-74187481D01*
X146341989Y-74141726D01*
X146411147Y-74131782D01*
X146474703Y-74160807D01*
X146496602Y-74185629D01*
X146571210Y-74297289D01*
X146682707Y-74408786D01*
X146682711Y-74408789D01*
X146813814Y-74496390D01*
X146813827Y-74496397D01*
X146936442Y-74547185D01*
X146959503Y-74556737D01*
X147114153Y-74587499D01*
X147114156Y-74587500D01*
X147114158Y-74587500D01*
X147271844Y-74587500D01*
X147271845Y-74587499D01*
X147426497Y-74556737D01*
X147572179Y-74496394D01*
X147703289Y-74408789D01*
X147814789Y-74297289D01*
X147902394Y-74166179D01*
X147962737Y-74020497D01*
X147993500Y-73865842D01*
X147993500Y-73708158D01*
X147993500Y-73708155D01*
X147993499Y-73708153D01*
X147983465Y-73657711D01*
X147962737Y-73553503D01*
X147948659Y-73519516D01*
X147902397Y-73407827D01*
X147902390Y-73407814D01*
X147814398Y-73276125D01*
X147793520Y-73209447D01*
X147793500Y-73207234D01*
X147793500Y-58110765D01*
X147813185Y-58043726D01*
X147814398Y-58041874D01*
X147902390Y-57910185D01*
X147902390Y-57910184D01*
X147902394Y-57910179D01*
X147904845Y-57904263D01*
X147924519Y-57856765D01*
X147962737Y-57764497D01*
X147993500Y-57609842D01*
X147993500Y-57452158D01*
X147993500Y-57452155D01*
X147993499Y-57452153D01*
X147978341Y-57375951D01*
X147962737Y-57297503D01*
X147962079Y-57295915D01*
X147902397Y-57151827D01*
X147902390Y-57151814D01*
X147814789Y-57020711D01*
X147814786Y-57020707D01*
X147703292Y-56909213D01*
X147703288Y-56909210D01*
X147572185Y-56821609D01*
X147572172Y-56821602D01*
X147426501Y-56761264D01*
X147426489Y-56761261D01*
X147271845Y-56730500D01*
X147271842Y-56730500D01*
X147114158Y-56730500D01*
X147114155Y-56730500D01*
X146959510Y-56761261D01*
X146959498Y-56761264D01*
X146813827Y-56821602D01*
X146813814Y-56821609D01*
X146682711Y-56909210D01*
X146682707Y-56909213D01*
X146571213Y-57020707D01*
X146571210Y-57020711D01*
X146483609Y-57151814D01*
X146483602Y-57151827D01*
X146423264Y-57297498D01*
X146423261Y-57297510D01*
X146392500Y-57452153D01*
X146392500Y-57609846D01*
X146423261Y-57764489D01*
X146423264Y-57764501D01*
X146483602Y-57910172D01*
X146483609Y-57910185D01*
X146571602Y-58041874D01*
X146577252Y-58059920D01*
X146587477Y-58075830D01*
X146591928Y-58106789D01*
X146592480Y-58108551D01*
X146592500Y-58110765D01*
X146592500Y-58206479D01*
X146572815Y-58273518D01*
X146520011Y-58319273D01*
X146450853Y-58329217D01*
X146387297Y-58300192D01*
X146365398Y-58275370D01*
X146290789Y-58163711D01*
X146290786Y-58163707D01*
X146179292Y-58052213D01*
X146179288Y-58052210D01*
X146048185Y-57964609D01*
X146048172Y-57964602D01*
X145902501Y-57904264D01*
X145902489Y-57904261D01*
X145747845Y-57873500D01*
X145747842Y-57873500D01*
X145631500Y-57873500D01*
X145564461Y-57853815D01*
X145518706Y-57801011D01*
X145507500Y-57749500D01*
X145507500Y-57094765D01*
X145527185Y-57027726D01*
X145528398Y-57025874D01*
X145531851Y-57020707D01*
X145616394Y-56894179D01*
X145676737Y-56748497D01*
X145707500Y-56593842D01*
X145707500Y-56436158D01*
X145707500Y-56436155D01*
X145707499Y-56436153D01*
X145693500Y-56365776D01*
X145676737Y-56281503D01*
X145636096Y-56183386D01*
X145616397Y-56135827D01*
X145616390Y-56135814D01*
X145528788Y-56004709D01*
X145527112Y-56002667D01*
X145526568Y-56001387D01*
X145525405Y-55999646D01*
X145525735Y-55999425D01*
X145499797Y-55938358D01*
X145511587Y-55869490D01*
X145558737Y-55817929D01*
X145622963Y-55800000D01*
X150500000Y-55800000D01*
X150500000Y-46492648D01*
X158124500Y-46492648D01*
X158124500Y-46697351D01*
X158156522Y-46899534D01*
X158219781Y-47094223D01*
X158283691Y-47219653D01*
X158312585Y-47276359D01*
X158312715Y-47276613D01*
X158433028Y-47442213D01*
X158577786Y-47586971D01*
X158702537Y-47677606D01*
X158743390Y-47707287D01*
X158821975Y-47747328D01*
X158925776Y-47800218D01*
X158925778Y-47800218D01*
X158925781Y-47800220D01*
X159013880Y-47828845D01*
X159120465Y-47863477D01*
X159204021Y-47876711D01*
X159322648Y-47895500D01*
X159322649Y-47895500D01*
X159527351Y-47895500D01*
X159527352Y-47895500D01*
X159729534Y-47863477D01*
X159924219Y-47800220D01*
X160106610Y-47707287D01*
X160219868Y-47625001D01*
X160272213Y-47586971D01*
X160272215Y-47586968D01*
X160272219Y-47586966D01*
X160416966Y-47442219D01*
X160416968Y-47442215D01*
X160416971Y-47442213D01*
X160473225Y-47364785D01*
X160537287Y-47276610D01*
X160630220Y-47094219D01*
X160693477Y-46899534D01*
X160725500Y-46697352D01*
X160725500Y-46492682D01*
X163125000Y-46492682D01*
X163125000Y-46697317D01*
X163157009Y-46899417D01*
X163220244Y-47094031D01*
X163313141Y-47276350D01*
X163313147Y-47276359D01*
X163345523Y-47320921D01*
X163345524Y-47320922D01*
X164025000Y-46641446D01*
X164025000Y-46647661D01*
X164052259Y-46749394D01*
X164104920Y-46840606D01*
X164179394Y-46915080D01*
X164270606Y-46967741D01*
X164372339Y-46995000D01*
X164378553Y-46995000D01*
X163699076Y-47674474D01*
X163743650Y-47706859D01*
X163925968Y-47799755D01*
X164120582Y-47862990D01*
X164322683Y-47895000D01*
X164527317Y-47895000D01*
X164729417Y-47862990D01*
X164924031Y-47799755D01*
X165106349Y-47706859D01*
X165150921Y-47674474D01*
X164471447Y-46995000D01*
X164477661Y-46995000D01*
X164579394Y-46967741D01*
X164670606Y-46915080D01*
X164745080Y-46840606D01*
X164797741Y-46749394D01*
X164825000Y-46647661D01*
X164825000Y-46641447D01*
X165504474Y-47320921D01*
X165536859Y-47276349D01*
X165629755Y-47094031D01*
X165692990Y-46899417D01*
X165725000Y-46697317D01*
X165725000Y-46492682D01*
X165692990Y-46290582D01*
X165629755Y-46095968D01*
X165536859Y-45913650D01*
X165504474Y-45869077D01*
X165504474Y-45869076D01*
X164825000Y-46548551D01*
X164825000Y-46542339D01*
X164797741Y-46440606D01*
X164745080Y-46349394D01*
X164670606Y-46274920D01*
X164579394Y-46222259D01*
X164477661Y-46195000D01*
X164471446Y-46195000D01*
X165150922Y-45515524D01*
X165150921Y-45515523D01*
X165106359Y-45483147D01*
X165106350Y-45483141D01*
X164924031Y-45390244D01*
X164729417Y-45327009D01*
X164527317Y-45295000D01*
X164322683Y-45295000D01*
X164120582Y-45327009D01*
X163925968Y-45390244D01*
X163743644Y-45483143D01*
X163699077Y-45515523D01*
X163699077Y-45515524D01*
X164378554Y-46195000D01*
X164372339Y-46195000D01*
X164270606Y-46222259D01*
X164179394Y-46274920D01*
X164104920Y-46349394D01*
X164052259Y-46440606D01*
X164025000Y-46542339D01*
X164025000Y-46548553D01*
X163345524Y-45869077D01*
X163345523Y-45869077D01*
X163313143Y-45913644D01*
X163220244Y-46095968D01*
X163157009Y-46290582D01*
X163125000Y-46492682D01*
X160725500Y-46492682D01*
X160725500Y-46492648D01*
X160713959Y-46419780D01*
X160693477Y-46290465D01*
X160648211Y-46151151D01*
X160630220Y-46095781D01*
X160630218Y-46095778D01*
X160630218Y-46095776D01*
X160596503Y-46029607D01*
X160537287Y-45913390D01*
X160505092Y-45869077D01*
X160416971Y-45747786D01*
X160272213Y-45603028D01*
X160106613Y-45482715D01*
X160106612Y-45482714D01*
X160106610Y-45482713D01*
X160049653Y-45453691D01*
X159924223Y-45389781D01*
X159729534Y-45326522D01*
X159554995Y-45298878D01*
X159527352Y-45294500D01*
X159322648Y-45294500D01*
X159298329Y-45298351D01*
X159120465Y-45326522D01*
X158925776Y-45389781D01*
X158743386Y-45482715D01*
X158577786Y-45603028D01*
X158433028Y-45747786D01*
X158312715Y-45913386D01*
X158219781Y-46095776D01*
X158156522Y-46290465D01*
X158124500Y-46492648D01*
X150500000Y-46492648D01*
X150500000Y-44124500D01*
X150519685Y-44057461D01*
X150572489Y-44011706D01*
X150624000Y-44000500D01*
X169375500Y-44000500D01*
X169442539Y-44020185D01*
X169488294Y-44072989D01*
X169499500Y-44124500D01*
X169499500Y-95875500D01*
X169479815Y-95942539D01*
X169427011Y-95988294D01*
X169375500Y-95999500D01*
X67624500Y-95999500D01*
X67557461Y-95979815D01*
X67511706Y-95927011D01*
X67500500Y-95875500D01*
X67500500Y-93889778D01*
X136574500Y-93889778D01*
X136574500Y-94110221D01*
X136608985Y-94327952D01*
X136677103Y-94537603D01*
X136677104Y-94537606D01*
X136705988Y-94594292D01*
X136762799Y-94705789D01*
X136777187Y-94734025D01*
X136906752Y-94912358D01*
X136906756Y-94912363D01*
X137062636Y-95068243D01*
X137062641Y-95068247D01*
X137218192Y-95181260D01*
X137240978Y-95197815D01*
X137369375Y-95263237D01*
X137437393Y-95297895D01*
X137437396Y-95297896D01*
X137542221Y-95331955D01*
X137647049Y-95366015D01*
X137864778Y-95400500D01*
X137864779Y-95400500D01*
X138085221Y-95400500D01*
X138085222Y-95400500D01*
X138302951Y-95366015D01*
X138512606Y-95297895D01*
X138709022Y-95197815D01*
X138887365Y-95068242D01*
X139043242Y-94912365D01*
X139172815Y-94734022D01*
X139272895Y-94537606D01*
X139341015Y-94327951D01*
X139375500Y-94110222D01*
X139375500Y-93889778D01*
X142024500Y-93889778D01*
X142024500Y-94110221D01*
X142058985Y-94327952D01*
X142127103Y-94537603D01*
X142127104Y-94537606D01*
X142155988Y-94594292D01*
X142212799Y-94705789D01*
X142227187Y-94734025D01*
X142356752Y-94912358D01*
X142356756Y-94912363D01*
X142512636Y-95068243D01*
X142512641Y-95068247D01*
X142668192Y-95181260D01*
X142690978Y-95197815D01*
X142819375Y-95263237D01*
X142887393Y-95297895D01*
X142887396Y-95297896D01*
X142992221Y-95331955D01*
X143097049Y-95366015D01*
X143314778Y-95400500D01*
X143314779Y-95400500D01*
X143535221Y-95400500D01*
X143535222Y-95400500D01*
X143752951Y-95366015D01*
X143962606Y-95297895D01*
X144159022Y-95197815D01*
X144337365Y-95068242D01*
X144493242Y-94912365D01*
X144622815Y-94734022D01*
X144722895Y-94537606D01*
X144791015Y-94327951D01*
X144825500Y-94110222D01*
X144825500Y-93889778D01*
X144791015Y-93672049D01*
X144747228Y-93537284D01*
X144722896Y-93462396D01*
X144722895Y-93462393D01*
X144682696Y-93383500D01*
X144622815Y-93265978D01*
X144516593Y-93119775D01*
X144493247Y-93087641D01*
X144493243Y-93087636D01*
X144337363Y-92931756D01*
X144337358Y-92931752D01*
X144159025Y-92802187D01*
X144159024Y-92802186D01*
X144159022Y-92802185D01*
X144096096Y-92770122D01*
X143962606Y-92702104D01*
X143962603Y-92702103D01*
X143752952Y-92633985D01*
X143644086Y-92616742D01*
X143535222Y-92599500D01*
X143314778Y-92599500D01*
X143242201Y-92610995D01*
X143097047Y-92633985D01*
X142887396Y-92702103D01*
X142887393Y-92702104D01*
X142690974Y-92802187D01*
X142512641Y-92931752D01*
X142512636Y-92931756D01*
X142356756Y-93087636D01*
X142356752Y-93087641D01*
X142227187Y-93265974D01*
X142127104Y-93462393D01*
X142127103Y-93462396D01*
X142058985Y-93672047D01*
X142024500Y-93889778D01*
X139375500Y-93889778D01*
X139341015Y-93672049D01*
X139297228Y-93537284D01*
X139272896Y-93462396D01*
X139272895Y-93462393D01*
X139232696Y-93383500D01*
X139172815Y-93265978D01*
X139066593Y-93119775D01*
X139043247Y-93087641D01*
X139043243Y-93087636D01*
X138887363Y-92931756D01*
X138887358Y-92931752D01*
X138709025Y-92802187D01*
X138709024Y-92802186D01*
X138709022Y-92802185D01*
X138646096Y-92770122D01*
X138512606Y-92702104D01*
X138512603Y-92702103D01*
X138302952Y-92633985D01*
X138194086Y-92616742D01*
X138085222Y-92599500D01*
X137864778Y-92599500D01*
X137792201Y-92610995D01*
X137647047Y-92633985D01*
X137437396Y-92702103D01*
X137437393Y-92702104D01*
X137240974Y-92802187D01*
X137062641Y-92931752D01*
X137062636Y-92931756D01*
X136906756Y-93087636D01*
X136906752Y-93087641D01*
X136777187Y-93265974D01*
X136677104Y-93462393D01*
X136677103Y-93462396D01*
X136608985Y-93672047D01*
X136574500Y-93889778D01*
X67500500Y-93889778D01*
X67500500Y-46853713D01*
X70249500Y-46853713D01*
X70249500Y-47066287D01*
X70282754Y-47276243D01*
X70336682Y-47442217D01*
X70348444Y-47478414D01*
X70444951Y-47667820D01*
X70569890Y-47839786D01*
X70720213Y-47990109D01*
X70892182Y-48115050D01*
X70900946Y-48119516D01*
X70951742Y-48167491D01*
X70968536Y-48235312D01*
X70945998Y-48301447D01*
X70900946Y-48340484D01*
X70892182Y-48344949D01*
X70720213Y-48469890D01*
X70569890Y-48620213D01*
X70444951Y-48792179D01*
X70348444Y-48981585D01*
X70282753Y-49183760D01*
X70266688Y-49285192D01*
X70249500Y-49393713D01*
X70249500Y-49606287D01*
X70259534Y-49669644D01*
X70280998Y-49805161D01*
X70282754Y-49816243D01*
X70328982Y-49958519D01*
X70348444Y-50018414D01*
X70444951Y-50207820D01*
X70569890Y-50379786D01*
X70720213Y-50530109D01*
X70892182Y-50655050D01*
X70900946Y-50659516D01*
X70951742Y-50707491D01*
X70968536Y-50775312D01*
X70945998Y-50841447D01*
X70900946Y-50880484D01*
X70892182Y-50884949D01*
X70720213Y-51009890D01*
X70569890Y-51160213D01*
X70444951Y-51332179D01*
X70348444Y-51521585D01*
X70282753Y-51723760D01*
X70249500Y-51933713D01*
X70249500Y-52146286D01*
X70281453Y-52348034D01*
X70282754Y-52356243D01*
X70322471Y-52478480D01*
X70348444Y-52558414D01*
X70444951Y-52747820D01*
X70569890Y-52919786D01*
X70720213Y-53070109D01*
X70892182Y-53195050D01*
X70900946Y-53199516D01*
X70951742Y-53247491D01*
X70968536Y-53315312D01*
X70945998Y-53381447D01*
X70900946Y-53420484D01*
X70892182Y-53424949D01*
X70720213Y-53549890D01*
X70569890Y-53700213D01*
X70444951Y-53872179D01*
X70348444Y-54061585D01*
X70282753Y-54263760D01*
X70249500Y-54473713D01*
X70249500Y-54686286D01*
X70280895Y-54884510D01*
X70282754Y-54896243D01*
X70329188Y-55039153D01*
X70348444Y-55098414D01*
X70444951Y-55287820D01*
X70569890Y-55459786D01*
X70720213Y-55610109D01*
X70892182Y-55735050D01*
X70900946Y-55739516D01*
X70951742Y-55787491D01*
X70968536Y-55855312D01*
X70945998Y-55921447D01*
X70900946Y-55960484D01*
X70892182Y-55964949D01*
X70720213Y-56089890D01*
X70569890Y-56240213D01*
X70444951Y-56412179D01*
X70348444Y-56601585D01*
X70282753Y-56803760D01*
X70249500Y-57013713D01*
X70249500Y-57226286D01*
X70273204Y-57375951D01*
X70282754Y-57436243D01*
X70339161Y-57609846D01*
X70348444Y-57638414D01*
X70444951Y-57827820D01*
X70569890Y-57999786D01*
X70720213Y-58150109D01*
X70892182Y-58275050D01*
X70900946Y-58279516D01*
X70951742Y-58327491D01*
X70968536Y-58395312D01*
X70945998Y-58461447D01*
X70900946Y-58500484D01*
X70892182Y-58504949D01*
X70720213Y-58629890D01*
X70569890Y-58780213D01*
X70444951Y-58952179D01*
X70348444Y-59141585D01*
X70282753Y-59343760D01*
X70257512Y-59503126D01*
X70249500Y-59553713D01*
X70249500Y-59766287D01*
X70257578Y-59817288D01*
X70277226Y-59941344D01*
X70282754Y-59976243D01*
X70343106Y-60161987D01*
X70348444Y-60178414D01*
X70444951Y-60367820D01*
X70569890Y-60539786D01*
X70720213Y-60690109D01*
X70892182Y-60815050D01*
X70900946Y-60819516D01*
X70951742Y-60867491D01*
X70968536Y-60935312D01*
X70945998Y-61001447D01*
X70900946Y-61040484D01*
X70892182Y-61044949D01*
X70720213Y-61169890D01*
X70569890Y-61320213D01*
X70444951Y-61492179D01*
X70348444Y-61681585D01*
X70282753Y-61883760D01*
X70249500Y-62093713D01*
X70249500Y-62306286D01*
X70281453Y-62508034D01*
X70282754Y-62516243D01*
X70334390Y-62675163D01*
X70348444Y-62718414D01*
X70444951Y-62907820D01*
X70569890Y-63079786D01*
X70720213Y-63230109D01*
X70892182Y-63355050D01*
X70900946Y-63359516D01*
X70951742Y-63407491D01*
X70968536Y-63475312D01*
X70945998Y-63541447D01*
X70900946Y-63580484D01*
X70892182Y-63584949D01*
X70720213Y-63709890D01*
X70569890Y-63860213D01*
X70444951Y-64032179D01*
X70348444Y-64221585D01*
X70282753Y-64423760D01*
X70257512Y-64583126D01*
X70249500Y-64633713D01*
X70249500Y-64846287D01*
X70257542Y-64897059D01*
X70281453Y-65048034D01*
X70282754Y-65056243D01*
X70347249Y-65254738D01*
X70348444Y-65258414D01*
X70444951Y-65447820D01*
X70569890Y-65619786D01*
X70720213Y-65770109D01*
X70892182Y-65895050D01*
X70900946Y-65899516D01*
X70951742Y-65947491D01*
X70968536Y-66015312D01*
X70945998Y-66081447D01*
X70900946Y-66120484D01*
X70892182Y-66124949D01*
X70720213Y-66249890D01*
X70569890Y-66400213D01*
X70444951Y-66572179D01*
X70348444Y-66761585D01*
X70282753Y-66963760D01*
X70266494Y-67066416D01*
X70249500Y-67173713D01*
X70249500Y-67386287D01*
X70255606Y-67424839D01*
X70281453Y-67588034D01*
X70282754Y-67596243D01*
X70334390Y-67755163D01*
X70348444Y-67798414D01*
X70444951Y-67987820D01*
X70569890Y-68159786D01*
X70720213Y-68310109D01*
X70892182Y-68435050D01*
X70900946Y-68439516D01*
X70951742Y-68487491D01*
X70968536Y-68555312D01*
X70945998Y-68621447D01*
X70900946Y-68660484D01*
X70892182Y-68664949D01*
X70720213Y-68789890D01*
X70569890Y-68940213D01*
X70444951Y-69112179D01*
X70348444Y-69301585D01*
X70282753Y-69503760D01*
X70263928Y-69622619D01*
X70249500Y-69713713D01*
X70249500Y-69926287D01*
X70259534Y-69989644D01*
X70281453Y-70128034D01*
X70282754Y-70136243D01*
X70343059Y-70321843D01*
X70348444Y-70338414D01*
X70444951Y-70527820D01*
X70569890Y-70699786D01*
X70720213Y-70850109D01*
X70892182Y-70975050D01*
X70900946Y-70979516D01*
X70951742Y-71027491D01*
X70968536Y-71095312D01*
X70945998Y-71161447D01*
X70900946Y-71200484D01*
X70892182Y-71204949D01*
X70720213Y-71329890D01*
X70569890Y-71480213D01*
X70444951Y-71652179D01*
X70348444Y-71841585D01*
X70282753Y-72043760D01*
X70256208Y-72211362D01*
X70249500Y-72253713D01*
X70249500Y-72466287D01*
X70258155Y-72520929D01*
X70281453Y-72668034D01*
X70282754Y-72676243D01*
X70336726Y-72842352D01*
X70348444Y-72878414D01*
X70444951Y-73067820D01*
X70569890Y-73239786D01*
X70720213Y-73390109D01*
X70892182Y-73515050D01*
X70900946Y-73519516D01*
X70951742Y-73567491D01*
X70968536Y-73635312D01*
X70945998Y-73701447D01*
X70900946Y-73740484D01*
X70892182Y-73744949D01*
X70720213Y-73869890D01*
X70569890Y-74020213D01*
X70444951Y-74192179D01*
X70348444Y-74381585D01*
X70282753Y-74583760D01*
X70249500Y-74793713D01*
X70249500Y-75006287D01*
X70259534Y-75069644D01*
X70281453Y-75208034D01*
X70282754Y-75216243D01*
X70335834Y-75379607D01*
X70348444Y-75418414D01*
X70444951Y-75607820D01*
X70569890Y-75779786D01*
X70720213Y-75930109D01*
X70892179Y-76055048D01*
X70892181Y-76055049D01*
X70892184Y-76055051D01*
X70901493Y-76059794D01*
X70952290Y-76107766D01*
X70969087Y-76175587D01*
X70946552Y-76241722D01*
X70901502Y-76280762D01*
X70892443Y-76285378D01*
X70720540Y-76410272D01*
X70720535Y-76410276D01*
X70570276Y-76560535D01*
X70570272Y-76560540D01*
X70445379Y-76732442D01*
X70348904Y-76921782D01*
X70283242Y-77123870D01*
X70283242Y-77123873D01*
X70272769Y-77190000D01*
X71166988Y-77190000D01*
X71134075Y-77247007D01*
X71100000Y-77374174D01*
X71100000Y-77505826D01*
X71134075Y-77632993D01*
X71166988Y-77690000D01*
X70272769Y-77690000D01*
X70283242Y-77756126D01*
X70283242Y-77756129D01*
X70348904Y-77958217D01*
X70445379Y-78147557D01*
X70570272Y-78319459D01*
X70570276Y-78319464D01*
X70720535Y-78469723D01*
X70720540Y-78469727D01*
X70892444Y-78594622D01*
X70901495Y-78599234D01*
X70952292Y-78647208D01*
X70969087Y-78715029D01*
X70946550Y-78781164D01*
X70901499Y-78820202D01*
X70892182Y-78824949D01*
X70720213Y-78949890D01*
X70569890Y-79100213D01*
X70444951Y-79272179D01*
X70348444Y-79461585D01*
X70282753Y-79663760D01*
X70265891Y-79770222D01*
X70249500Y-79873713D01*
X70249500Y-80086287D01*
X70259534Y-80149644D01*
X70282753Y-80296239D01*
X70282753Y-80296241D01*
X70282754Y-80296243D01*
X70337431Y-80464522D01*
X70348444Y-80498414D01*
X70444951Y-80687820D01*
X70569890Y-80859786D01*
X70720213Y-81010109D01*
X70892182Y-81135050D01*
X70900946Y-81139516D01*
X70951742Y-81187491D01*
X70968536Y-81255312D01*
X70945998Y-81321447D01*
X70900946Y-81360484D01*
X70892182Y-81364949D01*
X70720213Y-81489890D01*
X70569890Y-81640213D01*
X70444951Y-81812179D01*
X70348444Y-82001585D01*
X70282753Y-82203760D01*
X70262046Y-82334499D01*
X70249500Y-82413713D01*
X70249500Y-82626287D01*
X70254961Y-82660765D01*
X70281453Y-82828034D01*
X70282754Y-82836243D01*
X70333351Y-82991965D01*
X70348444Y-83038414D01*
X70444951Y-83227820D01*
X70569890Y-83399786D01*
X70720213Y-83550109D01*
X70892182Y-83675050D01*
X70900946Y-83679516D01*
X70951742Y-83727491D01*
X70968536Y-83795312D01*
X70945998Y-83861447D01*
X70900946Y-83900484D01*
X70892182Y-83904949D01*
X70720213Y-84029890D01*
X70569890Y-84180213D01*
X70444951Y-84352179D01*
X70348444Y-84541585D01*
X70282753Y-84743760D01*
X70249500Y-84953713D01*
X70249500Y-85166286D01*
X70279019Y-85352666D01*
X70282754Y-85376243D01*
X70328340Y-85516543D01*
X70348444Y-85578414D01*
X70444951Y-85767820D01*
X70569890Y-85939786D01*
X70683430Y-86053326D01*
X70716915Y-86114649D01*
X70711931Y-86184341D01*
X70670059Y-86240274D01*
X70639083Y-86257189D01*
X70507669Y-86306203D01*
X70507664Y-86306206D01*
X70392455Y-86392452D01*
X70392452Y-86392455D01*
X70306206Y-86507664D01*
X70306202Y-86507671D01*
X70255908Y-86642517D01*
X70249501Y-86702116D01*
X70249500Y-86702135D01*
X70249500Y-88497870D01*
X70249501Y-88497876D01*
X70255908Y-88557483D01*
X70306202Y-88692328D01*
X70306206Y-88692335D01*
X70392452Y-88807544D01*
X70392455Y-88807547D01*
X70507664Y-88893793D01*
X70507671Y-88893797D01*
X70642517Y-88944091D01*
X70642516Y-88944091D01*
X70649444Y-88944835D01*
X70702127Y-88950500D01*
X72049902Y-88950499D01*
X72116941Y-88970184D01*
X72137583Y-88986818D01*
X73685139Y-90534374D01*
X73685149Y-90534385D01*
X73689479Y-90538715D01*
X73689480Y-90538716D01*
X73801284Y-90650520D01*
X73888095Y-90700639D01*
X73888097Y-90700641D01*
X73926151Y-90722611D01*
X73938215Y-90729577D01*
X74090943Y-90770501D01*
X74090946Y-90770501D01*
X74256653Y-90770501D01*
X74256669Y-90770500D01*
X97139903Y-90770500D01*
X97206942Y-90790185D01*
X97227584Y-90806819D01*
X98400921Y-91980157D01*
X98434406Y-92041480D01*
X98431173Y-92106149D01*
X98426523Y-92120460D01*
X98426523Y-92120462D01*
X98394500Y-92322648D01*
X98394500Y-92527351D01*
X98426522Y-92729534D01*
X98489781Y-92924223D01*
X98553691Y-93049653D01*
X98573045Y-93087636D01*
X98582715Y-93106613D01*
X98703028Y-93272213D01*
X98847786Y-93416971D01*
X98967896Y-93504234D01*
X99013390Y-93537287D01*
X99129607Y-93596503D01*
X99195776Y-93630218D01*
X99195778Y-93630218D01*
X99195781Y-93630220D01*
X99248745Y-93647429D01*
X99390465Y-93693477D01*
X99462044Y-93704814D01*
X99592648Y-93725500D01*
X99592649Y-93725500D01*
X99797351Y-93725500D01*
X99797352Y-93725500D01*
X99999534Y-93693477D01*
X100194219Y-93630220D01*
X100376610Y-93537287D01*
X100469590Y-93469732D01*
X100542213Y-93416971D01*
X100542215Y-93416968D01*
X100542219Y-93416966D01*
X100686966Y-93272219D01*
X100686968Y-93272215D01*
X100686971Y-93272213D01*
X100739732Y-93199590D01*
X100807287Y-93106610D01*
X100900220Y-92924219D01*
X100963477Y-92729534D01*
X100995500Y-92527352D01*
X100995500Y-92322648D01*
X100963477Y-92120466D01*
X100947960Y-92072711D01*
X100900218Y-91925776D01*
X100839583Y-91806775D01*
X100807287Y-91743390D01*
X100797640Y-91730112D01*
X100686971Y-91577786D01*
X100542213Y-91433028D01*
X100376614Y-91312715D01*
X100370006Y-91309348D01*
X100283917Y-91265483D01*
X100233123Y-91217511D01*
X100216328Y-91149690D01*
X100238865Y-91083555D01*
X100283917Y-91044516D01*
X100376610Y-90997287D01*
X100461513Y-90935602D01*
X100542213Y-90876971D01*
X100542215Y-90876968D01*
X100542219Y-90876966D01*
X100686966Y-90732219D01*
X100686968Y-90732215D01*
X100686971Y-90732213D01*
X100752526Y-90641983D01*
X100807287Y-90566610D01*
X100900220Y-90384219D01*
X100963477Y-90189534D01*
X100995500Y-89987352D01*
X100995500Y-89782648D01*
X100985498Y-89719500D01*
X100963477Y-89580465D01*
X100933704Y-89488834D01*
X100900220Y-89385781D01*
X100900218Y-89385778D01*
X100900218Y-89385776D01*
X100857665Y-89302262D01*
X100807287Y-89203390D01*
X100777347Y-89162181D01*
X100686971Y-89037786D01*
X100542213Y-88893028D01*
X100376614Y-88772715D01*
X100370006Y-88769348D01*
X100283917Y-88725483D01*
X100233123Y-88677511D01*
X100216328Y-88609690D01*
X100238865Y-88543555D01*
X100283917Y-88504516D01*
X100376610Y-88457287D01*
X100400193Y-88440153D01*
X100542213Y-88336971D01*
X100542215Y-88336968D01*
X100542219Y-88336966D01*
X100686966Y-88192219D01*
X100686968Y-88192215D01*
X100686971Y-88192213D01*
X100762816Y-88087819D01*
X100807287Y-88026610D01*
X100900220Y-87844219D01*
X100963477Y-87649534D01*
X100995500Y-87447352D01*
X100995500Y-87242648D01*
X100963477Y-87040466D01*
X100900220Y-86845781D01*
X100900218Y-86845778D01*
X100900218Y-86845776D01*
X100866503Y-86779607D01*
X100807287Y-86663390D01*
X100786296Y-86634498D01*
X100686971Y-86497786D01*
X100542213Y-86353028D01*
X100376614Y-86232715D01*
X100341946Y-86215051D01*
X100283917Y-86185483D01*
X100233123Y-86137511D01*
X100216328Y-86069690D01*
X100238865Y-86003555D01*
X100283917Y-85964516D01*
X100376610Y-85917287D01*
X100463320Y-85854289D01*
X100542213Y-85796971D01*
X100542215Y-85796968D01*
X100542219Y-85796966D01*
X100686966Y-85652219D01*
X100686968Y-85652215D01*
X100686971Y-85652213D01*
X100741260Y-85577489D01*
X100807287Y-85486610D01*
X100900220Y-85304219D01*
X100963477Y-85109534D01*
X100995500Y-84907352D01*
X100995500Y-84702648D01*
X100978980Y-84598349D01*
X100963477Y-84500465D01*
X100915297Y-84352184D01*
X100900220Y-84305781D01*
X100900218Y-84305778D01*
X100900218Y-84305776D01*
X100856512Y-84220000D01*
X100807287Y-84123390D01*
X100799556Y-84112749D01*
X100686971Y-83957786D01*
X100542213Y-83813028D01*
X100376614Y-83692715D01*
X100341944Y-83675050D01*
X100283917Y-83645483D01*
X100233123Y-83597511D01*
X100216328Y-83529690D01*
X100238865Y-83463555D01*
X100283917Y-83424516D01*
X100376610Y-83377287D01*
X100409262Y-83353564D01*
X100542213Y-83256971D01*
X100542215Y-83256968D01*
X100542219Y-83256966D01*
X100686966Y-83112219D01*
X100686968Y-83112215D01*
X100686971Y-83112213D01*
X100774335Y-82991965D01*
X100807287Y-82946610D01*
X100900220Y-82764219D01*
X100963477Y-82569534D01*
X100995500Y-82367352D01*
X100995500Y-82162648D01*
X100976754Y-82044292D01*
X100963477Y-81960465D01*
X100915297Y-81812184D01*
X100900220Y-81765781D01*
X100900218Y-81765778D01*
X100900218Y-81765776D01*
X100850652Y-81668499D01*
X100807287Y-81583390D01*
X100799556Y-81572749D01*
X100686971Y-81417786D01*
X100542213Y-81273028D01*
X100376614Y-81152715D01*
X100333556Y-81130776D01*
X100283917Y-81105483D01*
X100233123Y-81057511D01*
X100216328Y-80989690D01*
X100238865Y-80923555D01*
X100283917Y-80884516D01*
X100376610Y-80837287D01*
X100397770Y-80821913D01*
X100542213Y-80716971D01*
X100542215Y-80716968D01*
X100542219Y-80716966D01*
X100686966Y-80572219D01*
X100686968Y-80572215D01*
X100686971Y-80572213D01*
X100788269Y-80432786D01*
X100807287Y-80406610D01*
X100900220Y-80224219D01*
X100963477Y-80029534D01*
X100995500Y-79827352D01*
X100995500Y-79634097D01*
X101015185Y-79567058D01*
X101067989Y-79521303D01*
X101137147Y-79511359D01*
X101200703Y-79540384D01*
X101207179Y-79546414D01*
X102271448Y-80610684D01*
X103329263Y-81668499D01*
X103362748Y-81729822D01*
X103363199Y-81731988D01*
X103370261Y-81767491D01*
X103370263Y-81767499D01*
X103430602Y-81913172D01*
X103430609Y-81913185D01*
X103518210Y-82044288D01*
X103518213Y-82044292D01*
X103629707Y-82155786D01*
X103629711Y-82155789D01*
X103760814Y-82243390D01*
X103760827Y-82243397D01*
X103906498Y-82303735D01*
X103906503Y-82303737D01*
X104061153Y-82334499D01*
X104061156Y-82334500D01*
X104061158Y-82334500D01*
X104218844Y-82334500D01*
X104218845Y-82334499D01*
X104373497Y-82303737D01*
X104519179Y-82243394D01*
X104650289Y-82155789D01*
X104761789Y-82044289D01*
X104849394Y-81913179D01*
X104909737Y-81767497D01*
X104940500Y-81612842D01*
X104940500Y-81455158D01*
X104940500Y-81455155D01*
X104940499Y-81455153D01*
X104930623Y-81405504D01*
X104909737Y-81300503D01*
X104898357Y-81273028D01*
X104849397Y-81154827D01*
X104849390Y-81154814D01*
X104761789Y-81023711D01*
X104761786Y-81023707D01*
X104650292Y-80912213D01*
X104650288Y-80912210D01*
X104519185Y-80824609D01*
X104519172Y-80824602D01*
X104373501Y-80764264D01*
X104373489Y-80764261D01*
X104218845Y-80733500D01*
X104218842Y-80733500D01*
X104144098Y-80733500D01*
X104077059Y-80713815D01*
X104056417Y-80697181D01*
X102530361Y-79171125D01*
X100989076Y-77629841D01*
X100955592Y-77568519D01*
X100958828Y-77503841D01*
X100963477Y-77489534D01*
X100995500Y-77287352D01*
X100995500Y-77094097D01*
X101015185Y-77027058D01*
X101067989Y-76981303D01*
X101137147Y-76971359D01*
X101200703Y-77000384D01*
X101207181Y-77006416D01*
X103813425Y-79612660D01*
X103846910Y-79673983D01*
X103847361Y-79676149D01*
X103878261Y-79831491D01*
X103878264Y-79831501D01*
X103938602Y-79977172D01*
X103938609Y-79977185D01*
X104026210Y-80108288D01*
X104026213Y-80108292D01*
X104137707Y-80219786D01*
X104137711Y-80219789D01*
X104268814Y-80307390D01*
X104268827Y-80307397D01*
X104399501Y-80361523D01*
X104414503Y-80367737D01*
X104569153Y-80398499D01*
X104569156Y-80398500D01*
X104569158Y-80398500D01*
X104726844Y-80398500D01*
X104726845Y-80398499D01*
X104881497Y-80367737D01*
X104994166Y-80321067D01*
X105027172Y-80307397D01*
X105027172Y-80307396D01*
X105027179Y-80307394D01*
X105158289Y-80219789D01*
X105269789Y-80108289D01*
X105357394Y-79977179D01*
X105388407Y-79902304D01*
X105432245Y-79847904D01*
X105498539Y-79825838D01*
X105550418Y-79835197D01*
X105684503Y-79890737D01*
X105839153Y-79921499D01*
X105839156Y-79921500D01*
X105839158Y-79921500D01*
X105996844Y-79921500D01*
X105996845Y-79921499D01*
X106151497Y-79890737D01*
X106285581Y-79835198D01*
X106297172Y-79830397D01*
X106297172Y-79830396D01*
X106297179Y-79830394D01*
X106428289Y-79742789D01*
X106539789Y-79631289D01*
X106627394Y-79500179D01*
X106687737Y-79354497D01*
X106718500Y-79199842D01*
X106718500Y-79042158D01*
X106718500Y-79042155D01*
X106718499Y-79042153D01*
X106704841Y-78973489D01*
X106687737Y-78887503D01*
X106662020Y-78825415D01*
X106627397Y-78741827D01*
X106627390Y-78741814D01*
X106539789Y-78610711D01*
X106539786Y-78610707D01*
X106428292Y-78499213D01*
X106428288Y-78499210D01*
X106297185Y-78411609D01*
X106297172Y-78411602D01*
X106151501Y-78351264D01*
X106151492Y-78351261D01*
X106110307Y-78343069D01*
X106048396Y-78310683D01*
X106013823Y-78249967D01*
X106010500Y-78221452D01*
X106010500Y-76652765D01*
X106030185Y-76585726D01*
X106031398Y-76583874D01*
X106085179Y-76503386D01*
X106119394Y-76452179D01*
X106179737Y-76306497D01*
X106210500Y-76151842D01*
X106210500Y-75994158D01*
X106210500Y-75994155D01*
X106210499Y-75994153D01*
X106190869Y-75895466D01*
X106179737Y-75839503D01*
X106151385Y-75771054D01*
X106119397Y-75693827D01*
X106119390Y-75693814D01*
X106031789Y-75562711D01*
X106031786Y-75562707D01*
X105920292Y-75451213D01*
X105920288Y-75451210D01*
X105789185Y-75363609D01*
X105789172Y-75363602D01*
X105643501Y-75303264D01*
X105643489Y-75303261D01*
X105488845Y-75272500D01*
X105488842Y-75272500D01*
X105331158Y-75272500D01*
X105331155Y-75272500D01*
X105176510Y-75303261D01*
X105176498Y-75303264D01*
X105030827Y-75363602D01*
X105030814Y-75363609D01*
X104899711Y-75451210D01*
X104899707Y-75451213D01*
X104788213Y-75562707D01*
X104788210Y-75562711D01*
X104700609Y-75693814D01*
X104700602Y-75693827D01*
X104640264Y-75839498D01*
X104640261Y-75839510D01*
X104609500Y-75994153D01*
X104609500Y-76151846D01*
X104640261Y-76306489D01*
X104640264Y-76306501D01*
X104700602Y-76452172D01*
X104700609Y-76452185D01*
X104788602Y-76583874D01*
X104809480Y-76650551D01*
X104809500Y-76652765D01*
X104809500Y-78533939D01*
X104809499Y-78533943D01*
X104809499Y-78592489D01*
X104809499Y-78610902D01*
X104789814Y-78677942D01*
X104737009Y-78723696D01*
X104677795Y-78732209D01*
X104667852Y-78733639D01*
X104667851Y-78733638D01*
X104667851Y-78733639D01*
X104624115Y-78713665D01*
X104604296Y-78704614D01*
X104597818Y-78698582D01*
X100989077Y-75089842D01*
X100955592Y-75028519D01*
X100958828Y-74963841D01*
X100958889Y-74963654D01*
X100963477Y-74949534D01*
X100995500Y-74747352D01*
X100995500Y-74542648D01*
X100975936Y-74419127D01*
X100963477Y-74340465D01*
X100915297Y-74192184D01*
X100900220Y-74145781D01*
X100900218Y-74145778D01*
X100900218Y-74145776D01*
X100847999Y-74043292D01*
X100807287Y-73963390D01*
X100770085Y-73912185D01*
X100686971Y-73797786D01*
X100542219Y-73653034D01*
X100535900Y-73648443D01*
X100505929Y-73626668D01*
X100463264Y-73571339D01*
X100457285Y-73501726D01*
X100489890Y-73439931D01*
X100550728Y-73405573D01*
X100565562Y-73403060D01*
X100602483Y-73399091D01*
X100626578Y-73390104D01*
X100737331Y-73348796D01*
X100852546Y-73262546D01*
X100938796Y-73147331D01*
X100989091Y-73012483D01*
X100995500Y-72952873D01*
X100995500Y-72637648D01*
X104149500Y-72637648D01*
X104149500Y-72842351D01*
X104181522Y-73044534D01*
X104244781Y-73239223D01*
X104304011Y-73355466D01*
X104337585Y-73421359D01*
X104337715Y-73421613D01*
X104458028Y-73587213D01*
X104602786Y-73731971D01*
X104698385Y-73801426D01*
X104768390Y-73852287D01*
X104865455Y-73901744D01*
X104950776Y-73945218D01*
X104950778Y-73945218D01*
X104950781Y-73945220D01*
X105055137Y-73979127D01*
X105145465Y-74008477D01*
X105221356Y-74020497D01*
X105347648Y-74040500D01*
X105347649Y-74040500D01*
X105552351Y-74040500D01*
X105552352Y-74040500D01*
X105754534Y-74008477D01*
X105949219Y-73945220D01*
X106131610Y-73852287D01*
X106224590Y-73784732D01*
X106297213Y-73731971D01*
X106297215Y-73731968D01*
X106297219Y-73731966D01*
X106441966Y-73587219D01*
X106511425Y-73491615D01*
X106566755Y-73448949D01*
X106611744Y-73440500D01*
X107125500Y-73440500D01*
X107192539Y-73460185D01*
X107238294Y-73512989D01*
X107249500Y-73564500D01*
X107249500Y-85910006D01*
X107249500Y-86047994D01*
X107249500Y-86047996D01*
X107249499Y-86047996D01*
X107276418Y-86183322D01*
X107276421Y-86183332D01*
X107329222Y-86310807D01*
X107405887Y-86425545D01*
X112710454Y-91730112D01*
X112825192Y-91806777D01*
X112952667Y-91859578D01*
X112952672Y-91859580D01*
X112952676Y-91859580D01*
X112952677Y-91859581D01*
X113088003Y-91886500D01*
X113088006Y-91886500D01*
X113088007Y-91886500D01*
X123096872Y-91886500D01*
X123163911Y-91906185D01*
X123209666Y-91958989D01*
X123219610Y-92028147D01*
X123214803Y-92048819D01*
X123191522Y-92120465D01*
X123159500Y-92322648D01*
X123159500Y-92527351D01*
X123191522Y-92729534D01*
X123254781Y-92924223D01*
X123318691Y-93049653D01*
X123338045Y-93087636D01*
X123347715Y-93106613D01*
X123468028Y-93272213D01*
X123612786Y-93416971D01*
X123732896Y-93504234D01*
X123778390Y-93537287D01*
X123894607Y-93596503D01*
X123960776Y-93630218D01*
X123960778Y-93630218D01*
X123960781Y-93630220D01*
X124013745Y-93647429D01*
X124155465Y-93693477D01*
X124227044Y-93704814D01*
X124357648Y-93725500D01*
X124357649Y-93725500D01*
X124562351Y-93725500D01*
X124562352Y-93725500D01*
X124764534Y-93693477D01*
X124959219Y-93630220D01*
X125141610Y-93537287D01*
X125234590Y-93469732D01*
X125307213Y-93416971D01*
X125307215Y-93416968D01*
X125307219Y-93416966D01*
X125451966Y-93272219D01*
X125451968Y-93272215D01*
X125451971Y-93272213D01*
X125504732Y-93199590D01*
X125572287Y-93106610D01*
X125665220Y-92924219D01*
X125728477Y-92729534D01*
X125760500Y-92527352D01*
X125760500Y-92322648D01*
X125728477Y-92120466D01*
X125705196Y-92048817D01*
X125703201Y-91978978D01*
X125739281Y-91919145D01*
X125801982Y-91888316D01*
X125823128Y-91886500D01*
X126784040Y-91886500D01*
X126851079Y-91906185D01*
X126887142Y-91941609D01*
X126935535Y-92014034D01*
X126935538Y-92014038D01*
X127060961Y-92139461D01*
X127060965Y-92139464D01*
X127208446Y-92238009D01*
X127208459Y-92238016D01*
X127331363Y-92288923D01*
X127372334Y-92305894D01*
X127372336Y-92305894D01*
X127372341Y-92305896D01*
X127546304Y-92340499D01*
X127546307Y-92340500D01*
X127546309Y-92340500D01*
X127723693Y-92340500D01*
X127723694Y-92340499D01*
X127781682Y-92328964D01*
X127897658Y-92305896D01*
X127897661Y-92305894D01*
X127897666Y-92305894D01*
X128061547Y-92238013D01*
X128209035Y-92139464D01*
X128334464Y-92014035D01*
X128433013Y-91866547D01*
X128500894Y-91702666D01*
X128535500Y-91528691D01*
X128535500Y-91351309D01*
X128535500Y-91351306D01*
X128535499Y-91351304D01*
X128500896Y-91177341D01*
X128500893Y-91177332D01*
X128433016Y-91013459D01*
X128433009Y-91013446D01*
X128380995Y-90935602D01*
X128338214Y-90871577D01*
X137024500Y-90871577D01*
X137024500Y-91068422D01*
X137055290Y-91262826D01*
X137116117Y-91450029D01*
X137181213Y-91577786D01*
X137205476Y-91625405D01*
X137321172Y-91784646D01*
X137460354Y-91923828D01*
X137619595Y-92039524D01*
X137684729Y-92072711D01*
X137794970Y-92128882D01*
X137794972Y-92128882D01*
X137794975Y-92128884D01*
X137827537Y-92139464D01*
X137982173Y-92189709D01*
X138176578Y-92220500D01*
X138176583Y-92220500D01*
X138373422Y-92220500D01*
X138567826Y-92189709D01*
X138755025Y-92128884D01*
X138930405Y-92039524D01*
X139089646Y-91923828D01*
X139228828Y-91784646D01*
X139344524Y-91625405D01*
X139433884Y-91450025D01*
X139494709Y-91262826D01*
X139501886Y-91217511D01*
X139525500Y-91068422D01*
X139525500Y-90871577D01*
X141874500Y-90871577D01*
X141874500Y-91068422D01*
X141905290Y-91262826D01*
X141966117Y-91450029D01*
X142031213Y-91577786D01*
X142055476Y-91625405D01*
X142171172Y-91784646D01*
X142310354Y-91923828D01*
X142469595Y-92039524D01*
X142534729Y-92072711D01*
X142644970Y-92128882D01*
X142644972Y-92128882D01*
X142644975Y-92128884D01*
X142677537Y-92139464D01*
X142832173Y-92189709D01*
X143026578Y-92220500D01*
X143026583Y-92220500D01*
X143223422Y-92220500D01*
X143417826Y-92189709D01*
X143605025Y-92128884D01*
X143780405Y-92039524D01*
X143939646Y-91923828D01*
X144078828Y-91784646D01*
X144194524Y-91625405D01*
X144283884Y-91450025D01*
X144344709Y-91262826D01*
X144351886Y-91217511D01*
X144375500Y-91068422D01*
X144375500Y-90871577D01*
X144344709Y-90677173D01*
X144283882Y-90489970D01*
X144219678Y-90363963D01*
X144194524Y-90314595D01*
X144078828Y-90155354D01*
X143939646Y-90016172D01*
X143780405Y-89900476D01*
X143605029Y-89811117D01*
X143417826Y-89750290D01*
X143223422Y-89719500D01*
X143223417Y-89719500D01*
X143026583Y-89719500D01*
X143026578Y-89719500D01*
X142832173Y-89750290D01*
X142644970Y-89811117D01*
X142469594Y-89900476D01*
X142378741Y-89966485D01*
X142310354Y-90016172D01*
X142310352Y-90016174D01*
X142310351Y-90016174D01*
X142171174Y-90155351D01*
X142171174Y-90155352D01*
X142171172Y-90155354D01*
X142146339Y-90189534D01*
X142055476Y-90314594D01*
X141966117Y-90489970D01*
X141905290Y-90677173D01*
X141874500Y-90871577D01*
X139525500Y-90871577D01*
X139494709Y-90677173D01*
X139433882Y-90489970D01*
X139369678Y-90363963D01*
X139344524Y-90314595D01*
X139228828Y-90155354D01*
X139089646Y-90016172D01*
X138930405Y-89900476D01*
X138755029Y-89811117D01*
X138567826Y-89750290D01*
X138373422Y-89719500D01*
X138373417Y-89719500D01*
X138176583Y-89719500D01*
X138176578Y-89719500D01*
X137982173Y-89750290D01*
X137794970Y-89811117D01*
X137619594Y-89900476D01*
X137528741Y-89966485D01*
X137460354Y-90016172D01*
X137460352Y-90016174D01*
X137460351Y-90016174D01*
X137321174Y-90155351D01*
X137321174Y-90155352D01*
X137321172Y-90155354D01*
X137296339Y-90189534D01*
X137205476Y-90314594D01*
X137116117Y-90489970D01*
X137055290Y-90677173D01*
X137024500Y-90871577D01*
X128338214Y-90871577D01*
X128334464Y-90865965D01*
X128334461Y-90865961D01*
X128209038Y-90740538D01*
X128209034Y-90740535D01*
X128061553Y-90641990D01*
X128061540Y-90641983D01*
X127897667Y-90574106D01*
X127897658Y-90574103D01*
X127723694Y-90539500D01*
X127723691Y-90539500D01*
X127675370Y-90539500D01*
X127627918Y-90530061D01*
X127585332Y-90512421D01*
X127585322Y-90512418D01*
X127449996Y-90485500D01*
X127449994Y-90485500D01*
X127449993Y-90485500D01*
X125802984Y-90485500D01*
X125735945Y-90465815D01*
X125690190Y-90413011D01*
X125680246Y-90343853D01*
X125685053Y-90323182D01*
X125728476Y-90189538D01*
X125728476Y-90189537D01*
X125728477Y-90189534D01*
X125760500Y-89987352D01*
X125760500Y-89782648D01*
X125750498Y-89719500D01*
X125728477Y-89580465D01*
X125698704Y-89488834D01*
X125665220Y-89385781D01*
X125665218Y-89385778D01*
X125665218Y-89385776D01*
X125622665Y-89302262D01*
X125572287Y-89203390D01*
X125542347Y-89162181D01*
X125451971Y-89037786D01*
X125307213Y-88893028D01*
X125141614Y-88772715D01*
X125135006Y-88769348D01*
X125048917Y-88725483D01*
X124998123Y-88677511D01*
X124981328Y-88609690D01*
X125003865Y-88543555D01*
X125048917Y-88504516D01*
X125141610Y-88457287D01*
X125165193Y-88440153D01*
X125307213Y-88336971D01*
X125307215Y-88336968D01*
X125307219Y-88336966D01*
X125451966Y-88192219D01*
X125451968Y-88192215D01*
X125451971Y-88192213D01*
X125527816Y-88087819D01*
X125572287Y-88026610D01*
X125665220Y-87844219D01*
X125728477Y-87649534D01*
X125760500Y-87447352D01*
X125760500Y-87242648D01*
X125728477Y-87040466D01*
X125665220Y-86845781D01*
X125665218Y-86845778D01*
X125665218Y-86845776D01*
X125631503Y-86779607D01*
X125572287Y-86663390D01*
X125551296Y-86634498D01*
X125451971Y-86497786D01*
X125307213Y-86353028D01*
X125141614Y-86232715D01*
X125106946Y-86215051D01*
X125048917Y-86185483D01*
X124998123Y-86137511D01*
X124981328Y-86069690D01*
X125003865Y-86003555D01*
X125048917Y-85964516D01*
X125141610Y-85917287D01*
X125228320Y-85854289D01*
X125307213Y-85796971D01*
X125307215Y-85796968D01*
X125307219Y-85796966D01*
X125451966Y-85652219D01*
X125451968Y-85652215D01*
X125451971Y-85652213D01*
X125506260Y-85577489D01*
X125572287Y-85486610D01*
X125665220Y-85304219D01*
X125728477Y-85109534D01*
X125760500Y-84907352D01*
X125760500Y-84702648D01*
X125728477Y-84500466D01*
X125728475Y-84500462D01*
X125728475Y-84500457D01*
X125717545Y-84466817D01*
X125715550Y-84396976D01*
X125751631Y-84337144D01*
X125814332Y-84306316D01*
X125835476Y-84304500D01*
X127462771Y-84304500D01*
X127529810Y-84324185D01*
X127531608Y-84325362D01*
X127589453Y-84364013D01*
X127589455Y-84364014D01*
X127589459Y-84364016D01*
X127712363Y-84414923D01*
X127753334Y-84431894D01*
X127753336Y-84431894D01*
X127753341Y-84431896D01*
X127927304Y-84466499D01*
X127927307Y-84466500D01*
X127927309Y-84466500D01*
X128104693Y-84466500D01*
X128104694Y-84466499D01*
X128171695Y-84453172D01*
X128278658Y-84431896D01*
X128278661Y-84431894D01*
X128278666Y-84431894D01*
X128442547Y-84364013D01*
X128590035Y-84265464D01*
X128715464Y-84140035D01*
X128814013Y-83992547D01*
X128881894Y-83828666D01*
X128885004Y-83813034D01*
X128908519Y-83694814D01*
X128916500Y-83654691D01*
X128916500Y-83477309D01*
X128916500Y-83477306D01*
X128916499Y-83477304D01*
X128881896Y-83303341D01*
X128881893Y-83303332D01*
X128814016Y-83139459D01*
X128814009Y-83139446D01*
X128715464Y-82991965D01*
X128715461Y-82991961D01*
X128590038Y-82866538D01*
X128590034Y-82866535D01*
X128442553Y-82767990D01*
X128442540Y-82767983D01*
X128278667Y-82700106D01*
X128278658Y-82700103D01*
X128104694Y-82665500D01*
X128104691Y-82665500D01*
X127927309Y-82665500D01*
X127927306Y-82665500D01*
X127753341Y-82700103D01*
X127753332Y-82700106D01*
X127589459Y-82767983D01*
X127589446Y-82767990D01*
X127441965Y-82866535D01*
X127441961Y-82866538D01*
X127441319Y-82867181D01*
X127440899Y-82867410D01*
X127437255Y-82870401D01*
X127436687Y-82869709D01*
X127379996Y-82900666D01*
X127353638Y-82903500D01*
X125790636Y-82903500D01*
X125723597Y-82883815D01*
X125677842Y-82831011D01*
X125667898Y-82761853D01*
X125672703Y-82741186D01*
X125728477Y-82569534D01*
X125760500Y-82367352D01*
X125760500Y-82162648D01*
X125741754Y-82044292D01*
X125728477Y-81960465D01*
X125680297Y-81812184D01*
X125665220Y-81765781D01*
X125665218Y-81765778D01*
X125665218Y-81765776D01*
X125615652Y-81668499D01*
X125572287Y-81583390D01*
X125564556Y-81572749D01*
X125451971Y-81417786D01*
X125307213Y-81273028D01*
X125141614Y-81152715D01*
X125098556Y-81130776D01*
X125048917Y-81105483D01*
X124998123Y-81057511D01*
X124981328Y-80989690D01*
X125003865Y-80923555D01*
X125048917Y-80884516D01*
X125141610Y-80837287D01*
X125162770Y-80821913D01*
X125307213Y-80716971D01*
X125307215Y-80716968D01*
X125307219Y-80716966D01*
X125451966Y-80572219D01*
X125451968Y-80572215D01*
X125451971Y-80572213D01*
X125553269Y-80432786D01*
X125572287Y-80406610D01*
X125665220Y-80224219D01*
X125728477Y-80029534D01*
X125760500Y-79827352D01*
X125760500Y-79622648D01*
X125741846Y-79504874D01*
X125728478Y-79420472D01*
X125728477Y-79420471D01*
X125728477Y-79420466D01*
X125723825Y-79406151D01*
X125721832Y-79336312D01*
X125754075Y-79280158D01*
X127734520Y-77299716D01*
X127813577Y-77162784D01*
X127854501Y-77010057D01*
X127854501Y-76851942D01*
X127854501Y-76844347D01*
X127854500Y-76844329D01*
X127854500Y-70025153D01*
X137883500Y-70025153D01*
X137883500Y-70182846D01*
X137914261Y-70337489D01*
X137914264Y-70337501D01*
X137974602Y-70483172D01*
X137974609Y-70483185D01*
X138062602Y-70614874D01*
X138083480Y-70681551D01*
X138083500Y-70683765D01*
X138083500Y-78160234D01*
X138063815Y-78227273D01*
X138062602Y-78229125D01*
X137974609Y-78360814D01*
X137974602Y-78360827D01*
X137914264Y-78506498D01*
X137914261Y-78506510D01*
X137883500Y-78661153D01*
X137883500Y-78818846D01*
X137914261Y-78973489D01*
X137914264Y-78973501D01*
X137974602Y-79119172D01*
X137974609Y-79119185D01*
X138062210Y-79250288D01*
X138062213Y-79250292D01*
X138173707Y-79361786D01*
X138173711Y-79361789D01*
X138304814Y-79449390D01*
X138304827Y-79449397D01*
X138450498Y-79509735D01*
X138450503Y-79509737D01*
X138604575Y-79540384D01*
X138605153Y-79540499D01*
X138605156Y-79540500D01*
X138605158Y-79540500D01*
X138762844Y-79540500D01*
X138762845Y-79540499D01*
X138917497Y-79509737D01*
X139063179Y-79449394D01*
X139194289Y-79361789D01*
X139305789Y-79250289D01*
X139393394Y-79119179D01*
X139453737Y-78973497D01*
X139484500Y-78818842D01*
X139484500Y-78661158D01*
X139484500Y-78661155D01*
X139484499Y-78661153D01*
X139479948Y-78638274D01*
X139453737Y-78506503D01*
X139444054Y-78483125D01*
X139393397Y-78360827D01*
X139393390Y-78360814D01*
X139305398Y-78229125D01*
X139284520Y-78162447D01*
X139284500Y-78160234D01*
X139284500Y-70683765D01*
X139304185Y-70616726D01*
X139305398Y-70614874D01*
X139393390Y-70483185D01*
X139393390Y-70483184D01*
X139393394Y-70483179D01*
X139397197Y-70473999D01*
X139437049Y-70377785D01*
X139453737Y-70337497D01*
X139484500Y-70182842D01*
X139484500Y-70025158D01*
X139484500Y-70025155D01*
X139484499Y-70025153D01*
X139477877Y-69991861D01*
X139453737Y-69870503D01*
X139445875Y-69851523D01*
X139393397Y-69724827D01*
X139393390Y-69724814D01*
X139305789Y-69593711D01*
X139305786Y-69593707D01*
X139194292Y-69482213D01*
X139194288Y-69482210D01*
X139063185Y-69394609D01*
X139063172Y-69394602D01*
X138917501Y-69334264D01*
X138917489Y-69334261D01*
X138762845Y-69303500D01*
X138762842Y-69303500D01*
X138605158Y-69303500D01*
X138605155Y-69303500D01*
X138450510Y-69334261D01*
X138450498Y-69334264D01*
X138304827Y-69394602D01*
X138304814Y-69394609D01*
X138173711Y-69482210D01*
X138173707Y-69482213D01*
X138062213Y-69593707D01*
X138062210Y-69593711D01*
X137974609Y-69724814D01*
X137974602Y-69724827D01*
X137914264Y-69870498D01*
X137914261Y-69870510D01*
X137883500Y-70025153D01*
X127854500Y-70025153D01*
X127854500Y-64663890D01*
X127874185Y-64596851D01*
X127926989Y-64551096D01*
X127996147Y-64541152D01*
X128002665Y-64542268D01*
X128047045Y-64551096D01*
X128064157Y-64554500D01*
X128064158Y-64554500D01*
X128221844Y-64554500D01*
X128221845Y-64554499D01*
X128376497Y-64523737D01*
X128522179Y-64463394D01*
X128653289Y-64375789D01*
X128764789Y-64264289D01*
X128852394Y-64133179D01*
X128912737Y-63987497D01*
X128943500Y-63832842D01*
X128943500Y-63675158D01*
X128943500Y-63675155D01*
X128943499Y-63675153D01*
X128912739Y-63520511D01*
X128912736Y-63520501D01*
X128901356Y-63493028D01*
X128879938Y-63441320D01*
X128870500Y-63393869D01*
X128870500Y-61793765D01*
X128890185Y-61726726D01*
X128891398Y-61724874D01*
X128979390Y-61593185D01*
X128979390Y-61593184D01*
X128979394Y-61593179D01*
X129039737Y-61447497D01*
X129070500Y-61292842D01*
X129070500Y-61135158D01*
X129070500Y-61135155D01*
X129070499Y-61135153D01*
X129063065Y-61097781D01*
X129039737Y-60980503D01*
X129028357Y-60953028D01*
X128979397Y-60834827D01*
X128979390Y-60834814D01*
X128891789Y-60703711D01*
X128891786Y-60703707D01*
X128780292Y-60592213D01*
X128780288Y-60592210D01*
X128649185Y-60504609D01*
X128649172Y-60504602D01*
X128503501Y-60444264D01*
X128503489Y-60444261D01*
X128348845Y-60413500D01*
X128348842Y-60413500D01*
X128191158Y-60413500D01*
X128191155Y-60413500D01*
X128036510Y-60444261D01*
X128036498Y-60444264D01*
X128025952Y-60448633D01*
X127956482Y-60456102D01*
X127894003Y-60424826D01*
X127858352Y-60364737D01*
X127854500Y-60334072D01*
X127854500Y-46553765D01*
X127874185Y-46486726D01*
X127875398Y-46484874D01*
X127918583Y-46420244D01*
X127963394Y-46353179D01*
X128023737Y-46207497D01*
X128054500Y-46052842D01*
X128054500Y-45895158D01*
X128054500Y-45895155D01*
X128054499Y-45895153D01*
X128046937Y-45857135D01*
X128023737Y-45740503D01*
X128010458Y-45708444D01*
X127963397Y-45594827D01*
X127963390Y-45594814D01*
X127875789Y-45463711D01*
X127875786Y-45463707D01*
X127764292Y-45352213D01*
X127764288Y-45352210D01*
X127633185Y-45264609D01*
X127633172Y-45264602D01*
X127487501Y-45204264D01*
X127487489Y-45204261D01*
X127332845Y-45173500D01*
X127332842Y-45173500D01*
X127175158Y-45173500D01*
X127175155Y-45173500D01*
X127020510Y-45204261D01*
X127020498Y-45204264D01*
X126874827Y-45264602D01*
X126874814Y-45264609D01*
X126743711Y-45352210D01*
X126743707Y-45352213D01*
X126632213Y-45463707D01*
X126632210Y-45463711D01*
X126544609Y-45594814D01*
X126544602Y-45594827D01*
X126484264Y-45740498D01*
X126484261Y-45740510D01*
X126453500Y-45895153D01*
X126453500Y-46052846D01*
X126484261Y-46207489D01*
X126484264Y-46207501D01*
X126544602Y-46353172D01*
X126544609Y-46353185D01*
X126632602Y-46484874D01*
X126653480Y-46551551D01*
X126653500Y-46553765D01*
X126653500Y-47462500D01*
X126633815Y-47529539D01*
X126581011Y-47575294D01*
X126529500Y-47586500D01*
X126413155Y-47586500D01*
X126258510Y-47617261D01*
X126258498Y-47617264D01*
X126112827Y-47677602D01*
X126112814Y-47677609D01*
X125981711Y-47765210D01*
X125981707Y-47765213D01*
X125870213Y-47876707D01*
X125870210Y-47876711D01*
X125782609Y-48007814D01*
X125782602Y-48007827D01*
X125722264Y-48153498D01*
X125722261Y-48153510D01*
X125691500Y-48308153D01*
X125691500Y-48465846D01*
X125722261Y-48620489D01*
X125722264Y-48620501D01*
X125782602Y-48766172D01*
X125782609Y-48766185D01*
X125840147Y-48852295D01*
X125867338Y-48892990D01*
X125870602Y-48897874D01*
X125891480Y-48964551D01*
X125891500Y-48966765D01*
X125891500Y-53065109D01*
X125871815Y-53132148D01*
X125819011Y-53177903D01*
X125749853Y-53187847D01*
X125743309Y-53186726D01*
X125681845Y-53174500D01*
X125681842Y-53174500D01*
X125524158Y-53174500D01*
X125524155Y-53174500D01*
X125369510Y-53205261D01*
X125369498Y-53205264D01*
X125223827Y-53265602D01*
X125223814Y-53265609D01*
X125092711Y-53353210D01*
X125092707Y-53353213D01*
X124981213Y-53464707D01*
X124981210Y-53464711D01*
X124893609Y-53595814D01*
X124893602Y-53595827D01*
X124833264Y-53741498D01*
X124833261Y-53741510D01*
X124802500Y-53896153D01*
X124802500Y-54053846D01*
X124831762Y-54200954D01*
X124825535Y-54270545D01*
X124782672Y-54325723D01*
X124716782Y-54348967D01*
X124685954Y-54346762D01*
X124538845Y-54317500D01*
X124538842Y-54317500D01*
X124381158Y-54317500D01*
X124381155Y-54317500D01*
X124226510Y-54348261D01*
X124226498Y-54348264D01*
X124080827Y-54408602D01*
X124080814Y-54408609D01*
X123949711Y-54496210D01*
X123949707Y-54496213D01*
X123838213Y-54607707D01*
X123838210Y-54607711D01*
X123750609Y-54738814D01*
X123750602Y-54738827D01*
X123690264Y-54884498D01*
X123690261Y-54884510D01*
X123659500Y-55039153D01*
X123659500Y-55196846D01*
X123690261Y-55351489D01*
X123690264Y-55351501D01*
X123750602Y-55497172D01*
X123750609Y-55497185D01*
X123838602Y-55628874D01*
X123859480Y-55695551D01*
X123859500Y-55697765D01*
X123859500Y-57764109D01*
X123839815Y-57831148D01*
X123787011Y-57876903D01*
X123717853Y-57886847D01*
X123711309Y-57885726D01*
X123649845Y-57873500D01*
X123649842Y-57873500D01*
X123492158Y-57873500D01*
X123492155Y-57873500D01*
X123337510Y-57904261D01*
X123337498Y-57904264D01*
X123191827Y-57964602D01*
X123191814Y-57964609D01*
X123060711Y-58052210D01*
X123060707Y-58052213D01*
X122949213Y-58163707D01*
X122949210Y-58163711D01*
X122861609Y-58294814D01*
X122861602Y-58294827D01*
X122801264Y-58440498D01*
X122801261Y-58440510D01*
X122770500Y-58595153D01*
X122770500Y-58752846D01*
X122801261Y-58907489D01*
X122801264Y-58907501D01*
X122861602Y-59053172D01*
X122861609Y-59053185D01*
X122949602Y-59184874D01*
X122970480Y-59251551D01*
X122970500Y-59253765D01*
X122970500Y-64441059D01*
X122950815Y-64508098D01*
X122934181Y-64528740D01*
X122822213Y-64640707D01*
X122822210Y-64640711D01*
X122734609Y-64771814D01*
X122734602Y-64771827D01*
X122674264Y-64917498D01*
X122674261Y-64917510D01*
X122643500Y-65072153D01*
X122643500Y-65229846D01*
X122674261Y-65384489D01*
X122674264Y-65384501D01*
X122734602Y-65530172D01*
X122734609Y-65530185D01*
X122822210Y-65661288D01*
X122822213Y-65661292D01*
X122933707Y-65772786D01*
X122933711Y-65772789D01*
X123064814Y-65860390D01*
X123064827Y-65860397D01*
X123191131Y-65912713D01*
X123210503Y-65920737D01*
X123300085Y-65938556D01*
X123365153Y-65951499D01*
X123365156Y-65951500D01*
X123365158Y-65951500D01*
X123522844Y-65951500D01*
X123522845Y-65951499D01*
X123677497Y-65920737D01*
X123823179Y-65860394D01*
X123954289Y-65772789D01*
X124065789Y-65661289D01*
X124153394Y-65530179D01*
X124213737Y-65384497D01*
X124244500Y-65229842D01*
X124244500Y-65072158D01*
X124244500Y-65072155D01*
X124244499Y-65072153D01*
X124213739Y-64917511D01*
X124213736Y-64917501D01*
X124210716Y-64910211D01*
X124180938Y-64838320D01*
X124171500Y-64790869D01*
X124171500Y-62123890D01*
X124191185Y-62056851D01*
X124243989Y-62011096D01*
X124313147Y-62001152D01*
X124319665Y-62002268D01*
X124364045Y-62011096D01*
X124381157Y-62014500D01*
X124381158Y-62014500D01*
X124538844Y-62014500D01*
X124538845Y-62014499D01*
X124693497Y-61983737D01*
X124831048Y-61926761D01*
X124900517Y-61919293D01*
X124962996Y-61950568D01*
X124998648Y-62010657D01*
X125002500Y-62041323D01*
X125002500Y-70680500D01*
X124982815Y-70747539D01*
X124930011Y-70793294D01*
X124878500Y-70804500D01*
X123612129Y-70804500D01*
X123612123Y-70804501D01*
X123552516Y-70810908D01*
X123417671Y-70861202D01*
X123417664Y-70861206D01*
X123302455Y-70947452D01*
X123302452Y-70947455D01*
X123216206Y-71062664D01*
X123216202Y-71062671D01*
X123165908Y-71197517D01*
X123159821Y-71254142D01*
X123159501Y-71257123D01*
X123159500Y-71257135D01*
X123159500Y-72952870D01*
X123159501Y-72952876D01*
X123165908Y-73012483D01*
X123216202Y-73147328D01*
X123216206Y-73147335D01*
X123302452Y-73262544D01*
X123302455Y-73262547D01*
X123417664Y-73348793D01*
X123417671Y-73348797D01*
X123435552Y-73355466D01*
X123552517Y-73399091D01*
X123589441Y-73403060D01*
X123653989Y-73429796D01*
X123693838Y-73487188D01*
X123696333Y-73557013D01*
X123660681Y-73617102D01*
X123649071Y-73626666D01*
X123612784Y-73653030D01*
X123468028Y-73797786D01*
X123347715Y-73963386D01*
X123254781Y-74145776D01*
X123191522Y-74340465D01*
X123159500Y-74542648D01*
X123159500Y-74747351D01*
X123191522Y-74949534D01*
X123254781Y-75144223D01*
X123316777Y-75265894D01*
X123338831Y-75309179D01*
X123347715Y-75326613D01*
X123468028Y-75492213D01*
X123612786Y-75636971D01*
X123767749Y-75749556D01*
X123778390Y-75757287D01*
X123869840Y-75803883D01*
X123871080Y-75804515D01*
X123921876Y-75852490D01*
X123938671Y-75920311D01*
X123916134Y-75986446D01*
X123871080Y-76025485D01*
X123778386Y-76072715D01*
X123612786Y-76193028D01*
X123468028Y-76337786D01*
X123347715Y-76503386D01*
X123254781Y-76685776D01*
X123191522Y-76880465D01*
X123165112Y-77047213D01*
X123159500Y-77082648D01*
X123159500Y-77287352D01*
X123163449Y-77312284D01*
X123191522Y-77489534D01*
X123254781Y-77684223D01*
X123347715Y-77866613D01*
X123468028Y-78032213D01*
X123612786Y-78176971D01*
X123754814Y-78280158D01*
X123778390Y-78297287D01*
X123868242Y-78343069D01*
X123871080Y-78344515D01*
X123921876Y-78392490D01*
X123938671Y-78460311D01*
X123916134Y-78526446D01*
X123871080Y-78565485D01*
X123778386Y-78612715D01*
X123612786Y-78733028D01*
X123468028Y-78877786D01*
X123347715Y-79043386D01*
X123254781Y-79225776D01*
X123191522Y-79420465D01*
X123159500Y-79622648D01*
X123159500Y-79827351D01*
X123191522Y-80029534D01*
X123254781Y-80224223D01*
X123297161Y-80307397D01*
X123343580Y-80398499D01*
X123347715Y-80406613D01*
X123468028Y-80572213D01*
X123612786Y-80716971D01*
X123760930Y-80824602D01*
X123778390Y-80837287D01*
X123858406Y-80878057D01*
X123871080Y-80884515D01*
X123921876Y-80932490D01*
X123938671Y-81000311D01*
X123916134Y-81066446D01*
X123871080Y-81105485D01*
X123778386Y-81152715D01*
X123612786Y-81273028D01*
X123468028Y-81417786D01*
X123347715Y-81583386D01*
X123254781Y-81765776D01*
X123191522Y-81960465D01*
X123159500Y-82162648D01*
X123159500Y-82367351D01*
X123191522Y-82569534D01*
X123221075Y-82660485D01*
X123247295Y-82741182D01*
X123248098Y-82769302D01*
X123252102Y-82797147D01*
X123249082Y-82803758D01*
X123249290Y-82811023D01*
X123234763Y-82835112D01*
X123223077Y-82860703D01*
X123216963Y-82864632D01*
X123213210Y-82870856D01*
X123187963Y-82883268D01*
X123164299Y-82898477D01*
X123154028Y-82899953D01*
X123150509Y-82901684D01*
X123129364Y-82903500D01*
X123061519Y-82903500D01*
X122994480Y-82883815D01*
X122973838Y-82867181D01*
X120711819Y-80605162D01*
X120678334Y-80543839D01*
X120675500Y-80517481D01*
X120675500Y-73901744D01*
X120695185Y-73834705D01*
X120726615Y-73801426D01*
X120822215Y-73731969D01*
X120822215Y-73731968D01*
X120822219Y-73731966D01*
X120966966Y-73587219D01*
X120966968Y-73587215D01*
X120966971Y-73587213D01*
X121029080Y-73501726D01*
X121087287Y-73421610D01*
X121180220Y-73239219D01*
X121243477Y-73044534D01*
X121275500Y-72842352D01*
X121275500Y-72637648D01*
X121261256Y-72547715D01*
X121243477Y-72435465D01*
X121182610Y-72248138D01*
X121180220Y-72240781D01*
X121180218Y-72240778D01*
X121180218Y-72240776D01*
X121137278Y-72156503D01*
X121087287Y-72058390D01*
X121055092Y-72014077D01*
X120966971Y-71892786D01*
X120822213Y-71748028D01*
X120656613Y-71627715D01*
X120656612Y-71627714D01*
X120656610Y-71627713D01*
X120599653Y-71598691D01*
X120474223Y-71534781D01*
X120279534Y-71471522D01*
X120104995Y-71443878D01*
X120077352Y-71439500D01*
X119872648Y-71439500D01*
X119755929Y-71457986D01*
X119686636Y-71449031D01*
X119648851Y-71423194D01*
X115711819Y-67486162D01*
X115678334Y-67424839D01*
X115675500Y-67398481D01*
X115675500Y-48786744D01*
X115675985Y-48785091D01*
X115675544Y-48783424D01*
X115685795Y-48751681D01*
X115695185Y-48719705D01*
X115696656Y-48718051D01*
X115697017Y-48716936D01*
X115704700Y-48709015D01*
X115720835Y-48690891D01*
X115723663Y-48688569D01*
X115822219Y-48616966D01*
X115966966Y-48472219D01*
X115966968Y-48472215D01*
X115966971Y-48472213D01*
X116049320Y-48358867D01*
X116087287Y-48306610D01*
X116180220Y-48124219D01*
X116243477Y-47929534D01*
X116275500Y-47727352D01*
X116275500Y-47522682D01*
X118675000Y-47522682D01*
X118675000Y-47727317D01*
X118707009Y-47929417D01*
X118770244Y-48124031D01*
X118863141Y-48306350D01*
X118863147Y-48306359D01*
X118895523Y-48350921D01*
X118895524Y-48350922D01*
X119575000Y-47671446D01*
X119575000Y-47677661D01*
X119602259Y-47779394D01*
X119654920Y-47870606D01*
X119729394Y-47945080D01*
X119820606Y-47997741D01*
X119922339Y-48025000D01*
X119928553Y-48025000D01*
X119249076Y-48704474D01*
X119293650Y-48736859D01*
X119475968Y-48829755D01*
X119670582Y-48892990D01*
X119872683Y-48925000D01*
X120077317Y-48925000D01*
X120279417Y-48892990D01*
X120474031Y-48829755D01*
X120656349Y-48736859D01*
X120700921Y-48704474D01*
X120021447Y-48025000D01*
X120027661Y-48025000D01*
X120129394Y-47997741D01*
X120220606Y-47945080D01*
X120295080Y-47870606D01*
X120347741Y-47779394D01*
X120375000Y-47677661D01*
X120375000Y-47671447D01*
X121054474Y-48350921D01*
X121086859Y-48306349D01*
X121179755Y-48124031D01*
X121242990Y-47929417D01*
X121275000Y-47727317D01*
X121275000Y-47522682D01*
X121242990Y-47320582D01*
X121179755Y-47125968D01*
X121086859Y-46943650D01*
X121054474Y-46899077D01*
X121054474Y-46899076D01*
X120375000Y-47578551D01*
X120375000Y-47572339D01*
X120347741Y-47470606D01*
X120295080Y-47379394D01*
X120220606Y-47304920D01*
X120129394Y-47252259D01*
X120027661Y-47225000D01*
X120021446Y-47225000D01*
X120700922Y-46545524D01*
X120700921Y-46545523D01*
X120656359Y-46513147D01*
X120656350Y-46513141D01*
X120474031Y-46420244D01*
X120279417Y-46357009D01*
X120077317Y-46325000D01*
X119872683Y-46325000D01*
X119670582Y-46357009D01*
X119475968Y-46420244D01*
X119293644Y-46513143D01*
X119249077Y-46545523D01*
X119249077Y-46545524D01*
X119928554Y-47225000D01*
X119922339Y-47225000D01*
X119820606Y-47252259D01*
X119729394Y-47304920D01*
X119654920Y-47379394D01*
X119602259Y-47470606D01*
X119575000Y-47572339D01*
X119575000Y-47578553D01*
X118895524Y-46899077D01*
X118895523Y-46899077D01*
X118863143Y-46943644D01*
X118770244Y-47125968D01*
X118707009Y-47320582D01*
X118675000Y-47522682D01*
X116275500Y-47522682D01*
X116275500Y-47522648D01*
X116259503Y-47421650D01*
X116243477Y-47320465D01*
X116212458Y-47225000D01*
X116180220Y-47125781D01*
X116180218Y-47125778D01*
X116180218Y-47125776D01*
X116146503Y-47059607D01*
X116087287Y-46943390D01*
X116055092Y-46899077D01*
X115966971Y-46777786D01*
X115822213Y-46633028D01*
X115656613Y-46512715D01*
X115656612Y-46512714D01*
X115656610Y-46512713D01*
X115599653Y-46483691D01*
X115474223Y-46419781D01*
X115279534Y-46356522D01*
X115102834Y-46328536D01*
X115077352Y-46324500D01*
X114872648Y-46324500D01*
X114848329Y-46328351D01*
X114670465Y-46356522D01*
X114475776Y-46419781D01*
X114293386Y-46512715D01*
X114127786Y-46633028D01*
X113983028Y-46777786D01*
X113862715Y-46943386D01*
X113769781Y-47125776D01*
X113706522Y-47320465D01*
X113674500Y-47522648D01*
X113674500Y-47727351D01*
X113706522Y-47929534D01*
X113769781Y-48124223D01*
X113821113Y-48224966D01*
X113862585Y-48306359D01*
X113862715Y-48306613D01*
X113983028Y-48472213D01*
X114127784Y-48616969D01*
X114223385Y-48686426D01*
X114266051Y-48741755D01*
X114274500Y-48786744D01*
X114274500Y-67671006D01*
X114274500Y-67808994D01*
X114274500Y-67808996D01*
X114274499Y-67808996D01*
X114301418Y-67944322D01*
X114301421Y-67944332D01*
X114354222Y-68071807D01*
X114430887Y-68186545D01*
X114430888Y-68186546D01*
X118658194Y-72413851D01*
X118691679Y-72475174D01*
X118692986Y-72520929D01*
X118674500Y-72637647D01*
X118674500Y-72842351D01*
X118706522Y-73044534D01*
X118769781Y-73239223D01*
X118829011Y-73355466D01*
X118862585Y-73421359D01*
X118862715Y-73421613D01*
X118983028Y-73587213D01*
X119127784Y-73731969D01*
X119223385Y-73801426D01*
X119266051Y-73856755D01*
X119274500Y-73901744D01*
X119274500Y-80790006D01*
X119274500Y-80927994D01*
X119274500Y-80927996D01*
X119274499Y-80927996D01*
X119301418Y-81063322D01*
X119301421Y-81063332D01*
X119354222Y-81190807D01*
X119430887Y-81305545D01*
X122273454Y-84148112D01*
X122273457Y-84148114D01*
X122388189Y-84224775D01*
X122515671Y-84277580D01*
X122542221Y-84282861D01*
X122569417Y-84288270D01*
X122651004Y-84304500D01*
X122651007Y-84304500D01*
X123084524Y-84304500D01*
X123151563Y-84324185D01*
X123197318Y-84376989D01*
X123207262Y-84446147D01*
X123202455Y-84466817D01*
X123191524Y-84500457D01*
X123191523Y-84500464D01*
X123159500Y-84702648D01*
X123159500Y-84907351D01*
X123191522Y-85109534D01*
X123254781Y-85304223D01*
X123347715Y-85486613D01*
X123468028Y-85652213D01*
X123612786Y-85796971D01*
X123767749Y-85909556D01*
X123778390Y-85917287D01*
X123869840Y-85963883D01*
X123871080Y-85964515D01*
X123921876Y-86012490D01*
X123938671Y-86080311D01*
X123916134Y-86146446D01*
X123871080Y-86185485D01*
X123778386Y-86232715D01*
X123612786Y-86353028D01*
X123468028Y-86497786D01*
X123347715Y-86663386D01*
X123254781Y-86845776D01*
X123191522Y-87040465D01*
X123159500Y-87242648D01*
X123159500Y-87447351D01*
X123191522Y-87649534D01*
X123254781Y-87844223D01*
X123318691Y-87969653D01*
X123338294Y-88008125D01*
X123347715Y-88026613D01*
X123468028Y-88192213D01*
X123612786Y-88336971D01*
X123754807Y-88440153D01*
X123778390Y-88457287D01*
X123869840Y-88503883D01*
X123871080Y-88504515D01*
X123921876Y-88552490D01*
X123938671Y-88620311D01*
X123916134Y-88686446D01*
X123871080Y-88725485D01*
X123778386Y-88772715D01*
X123612786Y-88893028D01*
X123468028Y-89037786D01*
X123347715Y-89203386D01*
X123254781Y-89385776D01*
X123191522Y-89580465D01*
X123159500Y-89782648D01*
X123159500Y-89987351D01*
X123191523Y-90189535D01*
X123191523Y-90189538D01*
X123234947Y-90323182D01*
X123236942Y-90393023D01*
X123200862Y-90452856D01*
X123138161Y-90483684D01*
X123117016Y-90485500D01*
X113498519Y-90485500D01*
X113431480Y-90465815D01*
X113410838Y-90449181D01*
X108686819Y-85725162D01*
X108653334Y-85663839D01*
X108650500Y-85637481D01*
X108650500Y-72637682D01*
X109150000Y-72637682D01*
X109150000Y-72842317D01*
X109182009Y-73044417D01*
X109245244Y-73239031D01*
X109338141Y-73421350D01*
X109338147Y-73421359D01*
X109370523Y-73465921D01*
X109370524Y-73465922D01*
X110050000Y-72786446D01*
X110050000Y-72792661D01*
X110077259Y-72894394D01*
X110129920Y-72985606D01*
X110204394Y-73060080D01*
X110295606Y-73112741D01*
X110397339Y-73140000D01*
X110403553Y-73140000D01*
X109724076Y-73819474D01*
X109768650Y-73851859D01*
X109950968Y-73944755D01*
X110145582Y-74007990D01*
X110347683Y-74040000D01*
X110552317Y-74040000D01*
X110754417Y-74007990D01*
X110949031Y-73944755D01*
X111131349Y-73851859D01*
X111175921Y-73819474D01*
X110496447Y-73140000D01*
X110502661Y-73140000D01*
X110604394Y-73112741D01*
X110695606Y-73060080D01*
X110770080Y-72985606D01*
X110822741Y-72894394D01*
X110850000Y-72792661D01*
X110850000Y-72786447D01*
X111529474Y-73465921D01*
X111561859Y-73421349D01*
X111654755Y-73239031D01*
X111717990Y-73044417D01*
X111750000Y-72842317D01*
X111750000Y-72637682D01*
X113675000Y-72637682D01*
X113675000Y-72842317D01*
X113707009Y-73044417D01*
X113770244Y-73239031D01*
X113863141Y-73421350D01*
X113863147Y-73421359D01*
X113895523Y-73465921D01*
X113895524Y-73465922D01*
X114575000Y-72786446D01*
X114575000Y-72792661D01*
X114602259Y-72894394D01*
X114654920Y-72985606D01*
X114729394Y-73060080D01*
X114820606Y-73112741D01*
X114922339Y-73140000D01*
X114928553Y-73140000D01*
X114249076Y-73819474D01*
X114293650Y-73851859D01*
X114475968Y-73944755D01*
X114670582Y-74007990D01*
X114872683Y-74040000D01*
X115077317Y-74040000D01*
X115279417Y-74007990D01*
X115474031Y-73944755D01*
X115656349Y-73851859D01*
X115700921Y-73819474D01*
X115021447Y-73140000D01*
X115027661Y-73140000D01*
X115129394Y-73112741D01*
X115220606Y-73060080D01*
X115295080Y-72985606D01*
X115347741Y-72894394D01*
X115375000Y-72792661D01*
X115375000Y-72786447D01*
X116054474Y-73465921D01*
X116086859Y-73421349D01*
X116179755Y-73239031D01*
X116242990Y-73044417D01*
X116275000Y-72842317D01*
X116275000Y-72637682D01*
X116242990Y-72435582D01*
X116179755Y-72240968D01*
X116086859Y-72058650D01*
X116054474Y-72014077D01*
X116054474Y-72014076D01*
X115375000Y-72693551D01*
X115375000Y-72687339D01*
X115347741Y-72585606D01*
X115295080Y-72494394D01*
X115220606Y-72419920D01*
X115129394Y-72367259D01*
X115027661Y-72340000D01*
X115021446Y-72340000D01*
X115700922Y-71660524D01*
X115700921Y-71660523D01*
X115656359Y-71628147D01*
X115656350Y-71628141D01*
X115474031Y-71535244D01*
X115279417Y-71472009D01*
X115077317Y-71440000D01*
X114872683Y-71440000D01*
X114670582Y-71472009D01*
X114475968Y-71535244D01*
X114293644Y-71628143D01*
X114249077Y-71660523D01*
X114249077Y-71660524D01*
X114928554Y-72340000D01*
X114922339Y-72340000D01*
X114820606Y-72367259D01*
X114729394Y-72419920D01*
X114654920Y-72494394D01*
X114602259Y-72585606D01*
X114575000Y-72687339D01*
X114575000Y-72693553D01*
X113895524Y-72014077D01*
X113895523Y-72014077D01*
X113863143Y-72058644D01*
X113770244Y-72240968D01*
X113707009Y-72435582D01*
X113675000Y-72637682D01*
X111750000Y-72637682D01*
X111717990Y-72435582D01*
X111654755Y-72240968D01*
X111561859Y-72058650D01*
X111529474Y-72014077D01*
X111529474Y-72014076D01*
X110850000Y-72693551D01*
X110850000Y-72687339D01*
X110822741Y-72585606D01*
X110770080Y-72494394D01*
X110695606Y-72419920D01*
X110604394Y-72367259D01*
X110502661Y-72340000D01*
X110496446Y-72340000D01*
X111175922Y-71660524D01*
X111175921Y-71660523D01*
X111131359Y-71628147D01*
X111131350Y-71628141D01*
X110949031Y-71535244D01*
X110754417Y-71472009D01*
X110552317Y-71440000D01*
X110347683Y-71440000D01*
X110145582Y-71472009D01*
X109950968Y-71535244D01*
X109768644Y-71628143D01*
X109724077Y-71660523D01*
X109724077Y-71660524D01*
X110403554Y-72340000D01*
X110397339Y-72340000D01*
X110295606Y-72367259D01*
X110204394Y-72419920D01*
X110129920Y-72494394D01*
X110077259Y-72585606D01*
X110050000Y-72687339D01*
X110050000Y-72693553D01*
X109370524Y-72014077D01*
X109370523Y-72014077D01*
X109338143Y-72058644D01*
X109245244Y-72240968D01*
X109182009Y-72435582D01*
X109150000Y-72637682D01*
X108650500Y-72637682D01*
X108650500Y-49421004D01*
X108623581Y-49285677D01*
X108623580Y-49285676D01*
X108623580Y-49285672D01*
X108608804Y-49250000D01*
X108570778Y-49158195D01*
X108570774Y-49158188D01*
X108513777Y-49072886D01*
X108513776Y-49072884D01*
X108513775Y-49072882D01*
X108494118Y-49043462D01*
X108494112Y-49043455D01*
X107401805Y-47951148D01*
X107368320Y-47889825D01*
X107367013Y-47844068D01*
X107385500Y-47727352D01*
X107385500Y-47522682D01*
X109785000Y-47522682D01*
X109785000Y-47727317D01*
X109817009Y-47929417D01*
X109880244Y-48124031D01*
X109973141Y-48306350D01*
X109973147Y-48306359D01*
X110005523Y-48350921D01*
X110005524Y-48350922D01*
X110685000Y-47671446D01*
X110685000Y-47677661D01*
X110712259Y-47779394D01*
X110764920Y-47870606D01*
X110839394Y-47945080D01*
X110930606Y-47997741D01*
X111032339Y-48025000D01*
X111038553Y-48025000D01*
X110359076Y-48704474D01*
X110403650Y-48736859D01*
X110585968Y-48829755D01*
X110780582Y-48892990D01*
X110982683Y-48925000D01*
X111187317Y-48925000D01*
X111389417Y-48892990D01*
X111584031Y-48829755D01*
X111766349Y-48736859D01*
X111810921Y-48704474D01*
X111131447Y-48025000D01*
X111137661Y-48025000D01*
X111239394Y-47997741D01*
X111330606Y-47945080D01*
X111405080Y-47870606D01*
X111457741Y-47779394D01*
X111485000Y-47677661D01*
X111485000Y-47671447D01*
X112164474Y-48350921D01*
X112196859Y-48306349D01*
X112289755Y-48124031D01*
X112352990Y-47929417D01*
X112385000Y-47727317D01*
X112385000Y-47522682D01*
X112352990Y-47320582D01*
X112289755Y-47125968D01*
X112196859Y-46943650D01*
X112164474Y-46899077D01*
X112164474Y-46899076D01*
X111485000Y-47578551D01*
X111485000Y-47572339D01*
X111457741Y-47470606D01*
X111405080Y-47379394D01*
X111330606Y-47304920D01*
X111239394Y-47252259D01*
X111137661Y-47225000D01*
X111131446Y-47225000D01*
X111810922Y-46545524D01*
X111810921Y-46545523D01*
X111766359Y-46513147D01*
X111766350Y-46513141D01*
X111584031Y-46420244D01*
X111389417Y-46357009D01*
X111187317Y-46325000D01*
X110982683Y-46325000D01*
X110780582Y-46357009D01*
X110585968Y-46420244D01*
X110403644Y-46513143D01*
X110359077Y-46545523D01*
X110359077Y-46545524D01*
X111038554Y-47225000D01*
X111032339Y-47225000D01*
X110930606Y-47252259D01*
X110839394Y-47304920D01*
X110764920Y-47379394D01*
X110712259Y-47470606D01*
X110685000Y-47572339D01*
X110685000Y-47578553D01*
X110005524Y-46899077D01*
X110005523Y-46899077D01*
X109973143Y-46943644D01*
X109880244Y-47125968D01*
X109817009Y-47320582D01*
X109785000Y-47522682D01*
X107385500Y-47522682D01*
X107385500Y-47522648D01*
X107369503Y-47421650D01*
X107353477Y-47320465D01*
X107322458Y-47225000D01*
X107290220Y-47125781D01*
X107290218Y-47125778D01*
X107290218Y-47125776D01*
X107256503Y-47059607D01*
X107197287Y-46943390D01*
X107165092Y-46899077D01*
X107076971Y-46777786D01*
X106932213Y-46633028D01*
X106766613Y-46512715D01*
X106766612Y-46512714D01*
X106766610Y-46512713D01*
X106709653Y-46483691D01*
X106584223Y-46419781D01*
X106389534Y-46356522D01*
X106212834Y-46328536D01*
X106187352Y-46324500D01*
X105982648Y-46324500D01*
X105958329Y-46328351D01*
X105780465Y-46356522D01*
X105585776Y-46419781D01*
X105403386Y-46512715D01*
X105237786Y-46633028D01*
X105093028Y-46777786D01*
X104972715Y-46943386D01*
X104879781Y-47125776D01*
X104816522Y-47320465D01*
X104784500Y-47522648D01*
X104784500Y-47727351D01*
X104816522Y-47929534D01*
X104879781Y-48124223D01*
X104931113Y-48224966D01*
X104972585Y-48306359D01*
X104972715Y-48306613D01*
X105093028Y-48472213D01*
X105237786Y-48616971D01*
X105375379Y-48716936D01*
X105403390Y-48737287D01*
X105511131Y-48792184D01*
X105585776Y-48830218D01*
X105585778Y-48830218D01*
X105585781Y-48830220D01*
X105653721Y-48852295D01*
X105780465Y-48893477D01*
X105881557Y-48909488D01*
X105982648Y-48925500D01*
X105982649Y-48925500D01*
X106187350Y-48925500D01*
X106187352Y-48925500D01*
X106304068Y-48907013D01*
X106373362Y-48915967D01*
X106411148Y-48941805D01*
X107213181Y-49743838D01*
X107246666Y-49805161D01*
X107249500Y-49831519D01*
X107249500Y-71915500D01*
X107229815Y-71982539D01*
X107177011Y-72028294D01*
X107125500Y-72039500D01*
X106611744Y-72039500D01*
X106544705Y-72019815D01*
X106511425Y-71988384D01*
X106507178Y-71982539D01*
X106494769Y-71965458D01*
X106441969Y-71892784D01*
X106297213Y-71748028D01*
X106131613Y-71627715D01*
X106131612Y-71627714D01*
X106131610Y-71627713D01*
X106074653Y-71598691D01*
X105949223Y-71534781D01*
X105754534Y-71471522D01*
X105579995Y-71443878D01*
X105552352Y-71439500D01*
X105347648Y-71439500D01*
X105323329Y-71443351D01*
X105145465Y-71471522D01*
X104950776Y-71534781D01*
X104768386Y-71627715D01*
X104602786Y-71748028D01*
X104458028Y-71892786D01*
X104337715Y-72058386D01*
X104244781Y-72240776D01*
X104181522Y-72435465D01*
X104149500Y-72637648D01*
X100995500Y-72637648D01*
X100995499Y-72090945D01*
X100995499Y-71257129D01*
X100995498Y-71257123D01*
X100995497Y-71257116D01*
X100989234Y-71198846D01*
X100989091Y-71197516D01*
X100938797Y-71062671D01*
X100938793Y-71062664D01*
X100852547Y-70947455D01*
X100852544Y-70947452D01*
X100737335Y-70861206D01*
X100737328Y-70861202D01*
X100602482Y-70810908D01*
X100602483Y-70810908D01*
X100542883Y-70804501D01*
X100542881Y-70804500D01*
X100542873Y-70804500D01*
X100542864Y-70804500D01*
X98847129Y-70804500D01*
X98847123Y-70804501D01*
X98787516Y-70810908D01*
X98652671Y-70861202D01*
X98652664Y-70861206D01*
X98537455Y-70947452D01*
X98537452Y-70947455D01*
X98451206Y-71062664D01*
X98451202Y-71062671D01*
X98400908Y-71197517D01*
X98394821Y-71254142D01*
X98394501Y-71257123D01*
X98394500Y-71257135D01*
X98394500Y-71280500D01*
X98374815Y-71347539D01*
X98322011Y-71393294D01*
X98270500Y-71404500D01*
X97866349Y-71404500D01*
X97799310Y-71384815D01*
X97753555Y-71332011D01*
X97742349Y-71280500D01*
X97742349Y-71196155D01*
X97742348Y-71196153D01*
X97741685Y-71192819D01*
X97711586Y-71041503D01*
X97694700Y-71000737D01*
X97651246Y-70895827D01*
X97651239Y-70895814D01*
X97563638Y-70764711D01*
X97563635Y-70764707D01*
X97452141Y-70653213D01*
X97452137Y-70653210D01*
X97321034Y-70565609D01*
X97321021Y-70565602D01*
X97175350Y-70505264D01*
X97175340Y-70505261D01*
X97019998Y-70474361D01*
X97003241Y-70465595D01*
X96984763Y-70461576D01*
X96959726Y-70442833D01*
X96958087Y-70441976D01*
X96956509Y-70440425D01*
X96902819Y-70386735D01*
X96869334Y-70325412D01*
X96866500Y-70299054D01*
X96866500Y-69377050D01*
X96886185Y-69310011D01*
X96938989Y-69264256D01*
X96973899Y-69254846D01*
X96973868Y-69254689D01*
X96976220Y-69254221D01*
X96978354Y-69253646D01*
X96979833Y-69253500D01*
X96979842Y-69253500D01*
X96979851Y-69253498D01*
X96979853Y-69253498D01*
X97017164Y-69246075D01*
X97134497Y-69222737D01*
X97280179Y-69162394D01*
X97411289Y-69074789D01*
X97522789Y-68963289D01*
X97610394Y-68832179D01*
X97670737Y-68686497D01*
X97701500Y-68531842D01*
X97701500Y-68374158D01*
X97701500Y-68374155D01*
X97701499Y-68374153D01*
X97681869Y-68275466D01*
X97670737Y-68219503D01*
X97657086Y-68186546D01*
X97610397Y-68073827D01*
X97610390Y-68073814D01*
X97522398Y-67942125D01*
X97501520Y-67875447D01*
X97501500Y-67873234D01*
X97501500Y-67154097D01*
X97521185Y-67087058D01*
X97573989Y-67041303D01*
X97643147Y-67031359D01*
X97706703Y-67060384D01*
X97713181Y-67066416D01*
X98036139Y-67389374D01*
X98036149Y-67389385D01*
X98040479Y-67393715D01*
X98040480Y-67393716D01*
X98152284Y-67505520D01*
X98152286Y-67505521D01*
X98152290Y-67505524D01*
X98218058Y-67543495D01*
X98218062Y-67543496D01*
X98218063Y-67543497D01*
X98253639Y-67564037D01*
X98289212Y-67584576D01*
X98289214Y-67584576D01*
X98289215Y-67584577D01*
X98441942Y-67625500D01*
X98441943Y-67625500D01*
X98465398Y-67625500D01*
X98532437Y-67645185D01*
X98575883Y-67693205D01*
X98582715Y-67706614D01*
X98703028Y-67872213D01*
X98847786Y-68016971D01*
X98965805Y-68102715D01*
X99013390Y-68137287D01*
X99110064Y-68186545D01*
X99195776Y-68230218D01*
X99195778Y-68230218D01*
X99195781Y-68230220D01*
X99300137Y-68264127D01*
X99390465Y-68293477D01*
X99491557Y-68309488D01*
X99592648Y-68325500D01*
X99592649Y-68325500D01*
X99797351Y-68325500D01*
X99797352Y-68325500D01*
X99999534Y-68293477D01*
X100194219Y-68230220D01*
X100376610Y-68137287D01*
X100492271Y-68053255D01*
X100542213Y-68016971D01*
X100542215Y-68016968D01*
X100542219Y-68016966D01*
X100686966Y-67872219D01*
X100686968Y-67872215D01*
X100686971Y-67872213D01*
X100788268Y-67732787D01*
X100807287Y-67706610D01*
X100900220Y-67524219D01*
X100963477Y-67329534D01*
X100995500Y-67127352D01*
X100995500Y-66922648D01*
X100986343Y-66864836D01*
X100963477Y-66720465D01*
X100915297Y-66572184D01*
X100900220Y-66525781D01*
X100900218Y-66525778D01*
X100900218Y-66525776D01*
X100866503Y-66459607D01*
X100807287Y-66343390D01*
X100765024Y-66285219D01*
X100686971Y-66177786D01*
X100542213Y-66033028D01*
X100376614Y-65912715D01*
X100350709Y-65899516D01*
X100283917Y-65865483D01*
X100233123Y-65817511D01*
X100216328Y-65749690D01*
X100238865Y-65683555D01*
X100283917Y-65644516D01*
X100376610Y-65597287D01*
X100397770Y-65581913D01*
X100542213Y-65476971D01*
X100542215Y-65476968D01*
X100542219Y-65476966D01*
X100686966Y-65332219D01*
X100686968Y-65332215D01*
X100686971Y-65332213D01*
X100743259Y-65254738D01*
X100807287Y-65166610D01*
X100900220Y-64984219D01*
X100963477Y-64789534D01*
X100995500Y-64587352D01*
X100995500Y-64382648D01*
X100976754Y-64264292D01*
X100963477Y-64180465D01*
X100915297Y-64032184D01*
X100900220Y-63985781D01*
X100900218Y-63985778D01*
X100900218Y-63985776D01*
X100858845Y-63904578D01*
X100807287Y-63803390D01*
X100770880Y-63753279D01*
X100686971Y-63637786D01*
X100542213Y-63493028D01*
X100376614Y-63372715D01*
X100350709Y-63359516D01*
X100283917Y-63325483D01*
X100233123Y-63277511D01*
X100216328Y-63209690D01*
X100238865Y-63143555D01*
X100283917Y-63104516D01*
X100376610Y-63057287D01*
X100397770Y-63041913D01*
X100542213Y-62936971D01*
X100542215Y-62936968D01*
X100542219Y-62936966D01*
X100686966Y-62792219D01*
X100686968Y-62792215D01*
X100686971Y-62792213D01*
X100754856Y-62698775D01*
X100807287Y-62626610D01*
X100900220Y-62444219D01*
X100963477Y-62249534D01*
X100995500Y-62047352D01*
X100995500Y-61842648D01*
X100977433Y-61728581D01*
X100963477Y-61640465D01*
X100930688Y-61539553D01*
X100900220Y-61445781D01*
X100900218Y-61445778D01*
X100900218Y-61445776D01*
X100844250Y-61335934D01*
X100807287Y-61263390D01*
X100799556Y-61252749D01*
X100686971Y-61097786D01*
X100542213Y-60953028D01*
X100376614Y-60832715D01*
X100350709Y-60819516D01*
X100283917Y-60785483D01*
X100233123Y-60737511D01*
X100216328Y-60669690D01*
X100238865Y-60603555D01*
X100283917Y-60564516D01*
X100376610Y-60517287D01*
X100414304Y-60489901D01*
X100542213Y-60396971D01*
X100542215Y-60396968D01*
X100542219Y-60396966D01*
X100686966Y-60252219D01*
X100686968Y-60252215D01*
X100686971Y-60252213D01*
X100770509Y-60137231D01*
X100807287Y-60086610D01*
X100900220Y-59904219D01*
X100963477Y-59709534D01*
X100995500Y-59507352D01*
X100995500Y-59302648D01*
X100988879Y-59260844D01*
X100963477Y-59100465D01*
X100915297Y-58952184D01*
X100900220Y-58905781D01*
X100900218Y-58905778D01*
X100900218Y-58905776D01*
X100866503Y-58839607D01*
X100807287Y-58723390D01*
X100799556Y-58712749D01*
X100686971Y-58557786D01*
X100542213Y-58413028D01*
X100376614Y-58292715D01*
X100350709Y-58279516D01*
X100283917Y-58245483D01*
X100233123Y-58197511D01*
X100216328Y-58129690D01*
X100238865Y-58063555D01*
X100283917Y-58024516D01*
X100376610Y-57977287D01*
X100468987Y-57910172D01*
X100542213Y-57856971D01*
X100542215Y-57856968D01*
X100542219Y-57856966D01*
X100686966Y-57712219D01*
X100686968Y-57712215D01*
X100686971Y-57712213D01*
X100740589Y-57638412D01*
X100807287Y-57546610D01*
X100900220Y-57364219D01*
X100963477Y-57169534D01*
X100995500Y-56967352D01*
X100995500Y-56762648D01*
X100968763Y-56593842D01*
X100963477Y-56560465D01*
X100915297Y-56412184D01*
X100900220Y-56365781D01*
X100900218Y-56365778D01*
X100900218Y-56365776D01*
X100857278Y-56281503D01*
X100807287Y-56183390D01*
X100772731Y-56135827D01*
X100686971Y-56017786D01*
X100542213Y-55873028D01*
X100376614Y-55752715D01*
X100350709Y-55739516D01*
X100283917Y-55705483D01*
X100233123Y-55657511D01*
X100216328Y-55589690D01*
X100238865Y-55523555D01*
X100283917Y-55484516D01*
X100376610Y-55437287D01*
X100397770Y-55421913D01*
X100542213Y-55316971D01*
X100542215Y-55316968D01*
X100542219Y-55316966D01*
X100686966Y-55172219D01*
X100686968Y-55172215D01*
X100686971Y-55172213D01*
X100781829Y-55041650D01*
X100807287Y-55006610D01*
X100900220Y-54824219D01*
X100963477Y-54629534D01*
X100995500Y-54427352D01*
X100995500Y-54222648D01*
X100970677Y-54065922D01*
X100963477Y-54020465D01*
X100915297Y-53872184D01*
X100900220Y-53825781D01*
X100900218Y-53825778D01*
X100900218Y-53825776D01*
X100857278Y-53741503D01*
X100807287Y-53643390D01*
X100772731Y-53595827D01*
X100686971Y-53477786D01*
X100542213Y-53333028D01*
X100376614Y-53212715D01*
X100366840Y-53207735D01*
X100283917Y-53165483D01*
X100233123Y-53117511D01*
X100216328Y-53049690D01*
X100238865Y-52983555D01*
X100283917Y-52944516D01*
X100376610Y-52897287D01*
X100454127Y-52840968D01*
X100542213Y-52776971D01*
X100542215Y-52776968D01*
X100542219Y-52776966D01*
X100686966Y-52632219D01*
X100686968Y-52632215D01*
X100686971Y-52632213D01*
X100788269Y-52492786D01*
X100807287Y-52466610D01*
X100900220Y-52284219D01*
X100963477Y-52089534D01*
X100995500Y-51887352D01*
X100995500Y-51682648D01*
X100982489Y-51600499D01*
X100963477Y-51480465D01*
X100918325Y-51341502D01*
X100900220Y-51285781D01*
X100900218Y-51285778D01*
X100900218Y-51285776D01*
X100866503Y-51219607D01*
X100807287Y-51103390D01*
X100799556Y-51092749D01*
X100686971Y-50937786D01*
X100542213Y-50793028D01*
X100376614Y-50672715D01*
X100350709Y-50659516D01*
X100283917Y-50625483D01*
X100233123Y-50577511D01*
X100216328Y-50509690D01*
X100238865Y-50443555D01*
X100283917Y-50404516D01*
X100376610Y-50357287D01*
X100397770Y-50341913D01*
X100542213Y-50236971D01*
X100542215Y-50236968D01*
X100542219Y-50236966D01*
X100686966Y-50092219D01*
X100686968Y-50092215D01*
X100686971Y-50092213D01*
X100778723Y-49965925D01*
X100807287Y-49926610D01*
X100900220Y-49744219D01*
X100963477Y-49549534D01*
X100995500Y-49347352D01*
X100995500Y-49142648D01*
X100979790Y-49043462D01*
X100963477Y-48940465D01*
X100918325Y-48801502D01*
X100900220Y-48745781D01*
X100900218Y-48745778D01*
X100900218Y-48745776D01*
X100836406Y-48620540D01*
X100807287Y-48563390D01*
X100779259Y-48524812D01*
X100686971Y-48397786D01*
X100542219Y-48253034D01*
X100518205Y-48235587D01*
X100505929Y-48226668D01*
X100463264Y-48171339D01*
X100457285Y-48101726D01*
X100489890Y-48039931D01*
X100550728Y-48005573D01*
X100565562Y-48003060D01*
X100602483Y-47999091D01*
X100737328Y-47948797D01*
X100737327Y-47948797D01*
X100737331Y-47948796D01*
X100852546Y-47862546D01*
X100938796Y-47747331D01*
X100989091Y-47612483D01*
X100995500Y-47552873D01*
X100995499Y-45857128D01*
X100989091Y-45797517D01*
X100978531Y-45769205D01*
X100938797Y-45662671D01*
X100938793Y-45662664D01*
X100852547Y-45547455D01*
X100852544Y-45547452D01*
X100737335Y-45461206D01*
X100737328Y-45461202D01*
X100602482Y-45410908D01*
X100602483Y-45410908D01*
X100542883Y-45404501D01*
X100542881Y-45404500D01*
X100542873Y-45404500D01*
X100542864Y-45404500D01*
X98847129Y-45404500D01*
X98847123Y-45404501D01*
X98787516Y-45410908D01*
X98652671Y-45461202D01*
X98652664Y-45461206D01*
X98537455Y-45547452D01*
X98537452Y-45547455D01*
X98451206Y-45662664D01*
X98451202Y-45662671D01*
X98400908Y-45797517D01*
X98394501Y-45857116D01*
X98394501Y-45857123D01*
X98394500Y-45857135D01*
X98394500Y-47552870D01*
X98394501Y-47552876D01*
X98400908Y-47612483D01*
X98451202Y-47747328D01*
X98451206Y-47747335D01*
X98537452Y-47862544D01*
X98537455Y-47862547D01*
X98652664Y-47948793D01*
X98652671Y-47948797D01*
X98697618Y-47965561D01*
X98787517Y-47999091D01*
X98824441Y-48003060D01*
X98888989Y-48029796D01*
X98928838Y-48087188D01*
X98931333Y-48157013D01*
X98895681Y-48217102D01*
X98884071Y-48226666D01*
X98847784Y-48253030D01*
X98703028Y-48397786D01*
X98582715Y-48563386D01*
X98489781Y-48745776D01*
X98426522Y-48940465D01*
X98394500Y-49142648D01*
X98394500Y-49347351D01*
X98426522Y-49549534D01*
X98489781Y-49744223D01*
X98582715Y-49926613D01*
X98703028Y-50092213D01*
X98847786Y-50236971D01*
X99002749Y-50349556D01*
X99013390Y-50357287D01*
X99104840Y-50403883D01*
X99106080Y-50404515D01*
X99156876Y-50452490D01*
X99173671Y-50520311D01*
X99151134Y-50586446D01*
X99106080Y-50625485D01*
X99013386Y-50672715D01*
X98847786Y-50793028D01*
X98703028Y-50937786D01*
X98582715Y-51103386D01*
X98489781Y-51285776D01*
X98426522Y-51480465D01*
X98394500Y-51682648D01*
X98394500Y-51887351D01*
X98426522Y-52089534D01*
X98489781Y-52284223D01*
X98582715Y-52466613D01*
X98703028Y-52632213D01*
X98847786Y-52776971D01*
X99002749Y-52889556D01*
X99013390Y-52897287D01*
X99097219Y-52940000D01*
X99106080Y-52944515D01*
X99156876Y-52992490D01*
X99173671Y-53060311D01*
X99151134Y-53126446D01*
X99106080Y-53165485D01*
X99013386Y-53212715D01*
X98847786Y-53333028D01*
X98703028Y-53477786D01*
X98582715Y-53643386D01*
X98489781Y-53825776D01*
X98426522Y-54020465D01*
X98394500Y-54222648D01*
X98394500Y-54427351D01*
X98426522Y-54629534D01*
X98489781Y-54824223D01*
X98526476Y-54896239D01*
X98582146Y-55005498D01*
X98582715Y-55006613D01*
X98703028Y-55172213D01*
X98847786Y-55316971D01*
X99002749Y-55429556D01*
X99013390Y-55437287D01*
X99104840Y-55483883D01*
X99106080Y-55484515D01*
X99156876Y-55532490D01*
X99173671Y-55600311D01*
X99151134Y-55666446D01*
X99106080Y-55705485D01*
X99013386Y-55752715D01*
X98847786Y-55873028D01*
X98703028Y-56017786D01*
X98582715Y-56183386D01*
X98489781Y-56365776D01*
X98426522Y-56560465D01*
X98394500Y-56762648D01*
X98394500Y-56967351D01*
X98426522Y-57169534D01*
X98489781Y-57364223D01*
X98545510Y-57473596D01*
X98573831Y-57529179D01*
X98582715Y-57546613D01*
X98703028Y-57712213D01*
X98847786Y-57856971D01*
X98944237Y-57927045D01*
X99013390Y-57977287D01*
X99104840Y-58023883D01*
X99106080Y-58024515D01*
X99156876Y-58072490D01*
X99173671Y-58140311D01*
X99151134Y-58206446D01*
X99106080Y-58245485D01*
X99013386Y-58292715D01*
X98847786Y-58413028D01*
X98703028Y-58557786D01*
X98582715Y-58723385D01*
X98575883Y-58736795D01*
X98527909Y-58787591D01*
X98465398Y-58804500D01*
X97202940Y-58804500D01*
X97162019Y-58815464D01*
X97162019Y-58815465D01*
X97124751Y-58825451D01*
X97050214Y-58845423D01*
X97050209Y-58845426D01*
X96913290Y-58924475D01*
X96913282Y-58924481D01*
X96420481Y-59417282D01*
X96420477Y-59417287D01*
X96376367Y-59493690D01*
X96376367Y-59493691D01*
X96341423Y-59554214D01*
X96334250Y-59580985D01*
X96300499Y-59706943D01*
X96300499Y-59706945D01*
X96300499Y-59875046D01*
X96300500Y-59875059D01*
X96300500Y-61260916D01*
X96280815Y-61327955D01*
X96228011Y-61373710D01*
X96158853Y-61383654D01*
X96152309Y-61382533D01*
X96033608Y-61358922D01*
X96033604Y-61358922D01*
X95875920Y-61358922D01*
X95875915Y-61358922D01*
X95744691Y-61385024D01*
X95675099Y-61378797D01*
X95619922Y-61335934D01*
X95596678Y-61270044D01*
X95596500Y-61263407D01*
X95596500Y-56548765D01*
X95616185Y-56481726D01*
X95617398Y-56479874D01*
X95619653Y-56476500D01*
X95705394Y-56348179D01*
X95709303Y-56338743D01*
X95743685Y-56255735D01*
X95765737Y-56202497D01*
X95796500Y-56047842D01*
X95796500Y-55890158D01*
X95796500Y-55890155D01*
X95796499Y-55890153D01*
X95790658Y-55860789D01*
X95765737Y-55735503D01*
X95750106Y-55697765D01*
X95705397Y-55589827D01*
X95705390Y-55589814D01*
X95617789Y-55458711D01*
X95617786Y-55458707D01*
X95506292Y-55347213D01*
X95506288Y-55347210D01*
X95375185Y-55259609D01*
X95375172Y-55259602D01*
X95229501Y-55199264D01*
X95229489Y-55199261D01*
X95074845Y-55168500D01*
X95074842Y-55168500D01*
X94917158Y-55168500D01*
X94917155Y-55168500D01*
X94762510Y-55199261D01*
X94762498Y-55199264D01*
X94616827Y-55259602D01*
X94616814Y-55259609D01*
X94485711Y-55347210D01*
X94485707Y-55347213D01*
X94374213Y-55458707D01*
X94374210Y-55458711D01*
X94286609Y-55589814D01*
X94286602Y-55589827D01*
X94226264Y-55735498D01*
X94226261Y-55735510D01*
X94195500Y-55890153D01*
X94195500Y-56047846D01*
X94226261Y-56202489D01*
X94226264Y-56202501D01*
X94286602Y-56348172D01*
X94286609Y-56348185D01*
X94348361Y-56440602D01*
X94372347Y-56476500D01*
X94374602Y-56479874D01*
X94395480Y-56546551D01*
X94395500Y-56548765D01*
X94395500Y-60024437D01*
X94375815Y-60091476D01*
X94323011Y-60137231D01*
X94253853Y-60147175D01*
X94224049Y-60138999D01*
X94182164Y-60121650D01*
X94115666Y-60094106D01*
X94115662Y-60094105D01*
X94115658Y-60094103D01*
X93941694Y-60059500D01*
X93941691Y-60059500D01*
X93815500Y-60059500D01*
X93748461Y-60039815D01*
X93702706Y-59987011D01*
X93691500Y-59935500D01*
X93691500Y-54808765D01*
X93711185Y-54741726D01*
X93712398Y-54739874D01*
X93748205Y-54686286D01*
X93800394Y-54608179D01*
X93860737Y-54462497D01*
X93891500Y-54307842D01*
X93891500Y-54150158D01*
X93891500Y-54150155D01*
X93891499Y-54150153D01*
X93881465Y-54099711D01*
X93860737Y-53995503D01*
X93834327Y-53931742D01*
X93800397Y-53849827D01*
X93800390Y-53849814D01*
X93712789Y-53718711D01*
X93712786Y-53718707D01*
X93601292Y-53607213D01*
X93601288Y-53607210D01*
X93470185Y-53519609D01*
X93470172Y-53519602D01*
X93324501Y-53459264D01*
X93324489Y-53459261D01*
X93169845Y-53428500D01*
X93169842Y-53428500D01*
X93012158Y-53428500D01*
X93012155Y-53428500D01*
X92857510Y-53459261D01*
X92857498Y-53459264D01*
X92711827Y-53519602D01*
X92711814Y-53519609D01*
X92580711Y-53607210D01*
X92580707Y-53607213D01*
X92469213Y-53718707D01*
X92469210Y-53718711D01*
X92381609Y-53849814D01*
X92381602Y-53849827D01*
X92321264Y-53995498D01*
X92321261Y-53995510D01*
X92290500Y-54150153D01*
X92290500Y-54307846D01*
X92321261Y-54462489D01*
X92321264Y-54462501D01*
X92381602Y-54608172D01*
X92381609Y-54608185D01*
X92469602Y-54739874D01*
X92490480Y-54806551D01*
X92490500Y-54808765D01*
X92490500Y-56225949D01*
X92470815Y-56292988D01*
X92418011Y-56338743D01*
X92383100Y-56348154D01*
X92383132Y-56348311D01*
X92380796Y-56348775D01*
X92378662Y-56349351D01*
X92377158Y-56349499D01*
X92222510Y-56380261D01*
X92222498Y-56380264D01*
X92076827Y-56440602D01*
X92076814Y-56440609D01*
X91945711Y-56528210D01*
X91945707Y-56528213D01*
X91834213Y-56639707D01*
X91834210Y-56639711D01*
X91746609Y-56770814D01*
X91746603Y-56770826D01*
X91744060Y-56776966D01*
X91700218Y-56831369D01*
X91633923Y-56853432D01*
X91566224Y-56836151D01*
X91518615Y-56785013D01*
X91505500Y-56729511D01*
X91505500Y-53652004D01*
X91478581Y-53516677D01*
X91478580Y-53516676D01*
X91478580Y-53516672D01*
X91457057Y-53464711D01*
X91425778Y-53389195D01*
X91425771Y-53389182D01*
X91349115Y-53274459D01*
X91302701Y-53228045D01*
X91251542Y-53176886D01*
X91169050Y-53094394D01*
X90870546Y-52795888D01*
X90870545Y-52795887D01*
X90767766Y-52727213D01*
X90755811Y-52719225D01*
X90755809Y-52719224D01*
X90638884Y-52670792D01*
X90586018Y-52629116D01*
X90534650Y-52558414D01*
X90486966Y-52492781D01*
X90342219Y-52348034D01*
X90342217Y-52348032D01*
X90342212Y-52348028D01*
X90246615Y-52278573D01*
X90203949Y-52223243D01*
X90195500Y-52178255D01*
X90195500Y-49548004D01*
X90168581Y-49412677D01*
X90168580Y-49412676D01*
X90168580Y-49412672D01*
X90141524Y-49347352D01*
X90115777Y-49285192D01*
X90039112Y-49170454D01*
X87732696Y-46864038D01*
X92379500Y-46864038D01*
X92379500Y-47115962D01*
X92404126Y-47271446D01*
X92418910Y-47364785D01*
X92496760Y-47604383D01*
X92559145Y-47726819D01*
X92585933Y-47779394D01*
X92611132Y-47828848D01*
X92759201Y-48032649D01*
X92759205Y-48032654D01*
X92937345Y-48210794D01*
X92937350Y-48210798D01*
X93074579Y-48310500D01*
X93141155Y-48358870D01*
X93284184Y-48431747D01*
X93365616Y-48473239D01*
X93365618Y-48473239D01*
X93365621Y-48473241D01*
X93605215Y-48551090D01*
X93854038Y-48590500D01*
X93854039Y-48590500D01*
X94105961Y-48590500D01*
X94105962Y-48590500D01*
X94354785Y-48551090D01*
X94594379Y-48473241D01*
X94818845Y-48358870D01*
X95022656Y-48210793D01*
X95200793Y-48032656D01*
X95348870Y-47828845D01*
X95463241Y-47604379D01*
X95541090Y-47364785D01*
X95580500Y-47115962D01*
X95580500Y-46864038D01*
X95541090Y-46615215D01*
X95463241Y-46375621D01*
X95463239Y-46375618D01*
X95463239Y-46375616D01*
X95421747Y-46294184D01*
X95348870Y-46151155D01*
X95277442Y-46052842D01*
X95200798Y-45947350D01*
X95200794Y-45947345D01*
X95022654Y-45769205D01*
X95022649Y-45769201D01*
X94818848Y-45621132D01*
X94818847Y-45621131D01*
X94818845Y-45621130D01*
X94748747Y-45585413D01*
X94594383Y-45506760D01*
X94354785Y-45428910D01*
X94241132Y-45410909D01*
X94105962Y-45389500D01*
X93854038Y-45389500D01*
X93759326Y-45404501D01*
X93605214Y-45428910D01*
X93365616Y-45506760D01*
X93141151Y-45621132D01*
X92937350Y-45769201D01*
X92937345Y-45769205D01*
X92759205Y-45947345D01*
X92759201Y-45947350D01*
X92611132Y-46151151D01*
X92496760Y-46375616D01*
X92425478Y-46595000D01*
X92418910Y-46615215D01*
X92379500Y-46864038D01*
X87732696Y-46864038D01*
X87314545Y-46445887D01*
X87199807Y-46369222D01*
X87072332Y-46316421D01*
X87072322Y-46316418D01*
X86936996Y-46289500D01*
X86936994Y-46289500D01*
X86936993Y-46289500D01*
X85544500Y-46289500D01*
X85477461Y-46269815D01*
X85431706Y-46217011D01*
X85420500Y-46165500D01*
X85420500Y-46089995D01*
X85420499Y-46089982D01*
X85419500Y-46080208D01*
X85409999Y-45987202D01*
X85354814Y-45820665D01*
X85262712Y-45671344D01*
X85138656Y-45547288D01*
X85034667Y-45483147D01*
X84989337Y-45455187D01*
X84989332Y-45455185D01*
X84987863Y-45454698D01*
X84822798Y-45400001D01*
X84822796Y-45400000D01*
X84720017Y-45389500D01*
X84720010Y-45389500D01*
X82919990Y-45389500D01*
X82919982Y-45389500D01*
X82817203Y-45400000D01*
X82817202Y-45400001D01*
X82784284Y-45410909D01*
X82650667Y-45455185D01*
X82650662Y-45455187D01*
X82501342Y-45547289D01*
X82377289Y-45671342D01*
X82285187Y-45820662D01*
X82285185Y-45820667D01*
X82273103Y-45857128D01*
X82230001Y-45987202D01*
X82230001Y-45987203D01*
X82230000Y-45987203D01*
X82219500Y-46089982D01*
X82219500Y-47890017D01*
X82230000Y-47992796D01*
X82245569Y-48039780D01*
X82285186Y-48159335D01*
X82377288Y-48308656D01*
X82501344Y-48432712D01*
X82650665Y-48524814D01*
X82817202Y-48579999D01*
X82919990Y-48590500D01*
X82919995Y-48590500D01*
X84720005Y-48590500D01*
X84720010Y-48590500D01*
X84822798Y-48579999D01*
X84989335Y-48524814D01*
X85138656Y-48432712D01*
X85262712Y-48308656D01*
X85354814Y-48159335D01*
X85409999Y-47992798D01*
X85420500Y-47890010D01*
X85420500Y-47814500D01*
X85440185Y-47747461D01*
X85492989Y-47701706D01*
X85544500Y-47690500D01*
X86526481Y-47690500D01*
X86593520Y-47710185D01*
X86614162Y-47726819D01*
X88758181Y-49870838D01*
X88791666Y-49932161D01*
X88794500Y-49958519D01*
X88794500Y-52178255D01*
X88774815Y-52245294D01*
X88743385Y-52278573D01*
X88647787Y-52348028D01*
X88647782Y-52348032D01*
X88503028Y-52492786D01*
X88382715Y-52658386D01*
X88289781Y-52840776D01*
X88226522Y-53035465D01*
X88195766Y-53229656D01*
X88194500Y-53237648D01*
X88194500Y-53442352D01*
X88197179Y-53459264D01*
X88226522Y-53644534D01*
X88289781Y-53839223D01*
X88333996Y-53925998D01*
X88382585Y-54021359D01*
X88382715Y-54021613D01*
X88503028Y-54187213D01*
X88647786Y-54331971D01*
X88794414Y-54438500D01*
X88813390Y-54452287D01*
X88908965Y-54500985D01*
X88995776Y-54545218D01*
X88995778Y-54545218D01*
X88995781Y-54545220D01*
X89100137Y-54579127D01*
X89190465Y-54608477D01*
X89245609Y-54617211D01*
X89392648Y-54640500D01*
X89392649Y-54640500D01*
X89597351Y-54640500D01*
X89597352Y-54640500D01*
X89799534Y-54608477D01*
X89942184Y-54562126D01*
X90012022Y-54560131D01*
X90071855Y-54596211D01*
X90102684Y-54658912D01*
X90104500Y-54680058D01*
X90104500Y-59600121D01*
X90084815Y-59667160D01*
X90032011Y-59712915D01*
X90018818Y-59718052D01*
X89905777Y-59754781D01*
X89876219Y-59769841D01*
X89807550Y-59782735D01*
X89742810Y-59756456D01*
X89702555Y-59699348D01*
X89699565Y-59629543D01*
X89716825Y-59590464D01*
X89736394Y-59561179D01*
X89739487Y-59553713D01*
X89766876Y-59487589D01*
X89796737Y-59415497D01*
X89827500Y-59260842D01*
X89827500Y-59103158D01*
X89827500Y-59103155D01*
X89827499Y-59103153D01*
X89813533Y-59032941D01*
X89796737Y-58948503D01*
X89786787Y-58924481D01*
X89736397Y-58802827D01*
X89736390Y-58802814D01*
X89648789Y-58671711D01*
X89648786Y-58671707D01*
X89537292Y-58560213D01*
X89537288Y-58560210D01*
X89406185Y-58472609D01*
X89406172Y-58472602D01*
X89260501Y-58412264D01*
X89260489Y-58412261D01*
X89105845Y-58381500D01*
X89105842Y-58381500D01*
X88948158Y-58381500D01*
X88948155Y-58381500D01*
X88793510Y-58412261D01*
X88793498Y-58412264D01*
X88647827Y-58472602D01*
X88647814Y-58472609D01*
X88516711Y-58560210D01*
X88516707Y-58560213D01*
X88442181Y-58634740D01*
X88380858Y-58668225D01*
X88311166Y-58663241D01*
X88255233Y-58621369D01*
X88230816Y-58555905D01*
X88230500Y-58547059D01*
X88230500Y-57856765D01*
X88250185Y-57789726D01*
X88251398Y-57787874D01*
X88339390Y-57656185D01*
X88339390Y-57656184D01*
X88339394Y-57656179D01*
X88399737Y-57510497D01*
X88430500Y-57355842D01*
X88430500Y-57198158D01*
X88430500Y-57198155D01*
X88430499Y-57198153D01*
X88429542Y-57193342D01*
X88399737Y-57043503D01*
X88392193Y-57025289D01*
X88339397Y-56897827D01*
X88339390Y-56897814D01*
X88251789Y-56766711D01*
X88251786Y-56766707D01*
X88140292Y-56655213D01*
X88140288Y-56655210D01*
X88009185Y-56567609D01*
X88009172Y-56567602D01*
X87863501Y-56507264D01*
X87863489Y-56507261D01*
X87708845Y-56476500D01*
X87708842Y-56476500D01*
X87551158Y-56476500D01*
X87551155Y-56476500D01*
X87396510Y-56507261D01*
X87396498Y-56507264D01*
X87250827Y-56567602D01*
X87250814Y-56567609D01*
X87119711Y-56655210D01*
X87119707Y-56655213D01*
X87045181Y-56729740D01*
X86983858Y-56763225D01*
X86914166Y-56758241D01*
X86858233Y-56716369D01*
X86833816Y-56650905D01*
X86833500Y-56642059D01*
X86833500Y-55189765D01*
X86853185Y-55122726D01*
X86854398Y-55120874D01*
X86942390Y-54989185D01*
X86942390Y-54989184D01*
X86942394Y-54989179D01*
X87002737Y-54843497D01*
X87033500Y-54688842D01*
X87033500Y-54531158D01*
X87033500Y-54531155D01*
X87033499Y-54531153D01*
X87026549Y-54496213D01*
X87002737Y-54376503D01*
X86990418Y-54346762D01*
X86942397Y-54230827D01*
X86942390Y-54230814D01*
X86854789Y-54099711D01*
X86854786Y-54099707D01*
X86743292Y-53988213D01*
X86743288Y-53988210D01*
X86612185Y-53900609D01*
X86612172Y-53900602D01*
X86466501Y-53840264D01*
X86466489Y-53840261D01*
X86311845Y-53809500D01*
X86311842Y-53809500D01*
X86154158Y-53809500D01*
X86154155Y-53809500D01*
X85999510Y-53840261D01*
X85999498Y-53840264D01*
X85901179Y-53880989D01*
X85831709Y-53888458D01*
X85769230Y-53857182D01*
X85733579Y-53797093D01*
X85735796Y-53728109D01*
X85762990Y-53644417D01*
X85795000Y-53442317D01*
X85795000Y-53237682D01*
X85762990Y-53035582D01*
X85699755Y-52840968D01*
X85606859Y-52658650D01*
X85574474Y-52614077D01*
X85574474Y-52614076D01*
X84895000Y-53293553D01*
X84895000Y-53287339D01*
X84867741Y-53185606D01*
X84815080Y-53094394D01*
X84740606Y-53019920D01*
X84649394Y-52967259D01*
X84547661Y-52940000D01*
X84541446Y-52940000D01*
X85220922Y-52260524D01*
X85220921Y-52260523D01*
X85176359Y-52228147D01*
X85176350Y-52228141D01*
X84994031Y-52135244D01*
X84799417Y-52072009D01*
X84597317Y-52040000D01*
X84392683Y-52040000D01*
X84190582Y-52072009D01*
X83995968Y-52135244D01*
X83813644Y-52228143D01*
X83769077Y-52260523D01*
X83769077Y-52260524D01*
X84448554Y-52940000D01*
X84442339Y-52940000D01*
X84340606Y-52967259D01*
X84249394Y-53019920D01*
X84174920Y-53094394D01*
X84122259Y-53185606D01*
X84095000Y-53287339D01*
X84095000Y-53293553D01*
X83415524Y-52614077D01*
X83415523Y-52614077D01*
X83383143Y-52658644D01*
X83290244Y-52840968D01*
X83227009Y-53035582D01*
X83195000Y-53237682D01*
X83195000Y-53442317D01*
X83227009Y-53644417D01*
X83290244Y-53839031D01*
X83383141Y-54021350D01*
X83383147Y-54021359D01*
X83415523Y-54065921D01*
X83415524Y-54065922D01*
X84095000Y-53386446D01*
X84095000Y-53392661D01*
X84122259Y-53494394D01*
X84174920Y-53585606D01*
X84249394Y-53660080D01*
X84340606Y-53712741D01*
X84442339Y-53740000D01*
X84448553Y-53740000D01*
X83769076Y-54419474D01*
X83813650Y-54451859D01*
X83995970Y-54544755D01*
X84120479Y-54585211D01*
X84178154Y-54624648D01*
X84205353Y-54689007D01*
X84193438Y-54757853D01*
X84185263Y-54772032D01*
X84126612Y-54859809D01*
X84126602Y-54859827D01*
X84066264Y-55005498D01*
X84066261Y-55005510D01*
X84035500Y-55160153D01*
X84035500Y-55317846D01*
X84066261Y-55472489D01*
X84066264Y-55472501D01*
X84126602Y-55618172D01*
X84126609Y-55618185D01*
X84214210Y-55749288D01*
X84214213Y-55749292D01*
X84325707Y-55860786D01*
X84325711Y-55860789D01*
X84456814Y-55948390D01*
X84456827Y-55948397D01*
X84592778Y-56004709D01*
X84602503Y-56008737D01*
X84602507Y-56008737D01*
X84602916Y-56008862D01*
X84603166Y-56009011D01*
X84608130Y-56011068D01*
X84607825Y-56011804D01*
X84654607Y-56039843D01*
X84834181Y-56219416D01*
X84867666Y-56280739D01*
X84870500Y-56307097D01*
X84870500Y-59784770D01*
X84850815Y-59851809D01*
X84798011Y-59897564D01*
X84728853Y-59907508D01*
X84665297Y-59878483D01*
X84658819Y-59872451D01*
X84603657Y-59817289D01*
X84603656Y-59817288D01*
X84454334Y-59725186D01*
X84287797Y-59670001D01*
X84287795Y-59670000D01*
X84185010Y-59659500D01*
X82184998Y-59659500D01*
X82184981Y-59659501D01*
X82082203Y-59670000D01*
X82082200Y-59670001D01*
X81915668Y-59725185D01*
X81915663Y-59725187D01*
X81766342Y-59817289D01*
X81642289Y-59941342D01*
X81550187Y-60090663D01*
X81550185Y-60090668D01*
X81522349Y-60174670D01*
X81495001Y-60257203D01*
X81495001Y-60257204D01*
X81495000Y-60257204D01*
X81484500Y-60359983D01*
X81484500Y-60489901D01*
X81475855Y-60519339D01*
X81469334Y-60549324D01*
X81465577Y-60554341D01*
X81464815Y-60556940D01*
X81448184Y-60577579D01*
X81434483Y-60591281D01*
X81434480Y-60591284D01*
X80926481Y-61099282D01*
X80926479Y-61099285D01*
X80908550Y-61130339D01*
X80890621Y-61161394D01*
X80847423Y-61236215D01*
X80806499Y-61388943D01*
X80806499Y-61388945D01*
X80806499Y-61557046D01*
X80806500Y-61557059D01*
X80806500Y-62575949D01*
X80786815Y-62642988D01*
X80734011Y-62688743D01*
X80699100Y-62698154D01*
X80699132Y-62698311D01*
X80696796Y-62698775D01*
X80694662Y-62699351D01*
X80693158Y-62699499D01*
X80538510Y-62730261D01*
X80538498Y-62730264D01*
X80392827Y-62790602D01*
X80392814Y-62790609D01*
X80261711Y-62878210D01*
X80261707Y-62878213D01*
X80150213Y-62989707D01*
X80150210Y-62989711D01*
X80062609Y-63120814D01*
X80062602Y-63120827D01*
X80002264Y-63266498D01*
X80002261Y-63266510D01*
X79971500Y-63421153D01*
X79971500Y-63578846D01*
X80002261Y-63733489D01*
X80002264Y-63733501D01*
X80062602Y-63879172D01*
X80062609Y-63879185D01*
X80150602Y-64010874D01*
X80171480Y-64077551D01*
X80171500Y-64079765D01*
X80171500Y-65064479D01*
X80151815Y-65131518D01*
X80099011Y-65177273D01*
X80029853Y-65187217D01*
X79966297Y-65158192D01*
X79944398Y-65133370D01*
X79869789Y-65021711D01*
X79869786Y-65021707D01*
X79758292Y-64910213D01*
X79758288Y-64910210D01*
X79627185Y-64822609D01*
X79627172Y-64822602D01*
X79481501Y-64762264D01*
X79481489Y-64762261D01*
X79326845Y-64731500D01*
X79326842Y-64731500D01*
X79169158Y-64731500D01*
X79169155Y-64731500D01*
X79014510Y-64762261D01*
X79014498Y-64762264D01*
X78868827Y-64822602D01*
X78868814Y-64822609D01*
X78737711Y-64910210D01*
X78737707Y-64910213D01*
X78663181Y-64984740D01*
X78601858Y-65018225D01*
X78532166Y-65013241D01*
X78476233Y-64971369D01*
X78451816Y-64905905D01*
X78451500Y-64897059D01*
X78451500Y-64177941D01*
X78471185Y-64110902D01*
X78487819Y-64090260D01*
X78567786Y-64010292D01*
X78567789Y-64010289D01*
X78655394Y-63879179D01*
X78715737Y-63733497D01*
X78746500Y-63578842D01*
X78746500Y-63421158D01*
X78746500Y-63421155D01*
X78746499Y-63421153D01*
X78736864Y-63372715D01*
X78715737Y-63266503D01*
X78693773Y-63213477D01*
X78655397Y-63120827D01*
X78655390Y-63120814D01*
X78567789Y-62989711D01*
X78567786Y-62989707D01*
X78456292Y-62878213D01*
X78456288Y-62878210D01*
X78325185Y-62790609D01*
X78325172Y-62790602D01*
X78179501Y-62730264D01*
X78179489Y-62730261D01*
X78024845Y-62699500D01*
X78024842Y-62699500D01*
X77940500Y-62699500D01*
X77873461Y-62679815D01*
X77827706Y-62627011D01*
X77816500Y-62575500D01*
X77816500Y-61666765D01*
X77836185Y-61599726D01*
X77837398Y-61597874D01*
X77864679Y-61557046D01*
X77925394Y-61466179D01*
X77985737Y-61320497D01*
X78016500Y-61165842D01*
X78016500Y-61008158D01*
X78016500Y-61008155D01*
X78016499Y-61008153D01*
X78007283Y-60961821D01*
X77985737Y-60853503D01*
X77977996Y-60834814D01*
X77925397Y-60707827D01*
X77925390Y-60707814D01*
X77837789Y-60576711D01*
X77837786Y-60576707D01*
X77726292Y-60465213D01*
X77726288Y-60465210D01*
X77595185Y-60377609D01*
X77595172Y-60377602D01*
X77449501Y-60317264D01*
X77449489Y-60317261D01*
X77294845Y-60286500D01*
X77294842Y-60286500D01*
X77137158Y-60286500D01*
X77137155Y-60286500D01*
X77075691Y-60298726D01*
X77006100Y-60292499D01*
X76950922Y-60249636D01*
X76927678Y-60183746D01*
X76927500Y-60177109D01*
X76927500Y-53259097D01*
X76936144Y-53229656D01*
X76942668Y-53199670D01*
X76946422Y-53194654D01*
X76947185Y-53192058D01*
X76963819Y-53171416D01*
X78825416Y-51309819D01*
X78886739Y-51276334D01*
X78913097Y-51273500D01*
X81586059Y-51273500D01*
X81653098Y-51293185D01*
X81673740Y-51309819D01*
X81785707Y-51421786D01*
X81785711Y-51421789D01*
X81916814Y-51509390D01*
X81916827Y-51509397D01*
X82062498Y-51569735D01*
X82062503Y-51569737D01*
X82217153Y-51600499D01*
X82217156Y-51600500D01*
X82217158Y-51600500D01*
X82374844Y-51600500D01*
X82374845Y-51600499D01*
X82529497Y-51569737D01*
X82642166Y-51523067D01*
X82675172Y-51509397D01*
X82675172Y-51509396D01*
X82675179Y-51509394D01*
X82806289Y-51421789D01*
X82917789Y-51310289D01*
X83005394Y-51179179D01*
X83013115Y-51160540D01*
X83019067Y-51146166D01*
X83065737Y-51033497D01*
X83096500Y-50878842D01*
X83096500Y-50721158D01*
X83096500Y-50721155D01*
X83096499Y-50721153D01*
X83086864Y-50672715D01*
X83065737Y-50566503D01*
X83050504Y-50529727D01*
X83005397Y-50420827D01*
X83005390Y-50420814D01*
X82917789Y-50289711D01*
X82917786Y-50289707D01*
X82806292Y-50178213D01*
X82806288Y-50178210D01*
X82675185Y-50090609D01*
X82675172Y-50090602D01*
X82529501Y-50030264D01*
X82529489Y-50030261D01*
X82374845Y-49999500D01*
X82374842Y-49999500D01*
X82217158Y-49999500D01*
X82217155Y-49999500D01*
X82062511Y-50030260D01*
X82062501Y-50030263D01*
X81983321Y-50063061D01*
X81935869Y-50072500D01*
X78692057Y-50072500D01*
X78533942Y-50072500D01*
X78381215Y-50113423D01*
X78381214Y-50113423D01*
X78381212Y-50113424D01*
X78381209Y-50113425D01*
X78331096Y-50142359D01*
X78331095Y-50142360D01*
X78321827Y-50147711D01*
X78244285Y-50192479D01*
X78244282Y-50192481D01*
X75846481Y-52590282D01*
X75846475Y-52590290D01*
X75802523Y-52666419D01*
X75802523Y-52666420D01*
X75767423Y-52727215D01*
X75726499Y-52879943D01*
X75726499Y-52879945D01*
X75726499Y-53048046D01*
X75726500Y-53048059D01*
X75726500Y-54388191D01*
X75706815Y-54455230D01*
X75654011Y-54500985D01*
X75584853Y-54510929D01*
X75521297Y-54481904D01*
X75483523Y-54423126D01*
X75480027Y-54407589D01*
X75475103Y-54376498D01*
X75457246Y-54263757D01*
X75391557Y-54061588D01*
X75295051Y-53872184D01*
X75295049Y-53872181D01*
X75295048Y-53872179D01*
X75170109Y-53700213D01*
X75019786Y-53549890D01*
X74847817Y-53424949D01*
X74838504Y-53420204D01*
X74787707Y-53372230D01*
X74770912Y-53304409D01*
X74793449Y-53238274D01*
X74838507Y-53199232D01*
X74847558Y-53194620D01*
X75019459Y-53069727D01*
X75019464Y-53069723D01*
X75169723Y-52919464D01*
X75169727Y-52919459D01*
X75294620Y-52747557D01*
X75391095Y-52558217D01*
X75456757Y-52356129D01*
X75456757Y-52356126D01*
X75467231Y-52290000D01*
X74573012Y-52290000D01*
X74605925Y-52232993D01*
X74640000Y-52105826D01*
X74640000Y-51974174D01*
X74605925Y-51847007D01*
X74573012Y-51790000D01*
X75467231Y-51790000D01*
X75456757Y-51723873D01*
X75456757Y-51723870D01*
X75391095Y-51521782D01*
X75294620Y-51332442D01*
X75169727Y-51160540D01*
X75169723Y-51160535D01*
X75019464Y-51010276D01*
X75019459Y-51010272D01*
X74847558Y-50885379D01*
X74837954Y-50880486D01*
X74787157Y-50832512D01*
X74770361Y-50764692D01*
X74792897Y-50698556D01*
X74837954Y-50659514D01*
X74847558Y-50654620D01*
X75019459Y-50529727D01*
X75019464Y-50529723D01*
X75169723Y-50379464D01*
X75169727Y-50379459D01*
X75294620Y-50207557D01*
X75391095Y-50018217D01*
X75456757Y-49816129D01*
X75456757Y-49816126D01*
X75467231Y-49750000D01*
X74573012Y-49750000D01*
X74605925Y-49692993D01*
X74640000Y-49565826D01*
X74640000Y-49434174D01*
X74605925Y-49307007D01*
X74573012Y-49250000D01*
X75467231Y-49250000D01*
X75456757Y-49183873D01*
X75456757Y-49183870D01*
X75391095Y-48981782D01*
X75294620Y-48792442D01*
X75169727Y-48620540D01*
X75169723Y-48620535D01*
X75019464Y-48470276D01*
X75019459Y-48470272D01*
X74847555Y-48345377D01*
X74838500Y-48340763D01*
X74787706Y-48292788D01*
X74770912Y-48224966D01*
X74793451Y-48158832D01*
X74838508Y-48119793D01*
X74847816Y-48115051D01*
X74951211Y-48039931D01*
X75019786Y-47990109D01*
X75019788Y-47990106D01*
X75019792Y-47990104D01*
X75170104Y-47839792D01*
X75170106Y-47839788D01*
X75170109Y-47839786D01*
X75295048Y-47667820D01*
X75295047Y-47667820D01*
X75295051Y-47667816D01*
X75391557Y-47478412D01*
X75457246Y-47276243D01*
X75490500Y-47066287D01*
X75490500Y-46853713D01*
X75457246Y-46643757D01*
X75391557Y-46441588D01*
X75295051Y-46252184D01*
X75295049Y-46252181D01*
X75295048Y-46252179D01*
X75170109Y-46080213D01*
X75019786Y-45929890D01*
X74847820Y-45804951D01*
X74658414Y-45708444D01*
X74658413Y-45708443D01*
X74658412Y-45708443D01*
X74456243Y-45642754D01*
X74456241Y-45642753D01*
X74456240Y-45642753D01*
X74294957Y-45617208D01*
X74246287Y-45609500D01*
X74033713Y-45609500D01*
X73985042Y-45617208D01*
X73823760Y-45642753D01*
X73621585Y-45708444D01*
X73432179Y-45804951D01*
X73260213Y-45929890D01*
X73109890Y-46080213D01*
X72984949Y-46252182D01*
X72980484Y-46260946D01*
X72932509Y-46311742D01*
X72864688Y-46328536D01*
X72798553Y-46305998D01*
X72759516Y-46260946D01*
X72755050Y-46252182D01*
X72630109Y-46080213D01*
X72479786Y-45929890D01*
X72307820Y-45804951D01*
X72118414Y-45708444D01*
X72118413Y-45708443D01*
X72118412Y-45708443D01*
X71916243Y-45642754D01*
X71916241Y-45642753D01*
X71916240Y-45642753D01*
X71754957Y-45617208D01*
X71706287Y-45609500D01*
X71493713Y-45609500D01*
X71445042Y-45617208D01*
X71283760Y-45642753D01*
X71081585Y-45708444D01*
X70892179Y-45804951D01*
X70720213Y-45929890D01*
X70569890Y-46080213D01*
X70444951Y-46252179D01*
X70348444Y-46441585D01*
X70348443Y-46441587D01*
X70348443Y-46441588D01*
X70347046Y-46445887D01*
X70282753Y-46643760D01*
X70261526Y-46777786D01*
X70249500Y-46853713D01*
X67500500Y-46853713D01*
X67500500Y-44124500D01*
X67520185Y-44057461D01*
X67572989Y-44011706D01*
X67624500Y-44000500D01*
X130976000Y-44000500D01*
X131043039Y-44020185D01*
G37*
G04 #@! TD.AperFunction*
M02*
