G04 #@! TF.GenerationSoftware,KiCad,Pcbnew,9.0.4*
G04 #@! TF.CreationDate,2025-09-05T21:22:08+01:00*
G04 #@! TF.ProjectId,megaflash,6d656761-666c-4617-9368-2e6b69636164,rev?*
G04 #@! TF.SameCoordinates,Original*
G04 #@! TF.FileFunction,Legend,Top*
G04 #@! TF.FilePolarity,Positive*
%FSLAX46Y46*%
G04 Gerber Fmt 4.6, Leading zero omitted, Abs format (unit mm)*
G04 Created by KiCad (PCBNEW 9.0.4) date 2025-09-05 21:22:08*
%MOMM*%
%LPD*%
G01*
G04 APERTURE LIST*
G04 Aperture macros list*
%AMRoundRect*
0 Rectangle with rounded corners*
0 $1 Rounding radius*
0 $2 $3 $4 $5 $6 $7 $8 $9 X,Y pos of 4 corners*
0 Add a 4 corners polygon primitive as box body*
4,1,4,$2,$3,$4,$5,$6,$7,$8,$9,$2,$3,0*
0 Add four circle primitives for the rounded corners*
1,1,$1+$1,$2,$3*
1,1,$1+$1,$4,$5*
1,1,$1+$1,$6,$7*
1,1,$1+$1,$8,$9*
0 Add four rect primitives between the rounded corners*
20,1,$1+$1,$2,$3,$4,$5,0*
20,1,$1+$1,$4,$5,$6,$7,0*
20,1,$1+$1,$6,$7,$8,$9,0*
20,1,$1+$1,$8,$9,$2,$3,0*%
G04 Aperture macros list end*
%ADD10C,0.150000*%
%ADD11C,0.162500*%
%ADD12C,0.120000*%
%ADD13R,1.600000X1.600000*%
%ADD14C,1.600000*%
%ADD15O,1.800000X1.800000*%
%ADD16O,1.500000X1.500000*%
%ADD17R,3.500000X1.700000*%
%ADD18RoundRect,0.150000X-0.875000X-0.150000X0.875000X-0.150000X0.875000X0.150000X-0.875000X0.150000X0*%
%ADD19R,1.700000X1.700000*%
%ADD20O,1.700000X1.700000*%
%ADD21RoundRect,0.250000X-0.950000X-0.550000X0.950000X-0.550000X0.950000X0.550000X-0.950000X0.550000X0*%
%ADD22O,2.400000X1.600000*%
%ADD23RoundRect,0.249999X-0.850001X-0.850001X0.850001X-0.850001X0.850001X0.850001X-0.850001X0.850001X0*%
%ADD24C,2.200000*%
%ADD25RoundRect,0.250000X-0.650000X1.000000X-0.650000X-1.000000X0.650000X-1.000000X0.650000X1.000000X0*%
%ADD26C,2.700000*%
G04 APERTURE END LIST*
D10*
X71446107Y-90170000D02*
G75*
G02*
X70031893Y-90170000I-707107J0D01*
G01*
X70031893Y-90170000D02*
G75*
G02*
X71446107Y-90170000I707107J0D01*
G01*
X154286009Y-91754887D02*
X154286009Y-92088220D01*
X154809819Y-92088220D02*
X153809819Y-92088220D01*
X153809819Y-92088220D02*
X153809819Y-91612030D01*
X154809819Y-91088220D02*
X154762200Y-91183458D01*
X154762200Y-91183458D02*
X154666961Y-91231077D01*
X154666961Y-91231077D02*
X153809819Y-91231077D01*
X154809819Y-90278696D02*
X154286009Y-90278696D01*
X154286009Y-90278696D02*
X154190771Y-90326315D01*
X154190771Y-90326315D02*
X154143152Y-90421553D01*
X154143152Y-90421553D02*
X154143152Y-90612029D01*
X154143152Y-90612029D02*
X154190771Y-90707267D01*
X154762200Y-90278696D02*
X154809819Y-90373934D01*
X154809819Y-90373934D02*
X154809819Y-90612029D01*
X154809819Y-90612029D02*
X154762200Y-90707267D01*
X154762200Y-90707267D02*
X154666961Y-90754886D01*
X154666961Y-90754886D02*
X154571723Y-90754886D01*
X154571723Y-90754886D02*
X154476485Y-90707267D01*
X154476485Y-90707267D02*
X154428866Y-90612029D01*
X154428866Y-90612029D02*
X154428866Y-90373934D01*
X154428866Y-90373934D02*
X154381247Y-90278696D01*
X154762200Y-89850124D02*
X154809819Y-89754886D01*
X154809819Y-89754886D02*
X154809819Y-89564410D01*
X154809819Y-89564410D02*
X154762200Y-89469172D01*
X154762200Y-89469172D02*
X154666961Y-89421553D01*
X154666961Y-89421553D02*
X154619342Y-89421553D01*
X154619342Y-89421553D02*
X154524104Y-89469172D01*
X154524104Y-89469172D02*
X154476485Y-89564410D01*
X154476485Y-89564410D02*
X154476485Y-89707267D01*
X154476485Y-89707267D02*
X154428866Y-89802505D01*
X154428866Y-89802505D02*
X154333628Y-89850124D01*
X154333628Y-89850124D02*
X154286009Y-89850124D01*
X154286009Y-89850124D02*
X154190771Y-89802505D01*
X154190771Y-89802505D02*
X154143152Y-89707267D01*
X154143152Y-89707267D02*
X154143152Y-89564410D01*
X154143152Y-89564410D02*
X154190771Y-89469172D01*
X154809819Y-88992981D02*
X153809819Y-88992981D01*
X154809819Y-88564410D02*
X154286009Y-88564410D01*
X154286009Y-88564410D02*
X154190771Y-88612029D01*
X154190771Y-88612029D02*
X154143152Y-88707267D01*
X154143152Y-88707267D02*
X154143152Y-88850124D01*
X154143152Y-88850124D02*
X154190771Y-88945362D01*
X154190771Y-88945362D02*
X154238390Y-88992981D01*
X154809819Y-86802505D02*
X154809819Y-87373933D01*
X154809819Y-87088219D02*
X153809819Y-87088219D01*
X153809819Y-87088219D02*
X153952676Y-87183457D01*
X153952676Y-87183457D02*
X154047914Y-87278695D01*
X154047914Y-87278695D02*
X154095533Y-87373933D01*
X154286009Y-58099887D02*
X154286009Y-58433220D01*
X154809819Y-58433220D02*
X153809819Y-58433220D01*
X153809819Y-58433220D02*
X153809819Y-57957030D01*
X154809819Y-57433220D02*
X154762200Y-57528458D01*
X154762200Y-57528458D02*
X154666961Y-57576077D01*
X154666961Y-57576077D02*
X153809819Y-57576077D01*
X154809819Y-56623696D02*
X154286009Y-56623696D01*
X154286009Y-56623696D02*
X154190771Y-56671315D01*
X154190771Y-56671315D02*
X154143152Y-56766553D01*
X154143152Y-56766553D02*
X154143152Y-56957029D01*
X154143152Y-56957029D02*
X154190771Y-57052267D01*
X154762200Y-56623696D02*
X154809819Y-56718934D01*
X154809819Y-56718934D02*
X154809819Y-56957029D01*
X154809819Y-56957029D02*
X154762200Y-57052267D01*
X154762200Y-57052267D02*
X154666961Y-57099886D01*
X154666961Y-57099886D02*
X154571723Y-57099886D01*
X154571723Y-57099886D02*
X154476485Y-57052267D01*
X154476485Y-57052267D02*
X154428866Y-56957029D01*
X154428866Y-56957029D02*
X154428866Y-56718934D01*
X154428866Y-56718934D02*
X154381247Y-56623696D01*
X154762200Y-56195124D02*
X154809819Y-56099886D01*
X154809819Y-56099886D02*
X154809819Y-55909410D01*
X154809819Y-55909410D02*
X154762200Y-55814172D01*
X154762200Y-55814172D02*
X154666961Y-55766553D01*
X154666961Y-55766553D02*
X154619342Y-55766553D01*
X154619342Y-55766553D02*
X154524104Y-55814172D01*
X154524104Y-55814172D02*
X154476485Y-55909410D01*
X154476485Y-55909410D02*
X154476485Y-56052267D01*
X154476485Y-56052267D02*
X154428866Y-56147505D01*
X154428866Y-56147505D02*
X154333628Y-56195124D01*
X154333628Y-56195124D02*
X154286009Y-56195124D01*
X154286009Y-56195124D02*
X154190771Y-56147505D01*
X154190771Y-56147505D02*
X154143152Y-56052267D01*
X154143152Y-56052267D02*
X154143152Y-55909410D01*
X154143152Y-55909410D02*
X154190771Y-55814172D01*
X154809819Y-55337981D02*
X153809819Y-55337981D01*
X154809819Y-54909410D02*
X154286009Y-54909410D01*
X154286009Y-54909410D02*
X154190771Y-54957029D01*
X154190771Y-54957029D02*
X154143152Y-55052267D01*
X154143152Y-55052267D02*
X154143152Y-55195124D01*
X154143152Y-55195124D02*
X154190771Y-55290362D01*
X154190771Y-55290362D02*
X154238390Y-55337981D01*
X153905057Y-53718933D02*
X153857438Y-53671314D01*
X153857438Y-53671314D02*
X153809819Y-53576076D01*
X153809819Y-53576076D02*
X153809819Y-53337981D01*
X153809819Y-53337981D02*
X153857438Y-53242743D01*
X153857438Y-53242743D02*
X153905057Y-53195124D01*
X153905057Y-53195124D02*
X154000295Y-53147505D01*
X154000295Y-53147505D02*
X154095533Y-53147505D01*
X154095533Y-53147505D02*
X154238390Y-53195124D01*
X154238390Y-53195124D02*
X154809819Y-53766552D01*
X154809819Y-53766552D02*
X154809819Y-53147505D01*
X139284398Y-88145342D02*
X139284398Y-89116771D01*
X139284398Y-89116771D02*
X139341541Y-89231057D01*
X139341541Y-89231057D02*
X139398684Y-89288200D01*
X139398684Y-89288200D02*
X139512969Y-89345342D01*
X139512969Y-89345342D02*
X139741541Y-89345342D01*
X139741541Y-89345342D02*
X139855826Y-89288200D01*
X139855826Y-89288200D02*
X139912969Y-89231057D01*
X139912969Y-89231057D02*
X139970112Y-89116771D01*
X139970112Y-89116771D02*
X139970112Y-88145342D01*
X140484398Y-89288200D02*
X140655827Y-89345342D01*
X140655827Y-89345342D02*
X140941541Y-89345342D01*
X140941541Y-89345342D02*
X141055827Y-89288200D01*
X141055827Y-89288200D02*
X141112969Y-89231057D01*
X141112969Y-89231057D02*
X141170112Y-89116771D01*
X141170112Y-89116771D02*
X141170112Y-89002485D01*
X141170112Y-89002485D02*
X141112969Y-88888200D01*
X141112969Y-88888200D02*
X141055827Y-88831057D01*
X141055827Y-88831057D02*
X140941541Y-88773914D01*
X140941541Y-88773914D02*
X140712969Y-88716771D01*
X140712969Y-88716771D02*
X140598684Y-88659628D01*
X140598684Y-88659628D02*
X140541541Y-88602485D01*
X140541541Y-88602485D02*
X140484398Y-88488200D01*
X140484398Y-88488200D02*
X140484398Y-88373914D01*
X140484398Y-88373914D02*
X140541541Y-88259628D01*
X140541541Y-88259628D02*
X140598684Y-88202485D01*
X140598684Y-88202485D02*
X140712969Y-88145342D01*
X140712969Y-88145342D02*
X140998684Y-88145342D01*
X140998684Y-88145342D02*
X141170112Y-88202485D01*
X142084398Y-88716771D02*
X142255826Y-88773914D01*
X142255826Y-88773914D02*
X142312969Y-88831057D01*
X142312969Y-88831057D02*
X142370112Y-88945342D01*
X142370112Y-88945342D02*
X142370112Y-89116771D01*
X142370112Y-89116771D02*
X142312969Y-89231057D01*
X142312969Y-89231057D02*
X142255826Y-89288200D01*
X142255826Y-89288200D02*
X142141541Y-89345342D01*
X142141541Y-89345342D02*
X141684398Y-89345342D01*
X141684398Y-89345342D02*
X141684398Y-88145342D01*
X141684398Y-88145342D02*
X142084398Y-88145342D01*
X142084398Y-88145342D02*
X142198684Y-88202485D01*
X142198684Y-88202485D02*
X142255826Y-88259628D01*
X142255826Y-88259628D02*
X142312969Y-88373914D01*
X142312969Y-88373914D02*
X142312969Y-88488200D01*
X142312969Y-88488200D02*
X142255826Y-88602485D01*
X142255826Y-88602485D02*
X142198684Y-88659628D01*
X142198684Y-88659628D02*
X142084398Y-88716771D01*
X142084398Y-88716771D02*
X141684398Y-88716771D01*
X134345342Y-75672744D02*
X135202485Y-75672744D01*
X135202485Y-75672744D02*
X135373914Y-75729887D01*
X135373914Y-75729887D02*
X135488200Y-75844173D01*
X135488200Y-75844173D02*
X135545342Y-76015601D01*
X135545342Y-76015601D02*
X135545342Y-76129887D01*
X135545342Y-74529887D02*
X135545342Y-75101315D01*
X135545342Y-75101315D02*
X134345342Y-75101315D01*
X135431057Y-73444172D02*
X135488200Y-73501315D01*
X135488200Y-73501315D02*
X135545342Y-73672743D01*
X135545342Y-73672743D02*
X135545342Y-73787029D01*
X135545342Y-73787029D02*
X135488200Y-73958458D01*
X135488200Y-73958458D02*
X135373914Y-74072743D01*
X135373914Y-74072743D02*
X135259628Y-74129886D01*
X135259628Y-74129886D02*
X135031057Y-74187029D01*
X135031057Y-74187029D02*
X134859628Y-74187029D01*
X134859628Y-74187029D02*
X134631057Y-74129886D01*
X134631057Y-74129886D02*
X134516771Y-74072743D01*
X134516771Y-74072743D02*
X134402485Y-73958458D01*
X134402485Y-73958458D02*
X134345342Y-73787029D01*
X134345342Y-73787029D02*
X134345342Y-73672743D01*
X134345342Y-73672743D02*
X134402485Y-73501315D01*
X134402485Y-73501315D02*
X134459628Y-73444172D01*
X134345342Y-72587029D02*
X135202485Y-72587029D01*
X135202485Y-72587029D02*
X135373914Y-72644172D01*
X135373914Y-72644172D02*
X135488200Y-72758458D01*
X135488200Y-72758458D02*
X135545342Y-72929886D01*
X135545342Y-72929886D02*
X135545342Y-73044172D01*
X135545342Y-71444172D02*
X135545342Y-72015600D01*
X135545342Y-72015600D02*
X134345342Y-72015600D01*
X135431057Y-70358457D02*
X135488200Y-70415600D01*
X135488200Y-70415600D02*
X135545342Y-70587028D01*
X135545342Y-70587028D02*
X135545342Y-70701314D01*
X135545342Y-70701314D02*
X135488200Y-70872743D01*
X135488200Y-70872743D02*
X135373914Y-70987028D01*
X135373914Y-70987028D02*
X135259628Y-71044171D01*
X135259628Y-71044171D02*
X135031057Y-71101314D01*
X135031057Y-71101314D02*
X134859628Y-71101314D01*
X134859628Y-71101314D02*
X134631057Y-71044171D01*
X134631057Y-71044171D02*
X134516771Y-70987028D01*
X134516771Y-70987028D02*
X134402485Y-70872743D01*
X134402485Y-70872743D02*
X134345342Y-70701314D01*
X134345342Y-70701314D02*
X134345342Y-70587028D01*
X134345342Y-70587028D02*
X134402485Y-70415600D01*
X134402485Y-70415600D02*
X134459628Y-70358457D01*
X134345342Y-69501314D02*
X135202485Y-69501314D01*
X135202485Y-69501314D02*
X135373914Y-69558457D01*
X135373914Y-69558457D02*
X135488200Y-69672743D01*
X135488200Y-69672743D02*
X135545342Y-69844171D01*
X135545342Y-69844171D02*
X135545342Y-69958457D01*
X135545342Y-68358457D02*
X135545342Y-68929885D01*
X135545342Y-68929885D02*
X134345342Y-68929885D01*
X135431057Y-67272742D02*
X135488200Y-67329885D01*
X135488200Y-67329885D02*
X135545342Y-67501313D01*
X135545342Y-67501313D02*
X135545342Y-67615599D01*
X135545342Y-67615599D02*
X135488200Y-67787028D01*
X135488200Y-67787028D02*
X135373914Y-67901313D01*
X135373914Y-67901313D02*
X135259628Y-67958456D01*
X135259628Y-67958456D02*
X135031057Y-68015599D01*
X135031057Y-68015599D02*
X134859628Y-68015599D01*
X134859628Y-68015599D02*
X134631057Y-67958456D01*
X134631057Y-67958456D02*
X134516771Y-67901313D01*
X134516771Y-67901313D02*
X134402485Y-67787028D01*
X134402485Y-67787028D02*
X134345342Y-67615599D01*
X134345342Y-67615599D02*
X134345342Y-67501313D01*
X134345342Y-67501313D02*
X134402485Y-67329885D01*
X134402485Y-67329885D02*
X134459628Y-67272742D01*
X134345342Y-66415599D02*
X135202485Y-66415599D01*
X135202485Y-66415599D02*
X135373914Y-66472742D01*
X135373914Y-66472742D02*
X135488200Y-66587028D01*
X135488200Y-66587028D02*
X135545342Y-66758456D01*
X135545342Y-66758456D02*
X135545342Y-66872742D01*
X135545342Y-65272742D02*
X135545342Y-65844170D01*
X135545342Y-65844170D02*
X134345342Y-65844170D01*
X135431057Y-64187027D02*
X135488200Y-64244170D01*
X135488200Y-64244170D02*
X135545342Y-64415598D01*
X135545342Y-64415598D02*
X135545342Y-64529884D01*
X135545342Y-64529884D02*
X135488200Y-64701313D01*
X135488200Y-64701313D02*
X135373914Y-64815598D01*
X135373914Y-64815598D02*
X135259628Y-64872741D01*
X135259628Y-64872741D02*
X135031057Y-64929884D01*
X135031057Y-64929884D02*
X134859628Y-64929884D01*
X134859628Y-64929884D02*
X134631057Y-64872741D01*
X134631057Y-64872741D02*
X134516771Y-64815598D01*
X134516771Y-64815598D02*
X134402485Y-64701313D01*
X134402485Y-64701313D02*
X134345342Y-64529884D01*
X134345342Y-64529884D02*
X134345342Y-64415598D01*
X134345342Y-64415598D02*
X134402485Y-64244170D01*
X134402485Y-64244170D02*
X134459628Y-64187027D01*
X137984398Y-80845342D02*
X137984398Y-79645342D01*
X137984398Y-79645342D02*
X138441541Y-79645342D01*
X138441541Y-79645342D02*
X138555826Y-79702485D01*
X138555826Y-79702485D02*
X138612969Y-79759628D01*
X138612969Y-79759628D02*
X138670112Y-79873914D01*
X138670112Y-79873914D02*
X138670112Y-80045342D01*
X138670112Y-80045342D02*
X138612969Y-80159628D01*
X138612969Y-80159628D02*
X138555826Y-80216771D01*
X138555826Y-80216771D02*
X138441541Y-80273914D01*
X138441541Y-80273914D02*
X137984398Y-80273914D01*
X139184398Y-80845342D02*
X139184398Y-80045342D01*
X139184398Y-79645342D02*
X139127255Y-79702485D01*
X139127255Y-79702485D02*
X139184398Y-79759628D01*
X139184398Y-79759628D02*
X139241541Y-79702485D01*
X139241541Y-79702485D02*
X139184398Y-79645342D01*
X139184398Y-79645342D02*
X139184398Y-79759628D01*
X140670113Y-80845342D02*
X140670113Y-79645342D01*
X140670113Y-79645342D02*
X141127256Y-79645342D01*
X141127256Y-79645342D02*
X141241541Y-79702485D01*
X141241541Y-79702485D02*
X141298684Y-79759628D01*
X141298684Y-79759628D02*
X141355827Y-79873914D01*
X141355827Y-79873914D02*
X141355827Y-80045342D01*
X141355827Y-80045342D02*
X141298684Y-80159628D01*
X141298684Y-80159628D02*
X141241541Y-80216771D01*
X141241541Y-80216771D02*
X141127256Y-80273914D01*
X141127256Y-80273914D02*
X140670113Y-80273914D01*
X141870113Y-80845342D02*
X141870113Y-80045342D01*
X141870113Y-79645342D02*
X141812970Y-79702485D01*
X141812970Y-79702485D02*
X141870113Y-79759628D01*
X141870113Y-79759628D02*
X141927256Y-79702485D01*
X141927256Y-79702485D02*
X141870113Y-79645342D01*
X141870113Y-79645342D02*
X141870113Y-79759628D01*
X142955828Y-80788200D02*
X142841542Y-80845342D01*
X142841542Y-80845342D02*
X142612970Y-80845342D01*
X142612970Y-80845342D02*
X142498685Y-80788200D01*
X142498685Y-80788200D02*
X142441542Y-80731057D01*
X142441542Y-80731057D02*
X142384399Y-80616771D01*
X142384399Y-80616771D02*
X142384399Y-80273914D01*
X142384399Y-80273914D02*
X142441542Y-80159628D01*
X142441542Y-80159628D02*
X142498685Y-80102485D01*
X142498685Y-80102485D02*
X142612970Y-80045342D01*
X142612970Y-80045342D02*
X142841542Y-80045342D01*
X142841542Y-80045342D02*
X142955828Y-80102485D01*
X143641541Y-80845342D02*
X143527256Y-80788200D01*
X143527256Y-80788200D02*
X143470113Y-80731057D01*
X143470113Y-80731057D02*
X143412970Y-80616771D01*
X143412970Y-80616771D02*
X143412970Y-80273914D01*
X143412970Y-80273914D02*
X143470113Y-80159628D01*
X143470113Y-80159628D02*
X143527256Y-80102485D01*
X143527256Y-80102485D02*
X143641541Y-80045342D01*
X143641541Y-80045342D02*
X143812970Y-80045342D01*
X143812970Y-80045342D02*
X143927256Y-80102485D01*
X143927256Y-80102485D02*
X143984399Y-80159628D01*
X143984399Y-80159628D02*
X144041541Y-80273914D01*
X144041541Y-80273914D02*
X144041541Y-80616771D01*
X144041541Y-80616771D02*
X143984399Y-80731057D01*
X143984399Y-80731057D02*
X143927256Y-80788200D01*
X143927256Y-80788200D02*
X143812970Y-80845342D01*
X143812970Y-80845342D02*
X143641541Y-80845342D01*
D11*
X155632621Y-77029692D02*
X155632621Y-75829692D01*
X155632621Y-75829692D02*
X156032621Y-76686835D01*
X156032621Y-76686835D02*
X156432621Y-75829692D01*
X156432621Y-75829692D02*
X156432621Y-77029692D01*
X156946907Y-75943978D02*
X157004050Y-75886835D01*
X157004050Y-75886835D02*
X157118336Y-75829692D01*
X157118336Y-75829692D02*
X157404050Y-75829692D01*
X157404050Y-75829692D02*
X157518336Y-75886835D01*
X157518336Y-75886835D02*
X157575478Y-75943978D01*
X157575478Y-75943978D02*
X157632621Y-76058264D01*
X157632621Y-76058264D02*
X157632621Y-76172550D01*
X157632621Y-76172550D02*
X157575478Y-76343978D01*
X157575478Y-76343978D02*
X156889764Y-77029692D01*
X156889764Y-77029692D02*
X157632621Y-77029692D01*
X158146907Y-76915407D02*
X158204050Y-76972550D01*
X158204050Y-76972550D02*
X158146907Y-77029692D01*
X158146907Y-77029692D02*
X158089764Y-76972550D01*
X158089764Y-76972550D02*
X158146907Y-76915407D01*
X158146907Y-76915407D02*
X158146907Y-77029692D01*
X159289764Y-75829692D02*
X158718336Y-75829692D01*
X158718336Y-75829692D02*
X158661193Y-76401121D01*
X158661193Y-76401121D02*
X158718336Y-76343978D01*
X158718336Y-76343978D02*
X158832622Y-76286835D01*
X158832622Y-76286835D02*
X159118336Y-76286835D01*
X159118336Y-76286835D02*
X159232622Y-76343978D01*
X159232622Y-76343978D02*
X159289764Y-76401121D01*
X159289764Y-76401121D02*
X159346907Y-76515407D01*
X159346907Y-76515407D02*
X159346907Y-76801121D01*
X159346907Y-76801121D02*
X159289764Y-76915407D01*
X159289764Y-76915407D02*
X159232622Y-76972550D01*
X159232622Y-76972550D02*
X159118336Y-77029692D01*
X159118336Y-77029692D02*
X158832622Y-77029692D01*
X158832622Y-77029692D02*
X158718336Y-76972550D01*
X158718336Y-76972550D02*
X158661193Y-76915407D01*
D10*
X97609819Y-74700476D02*
X97133628Y-75033809D01*
X97609819Y-75271904D02*
X96609819Y-75271904D01*
X96609819Y-75271904D02*
X96609819Y-74890952D01*
X96609819Y-74890952D02*
X96657438Y-74795714D01*
X96657438Y-74795714D02*
X96705057Y-74748095D01*
X96705057Y-74748095D02*
X96800295Y-74700476D01*
X96800295Y-74700476D02*
X96943152Y-74700476D01*
X96943152Y-74700476D02*
X97038390Y-74748095D01*
X97038390Y-74748095D02*
X97086009Y-74795714D01*
X97086009Y-74795714D02*
X97133628Y-74890952D01*
X97133628Y-74890952D02*
X97133628Y-75271904D01*
X97609819Y-74271904D02*
X96609819Y-74271904D01*
X96609819Y-74271904D02*
X97609819Y-73700476D01*
X97609819Y-73700476D02*
X96609819Y-73700476D01*
X96705057Y-73271904D02*
X96657438Y-73224285D01*
X96657438Y-73224285D02*
X96609819Y-73129047D01*
X96609819Y-73129047D02*
X96609819Y-72890952D01*
X96609819Y-72890952D02*
X96657438Y-72795714D01*
X96657438Y-72795714D02*
X96705057Y-72748095D01*
X96705057Y-72748095D02*
X96800295Y-72700476D01*
X96800295Y-72700476D02*
X96895533Y-72700476D01*
X96895533Y-72700476D02*
X97038390Y-72748095D01*
X97038390Y-72748095D02*
X97609819Y-73319523D01*
X97609819Y-73319523D02*
X97609819Y-72700476D01*
X127314819Y-84225476D02*
X126838628Y-84558809D01*
X127314819Y-84796904D02*
X126314819Y-84796904D01*
X126314819Y-84796904D02*
X126314819Y-84415952D01*
X126314819Y-84415952D02*
X126362438Y-84320714D01*
X126362438Y-84320714D02*
X126410057Y-84273095D01*
X126410057Y-84273095D02*
X126505295Y-84225476D01*
X126505295Y-84225476D02*
X126648152Y-84225476D01*
X126648152Y-84225476D02*
X126743390Y-84273095D01*
X126743390Y-84273095D02*
X126791009Y-84320714D01*
X126791009Y-84320714D02*
X126838628Y-84415952D01*
X126838628Y-84415952D02*
X126838628Y-84796904D01*
X127314819Y-83796904D02*
X126314819Y-83796904D01*
X126314819Y-83796904D02*
X127314819Y-83225476D01*
X127314819Y-83225476D02*
X126314819Y-83225476D01*
X126314819Y-82844523D02*
X126314819Y-82225476D01*
X126314819Y-82225476D02*
X126695771Y-82558809D01*
X126695771Y-82558809D02*
X126695771Y-82415952D01*
X126695771Y-82415952D02*
X126743390Y-82320714D01*
X126743390Y-82320714D02*
X126791009Y-82273095D01*
X126791009Y-82273095D02*
X126886247Y-82225476D01*
X126886247Y-82225476D02*
X127124342Y-82225476D01*
X127124342Y-82225476D02*
X127219580Y-82273095D01*
X127219580Y-82273095D02*
X127267200Y-82320714D01*
X127267200Y-82320714D02*
X127314819Y-82415952D01*
X127314819Y-82415952D02*
X127314819Y-82701666D01*
X127314819Y-82701666D02*
X127267200Y-82796904D01*
X127267200Y-82796904D02*
X127219580Y-82844523D01*
X139938095Y-77686819D02*
X139938095Y-78496342D01*
X139938095Y-78496342D02*
X139985714Y-78591580D01*
X139985714Y-78591580D02*
X140033333Y-78639200D01*
X140033333Y-78639200D02*
X140128571Y-78686819D01*
X140128571Y-78686819D02*
X140319047Y-78686819D01*
X140319047Y-78686819D02*
X140414285Y-78639200D01*
X140414285Y-78639200D02*
X140461904Y-78591580D01*
X140461904Y-78591580D02*
X140509523Y-78496342D01*
X140509523Y-78496342D02*
X140509523Y-77686819D01*
X141414285Y-78020152D02*
X141414285Y-78686819D01*
X141176190Y-77639200D02*
X140938095Y-78353485D01*
X140938095Y-78353485D02*
X141557142Y-78353485D01*
X103378333Y-47984580D02*
X103330714Y-48032200D01*
X103330714Y-48032200D02*
X103187857Y-48079819D01*
X103187857Y-48079819D02*
X103092619Y-48079819D01*
X103092619Y-48079819D02*
X102949762Y-48032200D01*
X102949762Y-48032200D02*
X102854524Y-47936961D01*
X102854524Y-47936961D02*
X102806905Y-47841723D01*
X102806905Y-47841723D02*
X102759286Y-47651247D01*
X102759286Y-47651247D02*
X102759286Y-47508390D01*
X102759286Y-47508390D02*
X102806905Y-47317914D01*
X102806905Y-47317914D02*
X102854524Y-47222676D01*
X102854524Y-47222676D02*
X102949762Y-47127438D01*
X102949762Y-47127438D02*
X103092619Y-47079819D01*
X103092619Y-47079819D02*
X103187857Y-47079819D01*
X103187857Y-47079819D02*
X103330714Y-47127438D01*
X103330714Y-47127438D02*
X103378333Y-47175057D01*
X103759286Y-47175057D02*
X103806905Y-47127438D01*
X103806905Y-47127438D02*
X103902143Y-47079819D01*
X103902143Y-47079819D02*
X104140238Y-47079819D01*
X104140238Y-47079819D02*
X104235476Y-47127438D01*
X104235476Y-47127438D02*
X104283095Y-47175057D01*
X104283095Y-47175057D02*
X104330714Y-47270295D01*
X104330714Y-47270295D02*
X104330714Y-47365533D01*
X104330714Y-47365533D02*
X104283095Y-47508390D01*
X104283095Y-47508390D02*
X103711667Y-48079819D01*
X103711667Y-48079819D02*
X104330714Y-48079819D01*
X107783333Y-69924580D02*
X107735714Y-69972200D01*
X107735714Y-69972200D02*
X107592857Y-70019819D01*
X107592857Y-70019819D02*
X107497619Y-70019819D01*
X107497619Y-70019819D02*
X107354762Y-69972200D01*
X107354762Y-69972200D02*
X107259524Y-69876961D01*
X107259524Y-69876961D02*
X107211905Y-69781723D01*
X107211905Y-69781723D02*
X107164286Y-69591247D01*
X107164286Y-69591247D02*
X107164286Y-69448390D01*
X107164286Y-69448390D02*
X107211905Y-69257914D01*
X107211905Y-69257914D02*
X107259524Y-69162676D01*
X107259524Y-69162676D02*
X107354762Y-69067438D01*
X107354762Y-69067438D02*
X107497619Y-69019819D01*
X107497619Y-69019819D02*
X107592857Y-69019819D01*
X107592857Y-69019819D02*
X107735714Y-69067438D01*
X107735714Y-69067438D02*
X107783333Y-69115057D01*
X108116667Y-69019819D02*
X108735714Y-69019819D01*
X108735714Y-69019819D02*
X108402381Y-69400771D01*
X108402381Y-69400771D02*
X108545238Y-69400771D01*
X108545238Y-69400771D02*
X108640476Y-69448390D01*
X108640476Y-69448390D02*
X108688095Y-69496009D01*
X108688095Y-69496009D02*
X108735714Y-69591247D01*
X108735714Y-69591247D02*
X108735714Y-69829342D01*
X108735714Y-69829342D02*
X108688095Y-69924580D01*
X108688095Y-69924580D02*
X108640476Y-69972200D01*
X108640476Y-69972200D02*
X108545238Y-70019819D01*
X108545238Y-70019819D02*
X108259524Y-70019819D01*
X108259524Y-70019819D02*
X108164286Y-69972200D01*
X108164286Y-69972200D02*
X108116667Y-69924580D01*
X112268095Y-50209819D02*
X112268095Y-51019342D01*
X112268095Y-51019342D02*
X112315714Y-51114580D01*
X112315714Y-51114580D02*
X112363333Y-51162200D01*
X112363333Y-51162200D02*
X112458571Y-51209819D01*
X112458571Y-51209819D02*
X112649047Y-51209819D01*
X112649047Y-51209819D02*
X112744285Y-51162200D01*
X112744285Y-51162200D02*
X112791904Y-51114580D01*
X112791904Y-51114580D02*
X112839523Y-51019342D01*
X112839523Y-51019342D02*
X112839523Y-50209819D01*
X113839523Y-51209819D02*
X113268095Y-51209819D01*
X113553809Y-51209819D02*
X113553809Y-50209819D01*
X113553809Y-50209819D02*
X113458571Y-50352676D01*
X113458571Y-50352676D02*
X113363333Y-50447914D01*
X113363333Y-50447914D02*
X113268095Y-50495533D01*
X77136666Y-86739819D02*
X77136666Y-87454104D01*
X77136666Y-87454104D02*
X77089047Y-87596961D01*
X77089047Y-87596961D02*
X76993809Y-87692200D01*
X76993809Y-87692200D02*
X76850952Y-87739819D01*
X76850952Y-87739819D02*
X76755714Y-87739819D01*
X78136666Y-87739819D02*
X77565238Y-87739819D01*
X77850952Y-87739819D02*
X77850952Y-86739819D01*
X77850952Y-86739819D02*
X77755714Y-86882676D01*
X77755714Y-86882676D02*
X77660476Y-86977914D01*
X77660476Y-86977914D02*
X77565238Y-87025533D01*
X166793333Y-81989580D02*
X166745714Y-82037200D01*
X166745714Y-82037200D02*
X166602857Y-82084819D01*
X166602857Y-82084819D02*
X166507619Y-82084819D01*
X166507619Y-82084819D02*
X166364762Y-82037200D01*
X166364762Y-82037200D02*
X166269524Y-81941961D01*
X166269524Y-81941961D02*
X166221905Y-81846723D01*
X166221905Y-81846723D02*
X166174286Y-81656247D01*
X166174286Y-81656247D02*
X166174286Y-81513390D01*
X166174286Y-81513390D02*
X166221905Y-81322914D01*
X166221905Y-81322914D02*
X166269524Y-81227676D01*
X166269524Y-81227676D02*
X166364762Y-81132438D01*
X166364762Y-81132438D02*
X166507619Y-81084819D01*
X166507619Y-81084819D02*
X166602857Y-81084819D01*
X166602857Y-81084819D02*
X166745714Y-81132438D01*
X166745714Y-81132438D02*
X166793333Y-81180057D01*
X167126667Y-81084819D02*
X167793333Y-81084819D01*
X167793333Y-81084819D02*
X167364762Y-82084819D01*
X155468095Y-82639819D02*
X155468095Y-83449342D01*
X155468095Y-83449342D02*
X155515714Y-83544580D01*
X155515714Y-83544580D02*
X155563333Y-83592200D01*
X155563333Y-83592200D02*
X155658571Y-83639819D01*
X155658571Y-83639819D02*
X155849047Y-83639819D01*
X155849047Y-83639819D02*
X155944285Y-83592200D01*
X155944285Y-83592200D02*
X155991904Y-83544580D01*
X155991904Y-83544580D02*
X156039523Y-83449342D01*
X156039523Y-83449342D02*
X156039523Y-82639819D01*
X156991904Y-82639819D02*
X156515714Y-82639819D01*
X156515714Y-82639819D02*
X156468095Y-83116009D01*
X156468095Y-83116009D02*
X156515714Y-83068390D01*
X156515714Y-83068390D02*
X156610952Y-83020771D01*
X156610952Y-83020771D02*
X156849047Y-83020771D01*
X156849047Y-83020771D02*
X156944285Y-83068390D01*
X156944285Y-83068390D02*
X156991904Y-83116009D01*
X156991904Y-83116009D02*
X157039523Y-83211247D01*
X157039523Y-83211247D02*
X157039523Y-83449342D01*
X157039523Y-83449342D02*
X156991904Y-83544580D01*
X156991904Y-83544580D02*
X156944285Y-83592200D01*
X156944285Y-83592200D02*
X156849047Y-83639819D01*
X156849047Y-83639819D02*
X156610952Y-83639819D01*
X156610952Y-83639819D02*
X156515714Y-83592200D01*
X156515714Y-83592200D02*
X156468095Y-83544580D01*
X112268095Y-75609819D02*
X112268095Y-76419342D01*
X112268095Y-76419342D02*
X112315714Y-76514580D01*
X112315714Y-76514580D02*
X112363333Y-76562200D01*
X112363333Y-76562200D02*
X112458571Y-76609819D01*
X112458571Y-76609819D02*
X112649047Y-76609819D01*
X112649047Y-76609819D02*
X112744285Y-76562200D01*
X112744285Y-76562200D02*
X112791904Y-76514580D01*
X112791904Y-76514580D02*
X112839523Y-76419342D01*
X112839523Y-76419342D02*
X112839523Y-75609819D01*
X113268095Y-75705057D02*
X113315714Y-75657438D01*
X113315714Y-75657438D02*
X113410952Y-75609819D01*
X113410952Y-75609819D02*
X113649047Y-75609819D01*
X113649047Y-75609819D02*
X113744285Y-75657438D01*
X113744285Y-75657438D02*
X113791904Y-75705057D01*
X113791904Y-75705057D02*
X113839523Y-75800295D01*
X113839523Y-75800295D02*
X113839523Y-75895533D01*
X113839523Y-75895533D02*
X113791904Y-76038390D01*
X113791904Y-76038390D02*
X113220476Y-76609819D01*
X113220476Y-76609819D02*
X113839523Y-76609819D01*
X154265333Y-65224819D02*
X153932000Y-64748628D01*
X153693905Y-65224819D02*
X153693905Y-64224819D01*
X153693905Y-64224819D02*
X154074857Y-64224819D01*
X154074857Y-64224819D02*
X154170095Y-64272438D01*
X154170095Y-64272438D02*
X154217714Y-64320057D01*
X154217714Y-64320057D02*
X154265333Y-64415295D01*
X154265333Y-64415295D02*
X154265333Y-64558152D01*
X154265333Y-64558152D02*
X154217714Y-64653390D01*
X154217714Y-64653390D02*
X154170095Y-64701009D01*
X154170095Y-64701009D02*
X154074857Y-64748628D01*
X154074857Y-64748628D02*
X153693905Y-64748628D01*
X154646286Y-64320057D02*
X154693905Y-64272438D01*
X154693905Y-64272438D02*
X154789143Y-64224819D01*
X154789143Y-64224819D02*
X155027238Y-64224819D01*
X155027238Y-64224819D02*
X155122476Y-64272438D01*
X155122476Y-64272438D02*
X155170095Y-64320057D01*
X155170095Y-64320057D02*
X155217714Y-64415295D01*
X155217714Y-64415295D02*
X155217714Y-64510533D01*
X155217714Y-64510533D02*
X155170095Y-64653390D01*
X155170095Y-64653390D02*
X154598667Y-65224819D01*
X154598667Y-65224819D02*
X155217714Y-65224819D01*
X97609819Y-49935476D02*
X97133628Y-50268809D01*
X97609819Y-50506904D02*
X96609819Y-50506904D01*
X96609819Y-50506904D02*
X96609819Y-50125952D01*
X96609819Y-50125952D02*
X96657438Y-50030714D01*
X96657438Y-50030714D02*
X96705057Y-49983095D01*
X96705057Y-49983095D02*
X96800295Y-49935476D01*
X96800295Y-49935476D02*
X96943152Y-49935476D01*
X96943152Y-49935476D02*
X97038390Y-49983095D01*
X97038390Y-49983095D02*
X97086009Y-50030714D01*
X97086009Y-50030714D02*
X97133628Y-50125952D01*
X97133628Y-50125952D02*
X97133628Y-50506904D01*
X97609819Y-49506904D02*
X96609819Y-49506904D01*
X96609819Y-49506904D02*
X97609819Y-48935476D01*
X97609819Y-48935476D02*
X96609819Y-48935476D01*
X97609819Y-47935476D02*
X97609819Y-48506904D01*
X97609819Y-48221190D02*
X96609819Y-48221190D01*
X96609819Y-48221190D02*
X96752676Y-48316428D01*
X96752676Y-48316428D02*
X96847914Y-48411666D01*
X96847914Y-48411666D02*
X96895533Y-48506904D01*
X86233095Y-58084819D02*
X86233095Y-58894342D01*
X86233095Y-58894342D02*
X86280714Y-58989580D01*
X86280714Y-58989580D02*
X86328333Y-59037200D01*
X86328333Y-59037200D02*
X86423571Y-59084819D01*
X86423571Y-59084819D02*
X86614047Y-59084819D01*
X86614047Y-59084819D02*
X86709285Y-59037200D01*
X86709285Y-59037200D02*
X86756904Y-58989580D01*
X86756904Y-58989580D02*
X86804523Y-58894342D01*
X86804523Y-58894342D02*
X86804523Y-58084819D01*
X87185476Y-58084819D02*
X87804523Y-58084819D01*
X87804523Y-58084819D02*
X87471190Y-58465771D01*
X87471190Y-58465771D02*
X87614047Y-58465771D01*
X87614047Y-58465771D02*
X87709285Y-58513390D01*
X87709285Y-58513390D02*
X87756904Y-58561009D01*
X87756904Y-58561009D02*
X87804523Y-58656247D01*
X87804523Y-58656247D02*
X87804523Y-58894342D01*
X87804523Y-58894342D02*
X87756904Y-58989580D01*
X87756904Y-58989580D02*
X87709285Y-59037200D01*
X87709285Y-59037200D02*
X87614047Y-59084819D01*
X87614047Y-59084819D02*
X87328333Y-59084819D01*
X87328333Y-59084819D02*
X87233095Y-59037200D01*
X87233095Y-59037200D02*
X87185476Y-58989580D01*
X161388095Y-48949819D02*
X161388095Y-49759342D01*
X161388095Y-49759342D02*
X161435714Y-49854580D01*
X161435714Y-49854580D02*
X161483333Y-49902200D01*
X161483333Y-49902200D02*
X161578571Y-49949819D01*
X161578571Y-49949819D02*
X161769047Y-49949819D01*
X161769047Y-49949819D02*
X161864285Y-49902200D01*
X161864285Y-49902200D02*
X161911904Y-49854580D01*
X161911904Y-49854580D02*
X161959523Y-49759342D01*
X161959523Y-49759342D02*
X161959523Y-48949819D01*
X162864285Y-48949819D02*
X162673809Y-48949819D01*
X162673809Y-48949819D02*
X162578571Y-48997438D01*
X162578571Y-48997438D02*
X162530952Y-49045057D01*
X162530952Y-49045057D02*
X162435714Y-49187914D01*
X162435714Y-49187914D02*
X162388095Y-49378390D01*
X162388095Y-49378390D02*
X162388095Y-49759342D01*
X162388095Y-49759342D02*
X162435714Y-49854580D01*
X162435714Y-49854580D02*
X162483333Y-49902200D01*
X162483333Y-49902200D02*
X162578571Y-49949819D01*
X162578571Y-49949819D02*
X162769047Y-49949819D01*
X162769047Y-49949819D02*
X162864285Y-49902200D01*
X162864285Y-49902200D02*
X162911904Y-49854580D01*
X162911904Y-49854580D02*
X162959523Y-49759342D01*
X162959523Y-49759342D02*
X162959523Y-49521247D01*
X162959523Y-49521247D02*
X162911904Y-49426009D01*
X162911904Y-49426009D02*
X162864285Y-49378390D01*
X162864285Y-49378390D02*
X162769047Y-49330771D01*
X162769047Y-49330771D02*
X162578571Y-49330771D01*
X162578571Y-49330771D02*
X162483333Y-49378390D01*
X162483333Y-49378390D02*
X162435714Y-49426009D01*
X162435714Y-49426009D02*
X162388095Y-49521247D01*
X156678333Y-46954580D02*
X156630714Y-47002200D01*
X156630714Y-47002200D02*
X156487857Y-47049819D01*
X156487857Y-47049819D02*
X156392619Y-47049819D01*
X156392619Y-47049819D02*
X156249762Y-47002200D01*
X156249762Y-47002200D02*
X156154524Y-46906961D01*
X156154524Y-46906961D02*
X156106905Y-46811723D01*
X156106905Y-46811723D02*
X156059286Y-46621247D01*
X156059286Y-46621247D02*
X156059286Y-46478390D01*
X156059286Y-46478390D02*
X156106905Y-46287914D01*
X156106905Y-46287914D02*
X156154524Y-46192676D01*
X156154524Y-46192676D02*
X156249762Y-46097438D01*
X156249762Y-46097438D02*
X156392619Y-46049819D01*
X156392619Y-46049819D02*
X156487857Y-46049819D01*
X156487857Y-46049819D02*
X156630714Y-46097438D01*
X156630714Y-46097438D02*
X156678333Y-46145057D01*
X157249762Y-46478390D02*
X157154524Y-46430771D01*
X157154524Y-46430771D02*
X157106905Y-46383152D01*
X157106905Y-46383152D02*
X157059286Y-46287914D01*
X157059286Y-46287914D02*
X157059286Y-46240295D01*
X157059286Y-46240295D02*
X157106905Y-46145057D01*
X157106905Y-46145057D02*
X157154524Y-46097438D01*
X157154524Y-46097438D02*
X157249762Y-46049819D01*
X157249762Y-46049819D02*
X157440238Y-46049819D01*
X157440238Y-46049819D02*
X157535476Y-46097438D01*
X157535476Y-46097438D02*
X157583095Y-46145057D01*
X157583095Y-46145057D02*
X157630714Y-46240295D01*
X157630714Y-46240295D02*
X157630714Y-46287914D01*
X157630714Y-46287914D02*
X157583095Y-46383152D01*
X157583095Y-46383152D02*
X157535476Y-46430771D01*
X157535476Y-46430771D02*
X157440238Y-46478390D01*
X157440238Y-46478390D02*
X157249762Y-46478390D01*
X157249762Y-46478390D02*
X157154524Y-46526009D01*
X157154524Y-46526009D02*
X157106905Y-46573628D01*
X157106905Y-46573628D02*
X157059286Y-46668866D01*
X157059286Y-46668866D02*
X157059286Y-46859342D01*
X157059286Y-46859342D02*
X157106905Y-46954580D01*
X157106905Y-46954580D02*
X157154524Y-47002200D01*
X157154524Y-47002200D02*
X157249762Y-47049819D01*
X157249762Y-47049819D02*
X157440238Y-47049819D01*
X157440238Y-47049819D02*
X157535476Y-47002200D01*
X157535476Y-47002200D02*
X157583095Y-46954580D01*
X157583095Y-46954580D02*
X157630714Y-46859342D01*
X157630714Y-46859342D02*
X157630714Y-46668866D01*
X157630714Y-46668866D02*
X157583095Y-46573628D01*
X157583095Y-46573628D02*
X157535476Y-46526009D01*
X157535476Y-46526009D02*
X157440238Y-46478390D01*
X95781905Y-46809819D02*
X95781905Y-45809819D01*
X95781905Y-45809819D02*
X96020000Y-45809819D01*
X96020000Y-45809819D02*
X96162857Y-45857438D01*
X96162857Y-45857438D02*
X96258095Y-45952676D01*
X96258095Y-45952676D02*
X96305714Y-46047914D01*
X96305714Y-46047914D02*
X96353333Y-46238390D01*
X96353333Y-46238390D02*
X96353333Y-46381247D01*
X96353333Y-46381247D02*
X96305714Y-46571723D01*
X96305714Y-46571723D02*
X96258095Y-46666961D01*
X96258095Y-46666961D02*
X96162857Y-46762200D01*
X96162857Y-46762200D02*
X96020000Y-46809819D01*
X96020000Y-46809819D02*
X95781905Y-46809819D01*
X97305714Y-46809819D02*
X96734286Y-46809819D01*
X97020000Y-46809819D02*
X97020000Y-45809819D01*
X97020000Y-45809819D02*
X96924762Y-45952676D01*
X96924762Y-45952676D02*
X96829524Y-46047914D01*
X96829524Y-46047914D02*
X96734286Y-46095533D01*
X83812095Y-49857819D02*
X83812095Y-48857819D01*
X84383523Y-49857819D02*
X83954952Y-49286390D01*
X84383523Y-48857819D02*
X83812095Y-49429247D01*
X81734819Y-47855094D02*
X80734819Y-47855094D01*
X80734819Y-47855094D02*
X80734819Y-47616999D01*
X80734819Y-47616999D02*
X80782438Y-47474142D01*
X80782438Y-47474142D02*
X80877676Y-47378904D01*
X80877676Y-47378904D02*
X80972914Y-47331285D01*
X80972914Y-47331285D02*
X81163390Y-47283666D01*
X81163390Y-47283666D02*
X81306247Y-47283666D01*
X81306247Y-47283666D02*
X81496723Y-47331285D01*
X81496723Y-47331285D02*
X81591961Y-47378904D01*
X81591961Y-47378904D02*
X81687200Y-47474142D01*
X81687200Y-47474142D02*
X81734819Y-47616999D01*
X81734819Y-47616999D02*
X81734819Y-47855094D01*
X80830057Y-46902713D02*
X80782438Y-46855094D01*
X80782438Y-46855094D02*
X80734819Y-46759856D01*
X80734819Y-46759856D02*
X80734819Y-46521761D01*
X80734819Y-46521761D02*
X80782438Y-46426523D01*
X80782438Y-46426523D02*
X80830057Y-46378904D01*
X80830057Y-46378904D02*
X80925295Y-46331285D01*
X80925295Y-46331285D02*
X81020533Y-46331285D01*
X81020533Y-46331285D02*
X81163390Y-46378904D01*
X81163390Y-46378904D02*
X81734819Y-46950332D01*
X81734819Y-46950332D02*
X81734819Y-46331285D01*
X117308333Y-69924580D02*
X117260714Y-69972200D01*
X117260714Y-69972200D02*
X117117857Y-70019819D01*
X117117857Y-70019819D02*
X117022619Y-70019819D01*
X117022619Y-70019819D02*
X116879762Y-69972200D01*
X116879762Y-69972200D02*
X116784524Y-69876961D01*
X116784524Y-69876961D02*
X116736905Y-69781723D01*
X116736905Y-69781723D02*
X116689286Y-69591247D01*
X116689286Y-69591247D02*
X116689286Y-69448390D01*
X116689286Y-69448390D02*
X116736905Y-69257914D01*
X116736905Y-69257914D02*
X116784524Y-69162676D01*
X116784524Y-69162676D02*
X116879762Y-69067438D01*
X116879762Y-69067438D02*
X117022619Y-69019819D01*
X117022619Y-69019819D02*
X117117857Y-69019819D01*
X117117857Y-69019819D02*
X117260714Y-69067438D01*
X117260714Y-69067438D02*
X117308333Y-69115057D01*
X118165476Y-69019819D02*
X117975000Y-69019819D01*
X117975000Y-69019819D02*
X117879762Y-69067438D01*
X117879762Y-69067438D02*
X117832143Y-69115057D01*
X117832143Y-69115057D02*
X117736905Y-69257914D01*
X117736905Y-69257914D02*
X117689286Y-69448390D01*
X117689286Y-69448390D02*
X117689286Y-69829342D01*
X117689286Y-69829342D02*
X117736905Y-69924580D01*
X117736905Y-69924580D02*
X117784524Y-69972200D01*
X117784524Y-69972200D02*
X117879762Y-70019819D01*
X117879762Y-70019819D02*
X118070238Y-70019819D01*
X118070238Y-70019819D02*
X118165476Y-69972200D01*
X118165476Y-69972200D02*
X118213095Y-69924580D01*
X118213095Y-69924580D02*
X118260714Y-69829342D01*
X118260714Y-69829342D02*
X118260714Y-69591247D01*
X118260714Y-69591247D02*
X118213095Y-69496009D01*
X118213095Y-69496009D02*
X118165476Y-69448390D01*
X118165476Y-69448390D02*
X118070238Y-69400771D01*
X118070238Y-69400771D02*
X117879762Y-69400771D01*
X117879762Y-69400771D02*
X117784524Y-69448390D01*
X117784524Y-69448390D02*
X117736905Y-69496009D01*
X117736905Y-69496009D02*
X117689286Y-69591247D01*
X122388333Y-47984580D02*
X122340714Y-48032200D01*
X122340714Y-48032200D02*
X122197857Y-48079819D01*
X122197857Y-48079819D02*
X122102619Y-48079819D01*
X122102619Y-48079819D02*
X121959762Y-48032200D01*
X121959762Y-48032200D02*
X121864524Y-47936961D01*
X121864524Y-47936961D02*
X121816905Y-47841723D01*
X121816905Y-47841723D02*
X121769286Y-47651247D01*
X121769286Y-47651247D02*
X121769286Y-47508390D01*
X121769286Y-47508390D02*
X121816905Y-47317914D01*
X121816905Y-47317914D02*
X121864524Y-47222676D01*
X121864524Y-47222676D02*
X121959762Y-47127438D01*
X121959762Y-47127438D02*
X122102619Y-47079819D01*
X122102619Y-47079819D02*
X122197857Y-47079819D01*
X122197857Y-47079819D02*
X122340714Y-47127438D01*
X122340714Y-47127438D02*
X122388333Y-47175057D01*
X123293095Y-47079819D02*
X122816905Y-47079819D01*
X122816905Y-47079819D02*
X122769286Y-47556009D01*
X122769286Y-47556009D02*
X122816905Y-47508390D01*
X122816905Y-47508390D02*
X122912143Y-47460771D01*
X122912143Y-47460771D02*
X123150238Y-47460771D01*
X123150238Y-47460771D02*
X123245476Y-47508390D01*
X123245476Y-47508390D02*
X123293095Y-47556009D01*
X123293095Y-47556009D02*
X123340714Y-47651247D01*
X123340714Y-47651247D02*
X123340714Y-47889342D01*
X123340714Y-47889342D02*
X123293095Y-47984580D01*
X123293095Y-47984580D02*
X123245476Y-48032200D01*
X123245476Y-48032200D02*
X123150238Y-48079819D01*
X123150238Y-48079819D02*
X122912143Y-48079819D01*
X122912143Y-48079819D02*
X122816905Y-48032200D01*
X122816905Y-48032200D02*
X122769286Y-47984580D01*
X154265333Y-68272819D02*
X153932000Y-67796628D01*
X153693905Y-68272819D02*
X153693905Y-67272819D01*
X153693905Y-67272819D02*
X154074857Y-67272819D01*
X154074857Y-67272819D02*
X154170095Y-67320438D01*
X154170095Y-67320438D02*
X154217714Y-67368057D01*
X154217714Y-67368057D02*
X154265333Y-67463295D01*
X154265333Y-67463295D02*
X154265333Y-67606152D01*
X154265333Y-67606152D02*
X154217714Y-67701390D01*
X154217714Y-67701390D02*
X154170095Y-67749009D01*
X154170095Y-67749009D02*
X154074857Y-67796628D01*
X154074857Y-67796628D02*
X153693905Y-67796628D01*
X155217714Y-68272819D02*
X154646286Y-68272819D01*
X154932000Y-68272819D02*
X154932000Y-67272819D01*
X154932000Y-67272819D02*
X154836762Y-67415676D01*
X154836762Y-67415676D02*
X154741524Y-67510914D01*
X154741524Y-67510914D02*
X154646286Y-67558533D01*
X92670333Y-50174580D02*
X92622714Y-50222200D01*
X92622714Y-50222200D02*
X92479857Y-50269819D01*
X92479857Y-50269819D02*
X92384619Y-50269819D01*
X92384619Y-50269819D02*
X92241762Y-50222200D01*
X92241762Y-50222200D02*
X92146524Y-50126961D01*
X92146524Y-50126961D02*
X92098905Y-50031723D01*
X92098905Y-50031723D02*
X92051286Y-49841247D01*
X92051286Y-49841247D02*
X92051286Y-49698390D01*
X92051286Y-49698390D02*
X92098905Y-49507914D01*
X92098905Y-49507914D02*
X92146524Y-49412676D01*
X92146524Y-49412676D02*
X92241762Y-49317438D01*
X92241762Y-49317438D02*
X92384619Y-49269819D01*
X92384619Y-49269819D02*
X92479857Y-49269819D01*
X92479857Y-49269819D02*
X92622714Y-49317438D01*
X92622714Y-49317438D02*
X92670333Y-49365057D01*
X93622714Y-50269819D02*
X93051286Y-50269819D01*
X93337000Y-50269819D02*
X93337000Y-49269819D01*
X93337000Y-49269819D02*
X93241762Y-49412676D01*
X93241762Y-49412676D02*
X93146524Y-49507914D01*
X93146524Y-49507914D02*
X93051286Y-49555533D01*
D12*
X98385000Y-70755000D02*
X98385000Y-93775000D01*
X98385000Y-93775000D02*
X101005000Y-93775000D01*
X101005000Y-70755000D02*
X98385000Y-70755000D01*
X101005000Y-73375000D02*
X98385000Y-73375000D01*
X101005000Y-93775000D02*
X101005000Y-70755000D01*
X123150000Y-70755000D02*
X123150000Y-93775000D01*
X123150000Y-93775000D02*
X125770000Y-93775000D01*
X125770000Y-70755000D02*
X123150000Y-70755000D01*
X125770000Y-73375000D02*
X123150000Y-73375000D01*
X125770000Y-93775000D02*
X125770000Y-70755000D01*
X130200000Y-44500000D02*
X137000000Y-44500000D01*
X144400000Y-44500000D02*
X151200000Y-44500000D01*
X148193000Y-92833000D02*
X148193000Y-95500000D01*
X151200000Y-92833000D02*
X148193000Y-92833000D01*
X151200000Y-95500000D02*
X130200000Y-95500000D01*
X105915000Y-45905000D02*
X111255000Y-45905000D01*
X105915000Y-46599000D02*
X105915000Y-45905000D01*
X105915000Y-49345000D02*
X105915000Y-48651000D01*
X111255000Y-45905000D02*
X111255000Y-46599000D01*
X111255000Y-48651000D02*
X111255000Y-49345000D01*
X111255000Y-49345000D02*
X105915000Y-49345000D01*
X105280000Y-71020000D02*
X110620000Y-71020000D01*
X105280000Y-71714000D02*
X105280000Y-71020000D01*
X105280000Y-74460000D02*
X105280000Y-73766000D01*
X110620000Y-71020000D02*
X110620000Y-71714000D01*
X110620000Y-73766000D02*
X110620000Y-74460000D01*
X110620000Y-74460000D02*
X105280000Y-74460000D01*
X109170000Y-51595000D02*
X109170000Y-51860000D01*
X109170000Y-67215000D02*
X109170000Y-66950000D01*
X113030000Y-51595000D02*
X109170000Y-51595000D01*
X113030000Y-51595000D02*
X116890000Y-51595000D01*
X113030000Y-67215000D02*
X109170000Y-67215000D01*
X113030000Y-67215000D02*
X116890000Y-67215000D01*
X116890000Y-51595000D02*
X116890000Y-51860000D01*
X116890000Y-67215000D02*
X116890000Y-66950000D01*
X108317500Y-51860000D02*
X107977500Y-51390000D01*
X108657500Y-51390000D01*
X108317500Y-51860000D01*
G36*
X108317500Y-51860000D02*
G01*
X107977500Y-51390000D01*
X108657500Y-51390000D01*
X108317500Y-51860000D01*
G37*
X70270000Y-86330000D02*
X70270000Y-45630000D01*
X70270000Y-88930000D02*
X70270000Y-87600000D01*
X71600000Y-88930000D02*
X70270000Y-88930000D01*
X72870000Y-86330000D02*
X70270000Y-86330000D01*
X72870000Y-88930000D02*
X72870000Y-86330000D01*
X75470000Y-45630000D02*
X70270000Y-45630000D01*
X75470000Y-88930000D02*
X72870000Y-88930000D01*
X75470000Y-88930000D02*
X75470000Y-45630000D01*
X159255000Y-79910000D02*
X164595000Y-79910000D01*
X159255000Y-80604000D02*
X159255000Y-79910000D01*
X159255000Y-83350000D02*
X159255000Y-82656000D01*
X164595000Y-79910000D02*
X164595000Y-80604000D01*
X164595000Y-82656000D02*
X164595000Y-83350000D01*
X164595000Y-83350000D02*
X159255000Y-83350000D01*
X158290000Y-84275000D02*
X158290000Y-84530000D01*
X158290000Y-94795000D02*
X158290000Y-94540000D01*
X162150000Y-84275000D02*
X158290000Y-84275000D01*
X162150000Y-84275000D02*
X166010000Y-84275000D01*
X162150000Y-94795000D02*
X158290000Y-94795000D01*
X162150000Y-94795000D02*
X166010000Y-94795000D01*
X166010000Y-84275000D02*
X166010000Y-84530000D01*
X166010000Y-94795000D02*
X166010000Y-94540000D01*
X157437500Y-84530000D02*
X157097500Y-84060000D01*
X157777500Y-84060000D01*
X157437500Y-84530000D01*
G36*
X157437500Y-84530000D02*
G01*
X157097500Y-84060000D01*
X157777500Y-84060000D01*
X157437500Y-84530000D01*
G37*
X109170000Y-76995000D02*
X109170000Y-77260000D01*
X109170000Y-92615000D02*
X109170000Y-92350000D01*
X113030000Y-76995000D02*
X109170000Y-76995000D01*
X113030000Y-76995000D02*
X116890000Y-76995000D01*
X113030000Y-92615000D02*
X109170000Y-92615000D01*
X113030000Y-92615000D02*
X116890000Y-92615000D01*
X116890000Y-76995000D02*
X116890000Y-77260000D01*
X116890000Y-92615000D02*
X116890000Y-92350000D01*
X108317500Y-77260000D02*
X107977500Y-76790000D01*
X108657500Y-76790000D01*
X108317500Y-77260000D01*
G36*
X108317500Y-77260000D02*
G01*
X107977500Y-76790000D01*
X108657500Y-76790000D01*
X108317500Y-77260000D01*
G37*
X157885000Y-65786000D02*
X158655000Y-65786000D01*
X165965000Y-65786000D02*
X165195000Y-65786000D01*
X165195000Y-67156000D02*
X158655000Y-67156000D01*
X158655000Y-64416000D01*
X165195000Y-64416000D01*
X165195000Y-67156000D01*
X98385000Y-45355000D02*
X98385000Y-68375000D01*
X98385000Y-68375000D02*
X101005000Y-68375000D01*
X101005000Y-45355000D02*
X98385000Y-45355000D01*
X101005000Y-47975000D02*
X98385000Y-47975000D01*
X101005000Y-68375000D02*
X101005000Y-45355000D01*
X84745000Y-59630000D02*
X84745000Y-85150000D01*
X84745000Y-85150000D02*
X89245000Y-85150000D01*
X85995000Y-59630000D02*
X84745000Y-59630000D01*
X89245000Y-59630000D02*
X87995000Y-59630000D01*
X89245000Y-85150000D02*
X89245000Y-59630000D01*
X87995000Y-59630000D02*
G75*
G02*
X85995000Y-59630000I-1000000J0D01*
G01*
X158290000Y-50335000D02*
X158290000Y-50590000D01*
X158290000Y-60855000D02*
X158290000Y-60600000D01*
X162150000Y-50335000D02*
X158290000Y-50335000D01*
X162150000Y-50335000D02*
X166010000Y-50335000D01*
X162150000Y-60855000D02*
X158290000Y-60855000D01*
X162150000Y-60855000D02*
X166010000Y-60855000D01*
X166010000Y-50335000D02*
X166010000Y-50590000D01*
X166010000Y-60855000D02*
X166010000Y-60600000D01*
X157437500Y-50590000D02*
X157097500Y-50120000D01*
X157777500Y-50120000D01*
X157437500Y-50590000D01*
G36*
X157437500Y-50590000D02*
G01*
X157097500Y-50120000D01*
X157777500Y-50120000D01*
X157437500Y-50590000D01*
G37*
X159255000Y-44875000D02*
X164595000Y-44875000D01*
X159255000Y-45569000D02*
X159255000Y-44875000D01*
X159255000Y-48315000D02*
X159255000Y-47621000D01*
X164595000Y-44875000D02*
X164595000Y-45569000D01*
X164595000Y-47621000D02*
X164595000Y-48315000D01*
X164595000Y-48315000D02*
X159255000Y-48315000D01*
X85160000Y-46990000D02*
X86180000Y-46990000D01*
X86960000Y-45520000D02*
X86960000Y-48460000D01*
X87080000Y-45520000D02*
X87080000Y-48460000D01*
X87200000Y-45520000D02*
X87200000Y-48460000D01*
X92640000Y-46990000D02*
X91620000Y-46990000D01*
X86180000Y-45520000D02*
X91620000Y-45520000D01*
X91620000Y-48460000D01*
X86180000Y-48460000D01*
X86180000Y-45520000D01*
X77090000Y-45512000D02*
X77090000Y-51022000D01*
X80390000Y-45512000D02*
X77090000Y-45512000D01*
X80390000Y-45512000D02*
X80390000Y-51022000D01*
X114805000Y-71020000D02*
X120145000Y-71020000D01*
X114805000Y-71714000D02*
X114805000Y-71020000D01*
X114805000Y-74460000D02*
X114805000Y-73766000D01*
X120145000Y-71020000D02*
X120145000Y-71714000D01*
X120145000Y-73766000D02*
X120145000Y-74460000D01*
X120145000Y-74460000D02*
X114805000Y-74460000D01*
X114805000Y-45905000D02*
X120145000Y-45905000D01*
X114805000Y-46599000D02*
X114805000Y-45905000D01*
X114805000Y-49345000D02*
X114805000Y-48651000D01*
X120145000Y-45905000D02*
X120145000Y-46599000D01*
X120145000Y-48651000D02*
X120145000Y-49345000D01*
X120145000Y-49345000D02*
X114805000Y-49345000D01*
X157885000Y-69215000D02*
X158655000Y-69215000D01*
X165965000Y-69215000D02*
X165195000Y-69215000D01*
X165195000Y-70585000D02*
X158655000Y-70585000D01*
X158655000Y-67845000D01*
X165195000Y-67845000D01*
X165195000Y-70585000D01*
X84325000Y-51620000D02*
X89665000Y-51620000D01*
X84325000Y-52314000D02*
X84325000Y-51620000D01*
X84325000Y-55060000D02*
X84325000Y-54366000D01*
X89665000Y-51620000D02*
X89665000Y-52314000D01*
X89665000Y-54366000D02*
X89665000Y-55060000D01*
X89665000Y-55060000D02*
X84325000Y-55060000D01*
%LPC*%
D13*
X99695000Y-72105000D03*
D14*
X99695000Y-74645000D03*
X99695000Y-77185000D03*
X99695000Y-79725000D03*
X99695000Y-82265000D03*
X99695000Y-84805000D03*
X99695000Y-87345000D03*
X99695000Y-89885000D03*
X99695000Y-92425000D03*
D13*
X124460000Y-72105000D03*
D14*
X124460000Y-74645000D03*
X124460000Y-77185000D03*
X124460000Y-79725000D03*
X124460000Y-82265000D03*
X124460000Y-84805000D03*
X124460000Y-87345000D03*
X124460000Y-89885000D03*
X124460000Y-92425000D03*
D15*
X143425000Y-94000000D03*
D16*
X143125000Y-90970000D03*
X138275000Y-90970000D03*
D15*
X137975000Y-94000000D03*
D17*
X150490000Y-94130000D03*
X150490000Y-91590000D03*
X150490000Y-89050000D03*
X150490000Y-86510000D03*
X150490000Y-83970000D03*
X150490000Y-81430000D03*
X150490000Y-78890000D03*
X150490000Y-76350000D03*
X150490000Y-73810000D03*
X150490000Y-71270000D03*
X150490000Y-68730000D03*
X150490000Y-66190000D03*
X150490000Y-63650000D03*
X150490000Y-61110000D03*
X150490000Y-58570000D03*
X150490000Y-56030000D03*
X150490000Y-53490000D03*
X150490000Y-50950000D03*
X150490000Y-48410000D03*
X150490000Y-45870000D03*
X130910000Y-45870000D03*
X130910000Y-48410000D03*
X130910000Y-50950000D03*
X130910000Y-53490000D03*
X130910000Y-56030000D03*
X130910000Y-58570000D03*
X130910000Y-61110000D03*
X130910000Y-63650000D03*
X130910000Y-66190000D03*
X130910000Y-68730000D03*
X130910000Y-71270000D03*
X130910000Y-73810000D03*
X130910000Y-76350000D03*
X130910000Y-78890000D03*
X130910000Y-81430000D03*
X130910000Y-83970000D03*
X130910000Y-86510000D03*
X130910000Y-89050000D03*
X130910000Y-91590000D03*
X130910000Y-94130000D03*
D14*
X106085000Y-47625000D03*
X111085000Y-47625000D03*
X105450000Y-72740000D03*
X110450000Y-72740000D03*
D18*
X108380000Y-52420000D03*
X108380000Y-53690000D03*
X108380000Y-54960000D03*
X108380000Y-56230000D03*
X108380000Y-57500000D03*
X108380000Y-58770000D03*
X108380000Y-60040000D03*
X108380000Y-61310000D03*
X108380000Y-62580000D03*
X108380000Y-63850000D03*
X108380000Y-65120000D03*
X108380000Y-66390000D03*
X117680000Y-66390000D03*
X117680000Y-65120000D03*
X117680000Y-63850000D03*
X117680000Y-62580000D03*
X117680000Y-61310000D03*
X117680000Y-60040000D03*
X117680000Y-58770000D03*
X117680000Y-57500000D03*
X117680000Y-56230000D03*
X117680000Y-54960000D03*
X117680000Y-53690000D03*
X117680000Y-52420000D03*
D19*
X71600000Y-87600000D03*
D20*
X74140000Y-87600000D03*
X71600000Y-85060000D03*
X74140000Y-85060000D03*
X71600000Y-82520000D03*
X74140000Y-82520000D03*
X71600000Y-79980000D03*
X74140000Y-79980000D03*
X71600000Y-77440000D03*
X74140000Y-77440000D03*
X71600000Y-74900000D03*
X74140000Y-74900000D03*
X71600000Y-72360000D03*
X74140000Y-72360000D03*
X71600000Y-69820000D03*
X74140000Y-69820000D03*
X71600000Y-67280000D03*
X74140000Y-67280000D03*
X71600000Y-64740000D03*
X74140000Y-64740000D03*
X71600000Y-62200000D03*
X74140000Y-62200000D03*
X71600000Y-59660000D03*
X74140000Y-59660000D03*
X71600000Y-57120000D03*
X74140000Y-57120000D03*
X71600000Y-54580000D03*
X74140000Y-54580000D03*
X71600000Y-52040000D03*
X74140000Y-52040000D03*
X71600000Y-49500000D03*
X74140000Y-49500000D03*
X71600000Y-46960000D03*
X74140000Y-46960000D03*
D14*
X159425000Y-81630000D03*
X164425000Y-81630000D03*
D18*
X157500000Y-85090000D03*
X157500000Y-86360000D03*
X157500000Y-87630000D03*
X157500000Y-88900000D03*
X157500000Y-90170000D03*
X157500000Y-91440000D03*
X157500000Y-92710000D03*
X157500000Y-93980000D03*
X166800000Y-93980000D03*
X166800000Y-92710000D03*
X166800000Y-91440000D03*
X166800000Y-90170000D03*
X166800000Y-88900000D03*
X166800000Y-87630000D03*
X166800000Y-86360000D03*
X166800000Y-85090000D03*
X108380000Y-77820000D03*
X108380000Y-79090000D03*
X108380000Y-80360000D03*
X108380000Y-81630000D03*
X108380000Y-82900000D03*
X108380000Y-84170000D03*
X108380000Y-85440000D03*
X108380000Y-86710000D03*
X108380000Y-87980000D03*
X108380000Y-89250000D03*
X108380000Y-90520000D03*
X108380000Y-91790000D03*
X117680000Y-91790000D03*
X117680000Y-90520000D03*
X117680000Y-89250000D03*
X117680000Y-87980000D03*
X117680000Y-86710000D03*
X117680000Y-85440000D03*
X117680000Y-84170000D03*
X117680000Y-82900000D03*
X117680000Y-81630000D03*
X117680000Y-80360000D03*
X117680000Y-79090000D03*
X117680000Y-77820000D03*
D14*
X167005000Y-65786000D03*
X156845000Y-65786000D03*
D13*
X99695000Y-46705000D03*
D14*
X99695000Y-49245000D03*
X99695000Y-51785000D03*
X99695000Y-54325000D03*
X99695000Y-56865000D03*
X99695000Y-59405000D03*
X99695000Y-61945000D03*
X99695000Y-64485000D03*
X99695000Y-67025000D03*
D21*
X83185000Y-60960000D03*
D22*
X83185000Y-63500000D03*
X83185000Y-66040000D03*
X83185000Y-68580000D03*
X83185000Y-71120000D03*
X83185000Y-73660000D03*
X83185000Y-76200000D03*
X83185000Y-78740000D03*
X83185000Y-81280000D03*
X83185000Y-83820000D03*
X90805000Y-83820000D03*
X90805000Y-81280000D03*
X90805000Y-78740000D03*
X90805000Y-76200000D03*
X90805000Y-73660000D03*
X90805000Y-71120000D03*
X90805000Y-68580000D03*
X90805000Y-66040000D03*
X90805000Y-63500000D03*
X90805000Y-60960000D03*
D18*
X157500000Y-51150000D03*
X157500000Y-52420000D03*
X157500000Y-53690000D03*
X157500000Y-54960000D03*
X157500000Y-56230000D03*
X157500000Y-57500000D03*
X157500000Y-58770000D03*
X157500000Y-60040000D03*
X166800000Y-60040000D03*
X166800000Y-58770000D03*
X166800000Y-57500000D03*
X166800000Y-56230000D03*
X166800000Y-54960000D03*
X166800000Y-53690000D03*
X166800000Y-52420000D03*
X166800000Y-51150000D03*
D14*
X159425000Y-46595000D03*
X164425000Y-46595000D03*
D23*
X83820000Y-46990000D03*
D24*
X93980000Y-46990000D03*
D25*
X78740000Y-47022000D03*
X78740000Y-51022000D03*
D14*
X119975000Y-72740000D03*
X114975000Y-72740000D03*
X114975000Y-47625000D03*
X119975000Y-47625000D03*
D26*
X162400000Y-76232500D03*
D14*
X167005000Y-69215000D03*
X156845000Y-69215000D03*
X89495000Y-53340000D03*
X84495000Y-53340000D03*
%LPD*%
M02*
