G04 #@! TF.GenerationSoftware,KiCad,Pcbnew,9.0.4*
G04 #@! TF.CreationDate,2025-09-06T16:04:25+01:00*
G04 #@! TF.ProjectId,megaflash,6d656761-666c-4617-9368-2e6b69636164,rev?*
G04 #@! TF.SameCoordinates,Original*
G04 #@! TF.FileFunction,Copper,L2,Bot*
G04 #@! TF.FilePolarity,Positive*
%FSLAX46Y46*%
G04 Gerber Fmt 4.6, Leading zero omitted, Abs format (unit mm)*
G04 Created by KiCad (PCBNEW 9.0.4) date 2025-09-06 16:04:25*
%MOMM*%
%LPD*%
G01*
G04 APERTURE LIST*
G04 Aperture macros list*
%AMRoundRect*
0 Rectangle with rounded corners*
0 $1 Rounding radius*
0 $2 $3 $4 $5 $6 $7 $8 $9 X,Y pos of 4 corners*
0 Add a 4 corners polygon primitive as box body*
4,1,4,$2,$3,$4,$5,$6,$7,$8,$9,$2,$3,0*
0 Add four circle primitives for the rounded corners*
1,1,$1+$1,$2,$3*
1,1,$1+$1,$4,$5*
1,1,$1+$1,$6,$7*
1,1,$1+$1,$8,$9*
0 Add four rect primitives between the rounded corners*
20,1,$1+$1,$2,$3,$4,$5,0*
20,1,$1+$1,$4,$5,$6,$7,0*
20,1,$1+$1,$6,$7,$8,$9,0*
20,1,$1+$1,$8,$9,$2,$3,0*%
G04 Aperture macros list end*
G04 #@! TA.AperFunction,ComponentPad*
%ADD10R,1.600000X1.600000*%
G04 #@! TD*
G04 #@! TA.AperFunction,ComponentPad*
%ADD11C,1.600000*%
G04 #@! TD*
G04 #@! TA.AperFunction,ComponentPad*
%ADD12R,1.700000X1.700000*%
G04 #@! TD*
G04 #@! TA.AperFunction,ComponentPad*
%ADD13O,1.700000X1.700000*%
G04 #@! TD*
G04 #@! TA.AperFunction,ComponentPad*
%ADD14RoundRect,0.250000X-0.950000X-0.550000X0.950000X-0.550000X0.950000X0.550000X-0.950000X0.550000X0*%
G04 #@! TD*
G04 #@! TA.AperFunction,ComponentPad*
%ADD15O,2.400000X1.600000*%
G04 #@! TD*
G04 #@! TA.AperFunction,ComponentPad*
%ADD16RoundRect,0.249999X-0.850001X-0.850001X0.850001X-0.850001X0.850001X0.850001X-0.850001X0.850001X0*%
G04 #@! TD*
G04 #@! TA.AperFunction,ComponentPad*
%ADD17C,2.200000*%
G04 #@! TD*
G04 #@! TA.AperFunction,ViaPad*
%ADD18C,0.800000*%
G04 #@! TD*
G04 #@! TA.AperFunction,ViaPad*
%ADD19C,0.600000*%
G04 #@! TD*
G04 #@! TA.AperFunction,Conductor*
%ADD20C,0.400000*%
G04 #@! TD*
G04 #@! TA.AperFunction,Conductor*
%ADD21C,0.200000*%
G04 #@! TD*
G04 APERTURE END LIST*
D10*
X99695000Y-72105000D03*
D11*
X99695000Y-74645000D03*
X99695000Y-77185000D03*
X99695000Y-79725000D03*
X99695000Y-82265000D03*
X99695000Y-84805000D03*
X99695000Y-87345000D03*
X99695000Y-89885000D03*
X99695000Y-92425000D03*
D10*
X124460000Y-72105000D03*
D11*
X124460000Y-74645000D03*
X124460000Y-77185000D03*
X124460000Y-79725000D03*
X124460000Y-82265000D03*
X124460000Y-84805000D03*
X124460000Y-87345000D03*
X124460000Y-89885000D03*
X124460000Y-92425000D03*
X106085000Y-47625000D03*
X111085000Y-47625000D03*
X105450000Y-72740000D03*
X110450000Y-72740000D03*
D12*
X71600000Y-93660000D03*
D13*
X74140000Y-93660000D03*
X71600000Y-91120000D03*
X74140000Y-91120000D03*
X71600000Y-88580000D03*
X74140000Y-88580000D03*
X71600000Y-86040000D03*
X74140000Y-86040000D03*
X71600000Y-83500000D03*
X74140000Y-83500000D03*
X71600000Y-80960000D03*
X74140000Y-80960000D03*
X71600000Y-78420000D03*
X74140000Y-78420000D03*
X71600000Y-75880000D03*
X74140000Y-75880000D03*
X71600000Y-73340000D03*
X74140000Y-73340000D03*
X71600000Y-70800000D03*
X74140000Y-70800000D03*
X71600000Y-68260000D03*
X74140000Y-68260000D03*
X71600000Y-65720000D03*
X74140000Y-65720000D03*
X71600000Y-63180000D03*
X74140000Y-63180000D03*
X71600000Y-60640000D03*
X74140000Y-60640000D03*
X71600000Y-58100000D03*
X74140000Y-58100000D03*
X71600000Y-55560000D03*
X74140000Y-55560000D03*
X71600000Y-53020000D03*
X74140000Y-53020000D03*
D11*
X159425000Y-64630000D03*
X164425000Y-64630000D03*
X166751000Y-88900000D03*
X156591000Y-88900000D03*
D10*
X99695000Y-46705000D03*
D11*
X99695000Y-49245000D03*
X99695000Y-51785000D03*
X99695000Y-54325000D03*
X99695000Y-56865000D03*
X99695000Y-59405000D03*
X99695000Y-61945000D03*
X99695000Y-64485000D03*
X99695000Y-67025000D03*
D14*
X83185000Y-60960000D03*
D15*
X83185000Y-63500000D03*
X83185000Y-66040000D03*
X83185000Y-68580000D03*
X83185000Y-71120000D03*
X83185000Y-73660000D03*
X83185000Y-76200000D03*
X83185000Y-78740000D03*
X83185000Y-81280000D03*
X83185000Y-83820000D03*
X90805000Y-83820000D03*
X90805000Y-81280000D03*
X90805000Y-78740000D03*
X90805000Y-76200000D03*
X90805000Y-73660000D03*
X90805000Y-71120000D03*
X90805000Y-68580000D03*
X90805000Y-66040000D03*
X90805000Y-63500000D03*
X90805000Y-60960000D03*
D11*
X159425000Y-46595000D03*
X164425000Y-46595000D03*
D16*
X78740000Y-47340000D03*
D17*
X88900000Y-47340000D03*
D11*
X119975000Y-72740000D03*
X114975000Y-72740000D03*
X114975000Y-47625000D03*
X119975000Y-47625000D03*
X166751000Y-92329000D03*
X156591000Y-92329000D03*
X89495000Y-53340000D03*
X84495000Y-53340000D03*
D18*
X146367017Y-68897017D03*
D19*
X146367017Y-76350000D03*
D18*
X163830000Y-75692000D03*
D19*
X146304000Y-89050000D03*
D18*
X112268000Y-72740000D03*
X152908000Y-51562000D03*
D19*
X112268000Y-66390000D03*
D18*
X152908000Y-63754000D03*
X127508000Y-93472000D03*
X95758000Y-60960000D03*
X154940000Y-85090000D03*
X164338000Y-60198000D03*
D19*
X138176000Y-84328000D03*
D18*
X138176000Y-72644000D03*
D19*
X81379948Y-69764373D03*
X78740000Y-75692000D03*
X79756000Y-70358000D03*
X80550000Y-78740000D03*
X75978000Y-63500000D03*
X77909000Y-77031000D03*
X87799000Y-62061000D03*
X80010000Y-76200000D03*
X80010000Y-72390000D03*
X87122000Y-82042000D03*
X87376000Y-54610000D03*
X78925000Y-64331000D03*
X78925000Y-59690000D03*
X92964000Y-59690000D03*
X93250000Y-64770000D03*
X85598000Y-69850000D03*
X79248000Y-71120000D03*
X79502000Y-74422000D03*
X87852000Y-66745962D03*
X86360000Y-79756000D03*
X86360000Y-55626000D03*
X76708000Y-60960000D03*
X85598000Y-58960000D03*
X96883068Y-68856000D03*
X85598000Y-68834000D03*
X87884000Y-64770000D03*
X93980000Y-81164000D03*
X128270000Y-45974000D03*
X125222000Y-61214000D03*
X125222000Y-63754000D03*
X101738000Y-73544000D03*
X127254000Y-53594000D03*
X136144000Y-59944000D03*
X136144000Y-80010000D03*
X121412000Y-70104000D03*
X121412000Y-56388000D03*
X134366000Y-85344000D03*
X134366000Y-56896000D03*
X123444000Y-57658000D03*
X123444000Y-68040000D03*
X136906000Y-77470000D03*
X136906000Y-62484000D03*
X133604000Y-87630000D03*
X133604000Y-58674000D03*
X124323187Y-64789625D03*
X124206000Y-59690000D03*
X135128000Y-82550000D03*
X135128000Y-57912000D03*
X127762000Y-48514000D03*
X153162000Y-77216000D03*
X152686000Y-78994000D03*
X164592000Y-68090000D03*
X156083000Y-86487000D03*
D20*
X163224000Y-45394000D02*
X164425000Y-46595000D01*
X152908000Y-49530000D02*
X157044000Y-45394000D01*
X152908000Y-51562000D02*
X152908000Y-63754000D01*
X146304000Y-76413017D02*
X146367017Y-76350000D01*
X164425000Y-64630000D02*
X166116000Y-66321000D01*
X112268000Y-66390000D02*
X112268000Y-72740000D01*
X166116000Y-66321000D02*
X166116000Y-73406000D01*
X152908000Y-51562000D02*
X152908000Y-49530000D01*
X166116000Y-73406000D02*
X163830000Y-75692000D01*
X146304000Y-89050000D02*
X146304000Y-76413017D01*
X146304000Y-68834000D02*
X146367017Y-68897017D01*
X157044000Y-45394000D02*
X163224000Y-45394000D01*
X146367017Y-76350000D02*
X146367017Y-68897017D01*
X78740000Y-50038000D02*
X80264000Y-51562000D01*
X87717000Y-51562000D02*
X89495000Y-53340000D01*
X105450000Y-72740000D02*
X105450000Y-78272000D01*
X78740000Y-47340000D02*
X78740000Y-50038000D01*
X80264000Y-51562000D02*
X87717000Y-51562000D01*
X105450000Y-78272000D02*
X121158000Y-93980000D01*
X95758000Y-60960000D02*
X95758000Y-70358000D01*
X95758000Y-70358000D02*
X97505000Y-72105000D01*
X106085000Y-47625000D02*
X106085000Y-72105000D01*
X89495000Y-59650000D02*
X90805000Y-60960000D01*
X121158000Y-93980000D02*
X127000000Y-93980000D01*
X89495000Y-53340000D02*
X89495000Y-59650000D01*
X127000000Y-93980000D02*
X127508000Y-93472000D01*
X97505000Y-72105000D02*
X99695000Y-72105000D01*
X106085000Y-72105000D02*
X105450000Y-72740000D01*
X159425000Y-64630000D02*
X159425000Y-60198000D01*
X154940000Y-67056000D02*
X157366000Y-64630000D01*
X166751000Y-88900000D02*
X166751000Y-92329000D01*
X164338000Y-60198000D02*
X159425000Y-60198000D01*
X138176000Y-72644000D02*
X138176000Y-84328000D01*
X154940000Y-85090000D02*
X154940000Y-67056000D01*
X114975000Y-47625000D02*
X114975000Y-67740000D01*
X114975000Y-67740000D02*
X119975000Y-72740000D01*
X159425000Y-60198000D02*
X159425000Y-46595000D01*
X157366000Y-64630000D02*
X159425000Y-64630000D01*
X74140000Y-53020000D02*
X72889000Y-54271000D01*
X72889000Y-54271000D02*
X72889000Y-59389000D01*
X72889000Y-59389000D02*
X74140000Y-60640000D01*
D21*
X72751000Y-94811000D02*
X97309000Y-94811000D01*
X97309000Y-94811000D02*
X99695000Y-92425000D01*
X71600000Y-93660000D02*
X72751000Y-94811000D01*
X92403000Y-87429000D02*
X95504000Y-84328000D01*
X95504000Y-84328000D02*
X95504000Y-81534000D01*
X71600000Y-86040000D02*
X72989000Y-87429000D01*
X72989000Y-87429000D02*
X92403000Y-87429000D01*
X95504000Y-81534000D02*
X99695000Y-77343000D01*
X99695000Y-77343000D02*
X99695000Y-77185000D01*
X81280000Y-69864321D02*
X81379948Y-69764373D01*
X81280000Y-79775000D02*
X81280000Y-69864321D01*
X83185000Y-81280000D02*
X82785000Y-81280000D01*
X82785000Y-81280000D02*
X81280000Y-79775000D01*
X78740000Y-75692000D02*
X78486000Y-75438000D01*
X79502000Y-68580000D02*
X83185000Y-68580000D01*
X78486000Y-69596000D02*
X79502000Y-68580000D01*
X78486000Y-75438000D02*
X78486000Y-69596000D01*
X80772000Y-78518000D02*
X80550000Y-78740000D01*
X79756000Y-70358000D02*
X80772000Y-71374000D01*
X80772000Y-71374000D02*
X80772000Y-78518000D01*
X99695000Y-84805000D02*
X93380000Y-91120000D01*
X93380000Y-91120000D02*
X74140000Y-91120000D01*
X74140000Y-78420000D02*
X75978000Y-76582000D01*
X75978000Y-76582000D02*
X75978000Y-63500000D01*
X77909000Y-67379000D02*
X79248000Y-66040000D01*
X77909000Y-77031000D02*
X77909000Y-67379000D01*
X79248000Y-66040000D02*
X83185000Y-66040000D01*
X89154000Y-70612000D02*
X89662000Y-71120000D01*
X89662000Y-71120000D02*
X90805000Y-71120000D01*
X87799000Y-62061000D02*
X87799000Y-62653000D01*
X87799000Y-62653000D02*
X89154000Y-64008000D01*
X89154000Y-64008000D02*
X89154000Y-70612000D01*
X80232000Y-72612000D02*
X80232000Y-75978000D01*
X80232000Y-75978000D02*
X80010000Y-76200000D01*
X80010000Y-72390000D02*
X80232000Y-72612000D01*
X92895000Y-89731000D02*
X99695000Y-82931000D01*
X99695000Y-82931000D02*
X99695000Y-82265000D01*
X71600000Y-88580000D02*
X72751000Y-89731000D01*
X72751000Y-89731000D02*
X92895000Y-89731000D01*
X87122000Y-82042000D02*
X87122000Y-54864000D01*
X87122000Y-54864000D02*
X87376000Y-54610000D01*
X93472000Y-60198000D02*
X92964000Y-59690000D01*
X93472000Y-64548000D02*
X93472000Y-60198000D01*
X93250000Y-64770000D02*
X93472000Y-64548000D01*
X78925000Y-64331000D02*
X78925000Y-59690000D01*
X87630000Y-83820000D02*
X90805000Y-83820000D01*
X85598000Y-81788000D02*
X87630000Y-83820000D01*
X85598000Y-69850000D02*
X85598000Y-81788000D01*
X79248000Y-71120000D02*
X79248000Y-74200000D01*
X79248000Y-74200000D02*
X79470000Y-74422000D01*
X79470000Y-74422000D02*
X79502000Y-74422000D01*
X79248000Y-71120000D02*
X79327856Y-71199856D01*
X87884000Y-66777962D02*
X87884000Y-74676000D01*
X89408000Y-76200000D02*
X90805000Y-76200000D01*
X87852000Y-66745962D02*
X87884000Y-66777962D01*
X87884000Y-74676000D02*
X89408000Y-76200000D01*
X99091000Y-87345000D02*
X99695000Y-87345000D01*
X71600000Y-91120000D02*
X72989000Y-92509000D01*
X72989000Y-92509000D02*
X93927000Y-92509000D01*
X93927000Y-92509000D02*
X99091000Y-87345000D01*
X86360000Y-79756000D02*
X86360000Y-55626000D01*
X75184000Y-79756000D02*
X72936000Y-79756000D01*
X76708000Y-78232000D02*
X76708000Y-60960000D01*
X75184000Y-79756000D02*
X76708000Y-78232000D01*
X72936000Y-79756000D02*
X71600000Y-78420000D01*
X94554000Y-93660000D02*
X98329000Y-89885000D01*
X74140000Y-93660000D02*
X94554000Y-93660000D01*
X98329000Y-89885000D02*
X99695000Y-89885000D01*
X99695000Y-59405000D02*
X96883068Y-62216932D01*
X96883068Y-62216932D02*
X96883068Y-68856000D01*
X85598000Y-58960000D02*
X85598000Y-68834000D01*
X94742000Y-82804000D02*
X94742000Y-79502000D01*
X91506000Y-86040000D02*
X94742000Y-82804000D01*
X74140000Y-86040000D02*
X91506000Y-86040000D01*
X99599000Y-74645000D02*
X99695000Y-74645000D01*
X94742000Y-79502000D02*
X99599000Y-74645000D01*
X96520000Y-84836000D02*
X96520000Y-82804000D01*
X92776000Y-88580000D02*
X96520000Y-84836000D01*
X96520000Y-82804000D02*
X99599000Y-79725000D01*
X99599000Y-79725000D02*
X99695000Y-79725000D01*
X74140000Y-88580000D02*
X92776000Y-88580000D01*
X90405000Y-73660000D02*
X90805000Y-73660000D01*
X88646000Y-71901000D02*
X90405000Y-73660000D01*
X88646000Y-65532000D02*
X88646000Y-71901000D01*
X87884000Y-64770000D02*
X88646000Y-65532000D01*
X93980000Y-57658000D02*
X94773000Y-56865000D01*
X94773000Y-56865000D02*
X99695000Y-56865000D01*
X93980000Y-81164000D02*
X93980000Y-57658000D01*
X128778000Y-46482000D02*
X128270000Y-45974000D01*
X128778000Y-75407000D02*
X128778000Y-46482000D01*
X124460000Y-79725000D02*
X128778000Y-75407000D01*
X125222000Y-63754000D02*
X125222000Y-61214000D01*
X101738000Y-55256000D02*
X100807000Y-54325000D01*
X101738000Y-73544000D02*
X101738000Y-55256000D01*
X100807000Y-54325000D02*
X99695000Y-54325000D01*
X127508000Y-53848000D02*
X127254000Y-53594000D01*
X127508000Y-72390000D02*
X127508000Y-53848000D01*
X125253000Y-74645000D02*
X127508000Y-72390000D01*
X124460000Y-74645000D02*
X125253000Y-74645000D01*
X136144000Y-59944000D02*
X136144000Y-80010000D01*
X121412000Y-70104000D02*
X121412000Y-56388000D01*
X134366000Y-85344000D02*
X134366000Y-56896000D01*
X123444000Y-68040000D02*
X123444000Y-57658000D01*
X136906000Y-62484000D02*
X136906000Y-77470000D01*
X133604000Y-87630000D02*
X133604000Y-58674000D01*
X124206000Y-59690000D02*
X124206000Y-64672438D01*
X124206000Y-64672438D02*
X124323187Y-64789625D01*
X135128000Y-57912000D02*
X135128000Y-82550000D01*
X128270000Y-73914000D02*
X128270000Y-49022000D01*
X128270000Y-49022000D02*
X127762000Y-48514000D01*
X124999000Y-77185000D02*
X128270000Y-73914000D01*
X124460000Y-77185000D02*
X124999000Y-77185000D01*
X156591000Y-88900000D02*
X153553812Y-85862812D01*
X153553812Y-77607812D02*
X153162000Y-77216000D01*
X153553812Y-85862812D02*
X153553812Y-77607812D01*
X156591000Y-92329000D02*
X152686000Y-88424000D01*
X152686000Y-88424000D02*
X152686000Y-78994000D01*
X156083000Y-86487000D02*
X156083000Y-72154000D01*
X160147000Y-68090000D02*
X164592000Y-68090000D01*
X156083000Y-72154000D02*
X160147000Y-68090000D01*
G04 #@! TA.AperFunction,Conductor*
G36*
X79228568Y-76434544D02*
G01*
X79258633Y-76477847D01*
X79300602Y-76579172D01*
X79300609Y-76579185D01*
X79388210Y-76710288D01*
X79388213Y-76710292D01*
X79499707Y-76821786D01*
X79499711Y-76821789D01*
X79630814Y-76909390D01*
X79630827Y-76909397D01*
X79734063Y-76952158D01*
X79776503Y-76969737D01*
X79931153Y-77000499D01*
X79931156Y-77000500D01*
X80047500Y-77000500D01*
X80114539Y-77020185D01*
X80160294Y-77072989D01*
X80171500Y-77124500D01*
X80171500Y-77963873D01*
X80151815Y-78030912D01*
X80116390Y-78066975D01*
X80039715Y-78118207D01*
X80039707Y-78118213D01*
X79928213Y-78229707D01*
X79928210Y-78229711D01*
X79840609Y-78360814D01*
X79840602Y-78360827D01*
X79780266Y-78506494D01*
X79780261Y-78506510D01*
X79749500Y-78661153D01*
X79749500Y-78818846D01*
X79780261Y-78973489D01*
X79780264Y-78973501D01*
X79840602Y-79119172D01*
X79840609Y-79119185D01*
X79928210Y-79250288D01*
X79928213Y-79250292D01*
X80039707Y-79361786D01*
X80039711Y-79361789D01*
X80170814Y-79449390D01*
X80170827Y-79449397D01*
X80316498Y-79509735D01*
X80316503Y-79509737D01*
X80471153Y-79540499D01*
X80471156Y-79540500D01*
X80555500Y-79540500D01*
X80564185Y-79543050D01*
X80573147Y-79541762D01*
X80597187Y-79552740D01*
X80622539Y-79560185D01*
X80628466Y-79567025D01*
X80636703Y-79570787D01*
X80650992Y-79593021D01*
X80668294Y-79612989D01*
X80670581Y-79623503D01*
X80674477Y-79629565D01*
X80679500Y-79664500D01*
X80679500Y-79688330D01*
X80679499Y-79688348D01*
X80679499Y-79854054D01*
X80679498Y-79854054D01*
X80720423Y-80006785D01*
X80739887Y-80040496D01*
X80739888Y-80040500D01*
X80799475Y-80143709D01*
X80799481Y-80143717D01*
X80918349Y-80262585D01*
X80918355Y-80262590D01*
X81490922Y-80835157D01*
X81524407Y-80896480D01*
X81521173Y-80961155D01*
X81516522Y-80975468D01*
X81484500Y-81177648D01*
X81484500Y-81382351D01*
X81516522Y-81584534D01*
X81579781Y-81779223D01*
X81627766Y-81873397D01*
X81672130Y-81960466D01*
X81672715Y-81961613D01*
X81793028Y-82127213D01*
X81937786Y-82271971D01*
X82092749Y-82384556D01*
X82103390Y-82392287D01*
X82175424Y-82428990D01*
X82196629Y-82439795D01*
X82247425Y-82487770D01*
X82264220Y-82555591D01*
X82241682Y-82621726D01*
X82196629Y-82660765D01*
X82103650Y-82708140D01*
X81938105Y-82828417D01*
X81938104Y-82828417D01*
X81793417Y-82973104D01*
X81793417Y-82973105D01*
X81673140Y-83138650D01*
X81580244Y-83320970D01*
X81517009Y-83515586D01*
X81508391Y-83570000D01*
X82869314Y-83570000D01*
X82864920Y-83574394D01*
X82812259Y-83665606D01*
X82785000Y-83767339D01*
X82785000Y-83872661D01*
X82812259Y-83974394D01*
X82864920Y-84065606D01*
X82869314Y-84070000D01*
X81508391Y-84070000D01*
X81517009Y-84124413D01*
X81580244Y-84319029D01*
X81673140Y-84501349D01*
X81793417Y-84666894D01*
X81793417Y-84666895D01*
X81938104Y-84811582D01*
X82103650Y-84931859D01*
X82285968Y-85024755D01*
X82480582Y-85087990D01*
X82682683Y-85120000D01*
X82935000Y-85120000D01*
X82935000Y-84135686D01*
X82939394Y-84140080D01*
X83030606Y-84192741D01*
X83132339Y-84220000D01*
X83237661Y-84220000D01*
X83339394Y-84192741D01*
X83430606Y-84140080D01*
X83435000Y-84135686D01*
X83435000Y-85120000D01*
X83687317Y-85120000D01*
X83889417Y-85087990D01*
X84084031Y-85024755D01*
X84266349Y-84931859D01*
X84431894Y-84811582D01*
X84431895Y-84811582D01*
X84576582Y-84666895D01*
X84576582Y-84666894D01*
X84696859Y-84501349D01*
X84789755Y-84319029D01*
X84852990Y-84124413D01*
X84861609Y-84070000D01*
X83500686Y-84070000D01*
X83505080Y-84065606D01*
X83557741Y-83974394D01*
X83585000Y-83872661D01*
X83585000Y-83767339D01*
X83557741Y-83665606D01*
X83505080Y-83574394D01*
X83500686Y-83570000D01*
X84861609Y-83570000D01*
X84852990Y-83515586D01*
X84789755Y-83320970D01*
X84696859Y-83138650D01*
X84576582Y-82973105D01*
X84576582Y-82973104D01*
X84431895Y-82828417D01*
X84266349Y-82708140D01*
X84173370Y-82660765D01*
X84122574Y-82612790D01*
X84105779Y-82544969D01*
X84128316Y-82478835D01*
X84173370Y-82439795D01*
X84173920Y-82439515D01*
X84266610Y-82392287D01*
X84300932Y-82367351D01*
X84432213Y-82271971D01*
X84432215Y-82271968D01*
X84432219Y-82271966D01*
X84576966Y-82127219D01*
X84576968Y-82127215D01*
X84576971Y-82127213D01*
X84686585Y-81976340D01*
X84697287Y-81961610D01*
X84764450Y-81829794D01*
X84812425Y-81778999D01*
X84880246Y-81762204D01*
X84946380Y-81784741D01*
X84989832Y-81839456D01*
X84993052Y-81848348D01*
X84997499Y-81862265D01*
X84997499Y-81867057D01*
X85038423Y-82019785D01*
X85052822Y-82044724D01*
X85096769Y-82120844D01*
X85117479Y-82156714D01*
X85117481Y-82156717D01*
X85236349Y-82275585D01*
X85236355Y-82275590D01*
X87145139Y-84184374D01*
X87145149Y-84184385D01*
X87149479Y-84188715D01*
X87149480Y-84188716D01*
X87261284Y-84300520D01*
X87348095Y-84350639D01*
X87348097Y-84350641D01*
X87374263Y-84365748D01*
X87398215Y-84379577D01*
X87550943Y-84420501D01*
X87550946Y-84420501D01*
X87716653Y-84420501D01*
X87716669Y-84420500D01*
X89175398Y-84420500D01*
X89242437Y-84440185D01*
X89285883Y-84488205D01*
X89292715Y-84501614D01*
X89413028Y-84667213D01*
X89557786Y-84811971D01*
X89712749Y-84924556D01*
X89723390Y-84932287D01*
X89839607Y-84991503D01*
X89905776Y-85025218D01*
X89905778Y-85025218D01*
X89905781Y-85025220D01*
X89954181Y-85040946D01*
X90100465Y-85088477D01*
X90201557Y-85104488D01*
X90302648Y-85120500D01*
X90302649Y-85120500D01*
X91276903Y-85120500D01*
X91298148Y-85126738D01*
X91320237Y-85128318D01*
X91331020Y-85136390D01*
X91343942Y-85140185D01*
X91358441Y-85156918D01*
X91376170Y-85170190D01*
X91380877Y-85182810D01*
X91389697Y-85192989D01*
X91392848Y-85214906D01*
X91400587Y-85235654D01*
X91397724Y-85248814D01*
X91399641Y-85262147D01*
X91390441Y-85282290D01*
X91385735Y-85303927D01*
X91372466Y-85321652D01*
X91370616Y-85325703D01*
X91364584Y-85332181D01*
X91293584Y-85403181D01*
X91232261Y-85436666D01*
X91205903Y-85439500D01*
X75425719Y-85439500D01*
X75358680Y-85419815D01*
X75315235Y-85371795D01*
X75295050Y-85332181D01*
X75170109Y-85160213D01*
X75019786Y-85009890D01*
X74847817Y-84884949D01*
X74838504Y-84880204D01*
X74787707Y-84832230D01*
X74770912Y-84764409D01*
X74793449Y-84698274D01*
X74838507Y-84659232D01*
X74847558Y-84654620D01*
X75019459Y-84529727D01*
X75019464Y-84529723D01*
X75169723Y-84379464D01*
X75169727Y-84379459D01*
X75294620Y-84207557D01*
X75391095Y-84018217D01*
X75398763Y-83994619D01*
X75456757Y-83816129D01*
X75456757Y-83816126D01*
X75467231Y-83750000D01*
X74573012Y-83750000D01*
X74605925Y-83692993D01*
X74640000Y-83565826D01*
X74640000Y-83434174D01*
X74605925Y-83307007D01*
X74573012Y-83250000D01*
X75467231Y-83250000D01*
X75456757Y-83183873D01*
X75456757Y-83183870D01*
X75391095Y-82981782D01*
X75294620Y-82792442D01*
X75169727Y-82620540D01*
X75169723Y-82620535D01*
X75019464Y-82470276D01*
X75019459Y-82470272D01*
X74847555Y-82345377D01*
X74838500Y-82340763D01*
X74787706Y-82292788D01*
X74770912Y-82224966D01*
X74793451Y-82158832D01*
X74838508Y-82119793D01*
X74847816Y-82115051D01*
X74930229Y-82055175D01*
X75019786Y-81990109D01*
X75019788Y-81990106D01*
X75019792Y-81990104D01*
X75170104Y-81839792D01*
X75170106Y-81839788D01*
X75170109Y-81839786D01*
X75295048Y-81667820D01*
X75295047Y-81667820D01*
X75295051Y-81667816D01*
X75391557Y-81478412D01*
X75457246Y-81276243D01*
X75490500Y-81066287D01*
X75490500Y-80853713D01*
X75457246Y-80643757D01*
X75391936Y-80442757D01*
X75389942Y-80372917D01*
X75426022Y-80313084D01*
X75447866Y-80297054D01*
X75469478Y-80284577D01*
X75552716Y-80236520D01*
X75664520Y-80124716D01*
X75664520Y-80124714D01*
X75674724Y-80114511D01*
X75674728Y-80114506D01*
X77066506Y-78722728D01*
X77066511Y-78722724D01*
X77076714Y-78712520D01*
X77076716Y-78712520D01*
X77188520Y-78600716D01*
X77267577Y-78463784D01*
X77305713Y-78321459D01*
X77308500Y-78311058D01*
X77308500Y-78152943D01*
X77308500Y-77824500D01*
X77328185Y-77757461D01*
X77380989Y-77711706D01*
X77450147Y-77701762D01*
X77501391Y-77721398D01*
X77508710Y-77726288D01*
X77529821Y-77740394D01*
X77529823Y-77740395D01*
X77529827Y-77740397D01*
X77605502Y-77771742D01*
X77675503Y-77800737D01*
X77794967Y-77824500D01*
X77830153Y-77831499D01*
X77830156Y-77831500D01*
X77830158Y-77831500D01*
X77987844Y-77831500D01*
X77987845Y-77831499D01*
X78142497Y-77800737D01*
X78288179Y-77740394D01*
X78419289Y-77652789D01*
X78530789Y-77541289D01*
X78618394Y-77410179D01*
X78678737Y-77264497D01*
X78709500Y-77109842D01*
X78709500Y-76952158D01*
X78709500Y-76952155D01*
X78709499Y-76952153D01*
X78701135Y-76910104D01*
X78678737Y-76797503D01*
X78642612Y-76710288D01*
X78623419Y-76663952D01*
X78615950Y-76594483D01*
X78647225Y-76532004D01*
X78707314Y-76496352D01*
X78737980Y-76492500D01*
X78818844Y-76492500D01*
X78818845Y-76492499D01*
X78973497Y-76461737D01*
X79096620Y-76410737D01*
X79166089Y-76403269D01*
X79228568Y-76434544D01*
G37*
G04 #@! TD.AperFunction*
G04 #@! TA.AperFunction,Conductor*
G36*
X73674075Y-83307007D02*
G01*
X73640000Y-83434174D01*
X73640000Y-83565826D01*
X73674075Y-83692993D01*
X73706988Y-83750000D01*
X72033012Y-83750000D01*
X72065925Y-83692993D01*
X72100000Y-83565826D01*
X72100000Y-83434174D01*
X72065925Y-83307007D01*
X72033012Y-83250000D01*
X73706988Y-83250000D01*
X73674075Y-83307007D01*
G37*
G04 #@! TD.AperFunction*
G04 #@! TA.AperFunction,Conductor*
G36*
X74390000Y-57666988D02*
G01*
X74332993Y-57634075D01*
X74205826Y-57600000D01*
X74074174Y-57600000D01*
X73947007Y-57634075D01*
X73890000Y-57666988D01*
X73890000Y-55993012D01*
X73947007Y-56025925D01*
X74074174Y-56060000D01*
X74205826Y-56060000D01*
X74332993Y-56025925D01*
X74390000Y-55993012D01*
X74390000Y-57666988D01*
G37*
G04 #@! TD.AperFunction*
G04 #@! TA.AperFunction,Conductor*
G36*
X131043039Y-44020185D02*
G01*
X131088794Y-44072989D01*
X131100000Y-44124500D01*
X131100000Y-55800000D01*
X150500000Y-55800000D01*
X150500000Y-44124500D01*
X150519685Y-44057461D01*
X150572489Y-44011706D01*
X150624000Y-44000500D01*
X169375500Y-44000500D01*
X169442539Y-44020185D01*
X169488294Y-44072989D01*
X169499500Y-44124500D01*
X169499500Y-95875500D01*
X169479815Y-95942539D01*
X169427011Y-95988294D01*
X169375500Y-95999500D01*
X67624500Y-95999500D01*
X67557461Y-95979815D01*
X67511706Y-95927011D01*
X67500500Y-95875500D01*
X67500500Y-52913713D01*
X70249500Y-52913713D01*
X70249500Y-53126286D01*
X70282245Y-53333034D01*
X70282754Y-53336243D01*
X70340887Y-53515158D01*
X70348444Y-53538414D01*
X70444951Y-53727820D01*
X70569890Y-53899786D01*
X70720213Y-54050109D01*
X70892182Y-54175050D01*
X70900946Y-54179516D01*
X70951742Y-54227491D01*
X70968536Y-54295312D01*
X70945998Y-54361447D01*
X70900946Y-54400484D01*
X70892182Y-54404949D01*
X70720213Y-54529890D01*
X70569890Y-54680213D01*
X70444951Y-54852179D01*
X70348444Y-55041585D01*
X70282753Y-55243760D01*
X70259195Y-55392503D01*
X70249500Y-55453713D01*
X70249500Y-55666287D01*
X70255607Y-55704842D01*
X70282245Y-55873034D01*
X70282754Y-55876243D01*
X70328744Y-56017786D01*
X70348444Y-56078414D01*
X70444951Y-56267820D01*
X70569890Y-56439786D01*
X70720213Y-56590109D01*
X70892182Y-56715050D01*
X70900946Y-56719516D01*
X70951742Y-56767491D01*
X70968536Y-56835312D01*
X70945998Y-56901447D01*
X70900946Y-56940484D01*
X70892182Y-56944949D01*
X70720213Y-57069890D01*
X70569890Y-57220213D01*
X70444951Y-57392179D01*
X70348444Y-57581585D01*
X70282753Y-57783760D01*
X70263667Y-57904264D01*
X70249500Y-57993713D01*
X70249500Y-58206287D01*
X70256520Y-58250609D01*
X70282245Y-58413034D01*
X70282754Y-58416243D01*
X70340887Y-58595158D01*
X70348444Y-58618414D01*
X70444951Y-58807820D01*
X70569890Y-58979786D01*
X70720213Y-59130109D01*
X70892182Y-59255050D01*
X70900946Y-59259516D01*
X70951742Y-59307491D01*
X70968536Y-59375312D01*
X70945998Y-59441447D01*
X70900946Y-59480484D01*
X70892182Y-59484949D01*
X70720213Y-59609890D01*
X70569890Y-59760213D01*
X70444951Y-59932179D01*
X70348444Y-60121585D01*
X70282753Y-60323760D01*
X70249500Y-60533713D01*
X70249500Y-60746286D01*
X70282245Y-60953034D01*
X70282754Y-60956243D01*
X70341323Y-61136500D01*
X70348444Y-61158414D01*
X70444951Y-61347820D01*
X70569890Y-61519786D01*
X70720213Y-61670109D01*
X70892182Y-61795050D01*
X70900946Y-61799516D01*
X70951742Y-61847491D01*
X70968536Y-61915312D01*
X70945998Y-61981447D01*
X70900946Y-62020484D01*
X70892182Y-62024949D01*
X70720213Y-62149890D01*
X70569890Y-62300213D01*
X70444951Y-62472179D01*
X70348444Y-62661585D01*
X70282753Y-62863760D01*
X70249500Y-63073713D01*
X70249500Y-63286286D01*
X70282245Y-63493034D01*
X70282754Y-63496243D01*
X70340887Y-63675158D01*
X70348444Y-63698414D01*
X70444951Y-63887820D01*
X70569890Y-64059786D01*
X70720213Y-64210109D01*
X70892182Y-64335050D01*
X70900946Y-64339516D01*
X70951742Y-64387491D01*
X70968536Y-64455312D01*
X70945998Y-64521447D01*
X70900946Y-64560484D01*
X70892182Y-64564949D01*
X70720213Y-64689890D01*
X70569890Y-64840213D01*
X70444951Y-65012179D01*
X70348444Y-65201585D01*
X70282753Y-65403760D01*
X70249500Y-65613713D01*
X70249500Y-65826286D01*
X70282245Y-66033034D01*
X70282754Y-66036243D01*
X70328744Y-66177786D01*
X70348444Y-66238414D01*
X70444951Y-66427820D01*
X70569890Y-66599786D01*
X70720213Y-66750109D01*
X70892182Y-66875050D01*
X70900946Y-66879516D01*
X70951742Y-66927491D01*
X70968536Y-66995312D01*
X70945998Y-67061447D01*
X70900946Y-67100484D01*
X70892182Y-67104949D01*
X70720213Y-67229890D01*
X70569890Y-67380213D01*
X70444951Y-67552179D01*
X70348444Y-67741585D01*
X70282753Y-67943760D01*
X70249500Y-68153713D01*
X70249500Y-68366286D01*
X70278643Y-68550292D01*
X70282754Y-68576243D01*
X70339015Y-68749397D01*
X70348444Y-68778414D01*
X70444951Y-68967820D01*
X70569890Y-69139786D01*
X70720213Y-69290109D01*
X70892182Y-69415050D01*
X70900946Y-69419516D01*
X70951742Y-69467491D01*
X70968536Y-69535312D01*
X70945998Y-69601447D01*
X70900946Y-69640484D01*
X70892182Y-69644949D01*
X70720213Y-69769890D01*
X70569890Y-69920213D01*
X70444951Y-70092179D01*
X70348444Y-70281585D01*
X70282753Y-70483760D01*
X70249500Y-70693713D01*
X70249500Y-70906286D01*
X70274268Y-71062669D01*
X70282754Y-71116243D01*
X70328530Y-71257127D01*
X70348444Y-71318414D01*
X70444951Y-71507820D01*
X70569890Y-71679786D01*
X70720213Y-71830109D01*
X70892182Y-71955050D01*
X70900946Y-71959516D01*
X70951742Y-72007491D01*
X70968536Y-72075312D01*
X70945998Y-72141447D01*
X70900946Y-72180484D01*
X70892182Y-72184949D01*
X70720213Y-72309890D01*
X70569890Y-72460213D01*
X70444951Y-72632179D01*
X70348444Y-72821585D01*
X70282753Y-73023760D01*
X70258984Y-73173831D01*
X70249500Y-73233713D01*
X70249500Y-73446287D01*
X70252489Y-73465158D01*
X70282245Y-73653034D01*
X70282754Y-73656243D01*
X70341993Y-73838562D01*
X70348444Y-73858414D01*
X70444951Y-74047820D01*
X70569890Y-74219786D01*
X70720213Y-74370109D01*
X70892182Y-74495050D01*
X70900946Y-74499516D01*
X70951742Y-74547491D01*
X70968536Y-74615312D01*
X70945998Y-74681447D01*
X70900946Y-74720484D01*
X70892182Y-74724949D01*
X70720213Y-74849890D01*
X70569890Y-75000213D01*
X70444951Y-75172179D01*
X70348444Y-75361585D01*
X70282753Y-75563760D01*
X70249500Y-75773713D01*
X70249500Y-75986286D01*
X70282245Y-76193034D01*
X70282754Y-76196243D01*
X70328744Y-76337786D01*
X70348444Y-76398414D01*
X70444951Y-76587820D01*
X70569890Y-76759786D01*
X70720213Y-76910109D01*
X70892182Y-77035050D01*
X70900946Y-77039516D01*
X70951742Y-77087491D01*
X70968536Y-77155312D01*
X70945998Y-77221447D01*
X70900946Y-77260484D01*
X70892182Y-77264949D01*
X70720213Y-77389890D01*
X70569890Y-77540213D01*
X70444951Y-77712179D01*
X70348444Y-77901585D01*
X70282753Y-78103760D01*
X70249500Y-78313713D01*
X70249500Y-78526286D01*
X70282245Y-78733034D01*
X70282754Y-78736243D01*
X70340887Y-78915158D01*
X70348444Y-78938414D01*
X70444951Y-79127820D01*
X70569890Y-79299786D01*
X70720213Y-79450109D01*
X70892182Y-79575050D01*
X70900946Y-79579516D01*
X70951742Y-79627491D01*
X70968536Y-79695312D01*
X70945998Y-79761447D01*
X70900946Y-79800484D01*
X70892182Y-79804949D01*
X70720213Y-79929890D01*
X70569890Y-80080213D01*
X70444951Y-80252179D01*
X70348444Y-80441585D01*
X70282753Y-80643760D01*
X70249500Y-80853713D01*
X70249500Y-81066286D01*
X70282245Y-81273034D01*
X70282754Y-81276243D01*
X70343905Y-81464447D01*
X70348444Y-81478414D01*
X70444951Y-81667820D01*
X70569890Y-81839786D01*
X70720213Y-81990109D01*
X70892179Y-82115048D01*
X70892181Y-82115049D01*
X70892184Y-82115051D01*
X70901493Y-82119794D01*
X70952290Y-82167766D01*
X70969087Y-82235587D01*
X70946552Y-82301722D01*
X70901502Y-82340762D01*
X70892443Y-82345378D01*
X70720540Y-82470272D01*
X70720535Y-82470276D01*
X70570276Y-82620535D01*
X70570272Y-82620540D01*
X70445379Y-82792442D01*
X70348904Y-82981782D01*
X70283242Y-83183870D01*
X70283242Y-83183873D01*
X70272769Y-83250000D01*
X71166988Y-83250000D01*
X71134075Y-83307007D01*
X71100000Y-83434174D01*
X71100000Y-83565826D01*
X71134075Y-83692993D01*
X71166988Y-83750000D01*
X70272769Y-83750000D01*
X70283242Y-83816126D01*
X70283242Y-83816129D01*
X70348904Y-84018217D01*
X70445379Y-84207557D01*
X70570272Y-84379459D01*
X70570276Y-84379464D01*
X70720535Y-84529723D01*
X70720540Y-84529727D01*
X70892444Y-84654622D01*
X70901495Y-84659234D01*
X70952292Y-84707208D01*
X70969087Y-84775029D01*
X70946550Y-84841164D01*
X70901499Y-84880202D01*
X70892182Y-84884949D01*
X70720213Y-85009890D01*
X70569890Y-85160213D01*
X70444951Y-85332179D01*
X70348444Y-85521585D01*
X70282753Y-85723760D01*
X70249500Y-85933713D01*
X70249500Y-86146286D01*
X70282245Y-86353034D01*
X70282754Y-86356243D01*
X70336130Y-86520518D01*
X70348444Y-86558414D01*
X70444951Y-86747820D01*
X70569890Y-86919786D01*
X70720213Y-87070109D01*
X70892182Y-87195050D01*
X70900946Y-87199516D01*
X70951742Y-87247491D01*
X70968536Y-87315312D01*
X70945998Y-87381447D01*
X70900946Y-87420484D01*
X70892182Y-87424949D01*
X70720213Y-87549890D01*
X70569890Y-87700213D01*
X70444951Y-87872179D01*
X70348444Y-88061585D01*
X70282753Y-88263760D01*
X70249500Y-88473713D01*
X70249500Y-88686286D01*
X70282245Y-88893034D01*
X70282754Y-88896243D01*
X70340127Y-89072819D01*
X70348444Y-89098414D01*
X70444951Y-89287820D01*
X70569890Y-89459786D01*
X70720213Y-89610109D01*
X70892182Y-89735050D01*
X70900946Y-89739516D01*
X70951742Y-89787491D01*
X70968536Y-89855312D01*
X70945998Y-89921447D01*
X70900946Y-89960484D01*
X70892182Y-89964949D01*
X70720213Y-90089890D01*
X70569890Y-90240213D01*
X70444951Y-90412179D01*
X70348444Y-90601585D01*
X70282753Y-90803760D01*
X70249500Y-91013713D01*
X70249500Y-91226286D01*
X70282245Y-91433034D01*
X70282754Y-91436243D01*
X70328744Y-91577786D01*
X70348444Y-91638414D01*
X70444951Y-91827820D01*
X70569890Y-91999786D01*
X70683430Y-92113326D01*
X70716915Y-92174649D01*
X70711931Y-92244341D01*
X70670059Y-92300274D01*
X70639083Y-92317189D01*
X70507669Y-92366203D01*
X70507664Y-92366206D01*
X70392455Y-92452452D01*
X70392452Y-92452455D01*
X70306206Y-92567664D01*
X70306202Y-92567671D01*
X70255908Y-92702517D01*
X70249501Y-92762116D01*
X70249500Y-92762135D01*
X70249500Y-94557870D01*
X70249501Y-94557876D01*
X70255908Y-94617483D01*
X70306202Y-94752328D01*
X70306206Y-94752335D01*
X70392452Y-94867544D01*
X70392455Y-94867547D01*
X70507664Y-94953793D01*
X70507671Y-94953797D01*
X70642517Y-95004091D01*
X70642516Y-95004091D01*
X70649444Y-95004835D01*
X70702127Y-95010500D01*
X72049902Y-95010499D01*
X72079342Y-95019143D01*
X72109329Y-95025667D01*
X72114344Y-95029421D01*
X72116941Y-95030184D01*
X72137583Y-95046818D01*
X72266139Y-95175374D01*
X72266149Y-95175385D01*
X72270479Y-95179715D01*
X72270480Y-95179716D01*
X72382284Y-95291520D01*
X72469095Y-95341639D01*
X72469097Y-95341641D01*
X72507151Y-95363611D01*
X72519215Y-95370577D01*
X72671943Y-95411501D01*
X72671946Y-95411501D01*
X72837654Y-95411501D01*
X72837670Y-95411500D01*
X97222331Y-95411500D01*
X97222347Y-95411501D01*
X97229943Y-95411501D01*
X97388054Y-95411501D01*
X97388057Y-95411501D01*
X97540785Y-95370577D01*
X97590904Y-95341639D01*
X97677716Y-95291520D01*
X97789520Y-95179716D01*
X97789520Y-95179714D01*
X97799728Y-95169507D01*
X97799729Y-95169504D01*
X99250159Y-93719075D01*
X99311480Y-93685592D01*
X99376154Y-93688826D01*
X99390466Y-93693477D01*
X99592648Y-93725500D01*
X99592649Y-93725500D01*
X99797351Y-93725500D01*
X99797352Y-93725500D01*
X99999534Y-93693477D01*
X100194219Y-93630220D01*
X100376610Y-93537287D01*
X100469590Y-93469732D01*
X100542213Y-93416971D01*
X100542215Y-93416968D01*
X100542219Y-93416966D01*
X100686966Y-93272219D01*
X100686968Y-93272215D01*
X100686971Y-93272213D01*
X100739732Y-93199590D01*
X100807287Y-93106610D01*
X100900220Y-92924219D01*
X100963477Y-92729534D01*
X100995500Y-92527352D01*
X100995500Y-92322648D01*
X100963477Y-92120466D01*
X100900220Y-91925781D01*
X100900218Y-91925778D01*
X100900218Y-91925776D01*
X100850304Y-91827816D01*
X100807287Y-91743390D01*
X100760925Y-91679577D01*
X100686971Y-91577786D01*
X100542213Y-91433028D01*
X100376614Y-91312715D01*
X100370006Y-91309348D01*
X100283917Y-91265483D01*
X100233123Y-91217511D01*
X100216328Y-91149690D01*
X100238865Y-91083555D01*
X100283917Y-91044516D01*
X100376610Y-90997287D01*
X100397770Y-90981913D01*
X100542213Y-90876971D01*
X100542215Y-90876968D01*
X100542219Y-90876966D01*
X100686966Y-90732219D01*
X100686968Y-90732215D01*
X100686971Y-90732213D01*
X100759212Y-90632780D01*
X100807287Y-90566610D01*
X100900220Y-90384219D01*
X100963477Y-90189534D01*
X100995500Y-89987352D01*
X100995500Y-89782648D01*
X100963477Y-89580466D01*
X100900220Y-89385781D01*
X100900218Y-89385778D01*
X100900218Y-89385776D01*
X100850304Y-89287816D01*
X100807287Y-89203390D01*
X100763305Y-89142853D01*
X100686971Y-89037786D01*
X100542213Y-88893028D01*
X100376614Y-88772715D01*
X100370006Y-88769348D01*
X100283917Y-88725483D01*
X100233123Y-88677511D01*
X100216328Y-88609690D01*
X100238865Y-88543555D01*
X100283917Y-88504516D01*
X100376610Y-88457287D01*
X100403426Y-88437804D01*
X100542213Y-88336971D01*
X100542215Y-88336968D01*
X100542219Y-88336966D01*
X100686966Y-88192219D01*
X100686968Y-88192215D01*
X100686971Y-88192213D01*
X100788269Y-88052786D01*
X100807287Y-88026610D01*
X100900220Y-87844219D01*
X100963477Y-87649534D01*
X100995500Y-87447352D01*
X100995500Y-87242648D01*
X100975642Y-87117273D01*
X100963477Y-87040465D01*
X100924266Y-86919786D01*
X100900220Y-86845781D01*
X100900218Y-86845778D01*
X100900218Y-86845776D01*
X100854480Y-86756011D01*
X100807287Y-86663390D01*
X100776364Y-86620828D01*
X100686971Y-86497786D01*
X100542213Y-86353028D01*
X100376614Y-86232715D01*
X100370006Y-86229348D01*
X100283917Y-86185483D01*
X100233123Y-86137511D01*
X100216328Y-86069690D01*
X100238865Y-86003555D01*
X100283917Y-85964516D01*
X100376610Y-85917287D01*
X100463320Y-85854289D01*
X100542213Y-85796971D01*
X100542215Y-85796968D01*
X100542219Y-85796966D01*
X100686966Y-85652219D01*
X100686968Y-85652215D01*
X100686971Y-85652213D01*
X100741260Y-85577489D01*
X100807287Y-85486610D01*
X100900220Y-85304219D01*
X100963477Y-85109534D01*
X100995500Y-84907352D01*
X100995500Y-84702648D01*
X100988624Y-84659234D01*
X100963477Y-84500465D01*
X100914795Y-84350639D01*
X100900220Y-84305781D01*
X100900218Y-84305778D01*
X100900218Y-84305776D01*
X100840572Y-84188716D01*
X100807287Y-84123390D01*
X100799556Y-84112749D01*
X100686971Y-83957786D01*
X100542213Y-83813028D01*
X100376614Y-83692715D01*
X100370006Y-83689348D01*
X100283917Y-83645483D01*
X100233123Y-83597511D01*
X100216328Y-83529690D01*
X100238865Y-83463555D01*
X100283917Y-83424516D01*
X100376610Y-83377287D01*
X100398056Y-83361706D01*
X100542213Y-83256971D01*
X100542215Y-83256968D01*
X100542219Y-83256966D01*
X100686966Y-83112219D01*
X100686968Y-83112215D01*
X100686971Y-83112213D01*
X100788269Y-82972786D01*
X100807287Y-82946610D01*
X100900220Y-82764219D01*
X100963477Y-82569534D01*
X100995500Y-82367352D01*
X100995500Y-82162648D01*
X100988879Y-82120844D01*
X100963477Y-81960465D01*
X100914101Y-81808503D01*
X100900220Y-81765781D01*
X100900218Y-81765778D01*
X100900218Y-81765776D01*
X100847759Y-81662821D01*
X100807287Y-81583390D01*
X100775229Y-81539265D01*
X100686971Y-81417786D01*
X100542213Y-81273028D01*
X100376614Y-81152715D01*
X100362067Y-81145303D01*
X100283917Y-81105483D01*
X100233123Y-81057511D01*
X100216328Y-80989690D01*
X100238865Y-80923555D01*
X100283917Y-80884516D01*
X100376610Y-80837287D01*
X100397770Y-80821913D01*
X100542213Y-80716971D01*
X100542215Y-80716968D01*
X100542219Y-80716966D01*
X100686966Y-80572219D01*
X100686968Y-80572215D01*
X100686971Y-80572213D01*
X100788269Y-80432786D01*
X100807287Y-80406610D01*
X100900220Y-80224219D01*
X100963477Y-80029534D01*
X100995500Y-79827352D01*
X100995500Y-79622648D01*
X100985607Y-79560185D01*
X100963477Y-79420465D01*
X100921934Y-79292611D01*
X100900220Y-79225781D01*
X100900218Y-79225778D01*
X100900218Y-79225776D01*
X100850304Y-79127816D01*
X100807287Y-79043390D01*
X100799556Y-79032749D01*
X100686971Y-78877786D01*
X100542213Y-78733028D01*
X100376614Y-78612715D01*
X100356729Y-78602583D01*
X100283917Y-78565483D01*
X100233123Y-78517511D01*
X100216328Y-78449690D01*
X100238865Y-78383555D01*
X100283917Y-78344516D01*
X100376610Y-78297287D01*
X100398056Y-78281706D01*
X100542213Y-78176971D01*
X100542215Y-78176968D01*
X100542219Y-78176966D01*
X100686966Y-78032219D01*
X100686968Y-78032215D01*
X100686971Y-78032213D01*
X100788269Y-77892786D01*
X100807287Y-77866610D01*
X100900220Y-77684219D01*
X100963477Y-77489534D01*
X100995500Y-77287352D01*
X100995500Y-77082648D01*
X100979885Y-76984058D01*
X100963477Y-76880465D01*
X100907295Y-76707557D01*
X100900220Y-76685781D01*
X100900218Y-76685778D01*
X100900218Y-76685776D01*
X100853701Y-76594483D01*
X100807287Y-76503390D01*
X100777458Y-76462333D01*
X100686971Y-76337786D01*
X100542213Y-76193028D01*
X100376614Y-76072715D01*
X100362067Y-76065303D01*
X100283917Y-76025483D01*
X100233123Y-75977511D01*
X100216328Y-75909690D01*
X100238865Y-75843555D01*
X100283917Y-75804516D01*
X100376610Y-75757287D01*
X100436423Y-75713831D01*
X100542213Y-75636971D01*
X100542215Y-75636968D01*
X100542219Y-75636966D01*
X100686966Y-75492219D01*
X100686968Y-75492215D01*
X100686971Y-75492213D01*
X100781876Y-75361585D01*
X100807287Y-75326610D01*
X100900220Y-75144219D01*
X100963477Y-74949534D01*
X100995500Y-74747352D01*
X100995500Y-74542648D01*
X100968172Y-74370109D01*
X100963477Y-74340465D01*
X100940226Y-74268906D01*
X100911832Y-74181521D01*
X100909838Y-74111683D01*
X100945918Y-74051850D01*
X101008619Y-74021021D01*
X101078033Y-74028985D01*
X101117445Y-74055524D01*
X101227707Y-74165786D01*
X101227711Y-74165789D01*
X101358814Y-74253390D01*
X101358827Y-74253397D01*
X101478369Y-74302912D01*
X101504503Y-74313737D01*
X101638873Y-74340465D01*
X101659153Y-74344499D01*
X101659156Y-74344500D01*
X101659158Y-74344500D01*
X101816844Y-74344500D01*
X101816845Y-74344499D01*
X101971497Y-74313737D01*
X102117179Y-74253394D01*
X102248289Y-74165789D01*
X102359789Y-74054289D01*
X102447394Y-73923179D01*
X102507737Y-73777497D01*
X102538500Y-73622842D01*
X102538500Y-73465158D01*
X102538500Y-73465155D01*
X102538499Y-73465153D01*
X102526571Y-73405189D01*
X102507737Y-73310503D01*
X102487197Y-73260914D01*
X102447397Y-73164827D01*
X102447390Y-73164814D01*
X102359398Y-73033125D01*
X102338520Y-72966447D01*
X102338500Y-72964234D01*
X102338500Y-72637648D01*
X104149500Y-72637648D01*
X104149500Y-72842351D01*
X104181522Y-73044534D01*
X104244781Y-73239223D01*
X104292719Y-73333304D01*
X104337585Y-73421359D01*
X104337715Y-73421613D01*
X104458028Y-73587213D01*
X104602784Y-73731969D01*
X104698385Y-73801426D01*
X104741051Y-73856755D01*
X104749500Y-73901744D01*
X104749500Y-78203006D01*
X104749500Y-78340994D01*
X104749500Y-78340996D01*
X104749499Y-78340996D01*
X104776418Y-78476322D01*
X104776421Y-78476332D01*
X104829222Y-78603807D01*
X104905887Y-78718545D01*
X120711454Y-94524112D01*
X120826192Y-94600777D01*
X120953667Y-94653578D01*
X120953672Y-94653580D01*
X120953676Y-94653580D01*
X120953677Y-94653581D01*
X121089003Y-94680500D01*
X121089006Y-94680500D01*
X127068996Y-94680500D01*
X127160040Y-94662389D01*
X127204328Y-94653580D01*
X127291474Y-94617483D01*
X127331807Y-94600777D01*
X127331808Y-94600776D01*
X127331811Y-94600775D01*
X127446543Y-94524114D01*
X127571924Y-94398731D01*
X127633245Y-94365248D01*
X127635274Y-94364825D01*
X127770666Y-94337894D01*
X127934547Y-94270013D01*
X128082035Y-94171464D01*
X128207464Y-94046035D01*
X128306013Y-93898547D01*
X128309645Y-93889778D01*
X136574500Y-93889778D01*
X136574500Y-94110221D01*
X136608985Y-94327952D01*
X136677103Y-94537603D01*
X136677104Y-94537606D01*
X136777187Y-94734025D01*
X136906752Y-94912358D01*
X136906756Y-94912363D01*
X137062636Y-95068243D01*
X137062641Y-95068247D01*
X137202007Y-95169501D01*
X137240978Y-95197815D01*
X137369375Y-95263237D01*
X137437393Y-95297895D01*
X137437396Y-95297896D01*
X137542221Y-95331955D01*
X137647049Y-95366015D01*
X137864778Y-95400500D01*
X137864779Y-95400500D01*
X138085221Y-95400500D01*
X138085222Y-95400500D01*
X138302951Y-95366015D01*
X138512606Y-95297895D01*
X138709022Y-95197815D01*
X138887365Y-95068242D01*
X139043242Y-94912365D01*
X139172815Y-94734022D01*
X139272895Y-94537606D01*
X139341015Y-94327951D01*
X139375500Y-94110222D01*
X139375500Y-93889778D01*
X142024500Y-93889778D01*
X142024500Y-94110221D01*
X142058985Y-94327952D01*
X142127103Y-94537603D01*
X142127104Y-94537606D01*
X142227187Y-94734025D01*
X142356752Y-94912358D01*
X142356756Y-94912363D01*
X142512636Y-95068243D01*
X142512641Y-95068247D01*
X142652007Y-95169501D01*
X142690978Y-95197815D01*
X142819375Y-95263237D01*
X142887393Y-95297895D01*
X142887396Y-95297896D01*
X142992221Y-95331955D01*
X143097049Y-95366015D01*
X143314778Y-95400500D01*
X143314779Y-95400500D01*
X143535221Y-95400500D01*
X143535222Y-95400500D01*
X143752951Y-95366015D01*
X143962606Y-95297895D01*
X144159022Y-95197815D01*
X144337365Y-95068242D01*
X144493242Y-94912365D01*
X144622815Y-94734022D01*
X144722895Y-94537606D01*
X144791015Y-94327951D01*
X144825500Y-94110222D01*
X144825500Y-93889778D01*
X144791015Y-93672049D01*
X144722895Y-93462394D01*
X144722895Y-93462393D01*
X144682596Y-93383304D01*
X144622815Y-93265978D01*
X144557602Y-93176219D01*
X144493247Y-93087641D01*
X144493243Y-93087636D01*
X144337363Y-92931756D01*
X144337358Y-92931752D01*
X144159025Y-92802187D01*
X144159024Y-92802186D01*
X144159022Y-92802185D01*
X144096096Y-92770122D01*
X143962606Y-92702104D01*
X143962603Y-92702103D01*
X143752952Y-92633985D01*
X143644086Y-92616742D01*
X143535222Y-92599500D01*
X143314778Y-92599500D01*
X143242201Y-92610995D01*
X143097047Y-92633985D01*
X142887396Y-92702103D01*
X142887393Y-92702104D01*
X142690974Y-92802187D01*
X142512641Y-92931752D01*
X142512636Y-92931756D01*
X142356756Y-93087636D01*
X142356752Y-93087641D01*
X142227187Y-93265974D01*
X142127104Y-93462393D01*
X142127103Y-93462396D01*
X142058985Y-93672047D01*
X142024500Y-93889778D01*
X139375500Y-93889778D01*
X139341015Y-93672049D01*
X139272895Y-93462394D01*
X139272895Y-93462393D01*
X139232596Y-93383304D01*
X139172815Y-93265978D01*
X139107602Y-93176219D01*
X139043247Y-93087641D01*
X139043243Y-93087636D01*
X138887363Y-92931756D01*
X138887358Y-92931752D01*
X138709025Y-92802187D01*
X138709024Y-92802186D01*
X138709022Y-92802185D01*
X138646096Y-92770122D01*
X138512606Y-92702104D01*
X138512603Y-92702103D01*
X138302952Y-92633985D01*
X138194086Y-92616742D01*
X138085222Y-92599500D01*
X137864778Y-92599500D01*
X137792201Y-92610995D01*
X137647047Y-92633985D01*
X137437396Y-92702103D01*
X137437393Y-92702104D01*
X137240974Y-92802187D01*
X137062641Y-92931752D01*
X137062636Y-92931756D01*
X136906756Y-93087636D01*
X136906752Y-93087641D01*
X136777187Y-93265974D01*
X136677104Y-93462393D01*
X136677103Y-93462396D01*
X136608985Y-93672047D01*
X136574500Y-93889778D01*
X128309645Y-93889778D01*
X128373894Y-93734666D01*
X128375718Y-93725500D01*
X128408499Y-93560695D01*
X128408500Y-93560693D01*
X128408500Y-93383306D01*
X128408499Y-93383304D01*
X128373896Y-93209341D01*
X128373893Y-93209332D01*
X128371250Y-93202952D01*
X128323486Y-93087636D01*
X128306016Y-93045459D01*
X128306009Y-93045446D01*
X128207464Y-92897965D01*
X128207461Y-92897961D01*
X128082038Y-92772538D01*
X128082034Y-92772535D01*
X127934553Y-92673990D01*
X127934540Y-92673983D01*
X127770667Y-92606106D01*
X127770658Y-92606103D01*
X127596694Y-92571500D01*
X127596691Y-92571500D01*
X127419309Y-92571500D01*
X127419306Y-92571500D01*
X127245341Y-92606103D01*
X127245332Y-92606106D01*
X127081459Y-92673983D01*
X127081446Y-92673990D01*
X126933965Y-92772535D01*
X126933961Y-92772538D01*
X126808538Y-92897961D01*
X126808535Y-92897965D01*
X126709990Y-93045446D01*
X126709988Y-93045450D01*
X126704169Y-93059500D01*
X126644747Y-93202955D01*
X126600910Y-93257355D01*
X126534616Y-93279421D01*
X126530189Y-93279500D01*
X125686545Y-93279500D01*
X125619506Y-93259815D01*
X125573751Y-93207011D01*
X125563807Y-93137853D01*
X125576060Y-93099205D01*
X125665218Y-92924223D01*
X125665218Y-92924222D01*
X125665220Y-92924219D01*
X125728477Y-92729534D01*
X125760500Y-92527352D01*
X125760500Y-92322648D01*
X125728477Y-92120466D01*
X125665220Y-91925781D01*
X125665218Y-91925778D01*
X125665218Y-91925776D01*
X125615304Y-91827816D01*
X125572287Y-91743390D01*
X125525925Y-91679577D01*
X125451971Y-91577786D01*
X125307213Y-91433028D01*
X125141614Y-91312715D01*
X125135006Y-91309348D01*
X125048917Y-91265483D01*
X124998123Y-91217511D01*
X124981328Y-91149690D01*
X125003865Y-91083555D01*
X125048917Y-91044516D01*
X125141610Y-90997287D01*
X125162770Y-90981913D01*
X125307213Y-90876971D01*
X125307215Y-90876968D01*
X125307219Y-90876966D01*
X125312608Y-90871577D01*
X137024500Y-90871577D01*
X137024500Y-91068422D01*
X137055290Y-91262826D01*
X137116117Y-91450029D01*
X137205476Y-91625405D01*
X137321172Y-91784646D01*
X137460354Y-91923828D01*
X137619595Y-92039524D01*
X137702455Y-92081743D01*
X137794970Y-92128882D01*
X137794972Y-92128882D01*
X137794975Y-92128884D01*
X137860283Y-92150104D01*
X137982173Y-92189709D01*
X138176578Y-92220500D01*
X138176583Y-92220500D01*
X138373422Y-92220500D01*
X138567826Y-92189709D01*
X138755025Y-92128884D01*
X138930405Y-92039524D01*
X139089646Y-91923828D01*
X139228828Y-91784646D01*
X139344524Y-91625405D01*
X139433884Y-91450025D01*
X139494709Y-91262826D01*
X139502012Y-91216715D01*
X139525500Y-91068422D01*
X139525500Y-90871577D01*
X141874500Y-90871577D01*
X141874500Y-91068422D01*
X141905290Y-91262826D01*
X141966117Y-91450029D01*
X142055476Y-91625405D01*
X142171172Y-91784646D01*
X142310354Y-91923828D01*
X142469595Y-92039524D01*
X142552455Y-92081743D01*
X142644970Y-92128882D01*
X142644972Y-92128882D01*
X142644975Y-92128884D01*
X142710283Y-92150104D01*
X142832173Y-92189709D01*
X143026578Y-92220500D01*
X143026583Y-92220500D01*
X143223422Y-92220500D01*
X143417826Y-92189709D01*
X143605025Y-92128884D01*
X143780405Y-92039524D01*
X143939646Y-91923828D01*
X144078828Y-91784646D01*
X144194524Y-91625405D01*
X144283884Y-91450025D01*
X144344709Y-91262826D01*
X144352012Y-91216715D01*
X144375500Y-91068422D01*
X144375500Y-90871577D01*
X144344709Y-90677173D01*
X144283882Y-90489970D01*
X144194523Y-90314594D01*
X144078828Y-90155354D01*
X143939646Y-90016172D01*
X143780405Y-89900476D01*
X143763703Y-89891966D01*
X143605029Y-89811117D01*
X143417826Y-89750290D01*
X143223422Y-89719500D01*
X143223417Y-89719500D01*
X143026583Y-89719500D01*
X143026578Y-89719500D01*
X142832173Y-89750290D01*
X142644970Y-89811117D01*
X142469594Y-89900476D01*
X142385705Y-89961426D01*
X142310354Y-90016172D01*
X142310352Y-90016174D01*
X142310351Y-90016174D01*
X142171174Y-90155351D01*
X142171174Y-90155352D01*
X142171172Y-90155354D01*
X142130365Y-90211520D01*
X142055476Y-90314594D01*
X141966117Y-90489970D01*
X141905290Y-90677173D01*
X141874500Y-90871577D01*
X139525500Y-90871577D01*
X139494709Y-90677173D01*
X139433882Y-90489970D01*
X139344523Y-90314594D01*
X139228828Y-90155354D01*
X139089646Y-90016172D01*
X138930405Y-89900476D01*
X138913703Y-89891966D01*
X138755029Y-89811117D01*
X138567826Y-89750290D01*
X138373422Y-89719500D01*
X138373417Y-89719500D01*
X138176583Y-89719500D01*
X138176578Y-89719500D01*
X137982173Y-89750290D01*
X137794970Y-89811117D01*
X137619594Y-89900476D01*
X137535705Y-89961426D01*
X137460354Y-90016172D01*
X137460352Y-90016174D01*
X137460351Y-90016174D01*
X137321174Y-90155351D01*
X137321174Y-90155352D01*
X137321172Y-90155354D01*
X137280365Y-90211520D01*
X137205476Y-90314594D01*
X137116117Y-90489970D01*
X137055290Y-90677173D01*
X137024500Y-90871577D01*
X125312608Y-90871577D01*
X125451966Y-90732219D01*
X125451968Y-90732215D01*
X125451971Y-90732213D01*
X125524212Y-90632780D01*
X125572287Y-90566610D01*
X125665220Y-90384219D01*
X125728477Y-90189534D01*
X125760500Y-89987352D01*
X125760500Y-89782648D01*
X125728477Y-89580466D01*
X125665220Y-89385781D01*
X125665218Y-89385778D01*
X125665218Y-89385776D01*
X125615304Y-89287816D01*
X125572287Y-89203390D01*
X125528305Y-89142853D01*
X125451971Y-89037786D01*
X125307213Y-88893028D01*
X125141614Y-88772715D01*
X125135006Y-88769348D01*
X125048917Y-88725483D01*
X124998123Y-88677511D01*
X124981328Y-88609690D01*
X125003865Y-88543555D01*
X125048917Y-88504516D01*
X125141610Y-88457287D01*
X125168426Y-88437804D01*
X125307213Y-88336971D01*
X125307215Y-88336968D01*
X125307219Y-88336966D01*
X125451966Y-88192219D01*
X125451968Y-88192215D01*
X125451971Y-88192213D01*
X125553269Y-88052786D01*
X125572287Y-88026610D01*
X125665220Y-87844219D01*
X125728477Y-87649534D01*
X125760500Y-87447352D01*
X125760500Y-87242648D01*
X125740642Y-87117273D01*
X125728477Y-87040465D01*
X125689266Y-86919786D01*
X125665220Y-86845781D01*
X125665218Y-86845778D01*
X125665218Y-86845776D01*
X125619480Y-86756011D01*
X125572287Y-86663390D01*
X125541364Y-86620828D01*
X125451971Y-86497786D01*
X125307213Y-86353028D01*
X125141614Y-86232715D01*
X125135006Y-86229348D01*
X125048917Y-86185483D01*
X124998123Y-86137511D01*
X124981328Y-86069690D01*
X125003865Y-86003555D01*
X125048917Y-85964516D01*
X125141610Y-85917287D01*
X125228320Y-85854289D01*
X125307213Y-85796971D01*
X125307215Y-85796968D01*
X125307219Y-85796966D01*
X125451966Y-85652219D01*
X125451968Y-85652215D01*
X125451971Y-85652213D01*
X125506260Y-85577489D01*
X125572287Y-85486610D01*
X125665220Y-85304219D01*
X125728477Y-85109534D01*
X125760500Y-84907352D01*
X125760500Y-84702648D01*
X125753624Y-84659234D01*
X125728477Y-84500465D01*
X125679795Y-84350639D01*
X125665220Y-84305781D01*
X125665218Y-84305778D01*
X125665218Y-84305776D01*
X125605572Y-84188716D01*
X125572287Y-84123390D01*
X125564556Y-84112749D01*
X125451971Y-83957786D01*
X125307213Y-83813028D01*
X125141614Y-83692715D01*
X125135006Y-83689348D01*
X125048917Y-83645483D01*
X124998123Y-83597511D01*
X124981328Y-83529690D01*
X125003865Y-83463555D01*
X125048917Y-83424516D01*
X125141610Y-83377287D01*
X125163056Y-83361706D01*
X125307213Y-83256971D01*
X125307215Y-83256968D01*
X125307219Y-83256966D01*
X125451966Y-83112219D01*
X125451968Y-83112215D01*
X125451971Y-83112213D01*
X125553269Y-82972786D01*
X125572287Y-82946610D01*
X125665220Y-82764219D01*
X125728477Y-82569534D01*
X125760500Y-82367352D01*
X125760500Y-82162648D01*
X125753879Y-82120844D01*
X125728477Y-81960465D01*
X125679101Y-81808503D01*
X125665220Y-81765781D01*
X125665218Y-81765778D01*
X125665218Y-81765776D01*
X125612759Y-81662821D01*
X125572287Y-81583390D01*
X125540229Y-81539265D01*
X125451971Y-81417786D01*
X125307213Y-81273028D01*
X125141614Y-81152715D01*
X125127067Y-81145303D01*
X125048917Y-81105483D01*
X124998123Y-81057511D01*
X124981328Y-80989690D01*
X125003865Y-80923555D01*
X125048917Y-80884516D01*
X125141610Y-80837287D01*
X125162770Y-80821913D01*
X125307213Y-80716971D01*
X125307215Y-80716968D01*
X125307219Y-80716966D01*
X125451966Y-80572219D01*
X125451968Y-80572215D01*
X125451971Y-80572213D01*
X125553269Y-80432786D01*
X125572287Y-80406610D01*
X125665220Y-80224219D01*
X125728477Y-80029534D01*
X125760500Y-79827352D01*
X125760500Y-79622648D01*
X125741846Y-79504874D01*
X125728478Y-79420472D01*
X125728477Y-79420471D01*
X125728477Y-79420466D01*
X125723825Y-79406151D01*
X125721832Y-79336312D01*
X125754075Y-79280158D01*
X129136506Y-75897728D01*
X129136511Y-75897724D01*
X129146714Y-75887520D01*
X129146716Y-75887520D01*
X129258520Y-75775716D01*
X129319679Y-75669785D01*
X129337577Y-75638785D01*
X129378500Y-75486057D01*
X129378500Y-75327943D01*
X129378500Y-58595153D01*
X132803500Y-58595153D01*
X132803500Y-58752846D01*
X132834261Y-58907489D01*
X132834264Y-58907501D01*
X132894602Y-59053172D01*
X132894609Y-59053185D01*
X132962524Y-59154826D01*
X132975510Y-59174261D01*
X132982602Y-59184874D01*
X133003480Y-59251551D01*
X133003500Y-59253765D01*
X133003500Y-87050234D01*
X132983815Y-87117273D01*
X132982602Y-87119125D01*
X132894609Y-87250814D01*
X132894602Y-87250827D01*
X132834264Y-87396498D01*
X132834261Y-87396510D01*
X132803500Y-87551153D01*
X132803500Y-87708846D01*
X132834261Y-87863489D01*
X132834264Y-87863501D01*
X132894602Y-88009172D01*
X132894609Y-88009185D01*
X132982210Y-88140288D01*
X132982213Y-88140292D01*
X133093707Y-88251786D01*
X133093711Y-88251789D01*
X133224814Y-88339390D01*
X133224827Y-88339397D01*
X133321045Y-88379251D01*
X133370503Y-88399737D01*
X133525153Y-88430499D01*
X133525156Y-88430500D01*
X133525158Y-88430500D01*
X133682844Y-88430500D01*
X133682845Y-88430499D01*
X133837497Y-88399737D01*
X133950166Y-88353067D01*
X133983172Y-88339397D01*
X133983172Y-88339396D01*
X133983179Y-88339394D01*
X134114289Y-88251789D01*
X134225789Y-88140289D01*
X134313394Y-88009179D01*
X134373737Y-87863497D01*
X134404500Y-87708842D01*
X134404500Y-87551158D01*
X134404500Y-87551155D01*
X134404499Y-87551153D01*
X134394161Y-87499181D01*
X134373737Y-87396503D01*
X134340107Y-87315312D01*
X134313397Y-87250827D01*
X134313390Y-87250814D01*
X134225398Y-87119125D01*
X134204520Y-87052447D01*
X134204500Y-87050234D01*
X134204500Y-86268500D01*
X134224185Y-86201461D01*
X134276989Y-86155706D01*
X134328500Y-86144500D01*
X134444844Y-86144500D01*
X134444845Y-86144499D01*
X134599497Y-86113737D01*
X134745179Y-86053394D01*
X134876289Y-85965789D01*
X134987789Y-85854289D01*
X135075394Y-85723179D01*
X135135737Y-85577497D01*
X135166500Y-85422842D01*
X135166500Y-85265158D01*
X135166500Y-85265155D01*
X135166499Y-85265153D01*
X135152765Y-85196110D01*
X135135737Y-85110503D01*
X135105456Y-85037397D01*
X135075397Y-84964827D01*
X135075390Y-84964814D01*
X134987398Y-84833125D01*
X134966520Y-84766447D01*
X134966500Y-84764234D01*
X134966500Y-83474500D01*
X134986185Y-83407461D01*
X135038989Y-83361706D01*
X135090500Y-83350500D01*
X135206844Y-83350500D01*
X135206845Y-83350499D01*
X135361497Y-83319737D01*
X135507179Y-83259394D01*
X135638289Y-83171789D01*
X135749789Y-83060289D01*
X135837394Y-82929179D01*
X135897737Y-82783497D01*
X135928500Y-82628842D01*
X135928500Y-82471158D01*
X135928500Y-82471155D01*
X135928499Y-82471153D01*
X135908431Y-82370264D01*
X135897737Y-82316503D01*
X135897735Y-82316498D01*
X135837397Y-82170827D01*
X135837390Y-82170814D01*
X135749398Y-82039125D01*
X135728520Y-81972447D01*
X135728500Y-81970234D01*
X135728500Y-80889927D01*
X135748185Y-80822888D01*
X135800989Y-80777133D01*
X135870147Y-80767189D01*
X135899949Y-80775365D01*
X135910503Y-80779737D01*
X136065153Y-80810499D01*
X136065156Y-80810500D01*
X136065158Y-80810500D01*
X136222844Y-80810500D01*
X136222845Y-80810499D01*
X136377497Y-80779737D01*
X136523179Y-80719394D01*
X136654289Y-80631789D01*
X136765789Y-80520289D01*
X136853394Y-80389179D01*
X136913737Y-80243497D01*
X136944500Y-80088842D01*
X136944500Y-79931158D01*
X136944500Y-79931155D01*
X136944499Y-79931153D01*
X136938206Y-79899515D01*
X136913737Y-79776503D01*
X136896570Y-79735057D01*
X136853397Y-79630827D01*
X136853390Y-79630814D01*
X136765398Y-79499125D01*
X136744520Y-79432447D01*
X136744500Y-79430234D01*
X136744500Y-78394500D01*
X136764185Y-78327461D01*
X136816989Y-78281706D01*
X136868500Y-78270500D01*
X136984844Y-78270500D01*
X136984845Y-78270499D01*
X137139497Y-78239737D01*
X137285179Y-78179394D01*
X137285184Y-78179390D01*
X137290554Y-78176521D01*
X137291519Y-78178327D01*
X137349256Y-78160233D01*
X137416641Y-78178701D01*
X137463344Y-78230669D01*
X137475500Y-78284213D01*
X137475500Y-83902684D01*
X137466061Y-83950136D01*
X137406264Y-84094498D01*
X137406261Y-84094510D01*
X137375500Y-84249153D01*
X137375500Y-84406846D01*
X137406261Y-84561489D01*
X137406264Y-84561501D01*
X137466602Y-84707172D01*
X137466609Y-84707185D01*
X137554210Y-84838288D01*
X137554213Y-84838292D01*
X137665707Y-84949786D01*
X137665711Y-84949789D01*
X137796814Y-85037390D01*
X137796827Y-85037397D01*
X137918971Y-85087990D01*
X137942503Y-85097737D01*
X138054426Y-85120000D01*
X138097153Y-85128499D01*
X138097156Y-85128500D01*
X138097158Y-85128500D01*
X138254844Y-85128500D01*
X138254845Y-85128499D01*
X138409497Y-85097737D01*
X138555179Y-85037394D01*
X138686289Y-84949789D01*
X138797789Y-84838289D01*
X138885394Y-84707179D01*
X138945737Y-84561497D01*
X138976500Y-84406842D01*
X138976500Y-84249158D01*
X138976500Y-84249155D01*
X138976499Y-84249153D01*
X138963616Y-84184385D01*
X138945737Y-84094503D01*
X138912006Y-84013068D01*
X138885939Y-83950136D01*
X138876500Y-83902684D01*
X138876500Y-78915153D01*
X151885500Y-78915153D01*
X151885500Y-79072846D01*
X151916261Y-79227489D01*
X151916264Y-79227501D01*
X151976602Y-79373172D01*
X151976609Y-79373185D01*
X152064602Y-79504874D01*
X152085480Y-79571551D01*
X152085500Y-79573765D01*
X152085500Y-88337330D01*
X152085499Y-88337348D01*
X152085499Y-88503054D01*
X152085498Y-88503054D01*
X152087061Y-88508888D01*
X152126423Y-88655785D01*
X152126424Y-88655787D01*
X152126423Y-88655787D01*
X152140277Y-88679781D01*
X152140278Y-88679783D01*
X152205475Y-88792709D01*
X152205481Y-88792717D01*
X152324349Y-88911585D01*
X152324355Y-88911590D01*
X155296922Y-91884157D01*
X155330407Y-91945480D01*
X155327173Y-92010155D01*
X155322522Y-92024468D01*
X155290500Y-92226648D01*
X155290500Y-92431351D01*
X155322522Y-92633534D01*
X155385781Y-92828223D01*
X155478715Y-93010613D01*
X155599028Y-93176213D01*
X155743786Y-93320971D01*
X155898749Y-93433556D01*
X155909390Y-93441287D01*
X156025607Y-93500503D01*
X156091776Y-93534218D01*
X156091778Y-93534218D01*
X156091781Y-93534220D01*
X156173257Y-93560693D01*
X156286465Y-93597477D01*
X156387557Y-93613488D01*
X156488648Y-93629500D01*
X156488649Y-93629500D01*
X156693351Y-93629500D01*
X156693352Y-93629500D01*
X156895534Y-93597477D01*
X157090219Y-93534220D01*
X157272610Y-93441287D01*
X157365590Y-93373732D01*
X157438213Y-93320971D01*
X157438215Y-93320968D01*
X157438219Y-93320966D01*
X157582966Y-93176219D01*
X157582968Y-93176215D01*
X157582971Y-93176213D01*
X157647325Y-93087636D01*
X157703287Y-93010610D01*
X157796220Y-92828219D01*
X157859477Y-92633534D01*
X157891500Y-92431352D01*
X157891500Y-92226648D01*
X157879376Y-92150104D01*
X157859477Y-92024465D01*
X157796218Y-91829776D01*
X157762503Y-91763607D01*
X157703287Y-91647390D01*
X157687314Y-91625405D01*
X157582971Y-91481786D01*
X157438213Y-91337028D01*
X157272613Y-91216715D01*
X157272612Y-91216714D01*
X157272610Y-91216713D01*
X157215653Y-91187691D01*
X157090223Y-91123781D01*
X156895534Y-91060522D01*
X156720995Y-91032878D01*
X156693352Y-91028500D01*
X156488648Y-91028500D01*
X156450599Y-91034526D01*
X156286468Y-91060522D01*
X156277717Y-91063365D01*
X156272154Y-91065173D01*
X156202313Y-91067167D01*
X156146157Y-91034922D01*
X153322819Y-88211584D01*
X153289334Y-88150261D01*
X153286500Y-88123903D01*
X153286500Y-86744097D01*
X153306185Y-86677058D01*
X153358989Y-86631303D01*
X153428147Y-86621359D01*
X153491703Y-86650384D01*
X153498181Y-86656416D01*
X155296922Y-88455157D01*
X155330407Y-88516480D01*
X155327173Y-88581155D01*
X155322522Y-88595468D01*
X155290500Y-88797648D01*
X155290500Y-89002351D01*
X155322522Y-89204534D01*
X155385781Y-89399223D01*
X155445428Y-89516284D01*
X155478130Y-89580466D01*
X155478715Y-89581613D01*
X155599028Y-89747213D01*
X155743786Y-89891971D01*
X155885190Y-89994705D01*
X155909390Y-90012287D01*
X156006455Y-90061744D01*
X156091776Y-90105218D01*
X156091778Y-90105218D01*
X156091781Y-90105220D01*
X156196137Y-90139127D01*
X156286465Y-90168477D01*
X156387557Y-90184488D01*
X156488648Y-90200500D01*
X156488649Y-90200500D01*
X156693351Y-90200500D01*
X156693352Y-90200500D01*
X156895534Y-90168477D01*
X157090219Y-90105220D01*
X157272610Y-90012287D01*
X157397642Y-89921447D01*
X157438213Y-89891971D01*
X157438215Y-89891968D01*
X157438219Y-89891966D01*
X157582966Y-89747219D01*
X157582968Y-89747215D01*
X157582971Y-89747213D01*
X157682581Y-89610109D01*
X157703287Y-89581610D01*
X157796220Y-89399219D01*
X157859477Y-89204534D01*
X157891500Y-89002352D01*
X157891500Y-88797648D01*
X165450500Y-88797648D01*
X165450500Y-89002351D01*
X165482522Y-89204534D01*
X165545781Y-89399223D01*
X165605428Y-89516284D01*
X165638130Y-89580466D01*
X165638715Y-89581613D01*
X165759028Y-89747213D01*
X165903784Y-89891969D01*
X165999385Y-89961426D01*
X166042051Y-90016755D01*
X166050500Y-90061744D01*
X166050500Y-91167255D01*
X166030815Y-91234294D01*
X165999385Y-91267573D01*
X165903787Y-91337028D01*
X165903782Y-91337032D01*
X165759028Y-91481786D01*
X165638715Y-91647386D01*
X165545781Y-91829776D01*
X165482522Y-92024465D01*
X165450500Y-92226648D01*
X165450500Y-92431351D01*
X165482522Y-92633534D01*
X165545781Y-92828223D01*
X165638715Y-93010613D01*
X165759028Y-93176213D01*
X165903786Y-93320971D01*
X166058749Y-93433556D01*
X166069390Y-93441287D01*
X166185607Y-93500503D01*
X166251776Y-93534218D01*
X166251778Y-93534218D01*
X166251781Y-93534220D01*
X166333257Y-93560693D01*
X166446465Y-93597477D01*
X166547557Y-93613488D01*
X166648648Y-93629500D01*
X166648649Y-93629500D01*
X166853351Y-93629500D01*
X166853352Y-93629500D01*
X167055534Y-93597477D01*
X167250219Y-93534220D01*
X167432610Y-93441287D01*
X167525590Y-93373732D01*
X167598213Y-93320971D01*
X167598215Y-93320968D01*
X167598219Y-93320966D01*
X167742966Y-93176219D01*
X167742968Y-93176215D01*
X167742971Y-93176213D01*
X167807325Y-93087636D01*
X167863287Y-93010610D01*
X167956220Y-92828219D01*
X168019477Y-92633534D01*
X168051500Y-92431352D01*
X168051500Y-92226648D01*
X168039376Y-92150104D01*
X168019477Y-92024465D01*
X167956218Y-91829776D01*
X167922503Y-91763607D01*
X167863287Y-91647390D01*
X167847314Y-91625405D01*
X167742971Y-91481786D01*
X167598217Y-91337032D01*
X167598212Y-91337028D01*
X167502615Y-91267573D01*
X167459949Y-91212243D01*
X167451500Y-91167255D01*
X167451500Y-90061744D01*
X167471185Y-89994705D01*
X167502615Y-89961426D01*
X167598215Y-89891969D01*
X167598215Y-89891968D01*
X167598219Y-89891966D01*
X167742966Y-89747219D01*
X167742968Y-89747215D01*
X167742971Y-89747213D01*
X167842581Y-89610109D01*
X167863287Y-89581610D01*
X167956220Y-89399219D01*
X168019477Y-89204534D01*
X168051500Y-89002352D01*
X168051500Y-88797648D01*
X168019477Y-88595466D01*
X167956220Y-88400781D01*
X167956218Y-88400778D01*
X167956218Y-88400776D01*
X167886404Y-88263760D01*
X167863287Y-88218390D01*
X167844273Y-88192219D01*
X167742971Y-88052786D01*
X167598213Y-87908028D01*
X167432613Y-87787715D01*
X167432612Y-87787714D01*
X167432610Y-87787713D01*
X167375653Y-87758691D01*
X167250223Y-87694781D01*
X167055534Y-87631522D01*
X166880995Y-87603878D01*
X166853352Y-87599500D01*
X166648648Y-87599500D01*
X166624329Y-87603351D01*
X166446465Y-87631522D01*
X166251776Y-87694781D01*
X166069386Y-87787715D01*
X165903786Y-87908028D01*
X165759028Y-88052786D01*
X165638715Y-88218386D01*
X165545781Y-88400776D01*
X165482522Y-88595465D01*
X165450500Y-88797648D01*
X157891500Y-88797648D01*
X157859477Y-88595466D01*
X157796220Y-88400781D01*
X157796218Y-88400778D01*
X157796218Y-88400776D01*
X157726404Y-88263760D01*
X157703287Y-88218390D01*
X157684273Y-88192219D01*
X157582971Y-88052786D01*
X157438213Y-87908028D01*
X157272613Y-87787715D01*
X157272612Y-87787714D01*
X157272610Y-87787713D01*
X157215653Y-87758691D01*
X157090223Y-87694781D01*
X156895534Y-87631522D01*
X156720995Y-87603878D01*
X156693352Y-87599500D01*
X156488648Y-87599500D01*
X156450599Y-87605526D01*
X156286468Y-87631522D01*
X156277717Y-87634365D01*
X156272154Y-87636173D01*
X156256941Y-87636607D01*
X156242684Y-87641925D01*
X156222729Y-87637584D01*
X156202313Y-87638167D01*
X156188226Y-87630078D01*
X156174411Y-87627073D01*
X156146157Y-87605922D01*
X156039416Y-87499181D01*
X156005931Y-87437858D01*
X156010915Y-87368166D01*
X156052787Y-87312233D01*
X156118251Y-87287816D01*
X156127097Y-87287500D01*
X156161844Y-87287500D01*
X156161845Y-87287499D01*
X156316497Y-87256737D01*
X156462179Y-87196394D01*
X156593289Y-87108789D01*
X156704789Y-86997289D01*
X156792394Y-86866179D01*
X156852737Y-86720497D01*
X156883500Y-86565842D01*
X156883500Y-86408158D01*
X156883500Y-86408155D01*
X156883499Y-86408153D01*
X156873173Y-86356243D01*
X156852737Y-86253503D01*
X156852735Y-86253498D01*
X156792397Y-86107827D01*
X156792390Y-86107814D01*
X156704398Y-85976125D01*
X156683520Y-85909447D01*
X156683500Y-85907234D01*
X156683500Y-82106538D01*
X160799500Y-82106538D01*
X160799500Y-82358462D01*
X160818521Y-82478555D01*
X160838910Y-82607285D01*
X160916760Y-82846883D01*
X160967574Y-82946610D01*
X161025498Y-83060292D01*
X161031132Y-83071348D01*
X161179201Y-83275149D01*
X161179205Y-83275154D01*
X161357345Y-83453294D01*
X161357350Y-83453298D01*
X161477114Y-83540311D01*
X161561155Y-83601370D01*
X161695712Y-83669930D01*
X161785616Y-83715739D01*
X161785618Y-83715739D01*
X161785621Y-83715741D01*
X162025215Y-83793590D01*
X162274038Y-83833000D01*
X162274039Y-83833000D01*
X162525961Y-83833000D01*
X162525962Y-83833000D01*
X162774785Y-83793590D01*
X163014379Y-83715741D01*
X163238845Y-83601370D01*
X163442656Y-83453293D01*
X163620793Y-83275156D01*
X163768870Y-83071345D01*
X163883241Y-82846879D01*
X163961090Y-82607285D01*
X164000500Y-82358462D01*
X164000500Y-82106538D01*
X163961090Y-81857715D01*
X163883241Y-81618121D01*
X163883239Y-81618118D01*
X163883239Y-81618116D01*
X163828366Y-81510422D01*
X163768870Y-81393655D01*
X163749952Y-81367617D01*
X163620798Y-81189850D01*
X163620794Y-81189845D01*
X163442654Y-81011705D01*
X163442649Y-81011701D01*
X163238848Y-80863632D01*
X163238847Y-80863631D01*
X163238845Y-80863630D01*
X163158884Y-80822888D01*
X163014383Y-80749260D01*
X162774785Y-80671410D01*
X162722217Y-80663084D01*
X162525962Y-80632000D01*
X162274038Y-80632000D01*
X162199808Y-80643757D01*
X162025214Y-80671410D01*
X161785616Y-80749260D01*
X161561151Y-80863632D01*
X161357350Y-81011701D01*
X161357345Y-81011705D01*
X161179205Y-81189845D01*
X161179201Y-81189850D01*
X161031132Y-81393651D01*
X160916760Y-81618116D01*
X160838910Y-81857714D01*
X160822454Y-81961613D01*
X160799500Y-82106538D01*
X156683500Y-82106538D01*
X156683500Y-72454097D01*
X156703185Y-72387058D01*
X156719819Y-72366416D01*
X160359416Y-68726819D01*
X160420739Y-68693334D01*
X160447097Y-68690500D01*
X164012234Y-68690500D01*
X164079273Y-68710185D01*
X164081125Y-68711398D01*
X164212814Y-68799390D01*
X164212827Y-68799397D01*
X164312060Y-68840500D01*
X164358503Y-68859737D01*
X164483165Y-68884534D01*
X164513153Y-68890499D01*
X164513156Y-68890500D01*
X164513158Y-68890500D01*
X164670844Y-68890500D01*
X164670845Y-68890499D01*
X164825497Y-68859737D01*
X164971179Y-68799394D01*
X165102289Y-68711789D01*
X165213789Y-68600289D01*
X165301394Y-68469179D01*
X165361737Y-68323497D01*
X165392500Y-68168842D01*
X165392500Y-68011158D01*
X165392500Y-68011155D01*
X165392499Y-68011153D01*
X165386203Y-67979499D01*
X165361737Y-67856503D01*
X165342058Y-67808994D01*
X165301397Y-67710827D01*
X165301390Y-67710814D01*
X165213789Y-67579711D01*
X165213786Y-67579707D01*
X165102292Y-67468213D01*
X165102288Y-67468210D01*
X164971185Y-67380609D01*
X164971172Y-67380602D01*
X164825501Y-67320264D01*
X164825489Y-67320261D01*
X164670845Y-67289500D01*
X164670842Y-67289500D01*
X164513158Y-67289500D01*
X164513155Y-67289500D01*
X164358510Y-67320261D01*
X164358498Y-67320264D01*
X164212827Y-67380602D01*
X164212814Y-67380609D01*
X164081125Y-67468602D01*
X164014447Y-67489480D01*
X164012234Y-67489500D01*
X160233669Y-67489500D01*
X160233653Y-67489499D01*
X160226057Y-67489499D01*
X160067943Y-67489499D01*
X159954569Y-67519878D01*
X159915214Y-67530423D01*
X159911089Y-67532805D01*
X159907768Y-67534722D01*
X159907765Y-67534724D01*
X159778290Y-67609475D01*
X159778282Y-67609481D01*
X155852181Y-71535583D01*
X155790858Y-71569068D01*
X155721166Y-71564084D01*
X155665233Y-71522212D01*
X155640816Y-71456748D01*
X155640500Y-71447902D01*
X155640500Y-67397519D01*
X155660185Y-67330480D01*
X155676819Y-67309838D01*
X157619838Y-65366819D01*
X157681161Y-65333334D01*
X157707519Y-65330500D01*
X158263256Y-65330500D01*
X158330295Y-65350185D01*
X158363575Y-65381616D01*
X158433030Y-65477215D01*
X158577786Y-65621971D01*
X158698226Y-65709474D01*
X158743390Y-65742287D01*
X158859607Y-65801503D01*
X158925776Y-65835218D01*
X158925778Y-65835218D01*
X158925781Y-65835220D01*
X159018927Y-65865485D01*
X159120465Y-65898477D01*
X159210347Y-65912713D01*
X159322648Y-65930500D01*
X159322649Y-65930500D01*
X159527351Y-65930500D01*
X159527352Y-65930500D01*
X159729534Y-65898477D01*
X159924219Y-65835220D01*
X160106610Y-65742287D01*
X160241183Y-65644515D01*
X160272213Y-65621971D01*
X160272215Y-65621968D01*
X160272219Y-65621966D01*
X160416966Y-65477219D01*
X160416968Y-65477215D01*
X160416971Y-65477213D01*
X160493560Y-65371795D01*
X160537287Y-65311610D01*
X160630220Y-65129219D01*
X160693477Y-64934534D01*
X160725500Y-64732352D01*
X160725500Y-64527682D01*
X163125000Y-64527682D01*
X163125000Y-64732317D01*
X163157009Y-64934417D01*
X163220244Y-65129031D01*
X163313141Y-65311350D01*
X163313147Y-65311359D01*
X163345523Y-65355921D01*
X163345524Y-65355922D01*
X164025000Y-64676446D01*
X164025000Y-64682661D01*
X164052259Y-64784394D01*
X164104920Y-64875606D01*
X164179394Y-64950080D01*
X164270606Y-65002741D01*
X164372339Y-65030000D01*
X164378553Y-65030000D01*
X163699076Y-65709474D01*
X163743650Y-65741859D01*
X163925968Y-65834755D01*
X164120582Y-65897990D01*
X164322683Y-65930000D01*
X164527317Y-65930000D01*
X164729417Y-65897990D01*
X164924031Y-65834755D01*
X165106349Y-65741859D01*
X165150921Y-65709474D01*
X164471447Y-65030000D01*
X164477661Y-65030000D01*
X164579394Y-65002741D01*
X164670606Y-64950080D01*
X164745080Y-64875606D01*
X164797741Y-64784394D01*
X164825000Y-64682661D01*
X164825000Y-64676447D01*
X165504474Y-65355921D01*
X165536859Y-65311349D01*
X165629755Y-65129031D01*
X165692990Y-64934417D01*
X165725000Y-64732317D01*
X165725000Y-64527682D01*
X165692990Y-64325582D01*
X165629755Y-64130968D01*
X165536859Y-63948650D01*
X165504474Y-63904077D01*
X165504474Y-63904076D01*
X164825000Y-64583551D01*
X164825000Y-64577339D01*
X164797741Y-64475606D01*
X164745080Y-64384394D01*
X164670606Y-64309920D01*
X164579394Y-64257259D01*
X164477661Y-64230000D01*
X164471446Y-64230000D01*
X165150922Y-63550524D01*
X165150921Y-63550523D01*
X165106359Y-63518147D01*
X165106350Y-63518141D01*
X164924031Y-63425244D01*
X164729417Y-63362009D01*
X164527317Y-63330000D01*
X164322683Y-63330000D01*
X164120582Y-63362009D01*
X163925968Y-63425244D01*
X163743644Y-63518143D01*
X163699077Y-63550523D01*
X163699077Y-63550524D01*
X164378554Y-64230000D01*
X164372339Y-64230000D01*
X164270606Y-64257259D01*
X164179394Y-64309920D01*
X164104920Y-64384394D01*
X164052259Y-64475606D01*
X164025000Y-64577339D01*
X164025000Y-64583553D01*
X163345524Y-63904077D01*
X163345523Y-63904077D01*
X163313143Y-63948644D01*
X163220244Y-64130968D01*
X163157009Y-64325582D01*
X163125000Y-64527682D01*
X160725500Y-64527682D01*
X160725500Y-64527648D01*
X160716123Y-64468443D01*
X160693477Y-64325465D01*
X160655994Y-64210104D01*
X160630220Y-64130781D01*
X160630218Y-64130778D01*
X160630218Y-64130776D01*
X160588055Y-64048028D01*
X160537287Y-63948390D01*
X160505092Y-63904077D01*
X160416971Y-63782786D01*
X160323958Y-63689773D01*
X160272219Y-63638034D01*
X160173667Y-63566432D01*
X160170835Y-63564108D01*
X160153140Y-63538131D01*
X160133949Y-63513243D01*
X160133096Y-63508704D01*
X160131501Y-63506362D01*
X160131308Y-63499184D01*
X160125500Y-63468255D01*
X160125500Y-61022500D01*
X160145185Y-60955461D01*
X160197989Y-60909706D01*
X160249500Y-60898500D01*
X163727900Y-60898500D01*
X163794939Y-60918185D01*
X163796788Y-60919396D01*
X163911453Y-60996013D01*
X164075334Y-61063894D01*
X164075336Y-61063894D01*
X164075341Y-61063896D01*
X164249304Y-61098499D01*
X164249307Y-61098500D01*
X164249309Y-61098500D01*
X164426693Y-61098500D01*
X164426694Y-61098499D01*
X164484682Y-61086964D01*
X164600658Y-61063896D01*
X164600661Y-61063894D01*
X164600666Y-61063894D01*
X164764547Y-60996013D01*
X164912035Y-60897464D01*
X165037464Y-60772035D01*
X165136013Y-60624547D01*
X165203894Y-60460666D01*
X165205163Y-60454289D01*
X165238499Y-60286695D01*
X165238500Y-60286693D01*
X165238500Y-60109306D01*
X165238499Y-60109304D01*
X165203896Y-59935341D01*
X165203893Y-59935332D01*
X165136016Y-59771459D01*
X165136009Y-59771446D01*
X165037464Y-59623965D01*
X165037461Y-59623961D01*
X164912038Y-59498538D01*
X164912034Y-59498535D01*
X164764553Y-59399990D01*
X164764540Y-59399983D01*
X164600667Y-59332106D01*
X164600658Y-59332103D01*
X164426694Y-59297500D01*
X164426691Y-59297500D01*
X164249309Y-59297500D01*
X164249306Y-59297500D01*
X164075341Y-59332103D01*
X164075332Y-59332106D01*
X163911452Y-59399987D01*
X163911450Y-59399988D01*
X163796791Y-59476602D01*
X163730114Y-59497480D01*
X163727900Y-59497500D01*
X160249500Y-59497500D01*
X160182461Y-59477815D01*
X160136706Y-59425011D01*
X160125500Y-59373500D01*
X160125500Y-47756744D01*
X160125985Y-47755091D01*
X160125544Y-47753424D01*
X160135795Y-47721681D01*
X160145185Y-47689705D01*
X160146656Y-47688051D01*
X160147017Y-47686936D01*
X160154700Y-47679015D01*
X160170835Y-47660891D01*
X160173663Y-47658569D01*
X160272219Y-47586966D01*
X160416966Y-47442219D01*
X160416968Y-47442215D01*
X160416971Y-47442213D01*
X160469732Y-47369590D01*
X160537287Y-47276610D01*
X160630220Y-47094219D01*
X160693477Y-46899534D01*
X160725500Y-46697352D01*
X160725500Y-46492682D01*
X163125000Y-46492682D01*
X163125000Y-46697317D01*
X163157009Y-46899417D01*
X163220244Y-47094031D01*
X163313141Y-47276350D01*
X163313147Y-47276359D01*
X163345523Y-47320921D01*
X163345524Y-47320922D01*
X164025000Y-46641446D01*
X164025000Y-46647661D01*
X164052259Y-46749394D01*
X164104920Y-46840606D01*
X164179394Y-46915080D01*
X164270606Y-46967741D01*
X164372339Y-46995000D01*
X164378553Y-46995000D01*
X163699076Y-47674474D01*
X163743650Y-47706859D01*
X163925968Y-47799755D01*
X164120582Y-47862990D01*
X164322683Y-47895000D01*
X164527317Y-47895000D01*
X164729417Y-47862990D01*
X164924031Y-47799755D01*
X165106349Y-47706859D01*
X165150921Y-47674474D01*
X164471447Y-46995000D01*
X164477661Y-46995000D01*
X164579394Y-46967741D01*
X164670606Y-46915080D01*
X164745080Y-46840606D01*
X164797741Y-46749394D01*
X164825000Y-46647661D01*
X164825000Y-46641447D01*
X165504474Y-47320921D01*
X165536859Y-47276349D01*
X165629755Y-47094031D01*
X165692990Y-46899417D01*
X165725000Y-46697317D01*
X165725000Y-46492682D01*
X165692990Y-46290582D01*
X165629755Y-46095968D01*
X165536859Y-45913650D01*
X165504474Y-45869077D01*
X165504474Y-45869076D01*
X164825000Y-46548551D01*
X164825000Y-46542339D01*
X164797741Y-46440606D01*
X164745080Y-46349394D01*
X164670606Y-46274920D01*
X164579394Y-46222259D01*
X164477661Y-46195000D01*
X164471446Y-46195000D01*
X165150922Y-45515524D01*
X165150921Y-45515523D01*
X165106359Y-45483147D01*
X165106350Y-45483141D01*
X164924031Y-45390244D01*
X164729417Y-45327009D01*
X164527317Y-45295000D01*
X164322683Y-45295000D01*
X164120582Y-45327009D01*
X163925968Y-45390244D01*
X163743644Y-45483143D01*
X163699077Y-45515523D01*
X163699077Y-45515524D01*
X164378554Y-46195000D01*
X164372339Y-46195000D01*
X164270606Y-46222259D01*
X164179394Y-46274920D01*
X164104920Y-46349394D01*
X164052259Y-46440606D01*
X164025000Y-46542339D01*
X164025000Y-46548553D01*
X163345524Y-45869077D01*
X163345523Y-45869077D01*
X163313143Y-45913644D01*
X163220244Y-46095968D01*
X163157009Y-46290582D01*
X163125000Y-46492682D01*
X160725500Y-46492682D01*
X160725500Y-46492648D01*
X160703940Y-46356523D01*
X160693477Y-46290465D01*
X160654550Y-46170662D01*
X160630220Y-46095781D01*
X160630218Y-46095778D01*
X160630218Y-46095776D01*
X160560699Y-45959339D01*
X160537287Y-45913390D01*
X160505092Y-45869077D01*
X160416971Y-45747786D01*
X160272213Y-45603028D01*
X160106613Y-45482715D01*
X160106612Y-45482714D01*
X160106610Y-45482713D01*
X160049653Y-45453691D01*
X159924223Y-45389781D01*
X159729534Y-45326522D01*
X159554995Y-45298878D01*
X159527352Y-45294500D01*
X159322648Y-45294500D01*
X159298329Y-45298351D01*
X159120465Y-45326522D01*
X158925776Y-45389781D01*
X158743386Y-45482715D01*
X158577786Y-45603028D01*
X158433028Y-45747786D01*
X158312715Y-45913386D01*
X158219781Y-46095776D01*
X158156522Y-46290465D01*
X158124500Y-46492648D01*
X158124500Y-46697351D01*
X158156522Y-46899534D01*
X158219781Y-47094223D01*
X158280831Y-47214038D01*
X158312585Y-47276359D01*
X158312715Y-47276613D01*
X158433028Y-47442213D01*
X158577784Y-47586969D01*
X158673385Y-47656426D01*
X158716051Y-47711755D01*
X158724500Y-47756744D01*
X158724500Y-63468255D01*
X158704815Y-63535294D01*
X158673385Y-63568573D01*
X158577787Y-63638028D01*
X158577782Y-63638032D01*
X158433030Y-63782784D01*
X158363575Y-63878384D01*
X158308245Y-63921051D01*
X158263256Y-63929500D01*
X157297004Y-63929500D01*
X157161677Y-63956418D01*
X157161667Y-63956421D01*
X157034192Y-64009222D01*
X156919454Y-64085887D01*
X154395887Y-66609454D01*
X154319222Y-66724192D01*
X154266421Y-66851667D01*
X154266418Y-66851679D01*
X154248303Y-66942752D01*
X154248303Y-66942755D01*
X154239500Y-66987006D01*
X154239500Y-77144902D01*
X154233261Y-77166147D01*
X154231682Y-77188236D01*
X154223609Y-77199019D01*
X154219815Y-77211941D01*
X154203081Y-77226440D01*
X154189810Y-77244169D01*
X154177189Y-77248876D01*
X154167011Y-77257696D01*
X154145093Y-77260847D01*
X154124346Y-77268586D01*
X154111185Y-77265723D01*
X154097853Y-77267640D01*
X154077709Y-77258440D01*
X154056073Y-77253734D01*
X154038347Y-77240465D01*
X154034297Y-77238615D01*
X154027819Y-77232583D01*
X153996573Y-77201337D01*
X153963088Y-77140014D01*
X153962637Y-77137847D01*
X153957066Y-77109842D01*
X153931737Y-76982503D01*
X153901749Y-76910104D01*
X153871397Y-76836827D01*
X153871390Y-76836814D01*
X153783789Y-76705711D01*
X153783786Y-76705707D01*
X153672292Y-76594213D01*
X153672288Y-76594210D01*
X153541185Y-76506609D01*
X153541172Y-76506602D01*
X153395501Y-76446264D01*
X153395489Y-76446261D01*
X153240845Y-76415500D01*
X153240842Y-76415500D01*
X153083158Y-76415500D01*
X153083155Y-76415500D01*
X152928510Y-76446261D01*
X152928498Y-76446264D01*
X152782827Y-76506602D01*
X152782814Y-76506609D01*
X152651711Y-76594210D01*
X152651707Y-76594213D01*
X152540213Y-76705707D01*
X152540210Y-76705711D01*
X152452609Y-76836814D01*
X152452602Y-76836827D01*
X152392264Y-76982498D01*
X152392261Y-76982510D01*
X152361500Y-77137153D01*
X152361500Y-77294846D01*
X152392261Y-77449489D01*
X152392264Y-77449501D01*
X152452602Y-77595172D01*
X152452609Y-77595185D01*
X152540210Y-77726288D01*
X152540213Y-77726292D01*
X152651707Y-77837786D01*
X152651711Y-77837789D01*
X152782814Y-77925390D01*
X152782818Y-77925392D01*
X152782821Y-77925394D01*
X152875718Y-77963873D01*
X152876764Y-77964306D01*
X152892329Y-77976848D01*
X152910515Y-77985154D01*
X152918978Y-77998323D01*
X152931168Y-78008146D01*
X152937481Y-78027115D01*
X152948289Y-78043932D01*
X152952251Y-78071491D01*
X152953233Y-78074440D01*
X152953312Y-78078867D01*
X152953312Y-78079894D01*
X152933627Y-78146933D01*
X152880823Y-78192688D01*
X152811665Y-78202632D01*
X152805122Y-78201512D01*
X152764842Y-78193500D01*
X152607158Y-78193500D01*
X152607155Y-78193500D01*
X152452510Y-78224261D01*
X152452498Y-78224264D01*
X152306827Y-78284602D01*
X152306814Y-78284609D01*
X152175711Y-78372210D01*
X152175707Y-78372213D01*
X152064213Y-78483707D01*
X152064210Y-78483711D01*
X151976609Y-78614814D01*
X151976602Y-78614827D01*
X151916264Y-78760498D01*
X151916261Y-78760510D01*
X151885500Y-78915153D01*
X138876500Y-78915153D01*
X138876500Y-73254099D01*
X138896185Y-73187060D01*
X138897398Y-73185208D01*
X138911025Y-73164814D01*
X138974013Y-73070547D01*
X139041894Y-72906666D01*
X139047599Y-72877989D01*
X139076499Y-72732695D01*
X139076500Y-72732693D01*
X139076500Y-72555306D01*
X139076499Y-72555304D01*
X139041896Y-72381341D01*
X139041893Y-72381332D01*
X138974016Y-72217459D01*
X138974009Y-72217446D01*
X138875464Y-72069965D01*
X138875461Y-72069961D01*
X138750038Y-71944538D01*
X138750034Y-71944535D01*
X138602553Y-71845990D01*
X138602540Y-71845983D01*
X138438667Y-71778106D01*
X138438658Y-71778103D01*
X138264694Y-71743500D01*
X138264691Y-71743500D01*
X138087309Y-71743500D01*
X138087306Y-71743500D01*
X137913341Y-71778103D01*
X137913332Y-71778106D01*
X137749459Y-71845983D01*
X137749446Y-71845990D01*
X137699391Y-71879437D01*
X137632714Y-71900315D01*
X137565334Y-71881831D01*
X137518643Y-71829852D01*
X137506500Y-71776335D01*
X137506500Y-63063765D01*
X137526185Y-62996726D01*
X137527398Y-62994874D01*
X137615390Y-62863185D01*
X137615390Y-62863184D01*
X137615394Y-62863179D01*
X137675737Y-62717497D01*
X137706500Y-62562842D01*
X137706500Y-62405158D01*
X137706500Y-62405155D01*
X137706499Y-62405153D01*
X137699675Y-62370845D01*
X137675737Y-62250503D01*
X137667875Y-62231523D01*
X137615397Y-62104827D01*
X137615390Y-62104814D01*
X137527789Y-61973711D01*
X137527786Y-61973707D01*
X137416292Y-61862213D01*
X137416288Y-61862210D01*
X137285185Y-61774609D01*
X137285172Y-61774602D01*
X137139501Y-61714264D01*
X137139489Y-61714261D01*
X136984845Y-61683500D01*
X136984842Y-61683500D01*
X136868500Y-61683500D01*
X136801461Y-61663815D01*
X136755706Y-61611011D01*
X136744500Y-61559500D01*
X136744500Y-60523765D01*
X136764185Y-60456726D01*
X136765398Y-60454874D01*
X136768851Y-60449707D01*
X136853394Y-60323179D01*
X136913737Y-60177497D01*
X136944500Y-60022842D01*
X136944500Y-59865158D01*
X136944500Y-59865155D01*
X136944499Y-59865153D01*
X136934978Y-59817288D01*
X136913737Y-59710503D01*
X136896960Y-59670000D01*
X136853397Y-59564827D01*
X136853390Y-59564814D01*
X136765789Y-59433711D01*
X136765786Y-59433707D01*
X136654292Y-59322213D01*
X136654288Y-59322210D01*
X136523185Y-59234609D01*
X136523172Y-59234602D01*
X136377501Y-59174264D01*
X136377489Y-59174261D01*
X136222845Y-59143500D01*
X136222842Y-59143500D01*
X136065158Y-59143500D01*
X136065155Y-59143500D01*
X135910510Y-59174261D01*
X135910498Y-59174264D01*
X135899952Y-59178633D01*
X135830482Y-59186102D01*
X135768003Y-59154826D01*
X135732352Y-59094737D01*
X135728500Y-59064072D01*
X135728500Y-58491765D01*
X135748185Y-58424726D01*
X135749398Y-58422874D01*
X135837390Y-58291185D01*
X135837390Y-58291184D01*
X135837394Y-58291179D01*
X135897737Y-58145497D01*
X135928500Y-57990842D01*
X135928500Y-57833158D01*
X135928500Y-57833155D01*
X135928499Y-57833153D01*
X135920511Y-57792993D01*
X135897737Y-57678503D01*
X135897735Y-57678498D01*
X135837397Y-57532827D01*
X135837390Y-57532814D01*
X135749789Y-57401711D01*
X135749786Y-57401707D01*
X135638292Y-57290213D01*
X135638288Y-57290210D01*
X135507185Y-57202609D01*
X135507172Y-57202602D01*
X135361501Y-57142264D01*
X135361491Y-57142261D01*
X135263503Y-57122770D01*
X135201592Y-57090385D01*
X135167018Y-57029669D01*
X135166151Y-56980931D01*
X135165903Y-56980907D01*
X135166113Y-56978770D01*
X135166081Y-56976947D01*
X135166500Y-56974841D01*
X135166500Y-56817155D01*
X135166499Y-56817153D01*
X135158282Y-56775845D01*
X135135737Y-56662503D01*
X135105749Y-56590104D01*
X135075397Y-56516827D01*
X135075390Y-56516814D01*
X134987789Y-56385711D01*
X134987786Y-56385707D01*
X134876292Y-56274213D01*
X134876288Y-56274210D01*
X134745185Y-56186609D01*
X134745172Y-56186602D01*
X134599501Y-56126264D01*
X134599489Y-56126261D01*
X134444845Y-56095500D01*
X134444842Y-56095500D01*
X134287158Y-56095500D01*
X134287155Y-56095500D01*
X134132510Y-56126261D01*
X134132498Y-56126264D01*
X133986827Y-56186602D01*
X133986814Y-56186609D01*
X133855711Y-56274210D01*
X133855707Y-56274213D01*
X133744213Y-56385707D01*
X133744210Y-56385711D01*
X133656609Y-56516814D01*
X133656602Y-56516827D01*
X133596264Y-56662498D01*
X133596261Y-56662510D01*
X133565500Y-56817153D01*
X133565500Y-56974846D01*
X133596261Y-57129489D01*
X133596264Y-57129501D01*
X133656602Y-57275172D01*
X133656609Y-57275185D01*
X133744602Y-57406874D01*
X133765480Y-57473551D01*
X133765500Y-57475765D01*
X133765500Y-57749500D01*
X133745815Y-57816539D01*
X133693011Y-57862294D01*
X133641500Y-57873500D01*
X133525155Y-57873500D01*
X133370510Y-57904261D01*
X133370498Y-57904264D01*
X133224827Y-57964602D01*
X133224814Y-57964609D01*
X133093711Y-58052210D01*
X133093707Y-58052213D01*
X132982213Y-58163707D01*
X132982210Y-58163711D01*
X132894609Y-58294814D01*
X132894602Y-58294827D01*
X132834264Y-58440498D01*
X132834261Y-58440510D01*
X132803500Y-58595153D01*
X129378500Y-58595153D01*
X129378500Y-46402943D01*
X129337577Y-46250216D01*
X129312916Y-46207501D01*
X129258524Y-46113290D01*
X129258521Y-46113286D01*
X129258520Y-46113284D01*
X129146716Y-46001480D01*
X129146715Y-46001479D01*
X129142385Y-45997149D01*
X129142374Y-45997139D01*
X129104574Y-45959339D01*
X129071089Y-45898016D01*
X129070638Y-45895849D01*
X129041626Y-45750000D01*
X129039737Y-45740503D01*
X129007498Y-45662671D01*
X128979397Y-45594827D01*
X128979390Y-45594814D01*
X128891789Y-45463711D01*
X128891786Y-45463707D01*
X128780292Y-45352213D01*
X128780288Y-45352210D01*
X128649185Y-45264609D01*
X128649172Y-45264602D01*
X128503501Y-45204264D01*
X128503489Y-45204261D01*
X128348845Y-45173500D01*
X128348842Y-45173500D01*
X128191158Y-45173500D01*
X128191155Y-45173500D01*
X128036510Y-45204261D01*
X128036498Y-45204264D01*
X127890827Y-45264602D01*
X127890814Y-45264609D01*
X127759711Y-45352210D01*
X127759707Y-45352213D01*
X127648213Y-45463707D01*
X127648210Y-45463711D01*
X127560609Y-45594814D01*
X127560602Y-45594827D01*
X127500264Y-45740498D01*
X127500261Y-45740510D01*
X127469500Y-45895153D01*
X127469500Y-46052846D01*
X127500261Y-46207489D01*
X127500264Y-46207501D01*
X127560602Y-46353172D01*
X127560609Y-46353185D01*
X127648210Y-46484288D01*
X127648213Y-46484292D01*
X127759707Y-46595786D01*
X127759711Y-46595789D01*
X127890814Y-46683390D01*
X127890827Y-46683397D01*
X127958961Y-46711618D01*
X128036503Y-46743737D01*
X128077691Y-46751929D01*
X128139602Y-46784314D01*
X128174176Y-46845030D01*
X128177500Y-46873547D01*
X128177500Y-47634072D01*
X128157815Y-47701111D01*
X128105011Y-47746866D01*
X128035853Y-47756810D01*
X128006048Y-47748633D01*
X127995501Y-47744264D01*
X127995489Y-47744261D01*
X127840845Y-47713500D01*
X127840842Y-47713500D01*
X127683158Y-47713500D01*
X127683155Y-47713500D01*
X127528510Y-47744261D01*
X127528498Y-47744264D01*
X127382827Y-47804602D01*
X127382814Y-47804609D01*
X127251711Y-47892210D01*
X127251707Y-47892213D01*
X127140213Y-48003707D01*
X127140210Y-48003711D01*
X127052609Y-48134814D01*
X127052602Y-48134827D01*
X126992264Y-48280498D01*
X126992261Y-48280510D01*
X126961500Y-48435153D01*
X126961500Y-48592846D01*
X126992261Y-48747489D01*
X126992264Y-48747501D01*
X127052602Y-48893172D01*
X127052609Y-48893185D01*
X127140210Y-49024288D01*
X127140213Y-49024292D01*
X127251707Y-49135786D01*
X127251711Y-49135789D01*
X127382814Y-49223390D01*
X127382827Y-49223397D01*
X127450961Y-49251618D01*
X127528503Y-49283737D01*
X127569691Y-49291929D01*
X127631602Y-49324314D01*
X127666176Y-49385030D01*
X127669500Y-49413547D01*
X127669500Y-52714072D01*
X127649815Y-52781111D01*
X127597011Y-52826866D01*
X127527853Y-52836810D01*
X127498048Y-52828633D01*
X127487501Y-52824264D01*
X127487489Y-52824261D01*
X127332845Y-52793500D01*
X127332842Y-52793500D01*
X127175158Y-52793500D01*
X127175155Y-52793500D01*
X127020510Y-52824261D01*
X127020498Y-52824264D01*
X126874827Y-52884602D01*
X126874814Y-52884609D01*
X126743711Y-52972210D01*
X126743707Y-52972213D01*
X126632213Y-53083707D01*
X126632210Y-53083711D01*
X126544609Y-53214814D01*
X126544602Y-53214827D01*
X126484264Y-53360498D01*
X126484261Y-53360510D01*
X126453500Y-53515153D01*
X126453500Y-53672846D01*
X126484261Y-53827489D01*
X126484264Y-53827501D01*
X126544602Y-53973172D01*
X126544609Y-53973185D01*
X126632210Y-54104288D01*
X126632213Y-54104292D01*
X126743708Y-54215787D01*
X126743711Y-54215789D01*
X126852392Y-54288407D01*
X126897196Y-54342017D01*
X126907500Y-54391508D01*
X126907500Y-72089901D01*
X126887815Y-72156940D01*
X126871181Y-72177582D01*
X125968641Y-73080122D01*
X125907318Y-73113607D01*
X125837626Y-73108623D01*
X125781693Y-73066751D01*
X125757276Y-73001287D01*
X125757671Y-72979185D01*
X125760500Y-72952873D01*
X125760499Y-71257128D01*
X125754091Y-71197517D01*
X125723776Y-71116239D01*
X125703797Y-71062671D01*
X125703793Y-71062664D01*
X125617547Y-70947455D01*
X125617544Y-70947452D01*
X125502335Y-70861206D01*
X125502328Y-70861202D01*
X125367482Y-70810908D01*
X125367483Y-70810908D01*
X125307883Y-70804501D01*
X125307881Y-70804500D01*
X125307873Y-70804500D01*
X125307864Y-70804500D01*
X123612129Y-70804500D01*
X123612123Y-70804501D01*
X123552516Y-70810908D01*
X123417671Y-70861202D01*
X123417664Y-70861206D01*
X123302455Y-70947452D01*
X123302452Y-70947455D01*
X123216206Y-71062664D01*
X123216202Y-71062671D01*
X123165908Y-71197517D01*
X123159501Y-71257116D01*
X123159501Y-71257123D01*
X123159500Y-71257135D01*
X123159500Y-72952870D01*
X123159501Y-72952876D01*
X123165908Y-73012483D01*
X123216202Y-73147328D01*
X123216206Y-73147335D01*
X123302452Y-73262544D01*
X123302455Y-73262547D01*
X123417664Y-73348793D01*
X123417671Y-73348797D01*
X123435552Y-73355466D01*
X123552517Y-73399091D01*
X123589441Y-73403060D01*
X123653989Y-73429796D01*
X123693838Y-73487188D01*
X123696333Y-73557013D01*
X123660681Y-73617102D01*
X123649071Y-73626666D01*
X123612784Y-73653030D01*
X123468028Y-73797786D01*
X123347715Y-73963386D01*
X123254781Y-74145776D01*
X123191522Y-74340465D01*
X123159500Y-74542648D01*
X123159500Y-74747351D01*
X123191522Y-74949534D01*
X123254781Y-75144223D01*
X123299375Y-75231742D01*
X123334202Y-75300094D01*
X123347715Y-75326613D01*
X123468028Y-75492213D01*
X123612786Y-75636971D01*
X123718577Y-75713831D01*
X123778390Y-75757287D01*
X123869840Y-75803883D01*
X123871080Y-75804515D01*
X123921876Y-75852490D01*
X123938671Y-75920311D01*
X123916134Y-75986446D01*
X123871080Y-76025485D01*
X123778386Y-76072715D01*
X123612786Y-76193028D01*
X123468028Y-76337786D01*
X123347715Y-76503386D01*
X123254781Y-76685776D01*
X123191522Y-76880465D01*
X123159500Y-77082648D01*
X123159500Y-77287351D01*
X123191522Y-77489534D01*
X123254781Y-77684223D01*
X123299375Y-77771742D01*
X123333026Y-77837786D01*
X123347715Y-77866613D01*
X123468028Y-78032213D01*
X123612786Y-78176971D01*
X123756944Y-78281706D01*
X123778390Y-78297287D01*
X123837610Y-78327461D01*
X123871080Y-78344515D01*
X123921876Y-78392490D01*
X123938671Y-78460311D01*
X123916134Y-78526446D01*
X123871080Y-78565485D01*
X123778386Y-78612715D01*
X123612786Y-78733028D01*
X123468028Y-78877786D01*
X123347715Y-79043386D01*
X123254781Y-79225776D01*
X123191522Y-79420465D01*
X123159500Y-79622648D01*
X123159500Y-79827351D01*
X123191522Y-80029534D01*
X123254781Y-80224223D01*
X123287292Y-80288028D01*
X123338831Y-80389179D01*
X123347715Y-80406613D01*
X123468028Y-80572213D01*
X123612786Y-80716971D01*
X123758571Y-80822888D01*
X123778390Y-80837287D01*
X123869840Y-80883883D01*
X123871080Y-80884515D01*
X123921876Y-80932490D01*
X123938671Y-81000311D01*
X123916134Y-81066446D01*
X123871080Y-81105485D01*
X123778386Y-81152715D01*
X123612786Y-81273028D01*
X123468028Y-81417786D01*
X123347715Y-81583386D01*
X123254781Y-81765776D01*
X123191522Y-81960465D01*
X123159500Y-82162648D01*
X123159500Y-82367351D01*
X123191522Y-82569534D01*
X123254781Y-82764223D01*
X123308494Y-82869638D01*
X123338831Y-82929179D01*
X123347715Y-82946613D01*
X123468028Y-83112213D01*
X123612786Y-83256971D01*
X123756944Y-83361706D01*
X123778390Y-83377287D01*
X123837610Y-83407461D01*
X123871080Y-83424515D01*
X123921876Y-83472490D01*
X123938671Y-83540311D01*
X123916134Y-83606446D01*
X123871080Y-83645485D01*
X123778386Y-83692715D01*
X123612786Y-83813028D01*
X123468028Y-83957786D01*
X123347715Y-84123386D01*
X123254781Y-84305776D01*
X123191522Y-84500465D01*
X123159500Y-84702648D01*
X123159500Y-84907351D01*
X123191522Y-85109534D01*
X123254781Y-85304223D01*
X123347715Y-85486613D01*
X123468028Y-85652213D01*
X123612786Y-85796971D01*
X123738097Y-85888013D01*
X123778390Y-85917287D01*
X123869840Y-85963883D01*
X123871080Y-85964515D01*
X123921876Y-86012490D01*
X123938671Y-86080311D01*
X123916134Y-86146446D01*
X123871080Y-86185485D01*
X123778386Y-86232715D01*
X123612786Y-86353028D01*
X123468028Y-86497786D01*
X123347715Y-86663386D01*
X123254781Y-86845776D01*
X123191522Y-87040465D01*
X123159500Y-87242648D01*
X123159500Y-87447351D01*
X123191522Y-87649534D01*
X123254781Y-87844223D01*
X123287292Y-87908028D01*
X123338831Y-88009179D01*
X123347715Y-88026613D01*
X123468028Y-88192213D01*
X123612786Y-88336971D01*
X123751574Y-88437804D01*
X123778390Y-88457287D01*
X123868213Y-88503054D01*
X123871080Y-88504515D01*
X123921876Y-88552490D01*
X123938671Y-88620311D01*
X123916134Y-88686446D01*
X123871080Y-88725485D01*
X123778386Y-88772715D01*
X123612786Y-88893028D01*
X123468028Y-89037786D01*
X123347715Y-89203386D01*
X123254781Y-89385776D01*
X123191522Y-89580465D01*
X123159500Y-89782648D01*
X123159500Y-89987351D01*
X123191522Y-90189534D01*
X123254781Y-90384223D01*
X123347715Y-90566613D01*
X123468028Y-90732213D01*
X123612786Y-90876971D01*
X123767749Y-90989556D01*
X123778390Y-90997287D01*
X123839649Y-91028500D01*
X123871080Y-91044515D01*
X123921876Y-91092490D01*
X123938671Y-91160311D01*
X123916134Y-91226446D01*
X123871080Y-91265485D01*
X123778386Y-91312715D01*
X123612786Y-91433028D01*
X123468028Y-91577786D01*
X123347715Y-91743386D01*
X123254781Y-91925776D01*
X123191522Y-92120465D01*
X123159500Y-92322648D01*
X123159500Y-92527351D01*
X123191522Y-92729534D01*
X123254781Y-92924223D01*
X123343940Y-93099205D01*
X123356836Y-93167874D01*
X123330560Y-93232615D01*
X123273453Y-93272872D01*
X123233455Y-93279500D01*
X121499519Y-93279500D01*
X121432480Y-93259815D01*
X121411838Y-93243181D01*
X106186819Y-78018162D01*
X106153334Y-77956839D01*
X106150500Y-77930481D01*
X106150500Y-73901744D01*
X106150985Y-73900091D01*
X106150544Y-73898424D01*
X106160795Y-73866681D01*
X106170185Y-73834705D01*
X106171656Y-73833051D01*
X106172017Y-73831936D01*
X106179700Y-73824015D01*
X106195835Y-73805891D01*
X106198663Y-73803569D01*
X106297219Y-73731966D01*
X106441966Y-73587219D01*
X106441968Y-73587215D01*
X106441971Y-73587213D01*
X106514642Y-73487188D01*
X106562287Y-73421610D01*
X106655220Y-73239219D01*
X106718477Y-73044534D01*
X106750500Y-72842352D01*
X106750500Y-72637682D01*
X109150000Y-72637682D01*
X109150000Y-72842317D01*
X109182009Y-73044417D01*
X109245244Y-73239031D01*
X109338141Y-73421350D01*
X109338147Y-73421359D01*
X109370523Y-73465921D01*
X109370524Y-73465922D01*
X110050000Y-72786446D01*
X110050000Y-72792661D01*
X110077259Y-72894394D01*
X110129920Y-72985606D01*
X110204394Y-73060080D01*
X110295606Y-73112741D01*
X110397339Y-73140000D01*
X110403553Y-73140000D01*
X109724076Y-73819474D01*
X109768650Y-73851859D01*
X109950968Y-73944755D01*
X110145582Y-74007990D01*
X110347683Y-74040000D01*
X110552317Y-74040000D01*
X110754417Y-74007990D01*
X110949031Y-73944755D01*
X111131349Y-73851859D01*
X111175921Y-73819474D01*
X110496447Y-73140000D01*
X110502661Y-73140000D01*
X110604394Y-73112741D01*
X110695606Y-73060080D01*
X110770080Y-72985606D01*
X110822741Y-72894394D01*
X110850000Y-72792661D01*
X110850000Y-72786447D01*
X111529474Y-73465921D01*
X111561859Y-73421349D01*
X111654755Y-73239031D01*
X111717990Y-73044417D01*
X111750000Y-72842317D01*
X111750000Y-72637682D01*
X113675000Y-72637682D01*
X113675000Y-72842317D01*
X113707009Y-73044417D01*
X113770244Y-73239031D01*
X113863141Y-73421350D01*
X113863147Y-73421359D01*
X113895523Y-73465921D01*
X113895524Y-73465922D01*
X114575000Y-72786446D01*
X114575000Y-72792661D01*
X114602259Y-72894394D01*
X114654920Y-72985606D01*
X114729394Y-73060080D01*
X114820606Y-73112741D01*
X114922339Y-73140000D01*
X114928553Y-73140000D01*
X114249076Y-73819474D01*
X114293650Y-73851859D01*
X114475968Y-73944755D01*
X114670582Y-74007990D01*
X114872683Y-74040000D01*
X115077317Y-74040000D01*
X115279417Y-74007990D01*
X115474031Y-73944755D01*
X115656349Y-73851859D01*
X115700921Y-73819474D01*
X115021447Y-73140000D01*
X115027661Y-73140000D01*
X115129394Y-73112741D01*
X115220606Y-73060080D01*
X115295080Y-72985606D01*
X115347741Y-72894394D01*
X115375000Y-72792661D01*
X115375000Y-72786447D01*
X116054474Y-73465921D01*
X116086859Y-73421349D01*
X116179755Y-73239031D01*
X116242990Y-73044417D01*
X116275000Y-72842317D01*
X116275000Y-72637682D01*
X116242990Y-72435582D01*
X116179755Y-72240968D01*
X116086859Y-72058650D01*
X116054474Y-72014077D01*
X116054474Y-72014076D01*
X115375000Y-72693551D01*
X115375000Y-72687339D01*
X115347741Y-72585606D01*
X115295080Y-72494394D01*
X115220606Y-72419920D01*
X115129394Y-72367259D01*
X115027661Y-72340000D01*
X115021446Y-72340000D01*
X115700922Y-71660524D01*
X115700921Y-71660523D01*
X115656359Y-71628147D01*
X115656350Y-71628141D01*
X115474031Y-71535244D01*
X115279417Y-71472009D01*
X115077317Y-71440000D01*
X114872683Y-71440000D01*
X114670582Y-71472009D01*
X114475968Y-71535244D01*
X114293644Y-71628143D01*
X114249077Y-71660523D01*
X114249077Y-71660524D01*
X114928554Y-72340000D01*
X114922339Y-72340000D01*
X114820606Y-72367259D01*
X114729394Y-72419920D01*
X114654920Y-72494394D01*
X114602259Y-72585606D01*
X114575000Y-72687339D01*
X114575000Y-72693553D01*
X113895524Y-72014077D01*
X113895523Y-72014077D01*
X113863143Y-72058644D01*
X113770244Y-72240968D01*
X113707009Y-72435582D01*
X113675000Y-72637682D01*
X111750000Y-72637682D01*
X111717990Y-72435582D01*
X111654755Y-72240968D01*
X111561859Y-72058650D01*
X111529474Y-72014077D01*
X111529474Y-72014076D01*
X110850000Y-72693551D01*
X110850000Y-72687339D01*
X110822741Y-72585606D01*
X110770080Y-72494394D01*
X110695606Y-72419920D01*
X110604394Y-72367259D01*
X110502661Y-72340000D01*
X110496446Y-72340000D01*
X111175922Y-71660524D01*
X111175921Y-71660523D01*
X111131359Y-71628147D01*
X111131350Y-71628141D01*
X110949031Y-71535244D01*
X110754417Y-71472009D01*
X110552317Y-71440000D01*
X110347683Y-71440000D01*
X110145582Y-71472009D01*
X109950968Y-71535244D01*
X109768644Y-71628143D01*
X109724077Y-71660523D01*
X109724077Y-71660524D01*
X110403554Y-72340000D01*
X110397339Y-72340000D01*
X110295606Y-72367259D01*
X110204394Y-72419920D01*
X110129920Y-72494394D01*
X110077259Y-72585606D01*
X110050000Y-72687339D01*
X110050000Y-72693553D01*
X109370524Y-72014077D01*
X109370523Y-72014077D01*
X109338143Y-72058644D01*
X109245244Y-72240968D01*
X109182009Y-72435582D01*
X109150000Y-72637682D01*
X106750500Y-72637682D01*
X106750500Y-72637648D01*
X106720516Y-72448338D01*
X106721659Y-72439743D01*
X106728499Y-72381948D01*
X106758580Y-72309328D01*
X106776854Y-72217459D01*
X106785500Y-72173996D01*
X106785500Y-48786744D01*
X106785985Y-48785091D01*
X106785544Y-48783424D01*
X106795795Y-48751681D01*
X106805185Y-48719705D01*
X106806656Y-48718051D01*
X106807017Y-48716936D01*
X106814700Y-48709015D01*
X106830835Y-48690891D01*
X106833663Y-48688569D01*
X106932219Y-48616966D01*
X107076966Y-48472219D01*
X107076968Y-48472215D01*
X107076971Y-48472213D01*
X107142042Y-48382649D01*
X107197287Y-48306610D01*
X107290220Y-48124219D01*
X107353477Y-47929534D01*
X107385500Y-47727352D01*
X107385500Y-47522682D01*
X109785000Y-47522682D01*
X109785000Y-47727317D01*
X109817009Y-47929417D01*
X109880244Y-48124031D01*
X109973141Y-48306350D01*
X109973147Y-48306359D01*
X110005523Y-48350921D01*
X110005524Y-48350922D01*
X110685000Y-47671446D01*
X110685000Y-47677661D01*
X110712259Y-47779394D01*
X110764920Y-47870606D01*
X110839394Y-47945080D01*
X110930606Y-47997741D01*
X111032339Y-48025000D01*
X111038553Y-48025000D01*
X110359076Y-48704474D01*
X110403650Y-48736859D01*
X110585968Y-48829755D01*
X110780582Y-48892990D01*
X110982683Y-48925000D01*
X111187317Y-48925000D01*
X111389417Y-48892990D01*
X111584031Y-48829755D01*
X111766349Y-48736859D01*
X111810921Y-48704474D01*
X111131447Y-48025000D01*
X111137661Y-48025000D01*
X111239394Y-47997741D01*
X111330606Y-47945080D01*
X111405080Y-47870606D01*
X111457741Y-47779394D01*
X111485000Y-47677661D01*
X111485000Y-47671447D01*
X112164474Y-48350921D01*
X112196859Y-48306349D01*
X112289755Y-48124031D01*
X112352990Y-47929417D01*
X112385000Y-47727317D01*
X112385000Y-47522682D01*
X112384995Y-47522648D01*
X113674500Y-47522648D01*
X113674500Y-47727352D01*
X113677179Y-47744264D01*
X113706522Y-47929534D01*
X113769781Y-48124223D01*
X113828782Y-48240017D01*
X113862585Y-48306359D01*
X113862715Y-48306613D01*
X113983028Y-48472213D01*
X114127784Y-48616969D01*
X114223385Y-48686426D01*
X114266051Y-48741755D01*
X114274500Y-48786744D01*
X114274500Y-67671006D01*
X114274500Y-67808994D01*
X114274500Y-67808996D01*
X114274499Y-67808996D01*
X114301418Y-67944322D01*
X114301421Y-67944332D01*
X114354222Y-68071807D01*
X114430887Y-68186545D01*
X114430888Y-68186546D01*
X118658194Y-72413851D01*
X118691679Y-72475174D01*
X118692986Y-72520929D01*
X118674500Y-72637647D01*
X118674500Y-72842351D01*
X118706522Y-73044534D01*
X118769781Y-73239223D01*
X118817719Y-73333304D01*
X118862585Y-73421359D01*
X118862715Y-73421613D01*
X118983028Y-73587213D01*
X119127786Y-73731971D01*
X119265379Y-73831936D01*
X119293390Y-73852287D01*
X119390455Y-73901744D01*
X119475776Y-73945218D01*
X119475778Y-73945218D01*
X119475781Y-73945220D01*
X119556549Y-73971463D01*
X119670465Y-74008477D01*
X119749664Y-74021021D01*
X119872648Y-74040500D01*
X119872649Y-74040500D01*
X120077351Y-74040500D01*
X120077352Y-74040500D01*
X120279534Y-74008477D01*
X120474219Y-73945220D01*
X120656610Y-73852287D01*
X120750626Y-73783981D01*
X120822213Y-73731971D01*
X120822215Y-73731968D01*
X120822219Y-73731966D01*
X120966966Y-73587219D01*
X120966968Y-73587215D01*
X120966971Y-73587213D01*
X121039642Y-73487188D01*
X121087287Y-73421610D01*
X121180220Y-73239219D01*
X121243477Y-73044534D01*
X121275500Y-72842352D01*
X121275500Y-72637648D01*
X121261256Y-72547715D01*
X121243477Y-72435465D01*
X121192805Y-72279515D01*
X121180220Y-72240781D01*
X121180218Y-72240778D01*
X121180218Y-72240776D01*
X121137501Y-72156940D01*
X121087287Y-72058390D01*
X121055092Y-72014077D01*
X120966971Y-71892786D01*
X120822213Y-71748028D01*
X120656613Y-71627715D01*
X120656612Y-71627714D01*
X120656610Y-71627713D01*
X120581613Y-71589500D01*
X120474223Y-71534781D01*
X120279534Y-71471522D01*
X120104995Y-71443878D01*
X120077352Y-71439500D01*
X119872648Y-71439500D01*
X119755929Y-71457986D01*
X119686636Y-71449031D01*
X119648851Y-71423194D01*
X115711819Y-67486162D01*
X115678334Y-67424839D01*
X115675500Y-67398481D01*
X115675500Y-56309153D01*
X120611500Y-56309153D01*
X120611500Y-56466846D01*
X120642261Y-56621489D01*
X120642264Y-56621501D01*
X120702602Y-56767172D01*
X120702609Y-56767185D01*
X120780766Y-56884154D01*
X120783510Y-56888261D01*
X120790602Y-56898874D01*
X120811480Y-56965551D01*
X120811500Y-56967765D01*
X120811500Y-69524234D01*
X120791815Y-69591273D01*
X120790602Y-69593125D01*
X120702609Y-69724814D01*
X120702602Y-69724827D01*
X120642264Y-69870498D01*
X120642261Y-69870510D01*
X120611500Y-70025153D01*
X120611500Y-70182846D01*
X120642261Y-70337489D01*
X120642264Y-70337501D01*
X120702602Y-70483172D01*
X120702609Y-70483185D01*
X120790210Y-70614288D01*
X120790213Y-70614292D01*
X120901707Y-70725786D01*
X120901711Y-70725789D01*
X121032814Y-70813390D01*
X121032827Y-70813397D01*
X121148245Y-70861204D01*
X121178503Y-70873737D01*
X121333153Y-70904499D01*
X121333156Y-70904500D01*
X121333158Y-70904500D01*
X121490844Y-70904500D01*
X121490845Y-70904499D01*
X121645497Y-70873737D01*
X121791179Y-70813394D01*
X121922289Y-70725789D01*
X122033789Y-70614289D01*
X122121394Y-70483179D01*
X122181737Y-70337497D01*
X122212500Y-70182842D01*
X122212500Y-70025158D01*
X122212500Y-70025155D01*
X122212499Y-70025153D01*
X122203283Y-69978821D01*
X122181737Y-69870503D01*
X122173875Y-69851523D01*
X122121397Y-69724827D01*
X122121390Y-69724814D01*
X122033398Y-69593125D01*
X122012520Y-69526447D01*
X122012500Y-69524234D01*
X122012500Y-57579153D01*
X122643500Y-57579153D01*
X122643500Y-57736846D01*
X122674261Y-57891489D01*
X122674264Y-57891501D01*
X122734602Y-58037172D01*
X122734609Y-58037185D01*
X122822602Y-58168874D01*
X122843480Y-58235551D01*
X122843500Y-58237765D01*
X122843500Y-67460234D01*
X122823815Y-67527273D01*
X122822602Y-67529125D01*
X122734609Y-67660814D01*
X122734602Y-67660827D01*
X122674264Y-67806498D01*
X122674261Y-67806510D01*
X122643500Y-67961153D01*
X122643500Y-68118846D01*
X122674261Y-68273489D01*
X122674264Y-68273501D01*
X122734602Y-68419172D01*
X122734609Y-68419185D01*
X122822210Y-68550288D01*
X122822213Y-68550292D01*
X122933707Y-68661786D01*
X122933711Y-68661789D01*
X123064814Y-68749390D01*
X123064827Y-68749397D01*
X123201481Y-68806000D01*
X123210503Y-68809737D01*
X123365153Y-68840499D01*
X123365156Y-68840500D01*
X123365158Y-68840500D01*
X123522844Y-68840500D01*
X123522845Y-68840499D01*
X123677497Y-68809737D01*
X123823179Y-68749394D01*
X123954289Y-68661789D01*
X124065789Y-68550289D01*
X124153394Y-68419179D01*
X124213737Y-68273497D01*
X124244500Y-68118842D01*
X124244500Y-67961158D01*
X124244500Y-67961155D01*
X124244499Y-67961153D01*
X124234681Y-67911795D01*
X124213737Y-67806503D01*
X124186849Y-67741588D01*
X124153397Y-67660827D01*
X124153390Y-67660814D01*
X124065398Y-67529125D01*
X124044520Y-67462447D01*
X124044500Y-67460234D01*
X124044500Y-65701467D01*
X124064185Y-65634428D01*
X124116989Y-65588673D01*
X124186147Y-65578729D01*
X124192667Y-65579845D01*
X124233027Y-65587873D01*
X124244344Y-65590125D01*
X124244345Y-65590125D01*
X124402031Y-65590125D01*
X124402032Y-65590124D01*
X124556684Y-65559362D01*
X124702366Y-65499019D01*
X124833476Y-65411414D01*
X124944976Y-65299914D01*
X125032581Y-65168804D01*
X125092924Y-65023122D01*
X125123687Y-64868467D01*
X125123687Y-64710783D01*
X125123687Y-64710780D01*
X125122078Y-64702692D01*
X125128305Y-64633100D01*
X125171168Y-64577923D01*
X125237057Y-64554678D01*
X125243695Y-64554500D01*
X125300844Y-64554500D01*
X125300845Y-64554499D01*
X125455497Y-64523737D01*
X125601179Y-64463394D01*
X125732289Y-64375789D01*
X125843789Y-64264289D01*
X125931394Y-64133179D01*
X125991737Y-63987497D01*
X126022500Y-63832842D01*
X126022500Y-63675158D01*
X126022500Y-63675155D01*
X126022499Y-63675153D01*
X126015835Y-63641650D01*
X125991737Y-63520503D01*
X125990761Y-63518147D01*
X125931397Y-63374827D01*
X125931390Y-63374814D01*
X125843398Y-63243125D01*
X125822520Y-63176447D01*
X125822500Y-63174234D01*
X125822500Y-61793765D01*
X125842185Y-61726726D01*
X125843398Y-61724874D01*
X125850490Y-61714261D01*
X125931394Y-61593179D01*
X125991737Y-61447497D01*
X126022500Y-61292842D01*
X126022500Y-61135158D01*
X126022500Y-61135155D01*
X126022499Y-61135153D01*
X126008325Y-61063896D01*
X125991737Y-60980503D01*
X125957771Y-60898500D01*
X125931397Y-60834827D01*
X125931390Y-60834814D01*
X125843789Y-60703711D01*
X125843786Y-60703707D01*
X125732292Y-60592213D01*
X125732288Y-60592210D01*
X125601185Y-60504609D01*
X125601172Y-60504602D01*
X125455501Y-60444264D01*
X125455489Y-60444261D01*
X125300845Y-60413500D01*
X125300842Y-60413500D01*
X125143158Y-60413500D01*
X125143155Y-60413500D01*
X124988510Y-60444261D01*
X124988498Y-60444264D01*
X124977952Y-60448633D01*
X124945327Y-60452140D01*
X124912853Y-60456810D01*
X124910765Y-60455856D01*
X124908482Y-60456102D01*
X124879139Y-60441413D01*
X124849297Y-60427785D01*
X124848055Y-60425853D01*
X124846003Y-60424826D01*
X124829264Y-60396612D01*
X124811523Y-60369007D01*
X124811087Y-60365976D01*
X124810352Y-60364737D01*
X124806500Y-60334072D01*
X124806500Y-60269765D01*
X124826185Y-60202726D01*
X124827398Y-60200874D01*
X124834490Y-60190261D01*
X124915394Y-60069179D01*
X124975737Y-59923497D01*
X125006500Y-59768842D01*
X125006500Y-59611158D01*
X125006500Y-59611155D01*
X125006499Y-59611153D01*
X124997283Y-59564821D01*
X124975737Y-59456503D01*
X124952328Y-59399988D01*
X124915397Y-59310827D01*
X124915390Y-59310814D01*
X124827789Y-59179711D01*
X124827786Y-59179707D01*
X124716292Y-59068213D01*
X124716288Y-59068210D01*
X124585185Y-58980609D01*
X124585172Y-58980602D01*
X124439501Y-58920264D01*
X124439489Y-58920261D01*
X124284845Y-58889500D01*
X124284842Y-58889500D01*
X124168500Y-58889500D01*
X124101461Y-58869815D01*
X124055706Y-58817011D01*
X124044500Y-58765500D01*
X124044500Y-58237765D01*
X124064185Y-58170726D01*
X124065398Y-58168874D01*
X124068851Y-58163707D01*
X124153394Y-58037179D01*
X124154090Y-58035500D01*
X124183456Y-57964602D01*
X124213737Y-57891497D01*
X124244500Y-57736842D01*
X124244500Y-57579158D01*
X124244500Y-57579155D01*
X124244499Y-57579153D01*
X124244457Y-57578943D01*
X124213737Y-57424503D01*
X124213735Y-57424498D01*
X124153397Y-57278827D01*
X124153390Y-57278814D01*
X124065789Y-57147711D01*
X124065786Y-57147707D01*
X123954292Y-57036213D01*
X123954288Y-57036210D01*
X123823185Y-56948609D01*
X123823172Y-56948602D01*
X123677501Y-56888264D01*
X123677489Y-56888261D01*
X123522845Y-56857500D01*
X123522842Y-56857500D01*
X123365158Y-56857500D01*
X123365155Y-56857500D01*
X123210510Y-56888261D01*
X123210498Y-56888264D01*
X123064827Y-56948602D01*
X123064814Y-56948609D01*
X122933711Y-57036210D01*
X122933707Y-57036213D01*
X122822213Y-57147707D01*
X122822210Y-57147711D01*
X122734609Y-57278814D01*
X122734602Y-57278827D01*
X122674264Y-57424498D01*
X122674261Y-57424510D01*
X122643500Y-57579153D01*
X122012500Y-57579153D01*
X122012500Y-56967765D01*
X122032185Y-56900726D01*
X122033398Y-56898874D01*
X122040490Y-56888261D01*
X122121394Y-56767179D01*
X122181737Y-56621497D01*
X122212500Y-56466842D01*
X122212500Y-56309158D01*
X122212500Y-56309155D01*
X122212499Y-56309153D01*
X122205549Y-56274213D01*
X122181737Y-56154503D01*
X122170039Y-56126261D01*
X122121397Y-56008827D01*
X122121390Y-56008814D01*
X122033789Y-55877711D01*
X122033786Y-55877707D01*
X121922292Y-55766213D01*
X121922288Y-55766210D01*
X121791185Y-55678609D01*
X121791172Y-55678602D01*
X121645501Y-55618264D01*
X121645489Y-55618261D01*
X121490845Y-55587500D01*
X121490842Y-55587500D01*
X121333158Y-55587500D01*
X121333155Y-55587500D01*
X121178510Y-55618261D01*
X121178498Y-55618264D01*
X121032827Y-55678602D01*
X121032814Y-55678609D01*
X120901711Y-55766210D01*
X120901707Y-55766213D01*
X120790213Y-55877707D01*
X120790210Y-55877711D01*
X120702609Y-56008814D01*
X120702602Y-56008827D01*
X120642264Y-56154498D01*
X120642261Y-56154510D01*
X120611500Y-56309153D01*
X115675500Y-56309153D01*
X115675500Y-48786744D01*
X115675985Y-48785091D01*
X115675544Y-48783424D01*
X115685795Y-48751681D01*
X115695185Y-48719705D01*
X115696656Y-48718051D01*
X115697017Y-48716936D01*
X115704700Y-48709015D01*
X115720835Y-48690891D01*
X115723663Y-48688569D01*
X115822219Y-48616966D01*
X115966966Y-48472219D01*
X115966968Y-48472215D01*
X115966971Y-48472213D01*
X116032042Y-48382649D01*
X116087287Y-48306610D01*
X116180220Y-48124219D01*
X116243477Y-47929534D01*
X116275500Y-47727352D01*
X116275500Y-47522682D01*
X118675000Y-47522682D01*
X118675000Y-47727317D01*
X118707009Y-47929417D01*
X118770244Y-48124031D01*
X118863141Y-48306350D01*
X118863147Y-48306359D01*
X118895523Y-48350921D01*
X118895524Y-48350922D01*
X119575000Y-47671446D01*
X119575000Y-47677661D01*
X119602259Y-47779394D01*
X119654920Y-47870606D01*
X119729394Y-47945080D01*
X119820606Y-47997741D01*
X119922339Y-48025000D01*
X119928553Y-48025000D01*
X119249076Y-48704474D01*
X119293650Y-48736859D01*
X119475968Y-48829755D01*
X119670582Y-48892990D01*
X119872683Y-48925000D01*
X120077317Y-48925000D01*
X120279417Y-48892990D01*
X120474031Y-48829755D01*
X120656349Y-48736859D01*
X120700921Y-48704474D01*
X120021447Y-48025000D01*
X120027661Y-48025000D01*
X120129394Y-47997741D01*
X120220606Y-47945080D01*
X120295080Y-47870606D01*
X120347741Y-47779394D01*
X120375000Y-47677661D01*
X120375000Y-47671447D01*
X121054474Y-48350921D01*
X121086859Y-48306349D01*
X121179755Y-48124031D01*
X121242990Y-47929417D01*
X121275000Y-47727317D01*
X121275000Y-47522682D01*
X121242990Y-47320582D01*
X121179755Y-47125968D01*
X121086859Y-46943650D01*
X121054474Y-46899077D01*
X121054474Y-46899076D01*
X120375000Y-47578551D01*
X120375000Y-47572339D01*
X120347741Y-47470606D01*
X120295080Y-47379394D01*
X120220606Y-47304920D01*
X120129394Y-47252259D01*
X120027661Y-47225000D01*
X120021446Y-47225000D01*
X120700922Y-46545524D01*
X120700921Y-46545523D01*
X120656359Y-46513147D01*
X120656350Y-46513141D01*
X120474031Y-46420244D01*
X120279417Y-46357009D01*
X120077317Y-46325000D01*
X119872683Y-46325000D01*
X119670582Y-46357009D01*
X119475968Y-46420244D01*
X119293644Y-46513143D01*
X119249077Y-46545523D01*
X119249077Y-46545524D01*
X119928554Y-47225000D01*
X119922339Y-47225000D01*
X119820606Y-47252259D01*
X119729394Y-47304920D01*
X119654920Y-47379394D01*
X119602259Y-47470606D01*
X119575000Y-47572339D01*
X119575000Y-47578553D01*
X118895524Y-46899077D01*
X118895523Y-46899077D01*
X118863143Y-46943644D01*
X118770244Y-47125968D01*
X118707009Y-47320582D01*
X118675000Y-47522682D01*
X116275500Y-47522682D01*
X116275500Y-47522648D01*
X116262760Y-47442213D01*
X116243477Y-47320465D01*
X116208896Y-47214038D01*
X116180220Y-47125781D01*
X116180218Y-47125778D01*
X116180218Y-47125776D01*
X116146503Y-47059607D01*
X116087287Y-46943390D01*
X116055092Y-46899077D01*
X115966971Y-46777786D01*
X115822213Y-46633028D01*
X115656613Y-46512715D01*
X115656612Y-46512714D01*
X115656610Y-46512713D01*
X115599653Y-46483691D01*
X115474223Y-46419781D01*
X115279534Y-46356522D01*
X115104995Y-46328878D01*
X115077352Y-46324500D01*
X114872648Y-46324500D01*
X114848329Y-46328351D01*
X114670465Y-46356522D01*
X114475776Y-46419781D01*
X114293386Y-46512715D01*
X114127786Y-46633028D01*
X113983028Y-46777786D01*
X113862715Y-46943386D01*
X113769781Y-47125776D01*
X113706522Y-47320465D01*
X113674500Y-47522648D01*
X112384995Y-47522648D01*
X112352990Y-47320582D01*
X112289755Y-47125968D01*
X112196859Y-46943650D01*
X112164474Y-46899077D01*
X112164474Y-46899076D01*
X111485000Y-47578551D01*
X111485000Y-47572339D01*
X111457741Y-47470606D01*
X111405080Y-47379394D01*
X111330606Y-47304920D01*
X111239394Y-47252259D01*
X111137661Y-47225000D01*
X111131446Y-47225000D01*
X111810922Y-46545524D01*
X111810921Y-46545523D01*
X111766359Y-46513147D01*
X111766350Y-46513141D01*
X111584031Y-46420244D01*
X111389417Y-46357009D01*
X111187317Y-46325000D01*
X110982683Y-46325000D01*
X110780582Y-46357009D01*
X110585968Y-46420244D01*
X110403644Y-46513143D01*
X110359077Y-46545523D01*
X110359077Y-46545524D01*
X111038554Y-47225000D01*
X111032339Y-47225000D01*
X110930606Y-47252259D01*
X110839394Y-47304920D01*
X110764920Y-47379394D01*
X110712259Y-47470606D01*
X110685000Y-47572339D01*
X110685000Y-47578553D01*
X110005524Y-46899077D01*
X110005523Y-46899077D01*
X109973143Y-46943644D01*
X109880244Y-47125968D01*
X109817009Y-47320582D01*
X109785000Y-47522682D01*
X107385500Y-47522682D01*
X107385500Y-47522648D01*
X107372760Y-47442213D01*
X107353477Y-47320465D01*
X107318896Y-47214038D01*
X107290220Y-47125781D01*
X107290218Y-47125778D01*
X107290218Y-47125776D01*
X107256503Y-47059607D01*
X107197287Y-46943390D01*
X107165092Y-46899077D01*
X107076971Y-46777786D01*
X106932213Y-46633028D01*
X106766613Y-46512715D01*
X106766612Y-46512714D01*
X106766610Y-46512713D01*
X106709653Y-46483691D01*
X106584223Y-46419781D01*
X106389534Y-46356522D01*
X106214995Y-46328878D01*
X106187352Y-46324500D01*
X105982648Y-46324500D01*
X105958329Y-46328351D01*
X105780465Y-46356522D01*
X105585776Y-46419781D01*
X105403386Y-46512715D01*
X105237786Y-46633028D01*
X105093028Y-46777786D01*
X104972715Y-46943386D01*
X104879781Y-47125776D01*
X104816522Y-47320465D01*
X104784500Y-47522648D01*
X104784500Y-47727352D01*
X104787179Y-47744264D01*
X104816522Y-47929534D01*
X104879781Y-48124223D01*
X104938782Y-48240017D01*
X104972585Y-48306359D01*
X104972715Y-48306613D01*
X105093028Y-48472213D01*
X105237784Y-48616969D01*
X105333385Y-48686426D01*
X105376051Y-48741755D01*
X105384500Y-48786744D01*
X105384500Y-71327757D01*
X105364815Y-71394796D01*
X105312011Y-71440551D01*
X105279899Y-71450230D01*
X105145464Y-71471523D01*
X104950776Y-71534781D01*
X104768386Y-71627715D01*
X104602786Y-71748028D01*
X104458028Y-71892786D01*
X104337715Y-72058386D01*
X104244781Y-72240776D01*
X104181522Y-72435465D01*
X104149500Y-72637648D01*
X102338500Y-72637648D01*
X102338500Y-55345059D01*
X102338501Y-55345046D01*
X102338501Y-55176945D01*
X102338501Y-55176943D01*
X102297577Y-55024215D01*
X102267142Y-54971500D01*
X102218520Y-54887284D01*
X102106716Y-54775480D01*
X102106715Y-54775479D01*
X102102385Y-54771149D01*
X102102374Y-54771139D01*
X101294590Y-53963355D01*
X101294588Y-53963352D01*
X101175717Y-53844481D01*
X101175716Y-53844480D01*
X101088904Y-53794360D01*
X101038785Y-53765423D01*
X100891155Y-53725865D01*
X100886404Y-53724168D01*
X100862059Y-53706467D01*
X100836361Y-53690803D01*
X100832169Y-53684734D01*
X100829893Y-53683080D01*
X100828433Y-53679327D01*
X100817631Y-53663690D01*
X100807286Y-53643388D01*
X100686971Y-53477786D01*
X100542213Y-53333028D01*
X100376614Y-53212715D01*
X100370006Y-53209348D01*
X100283917Y-53165483D01*
X100233123Y-53117511D01*
X100216328Y-53049690D01*
X100238865Y-52983555D01*
X100283917Y-52944516D01*
X100376610Y-52897287D01*
X100454127Y-52840968D01*
X100542213Y-52776971D01*
X100542215Y-52776968D01*
X100542219Y-52776966D01*
X100686966Y-52632219D01*
X100686968Y-52632215D01*
X100686971Y-52632213D01*
X100788269Y-52492786D01*
X100807287Y-52466610D01*
X100900220Y-52284219D01*
X100963477Y-52089534D01*
X100995500Y-51887352D01*
X100995500Y-51682648D01*
X100963477Y-51480466D01*
X100900220Y-51285781D01*
X100900218Y-51285778D01*
X100900218Y-51285776D01*
X100866503Y-51219607D01*
X100807287Y-51103390D01*
X100745167Y-51017888D01*
X100686971Y-50937786D01*
X100542213Y-50793028D01*
X100376614Y-50672715D01*
X100370006Y-50669348D01*
X100283917Y-50625483D01*
X100233123Y-50577511D01*
X100216328Y-50509690D01*
X100238865Y-50443555D01*
X100283917Y-50404516D01*
X100376610Y-50357287D01*
X100397770Y-50341913D01*
X100542213Y-50236971D01*
X100542215Y-50236968D01*
X100542219Y-50236966D01*
X100686966Y-50092219D01*
X100686968Y-50092215D01*
X100686971Y-50092213D01*
X100739732Y-50019590D01*
X100807287Y-49926610D01*
X100900220Y-49744219D01*
X100963477Y-49549534D01*
X100995500Y-49347352D01*
X100995500Y-49142648D01*
X100976754Y-49024292D01*
X100963477Y-48940465D01*
X100925388Y-48823239D01*
X100900220Y-48745781D01*
X100900218Y-48745778D01*
X100900218Y-48745776D01*
X100855828Y-48658657D01*
X100807287Y-48563390D01*
X100768012Y-48509332D01*
X100686971Y-48397786D01*
X100542219Y-48253034D01*
X100524293Y-48240010D01*
X100505929Y-48226668D01*
X100463264Y-48171339D01*
X100457285Y-48101726D01*
X100489890Y-48039931D01*
X100550728Y-48005573D01*
X100565562Y-48003060D01*
X100602483Y-47999091D01*
X100737328Y-47948797D01*
X100737327Y-47948797D01*
X100737331Y-47948796D01*
X100852546Y-47862546D01*
X100938796Y-47747331D01*
X100989091Y-47612483D01*
X100995500Y-47552873D01*
X100995499Y-45857128D01*
X100989091Y-45797517D01*
X100971368Y-45750000D01*
X100938797Y-45662671D01*
X100938793Y-45662664D01*
X100852547Y-45547455D01*
X100852544Y-45547452D01*
X100737335Y-45461206D01*
X100737328Y-45461202D01*
X100602482Y-45410908D01*
X100602483Y-45410908D01*
X100542883Y-45404501D01*
X100542881Y-45404500D01*
X100542873Y-45404500D01*
X100542864Y-45404500D01*
X98847129Y-45404500D01*
X98847123Y-45404501D01*
X98787516Y-45410908D01*
X98652671Y-45461202D01*
X98652664Y-45461206D01*
X98537455Y-45547452D01*
X98537452Y-45547455D01*
X98451206Y-45662664D01*
X98451202Y-45662671D01*
X98400908Y-45797517D01*
X98394539Y-45856760D01*
X98394501Y-45857123D01*
X98394500Y-45857135D01*
X98394500Y-47552870D01*
X98394501Y-47552876D01*
X98400908Y-47612483D01*
X98451202Y-47747328D01*
X98451206Y-47747335D01*
X98537452Y-47862544D01*
X98537455Y-47862547D01*
X98652664Y-47948793D01*
X98652671Y-47948797D01*
X98697618Y-47965561D01*
X98787517Y-47999091D01*
X98824441Y-48003060D01*
X98888989Y-48029796D01*
X98928838Y-48087188D01*
X98931333Y-48157013D01*
X98895681Y-48217102D01*
X98884071Y-48226666D01*
X98847784Y-48253030D01*
X98703028Y-48397786D01*
X98582715Y-48563386D01*
X98489781Y-48745776D01*
X98426522Y-48940465D01*
X98394500Y-49142648D01*
X98394500Y-49347351D01*
X98426522Y-49549534D01*
X98489781Y-49744223D01*
X98582715Y-49926613D01*
X98703028Y-50092213D01*
X98847786Y-50236971D01*
X99002749Y-50349556D01*
X99013390Y-50357287D01*
X99104840Y-50403883D01*
X99106080Y-50404515D01*
X99156876Y-50452490D01*
X99173671Y-50520311D01*
X99151134Y-50586446D01*
X99106080Y-50625485D01*
X99013386Y-50672715D01*
X98847786Y-50793028D01*
X98703028Y-50937786D01*
X98582715Y-51103386D01*
X98489781Y-51285776D01*
X98426522Y-51480465D01*
X98394500Y-51682648D01*
X98394500Y-51887351D01*
X98426522Y-52089534D01*
X98489781Y-52284223D01*
X98582715Y-52466613D01*
X98703028Y-52632213D01*
X98847786Y-52776971D01*
X98995930Y-52884602D01*
X99013390Y-52897287D01*
X99097219Y-52940000D01*
X99106080Y-52944515D01*
X99156876Y-52992490D01*
X99173671Y-53060311D01*
X99151134Y-53126446D01*
X99106080Y-53165485D01*
X99013386Y-53212715D01*
X98847786Y-53333028D01*
X98703028Y-53477786D01*
X98582715Y-53643386D01*
X98489781Y-53825776D01*
X98426522Y-54020465D01*
X98394500Y-54222648D01*
X98394500Y-54427351D01*
X98426522Y-54629534D01*
X98489781Y-54824223D01*
X98536855Y-54916609D01*
X98581490Y-55004210D01*
X98582715Y-55006613D01*
X98703028Y-55172213D01*
X98847786Y-55316971D01*
X98951759Y-55392510D01*
X99013390Y-55437287D01*
X99104840Y-55483883D01*
X99106080Y-55484515D01*
X99156876Y-55532490D01*
X99173671Y-55600311D01*
X99151134Y-55666446D01*
X99106080Y-55705485D01*
X99013386Y-55752715D01*
X98847786Y-55873028D01*
X98703028Y-56017786D01*
X98582715Y-56183385D01*
X98575883Y-56196795D01*
X98527909Y-56247591D01*
X98465398Y-56264500D01*
X94693939Y-56264500D01*
X94681566Y-56267815D01*
X94681567Y-56267816D01*
X94541214Y-56305423D01*
X94541209Y-56305426D01*
X94404290Y-56384475D01*
X94404282Y-56384481D01*
X93499481Y-57289282D01*
X93499479Y-57289285D01*
X93488608Y-57308115D01*
X93463027Y-57352423D01*
X93420423Y-57426215D01*
X93379499Y-57578943D01*
X93379499Y-57578945D01*
X93379499Y-57747046D01*
X93379500Y-57747059D01*
X93379500Y-58810072D01*
X93359815Y-58877111D01*
X93307011Y-58922866D01*
X93237853Y-58932810D01*
X93208048Y-58924633D01*
X93197501Y-58920264D01*
X93197489Y-58920261D01*
X93042845Y-58889500D01*
X93042842Y-58889500D01*
X92885158Y-58889500D01*
X92885155Y-58889500D01*
X92730510Y-58920261D01*
X92730498Y-58920264D01*
X92584827Y-58980602D01*
X92584814Y-58980609D01*
X92453711Y-59068210D01*
X92453707Y-59068213D01*
X92342213Y-59179707D01*
X92342210Y-59179711D01*
X92254609Y-59310814D01*
X92254602Y-59310827D01*
X92194264Y-59456498D01*
X92194261Y-59456510D01*
X92163500Y-59611153D01*
X92163500Y-59611158D01*
X92163500Y-59768842D01*
X92164021Y-59771459D01*
X92166806Y-59785463D01*
X92160577Y-59855054D01*
X92117714Y-59910231D01*
X92051824Y-59933475D01*
X91983827Y-59917407D01*
X91972303Y-59909972D01*
X91886609Y-59847712D01*
X91704223Y-59754781D01*
X91509534Y-59691522D01*
X91334995Y-59663878D01*
X91307352Y-59659500D01*
X91307351Y-59659500D01*
X90546519Y-59659500D01*
X90479480Y-59639815D01*
X90458838Y-59623181D01*
X90231819Y-59396162D01*
X90198334Y-59334839D01*
X90195500Y-59308481D01*
X90195500Y-54501744D01*
X90215185Y-54434705D01*
X90246615Y-54401426D01*
X90342215Y-54331969D01*
X90342215Y-54331968D01*
X90342219Y-54331966D01*
X90486966Y-54187219D01*
X90486968Y-54187215D01*
X90486971Y-54187213D01*
X90539732Y-54114590D01*
X90607287Y-54021610D01*
X90700220Y-53839219D01*
X90763477Y-53644534D01*
X90795500Y-53442352D01*
X90795500Y-53237648D01*
X90791885Y-53214827D01*
X90763477Y-53035465D01*
X90718579Y-52897284D01*
X90700220Y-52840781D01*
X90700218Y-52840778D01*
X90700218Y-52840776D01*
X90630404Y-52703760D01*
X90607287Y-52658390D01*
X90588273Y-52632219D01*
X90486971Y-52492786D01*
X90342213Y-52348028D01*
X90176613Y-52227715D01*
X90176612Y-52227714D01*
X90176610Y-52227713D01*
X90119653Y-52198691D01*
X89994223Y-52134781D01*
X89799534Y-52071522D01*
X89624995Y-52043878D01*
X89597352Y-52039500D01*
X89392648Y-52039500D01*
X89275929Y-52057986D01*
X89206636Y-52049031D01*
X89168851Y-52023194D01*
X88163546Y-51017888D01*
X88163545Y-51017887D01*
X88048807Y-50941222D01*
X87921332Y-50888421D01*
X87921322Y-50888418D01*
X87785996Y-50861500D01*
X87785994Y-50861500D01*
X87785993Y-50861500D01*
X80605518Y-50861500D01*
X80538479Y-50841815D01*
X80517837Y-50825181D01*
X79476819Y-49784162D01*
X79443334Y-49722839D01*
X79440500Y-49696481D01*
X79440500Y-49064500D01*
X79460185Y-48997461D01*
X79512989Y-48951706D01*
X79564500Y-48940500D01*
X79640005Y-48940500D01*
X79640010Y-48940500D01*
X79742798Y-48929999D01*
X79909335Y-48874814D01*
X80058656Y-48782712D01*
X80182712Y-48658656D01*
X80274814Y-48509335D01*
X80329999Y-48342798D01*
X80340500Y-48240010D01*
X80340500Y-47214038D01*
X87299500Y-47214038D01*
X87299500Y-47465962D01*
X87313266Y-47552876D01*
X87338910Y-47714785D01*
X87416760Y-47954383D01*
X87531132Y-48178848D01*
X87679201Y-48382649D01*
X87679205Y-48382654D01*
X87857345Y-48560794D01*
X87857350Y-48560798D01*
X88030263Y-48686426D01*
X88061155Y-48708870D01*
X88204184Y-48781747D01*
X88285616Y-48823239D01*
X88285618Y-48823239D01*
X88285621Y-48823241D01*
X88525215Y-48901090D01*
X88774038Y-48940500D01*
X88774039Y-48940500D01*
X89025961Y-48940500D01*
X89025962Y-48940500D01*
X89274785Y-48901090D01*
X89514379Y-48823241D01*
X89738845Y-48708870D01*
X89942656Y-48560793D01*
X90120793Y-48382656D01*
X90268870Y-48178845D01*
X90383241Y-47954379D01*
X90461090Y-47714785D01*
X90500500Y-47465962D01*
X90500500Y-47214038D01*
X90461090Y-46965215D01*
X90383241Y-46725621D01*
X90383239Y-46725618D01*
X90383239Y-46725616D01*
X90336066Y-46633034D01*
X90268870Y-46501155D01*
X90210085Y-46420244D01*
X90120798Y-46297350D01*
X90120794Y-46297345D01*
X89942654Y-46119205D01*
X89942649Y-46119201D01*
X89738848Y-45971132D01*
X89738847Y-45971131D01*
X89738845Y-45971130D01*
X89648830Y-45925265D01*
X89514383Y-45856760D01*
X89274785Y-45778910D01*
X89025962Y-45739500D01*
X88774038Y-45739500D01*
X88707738Y-45750001D01*
X88525214Y-45778910D01*
X88285616Y-45856760D01*
X88061151Y-45971132D01*
X87857350Y-46119201D01*
X87857345Y-46119205D01*
X87679205Y-46297345D01*
X87679201Y-46297350D01*
X87531132Y-46501151D01*
X87416760Y-46725616D01*
X87338910Y-46965214D01*
X87338910Y-46965215D01*
X87299500Y-47214038D01*
X80340500Y-47214038D01*
X80340500Y-46439990D01*
X80329999Y-46337202D01*
X80274814Y-46170665D01*
X80182712Y-46021344D01*
X80058656Y-45897288D01*
X79909335Y-45805186D01*
X79742798Y-45750001D01*
X79742796Y-45750000D01*
X79640017Y-45739500D01*
X79640010Y-45739500D01*
X77839990Y-45739500D01*
X77839982Y-45739500D01*
X77737203Y-45750000D01*
X77737202Y-45750001D01*
X77654669Y-45777349D01*
X77570667Y-45805185D01*
X77570662Y-45805187D01*
X77421342Y-45897289D01*
X77297289Y-46021342D01*
X77205187Y-46170662D01*
X77205186Y-46170665D01*
X77150001Y-46337202D01*
X77150001Y-46337203D01*
X77150000Y-46337203D01*
X77139500Y-46439982D01*
X77139500Y-48240017D01*
X77150000Y-48342796D01*
X77168222Y-48397786D01*
X77205186Y-48509335D01*
X77297288Y-48658656D01*
X77421344Y-48782712D01*
X77570665Y-48874814D01*
X77737202Y-48929999D01*
X77839990Y-48940500D01*
X77915500Y-48940500D01*
X77982539Y-48960185D01*
X78028294Y-49012989D01*
X78039500Y-49064500D01*
X78039500Y-49969006D01*
X78039500Y-50106994D01*
X78039500Y-50106996D01*
X78039499Y-50106996D01*
X78066418Y-50242322D01*
X78066421Y-50242332D01*
X78119222Y-50369807D01*
X78195887Y-50484545D01*
X78195888Y-50484546D01*
X79719886Y-52008542D01*
X79769330Y-52057986D01*
X79817459Y-52106115D01*
X79932182Y-52182771D01*
X79932195Y-52182778D01*
X80001650Y-52211547D01*
X80030661Y-52223563D01*
X80059671Y-52235580D01*
X80059674Y-52235580D01*
X80059679Y-52235582D01*
X80086545Y-52240925D01*
X80086551Y-52240926D01*
X80086591Y-52240934D01*
X80176937Y-52258905D01*
X80195006Y-52262500D01*
X80195007Y-52262500D01*
X83719691Y-52262500D01*
X83786730Y-52282185D01*
X83807372Y-52298819D01*
X84448554Y-52940000D01*
X84442339Y-52940000D01*
X84340606Y-52967259D01*
X84249394Y-53019920D01*
X84174920Y-53094394D01*
X84122259Y-53185606D01*
X84095000Y-53287339D01*
X84095000Y-53293553D01*
X83415524Y-52614077D01*
X83415523Y-52614077D01*
X83383143Y-52658644D01*
X83290244Y-52840968D01*
X83227009Y-53035582D01*
X83195000Y-53237682D01*
X83195000Y-53442317D01*
X83227009Y-53644417D01*
X83290244Y-53839031D01*
X83383141Y-54021350D01*
X83383147Y-54021359D01*
X83415523Y-54065921D01*
X83415524Y-54065922D01*
X84095000Y-53386446D01*
X84095000Y-53392661D01*
X84122259Y-53494394D01*
X84174920Y-53585606D01*
X84249394Y-53660080D01*
X84340606Y-53712741D01*
X84442339Y-53740000D01*
X84448553Y-53740000D01*
X83769076Y-54419474D01*
X83813650Y-54451859D01*
X83995968Y-54544755D01*
X84190582Y-54607990D01*
X84392683Y-54640000D01*
X84597317Y-54640000D01*
X84799417Y-54607990D01*
X84994031Y-54544755D01*
X85176349Y-54451859D01*
X85220921Y-54419474D01*
X84541447Y-53740000D01*
X84547661Y-53740000D01*
X84649394Y-53712741D01*
X84740606Y-53660080D01*
X84815080Y-53585606D01*
X84867741Y-53494394D01*
X84895000Y-53392661D01*
X84895000Y-53386447D01*
X85574474Y-54065921D01*
X85606859Y-54021349D01*
X85699755Y-53839031D01*
X85762990Y-53644417D01*
X85795000Y-53442317D01*
X85795000Y-53237682D01*
X85762990Y-53035582D01*
X85699755Y-52840968D01*
X85606859Y-52658650D01*
X85574474Y-52614077D01*
X85574474Y-52614076D01*
X84895000Y-53293551D01*
X84895000Y-53287339D01*
X84867741Y-53185606D01*
X84815080Y-53094394D01*
X84740606Y-53019920D01*
X84649394Y-52967259D01*
X84547661Y-52940000D01*
X84541446Y-52940000D01*
X85182628Y-52298819D01*
X85243951Y-52265334D01*
X85270309Y-52262500D01*
X87375481Y-52262500D01*
X87442520Y-52282185D01*
X87463162Y-52298819D01*
X88178194Y-53013851D01*
X88211679Y-53075174D01*
X88212986Y-53120929D01*
X88194500Y-53237647D01*
X88194500Y-53442351D01*
X88226522Y-53644534D01*
X88289781Y-53839223D01*
X88349428Y-53956284D01*
X88382585Y-54021359D01*
X88382715Y-54021613D01*
X88503028Y-54187213D01*
X88647784Y-54331969D01*
X88743385Y-54401426D01*
X88786051Y-54456755D01*
X88794500Y-54501744D01*
X88794500Y-59581006D01*
X88794500Y-59718994D01*
X88794500Y-59718996D01*
X88794499Y-59718996D01*
X88821418Y-59854322D01*
X88821421Y-59854332D01*
X88874222Y-59981807D01*
X88950887Y-60096545D01*
X88950888Y-60096546D01*
X89175008Y-60320665D01*
X89208493Y-60381988D01*
X89203509Y-60451679D01*
X89201514Y-60456228D01*
X89201643Y-60456282D01*
X89199779Y-60460781D01*
X89136523Y-60655461D01*
X89136523Y-60655464D01*
X89104500Y-60857648D01*
X89104500Y-61062351D01*
X89136522Y-61264534D01*
X89199781Y-61459223D01*
X89251135Y-61560009D01*
X89292130Y-61640466D01*
X89292715Y-61641613D01*
X89413028Y-61807213D01*
X89557786Y-61951971D01*
X89712749Y-62064556D01*
X89723390Y-62072287D01*
X89814840Y-62118883D01*
X89816080Y-62119515D01*
X89866876Y-62167490D01*
X89883671Y-62235311D01*
X89861134Y-62301446D01*
X89816080Y-62340485D01*
X89723386Y-62387715D01*
X89557786Y-62508028D01*
X89413028Y-62652786D01*
X89292715Y-62818386D01*
X89208484Y-62983697D01*
X89160509Y-63034493D01*
X89092688Y-63051288D01*
X89026553Y-63028750D01*
X89010318Y-63015083D01*
X88545605Y-62550370D01*
X88512120Y-62489047D01*
X88517104Y-62419355D01*
X88518712Y-62415267D01*
X88568737Y-62294497D01*
X88599500Y-62139842D01*
X88599500Y-61982158D01*
X88599500Y-61982155D01*
X88599499Y-61982153D01*
X88575641Y-61862211D01*
X88568737Y-61827503D01*
X88557565Y-61800531D01*
X88508397Y-61681827D01*
X88508390Y-61681814D01*
X88420789Y-61550711D01*
X88420786Y-61550707D01*
X88309292Y-61439213D01*
X88309288Y-61439210D01*
X88178185Y-61351609D01*
X88178172Y-61351602D01*
X88032501Y-61291264D01*
X88032489Y-61291261D01*
X87877845Y-61260500D01*
X87877842Y-61260500D01*
X87846500Y-61260500D01*
X87779461Y-61240815D01*
X87733706Y-61188011D01*
X87722500Y-61136500D01*
X87722500Y-55407508D01*
X87742185Y-55340469D01*
X87777606Y-55304408D01*
X87886289Y-55231789D01*
X87997789Y-55120289D01*
X88085394Y-54989179D01*
X88145737Y-54843497D01*
X88176500Y-54688842D01*
X88176500Y-54531158D01*
X88176500Y-54531155D01*
X88176499Y-54531153D01*
X88157314Y-54434705D01*
X88145737Y-54376503D01*
X88143555Y-54371236D01*
X88085397Y-54230827D01*
X88085390Y-54230814D01*
X87997789Y-54099711D01*
X87997786Y-54099707D01*
X87886292Y-53988213D01*
X87886288Y-53988210D01*
X87755185Y-53900609D01*
X87755172Y-53900602D01*
X87609501Y-53840264D01*
X87609489Y-53840261D01*
X87454845Y-53809500D01*
X87454842Y-53809500D01*
X87297158Y-53809500D01*
X87297155Y-53809500D01*
X87142510Y-53840261D01*
X87142498Y-53840264D01*
X86996827Y-53900602D01*
X86996814Y-53900609D01*
X86865711Y-53988210D01*
X86865707Y-53988213D01*
X86754213Y-54099707D01*
X86754210Y-54099711D01*
X86666609Y-54230814D01*
X86666602Y-54230827D01*
X86606264Y-54376498D01*
X86606261Y-54376510D01*
X86575500Y-54531153D01*
X86575500Y-54576338D01*
X86570665Y-54610628D01*
X86566470Y-54625204D01*
X86562423Y-54632215D01*
X86534950Y-54734743D01*
X86534649Y-54735790D01*
X86516508Y-54764356D01*
X86498894Y-54793254D01*
X86497828Y-54793771D01*
X86497193Y-54794772D01*
X86466476Y-54809001D01*
X86436047Y-54823783D01*
X86434242Y-54823933D01*
X86433795Y-54824141D01*
X86433028Y-54824035D01*
X86415484Y-54825500D01*
X86281155Y-54825500D01*
X86126510Y-54856261D01*
X86126498Y-54856264D01*
X85980827Y-54916602D01*
X85980814Y-54916609D01*
X85849711Y-55004210D01*
X85849707Y-55004213D01*
X85738213Y-55115707D01*
X85738210Y-55115711D01*
X85650609Y-55246814D01*
X85650602Y-55246827D01*
X85590264Y-55392498D01*
X85590261Y-55392510D01*
X85559500Y-55547153D01*
X85559500Y-55704846D01*
X85590261Y-55859489D01*
X85590264Y-55859501D01*
X85650602Y-56005172D01*
X85650609Y-56005185D01*
X85729595Y-56123395D01*
X85731510Y-56126261D01*
X85738602Y-56136874D01*
X85759480Y-56203551D01*
X85759500Y-56205765D01*
X85759500Y-58035500D01*
X85739815Y-58102539D01*
X85687011Y-58148294D01*
X85635500Y-58159500D01*
X85519155Y-58159500D01*
X85364510Y-58190261D01*
X85364498Y-58190264D01*
X85218827Y-58250602D01*
X85218814Y-58250609D01*
X85087711Y-58338210D01*
X85087707Y-58338213D01*
X84976213Y-58449707D01*
X84976210Y-58449711D01*
X84888609Y-58580814D01*
X84888602Y-58580827D01*
X84828264Y-58726498D01*
X84828261Y-58726510D01*
X84797500Y-58881153D01*
X84797500Y-59038846D01*
X84828261Y-59193489D01*
X84828264Y-59193501D01*
X84888602Y-59339172D01*
X84888609Y-59339185D01*
X84976602Y-59470874D01*
X84997480Y-59537551D01*
X84997500Y-59539765D01*
X84997500Y-59941502D01*
X84977815Y-60008541D01*
X84925011Y-60054296D01*
X84855853Y-60064240D01*
X84792297Y-60035215D01*
X84767961Y-60006599D01*
X84752672Y-59981811D01*
X84727712Y-59941344D01*
X84603656Y-59817288D01*
X84454334Y-59725186D01*
X84287797Y-59670001D01*
X84287795Y-59670000D01*
X84185010Y-59659500D01*
X82184998Y-59659500D01*
X82184981Y-59659501D01*
X82082203Y-59670000D01*
X82082200Y-59670001D01*
X81915668Y-59725185D01*
X81915663Y-59725187D01*
X81766342Y-59817289D01*
X81642289Y-59941342D01*
X81550187Y-60090663D01*
X81550185Y-60090668D01*
X81522349Y-60174670D01*
X81495001Y-60257203D01*
X81495001Y-60257204D01*
X81495000Y-60257204D01*
X81484500Y-60359983D01*
X81484500Y-61560001D01*
X81484501Y-61560018D01*
X81495000Y-61662796D01*
X81495001Y-61662799D01*
X81550185Y-61829331D01*
X81550187Y-61829336D01*
X81570466Y-61862213D01*
X81642288Y-61978656D01*
X81766344Y-62102712D01*
X81915666Y-62194814D01*
X81997570Y-62221954D01*
X82055015Y-62261727D01*
X82081838Y-62326243D01*
X82069523Y-62395018D01*
X82031451Y-62439978D01*
X81937787Y-62508028D01*
X81937782Y-62508032D01*
X81793028Y-62652786D01*
X81672715Y-62818386D01*
X81579781Y-63000776D01*
X81516522Y-63195465D01*
X81484500Y-63397648D01*
X81484500Y-63602351D01*
X81516522Y-63804534D01*
X81579781Y-63999223D01*
X81629589Y-64096975D01*
X81672130Y-64180466D01*
X81672715Y-64181613D01*
X81793028Y-64347213D01*
X81937786Y-64491971D01*
X82092749Y-64604556D01*
X82103390Y-64612287D01*
X82194840Y-64658883D01*
X82196080Y-64659515D01*
X82246876Y-64707490D01*
X82263671Y-64775311D01*
X82241134Y-64841446D01*
X82196080Y-64880485D01*
X82103386Y-64927715D01*
X81937786Y-65048028D01*
X81793028Y-65192786D01*
X81672715Y-65358385D01*
X81665883Y-65371795D01*
X81617909Y-65422591D01*
X81555398Y-65439500D01*
X79334669Y-65439500D01*
X79334653Y-65439499D01*
X79327057Y-65439499D01*
X79168943Y-65439499D01*
X79020070Y-65479390D01*
X79016215Y-65480423D01*
X79016213Y-65480424D01*
X78989417Y-65495893D01*
X78989418Y-65495894D01*
X78879287Y-65559477D01*
X78879282Y-65559481D01*
X77520181Y-66918583D01*
X77458858Y-66952068D01*
X77389166Y-66947084D01*
X77333233Y-66905212D01*
X77308816Y-66839748D01*
X77308500Y-66830902D01*
X77308500Y-61539765D01*
X77328185Y-61472726D01*
X77329398Y-61470874D01*
X77343729Y-61449427D01*
X77417394Y-61339179D01*
X77477737Y-61193497D01*
X77508500Y-61038842D01*
X77508500Y-60881158D01*
X77508500Y-60881155D01*
X77508499Y-60881153D01*
X77506540Y-60871304D01*
X77477737Y-60726503D01*
X77455773Y-60673477D01*
X77417397Y-60580827D01*
X77417390Y-60580814D01*
X77329789Y-60449711D01*
X77329786Y-60449707D01*
X77218292Y-60338213D01*
X77218288Y-60338210D01*
X77087185Y-60250609D01*
X77087172Y-60250602D01*
X76941501Y-60190264D01*
X76941489Y-60190261D01*
X76786845Y-60159500D01*
X76786842Y-60159500D01*
X76629158Y-60159500D01*
X76629155Y-60159500D01*
X76474510Y-60190261D01*
X76474498Y-60190264D01*
X76328827Y-60250602D01*
X76328814Y-60250609D01*
X76197711Y-60338210D01*
X76197707Y-60338213D01*
X76086213Y-60449707D01*
X76086210Y-60449711D01*
X75998609Y-60580814D01*
X75998602Y-60580827D01*
X75938264Y-60726498D01*
X75938261Y-60726510D01*
X75907500Y-60881153D01*
X75907500Y-61038846D01*
X75938261Y-61193489D01*
X75938264Y-61193501D01*
X75998602Y-61339172D01*
X75998609Y-61339185D01*
X76086602Y-61470874D01*
X76107480Y-61537551D01*
X76107500Y-61539765D01*
X76107500Y-62575500D01*
X76087815Y-62642539D01*
X76035011Y-62688294D01*
X75983500Y-62699500D01*
X75899155Y-62699500D01*
X75744510Y-62730261D01*
X75744498Y-62730264D01*
X75598827Y-62790602D01*
X75593446Y-62793479D01*
X75592845Y-62792355D01*
X75532475Y-62811248D01*
X75465098Y-62792752D01*
X75418416Y-62740765D01*
X75412351Y-62725586D01*
X75391555Y-62661583D01*
X75325397Y-62531742D01*
X75295051Y-62472184D01*
X75295049Y-62472181D01*
X75295048Y-62472179D01*
X75170109Y-62300213D01*
X75019786Y-62149890D01*
X74847820Y-62024951D01*
X74847115Y-62024591D01*
X74839054Y-62020485D01*
X74788259Y-61972512D01*
X74771463Y-61904692D01*
X74793999Y-61838556D01*
X74839054Y-61799515D01*
X74847816Y-61795051D01*
X74921796Y-61741302D01*
X75019786Y-61670109D01*
X75019788Y-61670106D01*
X75019792Y-61670104D01*
X75170104Y-61519792D01*
X75170106Y-61519788D01*
X75170109Y-61519786D01*
X75295048Y-61347820D01*
X75295047Y-61347820D01*
X75295051Y-61347816D01*
X75391557Y-61158412D01*
X75457246Y-60956243D01*
X75490500Y-60746287D01*
X75490500Y-60533713D01*
X75457246Y-60323757D01*
X75391557Y-60121588D01*
X75295051Y-59932184D01*
X75295049Y-59932181D01*
X75295048Y-59932179D01*
X75170109Y-59760213D01*
X75021049Y-59611153D01*
X78124500Y-59611153D01*
X78124500Y-59768846D01*
X78155261Y-59923489D01*
X78155264Y-59923501D01*
X78215602Y-60069172D01*
X78215609Y-60069185D01*
X78294595Y-60187395D01*
X78296510Y-60190261D01*
X78303602Y-60200874D01*
X78324480Y-60267551D01*
X78324500Y-60269765D01*
X78324500Y-63751234D01*
X78304815Y-63818273D01*
X78303602Y-63820125D01*
X78215609Y-63951814D01*
X78215602Y-63951827D01*
X78155264Y-64097498D01*
X78155261Y-64097510D01*
X78124500Y-64252153D01*
X78124500Y-64409846D01*
X78155261Y-64564489D01*
X78155264Y-64564501D01*
X78215602Y-64710172D01*
X78215609Y-64710185D01*
X78303210Y-64841288D01*
X78303213Y-64841292D01*
X78414707Y-64952786D01*
X78414711Y-64952789D01*
X78545814Y-65040390D01*
X78545827Y-65040397D01*
X78621502Y-65071742D01*
X78691503Y-65100737D01*
X78833746Y-65129031D01*
X78846153Y-65131499D01*
X78846156Y-65131500D01*
X78846158Y-65131500D01*
X79003844Y-65131500D01*
X79003845Y-65131499D01*
X79158497Y-65100737D01*
X79304179Y-65040394D01*
X79435289Y-64952789D01*
X79546789Y-64841289D01*
X79634394Y-64710179D01*
X79694737Y-64564497D01*
X79725500Y-64409842D01*
X79725500Y-64252158D01*
X79725500Y-64252155D01*
X79725499Y-64252153D01*
X79711468Y-64181614D01*
X79694737Y-64097503D01*
X79667022Y-64030592D01*
X79634397Y-63951827D01*
X79634390Y-63951814D01*
X79546398Y-63820125D01*
X79525520Y-63753447D01*
X79525500Y-63751234D01*
X79525500Y-60269765D01*
X79545185Y-60202726D01*
X79546398Y-60200874D01*
X79553490Y-60190261D01*
X79634394Y-60069179D01*
X79694737Y-59923497D01*
X79725500Y-59768842D01*
X79725500Y-59611158D01*
X79725500Y-59611155D01*
X79725499Y-59611153D01*
X79716283Y-59564821D01*
X79694737Y-59456503D01*
X79671328Y-59399988D01*
X79634397Y-59310827D01*
X79634390Y-59310814D01*
X79546789Y-59179711D01*
X79546786Y-59179707D01*
X79435292Y-59068213D01*
X79435288Y-59068210D01*
X79304185Y-58980609D01*
X79304172Y-58980602D01*
X79158501Y-58920264D01*
X79158489Y-58920261D01*
X79003845Y-58889500D01*
X79003842Y-58889500D01*
X78846158Y-58889500D01*
X78846155Y-58889500D01*
X78691510Y-58920261D01*
X78691498Y-58920264D01*
X78545827Y-58980602D01*
X78545814Y-58980609D01*
X78414711Y-59068210D01*
X78414707Y-59068213D01*
X78303213Y-59179707D01*
X78303210Y-59179711D01*
X78215609Y-59310814D01*
X78215602Y-59310827D01*
X78155264Y-59456498D01*
X78155261Y-59456510D01*
X78124500Y-59611153D01*
X75021049Y-59611153D01*
X75019786Y-59609890D01*
X74847817Y-59484949D01*
X74838504Y-59480204D01*
X74787707Y-59432230D01*
X74770912Y-59364409D01*
X74793449Y-59298274D01*
X74838507Y-59259232D01*
X74847558Y-59254620D01*
X75019459Y-59129727D01*
X75019464Y-59129723D01*
X75169723Y-58979464D01*
X75169727Y-58979459D01*
X75294620Y-58807557D01*
X75391095Y-58618217D01*
X75456757Y-58416129D01*
X75456757Y-58416126D01*
X75467231Y-58350000D01*
X74573012Y-58350000D01*
X74605925Y-58292993D01*
X74640000Y-58165826D01*
X74640000Y-58034174D01*
X74605925Y-57907007D01*
X74573012Y-57850000D01*
X75467231Y-57850000D01*
X75456757Y-57783873D01*
X75456757Y-57783870D01*
X75391095Y-57581782D01*
X75294620Y-57392442D01*
X75169727Y-57220540D01*
X75169723Y-57220535D01*
X75019464Y-57070276D01*
X75019459Y-57070272D01*
X74847558Y-56945379D01*
X74837954Y-56940486D01*
X74787157Y-56892512D01*
X74770361Y-56824692D01*
X74792897Y-56758556D01*
X74837954Y-56719514D01*
X74847558Y-56714620D01*
X75019459Y-56589727D01*
X75019464Y-56589723D01*
X75169723Y-56439464D01*
X75169727Y-56439459D01*
X75294620Y-56267557D01*
X75391095Y-56078217D01*
X75456757Y-55876129D01*
X75456757Y-55876126D01*
X75467231Y-55810000D01*
X74573012Y-55810000D01*
X74605925Y-55752993D01*
X74640000Y-55625826D01*
X74640000Y-55494174D01*
X74605925Y-55367007D01*
X74573012Y-55310000D01*
X75467231Y-55310000D01*
X75456757Y-55243873D01*
X75456757Y-55243870D01*
X75391095Y-55041782D01*
X75294620Y-54852442D01*
X75169727Y-54680540D01*
X75169723Y-54680535D01*
X75019464Y-54530276D01*
X75019459Y-54530272D01*
X74941089Y-54473333D01*
X74824105Y-54392155D01*
X74807238Y-54371236D01*
X74787706Y-54352788D01*
X74785641Y-54344451D01*
X74780249Y-54337763D01*
X74777369Y-54311043D01*
X74770912Y-54284966D01*
X74773682Y-54276836D01*
X74772762Y-54268295D01*
X74784783Y-54244263D01*
X74793451Y-54218832D01*
X74800607Y-54212631D01*
X74804021Y-54205808D01*
X74818195Y-54197392D01*
X74838508Y-54179793D01*
X74847816Y-54175051D01*
X74945214Y-54104288D01*
X75019786Y-54050109D01*
X75019788Y-54050106D01*
X75019792Y-54050104D01*
X75170104Y-53899792D01*
X75170106Y-53899788D01*
X75170109Y-53899786D01*
X75295048Y-53727820D01*
X75295047Y-53727820D01*
X75295051Y-53727816D01*
X75391557Y-53538412D01*
X75457246Y-53336243D01*
X75476477Y-53214827D01*
X75476700Y-53213418D01*
X75476700Y-53213417D01*
X75490500Y-53126287D01*
X75490500Y-52913713D01*
X75478978Y-52840968D01*
X75457246Y-52703757D01*
X75391557Y-52501588D01*
X75295051Y-52312184D01*
X75295049Y-52312181D01*
X75295048Y-52312179D01*
X75170109Y-52140213D01*
X75019786Y-51989890D01*
X74847820Y-51864951D01*
X74658414Y-51768444D01*
X74658413Y-51768443D01*
X74658412Y-51768443D01*
X74456243Y-51702754D01*
X74456241Y-51702753D01*
X74456240Y-51702753D01*
X74294957Y-51677208D01*
X74246287Y-51669500D01*
X74033713Y-51669500D01*
X73985042Y-51677208D01*
X73823760Y-51702753D01*
X73621585Y-51768444D01*
X73432179Y-51864951D01*
X73260213Y-51989890D01*
X73109890Y-52140213D01*
X72984949Y-52312182D01*
X72980484Y-52320946D01*
X72932509Y-52371742D01*
X72864688Y-52388536D01*
X72798553Y-52365998D01*
X72759516Y-52320946D01*
X72755050Y-52312182D01*
X72630109Y-52140213D01*
X72479786Y-51989890D01*
X72307820Y-51864951D01*
X72118414Y-51768444D01*
X72118413Y-51768443D01*
X72118412Y-51768443D01*
X71916243Y-51702754D01*
X71916241Y-51702753D01*
X71916240Y-51702753D01*
X71754957Y-51677208D01*
X71706287Y-51669500D01*
X71493713Y-51669500D01*
X71445042Y-51677208D01*
X71283760Y-51702753D01*
X71081585Y-51768444D01*
X70892179Y-51864951D01*
X70720213Y-51989890D01*
X70569890Y-52140213D01*
X70444951Y-52312179D01*
X70348444Y-52501585D01*
X70282753Y-52703760D01*
X70249500Y-52913713D01*
X67500500Y-52913713D01*
X67500500Y-44124500D01*
X67520185Y-44057461D01*
X67572989Y-44011706D01*
X67624500Y-44000500D01*
X130976000Y-44000500D01*
X131043039Y-44020185D01*
G37*
G04 #@! TD.AperFunction*
M02*
