G04 #@! TF.GenerationSoftware,KiCad,Pcbnew,8.0.9*
G04 #@! TF.CreationDate,2025-05-10T12:34:34+01:00*
G04 #@! TF.ProjectId,megaflash,6d656761-666c-4617-9368-2e6b69636164,rev?*
G04 #@! TF.SameCoordinates,Original*
G04 #@! TF.FileFunction,Legend,Top*
G04 #@! TF.FilePolarity,Positive*
%FSLAX46Y46*%
G04 Gerber Fmt 4.6, Leading zero omitted, Abs format (unit mm)*
G04 Created by KiCad (PCBNEW 8.0.9) date 2025-05-10 12:34:34*
%MOMM*%
%LPD*%
G01*
G04 APERTURE LIST*
G04 Aperture macros list*
%AMRoundRect*
0 Rectangle with rounded corners*
0 $1 Rounding radius*
0 $2 $3 $4 $5 $6 $7 $8 $9 X,Y pos of 4 corners*
0 Add a 4 corners polygon primitive as box body*
4,1,4,$2,$3,$4,$5,$6,$7,$8,$9,$2,$3,0*
0 Add four circle primitives for the rounded corners*
1,1,$1+$1,$2,$3*
1,1,$1+$1,$4,$5*
1,1,$1+$1,$6,$7*
1,1,$1+$1,$8,$9*
0 Add four rect primitives between the rounded corners*
20,1,$1+$1,$2,$3,$4,$5,0*
20,1,$1+$1,$4,$5,$6,$7,0*
20,1,$1+$1,$6,$7,$8,$9,0*
20,1,$1+$1,$8,$9,$2,$3,0*%
G04 Aperture macros list end*
%ADD10C,0.150000*%
%ADD11C,0.300000*%
%ADD12C,0.120000*%
%ADD13C,0.100000*%
%ADD14O,1.800000X1.800000*%
%ADD15O,1.500000X1.500000*%
%ADD16R,3.500000X1.700000*%
%ADD17R,1.200000X0.400000*%
%ADD18RoundRect,0.250000X0.337500X0.475000X-0.337500X0.475000X-0.337500X-0.475000X0.337500X-0.475000X0*%
%ADD19RoundRect,0.125000X0.125000X-0.200000X0.125000X0.200000X-0.125000X0.200000X-0.125000X-0.200000X0*%
%ADD20R,4.300000X3.400000*%
%ADD21RoundRect,0.250000X0.925000X-0.412500X0.925000X0.412500X-0.925000X0.412500X-0.925000X-0.412500X0*%
%ADD22R,1.700000X1.700000*%
%ADD23O,1.700000X1.700000*%
%ADD24RoundRect,0.375000X0.375000X-0.625000X0.375000X0.625000X-0.375000X0.625000X-0.375000X-0.625000X0*%
%ADD25RoundRect,0.500000X1.400000X-0.500000X1.400000X0.500000X-1.400000X0.500000X-1.400000X-0.500000X0*%
%ADD26R,0.700000X1.925000*%
%ADD27R,1.925000X0.700000*%
%ADD28RoundRect,0.250000X-0.337500X-0.475000X0.337500X-0.475000X0.337500X0.475000X-0.337500X0.475000X0*%
%ADD29RoundRect,0.250000X-0.475000X0.337500X-0.475000X-0.337500X0.475000X-0.337500X0.475000X0.337500X0*%
%ADD30RoundRect,0.250000X-0.650000X1.000000X-0.650000X-1.000000X0.650000X-1.000000X0.650000X1.000000X0*%
%ADD31R,0.800000X0.500000*%
%ADD32R,0.800000X0.400000*%
G04 APERTURE END LIST*
D10*
X70707107Y-96250000D02*
G75*
G02*
X69292893Y-96250000I-707107J0D01*
G01*
X69292893Y-96250000D02*
G75*
G02*
X70707107Y-96250000I707107J0D01*
G01*
X91246009Y-109879887D02*
X91246009Y-110213220D01*
X91769819Y-110213220D02*
X90769819Y-110213220D01*
X90769819Y-110213220D02*
X90769819Y-109737030D01*
X91769819Y-109213220D02*
X91722200Y-109308458D01*
X91722200Y-109308458D02*
X91626961Y-109356077D01*
X91626961Y-109356077D02*
X90769819Y-109356077D01*
X91769819Y-108403696D02*
X91246009Y-108403696D01*
X91246009Y-108403696D02*
X91150771Y-108451315D01*
X91150771Y-108451315D02*
X91103152Y-108546553D01*
X91103152Y-108546553D02*
X91103152Y-108737029D01*
X91103152Y-108737029D02*
X91150771Y-108832267D01*
X91722200Y-108403696D02*
X91769819Y-108498934D01*
X91769819Y-108498934D02*
X91769819Y-108737029D01*
X91769819Y-108737029D02*
X91722200Y-108832267D01*
X91722200Y-108832267D02*
X91626961Y-108879886D01*
X91626961Y-108879886D02*
X91531723Y-108879886D01*
X91531723Y-108879886D02*
X91436485Y-108832267D01*
X91436485Y-108832267D02*
X91388866Y-108737029D01*
X91388866Y-108737029D02*
X91388866Y-108498934D01*
X91388866Y-108498934D02*
X91341247Y-108403696D01*
X91722200Y-107975124D02*
X91769819Y-107879886D01*
X91769819Y-107879886D02*
X91769819Y-107689410D01*
X91769819Y-107689410D02*
X91722200Y-107594172D01*
X91722200Y-107594172D02*
X91626961Y-107546553D01*
X91626961Y-107546553D02*
X91579342Y-107546553D01*
X91579342Y-107546553D02*
X91484104Y-107594172D01*
X91484104Y-107594172D02*
X91436485Y-107689410D01*
X91436485Y-107689410D02*
X91436485Y-107832267D01*
X91436485Y-107832267D02*
X91388866Y-107927505D01*
X91388866Y-107927505D02*
X91293628Y-107975124D01*
X91293628Y-107975124D02*
X91246009Y-107975124D01*
X91246009Y-107975124D02*
X91150771Y-107927505D01*
X91150771Y-107927505D02*
X91103152Y-107832267D01*
X91103152Y-107832267D02*
X91103152Y-107689410D01*
X91103152Y-107689410D02*
X91150771Y-107594172D01*
X91769819Y-107117981D02*
X90769819Y-107117981D01*
X91769819Y-106689410D02*
X91246009Y-106689410D01*
X91246009Y-106689410D02*
X91150771Y-106737029D01*
X91150771Y-106737029D02*
X91103152Y-106832267D01*
X91103152Y-106832267D02*
X91103152Y-106975124D01*
X91103152Y-106975124D02*
X91150771Y-107070362D01*
X91150771Y-107070362D02*
X91198390Y-107117981D01*
X91769819Y-104927505D02*
X91769819Y-105498933D01*
X91769819Y-105213219D02*
X90769819Y-105213219D01*
X90769819Y-105213219D02*
X90912676Y-105308457D01*
X90912676Y-105308457D02*
X91007914Y-105403695D01*
X91007914Y-105403695D02*
X91055533Y-105498933D01*
X103446009Y-109879887D02*
X103446009Y-110213220D01*
X103969819Y-110213220D02*
X102969819Y-110213220D01*
X102969819Y-110213220D02*
X102969819Y-109737030D01*
X103969819Y-109213220D02*
X103922200Y-109308458D01*
X103922200Y-109308458D02*
X103826961Y-109356077D01*
X103826961Y-109356077D02*
X102969819Y-109356077D01*
X103969819Y-108403696D02*
X103446009Y-108403696D01*
X103446009Y-108403696D02*
X103350771Y-108451315D01*
X103350771Y-108451315D02*
X103303152Y-108546553D01*
X103303152Y-108546553D02*
X103303152Y-108737029D01*
X103303152Y-108737029D02*
X103350771Y-108832267D01*
X103922200Y-108403696D02*
X103969819Y-108498934D01*
X103969819Y-108498934D02*
X103969819Y-108737029D01*
X103969819Y-108737029D02*
X103922200Y-108832267D01*
X103922200Y-108832267D02*
X103826961Y-108879886D01*
X103826961Y-108879886D02*
X103731723Y-108879886D01*
X103731723Y-108879886D02*
X103636485Y-108832267D01*
X103636485Y-108832267D02*
X103588866Y-108737029D01*
X103588866Y-108737029D02*
X103588866Y-108498934D01*
X103588866Y-108498934D02*
X103541247Y-108403696D01*
X103922200Y-107975124D02*
X103969819Y-107879886D01*
X103969819Y-107879886D02*
X103969819Y-107689410D01*
X103969819Y-107689410D02*
X103922200Y-107594172D01*
X103922200Y-107594172D02*
X103826961Y-107546553D01*
X103826961Y-107546553D02*
X103779342Y-107546553D01*
X103779342Y-107546553D02*
X103684104Y-107594172D01*
X103684104Y-107594172D02*
X103636485Y-107689410D01*
X103636485Y-107689410D02*
X103636485Y-107832267D01*
X103636485Y-107832267D02*
X103588866Y-107927505D01*
X103588866Y-107927505D02*
X103493628Y-107975124D01*
X103493628Y-107975124D02*
X103446009Y-107975124D01*
X103446009Y-107975124D02*
X103350771Y-107927505D01*
X103350771Y-107927505D02*
X103303152Y-107832267D01*
X103303152Y-107832267D02*
X103303152Y-107689410D01*
X103303152Y-107689410D02*
X103350771Y-107594172D01*
X103969819Y-107117981D02*
X102969819Y-107117981D01*
X103969819Y-106689410D02*
X103446009Y-106689410D01*
X103446009Y-106689410D02*
X103350771Y-106737029D01*
X103350771Y-106737029D02*
X103303152Y-106832267D01*
X103303152Y-106832267D02*
X103303152Y-106975124D01*
X103303152Y-106975124D02*
X103350771Y-107070362D01*
X103350771Y-107070362D02*
X103398390Y-107117981D01*
X103065057Y-105498933D02*
X103017438Y-105451314D01*
X103017438Y-105451314D02*
X102969819Y-105356076D01*
X102969819Y-105356076D02*
X102969819Y-105117981D01*
X102969819Y-105117981D02*
X103017438Y-105022743D01*
X103017438Y-105022743D02*
X103065057Y-104975124D01*
X103065057Y-104975124D02*
X103160295Y-104927505D01*
X103160295Y-104927505D02*
X103255533Y-104927505D01*
X103255533Y-104927505D02*
X103398390Y-104975124D01*
X103398390Y-104975124D02*
X103969819Y-105546552D01*
X103969819Y-105546552D02*
X103969819Y-104927505D01*
X119684398Y-106145342D02*
X119684398Y-107116771D01*
X119684398Y-107116771D02*
X119741541Y-107231057D01*
X119741541Y-107231057D02*
X119798684Y-107288200D01*
X119798684Y-107288200D02*
X119912969Y-107345342D01*
X119912969Y-107345342D02*
X120141541Y-107345342D01*
X120141541Y-107345342D02*
X120255826Y-107288200D01*
X120255826Y-107288200D02*
X120312969Y-107231057D01*
X120312969Y-107231057D02*
X120370112Y-107116771D01*
X120370112Y-107116771D02*
X120370112Y-106145342D01*
X120884398Y-107288200D02*
X121055827Y-107345342D01*
X121055827Y-107345342D02*
X121341541Y-107345342D01*
X121341541Y-107345342D02*
X121455827Y-107288200D01*
X121455827Y-107288200D02*
X121512969Y-107231057D01*
X121512969Y-107231057D02*
X121570112Y-107116771D01*
X121570112Y-107116771D02*
X121570112Y-107002485D01*
X121570112Y-107002485D02*
X121512969Y-106888200D01*
X121512969Y-106888200D02*
X121455827Y-106831057D01*
X121455827Y-106831057D02*
X121341541Y-106773914D01*
X121341541Y-106773914D02*
X121112969Y-106716771D01*
X121112969Y-106716771D02*
X120998684Y-106659628D01*
X120998684Y-106659628D02*
X120941541Y-106602485D01*
X120941541Y-106602485D02*
X120884398Y-106488200D01*
X120884398Y-106488200D02*
X120884398Y-106373914D01*
X120884398Y-106373914D02*
X120941541Y-106259628D01*
X120941541Y-106259628D02*
X120998684Y-106202485D01*
X120998684Y-106202485D02*
X121112969Y-106145342D01*
X121112969Y-106145342D02*
X121398684Y-106145342D01*
X121398684Y-106145342D02*
X121570112Y-106202485D01*
X122484398Y-106716771D02*
X122655826Y-106773914D01*
X122655826Y-106773914D02*
X122712969Y-106831057D01*
X122712969Y-106831057D02*
X122770112Y-106945342D01*
X122770112Y-106945342D02*
X122770112Y-107116771D01*
X122770112Y-107116771D02*
X122712969Y-107231057D01*
X122712969Y-107231057D02*
X122655826Y-107288200D01*
X122655826Y-107288200D02*
X122541541Y-107345342D01*
X122541541Y-107345342D02*
X122084398Y-107345342D01*
X122084398Y-107345342D02*
X122084398Y-106145342D01*
X122084398Y-106145342D02*
X122484398Y-106145342D01*
X122484398Y-106145342D02*
X122598684Y-106202485D01*
X122598684Y-106202485D02*
X122655826Y-106259628D01*
X122655826Y-106259628D02*
X122712969Y-106373914D01*
X122712969Y-106373914D02*
X122712969Y-106488200D01*
X122712969Y-106488200D02*
X122655826Y-106602485D01*
X122655826Y-106602485D02*
X122598684Y-106659628D01*
X122598684Y-106659628D02*
X122484398Y-106716771D01*
X122484398Y-106716771D02*
X122084398Y-106716771D01*
D11*
X114637542Y-81574060D02*
X115494685Y-81574060D01*
X115494685Y-81574060D02*
X115666114Y-81631203D01*
X115666114Y-81631203D02*
X115780400Y-81745489D01*
X115780400Y-81745489D02*
X115837542Y-81916917D01*
X115837542Y-81916917D02*
X115837542Y-82031203D01*
X115837542Y-80431203D02*
X115837542Y-81002631D01*
X115837542Y-81002631D02*
X114637542Y-81002631D01*
X115723257Y-79345488D02*
X115780400Y-79402631D01*
X115780400Y-79402631D02*
X115837542Y-79574059D01*
X115837542Y-79574059D02*
X115837542Y-79688345D01*
X115837542Y-79688345D02*
X115780400Y-79859774D01*
X115780400Y-79859774D02*
X115666114Y-79974059D01*
X115666114Y-79974059D02*
X115551828Y-80031202D01*
X115551828Y-80031202D02*
X115323257Y-80088345D01*
X115323257Y-80088345D02*
X115151828Y-80088345D01*
X115151828Y-80088345D02*
X114923257Y-80031202D01*
X114923257Y-80031202D02*
X114808971Y-79974059D01*
X114808971Y-79974059D02*
X114694685Y-79859774D01*
X114694685Y-79859774D02*
X114637542Y-79688345D01*
X114637542Y-79688345D02*
X114637542Y-79574059D01*
X114637542Y-79574059D02*
X114694685Y-79402631D01*
X114694685Y-79402631D02*
X114751828Y-79345488D01*
X114637542Y-78488345D02*
X115494685Y-78488345D01*
X115494685Y-78488345D02*
X115666114Y-78545488D01*
X115666114Y-78545488D02*
X115780400Y-78659774D01*
X115780400Y-78659774D02*
X115837542Y-78831202D01*
X115837542Y-78831202D02*
X115837542Y-78945488D01*
X115837542Y-77345488D02*
X115837542Y-77916916D01*
X115837542Y-77916916D02*
X114637542Y-77916916D01*
X115723257Y-76259773D02*
X115780400Y-76316916D01*
X115780400Y-76316916D02*
X115837542Y-76488344D01*
X115837542Y-76488344D02*
X115837542Y-76602630D01*
X115837542Y-76602630D02*
X115780400Y-76774059D01*
X115780400Y-76774059D02*
X115666114Y-76888344D01*
X115666114Y-76888344D02*
X115551828Y-76945487D01*
X115551828Y-76945487D02*
X115323257Y-77002630D01*
X115323257Y-77002630D02*
X115151828Y-77002630D01*
X115151828Y-77002630D02*
X114923257Y-76945487D01*
X114923257Y-76945487D02*
X114808971Y-76888344D01*
X114808971Y-76888344D02*
X114694685Y-76774059D01*
X114694685Y-76774059D02*
X114637542Y-76602630D01*
X114637542Y-76602630D02*
X114637542Y-76488344D01*
X114637542Y-76488344D02*
X114694685Y-76316916D01*
X114694685Y-76316916D02*
X114751828Y-76259773D01*
X114637542Y-75402630D02*
X115494685Y-75402630D01*
X115494685Y-75402630D02*
X115666114Y-75459773D01*
X115666114Y-75459773D02*
X115780400Y-75574059D01*
X115780400Y-75574059D02*
X115837542Y-75745487D01*
X115837542Y-75745487D02*
X115837542Y-75859773D01*
X115837542Y-74259773D02*
X115837542Y-74831201D01*
X115837542Y-74831201D02*
X114637542Y-74831201D01*
X115723257Y-73174058D02*
X115780400Y-73231201D01*
X115780400Y-73231201D02*
X115837542Y-73402629D01*
X115837542Y-73402629D02*
X115837542Y-73516915D01*
X115837542Y-73516915D02*
X115780400Y-73688344D01*
X115780400Y-73688344D02*
X115666114Y-73802629D01*
X115666114Y-73802629D02*
X115551828Y-73859772D01*
X115551828Y-73859772D02*
X115323257Y-73916915D01*
X115323257Y-73916915D02*
X115151828Y-73916915D01*
X115151828Y-73916915D02*
X114923257Y-73859772D01*
X114923257Y-73859772D02*
X114808971Y-73802629D01*
X114808971Y-73802629D02*
X114694685Y-73688344D01*
X114694685Y-73688344D02*
X114637542Y-73516915D01*
X114637542Y-73516915D02*
X114637542Y-73402629D01*
X114637542Y-73402629D02*
X114694685Y-73231201D01*
X114694685Y-73231201D02*
X114751828Y-73174058D01*
X114637542Y-72316915D02*
X115494685Y-72316915D01*
X115494685Y-72316915D02*
X115666114Y-72374058D01*
X115666114Y-72374058D02*
X115780400Y-72488344D01*
X115780400Y-72488344D02*
X115837542Y-72659772D01*
X115837542Y-72659772D02*
X115837542Y-72774058D01*
X115837542Y-71174058D02*
X115837542Y-71745486D01*
X115837542Y-71745486D02*
X114637542Y-71745486D01*
X115723257Y-70088343D02*
X115780400Y-70145486D01*
X115780400Y-70145486D02*
X115837542Y-70316914D01*
X115837542Y-70316914D02*
X115837542Y-70431200D01*
X115837542Y-70431200D02*
X115780400Y-70602629D01*
X115780400Y-70602629D02*
X115666114Y-70716914D01*
X115666114Y-70716914D02*
X115551828Y-70774057D01*
X115551828Y-70774057D02*
X115323257Y-70831200D01*
X115323257Y-70831200D02*
X115151828Y-70831200D01*
X115151828Y-70831200D02*
X114923257Y-70774057D01*
X114923257Y-70774057D02*
X114808971Y-70716914D01*
X114808971Y-70716914D02*
X114694685Y-70602629D01*
X114694685Y-70602629D02*
X114637542Y-70431200D01*
X114637542Y-70431200D02*
X114637542Y-70316914D01*
X114637542Y-70316914D02*
X114694685Y-70145486D01*
X114694685Y-70145486D02*
X114751828Y-70088343D01*
D10*
X118284398Y-86845342D02*
X118284398Y-85645342D01*
X118284398Y-85645342D02*
X118741541Y-85645342D01*
X118741541Y-85645342D02*
X118855826Y-85702485D01*
X118855826Y-85702485D02*
X118912969Y-85759628D01*
X118912969Y-85759628D02*
X118970112Y-85873914D01*
X118970112Y-85873914D02*
X118970112Y-86045342D01*
X118970112Y-86045342D02*
X118912969Y-86159628D01*
X118912969Y-86159628D02*
X118855826Y-86216771D01*
X118855826Y-86216771D02*
X118741541Y-86273914D01*
X118741541Y-86273914D02*
X118284398Y-86273914D01*
X119484398Y-86845342D02*
X119484398Y-86045342D01*
X119484398Y-85645342D02*
X119427255Y-85702485D01*
X119427255Y-85702485D02*
X119484398Y-85759628D01*
X119484398Y-85759628D02*
X119541541Y-85702485D01*
X119541541Y-85702485D02*
X119484398Y-85645342D01*
X119484398Y-85645342D02*
X119484398Y-85759628D01*
X120970113Y-86845342D02*
X120970113Y-85645342D01*
X120970113Y-85645342D02*
X121427256Y-85645342D01*
X121427256Y-85645342D02*
X121541541Y-85702485D01*
X121541541Y-85702485D02*
X121598684Y-85759628D01*
X121598684Y-85759628D02*
X121655827Y-85873914D01*
X121655827Y-85873914D02*
X121655827Y-86045342D01*
X121655827Y-86045342D02*
X121598684Y-86159628D01*
X121598684Y-86159628D02*
X121541541Y-86216771D01*
X121541541Y-86216771D02*
X121427256Y-86273914D01*
X121427256Y-86273914D02*
X120970113Y-86273914D01*
X122170113Y-86845342D02*
X122170113Y-86045342D01*
X122170113Y-85645342D02*
X122112970Y-85702485D01*
X122112970Y-85702485D02*
X122170113Y-85759628D01*
X122170113Y-85759628D02*
X122227256Y-85702485D01*
X122227256Y-85702485D02*
X122170113Y-85645342D01*
X122170113Y-85645342D02*
X122170113Y-85759628D01*
X123255828Y-86788200D02*
X123141542Y-86845342D01*
X123141542Y-86845342D02*
X122912970Y-86845342D01*
X122912970Y-86845342D02*
X122798685Y-86788200D01*
X122798685Y-86788200D02*
X122741542Y-86731057D01*
X122741542Y-86731057D02*
X122684399Y-86616771D01*
X122684399Y-86616771D02*
X122684399Y-86273914D01*
X122684399Y-86273914D02*
X122741542Y-86159628D01*
X122741542Y-86159628D02*
X122798685Y-86102485D01*
X122798685Y-86102485D02*
X122912970Y-86045342D01*
X122912970Y-86045342D02*
X123141542Y-86045342D01*
X123141542Y-86045342D02*
X123255828Y-86102485D01*
X123941541Y-86845342D02*
X123827256Y-86788200D01*
X123827256Y-86788200D02*
X123770113Y-86731057D01*
X123770113Y-86731057D02*
X123712970Y-86616771D01*
X123712970Y-86616771D02*
X123712970Y-86273914D01*
X123712970Y-86273914D02*
X123770113Y-86159628D01*
X123770113Y-86159628D02*
X123827256Y-86102485D01*
X123827256Y-86102485D02*
X123941541Y-86045342D01*
X123941541Y-86045342D02*
X124112970Y-86045342D01*
X124112970Y-86045342D02*
X124227256Y-86102485D01*
X124227256Y-86102485D02*
X124284399Y-86159628D01*
X124284399Y-86159628D02*
X124341541Y-86273914D01*
X124341541Y-86273914D02*
X124341541Y-86616771D01*
X124341541Y-86616771D02*
X124284399Y-86731057D01*
X124284399Y-86731057D02*
X124227256Y-86788200D01*
X124227256Y-86788200D02*
X124112970Y-86845342D01*
X124112970Y-86845342D02*
X123941541Y-86845342D01*
X120238095Y-87454819D02*
X120238095Y-88264342D01*
X120238095Y-88264342D02*
X120285714Y-88359580D01*
X120285714Y-88359580D02*
X120333333Y-88407200D01*
X120333333Y-88407200D02*
X120428571Y-88454819D01*
X120428571Y-88454819D02*
X120619047Y-88454819D01*
X120619047Y-88454819D02*
X120714285Y-88407200D01*
X120714285Y-88407200D02*
X120761904Y-88359580D01*
X120761904Y-88359580D02*
X120809523Y-88264342D01*
X120809523Y-88264342D02*
X120809523Y-87454819D01*
X121714285Y-87788152D02*
X121714285Y-88454819D01*
X121476190Y-87407200D02*
X121238095Y-88121485D01*
X121238095Y-88121485D02*
X121857142Y-88121485D01*
X91038095Y-99454819D02*
X91038095Y-100264342D01*
X91038095Y-100264342D02*
X91085714Y-100359580D01*
X91085714Y-100359580D02*
X91133333Y-100407200D01*
X91133333Y-100407200D02*
X91228571Y-100454819D01*
X91228571Y-100454819D02*
X91419047Y-100454819D01*
X91419047Y-100454819D02*
X91514285Y-100407200D01*
X91514285Y-100407200D02*
X91561904Y-100359580D01*
X91561904Y-100359580D02*
X91609523Y-100264342D01*
X91609523Y-100264342D02*
X91609523Y-99454819D01*
X92609523Y-100454819D02*
X92038095Y-100454819D01*
X92323809Y-100454819D02*
X92323809Y-99454819D01*
X92323809Y-99454819D02*
X92228571Y-99597676D01*
X92228571Y-99597676D02*
X92133333Y-99692914D01*
X92133333Y-99692914D02*
X92038095Y-99740533D01*
X94033333Y-103559580D02*
X93985714Y-103607200D01*
X93985714Y-103607200D02*
X93842857Y-103654819D01*
X93842857Y-103654819D02*
X93747619Y-103654819D01*
X93747619Y-103654819D02*
X93604762Y-103607200D01*
X93604762Y-103607200D02*
X93509524Y-103511961D01*
X93509524Y-103511961D02*
X93461905Y-103416723D01*
X93461905Y-103416723D02*
X93414286Y-103226247D01*
X93414286Y-103226247D02*
X93414286Y-103083390D01*
X93414286Y-103083390D02*
X93461905Y-102892914D01*
X93461905Y-102892914D02*
X93509524Y-102797676D01*
X93509524Y-102797676D02*
X93604762Y-102702438D01*
X93604762Y-102702438D02*
X93747619Y-102654819D01*
X93747619Y-102654819D02*
X93842857Y-102654819D01*
X93842857Y-102654819D02*
X93985714Y-102702438D01*
X93985714Y-102702438D02*
X94033333Y-102750057D01*
X94509524Y-103654819D02*
X94700000Y-103654819D01*
X94700000Y-103654819D02*
X94795238Y-103607200D01*
X94795238Y-103607200D02*
X94842857Y-103559580D01*
X94842857Y-103559580D02*
X94938095Y-103416723D01*
X94938095Y-103416723D02*
X94985714Y-103226247D01*
X94985714Y-103226247D02*
X94985714Y-102845295D01*
X94985714Y-102845295D02*
X94938095Y-102750057D01*
X94938095Y-102750057D02*
X94890476Y-102702438D01*
X94890476Y-102702438D02*
X94795238Y-102654819D01*
X94795238Y-102654819D02*
X94604762Y-102654819D01*
X94604762Y-102654819D02*
X94509524Y-102702438D01*
X94509524Y-102702438D02*
X94461905Y-102750057D01*
X94461905Y-102750057D02*
X94414286Y-102845295D01*
X94414286Y-102845295D02*
X94414286Y-103083390D01*
X94414286Y-103083390D02*
X94461905Y-103178628D01*
X94461905Y-103178628D02*
X94509524Y-103226247D01*
X94509524Y-103226247D02*
X94604762Y-103273866D01*
X94604762Y-103273866D02*
X94795238Y-103273866D01*
X94795238Y-103273866D02*
X94890476Y-103226247D01*
X94890476Y-103226247D02*
X94938095Y-103178628D01*
X94938095Y-103178628D02*
X94985714Y-103083390D01*
X94304819Y-108811904D02*
X95114342Y-108811904D01*
X95114342Y-108811904D02*
X95209580Y-108764285D01*
X95209580Y-108764285D02*
X95257200Y-108716666D01*
X95257200Y-108716666D02*
X95304819Y-108621428D01*
X95304819Y-108621428D02*
X95304819Y-108430952D01*
X95304819Y-108430952D02*
X95257200Y-108335714D01*
X95257200Y-108335714D02*
X95209580Y-108288095D01*
X95209580Y-108288095D02*
X95114342Y-108240476D01*
X95114342Y-108240476D02*
X94304819Y-108240476D01*
X94304819Y-107335714D02*
X94304819Y-107526190D01*
X94304819Y-107526190D02*
X94352438Y-107621428D01*
X94352438Y-107621428D02*
X94400057Y-107669047D01*
X94400057Y-107669047D02*
X94542914Y-107764285D01*
X94542914Y-107764285D02*
X94733390Y-107811904D01*
X94733390Y-107811904D02*
X95114342Y-107811904D01*
X95114342Y-107811904D02*
X95209580Y-107764285D01*
X95209580Y-107764285D02*
X95257200Y-107716666D01*
X95257200Y-107716666D02*
X95304819Y-107621428D01*
X95304819Y-107621428D02*
X95304819Y-107430952D01*
X95304819Y-107430952D02*
X95257200Y-107335714D01*
X95257200Y-107335714D02*
X95209580Y-107288095D01*
X95209580Y-107288095D02*
X95114342Y-107240476D01*
X95114342Y-107240476D02*
X94876247Y-107240476D01*
X94876247Y-107240476D02*
X94781009Y-107288095D01*
X94781009Y-107288095D02*
X94733390Y-107335714D01*
X94733390Y-107335714D02*
X94685771Y-107430952D01*
X94685771Y-107430952D02*
X94685771Y-107621428D01*
X94685771Y-107621428D02*
X94733390Y-107716666D01*
X94733390Y-107716666D02*
X94781009Y-107764285D01*
X94781009Y-107764285D02*
X94876247Y-107811904D01*
X70409580Y-100016666D02*
X70457200Y-100064285D01*
X70457200Y-100064285D02*
X70504819Y-100207142D01*
X70504819Y-100207142D02*
X70504819Y-100302380D01*
X70504819Y-100302380D02*
X70457200Y-100445237D01*
X70457200Y-100445237D02*
X70361961Y-100540475D01*
X70361961Y-100540475D02*
X70266723Y-100588094D01*
X70266723Y-100588094D02*
X70076247Y-100635713D01*
X70076247Y-100635713D02*
X69933390Y-100635713D01*
X69933390Y-100635713D02*
X69742914Y-100588094D01*
X69742914Y-100588094D02*
X69647676Y-100540475D01*
X69647676Y-100540475D02*
X69552438Y-100445237D01*
X69552438Y-100445237D02*
X69504819Y-100302380D01*
X69504819Y-100302380D02*
X69504819Y-100207142D01*
X69504819Y-100207142D02*
X69552438Y-100064285D01*
X69552438Y-100064285D02*
X69600057Y-100016666D01*
X69504819Y-99111904D02*
X69504819Y-99588094D01*
X69504819Y-99588094D02*
X69981009Y-99635713D01*
X69981009Y-99635713D02*
X69933390Y-99588094D01*
X69933390Y-99588094D02*
X69885771Y-99492856D01*
X69885771Y-99492856D02*
X69885771Y-99254761D01*
X69885771Y-99254761D02*
X69933390Y-99159523D01*
X69933390Y-99159523D02*
X69981009Y-99111904D01*
X69981009Y-99111904D02*
X70076247Y-99064285D01*
X70076247Y-99064285D02*
X70314342Y-99064285D01*
X70314342Y-99064285D02*
X70409580Y-99111904D01*
X70409580Y-99111904D02*
X70457200Y-99159523D01*
X70457200Y-99159523D02*
X70504819Y-99254761D01*
X70504819Y-99254761D02*
X70504819Y-99492856D01*
X70504819Y-99492856D02*
X70457200Y-99588094D01*
X70457200Y-99588094D02*
X70409580Y-99635713D01*
X102833333Y-103559580D02*
X102785714Y-103607200D01*
X102785714Y-103607200D02*
X102642857Y-103654819D01*
X102642857Y-103654819D02*
X102547619Y-103654819D01*
X102547619Y-103654819D02*
X102404762Y-103607200D01*
X102404762Y-103607200D02*
X102309524Y-103511961D01*
X102309524Y-103511961D02*
X102261905Y-103416723D01*
X102261905Y-103416723D02*
X102214286Y-103226247D01*
X102214286Y-103226247D02*
X102214286Y-103083390D01*
X102214286Y-103083390D02*
X102261905Y-102892914D01*
X102261905Y-102892914D02*
X102309524Y-102797676D01*
X102309524Y-102797676D02*
X102404762Y-102702438D01*
X102404762Y-102702438D02*
X102547619Y-102654819D01*
X102547619Y-102654819D02*
X102642857Y-102654819D01*
X102642857Y-102654819D02*
X102785714Y-102702438D01*
X102785714Y-102702438D02*
X102833333Y-102750057D01*
X103166667Y-102654819D02*
X103833333Y-102654819D01*
X103833333Y-102654819D02*
X103404762Y-103654819D01*
X76806666Y-94094819D02*
X76806666Y-94809104D01*
X76806666Y-94809104D02*
X76759047Y-94951961D01*
X76759047Y-94951961D02*
X76663809Y-95047200D01*
X76663809Y-95047200D02*
X76520952Y-95094819D01*
X76520952Y-95094819D02*
X76425714Y-95094819D01*
X77806666Y-95094819D02*
X77235238Y-95094819D01*
X77520952Y-95094819D02*
X77520952Y-94094819D01*
X77520952Y-94094819D02*
X77425714Y-94237676D01*
X77425714Y-94237676D02*
X77330476Y-94332914D01*
X77330476Y-94332914D02*
X77235238Y-94380533D01*
X69954819Y-108761904D02*
X70764342Y-108761904D01*
X70764342Y-108761904D02*
X70859580Y-108714285D01*
X70859580Y-108714285D02*
X70907200Y-108666666D01*
X70907200Y-108666666D02*
X70954819Y-108571428D01*
X70954819Y-108571428D02*
X70954819Y-108380952D01*
X70954819Y-108380952D02*
X70907200Y-108285714D01*
X70907200Y-108285714D02*
X70859580Y-108238095D01*
X70859580Y-108238095D02*
X70764342Y-108190476D01*
X70764342Y-108190476D02*
X69954819Y-108190476D01*
X69954819Y-107809523D02*
X69954819Y-107190476D01*
X69954819Y-107190476D02*
X70335771Y-107523809D01*
X70335771Y-107523809D02*
X70335771Y-107380952D01*
X70335771Y-107380952D02*
X70383390Y-107285714D01*
X70383390Y-107285714D02*
X70431009Y-107238095D01*
X70431009Y-107238095D02*
X70526247Y-107190476D01*
X70526247Y-107190476D02*
X70764342Y-107190476D01*
X70764342Y-107190476D02*
X70859580Y-107238095D01*
X70859580Y-107238095D02*
X70907200Y-107285714D01*
X70907200Y-107285714D02*
X70954819Y-107380952D01*
X70954819Y-107380952D02*
X70954819Y-107666666D01*
X70954819Y-107666666D02*
X70907200Y-107761904D01*
X70907200Y-107761904D02*
X70859580Y-107809523D01*
X82433333Y-103559580D02*
X82385714Y-103607200D01*
X82385714Y-103607200D02*
X82242857Y-103654819D01*
X82242857Y-103654819D02*
X82147619Y-103654819D01*
X82147619Y-103654819D02*
X82004762Y-103607200D01*
X82004762Y-103607200D02*
X81909524Y-103511961D01*
X81909524Y-103511961D02*
X81861905Y-103416723D01*
X81861905Y-103416723D02*
X81814286Y-103226247D01*
X81814286Y-103226247D02*
X81814286Y-103083390D01*
X81814286Y-103083390D02*
X81861905Y-102892914D01*
X81861905Y-102892914D02*
X81909524Y-102797676D01*
X81909524Y-102797676D02*
X82004762Y-102702438D01*
X82004762Y-102702438D02*
X82147619Y-102654819D01*
X82147619Y-102654819D02*
X82242857Y-102654819D01*
X82242857Y-102654819D02*
X82385714Y-102702438D01*
X82385714Y-102702438D02*
X82433333Y-102750057D01*
X83004762Y-103083390D02*
X82909524Y-103035771D01*
X82909524Y-103035771D02*
X82861905Y-102988152D01*
X82861905Y-102988152D02*
X82814286Y-102892914D01*
X82814286Y-102892914D02*
X82814286Y-102845295D01*
X82814286Y-102845295D02*
X82861905Y-102750057D01*
X82861905Y-102750057D02*
X82909524Y-102702438D01*
X82909524Y-102702438D02*
X83004762Y-102654819D01*
X83004762Y-102654819D02*
X83195238Y-102654819D01*
X83195238Y-102654819D02*
X83290476Y-102702438D01*
X83290476Y-102702438D02*
X83338095Y-102750057D01*
X83338095Y-102750057D02*
X83385714Y-102845295D01*
X83385714Y-102845295D02*
X83385714Y-102892914D01*
X83385714Y-102892914D02*
X83338095Y-102988152D01*
X83338095Y-102988152D02*
X83290476Y-103035771D01*
X83290476Y-103035771D02*
X83195238Y-103083390D01*
X83195238Y-103083390D02*
X83004762Y-103083390D01*
X83004762Y-103083390D02*
X82909524Y-103131009D01*
X82909524Y-103131009D02*
X82861905Y-103178628D01*
X82861905Y-103178628D02*
X82814286Y-103273866D01*
X82814286Y-103273866D02*
X82814286Y-103464342D01*
X82814286Y-103464342D02*
X82861905Y-103559580D01*
X82861905Y-103559580D02*
X82909524Y-103607200D01*
X82909524Y-103607200D02*
X83004762Y-103654819D01*
X83004762Y-103654819D02*
X83195238Y-103654819D01*
X83195238Y-103654819D02*
X83290476Y-103607200D01*
X83290476Y-103607200D02*
X83338095Y-103559580D01*
X83338095Y-103559580D02*
X83385714Y-103464342D01*
X83385714Y-103464342D02*
X83385714Y-103273866D01*
X83385714Y-103273866D02*
X83338095Y-103178628D01*
X83338095Y-103178628D02*
X83290476Y-103131009D01*
X83290476Y-103131009D02*
X83195238Y-103083390D01*
X92988095Y-60129819D02*
X92988095Y-60939342D01*
X92988095Y-60939342D02*
X93035714Y-61034580D01*
X93035714Y-61034580D02*
X93083333Y-61082200D01*
X93083333Y-61082200D02*
X93178571Y-61129819D01*
X93178571Y-61129819D02*
X93369047Y-61129819D01*
X93369047Y-61129819D02*
X93464285Y-61082200D01*
X93464285Y-61082200D02*
X93511904Y-61034580D01*
X93511904Y-61034580D02*
X93559523Y-60939342D01*
X93559523Y-60939342D02*
X93559523Y-60129819D01*
X93988095Y-60225057D02*
X94035714Y-60177438D01*
X94035714Y-60177438D02*
X94130952Y-60129819D01*
X94130952Y-60129819D02*
X94369047Y-60129819D01*
X94369047Y-60129819D02*
X94464285Y-60177438D01*
X94464285Y-60177438D02*
X94511904Y-60225057D01*
X94511904Y-60225057D02*
X94559523Y-60320295D01*
X94559523Y-60320295D02*
X94559523Y-60415533D01*
X94559523Y-60415533D02*
X94511904Y-60558390D01*
X94511904Y-60558390D02*
X93940476Y-61129819D01*
X93940476Y-61129819D02*
X94559523Y-61129819D01*
X95358333Y-79659580D02*
X95310714Y-79707200D01*
X95310714Y-79707200D02*
X95167857Y-79754819D01*
X95167857Y-79754819D02*
X95072619Y-79754819D01*
X95072619Y-79754819D02*
X94929762Y-79707200D01*
X94929762Y-79707200D02*
X94834524Y-79611961D01*
X94834524Y-79611961D02*
X94786905Y-79516723D01*
X94786905Y-79516723D02*
X94739286Y-79326247D01*
X94739286Y-79326247D02*
X94739286Y-79183390D01*
X94739286Y-79183390D02*
X94786905Y-78992914D01*
X94786905Y-78992914D02*
X94834524Y-78897676D01*
X94834524Y-78897676D02*
X94929762Y-78802438D01*
X94929762Y-78802438D02*
X95072619Y-78754819D01*
X95072619Y-78754819D02*
X95167857Y-78754819D01*
X95167857Y-78754819D02*
X95310714Y-78802438D01*
X95310714Y-78802438D02*
X95358333Y-78850057D01*
X96215476Y-78754819D02*
X96025000Y-78754819D01*
X96025000Y-78754819D02*
X95929762Y-78802438D01*
X95929762Y-78802438D02*
X95882143Y-78850057D01*
X95882143Y-78850057D02*
X95786905Y-78992914D01*
X95786905Y-78992914D02*
X95739286Y-79183390D01*
X95739286Y-79183390D02*
X95739286Y-79564342D01*
X95739286Y-79564342D02*
X95786905Y-79659580D01*
X95786905Y-79659580D02*
X95834524Y-79707200D01*
X95834524Y-79707200D02*
X95929762Y-79754819D01*
X95929762Y-79754819D02*
X96120238Y-79754819D01*
X96120238Y-79754819D02*
X96215476Y-79707200D01*
X96215476Y-79707200D02*
X96263095Y-79659580D01*
X96263095Y-79659580D02*
X96310714Y-79564342D01*
X96310714Y-79564342D02*
X96310714Y-79326247D01*
X96310714Y-79326247D02*
X96263095Y-79231009D01*
X96263095Y-79231009D02*
X96215476Y-79183390D01*
X96215476Y-79183390D02*
X96120238Y-79135771D01*
X96120238Y-79135771D02*
X95929762Y-79135771D01*
X95929762Y-79135771D02*
X95834524Y-79183390D01*
X95834524Y-79183390D02*
X95786905Y-79231009D01*
X95786905Y-79231009D02*
X95739286Y-79326247D01*
X84359580Y-94466666D02*
X84407200Y-94514285D01*
X84407200Y-94514285D02*
X84454819Y-94657142D01*
X84454819Y-94657142D02*
X84454819Y-94752380D01*
X84454819Y-94752380D02*
X84407200Y-94895237D01*
X84407200Y-94895237D02*
X84311961Y-94990475D01*
X84311961Y-94990475D02*
X84216723Y-95038094D01*
X84216723Y-95038094D02*
X84026247Y-95085713D01*
X84026247Y-95085713D02*
X83883390Y-95085713D01*
X83883390Y-95085713D02*
X83692914Y-95038094D01*
X83692914Y-95038094D02*
X83597676Y-94990475D01*
X83597676Y-94990475D02*
X83502438Y-94895237D01*
X83502438Y-94895237D02*
X83454819Y-94752380D01*
X83454819Y-94752380D02*
X83454819Y-94657142D01*
X83454819Y-94657142D02*
X83502438Y-94514285D01*
X83502438Y-94514285D02*
X83550057Y-94466666D01*
X83550057Y-94085713D02*
X83502438Y-94038094D01*
X83502438Y-94038094D02*
X83454819Y-93942856D01*
X83454819Y-93942856D02*
X83454819Y-93704761D01*
X83454819Y-93704761D02*
X83502438Y-93609523D01*
X83502438Y-93609523D02*
X83550057Y-93561904D01*
X83550057Y-93561904D02*
X83645295Y-93514285D01*
X83645295Y-93514285D02*
X83740533Y-93514285D01*
X83740533Y-93514285D02*
X83883390Y-93561904D01*
X83883390Y-93561904D02*
X84454819Y-94133332D01*
X84454819Y-94133332D02*
X84454819Y-93514285D01*
X79254819Y-62738094D02*
X78254819Y-62738094D01*
X78254819Y-62738094D02*
X78254819Y-62499999D01*
X78254819Y-62499999D02*
X78302438Y-62357142D01*
X78302438Y-62357142D02*
X78397676Y-62261904D01*
X78397676Y-62261904D02*
X78492914Y-62214285D01*
X78492914Y-62214285D02*
X78683390Y-62166666D01*
X78683390Y-62166666D02*
X78826247Y-62166666D01*
X78826247Y-62166666D02*
X79016723Y-62214285D01*
X79016723Y-62214285D02*
X79111961Y-62261904D01*
X79111961Y-62261904D02*
X79207200Y-62357142D01*
X79207200Y-62357142D02*
X79254819Y-62499999D01*
X79254819Y-62499999D02*
X79254819Y-62738094D01*
X79254819Y-61214285D02*
X79254819Y-61785713D01*
X79254819Y-61499999D02*
X78254819Y-61499999D01*
X78254819Y-61499999D02*
X78397676Y-61595237D01*
X78397676Y-61595237D02*
X78492914Y-61690475D01*
X78492914Y-61690475D02*
X78540533Y-61785713D01*
X104859580Y-66691666D02*
X104907200Y-66739285D01*
X104907200Y-66739285D02*
X104954819Y-66882142D01*
X104954819Y-66882142D02*
X104954819Y-66977380D01*
X104954819Y-66977380D02*
X104907200Y-67120237D01*
X104907200Y-67120237D02*
X104811961Y-67215475D01*
X104811961Y-67215475D02*
X104716723Y-67263094D01*
X104716723Y-67263094D02*
X104526247Y-67310713D01*
X104526247Y-67310713D02*
X104383390Y-67310713D01*
X104383390Y-67310713D02*
X104192914Y-67263094D01*
X104192914Y-67263094D02*
X104097676Y-67215475D01*
X104097676Y-67215475D02*
X104002438Y-67120237D01*
X104002438Y-67120237D02*
X103954819Y-66977380D01*
X103954819Y-66977380D02*
X103954819Y-66882142D01*
X103954819Y-66882142D02*
X104002438Y-66739285D01*
X104002438Y-66739285D02*
X104050057Y-66691666D01*
X103954819Y-66358332D02*
X103954819Y-65739285D01*
X103954819Y-65739285D02*
X104335771Y-66072618D01*
X104335771Y-66072618D02*
X104335771Y-65929761D01*
X104335771Y-65929761D02*
X104383390Y-65834523D01*
X104383390Y-65834523D02*
X104431009Y-65786904D01*
X104431009Y-65786904D02*
X104526247Y-65739285D01*
X104526247Y-65739285D02*
X104764342Y-65739285D01*
X104764342Y-65739285D02*
X104859580Y-65786904D01*
X104859580Y-65786904D02*
X104907200Y-65834523D01*
X104907200Y-65834523D02*
X104954819Y-65929761D01*
X104954819Y-65929761D02*
X104954819Y-66215475D01*
X104954819Y-66215475D02*
X104907200Y-66310713D01*
X104907200Y-66310713D02*
X104859580Y-66358332D01*
X76159580Y-100066666D02*
X76207200Y-100114285D01*
X76207200Y-100114285D02*
X76254819Y-100257142D01*
X76254819Y-100257142D02*
X76254819Y-100352380D01*
X76254819Y-100352380D02*
X76207200Y-100495237D01*
X76207200Y-100495237D02*
X76111961Y-100590475D01*
X76111961Y-100590475D02*
X76016723Y-100638094D01*
X76016723Y-100638094D02*
X75826247Y-100685713D01*
X75826247Y-100685713D02*
X75683390Y-100685713D01*
X75683390Y-100685713D02*
X75492914Y-100638094D01*
X75492914Y-100638094D02*
X75397676Y-100590475D01*
X75397676Y-100590475D02*
X75302438Y-100495237D01*
X75302438Y-100495237D02*
X75254819Y-100352380D01*
X75254819Y-100352380D02*
X75254819Y-100257142D01*
X75254819Y-100257142D02*
X75302438Y-100114285D01*
X75302438Y-100114285D02*
X75350057Y-100066666D01*
X75588152Y-99209523D02*
X76254819Y-99209523D01*
X75207200Y-99447618D02*
X75921485Y-99685713D01*
X75921485Y-99685713D02*
X75921485Y-99066666D01*
X102809523Y-94054819D02*
X102476190Y-93578628D01*
X102238095Y-94054819D02*
X102238095Y-93054819D01*
X102238095Y-93054819D02*
X102619047Y-93054819D01*
X102619047Y-93054819D02*
X102714285Y-93102438D01*
X102714285Y-93102438D02*
X102761904Y-93150057D01*
X102761904Y-93150057D02*
X102809523Y-93245295D01*
X102809523Y-93245295D02*
X102809523Y-93388152D01*
X102809523Y-93388152D02*
X102761904Y-93483390D01*
X102761904Y-93483390D02*
X102714285Y-93531009D01*
X102714285Y-93531009D02*
X102619047Y-93578628D01*
X102619047Y-93578628D02*
X102238095Y-93578628D01*
X103238095Y-94054819D02*
X103238095Y-93054819D01*
X103238095Y-93054819D02*
X103809523Y-94054819D01*
X103809523Y-94054819D02*
X103809523Y-93054819D01*
X104809523Y-94054819D02*
X104238095Y-94054819D01*
X104523809Y-94054819D02*
X104523809Y-93054819D01*
X104523809Y-93054819D02*
X104428571Y-93197676D01*
X104428571Y-93197676D02*
X104333333Y-93292914D01*
X104333333Y-93292914D02*
X104238095Y-93340533D01*
X82704819Y-108811904D02*
X83514342Y-108811904D01*
X83514342Y-108811904D02*
X83609580Y-108764285D01*
X83609580Y-108764285D02*
X83657200Y-108716666D01*
X83657200Y-108716666D02*
X83704819Y-108621428D01*
X83704819Y-108621428D02*
X83704819Y-108430952D01*
X83704819Y-108430952D02*
X83657200Y-108335714D01*
X83657200Y-108335714D02*
X83609580Y-108288095D01*
X83609580Y-108288095D02*
X83514342Y-108240476D01*
X83514342Y-108240476D02*
X82704819Y-108240476D01*
X82704819Y-107288095D02*
X82704819Y-107764285D01*
X82704819Y-107764285D02*
X83181009Y-107811904D01*
X83181009Y-107811904D02*
X83133390Y-107764285D01*
X83133390Y-107764285D02*
X83085771Y-107669047D01*
X83085771Y-107669047D02*
X83085771Y-107430952D01*
X83085771Y-107430952D02*
X83133390Y-107335714D01*
X83133390Y-107335714D02*
X83181009Y-107288095D01*
X83181009Y-107288095D02*
X83276247Y-107240476D01*
X83276247Y-107240476D02*
X83514342Y-107240476D01*
X83514342Y-107240476D02*
X83609580Y-107288095D01*
X83609580Y-107288095D02*
X83657200Y-107335714D01*
X83657200Y-107335714D02*
X83704819Y-107430952D01*
X83704819Y-107430952D02*
X83704819Y-107669047D01*
X83704819Y-107669047D02*
X83657200Y-107764285D01*
X83657200Y-107764285D02*
X83609580Y-107811904D01*
X88233333Y-79659580D02*
X88185714Y-79707200D01*
X88185714Y-79707200D02*
X88042857Y-79754819D01*
X88042857Y-79754819D02*
X87947619Y-79754819D01*
X87947619Y-79754819D02*
X87804762Y-79707200D01*
X87804762Y-79707200D02*
X87709524Y-79611961D01*
X87709524Y-79611961D02*
X87661905Y-79516723D01*
X87661905Y-79516723D02*
X87614286Y-79326247D01*
X87614286Y-79326247D02*
X87614286Y-79183390D01*
X87614286Y-79183390D02*
X87661905Y-78992914D01*
X87661905Y-78992914D02*
X87709524Y-78897676D01*
X87709524Y-78897676D02*
X87804762Y-78802438D01*
X87804762Y-78802438D02*
X87947619Y-78754819D01*
X87947619Y-78754819D02*
X88042857Y-78754819D01*
X88042857Y-78754819D02*
X88185714Y-78802438D01*
X88185714Y-78802438D02*
X88233333Y-78850057D01*
X89185714Y-79754819D02*
X88614286Y-79754819D01*
X88900000Y-79754819D02*
X88900000Y-78754819D01*
X88900000Y-78754819D02*
X88804762Y-78897676D01*
X88804762Y-78897676D02*
X88709524Y-78992914D01*
X88709524Y-78992914D02*
X88614286Y-79040533D01*
X83854819Y-62738094D02*
X82854819Y-62738094D01*
X82854819Y-62738094D02*
X82854819Y-62499999D01*
X82854819Y-62499999D02*
X82902438Y-62357142D01*
X82902438Y-62357142D02*
X82997676Y-62261904D01*
X82997676Y-62261904D02*
X83092914Y-62214285D01*
X83092914Y-62214285D02*
X83283390Y-62166666D01*
X83283390Y-62166666D02*
X83426247Y-62166666D01*
X83426247Y-62166666D02*
X83616723Y-62214285D01*
X83616723Y-62214285D02*
X83711961Y-62261904D01*
X83711961Y-62261904D02*
X83807200Y-62357142D01*
X83807200Y-62357142D02*
X83854819Y-62499999D01*
X83854819Y-62499999D02*
X83854819Y-62738094D01*
X82950057Y-61785713D02*
X82902438Y-61738094D01*
X82902438Y-61738094D02*
X82854819Y-61642856D01*
X82854819Y-61642856D02*
X82854819Y-61404761D01*
X82854819Y-61404761D02*
X82902438Y-61309523D01*
X82902438Y-61309523D02*
X82950057Y-61261904D01*
X82950057Y-61261904D02*
X83045295Y-61214285D01*
X83045295Y-61214285D02*
X83140533Y-61214285D01*
X83140533Y-61214285D02*
X83283390Y-61261904D01*
X83283390Y-61261904D02*
X83854819Y-61833332D01*
X83854819Y-61833332D02*
X83854819Y-61214285D01*
D12*
X110500000Y-62500000D02*
X117300000Y-62500000D01*
X124700000Y-62500000D02*
X131500000Y-62500000D01*
X128493000Y-110833000D02*
X128493000Y-113500000D01*
X131500000Y-110833000D02*
X128493000Y-110833000D01*
X131500000Y-113500000D02*
X110500000Y-113500000D01*
D10*
X87925000Y-82925000D02*
X87925000Y-83272500D01*
X87925000Y-99075000D02*
X87925000Y-98727500D01*
X95675000Y-82925000D02*
X87925000Y-82925000D01*
X95675000Y-82925000D02*
X95675000Y-83272500D01*
X95675000Y-99075000D02*
X87925000Y-99075000D01*
X95675000Y-99075000D02*
X95675000Y-98727500D01*
D12*
X96365000Y-99105000D02*
X95885000Y-99105000D01*
X96125000Y-98775000D01*
X96365000Y-99105000D01*
G36*
X96365000Y-99105000D02*
G01*
X95885000Y-99105000D01*
X96125000Y-98775000D01*
X96365000Y-99105000D01*
G37*
X95361252Y-100765000D02*
X94838748Y-100765000D01*
X95361252Y-102235000D02*
X94838748Y-102235000D01*
X95690000Y-112040000D02*
X95690000Y-104050000D01*
X101910000Y-112050000D02*
X101910000Y-104050000D01*
X96490000Y-112760000D02*
X96010000Y-112280000D01*
X96490000Y-112280000D01*
X96490000Y-112760000D01*
G36*
X96490000Y-112760000D02*
G01*
X96010000Y-112280000D01*
X96490000Y-112280000D01*
X96490000Y-112760000D01*
G37*
X71490000Y-98050000D02*
X71490000Y-102260000D01*
X71490000Y-102260000D02*
X74510000Y-102260000D01*
X74510000Y-102260000D02*
X74510000Y-98050000D01*
X100998752Y-100765000D02*
X100476248Y-100765000D01*
X100998752Y-102235000D02*
X100476248Y-102235000D01*
X70270000Y-92390000D02*
X70270000Y-51690000D01*
X70270000Y-94990000D02*
X70270000Y-93660000D01*
X71600000Y-94990000D02*
X70270000Y-94990000D01*
X72870000Y-92390000D02*
X70270000Y-92390000D01*
X72870000Y-94990000D02*
X72870000Y-92390000D01*
X75470000Y-51690000D02*
X70270000Y-51690000D01*
X75470000Y-94990000D02*
X72870000Y-94990000D01*
X75470000Y-94990000D02*
X75470000Y-51690000D01*
X71590000Y-106090000D02*
X72850000Y-106090000D01*
X71590000Y-109850000D02*
X71590000Y-106090000D01*
X78410000Y-106090000D02*
X77150000Y-106090000D01*
X78410000Y-109850000D02*
X78410000Y-106090000D01*
X71690000Y-111130000D02*
X71360000Y-111370000D01*
X71360000Y-110890000D01*
X71690000Y-111130000D01*
G36*
X71690000Y-111130000D02*
G01*
X71360000Y-111370000D01*
X71360000Y-110890000D01*
X71690000Y-111130000D01*
G37*
X83961252Y-100765000D02*
X83438748Y-100765000D01*
X83961252Y-102235000D02*
X83438748Y-102235000D01*
X85775000Y-62525000D02*
X85775000Y-77475000D01*
X85775000Y-77475000D02*
X101725000Y-77475000D01*
X86775000Y-61525000D02*
X85775000Y-62525000D01*
D13*
X88585000Y-65485000D02*
X88585000Y-65985000D01*
X88585000Y-74665000D02*
X88585000Y-73015000D01*
X89735000Y-64335000D02*
X88585000Y-65485000D01*
X90235000Y-64335000D02*
X89735000Y-64335000D01*
X90235000Y-74665000D02*
X88585000Y-74665000D01*
D12*
X92750000Y-61525000D02*
X86775000Y-61525000D01*
D13*
X97265000Y-64335000D02*
X98915000Y-64335000D01*
X97265000Y-74665000D02*
X98915000Y-74665000D01*
X98915000Y-64335000D02*
X98915000Y-65985000D01*
X98915000Y-74665000D02*
X98915000Y-73015000D01*
D12*
X101725000Y-61525000D02*
X94750000Y-61525000D01*
X101725000Y-77475000D02*
X101725000Y-61525000D01*
X95238748Y-80265000D02*
X95761252Y-80265000D01*
X95238748Y-81735000D02*
X95761252Y-81735000D01*
X83265000Y-96838748D02*
X83265000Y-97361252D01*
X84735000Y-96838748D02*
X84735000Y-97361252D01*
X77050000Y-53790000D02*
X77050000Y-59300000D01*
X80350000Y-53790000D02*
X77050000Y-53790000D01*
X80350000Y-53790000D02*
X80350000Y-59300000D01*
X103765000Y-63101248D02*
X103765000Y-63623752D01*
X105235000Y-63101248D02*
X105235000Y-63623752D01*
X76490000Y-98050000D02*
X76490000Y-102260000D01*
X76490000Y-102260000D02*
X79510000Y-102260000D01*
X79510000Y-102260000D02*
X79510000Y-98050000D01*
X104000000Y-94720000D02*
X103000000Y-94720000D01*
X104000000Y-98080000D02*
X103000000Y-98080000D01*
X84090000Y-112040000D02*
X84090000Y-104050000D01*
X90310000Y-112050000D02*
X90310000Y-104050000D01*
X84890000Y-112760000D02*
X84410000Y-112280000D01*
X84890000Y-112280000D01*
X84890000Y-112760000D01*
G36*
X84890000Y-112760000D02*
G01*
X84410000Y-112280000D01*
X84890000Y-112280000D01*
X84890000Y-112760000D01*
G37*
X88138748Y-80265000D02*
X88661252Y-80265000D01*
X88138748Y-81735000D02*
X88661252Y-81735000D01*
X81750000Y-53790000D02*
X81750000Y-59300000D01*
X85050000Y-53790000D02*
X81750000Y-53790000D01*
X85050000Y-53790000D02*
X85050000Y-59300000D01*
%LPC*%
D14*
X123725000Y-112000000D03*
D15*
X123425000Y-108970000D03*
X118575000Y-108970000D03*
D14*
X118275000Y-112000000D03*
D16*
X130790000Y-112130000D03*
X130790000Y-109590000D03*
X130790000Y-107050000D03*
X130790000Y-104510000D03*
X130790000Y-101970000D03*
X130790000Y-99430000D03*
X130790000Y-96890000D03*
X130790000Y-94350000D03*
X130790000Y-91810000D03*
X130790000Y-89270000D03*
X130790000Y-86730000D03*
X130790000Y-84190000D03*
X130790000Y-81650000D03*
X130790000Y-79110000D03*
X130790000Y-76570000D03*
X130790000Y-74030000D03*
X130790000Y-71490000D03*
X130790000Y-68950000D03*
X130790000Y-66410000D03*
X130790000Y-63870000D03*
X111210000Y-63870000D03*
X111210000Y-66410000D03*
X111210000Y-68950000D03*
X111210000Y-71490000D03*
X111210000Y-74030000D03*
X111210000Y-76570000D03*
X111210000Y-79110000D03*
X111210000Y-81650000D03*
X111210000Y-84190000D03*
X111210000Y-86730000D03*
X111210000Y-89270000D03*
X111210000Y-91810000D03*
X111210000Y-94350000D03*
X111210000Y-96890000D03*
X111210000Y-99430000D03*
X111210000Y-101970000D03*
X111210000Y-104510000D03*
X111210000Y-107050000D03*
X111210000Y-109590000D03*
X111210000Y-112130000D03*
D17*
X96500000Y-98302500D03*
X96500000Y-97667500D03*
X96500000Y-97032500D03*
X96500000Y-96397500D03*
X96500000Y-95762500D03*
X96500000Y-95127500D03*
X96500000Y-94492500D03*
X96500000Y-93857500D03*
X96500000Y-93222500D03*
X96500000Y-92587500D03*
X96500000Y-91952500D03*
X96500000Y-91317500D03*
X96500000Y-90682500D03*
X96500000Y-90047500D03*
X96500000Y-89412500D03*
X96500000Y-88777500D03*
X96500000Y-88142500D03*
X96500000Y-87507500D03*
X96500000Y-86872500D03*
X96500000Y-86237500D03*
X96500000Y-85602500D03*
X96500000Y-84967500D03*
X96500000Y-84332500D03*
X96500000Y-83697500D03*
X87100000Y-83697500D03*
X87100000Y-84332500D03*
X87100000Y-84967500D03*
X87100000Y-85602500D03*
X87100000Y-86237500D03*
X87100000Y-86872500D03*
X87100000Y-87507500D03*
X87100000Y-88142500D03*
X87100000Y-88777500D03*
X87100000Y-89412500D03*
X87100000Y-90047500D03*
X87100000Y-90682500D03*
X87100000Y-91317500D03*
X87100000Y-91952500D03*
X87100000Y-92587500D03*
X87100000Y-93222500D03*
X87100000Y-93857500D03*
X87100000Y-94492500D03*
X87100000Y-95127500D03*
X87100000Y-95762500D03*
X87100000Y-96397500D03*
X87100000Y-97032500D03*
X87100000Y-97667500D03*
X87100000Y-98302500D03*
D18*
X96137500Y-101500000D03*
X94062500Y-101500000D03*
D19*
X96895000Y-111800000D03*
X98165000Y-111800000D03*
X99435000Y-111800000D03*
X100705000Y-111800000D03*
X100705000Y-104300000D03*
X99435000Y-104300000D03*
X98165000Y-104300000D03*
X96895000Y-104300000D03*
D20*
X98800000Y-108050000D03*
D21*
X73000000Y-101337500D03*
X73000000Y-98262500D03*
D18*
X101775000Y-101500000D03*
X99700000Y-101500000D03*
D22*
X71600000Y-93660000D03*
D23*
X74140000Y-93660000D03*
X71600000Y-91120000D03*
X74140000Y-91120000D03*
X71600000Y-88580000D03*
X74140000Y-88580000D03*
X71600000Y-86040000D03*
X74140000Y-86040000D03*
X71600000Y-83500000D03*
X74140000Y-83500000D03*
X71600000Y-80960000D03*
X74140000Y-80960000D03*
X71600000Y-78420000D03*
X74140000Y-78420000D03*
X71600000Y-75880000D03*
X74140000Y-75880000D03*
X71600000Y-73340000D03*
X74140000Y-73340000D03*
X71600000Y-70800000D03*
X74140000Y-70800000D03*
X71600000Y-68260000D03*
X74140000Y-68260000D03*
X71600000Y-65720000D03*
X74140000Y-65720000D03*
X71600000Y-63180000D03*
X74140000Y-63180000D03*
X71600000Y-60640000D03*
X74140000Y-60640000D03*
X71600000Y-58100000D03*
X74140000Y-58100000D03*
X71600000Y-55560000D03*
X74140000Y-55560000D03*
X71600000Y-53020000D03*
X74140000Y-53020000D03*
D24*
X72700000Y-111150000D03*
X75000000Y-111150000D03*
D25*
X75000000Y-104850000D03*
D24*
X77300000Y-111150000D03*
D18*
X84737500Y-101500000D03*
X82662500Y-101500000D03*
D26*
X93750000Y-65447500D03*
X92480000Y-65447500D03*
X91210000Y-65447500D03*
D27*
X89697500Y-66960000D03*
X89697500Y-68230000D03*
X89697500Y-69500000D03*
X89697500Y-70770000D03*
X89697500Y-72040000D03*
D26*
X91210000Y-73552500D03*
X92480000Y-73552500D03*
X93750000Y-73552500D03*
X95020000Y-73552500D03*
X96290000Y-73552500D03*
D27*
X97802500Y-72040000D03*
X97802500Y-70770000D03*
X97802500Y-69500000D03*
X97802500Y-68230000D03*
X97802500Y-66960000D03*
D26*
X96290000Y-65447500D03*
X95020000Y-65447500D03*
D28*
X94462500Y-81000000D03*
X96537500Y-81000000D03*
D29*
X84000000Y-96062500D03*
X84000000Y-98137500D03*
D30*
X78700000Y-55300000D03*
X78700000Y-59300000D03*
D29*
X104500000Y-62325000D03*
X104500000Y-64400000D03*
D21*
X78000000Y-101337500D03*
X78000000Y-98262500D03*
D31*
X102600000Y-95200000D03*
D32*
X102600000Y-96000000D03*
X102600000Y-96800000D03*
D31*
X102600000Y-97600000D03*
X104400000Y-97600000D03*
D32*
X104400000Y-96800000D03*
X104400000Y-96000000D03*
D31*
X104400000Y-95200000D03*
D19*
X85295000Y-111800000D03*
X86565000Y-111800000D03*
X87835000Y-111800000D03*
X89105000Y-111800000D03*
X89105000Y-104300000D03*
X87835000Y-104300000D03*
X86565000Y-104300000D03*
X85295000Y-104300000D03*
D20*
X87200000Y-108050000D03*
D28*
X87362500Y-81000000D03*
X89437500Y-81000000D03*
D30*
X83400000Y-55300000D03*
X83400000Y-59300000D03*
%LPD*%
M02*
