%TF.GenerationSoftware,KiCad,Pcbnew,8.0.9*%
%TF.CreationDate,2025-05-10T12:34:39+01:00*%
%TF.ProjectId,megaflash,6d656761-666c-4617-9368-2e6b69636164,rev?*%
%TF.SameCoordinates,Original*%
%TF.FileFunction,Drillmap*%
%TF.FilePolarity,Positive*%
%FSLAX45Y45*%
G04 Gerber Fmt 4.5, Leading zero omitted, Abs format (unit mm)*
G04 Created by KiCad (PCBNEW 8.0.9) date 2025-05-10 12:34:39*
%MOMM*%
%LPD*%
G01*
G04 APERTURE LIST*
%ADD10C,0.100000*%
%ADD11C,0.200000*%
G04 APERTURE END LIST*
D10*
X6750000Y-11400000D02*
X13440000Y-11400000D01*
X9700000Y-5900000D02*
X7900000Y-5000000D01*
X6750000Y-5000000D02*
X7900000Y-5000000D01*
X13440000Y-5900000D02*
X9700000Y-5900000D01*
X6750000Y-5000000D02*
X6750000Y-11400000D01*
X13440000Y-11400000D02*
X13440000Y-5900000D01*
D11*
D10*
X6965000Y-11105000D02*
X6995000Y-11135000D01*
X6995000Y-11105000D02*
X6965000Y-11135000D01*
X7605000Y-5925000D02*
X7635000Y-5955000D01*
X7635000Y-5925000D02*
X7605000Y-5955000D01*
X7605000Y-6165000D02*
X7635000Y-6195000D01*
X7635000Y-6165000D02*
X7605000Y-6195000D01*
X7612000Y-9175000D02*
X7642000Y-9205000D01*
X7642000Y-9175000D02*
X7612000Y-9205000D01*
X7685000Y-8085000D02*
X7715000Y-8115000D01*
X7715000Y-8085000D02*
X7685000Y-8115000D01*
X7685000Y-9665000D02*
X7715000Y-9695000D01*
X7715000Y-9665000D02*
X7685000Y-9695000D01*
X7719000Y-6811000D02*
X7749000Y-6841000D01*
X7749000Y-6811000D02*
X7719000Y-6841000D01*
X7719000Y-7545000D02*
X7749000Y-7575000D01*
X7749000Y-7545000D02*
X7719000Y-7575000D01*
X7745000Y-8205000D02*
X7775000Y-8235000D01*
X7775000Y-8205000D02*
X7745000Y-8235000D01*
X7775000Y-9935000D02*
X7805000Y-9965000D01*
X7805000Y-9935000D02*
X7775000Y-9965000D01*
X7785000Y-6925000D02*
X7815000Y-6955000D01*
X7815000Y-6925000D02*
X7785000Y-6955000D01*
X7805000Y-8465000D02*
X7835000Y-8495000D01*
X7835000Y-8465000D02*
X7805000Y-8495000D01*
X7805000Y-7305000D02*
X7835000Y-7335000D01*
X7835000Y-7305000D02*
X7805000Y-7335000D01*
X7825000Y-9105000D02*
X7855000Y-9135000D01*
X7855000Y-9105000D02*
X7825000Y-9135000D01*
X7865000Y-8705000D02*
X7895000Y-8735000D01*
X7895000Y-8705000D02*
X7865000Y-8735000D01*
X7905000Y-6965000D02*
X7935000Y-6995000D01*
X7935000Y-6965000D02*
X7905000Y-6995000D01*
X7905000Y-9025000D02*
X7935000Y-9055000D01*
X7935000Y-9025000D02*
X7905000Y-9055000D01*
X7910000Y-7180000D02*
X7940000Y-7210000D01*
X7940000Y-7180000D02*
X7910000Y-7210000D01*
X7985000Y-6905000D02*
X8015000Y-6935000D01*
X8015000Y-6905000D02*
X7985000Y-6935000D01*
X7985000Y-7392000D02*
X8015000Y-7422000D01*
X8015000Y-7392000D02*
X7985000Y-7422000D01*
X7985000Y-8765000D02*
X8015000Y-8795000D01*
X8015000Y-8765000D02*
X7985000Y-8795000D01*
X7985000Y-8925000D02*
X8015000Y-8955000D01*
X8015000Y-8925000D02*
X7985000Y-8955000D01*
X8045000Y-9245300D02*
X8075000Y-9275300D01*
X8075000Y-9245300D02*
X8045000Y-9275300D01*
X8065000Y-6805000D02*
X8095000Y-6835000D01*
X8095000Y-6805000D02*
X8065000Y-6835000D01*
X8065000Y-7465000D02*
X8095000Y-7495000D01*
X8095000Y-7465000D02*
X8065000Y-7495000D01*
X8065000Y-8685000D02*
X8095000Y-8715000D01*
X8095000Y-8685000D02*
X8065000Y-8715000D01*
X8085000Y-10325000D02*
X8115000Y-10355000D01*
X8115000Y-10325000D02*
X8085000Y-10355000D01*
X8125000Y-6705000D02*
X8155000Y-6735000D01*
X8155000Y-6705000D02*
X8125000Y-6735000D01*
X8125000Y-7639000D02*
X8155000Y-7669000D01*
X8155000Y-7639000D02*
X8125000Y-7669000D01*
X8125000Y-8605000D02*
X8155000Y-8635000D01*
X8155000Y-8605000D02*
X8125000Y-8635000D01*
X8125000Y-9278000D02*
X8155000Y-9308000D01*
X8155000Y-9278000D02*
X8125000Y-9308000D01*
X8205000Y-8485000D02*
X8235000Y-8515000D01*
X8235000Y-8485000D02*
X8205000Y-8515000D01*
X8205000Y-9405000D02*
X8235000Y-9435000D01*
X8235000Y-9405000D02*
X8205000Y-9435000D01*
X8245000Y-9505000D02*
X8275000Y-9535000D01*
X8275000Y-9505000D02*
X8245000Y-9535000D01*
X8265000Y-7705000D02*
X8295000Y-7735000D01*
X8295000Y-7705000D02*
X8265000Y-7735000D01*
X8265000Y-6529750D02*
X8295000Y-6559750D01*
X8295000Y-6529750D02*
X8265000Y-6559750D01*
X8305000Y-8425000D02*
X8335000Y-8455000D01*
X8335000Y-8425000D02*
X8305000Y-8455000D01*
X8325000Y-11125000D02*
X8355000Y-11155000D01*
X8355000Y-11125000D02*
X8325000Y-11155000D01*
X8345000Y-10005000D02*
X8375000Y-10035000D01*
X8375000Y-10005000D02*
X8345000Y-10035000D01*
X8385000Y-6445000D02*
X8415000Y-6475000D01*
X8415000Y-6445000D02*
X8385000Y-6475000D01*
X8385000Y-7825000D02*
X8415000Y-7855000D01*
X8415000Y-7825000D02*
X8385000Y-7855000D01*
X8545000Y-8345000D02*
X8575000Y-8375000D01*
X8575000Y-8345000D02*
X8545000Y-8375000D01*
X8645000Y-7585000D02*
X8675000Y-7615000D01*
X8675000Y-7585000D02*
X8645000Y-7615000D01*
X8745000Y-7665000D02*
X8775000Y-7695000D01*
X8775000Y-7665000D02*
X8745000Y-7695000D01*
X8845000Y-9326750D02*
X8875000Y-9356750D01*
X8875000Y-9326750D02*
X8845000Y-9356750D01*
X8845000Y-9945000D02*
X8875000Y-9975000D01*
X8875000Y-9945000D02*
X8845000Y-9975000D01*
X8865000Y-9725000D02*
X8895000Y-9755000D01*
X8895000Y-9725000D02*
X8865000Y-9755000D01*
X8965000Y-8735000D02*
X8995000Y-8765000D01*
X8995000Y-8735000D02*
X8965000Y-8765000D01*
X8965000Y-9445000D02*
X8995000Y-9475000D01*
X8995000Y-9445000D02*
X8965000Y-9475000D01*
X8965000Y-9745000D02*
X8995000Y-9775000D01*
X8995000Y-9745000D02*
X8965000Y-9775000D01*
X9055250Y-8354750D02*
X9085250Y-8384750D01*
X9085250Y-8354750D02*
X9055250Y-8384750D01*
X9055250Y-9495250D02*
X9085250Y-9525250D01*
X9085250Y-9495250D02*
X9055250Y-9525250D01*
X9105000Y-7845000D02*
X9135000Y-7875000D01*
X9135000Y-7845000D02*
X9105000Y-7875000D01*
X9125000Y-6725000D02*
X9155000Y-6755000D01*
X9155000Y-6725000D02*
X9125000Y-6755000D01*
X9165000Y-6865000D02*
X9195000Y-6895000D01*
X9195000Y-6865000D02*
X9165000Y-6895000D01*
X9165000Y-9365000D02*
X9195000Y-9395000D01*
X9195000Y-9365000D02*
X9165000Y-9395000D01*
X9205000Y-10247500D02*
X9235000Y-10277500D01*
X9235000Y-10247500D02*
X9205000Y-10277500D01*
X9205000Y-10485000D02*
X9235000Y-10515000D01*
X9235000Y-10485000D02*
X9205000Y-10515000D01*
X9248000Y-7145000D02*
X9278000Y-7175000D01*
X9278000Y-7145000D02*
X9248000Y-7175000D01*
X9405000Y-8545000D02*
X9435000Y-8575000D01*
X9435000Y-8545000D02*
X9405000Y-8575000D01*
X9405000Y-8925000D02*
X9435000Y-8955000D01*
X9435000Y-8925000D02*
X9405000Y-8955000D01*
X9405000Y-9245000D02*
X9435000Y-9275000D01*
X9435000Y-9245000D02*
X9405000Y-9275000D01*
X9405000Y-9625000D02*
X9435000Y-9655000D01*
X9435000Y-9625000D02*
X9405000Y-9655000D01*
X9405000Y-9825000D02*
X9435000Y-9855000D01*
X9435000Y-9825000D02*
X9405000Y-9855000D01*
X9405000Y-9985000D02*
X9435000Y-10015000D01*
X9435000Y-9985000D02*
X9405000Y-10015000D01*
X9424000Y-8229281D02*
X9454000Y-8259281D01*
X9454000Y-8229281D02*
X9424000Y-8259281D01*
X9475250Y-9517250D02*
X9505250Y-9547250D01*
X9505250Y-9517250D02*
X9475250Y-9547250D01*
X9485000Y-9125000D02*
X9515000Y-9155000D01*
X9515000Y-9125000D02*
X9485000Y-9155000D01*
X9525000Y-6805000D02*
X9555000Y-6835000D01*
X9555000Y-6805000D02*
X9525000Y-6835000D01*
X9541000Y-7685000D02*
X9571000Y-7715000D01*
X9571000Y-7685000D02*
X9541000Y-7715000D01*
X9565000Y-6925000D02*
X9595000Y-6955000D01*
X9595000Y-6925000D02*
X9565000Y-6955000D01*
X9605000Y-11145000D02*
X9635000Y-11175000D01*
X9635000Y-11145000D02*
X9605000Y-11175000D01*
X9685000Y-7545000D02*
X9715000Y-7575000D01*
X9715000Y-7545000D02*
X9685000Y-7575000D01*
X9685000Y-8285000D02*
X9715000Y-8315000D01*
X9715000Y-8285000D02*
X9685000Y-8315000D01*
X9745000Y-10285000D02*
X9775000Y-10315000D01*
X9775000Y-10285000D02*
X9745000Y-10315000D01*
X9745000Y-10545000D02*
X9775000Y-10575000D01*
X9775000Y-10545000D02*
X9745000Y-10575000D01*
X9794750Y-9517250D02*
X9824750Y-9547250D01*
X9824750Y-9517250D02*
X9794750Y-9547250D01*
X9796750Y-9116750D02*
X9826750Y-9146750D01*
X9826750Y-9116750D02*
X9796750Y-9146750D01*
X9805000Y-7625000D02*
X9835000Y-7655000D01*
X9835000Y-7625000D02*
X9805000Y-7655000D01*
X9825000Y-9305000D02*
X9855000Y-9335000D01*
X9855000Y-9305000D02*
X9825000Y-9335000D01*
X9865001Y-8005000D02*
X9895001Y-8035000D01*
X9895001Y-8005000D02*
X9865001Y-8035000D01*
X9905000Y-9545000D02*
X9935000Y-9575000D01*
X9935000Y-9545000D02*
X9905000Y-9575000D01*
X9925000Y-7365000D02*
X9955000Y-7395000D01*
X9955000Y-7365000D02*
X9925000Y-7395000D01*
X9925000Y-9325000D02*
X9955000Y-9355000D01*
X9955000Y-9325000D02*
X9925000Y-9355000D01*
X9925000Y-9695000D02*
X9955000Y-9725000D01*
X9955000Y-9695000D02*
X9925000Y-9725000D01*
X9945000Y-6305000D02*
X9975000Y-6335000D01*
X9975000Y-6305000D02*
X9945000Y-6335000D01*
X9945000Y-6925000D02*
X9975000Y-6955000D01*
X9975000Y-6925000D02*
X9945000Y-6955000D01*
X9995725Y-9277850D02*
X10025725Y-9307850D01*
X10025725Y-9277850D02*
X9995725Y-9307850D01*
X10005000Y-7885000D02*
X10035000Y-7915000D01*
X10035000Y-7885000D02*
X10005000Y-7915000D01*
X10005000Y-9165000D02*
X10035000Y-9195000D01*
X10035000Y-9165000D02*
X10005000Y-9195000D01*
X10005000Y-9765000D02*
X10035000Y-9795000D01*
X10035000Y-9765000D02*
X10005000Y-9795000D01*
X10025000Y-7125000D02*
X10055000Y-7155000D01*
X10055000Y-7125000D02*
X10025000Y-7155000D01*
X10055000Y-6195000D02*
X10085000Y-6225000D01*
X10085000Y-6195000D02*
X10055000Y-6225000D01*
X10065000Y-8985000D02*
X10095000Y-9015000D01*
X10095000Y-8985000D02*
X10065000Y-9015000D01*
X10065001Y-6805001D02*
X10095001Y-6835001D01*
X10095001Y-6805001D02*
X10065001Y-6835001D01*
X10085000Y-9065000D02*
X10115000Y-9095000D01*
X10115000Y-9065000D02*
X10085000Y-9095000D01*
X10085000Y-9605000D02*
X10115000Y-9635000D01*
X10115000Y-9605000D02*
X10085000Y-9635000D01*
X10105000Y-7065000D02*
X10135000Y-7095000D01*
X10135000Y-7065000D02*
X10105000Y-7095000D01*
X10125000Y-6365000D02*
X10155000Y-6395000D01*
X10155000Y-6365000D02*
X10125000Y-6395000D01*
X10225000Y-6585000D02*
X10255000Y-6615000D01*
X10255000Y-6585000D02*
X10225000Y-6615000D01*
X10225000Y-7207000D02*
X10255000Y-7237000D01*
X10255000Y-7207000D02*
X10225000Y-7237000D01*
X10252000Y-6685000D02*
X10282000Y-6715000D01*
X10282000Y-6685000D02*
X10252000Y-6715000D01*
X10265000Y-8965000D02*
X10295000Y-8995000D01*
X10295000Y-8965000D02*
X10265000Y-8995000D01*
X10285000Y-8404000D02*
X10315000Y-8434000D01*
X10315000Y-8404000D02*
X10285000Y-8434000D01*
X10325000Y-6565000D02*
X10355000Y-6595000D01*
X10355000Y-6565000D02*
X10325000Y-6595000D01*
X10405000Y-8865000D02*
X10435000Y-8895000D01*
X10435000Y-8865000D02*
X10405000Y-8895000D01*
X10465000Y-11265000D02*
X10495000Y-11295000D01*
X10495000Y-11265000D02*
X10465000Y-11295000D01*
X10545000Y-6545000D02*
X10575000Y-6575000D01*
X10575000Y-6545000D02*
X10545000Y-6575000D01*
X10682000Y-7505000D02*
X10712000Y-7535000D01*
X10712000Y-7505000D02*
X10682000Y-7535000D01*
X10682000Y-8608750D02*
X10712000Y-8638750D01*
X10712000Y-8608750D02*
X10682000Y-8638750D01*
X10768000Y-10305000D02*
X10798000Y-10335000D01*
X10798000Y-10305000D02*
X10768000Y-10335000D01*
X10845000Y-8685000D02*
X10875000Y-8715000D01*
X10875000Y-8685000D02*
X10845000Y-8715000D01*
X10845000Y-8945000D02*
X10875000Y-8975000D01*
X10875000Y-8945000D02*
X10845000Y-8975000D01*
X11525000Y-9425000D02*
X11555000Y-9455000D01*
X11555000Y-9425000D02*
X11525000Y-9455000D01*
X11525000Y-10690000D02*
X11555000Y-10720000D01*
X11555000Y-10690000D02*
X11525000Y-10720000D01*
X11525000Y-11265000D02*
X11555000Y-11295000D01*
X11555000Y-11265000D02*
X11525000Y-11295000D01*
X11605000Y-9905000D02*
X11635000Y-9935000D01*
X11635000Y-9905000D02*
X11605000Y-9935000D01*
X11605000Y-11065000D02*
X11635000Y-11095000D01*
X11635000Y-11065000D02*
X11605000Y-11095000D01*
X12725000Y-7445000D02*
X12755000Y-7475000D01*
X12755000Y-7445000D02*
X12725000Y-7475000D01*
X12725000Y-8525000D02*
X12755000Y-8555000D01*
X12755000Y-8525000D02*
X12725000Y-8555000D01*
X12784998Y-9665000D02*
X12814998Y-9695000D01*
X12814998Y-9665000D02*
X12784998Y-9695000D01*
X12785000Y-10065000D02*
X12815000Y-10095000D01*
X12815000Y-10065000D02*
X12785000Y-10095000D01*
X12805000Y-8285000D02*
X12835000Y-8315000D01*
X12835000Y-8285000D02*
X12805000Y-8315000D01*
X12825000Y-7745000D02*
X12855000Y-7775000D01*
X12855000Y-7745000D02*
X12825000Y-7775000D01*
X13285000Y-6645000D02*
X13315000Y-6675000D01*
X13315000Y-6645000D02*
X13285000Y-6675000D01*
X13305000Y-6385000D02*
X13335000Y-6415000D01*
X13335000Y-6385000D02*
X13305000Y-6415000D01*
X7000000Y-9820000D02*
G75*
G02*
X6960000Y-9820000I-20000J0D01*
G01*
X6960000Y-9820000D02*
G75*
G02*
X7000000Y-9820000I20000J0D01*
G01*
X8120000Y-11120000D02*
G75*
G02*
X8080000Y-11120000I-20000J0D01*
G01*
X8080000Y-11120000D02*
G75*
G02*
X8120000Y-11120000I20000J0D01*
G01*
X8972867Y-10284500D02*
G75*
G02*
X8932867Y-10284500I-20000J0D01*
G01*
X8932867Y-10284500D02*
G75*
G02*
X8972867Y-10284500I20000J0D01*
G01*
X9000000Y-7940000D02*
G75*
G02*
X8960000Y-7940000I-20000J0D01*
G01*
X8960000Y-7940000D02*
G75*
G02*
X9000000Y-7940000I20000J0D01*
G01*
X9240000Y-11143000D02*
G75*
G02*
X9200000Y-11143000I-20000J0D01*
G01*
X9200000Y-11143000D02*
G75*
G02*
X9240000Y-11143000I20000J0D01*
G01*
X9260000Y-5880000D02*
G75*
G02*
X9220000Y-5880000I-20000J0D01*
G01*
X9220000Y-5880000D02*
G75*
G02*
X9260000Y-5880000I20000J0D01*
G01*
X9283000Y-8240000D02*
G75*
G02*
X9243000Y-8240000I-20000J0D01*
G01*
X9243000Y-8240000D02*
G75*
G02*
X9283000Y-8240000I20000J0D01*
G01*
X9353000Y-8120000D02*
G75*
G02*
X9313000Y-8120000I-20000J0D01*
G01*
X9313000Y-8120000D02*
G75*
G02*
X9353000Y-8120000I20000J0D01*
G01*
X9353000Y-8760000D02*
G75*
G02*
X9313000Y-8760000I-20000J0D01*
G01*
X9313000Y-8760000D02*
G75*
G02*
X9353000Y-8760000I20000J0D01*
G01*
X9353000Y-10981800D02*
G75*
G02*
X9313000Y-10981800I-20000J0D01*
G01*
X9313000Y-10981800D02*
G75*
G02*
X9353000Y-10981800I20000J0D01*
G01*
X9360000Y-9440000D02*
G75*
G02*
X9320000Y-9440000I-20000J0D01*
G01*
X9320000Y-9440000D02*
G75*
G02*
X9360000Y-9440000I20000J0D01*
G01*
X9420000Y-11320000D02*
G75*
G02*
X9380000Y-11320000I-20000J0D01*
G01*
X9380000Y-11320000D02*
G75*
G02*
X9420000Y-11320000I20000J0D01*
G01*
X9440000Y-7940000D02*
G75*
G02*
X9400000Y-7940000I-20000J0D01*
G01*
X9400000Y-7940000D02*
G75*
G02*
X9440000Y-7940000I20000J0D01*
G01*
X9520000Y-6140000D02*
G75*
G02*
X9480000Y-6140000I-20000J0D01*
G01*
X9480000Y-6140000D02*
G75*
G02*
X9520000Y-6140000I20000J0D01*
G01*
X9520000Y-6700000D02*
G75*
G02*
X9480000Y-6700000I-20000J0D01*
G01*
X9480000Y-6700000D02*
G75*
G02*
X9520000Y-6700000I20000J0D01*
G01*
X10160000Y-9800000D02*
G75*
G02*
X10120000Y-9800000I-20000J0D01*
G01*
X10120000Y-9800000D02*
G75*
G02*
X10160000Y-9800000I20000J0D01*
G01*
X10520000Y-10150000D02*
G75*
G02*
X10480000Y-10150000I-20000J0D01*
G01*
X10480000Y-10150000D02*
G75*
G02*
X10520000Y-10150000I20000J0D01*
G01*
X10520000Y-11000000D02*
G75*
G02*
X10480000Y-11000000I-20000J0D01*
G01*
X10480000Y-11000000D02*
G75*
G02*
X10520000Y-11000000I20000J0D01*
G01*
X10620000Y-8120000D02*
G75*
G02*
X10580000Y-8120000I-20000J0D01*
G01*
X10580000Y-8120000D02*
G75*
G02*
X10620000Y-8120000I20000J0D01*
G01*
X10620000Y-9600000D02*
G75*
G02*
X10580000Y-9600000I-20000J0D01*
G01*
X10580000Y-9600000D02*
G75*
G02*
X10620000Y-9600000I20000J0D01*
G01*
X10699999Y-9432999D02*
G75*
G02*
X10659999Y-9432999I-20000J0D01*
G01*
X10659999Y-9432999D02*
G75*
G02*
X10699999Y-9432999I20000J0D01*
G01*
X10707000Y-8820000D02*
G75*
G02*
X10667000Y-8820000I-20000J0D01*
G01*
X10667000Y-8820000D02*
G75*
G02*
X10707000Y-8820000I20000J0D01*
G01*
X10719999Y-10740000D02*
G75*
G02*
X10679999Y-10740000I-20000J0D01*
G01*
X10679999Y-10740000D02*
G75*
G02*
X10719999Y-10740000I20000J0D01*
G01*
X10800000Y-6047359D02*
G75*
G02*
X10760000Y-6047359I-20000J0D01*
G01*
X10760000Y-6047359D02*
G75*
G02*
X10800000Y-6047359I20000J0D01*
G01*
X10800000Y-9780000D02*
G75*
G02*
X10760000Y-9780000I-20000J0D01*
G01*
X10760000Y-9780000D02*
G75*
G02*
X10800000Y-9780000I20000J0D01*
G01*
X10880000Y-6283000D02*
G75*
G02*
X10840000Y-6283000I-20000J0D01*
G01*
X10840000Y-6283000D02*
G75*
G02*
X10880000Y-6283000I20000J0D01*
G01*
X10880000Y-6900000D02*
G75*
G02*
X10840000Y-6900000I-20000J0D01*
G01*
X10840000Y-6900000D02*
G75*
G02*
X10880000Y-6900000I20000J0D01*
G01*
X10880000Y-8120000D02*
G75*
G02*
X10840000Y-8120000I-20000J0D01*
G01*
X10840000Y-8120000D02*
G75*
G02*
X10880000Y-8120000I20000J0D01*
G01*
X10880000Y-10960000D02*
G75*
G02*
X10840000Y-10960000I-20000J0D01*
G01*
X10840000Y-10960000D02*
G75*
G02*
X10880000Y-10960000I20000J0D01*
G01*
X7160000Y-5252000D02*
X7160000Y-5352000D01*
X7110000Y-5302000D02*
X7210000Y-5302000D01*
X7160000Y-5506000D02*
X7160000Y-5606000D01*
X7110000Y-5556000D02*
X7210000Y-5556000D01*
X7160000Y-5760000D02*
X7160000Y-5860000D01*
X7110000Y-5810000D02*
X7210000Y-5810000D01*
X7160000Y-6014000D02*
X7160000Y-6114000D01*
X7110000Y-6064000D02*
X7210000Y-6064000D01*
X7160000Y-6268000D02*
X7160000Y-6368000D01*
X7110000Y-6318000D02*
X7210000Y-6318000D01*
X7160000Y-6522000D02*
X7160000Y-6622000D01*
X7110000Y-6572000D02*
X7210000Y-6572000D01*
X7160000Y-6776000D02*
X7160000Y-6876000D01*
X7110000Y-6826000D02*
X7210000Y-6826000D01*
X7160000Y-7030000D02*
X7160000Y-7130000D01*
X7110000Y-7080000D02*
X7210000Y-7080000D01*
X7160000Y-7284000D02*
X7160000Y-7384000D01*
X7110000Y-7334000D02*
X7210000Y-7334000D01*
X7160000Y-7538000D02*
X7160000Y-7638000D01*
X7110000Y-7588000D02*
X7210000Y-7588000D01*
X7160000Y-7792000D02*
X7160000Y-7892000D01*
X7110000Y-7842000D02*
X7210000Y-7842000D01*
X7160000Y-8046000D02*
X7160000Y-8146000D01*
X7110000Y-8096000D02*
X7210000Y-8096000D01*
X7160000Y-8300000D02*
X7160000Y-8400000D01*
X7110000Y-8350000D02*
X7210000Y-8350000D01*
X7160000Y-8554000D02*
X7160000Y-8654000D01*
X7110000Y-8604000D02*
X7210000Y-8604000D01*
X7160000Y-8808000D02*
X7160000Y-8908000D01*
X7110000Y-8858000D02*
X7210000Y-8858000D01*
X7160000Y-9062000D02*
X7160000Y-9162000D01*
X7110000Y-9112000D02*
X7210000Y-9112000D01*
X7160000Y-9316000D02*
X7160000Y-9416000D01*
X7110000Y-9366000D02*
X7210000Y-9366000D01*
X7414000Y-5252000D02*
X7414000Y-5352000D01*
X7364000Y-5302000D02*
X7464000Y-5302000D01*
X7414000Y-5506000D02*
X7414000Y-5606000D01*
X7364000Y-5556000D02*
X7464000Y-5556000D01*
X7414000Y-5760000D02*
X7414000Y-5860000D01*
X7364000Y-5810000D02*
X7464000Y-5810000D01*
X7414000Y-6014000D02*
X7414000Y-6114000D01*
X7364000Y-6064000D02*
X7464000Y-6064000D01*
X7414000Y-6268000D02*
X7414000Y-6368000D01*
X7364000Y-6318000D02*
X7464000Y-6318000D01*
X7414000Y-6522000D02*
X7414000Y-6622000D01*
X7364000Y-6572000D02*
X7464000Y-6572000D01*
X7414000Y-6776000D02*
X7414000Y-6876000D01*
X7364000Y-6826000D02*
X7464000Y-6826000D01*
X7414000Y-7030000D02*
X7414000Y-7130000D01*
X7364000Y-7080000D02*
X7464000Y-7080000D01*
X7414000Y-7284000D02*
X7414000Y-7384000D01*
X7364000Y-7334000D02*
X7464000Y-7334000D01*
X7414000Y-7538000D02*
X7414000Y-7638000D01*
X7364000Y-7588000D02*
X7464000Y-7588000D01*
X7414000Y-7792000D02*
X7414000Y-7892000D01*
X7364000Y-7842000D02*
X7464000Y-7842000D01*
X7414000Y-8046000D02*
X7414000Y-8146000D01*
X7364000Y-8096000D02*
X7464000Y-8096000D01*
X7414000Y-8300000D02*
X7414000Y-8400000D01*
X7364000Y-8350000D02*
X7464000Y-8350000D01*
X7414000Y-8554000D02*
X7414000Y-8654000D01*
X7364000Y-8604000D02*
X7464000Y-8604000D01*
X7414000Y-8808000D02*
X7414000Y-8908000D01*
X7364000Y-8858000D02*
X7464000Y-8858000D01*
X7414000Y-9062000D02*
X7414000Y-9162000D01*
X7364000Y-9112000D02*
X7464000Y-9112000D01*
X7414000Y-9316000D02*
X7414000Y-9416000D01*
X7364000Y-9366000D02*
X7464000Y-9366000D01*
D11*
X7005777Y-11716484D02*
X7005777Y-11516484D01*
X7005777Y-11516484D02*
X7053396Y-11516484D01*
X7053396Y-11516484D02*
X7081967Y-11526008D01*
X7081967Y-11526008D02*
X7101015Y-11545055D01*
X7101015Y-11545055D02*
X7110539Y-11564103D01*
X7110539Y-11564103D02*
X7120062Y-11602198D01*
X7120062Y-11602198D02*
X7120062Y-11630769D01*
X7120062Y-11630769D02*
X7110539Y-11668865D01*
X7110539Y-11668865D02*
X7101015Y-11687912D01*
X7101015Y-11687912D02*
X7081967Y-11706960D01*
X7081967Y-11706960D02*
X7053396Y-11716484D01*
X7053396Y-11716484D02*
X7005777Y-11716484D01*
X7205777Y-11716484D02*
X7205777Y-11583150D01*
X7205777Y-11621246D02*
X7215301Y-11602198D01*
X7215301Y-11602198D02*
X7224824Y-11592674D01*
X7224824Y-11592674D02*
X7243872Y-11583150D01*
X7243872Y-11583150D02*
X7262920Y-11583150D01*
X7329586Y-11716484D02*
X7329586Y-11583150D01*
X7329586Y-11516484D02*
X7320062Y-11526008D01*
X7320062Y-11526008D02*
X7329586Y-11535531D01*
X7329586Y-11535531D02*
X7339110Y-11526008D01*
X7339110Y-11526008D02*
X7329586Y-11516484D01*
X7329586Y-11516484D02*
X7329586Y-11535531D01*
X7453396Y-11716484D02*
X7434348Y-11706960D01*
X7434348Y-11706960D02*
X7424824Y-11687912D01*
X7424824Y-11687912D02*
X7424824Y-11516484D01*
X7558158Y-11716484D02*
X7539110Y-11706960D01*
X7539110Y-11706960D02*
X7529586Y-11687912D01*
X7529586Y-11687912D02*
X7529586Y-11516484D01*
X7786729Y-11716484D02*
X7786729Y-11516484D01*
X7786729Y-11516484D02*
X7853396Y-11659341D01*
X7853396Y-11659341D02*
X7920062Y-11516484D01*
X7920062Y-11516484D02*
X7920062Y-11716484D01*
X8101015Y-11716484D02*
X8101015Y-11611722D01*
X8101015Y-11611722D02*
X8091491Y-11592674D01*
X8091491Y-11592674D02*
X8072443Y-11583150D01*
X8072443Y-11583150D02*
X8034348Y-11583150D01*
X8034348Y-11583150D02*
X8015301Y-11592674D01*
X8101015Y-11706960D02*
X8081967Y-11716484D01*
X8081967Y-11716484D02*
X8034348Y-11716484D01*
X8034348Y-11716484D02*
X8015301Y-11706960D01*
X8015301Y-11706960D02*
X8005777Y-11687912D01*
X8005777Y-11687912D02*
X8005777Y-11668865D01*
X8005777Y-11668865D02*
X8015301Y-11649817D01*
X8015301Y-11649817D02*
X8034348Y-11640293D01*
X8034348Y-11640293D02*
X8081967Y-11640293D01*
X8081967Y-11640293D02*
X8101015Y-11630769D01*
X8196253Y-11583150D02*
X8196253Y-11783150D01*
X8196253Y-11592674D02*
X8215301Y-11583150D01*
X8215301Y-11583150D02*
X8253396Y-11583150D01*
X8253396Y-11583150D02*
X8272443Y-11592674D01*
X8272443Y-11592674D02*
X8281967Y-11602198D01*
X8281967Y-11602198D02*
X8291491Y-11621246D01*
X8291491Y-11621246D02*
X8291491Y-11678388D01*
X8291491Y-11678388D02*
X8281967Y-11697436D01*
X8281967Y-11697436D02*
X8272443Y-11706960D01*
X8272443Y-11706960D02*
X8253396Y-11716484D01*
X8253396Y-11716484D02*
X8215301Y-11716484D01*
X8215301Y-11716484D02*
X8196253Y-11706960D01*
X8377205Y-11697436D02*
X8386729Y-11706960D01*
X8386729Y-11706960D02*
X8377205Y-11716484D01*
X8377205Y-11716484D02*
X8367682Y-11706960D01*
X8367682Y-11706960D02*
X8377205Y-11697436D01*
X8377205Y-11697436D02*
X8377205Y-11716484D01*
X8377205Y-11592674D02*
X8386729Y-11602198D01*
X8386729Y-11602198D02*
X8377205Y-11611722D01*
X8377205Y-11611722D02*
X8367682Y-11602198D01*
X8367682Y-11602198D02*
X8377205Y-11592674D01*
X8377205Y-11592674D02*
X8377205Y-11611722D01*
D10*
X6715000Y-12030000D02*
X6745000Y-12060000D01*
X6745000Y-12030000D02*
X6715000Y-12060000D01*
D11*
X7043872Y-11936484D02*
X7062920Y-11936484D01*
X7062920Y-11936484D02*
X7081967Y-11946008D01*
X7081967Y-11946008D02*
X7091491Y-11955531D01*
X7091491Y-11955531D02*
X7101015Y-11974579D01*
X7101015Y-11974579D02*
X7110539Y-12012674D01*
X7110539Y-12012674D02*
X7110539Y-12060293D01*
X7110539Y-12060293D02*
X7101015Y-12098388D01*
X7101015Y-12098388D02*
X7091491Y-12117436D01*
X7091491Y-12117436D02*
X7081967Y-12126960D01*
X7081967Y-12126960D02*
X7062920Y-12136484D01*
X7062920Y-12136484D02*
X7043872Y-12136484D01*
X7043872Y-12136484D02*
X7024824Y-12126960D01*
X7024824Y-12126960D02*
X7015301Y-12117436D01*
X7015301Y-12117436D02*
X7005777Y-12098388D01*
X7005777Y-12098388D02*
X6996253Y-12060293D01*
X6996253Y-12060293D02*
X6996253Y-12012674D01*
X6996253Y-12012674D02*
X7005777Y-11974579D01*
X7005777Y-11974579D02*
X7015301Y-11955531D01*
X7015301Y-11955531D02*
X7024824Y-11946008D01*
X7024824Y-11946008D02*
X7043872Y-11936484D01*
X7196253Y-12117436D02*
X7205777Y-12126960D01*
X7205777Y-12126960D02*
X7196253Y-12136484D01*
X7196253Y-12136484D02*
X7186729Y-12126960D01*
X7186729Y-12126960D02*
X7196253Y-12117436D01*
X7196253Y-12117436D02*
X7196253Y-12136484D01*
X7272443Y-11936484D02*
X7396253Y-11936484D01*
X7396253Y-11936484D02*
X7329586Y-12012674D01*
X7329586Y-12012674D02*
X7358158Y-12012674D01*
X7358158Y-12012674D02*
X7377205Y-12022198D01*
X7377205Y-12022198D02*
X7386729Y-12031722D01*
X7386729Y-12031722D02*
X7396253Y-12050769D01*
X7396253Y-12050769D02*
X7396253Y-12098388D01*
X7396253Y-12098388D02*
X7386729Y-12117436D01*
X7386729Y-12117436D02*
X7377205Y-12126960D01*
X7377205Y-12126960D02*
X7358158Y-12136484D01*
X7358158Y-12136484D02*
X7301015Y-12136484D01*
X7301015Y-12136484D02*
X7281967Y-12126960D01*
X7281967Y-12126960D02*
X7272443Y-12117436D01*
X7520062Y-11936484D02*
X7539110Y-11936484D01*
X7539110Y-11936484D02*
X7558158Y-11946008D01*
X7558158Y-11946008D02*
X7567682Y-11955531D01*
X7567682Y-11955531D02*
X7577205Y-11974579D01*
X7577205Y-11974579D02*
X7586729Y-12012674D01*
X7586729Y-12012674D02*
X7586729Y-12060293D01*
X7586729Y-12060293D02*
X7577205Y-12098388D01*
X7577205Y-12098388D02*
X7567682Y-12117436D01*
X7567682Y-12117436D02*
X7558158Y-12126960D01*
X7558158Y-12126960D02*
X7539110Y-12136484D01*
X7539110Y-12136484D02*
X7520062Y-12136484D01*
X7520062Y-12136484D02*
X7501015Y-12126960D01*
X7501015Y-12126960D02*
X7491491Y-12117436D01*
X7491491Y-12117436D02*
X7481967Y-12098388D01*
X7481967Y-12098388D02*
X7472443Y-12060293D01*
X7472443Y-12060293D02*
X7472443Y-12012674D01*
X7472443Y-12012674D02*
X7481967Y-11974579D01*
X7481967Y-11974579D02*
X7491491Y-11955531D01*
X7491491Y-11955531D02*
X7501015Y-11946008D01*
X7501015Y-11946008D02*
X7520062Y-11936484D01*
X7710539Y-11936484D02*
X7729586Y-11936484D01*
X7729586Y-11936484D02*
X7748634Y-11946008D01*
X7748634Y-11946008D02*
X7758158Y-11955531D01*
X7758158Y-11955531D02*
X7767682Y-11974579D01*
X7767682Y-11974579D02*
X7777205Y-12012674D01*
X7777205Y-12012674D02*
X7777205Y-12060293D01*
X7777205Y-12060293D02*
X7767682Y-12098388D01*
X7767682Y-12098388D02*
X7758158Y-12117436D01*
X7758158Y-12117436D02*
X7748634Y-12126960D01*
X7748634Y-12126960D02*
X7729586Y-12136484D01*
X7729586Y-12136484D02*
X7710539Y-12136484D01*
X7710539Y-12136484D02*
X7691491Y-12126960D01*
X7691491Y-12126960D02*
X7681967Y-12117436D01*
X7681967Y-12117436D02*
X7672443Y-12098388D01*
X7672443Y-12098388D02*
X7662920Y-12060293D01*
X7662920Y-12060293D02*
X7662920Y-12012674D01*
X7662920Y-12012674D02*
X7672443Y-11974579D01*
X7672443Y-11974579D02*
X7681967Y-11955531D01*
X7681967Y-11955531D02*
X7691491Y-11946008D01*
X7691491Y-11946008D02*
X7710539Y-11936484D01*
X7862920Y-12136484D02*
X7862920Y-12003150D01*
X7862920Y-12022198D02*
X7872443Y-12012674D01*
X7872443Y-12012674D02*
X7891491Y-12003150D01*
X7891491Y-12003150D02*
X7920063Y-12003150D01*
X7920063Y-12003150D02*
X7939110Y-12012674D01*
X7939110Y-12012674D02*
X7948634Y-12031722D01*
X7948634Y-12031722D02*
X7948634Y-12136484D01*
X7948634Y-12031722D02*
X7958158Y-12012674D01*
X7958158Y-12012674D02*
X7977205Y-12003150D01*
X7977205Y-12003150D02*
X8005777Y-12003150D01*
X8005777Y-12003150D02*
X8024824Y-12012674D01*
X8024824Y-12012674D02*
X8034348Y-12031722D01*
X8034348Y-12031722D02*
X8034348Y-12136484D01*
X8129586Y-12136484D02*
X8129586Y-12003150D01*
X8129586Y-12022198D02*
X8139110Y-12012674D01*
X8139110Y-12012674D02*
X8158158Y-12003150D01*
X8158158Y-12003150D02*
X8186729Y-12003150D01*
X8186729Y-12003150D02*
X8205777Y-12012674D01*
X8205777Y-12012674D02*
X8215301Y-12031722D01*
X8215301Y-12031722D02*
X8215301Y-12136484D01*
X8215301Y-12031722D02*
X8224824Y-12012674D01*
X8224824Y-12012674D02*
X8243872Y-12003150D01*
X8243872Y-12003150D02*
X8272443Y-12003150D01*
X8272443Y-12003150D02*
X8291491Y-12012674D01*
X8291491Y-12012674D02*
X8301015Y-12031722D01*
X8301015Y-12031722D02*
X8301015Y-12136484D01*
X8691491Y-11926960D02*
X8520063Y-12184103D01*
X8948634Y-11936484D02*
X8967682Y-11936484D01*
X8967682Y-11936484D02*
X8986729Y-11946008D01*
X8986729Y-11946008D02*
X8996253Y-11955531D01*
X8996253Y-11955531D02*
X9005777Y-11974579D01*
X9005777Y-11974579D02*
X9015301Y-12012674D01*
X9015301Y-12012674D02*
X9015301Y-12060293D01*
X9015301Y-12060293D02*
X9005777Y-12098388D01*
X9005777Y-12098388D02*
X8996253Y-12117436D01*
X8996253Y-12117436D02*
X8986729Y-12126960D01*
X8986729Y-12126960D02*
X8967682Y-12136484D01*
X8967682Y-12136484D02*
X8948634Y-12136484D01*
X8948634Y-12136484D02*
X8929587Y-12126960D01*
X8929587Y-12126960D02*
X8920063Y-12117436D01*
X8920063Y-12117436D02*
X8910539Y-12098388D01*
X8910539Y-12098388D02*
X8901015Y-12060293D01*
X8901015Y-12060293D02*
X8901015Y-12012674D01*
X8901015Y-12012674D02*
X8910539Y-11974579D01*
X8910539Y-11974579D02*
X8920063Y-11955531D01*
X8920063Y-11955531D02*
X8929587Y-11946008D01*
X8929587Y-11946008D02*
X8948634Y-11936484D01*
X9101015Y-12117436D02*
X9110539Y-12126960D01*
X9110539Y-12126960D02*
X9101015Y-12136484D01*
X9101015Y-12136484D02*
X9091491Y-12126960D01*
X9091491Y-12126960D02*
X9101015Y-12117436D01*
X9101015Y-12117436D02*
X9101015Y-12136484D01*
X9234348Y-11936484D02*
X9253396Y-11936484D01*
X9253396Y-11936484D02*
X9272444Y-11946008D01*
X9272444Y-11946008D02*
X9281968Y-11955531D01*
X9281968Y-11955531D02*
X9291491Y-11974579D01*
X9291491Y-11974579D02*
X9301015Y-12012674D01*
X9301015Y-12012674D02*
X9301015Y-12060293D01*
X9301015Y-12060293D02*
X9291491Y-12098388D01*
X9291491Y-12098388D02*
X9281968Y-12117436D01*
X9281968Y-12117436D02*
X9272444Y-12126960D01*
X9272444Y-12126960D02*
X9253396Y-12136484D01*
X9253396Y-12136484D02*
X9234348Y-12136484D01*
X9234348Y-12136484D02*
X9215301Y-12126960D01*
X9215301Y-12126960D02*
X9205777Y-12117436D01*
X9205777Y-12117436D02*
X9196253Y-12098388D01*
X9196253Y-12098388D02*
X9186729Y-12060293D01*
X9186729Y-12060293D02*
X9186729Y-12012674D01*
X9186729Y-12012674D02*
X9196253Y-11974579D01*
X9196253Y-11974579D02*
X9205777Y-11955531D01*
X9205777Y-11955531D02*
X9215301Y-11946008D01*
X9215301Y-11946008D02*
X9234348Y-11936484D01*
X9491491Y-12136484D02*
X9377206Y-12136484D01*
X9434348Y-12136484D02*
X9434348Y-11936484D01*
X9434348Y-11936484D02*
X9415301Y-11965055D01*
X9415301Y-11965055D02*
X9396253Y-11984103D01*
X9396253Y-11984103D02*
X9377206Y-11993627D01*
X9681968Y-12136484D02*
X9567682Y-12136484D01*
X9624825Y-12136484D02*
X9624825Y-11936484D01*
X9624825Y-11936484D02*
X9605777Y-11965055D01*
X9605777Y-11965055D02*
X9586729Y-11984103D01*
X9586729Y-11984103D02*
X9567682Y-11993627D01*
X9796253Y-12022198D02*
X9777206Y-12012674D01*
X9777206Y-12012674D02*
X9767682Y-12003150D01*
X9767682Y-12003150D02*
X9758158Y-11984103D01*
X9758158Y-11984103D02*
X9758158Y-11974579D01*
X9758158Y-11974579D02*
X9767682Y-11955531D01*
X9767682Y-11955531D02*
X9777206Y-11946008D01*
X9777206Y-11946008D02*
X9796253Y-11936484D01*
X9796253Y-11936484D02*
X9834349Y-11936484D01*
X9834349Y-11936484D02*
X9853396Y-11946008D01*
X9853396Y-11946008D02*
X9862920Y-11955531D01*
X9862920Y-11955531D02*
X9872444Y-11974579D01*
X9872444Y-11974579D02*
X9872444Y-11984103D01*
X9872444Y-11984103D02*
X9862920Y-12003150D01*
X9862920Y-12003150D02*
X9853396Y-12012674D01*
X9853396Y-12012674D02*
X9834349Y-12022198D01*
X9834349Y-12022198D02*
X9796253Y-12022198D01*
X9796253Y-12022198D02*
X9777206Y-12031722D01*
X9777206Y-12031722D02*
X9767682Y-12041246D01*
X9767682Y-12041246D02*
X9758158Y-12060293D01*
X9758158Y-12060293D02*
X9758158Y-12098388D01*
X9758158Y-12098388D02*
X9767682Y-12117436D01*
X9767682Y-12117436D02*
X9777206Y-12126960D01*
X9777206Y-12126960D02*
X9796253Y-12136484D01*
X9796253Y-12136484D02*
X9834349Y-12136484D01*
X9834349Y-12136484D02*
X9853396Y-12126960D01*
X9853396Y-12126960D02*
X9862920Y-12117436D01*
X9862920Y-12117436D02*
X9872444Y-12098388D01*
X9872444Y-12098388D02*
X9872444Y-12060293D01*
X9872444Y-12060293D02*
X9862920Y-12041246D01*
X9862920Y-12041246D02*
X9853396Y-12031722D01*
X9853396Y-12031722D02*
X9834349Y-12022198D01*
X9948634Y-11936484D02*
X9948634Y-11974579D01*
X10024825Y-11936484D02*
X10024825Y-11974579D01*
X10320063Y-12212674D02*
X10310539Y-12203150D01*
X10310539Y-12203150D02*
X10291491Y-12174579D01*
X10291491Y-12174579D02*
X10281968Y-12155531D01*
X10281968Y-12155531D02*
X10272444Y-12126960D01*
X10272444Y-12126960D02*
X10262920Y-12079341D01*
X10262920Y-12079341D02*
X10262920Y-12041246D01*
X10262920Y-12041246D02*
X10272444Y-11993627D01*
X10272444Y-11993627D02*
X10281968Y-11965055D01*
X10281968Y-11965055D02*
X10291491Y-11946008D01*
X10291491Y-11946008D02*
X10310539Y-11917436D01*
X10310539Y-11917436D02*
X10320063Y-11907912D01*
X10501015Y-12136484D02*
X10386730Y-12136484D01*
X10443872Y-12136484D02*
X10443872Y-11936484D01*
X10443872Y-11936484D02*
X10424825Y-11965055D01*
X10424825Y-11965055D02*
X10405777Y-11984103D01*
X10405777Y-11984103D02*
X10386730Y-11993627D01*
X10577206Y-11955531D02*
X10586730Y-11946008D01*
X10586730Y-11946008D02*
X10605777Y-11936484D01*
X10605777Y-11936484D02*
X10653396Y-11936484D01*
X10653396Y-11936484D02*
X10672444Y-11946008D01*
X10672444Y-11946008D02*
X10681968Y-11955531D01*
X10681968Y-11955531D02*
X10691491Y-11974579D01*
X10691491Y-11974579D02*
X10691491Y-11993627D01*
X10691491Y-11993627D02*
X10681968Y-12022198D01*
X10681968Y-12022198D02*
X10567682Y-12136484D01*
X10567682Y-12136484D02*
X10691491Y-12136484D01*
X10862920Y-11936484D02*
X10824825Y-11936484D01*
X10824825Y-11936484D02*
X10805777Y-11946008D01*
X10805777Y-11946008D02*
X10796253Y-11955531D01*
X10796253Y-11955531D02*
X10777206Y-11984103D01*
X10777206Y-11984103D02*
X10767682Y-12022198D01*
X10767682Y-12022198D02*
X10767682Y-12098388D01*
X10767682Y-12098388D02*
X10777206Y-12117436D01*
X10777206Y-12117436D02*
X10786730Y-12126960D01*
X10786730Y-12126960D02*
X10805777Y-12136484D01*
X10805777Y-12136484D02*
X10843872Y-12136484D01*
X10843872Y-12136484D02*
X10862920Y-12126960D01*
X10862920Y-12126960D02*
X10872444Y-12117436D01*
X10872444Y-12117436D02*
X10881968Y-12098388D01*
X10881968Y-12098388D02*
X10881968Y-12050769D01*
X10881968Y-12050769D02*
X10872444Y-12031722D01*
X10872444Y-12031722D02*
X10862920Y-12022198D01*
X10862920Y-12022198D02*
X10843872Y-12012674D01*
X10843872Y-12012674D02*
X10805777Y-12012674D01*
X10805777Y-12012674D02*
X10786730Y-12022198D01*
X10786730Y-12022198D02*
X10777206Y-12031722D01*
X10777206Y-12031722D02*
X10767682Y-12050769D01*
X11120063Y-12136484D02*
X11120063Y-11936484D01*
X11205777Y-12136484D02*
X11205777Y-12031722D01*
X11205777Y-12031722D02*
X11196253Y-12012674D01*
X11196253Y-12012674D02*
X11177206Y-12003150D01*
X11177206Y-12003150D02*
X11148634Y-12003150D01*
X11148634Y-12003150D02*
X11129587Y-12012674D01*
X11129587Y-12012674D02*
X11120063Y-12022198D01*
X11329587Y-12136484D02*
X11310539Y-12126960D01*
X11310539Y-12126960D02*
X11301015Y-12117436D01*
X11301015Y-12117436D02*
X11291491Y-12098388D01*
X11291491Y-12098388D02*
X11291491Y-12041246D01*
X11291491Y-12041246D02*
X11301015Y-12022198D01*
X11301015Y-12022198D02*
X11310539Y-12012674D01*
X11310539Y-12012674D02*
X11329587Y-12003150D01*
X11329587Y-12003150D02*
X11358158Y-12003150D01*
X11358158Y-12003150D02*
X11377206Y-12012674D01*
X11377206Y-12012674D02*
X11386730Y-12022198D01*
X11386730Y-12022198D02*
X11396253Y-12041246D01*
X11396253Y-12041246D02*
X11396253Y-12098388D01*
X11396253Y-12098388D02*
X11386730Y-12117436D01*
X11386730Y-12117436D02*
X11377206Y-12126960D01*
X11377206Y-12126960D02*
X11358158Y-12136484D01*
X11358158Y-12136484D02*
X11329587Y-12136484D01*
X11510539Y-12136484D02*
X11491491Y-12126960D01*
X11491491Y-12126960D02*
X11481968Y-12107912D01*
X11481968Y-12107912D02*
X11481968Y-11936484D01*
X11662920Y-12126960D02*
X11643872Y-12136484D01*
X11643872Y-12136484D02*
X11605777Y-12136484D01*
X11605777Y-12136484D02*
X11586730Y-12126960D01*
X11586730Y-12126960D02*
X11577206Y-12107912D01*
X11577206Y-12107912D02*
X11577206Y-12031722D01*
X11577206Y-12031722D02*
X11586730Y-12012674D01*
X11586730Y-12012674D02*
X11605777Y-12003150D01*
X11605777Y-12003150D02*
X11643872Y-12003150D01*
X11643872Y-12003150D02*
X11662920Y-12012674D01*
X11662920Y-12012674D02*
X11672444Y-12031722D01*
X11672444Y-12031722D02*
X11672444Y-12050769D01*
X11672444Y-12050769D02*
X11577206Y-12069817D01*
X11748634Y-12126960D02*
X11767682Y-12136484D01*
X11767682Y-12136484D02*
X11805777Y-12136484D01*
X11805777Y-12136484D02*
X11824825Y-12126960D01*
X11824825Y-12126960D02*
X11834349Y-12107912D01*
X11834349Y-12107912D02*
X11834349Y-12098388D01*
X11834349Y-12098388D02*
X11824825Y-12079341D01*
X11824825Y-12079341D02*
X11805777Y-12069817D01*
X11805777Y-12069817D02*
X11777206Y-12069817D01*
X11777206Y-12069817D02*
X11758158Y-12060293D01*
X11758158Y-12060293D02*
X11748634Y-12041246D01*
X11748634Y-12041246D02*
X11748634Y-12031722D01*
X11748634Y-12031722D02*
X11758158Y-12012674D01*
X11758158Y-12012674D02*
X11777206Y-12003150D01*
X11777206Y-12003150D02*
X11805777Y-12003150D01*
X11805777Y-12003150D02*
X11824825Y-12012674D01*
X11901015Y-12212674D02*
X11910539Y-12203150D01*
X11910539Y-12203150D02*
X11929587Y-12174579D01*
X11929587Y-12174579D02*
X11939111Y-12155531D01*
X11939111Y-12155531D02*
X11948634Y-12126960D01*
X11948634Y-12126960D02*
X11958158Y-12079341D01*
X11958158Y-12079341D02*
X11958158Y-12041246D01*
X11958158Y-12041246D02*
X11948634Y-11993627D01*
X11948634Y-11993627D02*
X11939111Y-11965055D01*
X11939111Y-11965055D02*
X11929587Y-11946008D01*
X11929587Y-11946008D02*
X11910539Y-11917436D01*
X11910539Y-11917436D02*
X11901015Y-11907912D01*
D10*
X6745000Y-12309000D02*
G75*
G02*
X6705000Y-12309000I-20000J0D01*
G01*
X6705000Y-12309000D02*
G75*
G02*
X6745000Y-12309000I20000J0D01*
G01*
D11*
X7043872Y-12200484D02*
X7062920Y-12200484D01*
X7062920Y-12200484D02*
X7081967Y-12210008D01*
X7081967Y-12210008D02*
X7091491Y-12219531D01*
X7091491Y-12219531D02*
X7101015Y-12238579D01*
X7101015Y-12238579D02*
X7110539Y-12276674D01*
X7110539Y-12276674D02*
X7110539Y-12324293D01*
X7110539Y-12324293D02*
X7101015Y-12362388D01*
X7101015Y-12362388D02*
X7091491Y-12381436D01*
X7091491Y-12381436D02*
X7081967Y-12390960D01*
X7081967Y-12390960D02*
X7062920Y-12400484D01*
X7062920Y-12400484D02*
X7043872Y-12400484D01*
X7043872Y-12400484D02*
X7024824Y-12390960D01*
X7024824Y-12390960D02*
X7015301Y-12381436D01*
X7015301Y-12381436D02*
X7005777Y-12362388D01*
X7005777Y-12362388D02*
X6996253Y-12324293D01*
X6996253Y-12324293D02*
X6996253Y-12276674D01*
X6996253Y-12276674D02*
X7005777Y-12238579D01*
X7005777Y-12238579D02*
X7015301Y-12219531D01*
X7015301Y-12219531D02*
X7024824Y-12210008D01*
X7024824Y-12210008D02*
X7043872Y-12200484D01*
X7196253Y-12381436D02*
X7205777Y-12390960D01*
X7205777Y-12390960D02*
X7196253Y-12400484D01*
X7196253Y-12400484D02*
X7186729Y-12390960D01*
X7186729Y-12390960D02*
X7196253Y-12381436D01*
X7196253Y-12381436D02*
X7196253Y-12400484D01*
X7377205Y-12267150D02*
X7377205Y-12400484D01*
X7329586Y-12190960D02*
X7281967Y-12333817D01*
X7281967Y-12333817D02*
X7405777Y-12333817D01*
X7520062Y-12200484D02*
X7539110Y-12200484D01*
X7539110Y-12200484D02*
X7558158Y-12210008D01*
X7558158Y-12210008D02*
X7567682Y-12219531D01*
X7567682Y-12219531D02*
X7577205Y-12238579D01*
X7577205Y-12238579D02*
X7586729Y-12276674D01*
X7586729Y-12276674D02*
X7586729Y-12324293D01*
X7586729Y-12324293D02*
X7577205Y-12362388D01*
X7577205Y-12362388D02*
X7567682Y-12381436D01*
X7567682Y-12381436D02*
X7558158Y-12390960D01*
X7558158Y-12390960D02*
X7539110Y-12400484D01*
X7539110Y-12400484D02*
X7520062Y-12400484D01*
X7520062Y-12400484D02*
X7501015Y-12390960D01*
X7501015Y-12390960D02*
X7491491Y-12381436D01*
X7491491Y-12381436D02*
X7481967Y-12362388D01*
X7481967Y-12362388D02*
X7472443Y-12324293D01*
X7472443Y-12324293D02*
X7472443Y-12276674D01*
X7472443Y-12276674D02*
X7481967Y-12238579D01*
X7481967Y-12238579D02*
X7491491Y-12219531D01*
X7491491Y-12219531D02*
X7501015Y-12210008D01*
X7501015Y-12210008D02*
X7520062Y-12200484D01*
X7710539Y-12200484D02*
X7729586Y-12200484D01*
X7729586Y-12200484D02*
X7748634Y-12210008D01*
X7748634Y-12210008D02*
X7758158Y-12219531D01*
X7758158Y-12219531D02*
X7767682Y-12238579D01*
X7767682Y-12238579D02*
X7777205Y-12276674D01*
X7777205Y-12276674D02*
X7777205Y-12324293D01*
X7777205Y-12324293D02*
X7767682Y-12362388D01*
X7767682Y-12362388D02*
X7758158Y-12381436D01*
X7758158Y-12381436D02*
X7748634Y-12390960D01*
X7748634Y-12390960D02*
X7729586Y-12400484D01*
X7729586Y-12400484D02*
X7710539Y-12400484D01*
X7710539Y-12400484D02*
X7691491Y-12390960D01*
X7691491Y-12390960D02*
X7681967Y-12381436D01*
X7681967Y-12381436D02*
X7672443Y-12362388D01*
X7672443Y-12362388D02*
X7662920Y-12324293D01*
X7662920Y-12324293D02*
X7662920Y-12276674D01*
X7662920Y-12276674D02*
X7672443Y-12238579D01*
X7672443Y-12238579D02*
X7681967Y-12219531D01*
X7681967Y-12219531D02*
X7691491Y-12210008D01*
X7691491Y-12210008D02*
X7710539Y-12200484D01*
X7862920Y-12400484D02*
X7862920Y-12267150D01*
X7862920Y-12286198D02*
X7872443Y-12276674D01*
X7872443Y-12276674D02*
X7891491Y-12267150D01*
X7891491Y-12267150D02*
X7920063Y-12267150D01*
X7920063Y-12267150D02*
X7939110Y-12276674D01*
X7939110Y-12276674D02*
X7948634Y-12295722D01*
X7948634Y-12295722D02*
X7948634Y-12400484D01*
X7948634Y-12295722D02*
X7958158Y-12276674D01*
X7958158Y-12276674D02*
X7977205Y-12267150D01*
X7977205Y-12267150D02*
X8005777Y-12267150D01*
X8005777Y-12267150D02*
X8024824Y-12276674D01*
X8024824Y-12276674D02*
X8034348Y-12295722D01*
X8034348Y-12295722D02*
X8034348Y-12400484D01*
X8129586Y-12400484D02*
X8129586Y-12267150D01*
X8129586Y-12286198D02*
X8139110Y-12276674D01*
X8139110Y-12276674D02*
X8158158Y-12267150D01*
X8158158Y-12267150D02*
X8186729Y-12267150D01*
X8186729Y-12267150D02*
X8205777Y-12276674D01*
X8205777Y-12276674D02*
X8215301Y-12295722D01*
X8215301Y-12295722D02*
X8215301Y-12400484D01*
X8215301Y-12295722D02*
X8224824Y-12276674D01*
X8224824Y-12276674D02*
X8243872Y-12267150D01*
X8243872Y-12267150D02*
X8272443Y-12267150D01*
X8272443Y-12267150D02*
X8291491Y-12276674D01*
X8291491Y-12276674D02*
X8301015Y-12295722D01*
X8301015Y-12295722D02*
X8301015Y-12400484D01*
X8691491Y-12190960D02*
X8520063Y-12448103D01*
X8948634Y-12200484D02*
X8967682Y-12200484D01*
X8967682Y-12200484D02*
X8986729Y-12210008D01*
X8986729Y-12210008D02*
X8996253Y-12219531D01*
X8996253Y-12219531D02*
X9005777Y-12238579D01*
X9005777Y-12238579D02*
X9015301Y-12276674D01*
X9015301Y-12276674D02*
X9015301Y-12324293D01*
X9015301Y-12324293D02*
X9005777Y-12362388D01*
X9005777Y-12362388D02*
X8996253Y-12381436D01*
X8996253Y-12381436D02*
X8986729Y-12390960D01*
X8986729Y-12390960D02*
X8967682Y-12400484D01*
X8967682Y-12400484D02*
X8948634Y-12400484D01*
X8948634Y-12400484D02*
X8929587Y-12390960D01*
X8929587Y-12390960D02*
X8920063Y-12381436D01*
X8920063Y-12381436D02*
X8910539Y-12362388D01*
X8910539Y-12362388D02*
X8901015Y-12324293D01*
X8901015Y-12324293D02*
X8901015Y-12276674D01*
X8901015Y-12276674D02*
X8910539Y-12238579D01*
X8910539Y-12238579D02*
X8920063Y-12219531D01*
X8920063Y-12219531D02*
X8929587Y-12210008D01*
X8929587Y-12210008D02*
X8948634Y-12200484D01*
X9101015Y-12381436D02*
X9110539Y-12390960D01*
X9110539Y-12390960D02*
X9101015Y-12400484D01*
X9101015Y-12400484D02*
X9091491Y-12390960D01*
X9091491Y-12390960D02*
X9101015Y-12381436D01*
X9101015Y-12381436D02*
X9101015Y-12400484D01*
X9234348Y-12200484D02*
X9253396Y-12200484D01*
X9253396Y-12200484D02*
X9272444Y-12210008D01*
X9272444Y-12210008D02*
X9281968Y-12219531D01*
X9281968Y-12219531D02*
X9291491Y-12238579D01*
X9291491Y-12238579D02*
X9301015Y-12276674D01*
X9301015Y-12276674D02*
X9301015Y-12324293D01*
X9301015Y-12324293D02*
X9291491Y-12362388D01*
X9291491Y-12362388D02*
X9281968Y-12381436D01*
X9281968Y-12381436D02*
X9272444Y-12390960D01*
X9272444Y-12390960D02*
X9253396Y-12400484D01*
X9253396Y-12400484D02*
X9234348Y-12400484D01*
X9234348Y-12400484D02*
X9215301Y-12390960D01*
X9215301Y-12390960D02*
X9205777Y-12381436D01*
X9205777Y-12381436D02*
X9196253Y-12362388D01*
X9196253Y-12362388D02*
X9186729Y-12324293D01*
X9186729Y-12324293D02*
X9186729Y-12276674D01*
X9186729Y-12276674D02*
X9196253Y-12238579D01*
X9196253Y-12238579D02*
X9205777Y-12219531D01*
X9205777Y-12219531D02*
X9215301Y-12210008D01*
X9215301Y-12210008D02*
X9234348Y-12200484D01*
X9491491Y-12400484D02*
X9377206Y-12400484D01*
X9434348Y-12400484D02*
X9434348Y-12200484D01*
X9434348Y-12200484D02*
X9415301Y-12229055D01*
X9415301Y-12229055D02*
X9396253Y-12248103D01*
X9396253Y-12248103D02*
X9377206Y-12257627D01*
X9672444Y-12200484D02*
X9577206Y-12200484D01*
X9577206Y-12200484D02*
X9567682Y-12295722D01*
X9567682Y-12295722D02*
X9577206Y-12286198D01*
X9577206Y-12286198D02*
X9596253Y-12276674D01*
X9596253Y-12276674D02*
X9643872Y-12276674D01*
X9643872Y-12276674D02*
X9662920Y-12286198D01*
X9662920Y-12286198D02*
X9672444Y-12295722D01*
X9672444Y-12295722D02*
X9681968Y-12314769D01*
X9681968Y-12314769D02*
X9681968Y-12362388D01*
X9681968Y-12362388D02*
X9672444Y-12381436D01*
X9672444Y-12381436D02*
X9662920Y-12390960D01*
X9662920Y-12390960D02*
X9643872Y-12400484D01*
X9643872Y-12400484D02*
X9596253Y-12400484D01*
X9596253Y-12400484D02*
X9577206Y-12390960D01*
X9577206Y-12390960D02*
X9567682Y-12381436D01*
X9748634Y-12200484D02*
X9881968Y-12200484D01*
X9881968Y-12200484D02*
X9796253Y-12400484D01*
X9948634Y-12200484D02*
X9948634Y-12238579D01*
X10024825Y-12200484D02*
X10024825Y-12238579D01*
X10320063Y-12476674D02*
X10310539Y-12467150D01*
X10310539Y-12467150D02*
X10291491Y-12438579D01*
X10291491Y-12438579D02*
X10281968Y-12419531D01*
X10281968Y-12419531D02*
X10272444Y-12390960D01*
X10272444Y-12390960D02*
X10262920Y-12343341D01*
X10262920Y-12343341D02*
X10262920Y-12305246D01*
X10262920Y-12305246D02*
X10272444Y-12257627D01*
X10272444Y-12257627D02*
X10281968Y-12229055D01*
X10281968Y-12229055D02*
X10291491Y-12210008D01*
X10291491Y-12210008D02*
X10310539Y-12181436D01*
X10310539Y-12181436D02*
X10320063Y-12171912D01*
X10386730Y-12219531D02*
X10396253Y-12210008D01*
X10396253Y-12210008D02*
X10415301Y-12200484D01*
X10415301Y-12200484D02*
X10462920Y-12200484D01*
X10462920Y-12200484D02*
X10481968Y-12210008D01*
X10481968Y-12210008D02*
X10491491Y-12219531D01*
X10491491Y-12219531D02*
X10501015Y-12238579D01*
X10501015Y-12238579D02*
X10501015Y-12257627D01*
X10501015Y-12257627D02*
X10491491Y-12286198D01*
X10491491Y-12286198D02*
X10377206Y-12400484D01*
X10377206Y-12400484D02*
X10501015Y-12400484D01*
X10596253Y-12400484D02*
X10634349Y-12400484D01*
X10634349Y-12400484D02*
X10653396Y-12390960D01*
X10653396Y-12390960D02*
X10662920Y-12381436D01*
X10662920Y-12381436D02*
X10681968Y-12352865D01*
X10681968Y-12352865D02*
X10691491Y-12314769D01*
X10691491Y-12314769D02*
X10691491Y-12238579D01*
X10691491Y-12238579D02*
X10681968Y-12219531D01*
X10681968Y-12219531D02*
X10672444Y-12210008D01*
X10672444Y-12210008D02*
X10653396Y-12200484D01*
X10653396Y-12200484D02*
X10615301Y-12200484D01*
X10615301Y-12200484D02*
X10596253Y-12210008D01*
X10596253Y-12210008D02*
X10586730Y-12219531D01*
X10586730Y-12219531D02*
X10577206Y-12238579D01*
X10577206Y-12238579D02*
X10577206Y-12286198D01*
X10577206Y-12286198D02*
X10586730Y-12305246D01*
X10586730Y-12305246D02*
X10596253Y-12314769D01*
X10596253Y-12314769D02*
X10615301Y-12324293D01*
X10615301Y-12324293D02*
X10653396Y-12324293D01*
X10653396Y-12324293D02*
X10672444Y-12314769D01*
X10672444Y-12314769D02*
X10681968Y-12305246D01*
X10681968Y-12305246D02*
X10691491Y-12286198D01*
X10929587Y-12400484D02*
X10929587Y-12200484D01*
X11015301Y-12400484D02*
X11015301Y-12295722D01*
X11015301Y-12295722D02*
X11005777Y-12276674D01*
X11005777Y-12276674D02*
X10986730Y-12267150D01*
X10986730Y-12267150D02*
X10958158Y-12267150D01*
X10958158Y-12267150D02*
X10939111Y-12276674D01*
X10939111Y-12276674D02*
X10929587Y-12286198D01*
X11139111Y-12400484D02*
X11120063Y-12390960D01*
X11120063Y-12390960D02*
X11110539Y-12381436D01*
X11110539Y-12381436D02*
X11101015Y-12362388D01*
X11101015Y-12362388D02*
X11101015Y-12305246D01*
X11101015Y-12305246D02*
X11110539Y-12286198D01*
X11110539Y-12286198D02*
X11120063Y-12276674D01*
X11120063Y-12276674D02*
X11139111Y-12267150D01*
X11139111Y-12267150D02*
X11167682Y-12267150D01*
X11167682Y-12267150D02*
X11186730Y-12276674D01*
X11186730Y-12276674D02*
X11196253Y-12286198D01*
X11196253Y-12286198D02*
X11205777Y-12305246D01*
X11205777Y-12305246D02*
X11205777Y-12362388D01*
X11205777Y-12362388D02*
X11196253Y-12381436D01*
X11196253Y-12381436D02*
X11186730Y-12390960D01*
X11186730Y-12390960D02*
X11167682Y-12400484D01*
X11167682Y-12400484D02*
X11139111Y-12400484D01*
X11320063Y-12400484D02*
X11301015Y-12390960D01*
X11301015Y-12390960D02*
X11291491Y-12371912D01*
X11291491Y-12371912D02*
X11291491Y-12200484D01*
X11472444Y-12390960D02*
X11453396Y-12400484D01*
X11453396Y-12400484D02*
X11415301Y-12400484D01*
X11415301Y-12400484D02*
X11396253Y-12390960D01*
X11396253Y-12390960D02*
X11386730Y-12371912D01*
X11386730Y-12371912D02*
X11386730Y-12295722D01*
X11386730Y-12295722D02*
X11396253Y-12276674D01*
X11396253Y-12276674D02*
X11415301Y-12267150D01*
X11415301Y-12267150D02*
X11453396Y-12267150D01*
X11453396Y-12267150D02*
X11472444Y-12276674D01*
X11472444Y-12276674D02*
X11481968Y-12295722D01*
X11481968Y-12295722D02*
X11481968Y-12314769D01*
X11481968Y-12314769D02*
X11386730Y-12333817D01*
X11558158Y-12390960D02*
X11577206Y-12400484D01*
X11577206Y-12400484D02*
X11615301Y-12400484D01*
X11615301Y-12400484D02*
X11634349Y-12390960D01*
X11634349Y-12390960D02*
X11643872Y-12371912D01*
X11643872Y-12371912D02*
X11643872Y-12362388D01*
X11643872Y-12362388D02*
X11634349Y-12343341D01*
X11634349Y-12343341D02*
X11615301Y-12333817D01*
X11615301Y-12333817D02*
X11586730Y-12333817D01*
X11586730Y-12333817D02*
X11567682Y-12324293D01*
X11567682Y-12324293D02*
X11558158Y-12305246D01*
X11558158Y-12305246D02*
X11558158Y-12295722D01*
X11558158Y-12295722D02*
X11567682Y-12276674D01*
X11567682Y-12276674D02*
X11586730Y-12267150D01*
X11586730Y-12267150D02*
X11615301Y-12267150D01*
X11615301Y-12267150D02*
X11634349Y-12276674D01*
X11710539Y-12476674D02*
X11720063Y-12467150D01*
X11720063Y-12467150D02*
X11739111Y-12438579D01*
X11739111Y-12438579D02*
X11748634Y-12419531D01*
X11748634Y-12419531D02*
X11758158Y-12390960D01*
X11758158Y-12390960D02*
X11767682Y-12343341D01*
X11767682Y-12343341D02*
X11767682Y-12305246D01*
X11767682Y-12305246D02*
X11758158Y-12257627D01*
X11758158Y-12257627D02*
X11748634Y-12229055D01*
X11748634Y-12229055D02*
X11739111Y-12210008D01*
X11739111Y-12210008D02*
X11720063Y-12181436D01*
X11720063Y-12181436D02*
X11710539Y-12171912D01*
D10*
X6695000Y-12523000D02*
X6695000Y-12623000D01*
X6645000Y-12573000D02*
X6745000Y-12573000D01*
D11*
X7110539Y-12664484D02*
X6996253Y-12664484D01*
X7053396Y-12664484D02*
X7053396Y-12464484D01*
X7053396Y-12464484D02*
X7034348Y-12493055D01*
X7034348Y-12493055D02*
X7015301Y-12512103D01*
X7015301Y-12512103D02*
X6996253Y-12521627D01*
X7196253Y-12645436D02*
X7205777Y-12654960D01*
X7205777Y-12654960D02*
X7196253Y-12664484D01*
X7196253Y-12664484D02*
X7186729Y-12654960D01*
X7186729Y-12654960D02*
X7196253Y-12645436D01*
X7196253Y-12645436D02*
X7196253Y-12664484D01*
X7329586Y-12464484D02*
X7348634Y-12464484D01*
X7348634Y-12464484D02*
X7367682Y-12474008D01*
X7367682Y-12474008D02*
X7377205Y-12483531D01*
X7377205Y-12483531D02*
X7386729Y-12502579D01*
X7386729Y-12502579D02*
X7396253Y-12540674D01*
X7396253Y-12540674D02*
X7396253Y-12588293D01*
X7396253Y-12588293D02*
X7386729Y-12626388D01*
X7386729Y-12626388D02*
X7377205Y-12645436D01*
X7377205Y-12645436D02*
X7367682Y-12654960D01*
X7367682Y-12654960D02*
X7348634Y-12664484D01*
X7348634Y-12664484D02*
X7329586Y-12664484D01*
X7329586Y-12664484D02*
X7310539Y-12654960D01*
X7310539Y-12654960D02*
X7301015Y-12645436D01*
X7301015Y-12645436D02*
X7291491Y-12626388D01*
X7291491Y-12626388D02*
X7281967Y-12588293D01*
X7281967Y-12588293D02*
X7281967Y-12540674D01*
X7281967Y-12540674D02*
X7291491Y-12502579D01*
X7291491Y-12502579D02*
X7301015Y-12483531D01*
X7301015Y-12483531D02*
X7310539Y-12474008D01*
X7310539Y-12474008D02*
X7329586Y-12464484D01*
X7520062Y-12464484D02*
X7539110Y-12464484D01*
X7539110Y-12464484D02*
X7558158Y-12474008D01*
X7558158Y-12474008D02*
X7567682Y-12483531D01*
X7567682Y-12483531D02*
X7577205Y-12502579D01*
X7577205Y-12502579D02*
X7586729Y-12540674D01*
X7586729Y-12540674D02*
X7586729Y-12588293D01*
X7586729Y-12588293D02*
X7577205Y-12626388D01*
X7577205Y-12626388D02*
X7567682Y-12645436D01*
X7567682Y-12645436D02*
X7558158Y-12654960D01*
X7558158Y-12654960D02*
X7539110Y-12664484D01*
X7539110Y-12664484D02*
X7520062Y-12664484D01*
X7520062Y-12664484D02*
X7501015Y-12654960D01*
X7501015Y-12654960D02*
X7491491Y-12645436D01*
X7491491Y-12645436D02*
X7481967Y-12626388D01*
X7481967Y-12626388D02*
X7472443Y-12588293D01*
X7472443Y-12588293D02*
X7472443Y-12540674D01*
X7472443Y-12540674D02*
X7481967Y-12502579D01*
X7481967Y-12502579D02*
X7491491Y-12483531D01*
X7491491Y-12483531D02*
X7501015Y-12474008D01*
X7501015Y-12474008D02*
X7520062Y-12464484D01*
X7710539Y-12464484D02*
X7729586Y-12464484D01*
X7729586Y-12464484D02*
X7748634Y-12474008D01*
X7748634Y-12474008D02*
X7758158Y-12483531D01*
X7758158Y-12483531D02*
X7767682Y-12502579D01*
X7767682Y-12502579D02*
X7777205Y-12540674D01*
X7777205Y-12540674D02*
X7777205Y-12588293D01*
X7777205Y-12588293D02*
X7767682Y-12626388D01*
X7767682Y-12626388D02*
X7758158Y-12645436D01*
X7758158Y-12645436D02*
X7748634Y-12654960D01*
X7748634Y-12654960D02*
X7729586Y-12664484D01*
X7729586Y-12664484D02*
X7710539Y-12664484D01*
X7710539Y-12664484D02*
X7691491Y-12654960D01*
X7691491Y-12654960D02*
X7681967Y-12645436D01*
X7681967Y-12645436D02*
X7672443Y-12626388D01*
X7672443Y-12626388D02*
X7662920Y-12588293D01*
X7662920Y-12588293D02*
X7662920Y-12540674D01*
X7662920Y-12540674D02*
X7672443Y-12502579D01*
X7672443Y-12502579D02*
X7681967Y-12483531D01*
X7681967Y-12483531D02*
X7691491Y-12474008D01*
X7691491Y-12474008D02*
X7710539Y-12464484D01*
X7862920Y-12664484D02*
X7862920Y-12531150D01*
X7862920Y-12550198D02*
X7872443Y-12540674D01*
X7872443Y-12540674D02*
X7891491Y-12531150D01*
X7891491Y-12531150D02*
X7920063Y-12531150D01*
X7920063Y-12531150D02*
X7939110Y-12540674D01*
X7939110Y-12540674D02*
X7948634Y-12559722D01*
X7948634Y-12559722D02*
X7948634Y-12664484D01*
X7948634Y-12559722D02*
X7958158Y-12540674D01*
X7958158Y-12540674D02*
X7977205Y-12531150D01*
X7977205Y-12531150D02*
X8005777Y-12531150D01*
X8005777Y-12531150D02*
X8024824Y-12540674D01*
X8024824Y-12540674D02*
X8034348Y-12559722D01*
X8034348Y-12559722D02*
X8034348Y-12664484D01*
X8129586Y-12664484D02*
X8129586Y-12531150D01*
X8129586Y-12550198D02*
X8139110Y-12540674D01*
X8139110Y-12540674D02*
X8158158Y-12531150D01*
X8158158Y-12531150D02*
X8186729Y-12531150D01*
X8186729Y-12531150D02*
X8205777Y-12540674D01*
X8205777Y-12540674D02*
X8215301Y-12559722D01*
X8215301Y-12559722D02*
X8215301Y-12664484D01*
X8215301Y-12559722D02*
X8224824Y-12540674D01*
X8224824Y-12540674D02*
X8243872Y-12531150D01*
X8243872Y-12531150D02*
X8272443Y-12531150D01*
X8272443Y-12531150D02*
X8291491Y-12540674D01*
X8291491Y-12540674D02*
X8301015Y-12559722D01*
X8301015Y-12559722D02*
X8301015Y-12664484D01*
X8691491Y-12454960D02*
X8520063Y-12712103D01*
X8948634Y-12464484D02*
X8967682Y-12464484D01*
X8967682Y-12464484D02*
X8986729Y-12474008D01*
X8986729Y-12474008D02*
X8996253Y-12483531D01*
X8996253Y-12483531D02*
X9005777Y-12502579D01*
X9005777Y-12502579D02*
X9015301Y-12540674D01*
X9015301Y-12540674D02*
X9015301Y-12588293D01*
X9015301Y-12588293D02*
X9005777Y-12626388D01*
X9005777Y-12626388D02*
X8996253Y-12645436D01*
X8996253Y-12645436D02*
X8986729Y-12654960D01*
X8986729Y-12654960D02*
X8967682Y-12664484D01*
X8967682Y-12664484D02*
X8948634Y-12664484D01*
X8948634Y-12664484D02*
X8929587Y-12654960D01*
X8929587Y-12654960D02*
X8920063Y-12645436D01*
X8920063Y-12645436D02*
X8910539Y-12626388D01*
X8910539Y-12626388D02*
X8901015Y-12588293D01*
X8901015Y-12588293D02*
X8901015Y-12540674D01*
X8901015Y-12540674D02*
X8910539Y-12502579D01*
X8910539Y-12502579D02*
X8920063Y-12483531D01*
X8920063Y-12483531D02*
X8929587Y-12474008D01*
X8929587Y-12474008D02*
X8948634Y-12464484D01*
X9101015Y-12645436D02*
X9110539Y-12654960D01*
X9110539Y-12654960D02*
X9101015Y-12664484D01*
X9101015Y-12664484D02*
X9091491Y-12654960D01*
X9091491Y-12654960D02*
X9101015Y-12645436D01*
X9101015Y-12645436D02*
X9101015Y-12664484D01*
X9234348Y-12464484D02*
X9253396Y-12464484D01*
X9253396Y-12464484D02*
X9272444Y-12474008D01*
X9272444Y-12474008D02*
X9281968Y-12483531D01*
X9281968Y-12483531D02*
X9291491Y-12502579D01*
X9291491Y-12502579D02*
X9301015Y-12540674D01*
X9301015Y-12540674D02*
X9301015Y-12588293D01*
X9301015Y-12588293D02*
X9291491Y-12626388D01*
X9291491Y-12626388D02*
X9281968Y-12645436D01*
X9281968Y-12645436D02*
X9272444Y-12654960D01*
X9272444Y-12654960D02*
X9253396Y-12664484D01*
X9253396Y-12664484D02*
X9234348Y-12664484D01*
X9234348Y-12664484D02*
X9215301Y-12654960D01*
X9215301Y-12654960D02*
X9205777Y-12645436D01*
X9205777Y-12645436D02*
X9196253Y-12626388D01*
X9196253Y-12626388D02*
X9186729Y-12588293D01*
X9186729Y-12588293D02*
X9186729Y-12540674D01*
X9186729Y-12540674D02*
X9196253Y-12502579D01*
X9196253Y-12502579D02*
X9205777Y-12483531D01*
X9205777Y-12483531D02*
X9215301Y-12474008D01*
X9215301Y-12474008D02*
X9234348Y-12464484D01*
X9367682Y-12464484D02*
X9491491Y-12464484D01*
X9491491Y-12464484D02*
X9424825Y-12540674D01*
X9424825Y-12540674D02*
X9453396Y-12540674D01*
X9453396Y-12540674D02*
X9472444Y-12550198D01*
X9472444Y-12550198D02*
X9481968Y-12559722D01*
X9481968Y-12559722D02*
X9491491Y-12578769D01*
X9491491Y-12578769D02*
X9491491Y-12626388D01*
X9491491Y-12626388D02*
X9481968Y-12645436D01*
X9481968Y-12645436D02*
X9472444Y-12654960D01*
X9472444Y-12654960D02*
X9453396Y-12664484D01*
X9453396Y-12664484D02*
X9396253Y-12664484D01*
X9396253Y-12664484D02*
X9377206Y-12654960D01*
X9377206Y-12654960D02*
X9367682Y-12645436D01*
X9586729Y-12664484D02*
X9624825Y-12664484D01*
X9624825Y-12664484D02*
X9643872Y-12654960D01*
X9643872Y-12654960D02*
X9653396Y-12645436D01*
X9653396Y-12645436D02*
X9672444Y-12616865D01*
X9672444Y-12616865D02*
X9681968Y-12578769D01*
X9681968Y-12578769D02*
X9681968Y-12502579D01*
X9681968Y-12502579D02*
X9672444Y-12483531D01*
X9672444Y-12483531D02*
X9662920Y-12474008D01*
X9662920Y-12474008D02*
X9643872Y-12464484D01*
X9643872Y-12464484D02*
X9605777Y-12464484D01*
X9605777Y-12464484D02*
X9586729Y-12474008D01*
X9586729Y-12474008D02*
X9577206Y-12483531D01*
X9577206Y-12483531D02*
X9567682Y-12502579D01*
X9567682Y-12502579D02*
X9567682Y-12550198D01*
X9567682Y-12550198D02*
X9577206Y-12569246D01*
X9577206Y-12569246D02*
X9586729Y-12578769D01*
X9586729Y-12578769D02*
X9605777Y-12588293D01*
X9605777Y-12588293D02*
X9643872Y-12588293D01*
X9643872Y-12588293D02*
X9662920Y-12578769D01*
X9662920Y-12578769D02*
X9672444Y-12569246D01*
X9672444Y-12569246D02*
X9681968Y-12550198D01*
X9853396Y-12531150D02*
X9853396Y-12664484D01*
X9805777Y-12454960D02*
X9758158Y-12597817D01*
X9758158Y-12597817D02*
X9881968Y-12597817D01*
X9948634Y-12464484D02*
X9948634Y-12502579D01*
X10024825Y-12464484D02*
X10024825Y-12502579D01*
X10320063Y-12740674D02*
X10310539Y-12731150D01*
X10310539Y-12731150D02*
X10291491Y-12702579D01*
X10291491Y-12702579D02*
X10281968Y-12683531D01*
X10281968Y-12683531D02*
X10272444Y-12654960D01*
X10272444Y-12654960D02*
X10262920Y-12607341D01*
X10262920Y-12607341D02*
X10262920Y-12569246D01*
X10262920Y-12569246D02*
X10272444Y-12521627D01*
X10272444Y-12521627D02*
X10281968Y-12493055D01*
X10281968Y-12493055D02*
X10291491Y-12474008D01*
X10291491Y-12474008D02*
X10310539Y-12445436D01*
X10310539Y-12445436D02*
X10320063Y-12435912D01*
X10377206Y-12464484D02*
X10501015Y-12464484D01*
X10501015Y-12464484D02*
X10434349Y-12540674D01*
X10434349Y-12540674D02*
X10462920Y-12540674D01*
X10462920Y-12540674D02*
X10481968Y-12550198D01*
X10481968Y-12550198D02*
X10491491Y-12559722D01*
X10491491Y-12559722D02*
X10501015Y-12578769D01*
X10501015Y-12578769D02*
X10501015Y-12626388D01*
X10501015Y-12626388D02*
X10491491Y-12645436D01*
X10491491Y-12645436D02*
X10481968Y-12654960D01*
X10481968Y-12654960D02*
X10462920Y-12664484D01*
X10462920Y-12664484D02*
X10405777Y-12664484D01*
X10405777Y-12664484D02*
X10386730Y-12654960D01*
X10386730Y-12654960D02*
X10377206Y-12645436D01*
X10672444Y-12531150D02*
X10672444Y-12664484D01*
X10624825Y-12454960D02*
X10577206Y-12597817D01*
X10577206Y-12597817D02*
X10701015Y-12597817D01*
X10929587Y-12664484D02*
X10929587Y-12464484D01*
X11015301Y-12664484D02*
X11015301Y-12559722D01*
X11015301Y-12559722D02*
X11005777Y-12540674D01*
X11005777Y-12540674D02*
X10986730Y-12531150D01*
X10986730Y-12531150D02*
X10958158Y-12531150D01*
X10958158Y-12531150D02*
X10939111Y-12540674D01*
X10939111Y-12540674D02*
X10929587Y-12550198D01*
X11139111Y-12664484D02*
X11120063Y-12654960D01*
X11120063Y-12654960D02*
X11110539Y-12645436D01*
X11110539Y-12645436D02*
X11101015Y-12626388D01*
X11101015Y-12626388D02*
X11101015Y-12569246D01*
X11101015Y-12569246D02*
X11110539Y-12550198D01*
X11110539Y-12550198D02*
X11120063Y-12540674D01*
X11120063Y-12540674D02*
X11139111Y-12531150D01*
X11139111Y-12531150D02*
X11167682Y-12531150D01*
X11167682Y-12531150D02*
X11186730Y-12540674D01*
X11186730Y-12540674D02*
X11196253Y-12550198D01*
X11196253Y-12550198D02*
X11205777Y-12569246D01*
X11205777Y-12569246D02*
X11205777Y-12626388D01*
X11205777Y-12626388D02*
X11196253Y-12645436D01*
X11196253Y-12645436D02*
X11186730Y-12654960D01*
X11186730Y-12654960D02*
X11167682Y-12664484D01*
X11167682Y-12664484D02*
X11139111Y-12664484D01*
X11320063Y-12664484D02*
X11301015Y-12654960D01*
X11301015Y-12654960D02*
X11291491Y-12635912D01*
X11291491Y-12635912D02*
X11291491Y-12464484D01*
X11472444Y-12654960D02*
X11453396Y-12664484D01*
X11453396Y-12664484D02*
X11415301Y-12664484D01*
X11415301Y-12664484D02*
X11396253Y-12654960D01*
X11396253Y-12654960D02*
X11386730Y-12635912D01*
X11386730Y-12635912D02*
X11386730Y-12559722D01*
X11386730Y-12559722D02*
X11396253Y-12540674D01*
X11396253Y-12540674D02*
X11415301Y-12531150D01*
X11415301Y-12531150D02*
X11453396Y-12531150D01*
X11453396Y-12531150D02*
X11472444Y-12540674D01*
X11472444Y-12540674D02*
X11481968Y-12559722D01*
X11481968Y-12559722D02*
X11481968Y-12578769D01*
X11481968Y-12578769D02*
X11386730Y-12597817D01*
X11558158Y-12654960D02*
X11577206Y-12664484D01*
X11577206Y-12664484D02*
X11615301Y-12664484D01*
X11615301Y-12664484D02*
X11634349Y-12654960D01*
X11634349Y-12654960D02*
X11643872Y-12635912D01*
X11643872Y-12635912D02*
X11643872Y-12626388D01*
X11643872Y-12626388D02*
X11634349Y-12607341D01*
X11634349Y-12607341D02*
X11615301Y-12597817D01*
X11615301Y-12597817D02*
X11586730Y-12597817D01*
X11586730Y-12597817D02*
X11567682Y-12588293D01*
X11567682Y-12588293D02*
X11558158Y-12569246D01*
X11558158Y-12569246D02*
X11558158Y-12559722D01*
X11558158Y-12559722D02*
X11567682Y-12540674D01*
X11567682Y-12540674D02*
X11586730Y-12531150D01*
X11586730Y-12531150D02*
X11615301Y-12531150D01*
X11615301Y-12531150D02*
X11634349Y-12540674D01*
X11710539Y-12740674D02*
X11720063Y-12731150D01*
X11720063Y-12731150D02*
X11739111Y-12702579D01*
X11739111Y-12702579D02*
X11748634Y-12683531D01*
X11748634Y-12683531D02*
X11758158Y-12654960D01*
X11758158Y-12654960D02*
X11767682Y-12607341D01*
X11767682Y-12607341D02*
X11767682Y-12569246D01*
X11767682Y-12569246D02*
X11758158Y-12521627D01*
X11758158Y-12521627D02*
X11748634Y-12493055D01*
X11748634Y-12493055D02*
X11739111Y-12474008D01*
X11739111Y-12474008D02*
X11720063Y-12445436D01*
X11720063Y-12445436D02*
X11710539Y-12435912D01*
M02*
