M48
; DRILL file {KiCad 8.0.9} date 2025-05-10T12:34:38+0100
; FORMAT={-:-/ absolute / metric / decimal}
; #@! TF.CreationDate,2025-05-10T12:34:38+01:00
; #@! TF.GenerationSoftware,Kicad,Pcbnew,8.0.9
; #@! TF.FileFunction,Plated,1,2,PTH
FMAT,2
METRIC
; #@! TA.AperFunction,Plated,PTH,ViaDrill
T1C0.300
; #@! TA.AperFunction,Plated,PTH,ViaDrill
T2C0.400
; #@! TA.AperFunction,Plated,PTH,ComponentDrill
T3C1.000
%
G90
G05
T1
X69.8Y-111.2
X76.2Y-59.4
X76.2Y-61.8
X76.27Y-91.9
X77.0Y-81.0
X77.0Y-96.8
X77.34Y-68.26
X77.34Y-75.6
X77.6Y-82.2
X77.9Y-99.5
X78.0Y-69.4
X78.2Y-84.8
X78.2Y-73.2
X78.4Y-91.2
X78.8Y-87.2
X79.2Y-69.8
X79.2Y-90.4
X79.25Y-71.95
X80.0Y-69.2
X80.0Y-74.07
X80.0Y-87.8
X80.0Y-89.4
X80.6Y-92.603
X80.8Y-68.2
X80.8Y-74.8
X80.8Y-87.0
X81.0Y-103.4
X81.4Y-67.2
X81.4Y-76.54
X81.4Y-86.2
X81.4Y-92.93
X82.2Y-85.0
X82.2Y-94.2
X82.6Y-95.2
X82.8Y-77.2
X82.8Y-65.447
X83.2Y-84.4
X83.4Y-111.4
X83.6Y-100.2
X84.0Y-64.6
X84.0Y-78.4
X85.6Y-83.6
X86.6Y-76.0
X87.6Y-76.8
X88.6Y-93.417
X88.6Y-99.6
X88.8Y-97.4
X89.8Y-87.5
X89.8Y-94.6
X89.8Y-97.6
X90.703Y-83.697
X90.703Y-95.102
X91.2Y-78.6
X91.4Y-67.4
X91.8Y-68.8
X91.8Y-93.8
X92.2Y-102.625
X92.2Y-105.0
X92.63Y-71.6
X94.2Y-85.6
X94.2Y-89.4
X94.2Y-92.6
X94.2Y-96.4
X94.2Y-98.4
X94.2Y-100.0
X94.39Y-82.443
X94.902Y-95.322
X95.0Y-91.4
X95.4Y-68.2
X95.56Y-77.0
X95.8Y-69.4
X96.2Y-111.6
X97.0Y-75.6
X97.0Y-83.0
X97.6Y-103.0
X97.6Y-105.6
X98.097Y-95.322
X98.117Y-91.317
X98.2Y-76.4
X98.4Y-93.2
X98.8Y-80.2
X99.2Y-95.6
X99.4Y-73.8
X99.4Y-93.4
X99.4Y-97.1
X99.6Y-63.2
X99.6Y-69.4
X100.107Y-92.929
X100.2Y-79.0
X100.2Y-91.8
X100.2Y-97.8
X100.4Y-71.4
X100.7Y-62.1
X100.8Y-90.0
X100.8Y-68.2
X101.0Y-90.8
X101.0Y-96.2
X101.2Y-70.8
X101.4Y-63.8
X102.4Y-66.0
X102.4Y-72.22
X102.67Y-67.0
X102.8Y-89.8
X103.0Y-84.19
X103.4Y-65.8
X104.2Y-88.8
X104.8Y-112.8
X105.6Y-65.6
X106.97Y-75.2
X106.97Y-86.237
X107.83Y-103.2
X108.6Y-87.0
X108.6Y-89.6
X115.4Y-94.4
X115.4Y-107.05
X115.4Y-112.8
X116.2Y-99.2
X116.2Y-110.8
X127.4Y-74.6
X127.4Y-85.4
X128.0Y-96.8
X128.0Y-100.8
X128.2Y-83.0
X128.4Y-77.6
X133.0Y-66.6
X133.2Y-64.0
T2
X69.8Y-98.2
X81.0Y-111.2
X89.529Y-102.845
X89.8Y-79.4
X92.2Y-111.43
X92.4Y-58.8
X92.63Y-82.4
X93.33Y-81.2
X93.33Y-87.6
X93.33Y-109.818
X93.4Y-94.4
X94.0Y-113.2
X94.2Y-79.4
X95.0Y-61.4
X95.0Y-67.0
X101.4Y-98.0
X105.0Y-101.5
X105.0Y-110.0
X106.0Y-81.2
X106.0Y-96.0
X106.8Y-94.33
X106.87Y-88.2
X107.0Y-107.4
X107.8Y-60.474
X107.8Y-97.8
X108.6Y-62.83
X108.6Y-69.0
X108.6Y-81.2
X108.6Y-109.6
T3
X71.6Y-53.02
X71.6Y-55.56
X71.6Y-58.1
X71.6Y-60.64
X71.6Y-63.18
X71.6Y-65.72
X71.6Y-68.26
X71.6Y-70.8
X71.6Y-73.34
X71.6Y-75.88
X71.6Y-78.42
X71.6Y-80.96
X71.6Y-83.5
X71.6Y-86.04
X71.6Y-88.58
X71.6Y-91.12
X71.6Y-93.66
X74.14Y-53.02
X74.14Y-55.56
X74.14Y-58.1
X74.14Y-60.64
X74.14Y-63.18
X74.14Y-65.72
X74.14Y-68.26
X74.14Y-70.8
X74.14Y-73.34
X74.14Y-75.88
X74.14Y-78.42
X74.14Y-80.96
X74.14Y-83.5
X74.14Y-86.04
X74.14Y-88.58
X74.14Y-91.12
X74.14Y-93.66
M30
